<?xml version="1.0" encoding="UTF-8" standalone="no"?>
<!DOCTYPE svg PUBLIC "-//W3C//DTD SVG 1.1//EN" "http://www.w3.org/Graphics/SVG/1.1/DTD/svg11.dtd">
<svg xmlns="http://www.w3.org/2000/svg" version="1.1" viewBox="0.00 0.00 690.00 754.00">
<g stroke-width="2.00" fill="none" stroke-linecap="butt">
<path stroke="#262626" vector-effect="non-scaling-stroke" d="
  M 173.47 124.84
  L 436.75 124.84
  A 0.87 0.87 0.0 0 0 437.62 123.97
  L 437.62 121.82
  A 25.46 24.18 0.0 0 0 412.16 97.64
  L 198.06 97.64
  A 25.46 24.18 0.0 0 0 172.60 121.82
  L 172.60 123.97
  A 0.87 0.87 0.0 0 0 173.47 124.84"
/>
<path stroke="#2c6677" vector-effect="non-scaling-stroke" d="
  M 437.85 433.09
  L 437.85 140.20
  A 0.84 0.83 -90.0 0 0 437.02 139.36
  L 173.41 139.36
  A 0.60 0.60 0.0 0 0 172.81 139.96
  L 172.81 494.12
  A 0.41 0.41 0.0 0 0 173.22 494.53
  L 406.80 494.53
  A 0.49 0.49 0.0 0 0 407.25 493.83
  Q 403.94 486.73 398.77 480.74
  Q 387.99 468.23 369.96 447.81
  C 361.35 438.06 358.46 424.53 365.22 413.22
  C 375.30 396.36 397.56 394.07 411.61 407.89
  Q 425.67 421.74 437.12 433.39
  A 0.43 0.42 -67.2 0 0 437.85 433.09"
/>
<path stroke="#7f6e5a" vector-effect="non-scaling-stroke" d="
  M 452.29 362.66
  Q 452.09 398.40 452.24 445.70
  C 452.25 447.88 451.92 448.61 453.65 450.34
  Q 478.27 474.89 500.70 497.82
  A 0.38 0.37 -43.4 0 1 500.68 498.35
  L 491.09 507.04
  A 0.60 0.59 -43.6 0 1 490.27 507.02
  Q 428.21 444.98 401.72 418.04
  Q 397.01 413.24 390.54 412.99
  C 384.06 412.73 378.01 417.09 376.40 423.39
  C 374.71 430.03 377.97 435.83 382.20 440.55
  Q 404.45 465.47 410.13 472.09
  Q 421.81 485.74 424.07 503.06
  Q 424.35 505.21 424.12 518.43
  Q 423.83 534.97 427.88 551.42
  C 431.64 566.69 439.56 578.69 450.86 589.16
  A 0.49 0.48 41.9 0 1 450.90 589.83
  L 442.97 599.07
  A 0.61 0.61 0.0 0 1 442.13 599.15
  Q 430.31 589.96 422.73 577.25
  A 1.04 1.01 74.4 0 0 421.85 576.74
  L 391.83 576.74
  A 0.30 0.30 0.0 0 0 391.56 577.16
  Q 400.63 598.36 415.90 613.99
  A 2.86 2.85 67.6 0 0 417.93 614.84
  L 541.07 614.84
  A 0.50 0.50 0.0 0 0 541.57 614.34
  Q 541.55 552.13 541.58 461.30
  Q 541.58 454.03 540.18 450.38
  Q 538.11 444.97 534.09 441.35
  Q 529.06 436.80 486.69 394.65
  Q 474.93 382.96 465.40 372.75
  Q 458.38 365.22 452.71 362.40
  A 0.29 0.29 0.0 0 0 452.29 362.66"
/>
<path stroke="#262626" vector-effect="non-scaling-stroke" d="
  M 409.80 508.33
  L 173.43 508.33
  A 0.94 0.94 0.0 0 0 172.49 509.28
  Q 172.52 512.01 172.77 534.97
  Q 172.85 542.50 174.69 547.05
  C 179.08 557.86 188.72 563.01 200.25 563.01
  Q 251.26 563.00 415.73 562.85
  A 0.63 0.63 0.0 0 0 416.33 562.03
  Q 408.01 535.88 410.29 508.87
  A 0.50 0.49 -87.8 0 0 409.80 508.33"
/>
<path stroke="#804e16" vector-effect="non-scaling-stroke" d="
  M 560.72 629.73
  A 0.47 0.47 0.0 0 0 560.25 629.26
  L 411.45 629.26
  A 0.47 0.47 0.0 0 0 410.98 629.73
  L 410.98 669.65
  A 0.47 0.47 0.0 0 0 411.45 670.12
  L 560.25 670.12
  A 0.47 0.47 0.0 0 0 560.72 669.65
  L 560.72 629.73"
/>
<path stroke="#abe5f6" vector-effect="non-scaling-stroke" d="
  M 193.51 253.41
  L 193.76 303.45"
/>
<path stroke="#2c6677" vector-effect="non-scaling-stroke" d="
  M 193.76 303.45
  Q 193.66 303.45 193.47 303.78
  A 0.43 0.38 62.9 0 0 193.42 303.98
  L 193.42 391.60
  A 0.35 0.34 -0.0 0 0 193.77 391.94
  L 283.03 391.81"
/>
<path stroke="#abe5f6" vector-effect="non-scaling-stroke" d="
  M 283.03 391.81
  Q 304.87 390.59 326.73 391.77"
/>
<path stroke="#2c6677" vector-effect="non-scaling-stroke" d="
  M 326.73 391.77
  L 416.19 391.94
  A 0.42 0.42 0.0 0 0 416.61 391.52
  L 416.35 303.44"
/>
<path stroke="#abe5f6" vector-effect="non-scaling-stroke" d="
  M 416.35 303.44
  Q 415.06 278.37 416.39 253.39"
/>
<path stroke="#2c6677" vector-effect="non-scaling-stroke" d="
  M 416.39 253.39
  L 416.59 166.45
  A 0.34 0.34 0.0 0 0 416.25 166.10
  L 326.76 166.06"
/>
<path stroke="#abe5f6" vector-effect="non-scaling-stroke" d="
  M 326.76 166.06
  L 282.91 166.11"
/>
<path stroke="#2c6677" vector-effect="non-scaling-stroke" d="
  M 282.91 166.11
  L 193.88 166.14
  A 0.50 0.49 -90.0 0 0 193.39 166.64
  L 193.51 253.41"
/>
<path stroke="#7f7f7f" vector-effect="non-scaling-stroke" d="
  M 282.91 166.11
  L 282.97 179.83
  A 0.35 0.34 -0.0 0 1 282.62 180.17
  L 207.70 180.17
  A 0.37 0.37 0.0 0 0 207.33 180.54
  L 207.33 252.83
  A 0.52 0.52 0.0 0 1 206.81 253.35
  L 193.51 253.41"
/>
<path stroke="#7f7f7f" vector-effect="non-scaling-stroke" d="
  M 326.76 166.06
  L 326.72 179.78
  A 0.38 0.37 90.0 0 0 327.09 180.16
  L 401.96 180.16
  A 0.39 0.39 0.0 0 1 402.35 180.55
  L 402.35 253.17
  A 0.29 0.29 0.0 0 0 402.64 253.46
  L 416.39 253.39"
/>
<path stroke="#7f7f7f" vector-effect="non-scaling-stroke" d="
  M 416.35 303.44
  L 402.84 303.41
  A 0.48 0.48 0.0 0 0 402.36 303.89
  L 402.36 377.21
  A 0.41 0.41 0.0 0 1 401.95 377.62
  L 327.03 377.62
  A 0.33 0.33 0.0 0 0 326.70 377.95
  L 326.73 391.77"
/>
<path stroke="#7f7f7f" vector-effect="non-scaling-stroke" d="
  M 283.03 391.81
  L 283.03 377.91
  A 0.27 0.27 0.0 0 0 282.76 377.64
  L 207.83 377.64
  A 0.47 0.47 0.0 0 1 207.36 377.17
  L 207.36 303.88
  A 0.44 0.44 0.0 0 0 206.92 303.44
  L 193.76 303.45"
/>
<path stroke="#7f7f7f" vector-effect="non-scaling-stroke" d="
  M 312.5918 200.3035
  A 0.43 0.43 0.0 0 0 312.1625 199.8728
  L 297.5625 199.8473
  A 0.43 0.43 0.0 0 0 297.1318 200.2765
  L 297.1082 213.7565
  A 0.43 0.43 0.0 0 0 297.5375 214.1872
  L 312.1375 214.2127
  A 0.43 0.43 0.0 0 0 312.5682 213.7835
  L 312.5918 200.3035"
/>
<path stroke="#7f7f7f" vector-effect="non-scaling-stroke" d="
  M 282.55 200.73
  A 0.55 0.55 0.0 0 0 282.00 200.18
  L 227.44 200.18
  A 0.55 0.55 0.0 0 0 226.89 200.73
  L 226.89 253.39
  A 0.55 0.55 0.0 0 0 227.44 253.94
  L 282.00 253.94
  A 0.55 0.55 0.0 0 0 282.55 253.39
  L 282.55 200.73"
/>
<path stroke="#7f7f7f" vector-effect="non-scaling-stroke" d="
  M 309.22 295.21
  A 0.53 0.53 0.0 0 0 309.75 294.68
  L 309.75 282.42
  A 0.53 0.53 0.0 0 1 310.28 281.89
  L 318.34 281.89
  A 0.53 0.53 0.0 0 1 318.87 282.42
  L 318.87 288.34
  A 0.53 0.53 0.0 0 1 318.34 288.87
  L 313.68 288.87
  A 0.53 0.53 0.0 0 0 313.15 289.40
  L 313.15 297.84
  A 0.53 0.53 0.0 0 1 312.62 298.37
  L 297.07 298.37
  A 0.53 0.53 0.0 0 0 296.54 298.90
  L 296.54 317.05
  A 0.53 0.53 0.0 0 0 297.07 317.58
  L 303.81 317.58
  A 0.53 0.53 0.0 0 1 304.34 318.11
  L 304.34 329.49
  A 0.53 0.53 0.0 0 0 304.87 330.02
  L 318.07 330.02
  A 0.53 0.53 0.0 0 0 318.60 329.49
  L 318.60 318.09
  A 0.53 0.53 0.0 0 1 319.13 317.56
  L 320.64 317.56
  A 0.53 0.53 0.0 0 0 321.17 317.03
  L 321.17 305.51
  A 0.53 0.53 0.0 0 1 321.70 304.98
  L 326.92 304.98
  A 0.53 0.53 0.0 0 1 327.45 305.51
  L 327.45 357.32
  A 0.53 0.53 0.0 0 0 327.98 357.85
  L 382.76 357.85
  A 0.53 0.53 0.0 0 0 383.29 357.32
  L 383.29 303.95
  A 0.53 0.53 0.0 0 0 382.76 303.42
  L 329.63 303.42
  A 0.53 0.53 0.0 0 1 329.10 302.89
  L 329.10 298.37
  A 0.53 0.53 0.0 0 1 329.63 297.84
  L 336.43 297.84
  A 0.53 0.53 0.0 0 0 336.96 297.31
  L 336.96 282.47
  A 0.53 0.53 0.0 0 1 337.49 281.94
  L 349.69 281.94
  A 0.53 0.53 0.0 0 0 350.22 281.41
  L 350.22 268.31
  A 0.53 0.53 0.0 0 1 350.75 267.78
  L 361.27 267.78
  A 0.53 0.53 0.0 0 1 361.80 268.31
  L 361.80 281.41
  A 0.53 0.53 0.0 0 0 362.33 281.94
  L 382.73 281.94
  A 0.53 0.53 0.0 0 0 383.26 281.41
  L 383.26 267.23
  A 0.53 0.53 0.0 0 0 382.73 266.70
  L 364.25 266.70
  A 0.53 0.53 0.0 0 1 363.72 266.17
  L 363.72 254.43
  A 0.53 0.53 0.0 0 1 364.25 253.90
  L 382.63 253.90
  A 0.53 0.53 0.0 0 0 383.16 253.37
  L 383.16 200.71
  A 0.53 0.53 0.0 0 0 382.63 200.18
  L 327.97 200.18
  A 0.53 0.53 0.0 0 0 327.44 200.71
  L 327.44 218.22
  A 0.53 0.53 0.0 0 1 326.91 218.75
  L 314.04 218.75
  A 0.53 0.53 0.0 0 0 313.51 219.28
  L 313.51 226.60
  A 0.53 0.53 0.0 0 1 312.98 227.13
  L 300.86 227.13
  A 0.53 0.53 0.0 0 0 300.33 227.66
  L 300.33 234.57
  A 0.53 0.53 0.0 0 1 299.80 235.10
  L 289.87 235.10
  A 0.53 0.53 0.0 0 0 289.34 235.63
  L 289.34 246.95
  A 0.53 0.53 0.0 0 0 289.87 247.48
  L 320.63 247.48
  A 0.53 0.53 0.0 0 0 321.16 246.95
  L 321.16 234.97
  A 0.53 0.53 0.0 0 1 321.69 234.44
  L 326.90 234.44
  A 0.53 0.53 0.0 0 1 327.43 234.97
  L 327.43 253.39
  A 0.53 0.53 0.0 0 0 327.96 253.92
  L 348.87 253.92
  A 0.53 0.53 0.0 0 1 349.40 254.45
  L 349.40 266.16
  A 0.53 0.53 0.0 0 1 348.87 266.69
  L 335.37 266.69
  A 0.53 0.53 0.0 0 0 334.84 267.22
  L 334.84 273.83
  A 0.53 0.53 0.0 0 1 334.31 274.36
  L 324.20 274.36
  A 0.53 0.53 0.0 0 1 323.67 273.83
  L 323.67 253.96
  A 0.53 0.53 0.0 0 0 323.14 253.43
  L 308.57 253.43
  A 0.53 0.53 0.0 0 0 308.04 253.96
  L 308.04 266.82
  A 0.53 0.53 0.0 0 1 307.51 267.35
  L 283.03 267.35
  A 0.53 0.53 0.0 0 0 282.50 267.88
  L 282.50 280.37
  A 0.53 0.53 0.0 0 1 281.97 280.90
  L 269.70 280.90
  A 0.53 0.53 0.0 0 1 269.17 280.37
  L 269.17 267.27
  A 0.53 0.53 0.0 0 0 268.64 266.74
  L 254.61 266.74
  A 0.53 0.53 0.0 0 0 254.08 267.27
  L 254.08 295.31
  A 0.53 0.53 0.0 0 0 254.61 295.84
  L 282.63 295.84
  A 0.53 0.53 0.0 0 0 283.16 295.31
  L 283.16 282.55
  A 0.53 0.53 0.0 0 1 283.69 282.02
  L 296.44 282.02
  A 0.53 0.53 0.0 0 1 296.97 282.55
  L 296.97 294.68
  A 0.53 0.53 0.0 0 0 297.50 295.21
  L 309.22 295.21"
/>
<path stroke="#7f7f7f" vector-effect="non-scaling-stroke" d="
  M 242.6921 267.8038
  A 0.47 0.47 0.0 0 0 242.2229 267.3330
  L 227.3629 267.3070
  A 0.47 0.47 0.0 0 0 226.8921 267.7762
  L 226.8679 281.6562
  A 0.47 0.47 0.0 0 0 227.3371 282.1270
  L 242.1971 282.1530
  A 0.47 0.47 0.0 0 0 242.6679 281.6838
  L 242.6921 267.8038"
/>
<path stroke="#7f7f7f" vector-effect="non-scaling-stroke" d="
  M 364.07 288.20
  A 0.57 0.57 0.0 0 0 363.50 287.63
  L 351.72 287.63
  A 0.57 0.57 0.0 0 0 351.15 288.20
  L 351.15 299.98
  A 0.57 0.57 0.0 0 0 351.72 300.55
  L 363.50 300.55
  A 0.57 0.57 0.0 0 0 364.07 299.98
  L 364.07 288.20"
/>
<path stroke="#7f7f7f" vector-effect="non-scaling-stroke" d="
  M 282.56 303.91
  A 0.48 0.48 0.0 0 0 282.08 303.43
  L 227.14 303.43
  A 0.48 0.48 0.0 0 0 226.66 303.91
  L 226.66 357.17
  A 0.48 0.48 0.0 0 0 227.14 357.65
  L 282.08 357.65
  A 0.48 0.48 0.0 0 0 282.56 357.17
  L 282.56 303.91"
/>
<path stroke="#7f7f7f" vector-effect="non-scaling-stroke" d="
  M 307.8502 336.7295
  A 0.43 0.43 0.0 0 0 307.4195 336.3003
  L 296.2395 336.3198
  A 0.43 0.43 0.0 0 0 295.8103 336.7505
  L 295.8298 347.9305
  A 0.43 0.43 0.0 0 0 296.2605 348.3597
  L 307.4405 348.3402
  A 0.43 0.43 0.0 0 0 307.8697 347.9095
  L 307.8502 336.7295"
/>
<path stroke="#7f7f7f" vector-effect="non-scaling-stroke" d="
  M 268.6186 214.8959
  A 0.71 0.71 0.0 0 0 267.9073 214.1871
  L 241.6874 214.2329
  A 0.71 0.71 0.0 0 0 240.9786 214.9441
  L 241.0214 239.4641
  A 0.71 0.71 0.0 0 0 241.7327 240.1729
  L 267.9526 240.1271
  A 0.71 0.71 0.0 0 0 268.6614 239.4159
  L 268.6186 214.8959"
/>
<path stroke="#7f7f7f" vector-effect="non-scaling-stroke" d="
  M 369.24 214.62
  A 0.41 0.41 0.0 0 0 368.83 214.21
  L 341.85 214.21
  A 0.41 0.41 0.0 0 0 341.44 214.62
  L 341.44 239.74
  A 0.41 0.41 0.0 0 0 341.85 240.15
  L 368.83 240.15
  A 0.41 0.41 0.0 0 0 369.24 239.74
  L 369.24 214.62"
/>
<path stroke="#7f7f7f" vector-effect="non-scaling-stroke" d="
  M 369.32 317.83
  A 0.31 0.31 0.0 0 0 369.01 317.52
  L 341.65 317.52
  A 0.31 0.31 0.0 0 0 341.34 317.83
  L 341.34 343.55
  A 0.31 0.31 0.0 0 0 341.65 343.86
  L 369.01 343.86
  A 0.31 0.31 0.0 0 0 369.32 343.55
  L 369.32 317.83"
/>
<path stroke="#7f7f7f" vector-effect="non-scaling-stroke" d="
  M 268.6081 318.1158
  A 0.52 0.52 0.0 0 0 268.0872 317.5967
  L 241.3472 317.6434
  A 0.52 0.52 0.0 0 0 240.8281 318.1643
  L 240.8719 343.2842
  A 0.52 0.52 0.0 0 0 241.3928 343.8033
  L 268.1328 343.7566
  A 0.52 0.52 0.0 0 0 268.6519 343.2357
  L 268.6081 318.1158"
/>
<path stroke="#262626" vector-effect="non-scaling-stroke" d="
  M 335.8646 528.2720
  A 0.32 0.32 0.0 0 0 335.5429 527.9536
  L 275.7838 528.2665
  A 0.32 0.32 0.0 0 0 275.4654 528.5882
  L 275.5354 541.9480
  A 0.32 0.32 0.0 0 0 275.8571 542.2664
  L 335.6162 541.9535
  A 0.32 0.32 0.0 0 0 335.9346 541.6318
  L 335.8646 528.2720"
/>
</g>
<path fill="#000000" d="
  M 397.05 683.77
  L 397.05 621.09
  A 1.71 1.67 58.3 0 1 397.21 620.37
  L 398.81 616.95
  A 1.46 1.45 37.4 0 0 398.60 615.40
  Q 385.18 599.52 377.63 580.18
  Q 376.98 578.53 376.97 578.26
  Q 376.92 576.45 374.87 576.74
  Q 374.85 576.74 373.71 576.74
  Q 314.66 576.62 250.25 577.37
  Q 224.36 577.67 199.25 577.04
  C 193.67 576.90 188.22 576.53 183.23 574.47
  Q 163.87 566.50 159.34 545.89
  Q 158.22 540.81 158.42 527.50
  C 159.09 481.98 158.09 399.26 157.99 356.35
  Q 157.61 192.75 158.08 143.75
  C 158.17 134.88 157.71 125.66 158.58 116.79
  C 160.41 98.36 175.85 84.22 194.25 83.93
  C 265.42 82.82 369.00 83.19 405.78 83.15
  Q 418.95 83.14 424.06 84.67
  C 436.85 88.52 446.96 98.25 450.65 111.13
  Q 452.11 116.24 452.11 129.50
  Q 452.12 238.34 452.12 346.50
  A 0.68 0.68 0.0 0 0 452.65 347.16
  C 463.35 349.52 469.15 355.84 477.10 364.34
  Q 482.43 370.05 488.06 375.73
  Q 519.75 407.72 545.24 432.23
  C 551.86 438.60 555.33 446.19 555.85 455.51
  Q 555.89 456.38 555.90 614.37
  A 0.48 0.47 0.0 0 0 556.38 614.84
  Q 563.81 614.85 564.57 614.81
  Q 569.24 614.58 571.17 615.91
  C 574.12 617.96 574.95 620.03 574.90 623.77
  Q 574.90 624.11 574.90 683.59
  A 0.73 0.73 0.0 0 1 574.17 684.32
  L 397.60 684.32
  A 0.55 0.55 0.0 0 1 397.05 683.77
  Z
  M 173.47 124.84
  L 436.75 124.84
  A 0.87 0.87 0.0 0 0 437.62 123.97
  L 437.62 121.82
  A 25.46 24.18 0.0 0 0 412.16 97.64
  L 198.06 97.64
  A 25.46 24.18 0.0 0 0 172.60 121.82
  L 172.60 123.97
  A 0.87 0.87 0.0 0 0 173.47 124.84
  Z
  M 437.85 433.09
  L 437.85 140.20
  A 0.84 0.83 -90.0 0 0 437.02 139.36
  L 173.41 139.36
  A 0.60 0.60 0.0 0 0 172.81 139.96
  L 172.81 494.12
  A 0.41 0.41 0.0 0 0 173.22 494.53
  L 406.80 494.53
  A 0.49 0.49 0.0 0 0 407.25 493.83
  Q 403.94 486.73 398.77 480.74
  Q 387.99 468.23 369.96 447.81
  C 361.35 438.06 358.46 424.53 365.22 413.22
  C 375.30 396.36 397.56 394.07 411.61 407.89
  Q 425.67 421.74 437.12 433.39
  A 0.43 0.42 -67.2 0 0 437.85 433.09
  Z
  M 452.29 362.66
  Q 452.09 398.40 452.24 445.70
  C 452.25 447.88 451.92 448.61 453.65 450.34
  Q 478.27 474.89 500.70 497.82
  A 0.38 0.37 -43.4 0 1 500.68 498.35
  L 491.09 507.04
  A 0.60 0.59 -43.6 0 1 490.27 507.02
  Q 428.21 444.98 401.72 418.04
  Q 397.01 413.24 390.54 412.99
  C 384.06 412.73 378.01 417.09 376.40 423.39
  C 374.71 430.03 377.97 435.83 382.20 440.55
  Q 404.45 465.47 410.13 472.09
  Q 421.81 485.74 424.07 503.06
  Q 424.35 505.21 424.12 518.43
  Q 423.83 534.97 427.88 551.42
  C 431.64 566.69 439.56 578.69 450.86 589.16
  A 0.49 0.48 41.9 0 1 450.90 589.83
  L 442.97 599.07
  A 0.61 0.61 0.0 0 1 442.13 599.15
  Q 430.31 589.96 422.73 577.25
  A 1.04 1.01 74.4 0 0 421.85 576.74
  L 391.83 576.74
  A 0.30 0.30 0.0 0 0 391.56 577.16
  Q 400.63 598.36 415.90 613.99
  A 2.86 2.85 67.6 0 0 417.93 614.84
  L 541.07 614.84
  A 0.50 0.50 0.0 0 0 541.57 614.34
  Q 541.55 552.13 541.58 461.30
  Q 541.58 454.03 540.18 450.38
  Q 538.11 444.97 534.09 441.35
  Q 529.06 436.80 486.69 394.65
  Q 474.93 382.96 465.40 372.75
  Q 458.38 365.22 452.71 362.40
  A 0.29 0.29 0.0 0 0 452.29 362.66
  Z
  M 409.80 508.33
  L 173.43 508.33
  A 0.94 0.94 0.0 0 0 172.49 509.28
  Q 172.52 512.01 172.77 534.97
  Q 172.85 542.50 174.69 547.05
  C 179.08 557.86 188.72 563.01 200.25 563.01
  Q 251.26 563.00 415.73 562.85
  A 0.63 0.63 0.0 0 0 416.33 562.03
  Q 408.01 535.88 410.29 508.87
  A 0.50 0.49 -87.8 0 0 409.80 508.33
  Z
  M 560.72 629.73
  A 0.47 0.47 0.0 0 0 560.25 629.26
  L 411.45 629.26
  A 0.47 0.47 0.0 0 0 410.98 629.73
  L 410.98 669.65
  A 0.47 0.47 0.0 0 0 411.45 670.12
  L 560.25 670.12
  A 0.47 0.47 0.0 0 0 560.72 669.65
  L 560.72 629.73
  Z"
/>
<path fill="#4b4b4c" d="
  M 173.47 124.84
  A 0.87 0.87 0.0 0 1 172.60 123.97
  L 172.60 121.82
  A 25.46 24.18 0.0 0 1 198.06 97.64
  L 412.16 97.64
  A 25.46 24.18 0.0 0 1 437.62 121.82
  L 437.62 123.97
  A 0.87 0.87 0.0 0 1 436.75 124.84
  L 173.47 124.84
  Z"
/>
<path fill="#57cced" d="
  M 437.85 433.09
  A 0.43 0.42 -67.2 0 1 437.12 433.39
  Q 425.67 421.74 411.61 407.89
  C 397.56 394.07 375.30 396.36 365.22 413.22
  C 358.46 424.53 361.35 438.06 369.96 447.81
  Q 387.99 468.23 398.77 480.74
  Q 403.94 486.73 407.25 493.83
  A 0.49 0.49 0.0 0 1 406.80 494.53
  L 173.22 494.53
  A 0.41 0.41 0.0 0 1 172.81 494.12
  L 172.81 139.96
  A 0.60 0.60 0.0 0 1 173.41 139.36
  L 437.02 139.36
  A 0.84 0.83 90.0 0 1 437.85 140.20
  L 437.85 433.09
  Z
  M 193.51 253.41
  L 193.76 303.45
  Q 193.66 303.45 193.47 303.78
  A 0.43 0.38 62.9 0 0 193.42 303.98
  L 193.42 391.60
  A 0.35 0.34 -0.0 0 0 193.77 391.94
  L 283.03 391.81
  Q 304.87 390.59 326.73 391.77
  L 416.19 391.94
  A 0.42 0.42 0.0 0 0 416.61 391.52
  L 416.35 303.44
  Q 415.06 278.37 416.39 253.39
  L 416.59 166.45
  A 0.34 0.34 0.0 0 0 416.25 166.10
  L 326.76 166.06
  L 282.91 166.11
  L 193.88 166.14
  A 0.50 0.49 -90.0 0 0 193.39 166.64
  L 193.51 253.41
  Z"
/>
<path fill="#000000" d="
  M 282.91 166.11
  L 282.97 179.83
  A 0.35 0.34 -0.0 0 1 282.62 180.17
  L 207.70 180.17
  A 0.37 0.37 0.0 0 0 207.33 180.54
  L 207.33 252.83
  A 0.52 0.52 0.0 0 1 206.81 253.35
  L 193.51 253.41
  L 193.39 166.64
  A 0.50 0.49 -90.0 0 1 193.88 166.14
  L 282.91 166.11
  Z"
/>
<path fill="#fefefe" d="
  M 326.76 166.06
  L 326.72 179.78
  A 0.38 0.37 90.0 0 0 327.09 180.16
  L 401.96 180.16
  A 0.39 0.39 0.0 0 1 402.35 180.55
  L 402.35 253.17
  A 0.29 0.29 0.0 0 0 402.64 253.46
  L 416.39 253.39
  Q 415.06 278.37 416.35 303.44
  L 402.84 303.41
  A 0.48 0.48 0.0 0 0 402.36 303.89
  L 402.36 377.21
  A 0.41 0.41 0.0 0 1 401.95 377.62
  L 327.03 377.62
  A 0.33 0.33 0.0 0 0 326.70 377.95
  L 326.73 391.77
  Q 304.87 390.59 283.03 391.81
  L 283.03 377.91
  A 0.27 0.27 0.0 0 0 282.76 377.64
  L 207.83 377.64
  A 0.47 0.47 0.0 0 1 207.36 377.17
  L 207.36 303.88
  A 0.44 0.44 0.0 0 0 206.92 303.44
  L 193.76 303.45
  L 193.51 253.41
  L 206.81 253.35
  A 0.52 0.52 0.0 0 0 207.33 252.83
  L 207.33 180.54
  A 0.37 0.37 0.0 0 1 207.70 180.17
  L 282.62 180.17
  A 0.35 0.34 -0.0 0 0 282.97 179.83
  L 282.91 166.11
  L 326.76 166.06
  Z
  M 312.5918 200.3035
  A 0.43 0.43 0.0 0 0 312.1625 199.8728
  L 297.5625 199.8473
  A 0.43 0.43 0.0 0 0 297.1318 200.2765
  L 297.1082 213.7565
  A 0.43 0.43 0.0 0 0 297.5375 214.1872
  L 312.1375 214.2127
  A 0.43 0.43 0.0 0 0 312.5682 213.7835
  L 312.5918 200.3035
  Z
  M 282.55 200.73
  A 0.55 0.55 0.0 0 0 282.00 200.18
  L 227.44 200.18
  A 0.55 0.55 0.0 0 0 226.89 200.73
  L 226.89 253.39
  A 0.55 0.55 0.0 0 0 227.44 253.94
  L 282.00 253.94
  A 0.55 0.55 0.0 0 0 282.55 253.39
  L 282.55 200.73
  Z
  M 309.22 295.21
  A 0.53 0.53 0.0 0 0 309.75 294.68
  L 309.75 282.42
  A 0.53 0.53 0.0 0 1 310.28 281.89
  L 318.34 281.89
  A 0.53 0.53 0.0 0 1 318.87 282.42
  L 318.87 288.34
  A 0.53 0.53 0.0 0 1 318.34 288.87
  L 313.68 288.87
  A 0.53 0.53 0.0 0 0 313.15 289.40
  L 313.15 297.84
  A 0.53 0.53 0.0 0 1 312.62 298.37
  L 297.07 298.37
  A 0.53 0.53 0.0 0 0 296.54 298.90
  L 296.54 317.05
  A 0.53 0.53 0.0 0 0 297.07 317.58
  L 303.81 317.58
  A 0.53 0.53 0.0 0 1 304.34 318.11
  L 304.34 329.49
  A 0.53 0.53 0.0 0 0 304.87 330.02
  L 318.07 330.02
  A 0.53 0.53 0.0 0 0 318.60 329.49
  L 318.60 318.09
  A 0.53 0.53 0.0 0 1 319.13 317.56
  L 320.64 317.56
  A 0.53 0.53 0.0 0 0 321.17 317.03
  L 321.17 305.51
  A 0.53 0.53 0.0 0 1 321.70 304.98
  L 326.92 304.98
  A 0.53 0.53 0.0 0 1 327.45 305.51
  L 327.45 357.32
  A 0.53 0.53 0.0 0 0 327.98 357.85
  L 382.76 357.85
  A 0.53 0.53 0.0 0 0 383.29 357.32
  L 383.29 303.95
  A 0.53 0.53 0.0 0 0 382.76 303.42
  L 329.63 303.42
  A 0.53 0.53 0.0 0 1 329.10 302.89
  L 329.10 298.37
  A 0.53 0.53 0.0 0 1 329.63 297.84
  L 336.43 297.84
  A 0.53 0.53 0.0 0 0 336.96 297.31
  L 336.96 282.47
  A 0.53 0.53 0.0 0 1 337.49 281.94
  L 349.69 281.94
  A 0.53 0.53 0.0 0 0 350.22 281.41
  L 350.22 268.31
  A 0.53 0.53 0.0 0 1 350.75 267.78
  L 361.27 267.78
  A 0.53 0.53 0.0 0 1 361.80 268.31
  L 361.80 281.41
  A 0.53 0.53 0.0 0 0 362.33 281.94
  L 382.73 281.94
  A 0.53 0.53 0.0 0 0 383.26 281.41
  L 383.26 267.23
  A 0.53 0.53 0.0 0 0 382.73 266.70
  L 364.25 266.70
  A 0.53 0.53 0.0 0 1 363.72 266.17
  L 363.72 254.43
  A 0.53 0.53 0.0 0 1 364.25 253.90
  L 382.63 253.90
  A 0.53 0.53 0.0 0 0 383.16 253.37
  L 383.16 200.71
  A 0.53 0.53 0.0 0 0 382.63 200.18
  L 327.97 200.18
  A 0.53 0.53 0.0 0 0 327.44 200.71
  L 327.44 218.22
  A 0.53 0.53 0.0 0 1 326.91 218.75
  L 314.04 218.75
  A 0.53 0.53 0.0 0 0 313.51 219.28
  L 313.51 226.60
  A 0.53 0.53 0.0 0 1 312.98 227.13
  L 300.86 227.13
  A 0.53 0.53 0.0 0 0 300.33 227.66
  L 300.33 234.57
  A 0.53 0.53 0.0 0 1 299.80 235.10
  L 289.87 235.10
  A 0.53 0.53 0.0 0 0 289.34 235.63
  L 289.34 246.95
  A 0.53 0.53 0.0 0 0 289.87 247.48
  L 320.63 247.48
  A 0.53 0.53 0.0 0 0 321.16 246.95
  L 321.16 234.97
  A 0.53 0.53 0.0 0 1 321.69 234.44
  L 326.90 234.44
  A 0.53 0.53 0.0 0 1 327.43 234.97
  L 327.43 253.39
  A 0.53 0.53 0.0 0 0 327.96 253.92
  L 348.87 253.92
  A 0.53 0.53 0.0 0 1 349.40 254.45
  L 349.40 266.16
  A 0.53 0.53 0.0 0 1 348.87 266.69
  L 335.37 266.69
  A 0.53 0.53 0.0 0 0 334.84 267.22
  L 334.84 273.83
  A 0.53 0.53 0.0 0 1 334.31 274.36
  L 324.20 274.36
  A 0.53 0.53 0.0 0 1 323.67 273.83
  L 323.67 253.96
  A 0.53 0.53 0.0 0 0 323.14 253.43
  L 308.57 253.43
  A 0.53 0.53 0.0 0 0 308.04 253.96
  L 308.04 266.82
  A 0.53 0.53 0.0 0 1 307.51 267.35
  L 283.03 267.35
  A 0.53 0.53 0.0 0 0 282.50 267.88
  L 282.50 280.37
  A 0.53 0.53 0.0 0 1 281.97 280.90
  L 269.70 280.90
  A 0.53 0.53 0.0 0 1 269.17 280.37
  L 269.17 267.27
  A 0.53 0.53 0.0 0 0 268.64 266.74
  L 254.61 266.74
  A 0.53 0.53 0.0 0 0 254.08 267.27
  L 254.08 295.31
  A 0.53 0.53 0.0 0 0 254.61 295.84
  L 282.63 295.84
  A 0.53 0.53 0.0 0 0 283.16 295.31
  L 283.16 282.55
  A 0.53 0.53 0.0 0 1 283.69 282.02
  L 296.44 282.02
  A 0.53 0.53 0.0 0 1 296.97 282.55
  L 296.97 294.68
  A 0.53 0.53 0.0 0 0 297.50 295.21
  L 309.22 295.21
  Z
  M 242.6921 267.8038
  A 0.47 0.47 0.0 0 0 242.2229 267.3330
  L 227.3629 267.3070
  A 0.47 0.47 0.0 0 0 226.8921 267.7762
  L 226.8679 281.6562
  A 0.47 0.47 0.0 0 0 227.3371 282.1270
  L 242.1971 282.1530
  A 0.47 0.47 0.0 0 0 242.6679 281.6838
  L 242.6921 267.8038
  Z
  M 364.07 288.20
  A 0.57 0.57 0.0 0 0 363.50 287.63
  L 351.72 287.63
  A 0.57 0.57 0.0 0 0 351.15 288.20
  L 351.15 299.98
  A 0.57 0.57 0.0 0 0 351.72 300.55
  L 363.50 300.55
  A 0.57 0.57 0.0 0 0 364.07 299.98
  L 364.07 288.20
  Z
  M 282.56 303.91
  A 0.48 0.48 0.0 0 0 282.08 303.43
  L 227.14 303.43
  A 0.48 0.48 0.0 0 0 226.66 303.91
  L 226.66 357.17
  A 0.48 0.48 0.0 0 0 227.14 357.65
  L 282.08 357.65
  A 0.48 0.48 0.0 0 0 282.56 357.17
  L 282.56 303.91
  Z
  M 307.8502 336.7295
  A 0.43 0.43 0.0 0 0 307.4195 336.3003
  L 296.2395 336.3198
  A 0.43 0.43 0.0 0 0 295.8103 336.7505
  L 295.8298 347.9305
  A 0.43 0.43 0.0 0 0 296.2605 348.3597
  L 307.4405 348.3402
  A 0.43 0.43 0.0 0 0 307.8697 347.9095
  L 307.8502 336.7295
  Z"
/>
<path fill="#000000" d="
  M 416.39 253.39
  L 402.64 253.46
  A 0.29 0.29 0.0 0 1 402.35 253.17
  L 402.35 180.55
  A 0.39 0.39 0.0 0 0 401.96 180.16
  L 327.09 180.16
  A 0.38 0.37 -90.0 0 1 326.72 179.78
  L 326.76 166.06
  L 416.25 166.10
  A 0.34 0.34 0.0 0 1 416.59 166.45
  L 416.39 253.39
  Z"
/>
<rect fill="#000000" x="-7.73" y="-7.17" transform="translate(304.85,207.03) rotate(0.1)" width="15.46" height="14.34" rx="0.43"/>
<path fill="#000000" d="
  M 282.55 253.39
  A 0.55 0.55 0.0 0 1 282.00 253.94
  L 227.44 253.94
  A 0.55 0.55 0.0 0 1 226.89 253.39
  L 226.89 200.73
  A 0.55 0.55 0.0 0 1 227.44 200.18
  L 282.00 200.18
  A 0.55 0.55 0.0 0 1 282.55 200.73
  L 282.55 253.39
  Z
  M 268.6186 214.8959
  A 0.71 0.71 0.0 0 0 267.9073 214.1871
  L 241.6874 214.2329
  A 0.71 0.71 0.0 0 0 240.9786 214.9441
  L 241.0214 239.4641
  A 0.71 0.71 0.0 0 0 241.7327 240.1729
  L 267.9526 240.1271
  A 0.71 0.71 0.0 0 0 268.6614 239.4159
  L 268.6186 214.8959
  Z"
/>
<path fill="#000000" d="
  M 309.22 295.21
  L 297.50 295.21
  A 0.53 0.53 0.0 0 1 296.97 294.68
  L 296.97 282.55
  A 0.53 0.53 0.0 0 0 296.44 282.02
  L 283.69 282.02
  A 0.53 0.53 0.0 0 0 283.16 282.55
  L 283.16 295.31
  A 0.53 0.53 0.0 0 1 282.63 295.84
  L 254.61 295.84
  A 0.53 0.53 0.0 0 1 254.08 295.31
  L 254.08 267.27
  A 0.53 0.53 0.0 0 1 254.61 266.74
  L 268.64 266.74
  A 0.53 0.53 0.0 0 1 269.17 267.27
  L 269.17 280.37
  A 0.53 0.53 0.0 0 0 269.70 280.90
  L 281.97 280.90
  A 0.53 0.53 0.0 0 0 282.50 280.37
  L 282.50 267.88
  A 0.53 0.53 0.0 0 1 283.03 267.35
  L 307.51 267.35
  A 0.53 0.53 0.0 0 0 308.04 266.82
  L 308.04 253.96
  A 0.53 0.53 0.0 0 1 308.57 253.43
  L 323.14 253.43
  A 0.53 0.53 0.0 0 1 323.67 253.96
  L 323.67 273.83
  A 0.53 0.53 0.0 0 0 324.20 274.36
  L 334.31 274.36
  A 0.53 0.53 0.0 0 0 334.84 273.83
  L 334.84 267.22
  A 0.53 0.53 0.0 0 1 335.37 266.69
  L 348.87 266.69
  A 0.53 0.53 0.0 0 0 349.40 266.16
  L 349.40 254.45
  A 0.53 0.53 0.0 0 0 348.87 253.92
  L 327.96 253.92
  A 0.53 0.53 0.0 0 1 327.43 253.39
  L 327.43 234.97
  A 0.53 0.53 0.0 0 0 326.90 234.44
  L 321.69 234.44
  A 0.53 0.53 0.0 0 0 321.16 234.97
  L 321.16 246.95
  A 0.53 0.53 0.0 0 1 320.63 247.48
  L 289.87 247.48
  A 0.53 0.53 0.0 0 1 289.34 246.95
  L 289.34 235.63
  A 0.53 0.53 0.0 0 1 289.87 235.10
  L 299.80 235.10
  A 0.53 0.53 0.0 0 0 300.33 234.57
  L 300.33 227.66
  A 0.53 0.53 0.0 0 1 300.86 227.13
  L 312.98 227.13
  A 0.53 0.53 0.0 0 0 313.51 226.60
  L 313.51 219.28
  A 0.53 0.53 0.0 0 1 314.04 218.75
  L 326.91 218.75
  A 0.53 0.53 0.0 0 0 327.44 218.22
  L 327.44 200.71
  A 0.53 0.53 0.0 0 1 327.97 200.18
  L 382.63 200.18
  A 0.53 0.53 0.0 0 1 383.16 200.71
  L 383.16 253.37
  A 0.53 0.53 0.0 0 1 382.63 253.90
  L 364.25 253.90
  A 0.53 0.53 0.0 0 0 363.72 254.43
  L 363.72 266.17
  A 0.53 0.53 0.0 0 0 364.25 266.70
  L 382.73 266.70
  A 0.53 0.53 0.0 0 1 383.26 267.23
  L 383.26 281.41
  A 0.53 0.53 0.0 0 1 382.73 281.94
  L 362.33 281.94
  A 0.53 0.53 0.0 0 1 361.80 281.41
  L 361.80 268.31
  A 0.53 0.53 0.0 0 0 361.27 267.78
  L 350.75 267.78
  A 0.53 0.53 0.0 0 0 350.22 268.31
  L 350.22 281.41
  A 0.53 0.53 0.0 0 1 349.69 281.94
  L 337.49 281.94
  A 0.53 0.53 0.0 0 0 336.96 282.47
  L 336.96 297.31
  A 0.53 0.53 0.0 0 1 336.43 297.84
  L 329.63 297.84
  A 0.53 0.53 0.0 0 0 329.10 298.37
  L 329.10 302.89
  A 0.53 0.53 0.0 0 0 329.63 303.42
  L 382.76 303.42
  A 0.53 0.53 0.0 0 1 383.29 303.95
  L 383.29 357.32
  A 0.53 0.53 0.0 0 1 382.76 357.85
  L 327.98 357.85
  A 0.53 0.53 0.0 0 1 327.45 357.32
  L 327.45 305.51
  A 0.53 0.53 0.0 0 0 326.92 304.98
  L 321.70 304.98
  A 0.53 0.53 0.0 0 0 321.17 305.51
  L 321.17 317.03
  A 0.53 0.53 0.0 0 1 320.64 317.56
  L 319.13 317.56
  A 0.53 0.53 0.0 0 0 318.60 318.09
  L 318.60 329.49
  A 0.53 0.53 0.0 0 1 318.07 330.02
  L 304.87 330.02
  A 0.53 0.53 0.0 0 1 304.34 329.49
  L 304.34 318.11
  A 0.53 0.53 0.0 0 0 303.81 317.58
  L 297.07 317.58
  A 0.53 0.53 0.0 0 1 296.54 317.05
  L 296.54 298.90
  A 0.53 0.53 0.0 0 1 297.07 298.37
  L 312.62 298.37
  A 0.53 0.53 0.0 0 0 313.15 297.84
  L 313.15 289.40
  A 0.53 0.53 0.0 0 1 313.68 288.87
  L 318.34 288.87
  A 0.53 0.53 0.0 0 0 318.87 288.34
  L 318.87 282.42
  A 0.53 0.53 0.0 0 0 318.34 281.89
  L 310.28 281.89
  A 0.53 0.53 0.0 0 0 309.75 282.42
  L 309.75 294.68
  A 0.53 0.53 0.0 0 1 309.22 295.21
  Z
  M 369.24 214.62
  A 0.41 0.41 0.0 0 0 368.83 214.21
  L 341.85 214.21
  A 0.41 0.41 0.0 0 0 341.44 214.62
  L 341.44 239.74
  A 0.41 0.41 0.0 0 0 341.85 240.15
  L 368.83 240.15
  A 0.41 0.41 0.0 0 0 369.24 239.74
  L 369.24 214.62
  Z
  M 369.32 317.83
  A 0.31 0.31 0.0 0 0 369.01 317.52
  L 341.65 317.52
  A 0.31 0.31 0.0 0 0 341.34 317.83
  L 341.34 343.55
  A 0.31 0.31 0.0 0 0 341.65 343.86
  L 369.01 343.86
  A 0.31 0.31 0.0 0 0 369.32 343.55
  L 369.32 317.83
  Z"
/>
<rect fill="#fefefe" x="-13.82" y="-12.97" transform="translate(254.82,227.18) rotate(-0.1)" width="27.64" height="25.94" rx="0.71"/>
<rect fill="#fefefe" x="341.44" y="214.21" width="27.80" height="25.94" rx="0.41"/>
<rect fill="#000000" x="-7.90" y="-7.41" transform="translate(234.78,274.73) rotate(0.1)" width="15.80" height="14.82" rx="0.47"/>
<rect fill="#000000" x="351.15" y="287.63" width="12.92" height="12.92" rx="0.57"/>
<path fill="#000000" d="
  M 193.76 303.45
  L 206.92 303.44
  A 0.44 0.44 0.0 0 1 207.36 303.88
  L 207.36 377.17
  A 0.47 0.47 0.0 0 0 207.83 377.64
  L 282.76 377.64
  A 0.27 0.27 0.0 0 1 283.03 377.91
  L 283.03 391.81
  L 193.77 391.94
  A 0.35 0.34 -0.0 0 1 193.42 391.60
  L 193.42 303.98
  A 0.43 0.38 62.9 0 1 193.47 303.78
  Q 193.66 303.45 193.76 303.45
  Z"
/>
<path fill="#000000" d="
  M 282.56 357.17
  A 0.48 0.48 0.0 0 1 282.08 357.65
  L 227.14 357.65
  A 0.48 0.48 0.0 0 1 226.66 357.17
  L 226.66 303.91
  A 0.48 0.48 0.0 0 1 227.14 303.43
  L 282.08 303.43
  A 0.48 0.48 0.0 0 1 282.56 303.91
  L 282.56 357.17
  Z
  M 268.6081 318.1158
  A 0.52 0.52 0.0 0 0 268.0872 317.5967
  L 241.3472 317.6434
  A 0.52 0.52 0.0 0 0 240.8281 318.1643
  L 240.8719 343.2842
  A 0.52 0.52 0.0 0 0 241.3928 343.8033
  L 268.1328 343.7566
  A 0.52 0.52 0.0 0 0 268.6519 343.2357
  L 268.6081 318.1158
  Z"
/>
<path fill="#000000" d="
  M 416.35 303.44
  L 416.61 391.52
  A 0.42 0.42 0.0 0 1 416.19 391.94
  L 326.73 391.77
  L 326.70 377.95
  A 0.33 0.33 0.0 0 1 327.03 377.62
  L 401.95 377.62
  A 0.41 0.41 0.0 0 0 402.36 377.21
  L 402.36 303.89
  A 0.48 0.48 0.0 0 1 402.84 303.41
  L 416.35 303.44
  Z"
/>
<rect fill="#fefefe" x="-13.89" y="-13.08" transform="translate(254.74,330.70) rotate(-0.1)" width="27.78" height="26.16" rx="0.52"/>
<rect fill="#fefefe" x="341.34" y="317.52" width="27.98" height="26.34" rx="0.31"/>
<rect fill="#000000" x="-6.02" y="-6.02" transform="translate(301.84,342.33) rotate(-0.1)" width="12.04" height="12.04" rx="0.43"/>
<path fill="#fedbb4" d="
  M 452.29 362.66
  A 0.29 0.29 0.0 0 1 452.71 362.40
  Q 458.38 365.22 465.40 372.75
  Q 474.93 382.96 486.69 394.65
  Q 529.06 436.80 534.09 441.35
  Q 538.11 444.97 540.18 450.38
  Q 541.58 454.03 541.58 461.30
  Q 541.55 552.13 541.57 614.34
  A 0.50 0.50 0.0 0 1 541.07 614.84
  L 417.93 614.84
  A 2.86 2.85 67.6 0 1 415.90 613.99
  Q 400.63 598.36 391.56 577.16
  A 0.30 0.30 0.0 0 1 391.83 576.74
  L 421.85 576.74
  A 1.04 1.01 74.4 0 1 422.73 577.25
  Q 430.31 589.96 442.13 599.15
  A 0.61 0.61 0.0 0 0 442.97 599.07
  L 450.90 589.83
  A 0.49 0.48 41.9 0 0 450.86 589.16
  C 439.56 578.69 431.64 566.69 427.88 551.42
  Q 423.83 534.97 424.12 518.43
  Q 424.35 505.21 424.07 503.06
  Q 421.81 485.74 410.13 472.09
  Q 404.45 465.47 382.20 440.55
  C 377.97 435.83 374.71 430.03 376.40 423.39
  C 378.01 417.09 384.06 412.73 390.54 412.99
  Q 397.01 413.24 401.72 418.04
  Q 428.21 444.98 490.27 507.02
  A 0.60 0.59 -43.6 0 0 491.09 507.04
  L 500.68 498.35
  A 0.38 0.37 -43.4 0 0 500.70 497.82
  Q 478.27 474.89 453.65 450.34
  C 451.92 448.61 452.25 447.88 452.24 445.70
  Q 452.09 398.40 452.29 362.66
  Z"
/>
<path fill="#4b4b4c" d="
  M 409.80 508.33
  A 0.50 0.49 -87.8 0 1 410.29 508.87
  Q 408.01 535.88 416.33 562.03
  A 0.63 0.63 0.0 0 1 415.73 562.85
  Q 251.26 563.00 200.25 563.01
  C 188.72 563.01 179.08 557.86 174.69 547.05
  Q 172.85 542.50 172.77 534.97
  Q 172.52 512.01 172.49 509.28
  A 0.94 0.94 0.0 0 1 173.43 508.33
  L 409.80 508.33
  Z
  M 335.8646 528.2720
  A 0.32 0.32 0.0 0 0 335.5429 527.9536
  L 275.7838 528.2665
  A 0.32 0.32 0.0 0 0 275.4654 528.5882
  L 275.5354 541.9480
  A 0.32 0.32 0.0 0 0 275.8571 542.2664
  L 335.6162 541.9535
  A 0.32 0.32 0.0 0 0 335.9346 541.6318
  L 335.8646 528.2720
  Z"
/>
<rect fill="#000000" x="-30.20" y="-7.00" transform="translate(305.70,535.11) rotate(-0.3)" width="60.40" height="14.00" rx="0.32"/>
<rect fill="#ff9c2b" x="410.98" y="629.26" width="149.74" height="40.86" rx="0.47"/>
</svg>
