<?xml version="1.0" encoding="UTF-8" standalone="no"?>
<!DOCTYPE svg PUBLIC "-//W3C//DTD SVG 1.1//EN" "http://www.w3.org/Graphics/SVG/1.1/DTD/svg11.dtd">
<svg xmlns="http://www.w3.org/2000/svg" version="1.1" viewBox="0.00 0.00 1024.00 1024.00">
<g stroke-width="2.00" fill="none" stroke-linecap="butt">
<path stroke="#232e37" vector-effect="non-scaling-stroke" d="
  M 512.04 277.94
  Q 552.35 277.92 571.87 277.83
  A 0.48 0.48 0.0 0 0 572.34 277.29
  C 570.90 265.85 560.94 258.17 549.49 257.80
  Q 545.62 257.68 512.04 257.69
  Q 478.45 257.71 474.58 257.83
  C 463.13 258.21 453.18 265.90 451.75 277.34
  A 0.48 0.48 0.0 0 0 452.22 277.88
  Q 471.74 277.96 512.04 277.94"
/>
<path stroke="#702933" vector-effect="non-scaling-stroke" d="
  M 168.65 725.70
  A 38.27 38.27 0.0 0 0 206.92 763.97
  L 817.71 763.97
  A 38.27 38.27 0.0 0 0 855.98 725.70
  L 855.98 333.26
  A 38.27 38.27 0.0 0 0 817.71 294.99
  L 206.92 294.99
  A 38.27 38.27 0.0 0 0 168.65 333.26
  L 168.65 725.70"
/>
<path stroke="#232e37" vector-effect="non-scaling-stroke" d="
  M 787.30 781.20
  L 236.30 781.20
  A 0.49 0.49 0.0 0 0 235.81 781.69
  L 235.81 783.64
  A 27.72 27.02 0.0 0 0 263.53 810.66
  L 760.07 810.66
  A 27.72 27.02 -0.0 0 0 787.79 783.64
  L 787.79 781.69
  A 0.49 0.49 0.0 0 0 787.30 781.20"
/>
<path stroke="#d24556" vector-effect="non-scaling-stroke" d="
  M 779.81 633.73
  Q 779.80 633.80 779.80 634.04
  A 0.39 0.38 -86.9 0 0 780.15 634.44
  Q 780.88 634.51 780.88 635.37
  Q 780.92 641.91 780.99 754.75
  Q 780.99 759.24 780.79 761.88
  A 0.58 0.58 0.0 0 0 781.39 762.50
  Q 797.60 761.99 813.55 762.22
  Q 822.94 762.35 827.34 761.04
  Q 834.44 758.94 839.86 755.13
  Q 847.28 749.93 851.24 741.36
  Q 854.67 733.92 854.68 723.76
  Q 854.85 496.69 854.76 336.33
  C 854.76 323.08 851.91 312.55 840.88 304.19
  Q 835.85 300.37 828.41 297.92
  Q 823.87 296.42 814.51 296.71
  Q 813.61 296.74 781.58 296.54
  A 0.61 0.60 -89.5 0 0 780.97 297.15
  L 780.97 376.02
  A 0.70 0.70 0.0 0 0 781.85 376.70
  Q 801.38 371.50 814.89 383.98
  Q 821.19 389.80 823.14 394.14
  Q 826.44 401.52 827.02 409.73
  Q 827.53 417.01 824.99 424.01
  Q 822.17 431.78 817.84 436.43
  C 810.06 444.78 797.17 449.86 785.73 446.99
  Q 783.22 446.36 781.70 446.07
  A 0.63 0.63 0.0 0 0 780.95 446.69
  L 780.95 473.20
  A 0.58 0.58 0.0 0 0 781.71 473.75
  Q 795.76 469.19 808.58 476.42
  C 810.73 477.63 814.29 479.98 816.32 482.09
  Q 829.05 495.24 826.69 513.15
  Q 824.57 529.31 812.26 538.07
  Q 798.52 547.85 781.72 543.53
  A 0.56 0.56 0.0 0 0 781.02 544.07
  L 781.02 573.53
  A 1.18 1.14 64.6 0 1 780.78 574.24
  Q 780.52 574.59 780.61 574.69
  Q 781.23 575.37 782.21 575.36
  Q 804.16 575.22 818.02 575.52
  C 825.74 575.69 828.20 582.91 826.63 589.46
  A 5.08 4.60 -28.2 0 1 826.33 590.30
  Q 823.47 596.44 815.00 596.44
  Q 801.71 596.44 781.34 596.30
  A 0.38 0.37 -0.0 0 0 780.96 596.67
  L 780.96 609.63
  A 1.16 1.14 -31.6 0 1 780.83 610.16
  L 780.58 610.61
  A 0.75 0.75 0.0 0 0 781.26 611.73
  Q 800.67 611.09 816.72 611.48
  Q 824.43 611.67 826.64 618.60
  Q 827.17 620.25 827.06 622.41
  Q 826.91 625.50 826.67 626.20
  C 824.55 632.41 820.02 633.38 813.39 633.40
  Q 782.31 633.45 779.97 633.58
  A 0.18 0.17 -87.9 0 0 779.81 633.73"
/>
<path stroke="#e5a0ad" vector-effect="non-scaling-stroke" d="
  M 326.19 348.07
  L 324.77 348.13"
/>
<path stroke="#d24556" vector-effect="non-scaling-stroke" d="
  M 324.77 348.13
  Q 324.95 347.90 324.92 347.59
  A 0.43 0.43 0.0 0 0 324.49 347.19
  L 304.64 347.12"
/>
<path stroke="#702933" vector-effect="non-scaling-stroke" d="
  M 304.64 347.12
  Q 306.43 336.58 296.12 335.58
  Q 290.10 334.99 271.00 336.03
  Q 263.39 336.45 256.35 338.83
  Q 228.49 348.24 214.37 373.85
  Q 207.79 385.79 206.68 396.66
  Q 205.87 404.55 205.87 411.75
  Q 205.90 574.84 205.90 658.17
  C 205.90 685.34 221.92 709.31 246.13 721.03
  C 255.64 725.63 266.29 727.49 277.00 727.48
  Q 398.71 727.39 647.25 727.51
  Q 659.25 727.51 663.76 726.80
  C 699.49 721.22 723.39 692.21 723.37 656.26
  Q 723.30 449.27 723.38 421.76
  Q 723.44 404.58 722.99 400.26
  C 720.28 373.94 703.85 351.70 679.47 341.30
  Q 667.08 336.01 653.99 335.66
  Q 648.77 335.52 639.25 335.52
  Q 346.51 335.40 338.00 335.51
  C 336.11 335.53 332.53 335.30 330.14 336.46
  Q 323.70 339.58 326.19 348.07"
/>
<path stroke="#621c23" vector-effect="non-scaling-stroke" d="
  M 304.64 347.12
  Q 304.37 347.61 304.43 347.72"
/>
<path stroke="#75777b" vector-effect="non-scaling-stroke" d="
  M 304.43 347.72
  C 302.29 351.80 299.21 352.85 294.52 352.73
  Q 288.24 352.57 278.99 352.76
  Q 253.32 353.28 237.37 372.06
  Q 227.44 383.76 224.81 398.05
  Q 223.86 403.16 223.86 425.06
  Q 223.86 642.15 223.86 642.53
  Q 223.62 661.59 225.27 668.35
  C 230.38 689.23 245.85 704.78 267.01 709.74
  C 273.01 711.15 280.95 711.00 287.25 711.00
  Q 638.31 711.01 639.15 711.02
  Q 656.56 711.27 663.74 709.57
  C 687.03 704.03 703.27 684.82 705.00 660.75
  Q 705.34 656.13 705.34 651.75
  Q 705.45 516.56 705.31 411.02
  Q 705.27 379.52 680.80 362.23
  Q 669.67 354.37 654.94 352.96"
/>
<path stroke="#6c7076" vector-effect="non-scaling-stroke" d="
  M 654.94 352.96
  L 622.22 352.68"
/>
<path stroke="#75777b" vector-effect="non-scaling-stroke" d="
  M 622.22 352.68
  Q 478.35 352.67 334.50 352.63
  Q 328.96 352.63 326.19 348.07"
/>
<path stroke="#d7929e" vector-effect="non-scaling-stroke" d="
  M 324.77 348.13
  L 304.43 347.72"
/>
<path stroke="#e1e7f1" vector-effect="non-scaling-stroke" d="
  M 622.22 352.68
  L 617.66 354.22
  A 0.43 0.43 0.0 0 0 617.61 355.01
  Q 620.30 356.32 622.41 358.38
  C 630.74 366.51 636.89 377.50 637.11 389.35
  Q 637.28 398.72 637.27 407.25
  Q 637.17 523.52 637.34 649.86
  Q 637.36 665.28 637.12 671.34
  C 636.53 686.27 625.10 700.58 613.43 708.78
  A 0.17 0.16 -61.9 0 0 613.52 709.08
  Q 627.18 709.24 637.39 708.99
  C 642.54 708.87 646.23 709.20 652.84 709.24
  Q 659.66 709.27 664.25 708.01
  Q 680.77 703.47 691.71 691.13
  C 697.73 684.34 701.22 675.35 702.95 666.98
  Q 704.10 661.38 704.11 648.09
  Q 704.22 527.29 704.13 428.91
  Q 704.13 423.05 704.25 418.71
  Q 704.53 408.72 703.04 399.43
  Q 701.37 389.05 695.67 379.67
  Q 693.07 375.37 688.04 370.40
  Q 682.56 364.97 678.70 362.60
  Q 669.76 357.11 659.26 354.78
  Q 657.75 354.45 654.94 352.96"
/>
<path stroke="#702933" vector-effect="non-scaling-stroke" d="
  M 794.5202 376.4573
  A 35.16 33.98 -86.2 0 0 758.2847 409.2880
  A 35.16 33.98 -86.2 0 0 789.8598 446.6227
  A 35.16 33.98 -86.2 0 0 826.0953 413.7920
  A 35.16 33.98 -86.2 0 0 794.5202 376.4573"
/>
<path stroke="#702933" vector-effect="non-scaling-stroke" d="
  M 796.9631 473.7329
  A 35.23 33.99 -82.0 0 0 758.4008 503.8895
  A 35.23 33.99 -82.0 0 0 787.1569 543.5071
  A 35.23 33.99 -82.0 0 0 825.7192 513.3505
  A 35.23 33.99 -82.0 0 0 796.9631 473.7329"
/>
<path stroke="#702933" vector-effect="non-scaling-stroke" d="
  M 826.1191 585.2615
  A 8.76 8.76 0.0 0 0 817.3439 576.5169
  L 767.8839 576.6032
  A 8.76 8.76 0.0 0 0 759.1392 585.3785
  L 759.1409 586.2985
  A 8.76 8.76 0.0 0 0 767.9161 595.0431
  L 817.3761 594.9568
  A 8.76 8.76 0.0 0 0 826.1208 586.1815
  L 826.1191 585.2615"
/>
<path stroke="#702933" vector-effect="non-scaling-stroke" d="
  M 826.1587 621.7215
  A 8.88 8.88 0.0 0 0 817.2632 612.8570
  L 767.9833 612.9430
  A 8.88 8.88 0.0 0 0 759.1188 621.8385
  L 759.1213 623.2585
  A 8.88 8.88 0.0 0 0 768.0168 632.1230
  L 817.2967 632.0370
  A 8.88 8.88 0.0 0 0 826.1612 623.1415
  L 826.1587 621.7215"
/>
<path stroke="#75777b" vector-effect="non-scaling-stroke" d="
  M 363.87 570.70
  Q 370.96 570.71 397.56 570.74
  A 0.94 0.93 -10.4 0 1 398.42 571.33
  Q 403.21 583.09 407.31 593.45
  C 409.48 598.93 411.70 602.97 417.46 604.09
  C 421.64 604.91 426.61 604.11 429.41 600.62
  C 432.68 596.53 431.68 592.12 429.84 587.64
  Q 411.83 543.80 381.70 470.89
  C 378.17 462.34 375.14 451.06 364.09 451.04
  C 353.05 451.02 349.97 462.29 346.41 470.82
  Q 316.01 543.62 297.84 587.40
  C 295.98 591.87 294.97 596.28 298.22 600.38
  C 301.01 603.88 305.98 604.70 310.16 603.89
  C 315.92 602.79 318.16 598.76 320.35 593.29
  Q 324.49 582.94 329.32 571.20
  A 0.94 0.93 10.6 0 1 330.19 570.62
  Q 356.78 570.68 363.87 570.70"
/>
<path stroke="#75777b" vector-effect="non-scaling-stroke" d="
  M 457.27 585.00
  C 457.23 593.71 459.48 601.73 469.59 602.06
  Q 483.85 602.54 506.57 602.19
  C 537.55 601.71 564.51 589.53 577.07 560.45
  C 581.83 549.43 583.50 538.20 583.87 525.88
  C 584.65 499.90 574.48 471.29 549.82 459.02
  C 535.72 452.01 522.24 450.89 505.75 450.93
  Q 480.50 451.00 471.76 451.00
  Q 464.15 451.01 459.92 456.50
  C 457.64 459.47 457.27 463.67 457.27 467.51
  Q 457.43 552.51 457.27 585.00"
/>
<path stroke="#6c7076" vector-effect="non-scaling-stroke" d="
  M 801.5348 397.5787
  A 16.93 16.73 -54.9 0 0 778.1124 401.8102
  A 16.93 16.73 -54.9 0 0 782.0652 425.2813
  A 16.93 16.73 -54.9 0 0 805.4876 421.0498
  A 16.93 16.73 -54.9 0 0 801.5348 397.5787"
/>
<path stroke="#75777b" vector-effect="non-scaling-stroke" d="
  M 339.19 546.55
  A 0.32 0.32 0.0 0 0 339.48 546.99
  L 387.62 546.99
  A 0.32 0.32 0.0 0 0 387.91 546.55
  L 363.85 486.67
  A 0.32 0.32 0.0 0 0 363.25 486.67
  L 339.19 546.55"
/>
<path stroke="#75777b" vector-effect="non-scaling-stroke" d="
  M 481.34 474.62
  A 0.32 0.32 0.0 0 0 481.02 474.94
  L 481.02 578.28
  A 0.76 0.75 90.0 0 0 481.77 579.04
  Q 487.66 579.10 503.24 578.95
  Q 513.09 578.85 520.94 577.20
  C 540.73 573.03 553.51 559.78 558.10 540.65
  C 560.61 530.23 560.64 518.35 558.26 508.22
  C 553.47 487.84 536.57 476.11 516.24 475.08
  Q 502.27 474.37 481.34 474.62"
/>
<path stroke="#6c7076" vector-effect="non-scaling-stroke" d="
  M 797.4138 492.5247
  A 17.13 16.78 -71.4 0 0 776.0464 503.4079
  A 17.13 16.78 -71.4 0 0 786.4862 524.9953
  A 17.13 16.78 -71.4 0 0 807.8536 514.1121
  A 17.13 16.78 -71.4 0 0 797.4138 492.5247"
/>
</g>
<path fill="#000000" d="
  M 459.79 242.82
  A 0.73 0.72 59.0 0 0 460.09 241.61
  Q 386.28 167.79 330.78 112.22
  Q 324.45 105.88 323.57 104.07
  A 4.66 4.16 -68.3 0 1 323.23 103.14
  C 321.12 94.60 328.29 87.60 336.64 90.45
  Q 338.68 91.15 343.38 95.85
  Q 423.36 175.86 484.27 237.86
  Q 485.40 239.01 486.84 239.43
  A 2.23 2.21 52.4 0 0 487.43 239.51
  Q 523.49 239.37 535.01 239.47
  Q 536.87 239.48 538.28 238.92
  A 1.98 1.95 11.8 0 0 538.98 238.47
  Q 602.03 175.69 683.31 93.32
  C 687.24 89.34 693.46 88.63 697.80 92.42
  Q 702.17 96.23 700.97 102.92
  Q 700.60 104.93 697.77 107.77
  Q 603.29 202.26 563.86 241.75
  A 0.67 0.67 0.0 0 0 564.34 242.89
  Q 565.54 242.86 567.31 243.67
  Q 581.80 250.35 587.98 264.26
  Q 590.84 270.69 591.24 277.43
  A 0.61 0.61 0.0 0 0 591.85 278.00
  Q 730.04 278.04 819.75 277.99
  Q 824.99 277.98 825.49 278.05
  C 839.21 279.93 851.12 285.64 860.27 295.83
  Q 868.46 304.97 871.46 317.42
  Q 873.01 323.86 872.95 335.14
  Q 872.86 354.81 872.97 721.88
  Q 872.97 733.80 871.61 739.49
  C 866.09 762.71 845.82 779.46 821.75 780.43
  Q 814.87 780.71 804.67 780.80
  A 0.40 0.40 0.0 0 0 804.28 781.27
  Q 804.87 784.53 804.35 789.40
  Q 803.84 794.22 802.84 797.45
  Q 796.05 819.29 772.92 826.45
  Q 768.63 827.78 763.86 828.02
  Q 762.81 828.08 754.65 828.07
  Q 450.62 828.03 275.85 828.09
  Q 256.19 828.10 252.23 827.21
  Q 239.89 824.45 230.30 814.94
  Q 221.86 806.56 219.41 794.14
  C 218.65 790.27 218.82 785.36 218.85 781.46
  A 0.68 0.67 1.8 0 0 218.20 780.78
  C 209.36 780.49 201.67 780.90 193.98 779.43
  Q 179.08 776.59 167.07 764.92
  C 155.93 754.10 150.97 739.57 150.97 724.08
  Q 150.96 469.24 150.97 331.71
  Q 150.97 328.00 151.43 325.83
  C 152.03 323.01 151.88 320.74 152.67 318.04
  Q 155.89 307.11 161.18 299.92
  Q 173.07 283.73 193.06 279.17
  Q 197.93 278.06 206.12 277.98
  Q 207.35 277.97 219.25 277.98
  Q 296.66 278.03 432.07 277.97
  A 0.87 0.86 3.4 0 0 432.93 277.21
  Q 435.10 258.31 450.78 247.29
  Q 455.05 244.29 459.79 242.82
  Z
  M 512.04 277.94
  Q 552.35 277.92 571.87 277.83
  A 0.48 0.48 0.0 0 0 572.34 277.29
  C 570.90 265.85 560.94 258.17 549.49 257.80
  Q 545.62 257.68 512.04 257.69
  Q 478.45 257.71 474.58 257.83
  C 463.13 258.21 453.18 265.90 451.75 277.34
  A 0.48 0.48 0.0 0 0 452.22 277.88
  Q 471.74 277.96 512.04 277.94
  Z
  M 168.65 725.70
  A 38.27 38.27 0.0 0 0 206.92 763.97
  L 817.71 763.97
  A 38.27 38.27 0.0 0 0 855.98 725.70
  L 855.98 333.26
  A 38.27 38.27 0.0 0 0 817.71 294.99
  L 206.92 294.99
  A 38.27 38.27 0.0 0 0 168.65 333.26
  L 168.65 725.70
  Z
  M 787.30 781.20
  L 236.30 781.20
  A 0.49 0.49 0.0 0 0 235.81 781.69
  L 235.81 783.64
  A 27.72 27.02 0.0 0 0 263.53 810.66
  L 760.07 810.66
  A 27.72 27.02 -0.0 0 0 787.79 783.64
  L 787.79 781.69
  A 0.49 0.49 0.0 0 0 787.30 781.20
  Z"
/>
<path fill="#465c6d" d="
  M 512.04 257.69
  Q 545.62 257.68 549.49 257.80
  C 560.94 258.17 570.90 265.85 572.34 277.29
  A 0.48 0.48 0.0 0 1 571.87 277.83
  Q 552.35 277.92 512.04 277.94
  Q 471.74 277.96 452.22 277.88
  A 0.48 0.48 0.0 0 1 451.75 277.34
  C 453.18 265.90 463.13 258.21 474.58 257.83
  Q 478.45 257.71 512.04 257.69
  Z"
/>
<path fill="#e05265" d="
  M 168.65 725.70
  L 168.65 333.26
  A 38.27 38.27 0.0 0 1 206.92 294.99
  L 817.71 294.99
  A 38.27 38.27 0.0 0 1 855.98 333.26
  L 855.98 725.70
  A 38.27 38.27 0.0 0 1 817.71 763.97
  L 206.92 763.97
  A 38.27 38.27 0.0 0 1 168.65 725.70
  Z
  M 779.81 633.73
  Q 779.80 633.80 779.80 634.04
  A 0.39 0.38 -86.9 0 0 780.15 634.44
  Q 780.88 634.51 780.88 635.37
  Q 780.92 641.91 780.99 754.75
  Q 780.99 759.24 780.79 761.88
  A 0.58 0.58 0.0 0 0 781.39 762.50
  Q 797.60 761.99 813.55 762.22
  Q 822.94 762.35 827.34 761.04
  Q 834.44 758.94 839.86 755.13
  Q 847.28 749.93 851.24 741.36
  Q 854.67 733.92 854.68 723.76
  Q 854.85 496.69 854.76 336.33
  C 854.76 323.08 851.91 312.55 840.88 304.19
  Q 835.85 300.37 828.41 297.92
  Q 823.87 296.42 814.51 296.71
  Q 813.61 296.74 781.58 296.54
  A 0.61 0.60 -89.5 0 0 780.97 297.15
  L 780.97 376.02
  A 0.70 0.70 0.0 0 0 781.85 376.70
  Q 801.38 371.50 814.89 383.98
  Q 821.19 389.80 823.14 394.14
  Q 826.44 401.52 827.02 409.73
  Q 827.53 417.01 824.99 424.01
  Q 822.17 431.78 817.84 436.43
  C 810.06 444.78 797.17 449.86 785.73 446.99
  Q 783.22 446.36 781.70 446.07
  A 0.63 0.63 0.0 0 0 780.95 446.69
  L 780.95 473.20
  A 0.58 0.58 0.0 0 0 781.71 473.75
  Q 795.76 469.19 808.58 476.42
  C 810.73 477.63 814.29 479.98 816.32 482.09
  Q 829.05 495.24 826.69 513.15
  Q 824.57 529.31 812.26 538.07
  Q 798.52 547.85 781.72 543.53
  A 0.56 0.56 0.0 0 0 781.02 544.07
  L 781.02 573.53
  A 1.18 1.14 64.6 0 1 780.78 574.24
  Q 780.52 574.59 780.61 574.69
  Q 781.23 575.37 782.21 575.36
  Q 804.16 575.22 818.02 575.52
  C 825.74 575.69 828.20 582.91 826.63 589.46
  A 5.08 4.60 -28.2 0 1 826.33 590.30
  Q 823.47 596.44 815.00 596.44
  Q 801.71 596.44 781.34 596.30
  A 0.38 0.37 -0.0 0 0 780.96 596.67
  L 780.96 609.63
  A 1.16 1.14 -31.6 0 1 780.83 610.16
  L 780.58 610.61
  A 0.75 0.75 0.0 0 0 781.26 611.73
  Q 800.67 611.09 816.72 611.48
  Q 824.43 611.67 826.64 618.60
  Q 827.17 620.25 827.06 622.41
  Q 826.91 625.50 826.67 626.20
  C 824.55 632.41 820.02 633.38 813.39 633.40
  Q 782.31 633.45 779.97 633.58
  A 0.18 0.17 -87.9 0 0 779.81 633.73
  Z
  M 326.19 348.07
  L 324.77 348.13
  Q 324.95 347.90 324.92 347.59
  A 0.43 0.43 0.0 0 0 324.49 347.19
  L 304.64 347.12
  Q 306.43 336.58 296.12 335.58
  Q 290.10 334.99 271.00 336.03
  Q 263.39 336.45 256.35 338.83
  Q 228.49 348.24 214.37 373.85
  Q 207.79 385.79 206.68 396.66
  Q 205.87 404.55 205.87 411.75
  Q 205.90 574.84 205.90 658.17
  C 205.90 685.34 221.92 709.31 246.13 721.03
  C 255.64 725.63 266.29 727.49 277.00 727.48
  Q 398.71 727.39 647.25 727.51
  Q 659.25 727.51 663.76 726.80
  C 699.49 721.22 723.39 692.21 723.37 656.26
  Q 723.30 449.27 723.38 421.76
  Q 723.44 404.58 722.99 400.26
  C 720.28 373.94 703.85 351.70 679.47 341.30
  Q 667.08 336.01 653.99 335.66
  Q 648.77 335.52 639.25 335.52
  Q 346.51 335.40 338.00 335.51
  C 336.11 335.53 332.53 335.30 330.14 336.46
  Q 323.70 339.58 326.19 348.07
  Z
  M 794.5202 376.4573
  A 35.16 33.98 -86.2 0 0 758.2847 409.2880
  A 35.16 33.98 -86.2 0 0 789.8598 446.6227
  A 35.16 33.98 -86.2 0 0 826.0953 413.7920
  A 35.16 33.98 -86.2 0 0 794.5202 376.4573
  Z
  M 796.9631 473.7329
  A 35.23 33.99 -82.0 0 0 758.4008 503.8895
  A 35.23 33.99 -82.0 0 0 787.1569 543.5071
  A 35.23 33.99 -82.0 0 0 825.7192 513.3505
  A 35.23 33.99 -82.0 0 0 796.9631 473.7329
  Z
  M 826.1191 585.2615
  A 8.76 8.76 0.0 0 0 817.3439 576.5169
  L 767.8839 576.6032
  A 8.76 8.76 0.0 0 0 759.1392 585.3785
  L 759.1409 586.2985
  A 8.76 8.76 0.0 0 0 767.9161 595.0431
  L 817.3761 594.9568
  A 8.76 8.76 0.0 0 0 826.1208 586.1815
  L 826.1191 585.2615
  Z
  M 826.1587 621.7215
  A 8.88 8.88 0.0 0 0 817.2632 612.8570
  L 767.9833 612.9430
  A 8.88 8.88 0.0 0 0 759.1188 621.8385
  L 759.1213 623.2585
  A 8.88 8.88 0.0 0 0 768.0168 632.1230
  L 817.2967 632.0370
  A 8.88 8.88 0.0 0 0 826.1612 623.1415
  L 826.1587 621.7215
  Z"
/>
<path fill="#c43746" d="
  M 779.97 633.58
  Q 782.31 633.45 813.39 633.40
  C 820.02 633.38 824.55 632.41 826.67 626.20
  Q 826.91 625.50 827.06 622.41
  Q 827.17 620.25 826.64 618.60
  Q 824.43 611.67 816.72 611.48
  Q 800.67 611.09 781.26 611.73
  A 0.75 0.75 0.0 0 1 780.58 610.61
  L 780.83 610.16
  A 1.16 1.14 -31.6 0 0 780.96 609.63
  L 780.96 596.67
  A 0.38 0.37 0.0 0 1 781.34 596.30
  Q 801.71 596.44 815.00 596.44
  Q 823.47 596.44 826.33 590.30
  A 5.08 4.60 -28.2 0 0 826.63 589.46
  C 828.20 582.91 825.74 575.69 818.02 575.52
  Q 804.16 575.22 782.21 575.36
  Q 781.23 575.37 780.61 574.69
  Q 780.52 574.59 780.78 574.24
  A 1.18 1.14 64.6 0 0 781.02 573.53
  L 781.02 544.07
  A 0.56 0.56 0.0 0 1 781.72 543.53
  Q 798.52 547.85 812.26 538.07
  Q 824.57 529.31 826.69 513.15
  Q 829.05 495.24 816.32 482.09
  C 814.29 479.98 810.73 477.63 808.58 476.42
  Q 795.76 469.19 781.71 473.75
  A 0.58 0.58 0.0 0 1 780.95 473.20
  L 780.95 446.69
  A 0.63 0.63 0.0 0 1 781.70 446.07
  Q 783.22 446.36 785.73 446.99
  C 797.17 449.86 810.06 444.78 817.84 436.43
  Q 822.17 431.78 824.99 424.01
  Q 827.53 417.01 827.02 409.73
  Q 826.44 401.52 823.14 394.14
  Q 821.19 389.80 814.89 383.98
  Q 801.38 371.50 781.85 376.70
  A 0.70 0.70 0.0 0 1 780.97 376.02
  L 780.97 297.15
  A 0.61 0.60 -89.5 0 1 781.58 296.54
  Q 813.61 296.74 814.51 296.71
  Q 823.87 296.42 828.41 297.92
  Q 835.85 300.37 840.88 304.19
  C 851.91 312.55 854.76 323.08 854.76 336.33
  Q 854.85 496.69 854.68 723.76
  Q 854.67 733.92 851.24 741.36
  Q 847.28 749.93 839.86 755.13
  Q 834.44 758.94 827.34 761.04
  Q 822.94 762.35 813.55 762.22
  Q 797.60 761.99 781.39 762.50
  A 0.58 0.58 0.0 0 1 780.79 761.88
  Q 780.99 759.24 780.99 754.75
  Q 780.92 641.91 780.88 635.37
  Q 780.88 634.51 780.15 634.44
  A 0.39 0.38 -86.9 0 1 779.80 634.04
  Q 779.80 633.80 779.81 633.73
  A 0.18 0.17 -87.9 0 1 779.97 633.58
  Z"
/>
<path fill="#000000" d="
  M 304.64 347.12
  Q 304.37 347.61 304.43 347.72
  C 302.29 351.80 299.21 352.85 294.52 352.73
  Q 288.24 352.57 278.99 352.76
  Q 253.32 353.28 237.37 372.06
  Q 227.44 383.76 224.81 398.05
  Q 223.86 403.16 223.86 425.06
  Q 223.86 642.15 223.86 642.53
  Q 223.62 661.59 225.27 668.35
  C 230.38 689.23 245.85 704.78 267.01 709.74
  C 273.01 711.15 280.95 711.00 287.25 711.00
  Q 638.31 711.01 639.15 711.02
  Q 656.56 711.27 663.74 709.57
  C 687.03 704.03 703.27 684.82 705.00 660.75
  Q 705.34 656.13 705.34 651.75
  Q 705.45 516.56 705.31 411.02
  Q 705.27 379.52 680.80 362.23
  Q 669.67 354.37 654.94 352.96
  L 622.22 352.68
  Q 478.35 352.67 334.50 352.63
  Q 328.96 352.63 326.19 348.07
  Q 323.70 339.58 330.14 336.46
  C 332.53 335.30 336.11 335.53 338.00 335.51
  Q 346.51 335.40 639.25 335.52
  Q 648.77 335.52 653.99 335.66
  Q 667.08 336.01 679.47 341.30
  C 703.85 351.70 720.28 373.94 722.99 400.26
  Q 723.44 404.58 723.38 421.76
  Q 723.30 449.27 723.37 656.26
  C 723.39 692.21 699.49 721.22 663.76 726.80
  Q 659.25 727.51 647.25 727.51
  Q 398.71 727.39 277.00 727.48
  C 266.29 727.49 255.64 725.63 246.13 721.03
  C 221.92 709.31 205.90 685.34 205.90 658.17
  Q 205.90 574.84 205.87 411.75
  Q 205.87 404.55 206.68 396.66
  Q 207.79 385.79 214.37 373.85
  Q 228.49 348.24 256.35 338.83
  Q 263.39 336.45 271.00 336.03
  Q 290.10 334.99 296.12 335.58
  Q 306.43 336.58 304.64 347.12
  Z"
/>
<path fill="#c43746" d="
  M 324.77 348.13
  L 304.43 347.72
  Q 304.37 347.61 304.64 347.12
  L 324.49 347.19
  A 0.43 0.43 0.0 0 1 324.92 347.59
  Q 324.95 347.90 324.77 348.13
  Z"
/>
<path fill="#e9edf5" d="
  M 304.43 347.72
  L 324.77 348.13
  L 326.19 348.07
  Q 328.96 352.63 334.50 352.63
  Q 478.35 352.67 622.22 352.68
  L 617.66 354.22
  A 0.43 0.43 0.0 0 0 617.61 355.01
  Q 620.30 356.32 622.41 358.38
  C 630.74 366.51 636.89 377.50 637.11 389.35
  Q 637.28 398.72 637.27 407.25
  Q 637.17 523.52 637.34 649.86
  Q 637.36 665.28 637.12 671.34
  C 636.53 686.27 625.10 700.58 613.43 708.78
  A 0.17 0.16 -61.9 0 0 613.52 709.08
  Q 627.18 709.24 637.39 708.99
  C 642.54 708.87 646.23 709.20 652.84 709.24
  Q 659.66 709.27 664.25 708.01
  Q 680.77 703.47 691.71 691.13
  C 697.73 684.34 701.22 675.35 702.95 666.98
  Q 704.10 661.38 704.11 648.09
  Q 704.22 527.29 704.13 428.91
  Q 704.13 423.05 704.25 418.71
  Q 704.53 408.72 703.04 399.43
  Q 701.37 389.05 695.67 379.67
  Q 693.07 375.37 688.04 370.40
  Q 682.56 364.97 678.70 362.60
  Q 669.76 357.11 659.26 354.78
  Q 657.75 354.45 654.94 352.96
  Q 669.67 354.37 680.80 362.23
  Q 705.27 379.52 705.31 411.02
  Q 705.45 516.56 705.34 651.75
  Q 705.34 656.13 705.00 660.75
  C 703.27 684.82 687.03 704.03 663.74 709.57
  Q 656.56 711.27 639.15 711.02
  Q 638.31 711.01 287.25 711.00
  C 280.95 711.00 273.01 711.15 267.01 709.74
  C 245.85 704.78 230.38 689.23 225.27 668.35
  Q 223.62 661.59 223.86 642.53
  Q 223.86 642.15 223.86 425.06
  Q 223.86 403.16 224.81 398.05
  Q 227.44 383.76 237.37 372.06
  Q 253.32 353.28 278.99 352.76
  Q 288.24 352.57 294.52 352.73
  C 299.21 352.85 302.29 351.80 304.43 347.72
  Z
  M 363.87 570.70
  Q 370.96 570.71 397.56 570.74
  A 0.94 0.93 -10.4 0 1 398.42 571.33
  Q 403.21 583.09 407.31 593.45
  C 409.48 598.93 411.70 602.97 417.46 604.09
  C 421.64 604.91 426.61 604.11 429.41 600.62
  C 432.68 596.53 431.68 592.12 429.84 587.64
  Q 411.83 543.80 381.70 470.89
  C 378.17 462.34 375.14 451.06 364.09 451.04
  C 353.05 451.02 349.97 462.29 346.41 470.82
  Q 316.01 543.62 297.84 587.40
  C 295.98 591.87 294.97 596.28 298.22 600.38
  C 301.01 603.88 305.98 604.70 310.16 603.89
  C 315.92 602.79 318.16 598.76 320.35 593.29
  Q 324.49 582.94 329.32 571.20
  A 0.94 0.93 10.6 0 1 330.19 570.62
  Q 356.78 570.68 363.87 570.70
  Z
  M 457.27 585.00
  C 457.23 593.71 459.48 601.73 469.59 602.06
  Q 483.85 602.54 506.57 602.19
  C 537.55 601.71 564.51 589.53 577.07 560.45
  C 581.83 549.43 583.50 538.20 583.87 525.88
  C 584.65 499.90 574.48 471.29 549.82 459.02
  C 535.72 452.01 522.24 450.89 505.75 450.93
  Q 480.50 451.00 471.76 451.00
  Q 464.15 451.01 459.92 456.50
  C 457.64 459.47 457.27 463.67 457.27 467.51
  Q 457.43 552.51 457.27 585.00
  Z"
/>
<path fill="#d8e0ec" d="
  M 654.94 352.96
  Q 657.75 354.45 659.26 354.78
  Q 669.76 357.11 678.70 362.60
  Q 682.56 364.97 688.04 370.40
  Q 693.07 375.37 695.67 379.67
  Q 701.37 389.05 703.04 399.43
  Q 704.53 408.72 704.25 418.71
  Q 704.13 423.05 704.13 428.91
  Q 704.22 527.29 704.11 648.09
  Q 704.10 661.38 702.95 666.98
  C 701.22 675.35 697.73 684.34 691.71 691.13
  Q 680.77 703.47 664.25 708.01
  Q 659.66 709.27 652.84 709.24
  C 646.23 709.20 642.54 708.87 637.39 708.99
  Q 627.18 709.24 613.52 709.08
  A 0.17 0.16 -61.9 0 1 613.43 708.78
  C 625.10 700.58 636.53 686.27 637.12 671.34
  Q 637.36 665.28 637.34 649.86
  Q 637.17 523.52 637.27 407.25
  Q 637.28 398.72 637.11 389.35
  C 636.89 377.50 630.74 366.51 622.41 358.38
  Q 620.30 356.32 617.61 355.01
  A 0.43 0.43 0.0 0 1 617.66 354.22
  L 622.22 352.68
  L 654.94 352.96
  Z"
/>
<path fill="#000000" d="
  M 794.5202 376.4573
  A 35.16 33.98 -86.2 0 1 826.0953 413.7920
  A 35.16 33.98 -86.2 0 1 789.8598 446.6227
  A 35.16 33.98 -86.2 0 1 758.2847 409.2880
  A 35.16 33.98 -86.2 0 1 794.5202 376.4573
  Z
  M 801.5348 397.5787
  A 16.93 16.73 -54.9 0 0 778.1124 401.8102
  A 16.93 16.73 -54.9 0 0 782.0652 425.2813
  A 16.93 16.73 -54.9 0 0 805.4876 421.0498
  A 16.93 16.73 -54.9 0 0 801.5348 397.5787
  Z"
/>
<ellipse fill="#d8e0ec" cx="0.00" cy="0.00" transform="translate(791.80,411.43) rotate(-54.9)" rx="16.93" ry="16.73"/>
<path fill="#000000" d="
  M 364.09 451.04
  C 375.14 451.06 378.17 462.34 381.70 470.89
  Q 411.83 543.80 429.84 587.64
  C 431.68 592.12 432.68 596.53 429.41 600.62
  C 426.61 604.11 421.64 604.91 417.46 604.09
  C 411.70 602.97 409.48 598.93 407.31 593.45
  Q 403.21 583.09 398.42 571.33
  A 0.94 0.93 -10.4 0 0 397.56 570.74
  Q 370.96 570.71 363.87 570.70
  Q 356.78 570.68 330.19 570.62
  A 0.94 0.93 10.6 0 0 329.32 571.20
  Q 324.49 582.94 320.35 593.29
  C 318.16 598.76 315.92 602.79 310.16 603.89
  C 305.98 604.70 301.01 603.88 298.22 600.38
  C 294.97 596.28 295.98 591.87 297.84 587.40
  Q 316.01 543.62 346.41 470.82
  C 349.97 462.29 353.05 451.02 364.09 451.04
  Z
  M 339.19 546.55
  A 0.32 0.32 0.0 0 0 339.48 546.99
  L 387.62 546.99
  A 0.32 0.32 0.0 0 0 387.91 546.55
  L 363.85 486.67
  A 0.32 0.32 0.0 0 0 363.25 486.67
  L 339.19 546.55
  Z"
/>
<path fill="#000000" d="
  M 469.59 602.06
  C 459.48 601.73 457.23 593.71 457.27 585.00
  Q 457.43 552.51 457.27 467.51
  C 457.27 463.67 457.64 459.47 459.92 456.50
  Q 464.15 451.01 471.76 451.00
  Q 480.50 451.00 505.75 450.93
  C 522.24 450.89 535.72 452.01 549.82 459.02
  C 574.48 471.29 584.65 499.90 583.87 525.88
  C 583.50 538.20 581.83 549.43 577.07 560.45
  C 564.51 589.53 537.55 601.71 506.57 602.19
  Q 483.85 602.54 469.59 602.06
  Z
  M 481.34 474.62
  A 0.32 0.32 0.0 0 0 481.02 474.94
  L 481.02 578.28
  A 0.76 0.75 90.0 0 0 481.77 579.04
  Q 487.66 579.10 503.24 578.95
  Q 513.09 578.85 520.94 577.20
  C 540.73 573.03 553.51 559.78 558.10 540.65
  C 560.61 530.23 560.64 518.35 558.26 508.22
  C 553.47 487.84 536.57 476.11 516.24 475.08
  Q 502.27 474.37 481.34 474.62
  Z"
/>
<path fill="#000000" d="
  M 796.9631 473.7329
  A 35.23 33.99 -82.0 0 1 825.7192 513.3505
  A 35.23 33.99 -82.0 0 1 787.1569 543.5071
  A 35.23 33.99 -82.0 0 1 758.4008 503.8895
  A 35.23 33.99 -82.0 0 1 796.9631 473.7329
  Z
  M 797.4138 492.5247
  A 17.13 16.78 -71.4 0 0 776.0464 503.4079
  A 17.13 16.78 -71.4 0 0 786.4862 524.9953
  A 17.13 16.78 -71.4 0 0 807.8536 514.1121
  A 17.13 16.78 -71.4 0 0 797.4138 492.5247
  Z"
/>
<path fill="#e9edf5" d="
  M 481.34 474.62
  Q 502.27 474.37 516.24 475.08
  C 536.57 476.11 553.47 487.84 558.26 508.22
  C 560.64 518.35 560.61 530.23 558.10 540.65
  C 553.51 559.78 540.73 573.03 520.94 577.20
  Q 513.09 578.85 503.24 578.95
  Q 487.66 579.10 481.77 579.04
  A 0.76 0.75 90.0 0 1 481.02 578.28
  L 481.02 474.94
  A 0.32 0.32 0.0 0 1 481.34 474.62
  Z"
/>
<path fill="#e9edf5" d="
  M 339.19 546.55
  L 363.25 486.67
  A 0.32 0.32 0.0 0 1 363.85 486.67
  L 387.91 546.55
  A 0.32 0.32 0.0 0 1 387.62 546.99
  L 339.48 546.99
  A 0.32 0.32 0.0 0 1 339.19 546.55
  Z"
/>
<ellipse fill="#d8e0ec" cx="0.00" cy="0.00" transform="translate(791.95,508.76) rotate(-71.4)" rx="17.13" ry="16.78"/>
<rect fill="#000000" x="-33.49" y="-9.22" transform="translate(792.63,585.78) rotate(-0.1)" width="66.98" height="18.44" rx="8.76"/>
<rect fill="#000000" x="-33.52" y="-9.59" transform="translate(792.64,622.49) rotate(-0.1)" width="67.04" height="19.18" rx="8.88"/>
<path fill="#465c6d" d="
  M 787.30 781.20
  A 0.49 0.49 0.0 0 1 787.79 781.69
  L 787.79 783.64
  A 27.72 27.02 -0.0 0 1 760.07 810.66
  L 263.53 810.66
  A 27.72 27.02 -0.0 0 1 235.81 783.64
  L 235.81 781.69
  A 0.49 0.49 0.0 0 1 236.30 781.20
  L 787.30 781.20
  Z"
/>
</svg>
