<?xml version="1.0" encoding="UTF-8" standalone="no"?>
<!DOCTYPE svg PUBLIC "-//W3C//DTD SVG 1.1//EN" "http://www.w3.org/Graphics/SVG/1.1/DTD/svg11.dtd">
<svg xmlns="http://www.w3.org/2000/svg" version="1.1" viewBox="0.00 0.00 256.00 256.00">
<g stroke-width="2.00" fill="none" stroke-linecap="butt">
<path stroke="#6c252a" vector-effect="non-scaling-stroke" d="
  M 252.36 191.06
  Q 249.42 190.25 248.93 188.03
  Q 248.51 186.11 248.51 179.75
  Q 248.45 103.49 248.52 73.71
  Q 248.53 66.27 247.44 63.93
  Q 245.20 59.15 240.71 56.70
  Q 238.15 55.30 228.02 55.33
  Q 220.74 55.36 213.44 55.34"
/>
<path stroke="#6e3237" vector-effect="non-scaling-stroke" d="
  M 213.44 55.34
  Q 119.98 55.34 26.47 55.34
  Q 18.50 55.34 16.28 56.30
  Q 11.32 58.46 8.83 63.30
  Q 7.50 65.87 7.50 73.06
  Q 7.55 212.01 7.50 213.41
  C 7.25 221.66 8.37 227.46 15.22 231.17
  Q 17.76 232.54 29.17 232.54
  Q 121.34 232.56 213.46 232.54"
/>
<path stroke="#6c252a" vector-effect="non-scaling-stroke" d="
  M 213.46 232.54
  Q 221.46 232.54 229.44 232.55
  Q 237.83 232.57 240.38 231.30
  Q 245.55 228.73 247.74 223.12
  Q 248.52 221.13 248.50 214.26
  Q 248.49 209.27 248.63 205.31
  Q 248.77 201.51 252.41 200.28"
/>
<path stroke="#6e747d" vector-effect="non-scaling-stroke" d="
  M 116.23 47.81
  L 139.77 47.81
  A 0.42 0.42 0.0 0 0 140.19 47.39
  L 140.19 47.09
  A 7.05 6.92 0.0 0 0 133.14 40.17
  L 122.86 40.17
  A 7.05 6.92 0.0 0 0 115.81 47.09
  L 115.81 47.39
  A 0.42 0.42 0.0 0 0 116.23 47.81"
/>
<path stroke="#20384a" vector-effect="non-scaling-stroke" d="
  M 127.99 248.46
  Q 216.19 248.46 221.90 248.42
  Q 227.93 248.38 229.63 247.28
  Q 232.87 245.17 233.61 240.61
  A 0.44 0.43 8.6 0 0 233.23 240.10
  Q 232.96 240.07 127.99 240.07
  Q 23.03 240.07 22.76 240.10
  A 0.44 0.43 -8.6 0 0 22.38 240.61
  Q 23.12 245.17 26.36 247.28
  Q 28.06 248.38 34.08 248.42
  Q 39.79 248.46 127.99 248.46"
/>
<path stroke="#da5761" vector-effect="non-scaling-stroke" d="
  M 213.44 55.34
  Q 214.75 57.36 216.18 59.28
  Q 218.22 62.02 219.05 65.23
  Q 219.58 67.25 219.57 71.81
  Q 219.56 80.02 219.69 88.22"
/>
<path stroke="#6e3237" vector-effect="non-scaling-stroke" d="
  M 219.69 88.22
  Q 211.89 97.48 219.86 106.70"
/>
<path stroke="#da5761" vector-effect="non-scaling-stroke" d="
  M 219.86 106.70
  Q 219.13 113.42 220.39 119.70"
/>
<path stroke="#6e3237" vector-effect="non-scaling-stroke" d="
  M 220.39 119.70
  Q 211.61 128.85 219.69 138.69"
/>
<path stroke="#da5761" vector-effect="non-scaling-stroke" d="
  M 219.69 138.69
  L 219.60 156.04"
/>
<path stroke="#6e3237" vector-effect="non-scaling-stroke" d="
  M 219.60 156.04
  C 214.42 156.89 214.77 163.22 219.71 163.60"
/>
<path stroke="#da5761" vector-effect="non-scaling-stroke" d="
  M 219.71 163.60
  L 219.77 171.13"
/>
<path stroke="#6e3237" vector-effect="non-scaling-stroke" d="
  M 219.77 171.13
  C 214.66 171.60 214.52 178.00 219.57 178.68"
/>
<path stroke="#da5761" vector-effect="non-scaling-stroke" d="
  M 219.57 178.68
  Q 219.62 198.46 219.61 218.25
  C 219.60 224.62 217.02 227.79 213.46 232.54"
/>
<path stroke="#e3abb7" vector-effect="non-scaling-stroke" d="
  M 69.48 73.08
  L 59.54 73.06"
/>
<path stroke="#6e3237" vector-effect="non-scaling-stroke" d="
  M 59.54 73.06
  Q 59.06 69.70 56.33 69.40
  Q 53.25 69.06 47.92 69.46
  C 35.87 70.38 26.37 78.22 22.75 89.45
  Q 21.31 93.90 21.44 103.21
  Q 21.56 111.91 21.43 180.40
  Q 21.40 194.59 22.85 198.92
  C 26.66 210.37 37.50 218.53 50.00 218.53
  Q 73.15 218.53 173.25 218.57
  Q 185.01 218.58 189.09 217.16
  C 201.14 212.96 208.64 202.14 208.60 189.25
  Q 208.59 184.77 208.63 103.18
  Q 208.64 93.03 207.25 89.00
  C 203.17 77.19 192.61 69.41 180.00 69.35
  Q 173.18 69.32 73.00 69.34
  A 1.78 1.69 -52.8 0 0 72.45 69.43
  Q 69.81 70.25 69.48 73.08"
/>
<path stroke="#757980" vector-effect="non-scaling-stroke" d="
  M 59.54 73.06
  C 59.26 75.82 57.54 76.76 54.81 76.80
  Q 48.59 76.90 48.48 76.91
  C 39.74 77.71 32.80 83.14 30.02 91.17
  Q 28.95 94.25 28.97 102.94
  Q 29.05 141.17 28.96 185.67
  Q 28.95 194.05 30.35 197.60
  C 33.82 206.42 41.65 211.02 51.25 211.03
  Q 106.83 211.13 162.21 211.04"
/>
<path stroke="#6e747d" vector-effect="non-scaling-stroke" d="
  M 162.21 211.04
  Q 170.23 211.17 178.13 211.03
  Q 184.14 210.92 187.04 209.91
  C 196.04 206.77 201.17 198.44 201.15 189.00
  Q 201.06 142.41 201.14 102.08
  Q 201.16 93.95 199.86 90.62
  Q 196.35 81.61 187.40 78.09
  Q 184.18 76.83 176.45 76.82
  Q 169.20 76.81 161.94 76.82"
/>
<path stroke="#757980" vector-effect="non-scaling-stroke" d="
  M 161.94 76.82
  Q 117.74 76.81 73.50 76.81
  Q 69.96 76.81 69.48 73.08"
/>
<path stroke="#e3edfc" vector-effect="non-scaling-stroke" d="
  M 161.94 76.82
  C 167.14 82.02 170.98 86.81 171.89 94.23
  Q 173.23 105.11 171.85 116.29"
/>
<path stroke="#757980" vector-effect="non-scaling-stroke" d="
  M 171.85 116.29
  Q 162.94 112.07 154.54 115.07
  C 145.48 118.30 141.96 128.66 147.75 136.27
  Q 149.62 138.73 155.72 141.01
  Q 159.22 142.31 166.94 145.56
  C 171.31 147.40 174.35 151.88 170.93 156.23
  C 165.27 163.44 154.25 159.93 148.48 154.35
  A 3.52 3.52 0.0 0 0 143.49 154.44
  L 143.36 154.57
  A 3.65 3.64 44.5 0 0 143.41 159.67
  C 150.78 167.68 163.07 170.19 172.60 164.77"
/>
<path stroke="#e3edfc" vector-effect="non-scaling-stroke" d="
  M 172.60 164.77
  Q 172.57 172.78 172.53 180.76
  C 172.49 189.55 172.79 195.33 169.81 201.26
  Q 167.88 205.11 162.21 211.04"
/>
<path stroke="#6e747d" vector-effect="non-scaling-stroke" d="
  M 172.60 164.77
  C 182.51 158.17 182.38 146.04 172.01 139.71"
/>
<path stroke="#e3edfc" vector-effect="non-scaling-stroke" d="
  M 172.01 139.71
  L 172.92 125.75"
/>
<path stroke="#6e747d" vector-effect="non-scaling-stroke" d="
  M 172.92 125.75
  C 177.91 127.19 180.49 121.71 176.34 118.92
  Q 173.59 117.07 171.85 116.29"
/>
<path stroke="#757980" vector-effect="non-scaling-stroke" d="
  M 172.92 125.75
  Q 167.41 121.18 160.27 121.46
  C 154.55 121.68 149.06 127.68 154.71 132.40
  A 2.17 2.01 -11.6 0 0 155.22 132.71
  L 172.01 139.71"
/>
<path stroke="#6c252a" vector-effect="non-scaling-stroke" d="
  M 219.57 178.68
  L 237.52 178.59
  A 3.62 3.57 89.9 0 0 241.07 174.98
  L 241.07 174.84
  A 3.61 3.57 -89.8 0 0 237.52 171.23
  L 219.77 171.13"
/>
<path stroke="#6c252a" vector-effect="non-scaling-stroke" d="
  M 219.71 163.60
  L 237.55 163.50
  A 3.58 3.52 89.7 0 0 241.06 159.89
  L 241.06 159.74
  A 3.63 3.60 89.9 0 0 237.48 156.14
  L 219.60 156.04"
/>
<path stroke="#6c252a" vector-effect="non-scaling-stroke" d="
  M 219.69 138.69
  Q 225.05 143.17 230.72 142.01
  C 243.13 139.46 245.10 122.98 233.44 117.80
  Q 226.95 114.92 220.39 119.70"
/>
<path stroke="#6c252a" vector-effect="non-scaling-stroke" d="
  M 219.86 106.70
  Q 225.87 111.72 232.24 109.54
  C 244.68 105.28 243.99 87.83 231.01 84.96
  Q 224.98 83.62 219.69 88.22"
/>
<path stroke="#757980" vector-effect="non-scaling-stroke" d="
  M 64.49 156.34
  Q 74.88 156.35 75.30 156.38
  A 0.97 0.97 0.0 0 1 76.14 157.01
  L 79.34 165.41
  A 3.50 3.50 0.0 0 0 84.10 167.34
  L 84.25 167.27
  A 3.75 3.75 0.0 0 0 86.23 162.53
  Q 77.74 139.96 69.25 117.50
  Q 67.87 113.85 64.55 113.85
  Q 61.23 113.84 59.84 117.49
  Q 51.28 139.92 42.73 162.47
  A 3.75 3.75 0.0 0 0 44.70 167.21
  L 44.85 167.28
  A 3.50 3.50 0.0 0 0 49.61 165.37
  L 52.83 156.98
  A 0.97 0.97 0.0 0 1 53.67 156.35
  Q 54.10 156.32 64.49 156.34"
/>
<path stroke="#757980" vector-effect="non-scaling-stroke" d="
  M 97.23 118.50
  L 97.39 163.02
  A 4.08 4.08 0.0 0 0 101.48 167.08
  L 113.41 167.04
  A 23.98 22.31 89.8 0 0 135.64 142.98
  L 135.62 138.26
  A 23.98 22.31 89.8 0 0 113.23 114.36
  L 101.30 114.40
  A 4.08 4.08 0.0 0 0 97.23 118.50"
/>
<path stroke="#757980" vector-effect="non-scaling-stroke" d="
  M 233.73 97.38
  A 5.18 5.18 0.0 0 0 228.55 92.20
  A 5.18 5.18 0.0 0 0 223.37 97.38
  A 5.18 5.18 0.0 0 0 228.55 102.56
  A 5.18 5.18 0.0 0 0 233.73 97.38"
/>
<path stroke="#757980" vector-effect="non-scaling-stroke" d="
  M 56.08 148.43
  A 0.31 0.31 0.0 0 0 56.37 148.85
  L 72.63 148.88
  A 0.31 0.31 0.0 0 0 72.92 148.46
  L 64.82 127.00
  A 0.31 0.31 0.0 0 0 64.25 127.00
  L 56.08 148.43"
/>
<path stroke="#757980" vector-effect="non-scaling-stroke" d="
  M 104.79 122.43
  L 104.91 158.97
  A 0.56 0.56 0.0 0 0 105.48 159.53
  L 113.33 159.50
  A 16.51 14.87 89.8 0 0 128.14 142.94
  L 128.12 138.30
  A 16.51 14.87 89.8 0 0 113.19 121.84
  L 105.34 121.87
  A 0.56 0.56 0.0 0 0 104.79 122.43"
/>
<path stroke="#757980" vector-effect="non-scaling-stroke" d="
  M 233.73 129.50
  A 5.18 5.18 0.0 0 0 228.55 124.32
  A 5.18 5.18 0.0 0 0 223.37 129.50
  A 5.18 5.18 0.0 0 0 228.55 134.68
  A 5.18 5.18 0.0 0 0 233.73 129.50"
/>
</g>
<path fill="#000000" d="
  M 69.01 0.00
  L 70.20 0.43
  A 2.75 2.59 -13.0 0 1 71.04 0.92
  L 112.38 36.13
  A 0.72 0.71 45.3 0 0 113.30 36.14
  Q 117.53 32.67 123.23 32.65
  C 130.47 32.62 137.04 31.58 142.65 36.13
  A 0.76 0.75 -45.3 0 0 143.63 36.12
  L 185.02 0.88
  A 2.06 1.99 -75.0 0 1 185.57 0.55
  L 186.94 0.00
  L 187.65 0.00
  C 190.69 0.79 192.55 4.32 189.89 6.58
  Q 173.84 20.29 147.72 42.48
  A 1.43 1.42 -29.4 0 0 147.29 44.00
  Q 147.73 45.32 147.67 47.12
  A 0.68 0.68 0.0 0 0 148.35 47.83
  Q 214.88 47.76 233.71 47.86
  Q 248.65 47.95 254.48 61.44
  C 255.23 63.19 255.54 65.12 256.00 67.00
  L 256.00 186.38
  Q 255.70 189.88 252.36 191.06
  Q 249.42 190.25 248.93 188.03
  Q 248.51 186.11 248.51 179.75
  Q 248.45 103.49 248.52 73.71
  Q 248.53 66.27 247.44 63.93
  Q 245.20 59.15 240.71 56.70
  Q 238.15 55.30 228.02 55.33
  Q 220.74 55.36 213.44 55.34
  Q 119.98 55.34 26.47 55.34
  Q 18.50 55.34 16.28 56.30
  Q 11.32 58.46 8.83 63.30
  Q 7.50 65.87 7.50 73.06
  Q 7.55 212.01 7.50 213.41
  C 7.25 221.66 8.37 227.46 15.22 231.17
  Q 17.76 232.54 29.17 232.54
  Q 121.34 232.56 213.46 232.54
  Q 221.46 232.54 229.44 232.55
  Q 237.83 232.57 240.38 231.30
  Q 245.55 228.73 247.74 223.12
  Q 248.52 221.13 248.50 214.26
  Q 248.49 209.27 248.63 205.31
  Q 248.77 201.51 252.41 200.28
  Q 254.92 201.32 256.00 203.63
  L 256.00 220.16
  Q 254.23 233.76 241.60 238.95
  A 0.79 0.79 0.0 0 0 241.12 239.63
  Q 240.35 253.51 226.51 256.00
  L 29.59 256.00
  Q 15.71 253.61 14.78 239.50
  A 0.80 0.79 -81.8 0 0 14.28 238.82
  Q 1.82 233.79 0.00 220.25
  L 0.00 67.11
  Q 3.78 47.72 23.51 47.76
  Q 63.38 47.86 107.79 47.79
  A 0.72 0.72 0.0 0 0 108.50 47.07
  L 108.50 42.94
  A 0.61 0.60 -70.0 0 0 108.29 42.48
  L 65.96 6.44
  A 2.42 2.41 11.1 0 1 65.27 5.42
  Q 63.87 1.32 68.25 0.00
  L 69.01 0.00
  Z
  M 116.23 47.81
  L 139.77 47.81
  A 0.42 0.42 0.0 0 0 140.19 47.39
  L 140.19 47.09
  A 7.05 6.92 0.0 0 0 133.14 40.17
  L 122.86 40.17
  A 7.05 6.92 0.0 0 0 115.81 47.09
  L 115.81 47.39
  A 0.42 0.42 0.0 0 0 116.23 47.81
  Z
  M 127.99 248.46
  Q 216.19 248.46 221.90 248.42
  Q 227.93 248.38 229.63 247.28
  Q 232.87 245.17 233.61 240.61
  A 0.44 0.43 8.6 0 0 233.23 240.10
  Q 232.96 240.07 127.99 240.07
  Q 23.03 240.07 22.76 240.10
  A 0.44 0.43 -8.6 0 0 22.38 240.61
  Q 23.12 245.17 26.36 247.28
  Q 28.06 248.38 34.08 248.42
  Q 39.79 248.46 127.99 248.46
  Z"
/>
<path fill="#dbe8f9" d="
  M 116.23 47.81
  A 0.42 0.42 0.0 0 1 115.81 47.39
  L 115.81 47.09
  A 7.05 6.92 0.0 0 1 122.86 40.17
  L 133.14 40.17
  A 7.05 6.92 -0.0 0 1 140.19 47.09
  L 140.19 47.39
  A 0.42 0.42 0.0 0 1 139.77 47.81
  L 116.23 47.81
  Z"
/>
<path fill="#db636e" d="
  M 213.44 55.34
  Q 214.75 57.36 216.18 59.28
  Q 218.22 62.02 219.05 65.23
  Q 219.58 67.25 219.57 71.81
  Q 219.56 80.02 219.69 88.22
  Q 211.89 97.48 219.86 106.70
  Q 219.13 113.42 220.39 119.70
  Q 211.61 128.85 219.69 138.69
  L 219.60 156.04
  C 214.42 156.89 214.77 163.22 219.71 163.60
  L 219.77 171.13
  C 214.66 171.60 214.52 178.00 219.57 178.68
  Q 219.62 198.46 219.61 218.25
  C 219.60 224.62 217.02 227.79 213.46 232.54
  Q 121.34 232.56 29.17 232.54
  Q 17.76 232.54 15.22 231.17
  C 8.37 227.46 7.25 221.66 7.50 213.41
  Q 7.55 212.01 7.50 73.06
  Q 7.50 65.87 8.83 63.30
  Q 11.32 58.46 16.28 56.30
  Q 18.50 55.34 26.47 55.34
  Q 119.98 55.34 213.44 55.34
  Z
  M 69.48 73.08
  L 59.54 73.06
  Q 59.06 69.70 56.33 69.40
  Q 53.25 69.06 47.92 69.46
  C 35.87 70.38 26.37 78.22 22.75 89.45
  Q 21.31 93.90 21.44 103.21
  Q 21.56 111.91 21.43 180.40
  Q 21.40 194.59 22.85 198.92
  C 26.66 210.37 37.50 218.53 50.00 218.53
  Q 73.15 218.53 173.25 218.57
  Q 185.01 218.58 189.09 217.16
  C 201.14 212.96 208.64 202.14 208.60 189.25
  Q 208.59 184.77 208.63 103.18
  Q 208.64 93.03 207.25 89.00
  C 203.17 77.19 192.61 69.41 180.00 69.35
  Q 173.18 69.32 73.00 69.34
  A 1.78 1.69 -52.8 0 0 72.45 69.43
  Q 69.81 70.25 69.48 73.08
  Z"
/>
<path fill="#d84a54" d="
  M 252.36 191.06
  L 252.41 200.28
  Q 248.77 201.51 248.63 205.31
  Q 248.49 209.27 248.50 214.26
  Q 248.52 221.13 247.74 223.12
  Q 245.55 228.73 240.38 231.30
  Q 237.83 232.57 229.44 232.55
  Q 221.46 232.54 213.46 232.54
  C 217.02 227.79 219.60 224.62 219.61 218.25
  Q 219.62 198.46 219.57 178.68
  L 237.52 178.59
  A 3.62 3.57 89.9 0 0 241.07 174.98
  L 241.07 174.84
  A 3.61 3.57 -89.8 0 0 237.52 171.23
  L 219.77 171.13
  L 219.71 163.60
  L 237.55 163.50
  A 3.58 3.52 89.7 0 0 241.06 159.89
  L 241.06 159.74
  A 3.63 3.60 89.9 0 0 237.48 156.14
  L 219.60 156.04
  L 219.69 138.69
  Q 225.05 143.17 230.72 142.01
  C 243.13 139.46 245.10 122.98 233.44 117.80
  Q 226.95 114.92 220.39 119.70
  Q 219.13 113.42 219.86 106.70
  Q 225.87 111.72 232.24 109.54
  C 244.68 105.28 243.99 87.83 231.01 84.96
  Q 224.98 83.62 219.69 88.22
  Q 219.56 80.02 219.57 71.81
  Q 219.58 67.25 219.05 65.23
  Q 218.22 62.02 216.18 59.28
  Q 214.75 57.36 213.44 55.34
  Q 220.74 55.36 228.02 55.33
  Q 238.15 55.30 240.71 56.70
  Q 245.20 59.15 247.44 63.93
  Q 248.53 66.27 248.52 73.71
  Q 248.45 103.49 248.51 179.75
  Q 248.51 186.11 248.93 188.03
  Q 249.42 190.25 252.36 191.06
  Z"
/>
<path fill="#000000" d="
  M 59.54 73.06
  C 59.26 75.82 57.54 76.76 54.81 76.80
  Q 48.59 76.90 48.48 76.91
  C 39.74 77.71 32.80 83.14 30.02 91.17
  Q 28.95 94.25 28.97 102.94
  Q 29.05 141.17 28.96 185.67
  Q 28.95 194.05 30.35 197.60
  C 33.82 206.42 41.65 211.02 51.25 211.03
  Q 106.83 211.13 162.21 211.04
  Q 170.23 211.17 178.13 211.03
  Q 184.14 210.92 187.04 209.91
  C 196.04 206.77 201.17 198.44 201.15 189.00
  Q 201.06 142.41 201.14 102.08
  Q 201.16 93.95 199.86 90.62
  Q 196.35 81.61 187.40 78.09
  Q 184.18 76.83 176.45 76.82
  Q 169.20 76.81 161.94 76.82
  Q 117.74 76.81 73.50 76.81
  Q 69.96 76.81 69.48 73.08
  Q 69.81 70.25 72.45 69.43
  A 1.78 1.69 -52.8 0 1 73.00 69.34
  Q 173.18 69.32 180.00 69.35
  C 192.61 69.41 203.17 77.19 207.25 89.00
  Q 208.64 93.03 208.63 103.18
  Q 208.59 184.77 208.60 189.25
  C 208.64 202.14 201.14 212.96 189.09 217.16
  Q 185.01 218.58 173.25 218.57
  Q 73.15 218.53 50.00 218.53
  C 37.50 218.53 26.66 210.37 22.85 198.92
  Q 21.40 194.59 21.43 180.40
  Q 21.56 111.91 21.44 103.21
  Q 21.31 93.90 22.75 89.45
  C 26.37 78.22 35.87 70.38 47.92 69.46
  Q 53.25 69.06 56.33 69.40
  Q 59.06 69.70 59.54 73.06
  Z"
/>
<path fill="#eaf2ff" d="
  M 69.48 73.08
  Q 69.96 76.81 73.50 76.81
  Q 117.74 76.81 161.94 76.82
  C 167.14 82.02 170.98 86.81 171.89 94.23
  Q 173.23 105.11 171.85 116.29
  Q 162.94 112.07 154.54 115.07
  C 145.48 118.30 141.96 128.66 147.75 136.27
  Q 149.62 138.73 155.72 141.01
  Q 159.22 142.31 166.94 145.56
  C 171.31 147.40 174.35 151.88 170.93 156.23
  C 165.27 163.44 154.25 159.93 148.48 154.35
  A 3.52 3.52 0.0 0 0 143.49 154.44
  L 143.36 154.57
  A 3.65 3.64 44.5 0 0 143.41 159.67
  C 150.78 167.68 163.07 170.19 172.60 164.77
  Q 172.57 172.78 172.53 180.76
  C 172.49 189.55 172.79 195.33 169.81 201.26
  Q 167.88 205.11 162.21 211.04
  Q 106.83 211.13 51.25 211.03
  C 41.65 211.02 33.82 206.42 30.35 197.60
  Q 28.95 194.05 28.96 185.67
  Q 29.05 141.17 28.97 102.94
  Q 28.95 94.25 30.02 91.17
  C 32.80 83.14 39.74 77.71 48.48 76.91
  Q 48.59 76.90 54.81 76.80
  C 57.54 76.76 59.26 75.82 59.54 73.06
  L 69.48 73.08
  Z
  M 64.49 156.34
  Q 74.88 156.35 75.30 156.38
  A 0.97 0.97 0.0 0 1 76.14 157.01
  L 79.34 165.41
  A 3.50 3.50 0.0 0 0 84.10 167.34
  L 84.25 167.27
  A 3.75 3.75 0.0 0 0 86.23 162.53
  Q 77.74 139.96 69.25 117.50
  Q 67.87 113.85 64.55 113.85
  Q 61.23 113.84 59.84 117.49
  Q 51.28 139.92 42.73 162.47
  A 3.75 3.75 0.0 0 0 44.70 167.21
  L 44.85 167.28
  A 3.50 3.50 0.0 0 0 49.61 165.37
  L 52.83 156.98
  A 0.97 0.97 0.0 0 1 53.67 156.35
  Q 54.10 156.32 64.49 156.34
  Z
  M 97.23 118.50
  L 97.39 163.02
  A 4.08 4.08 0.0 0 0 101.48 167.08
  L 113.41 167.04
  A 23.98 22.31 89.8 0 0 135.64 142.98
  L 135.62 138.26
  A 23.98 22.31 89.8 0 0 113.23 114.36
  L 101.30 114.40
  A 4.08 4.08 0.0 0 0 97.23 118.50
  Z"
/>
<path fill="#dbe8f9" d="
  M 162.21 211.04
  Q 167.88 205.11 169.81 201.26
  C 172.79 195.33 172.49 189.55 172.53 180.76
  Q 172.57 172.78 172.60 164.77
  C 182.51 158.17 182.38 146.04 172.01 139.71
  L 172.92 125.75
  C 177.91 127.19 180.49 121.71 176.34 118.92
  Q 173.59 117.07 171.85 116.29
  Q 173.23 105.11 171.89 94.23
  C 170.98 86.81 167.14 82.02 161.94 76.82
  Q 169.20 76.81 176.45 76.82
  Q 184.18 76.83 187.40 78.09
  Q 196.35 81.61 199.86 90.62
  Q 201.16 93.95 201.14 102.08
  Q 201.06 142.41 201.15 189.00
  C 201.17 198.44 196.04 206.77 187.04 209.91
  Q 184.14 210.92 178.13 211.03
  Q 170.23 211.17 162.21 211.04
  Z"
/>
<path fill="#000000" d="
  M 219.86 106.70
  Q 211.89 97.48 219.69 88.22
  Q 224.98 83.62 231.01 84.96
  C 243.99 87.83 244.68 105.28 232.24 109.54
  Q 225.87 111.72 219.86 106.70
  Z
  M 233.73 97.38
  A 5.18 5.18 0.0 0 0 228.55 92.20
  A 5.18 5.18 0.0 0 0 223.37 97.38
  A 5.18 5.18 0.0 0 0 228.55 102.56
  A 5.18 5.18 0.0 0 0 233.73 97.38
  Z"
/>
<circle fill="#eaf2ff" cx="228.55" cy="97.38" r="5.18"/>
<path fill="#000000" d="
  M 64.55 113.85
  Q 67.87 113.85 69.25 117.50
  Q 77.74 139.96 86.23 162.53
  A 3.75 3.75 0.0 0 1 84.25 167.27
  L 84.10 167.34
  A 3.50 3.50 0.0 0 1 79.34 165.41
  L 76.14 157.01
  A 0.97 0.97 0.0 0 0 75.30 156.38
  Q 74.88 156.35 64.49 156.34
  Q 54.10 156.32 53.67 156.35
  A 0.97 0.97 0.0 0 0 52.83 156.98
  L 49.61 165.37
  A 3.50 3.50 0.0 0 1 44.85 167.28
  L 44.70 167.21
  A 3.75 3.75 0.0 0 1 42.73 162.47
  Q 51.28 139.92 59.84 117.49
  Q 61.23 113.84 64.55 113.85
  Z
  M 56.08 148.43
  A 0.31 0.31 0.0 0 0 56.37 148.85
  L 72.63 148.88
  A 0.31 0.31 0.0 0 0 72.92 148.46
  L 64.82 127.00
  A 0.31 0.31 0.0 0 0 64.25 127.00
  L 56.08 148.43
  Z"
/>
<path fill="#000000" d="
  M 171.85 116.29
  Q 173.59 117.07 176.34 118.92
  C 180.49 121.71 177.91 127.19 172.92 125.75
  Q 167.41 121.18 160.27 121.46
  C 154.55 121.68 149.06 127.68 154.71 132.40
  A 2.17 2.01 -11.6 0 0 155.22 132.71
  L 172.01 139.71
  C 182.38 146.04 182.51 158.17 172.60 164.77
  C 163.07 170.19 150.78 167.68 143.41 159.67
  A 3.65 3.64 44.5 0 1 143.36 154.57
  L 143.49 154.44
  A 3.52 3.52 0.0 0 1 148.48 154.35
  C 154.25 159.93 165.27 163.44 170.93 156.23
  C 174.35 151.88 171.31 147.40 166.94 145.56
  Q 159.22 142.31 155.72 141.01
  Q 149.62 138.73 147.75 136.27
  C 141.96 128.66 145.48 118.30 154.54 115.07
  Q 162.94 112.07 171.85 116.29
  Z"
/>
<path fill="#000000" d="
  M 97.23 118.50
  A 4.08 4.08 0.0 0 1 101.30 114.40
  L 113.23 114.36
  A 23.98 22.31 89.8 0 1 135.62 138.26
  L 135.64 142.98
  A 23.98 22.31 89.8 0 1 113.41 167.04
  L 101.48 167.08
  A 4.08 4.08 0.0 0 1 97.39 163.02
  L 97.23 118.50
  Z
  M 104.79 122.43
  L 104.91 158.97
  A 0.56 0.56 0.0 0 0 105.48 159.53
  L 113.33 159.50
  A 16.51 14.87 89.8 0 0 128.14 142.94
  L 128.12 138.30
  A 16.51 14.87 89.8 0 0 113.19 121.84
  L 105.34 121.87
  A 0.56 0.56 0.0 0 0 104.79 122.43
  Z"
/>
<path fill="#000000" d="
  M 219.69 138.69
  Q 211.61 128.85 220.39 119.70
  Q 226.95 114.92 233.44 117.80
  C 245.10 122.98 243.13 139.46 230.72 142.01
  Q 225.05 143.17 219.69 138.69
  Z
  M 233.73 129.50
  A 5.18 5.18 0.0 0 0 228.55 124.32
  A 5.18 5.18 0.0 0 0 223.37 129.50
  A 5.18 5.18 0.0 0 0 228.55 134.68
  A 5.18 5.18 0.0 0 0 233.73 129.50
  Z"
/>
<path fill="#eaf2ff" d="
  M 172.92 125.75
  L 172.01 139.71
  L 155.22 132.71
  A 2.17 2.01 -11.6 0 1 154.71 132.40
  C 149.06 127.68 154.55 121.68 160.27 121.46
  Q 167.41 121.18 172.92 125.75
  Z"
/>
<path fill="#eaf2ff" d="
  M 104.79 122.43
  A 0.56 0.56 0.0 0 1 105.34 121.87
  L 113.19 121.84
  A 16.51 14.87 89.8 0 1 128.12 138.30
  L 128.14 142.94
  A 16.51 14.87 89.8 0 1 113.33 159.50
  L 105.48 159.53
  A 0.56 0.56 0.0 0 1 104.91 158.97
  L 104.79 122.43
  Z"
/>
<circle fill="#eaf2ff" cx="228.55" cy="129.50" r="5.18"/>
<path fill="#eaf2ff" d="
  M 56.08 148.43
  L 64.25 127.00
  A 0.31 0.31 0.0 0 1 64.82 127.00
  L 72.92 148.46
  A 0.31 0.31 0.0 0 1 72.63 148.88
  L 56.37 148.85
  A 0.31 0.31 0.0 0 1 56.08 148.43
  Z"
/>
<path fill="#000000" d="
  M 219.60 156.04
  L 237.48 156.14
  A 3.63 3.60 89.9 0 1 241.06 159.74
  L 241.06 159.89
  A 3.58 3.52 89.7 0 1 237.55 163.50
  L 219.71 163.60
  C 214.77 163.22 214.42 156.89 219.60 156.04
  Z"
/>
<path fill="#000000" d="
  M 219.57 178.68
  C 214.52 178.00 214.66 171.60 219.77 171.13
  L 237.52 171.23
  A 3.61 3.57 -89.8 0 1 241.07 174.84
  L 241.07 174.98
  A 3.62 3.57 89.9 0 1 237.52 178.59
  L 219.57 178.68
  Z"
/>
<path fill="#407093" d="
  M 127.99 240.07
  Q 232.96 240.07 233.23 240.10
  A 0.44 0.43 8.6 0 1 233.61 240.61
  Q 232.87 245.17 229.63 247.28
  Q 227.93 248.38 221.90 248.42
  Q 216.19 248.46 127.99 248.46
  Q 39.79 248.46 34.08 248.42
  Q 28.06 248.38 26.36 247.28
  Q 23.12 245.17 22.38 240.61
  A 0.44 0.43 -8.6 0 1 22.76 240.10
  Q 23.03 240.07 127.99 240.07
  Z"
/>
</svg>
