<?xml version="1.0" encoding="UTF-8" standalone="no"?>
<!DOCTYPE svg PUBLIC "-//W3C//DTD SVG 1.1//EN" "http://www.w3.org/Graphics/SVG/1.1/DTD/svg11.dtd">
<svg xmlns="http://www.w3.org/2000/svg" version="1.1" viewBox="0.00 0.00 1600.00 1080.00">
<g stroke-width="2.00" fill="none" stroke-linecap="butt">
<path stroke="#7b8f87" vector-effect="non-scaling-stroke" d="
  M 972.62 518.48
  C 1006.60 509.89 1035.30 482.98 1023.73 445.10
  C 1022.87 442.27 1020.93 438.98 1020.19 436.27
  A 7.73 7.71 38.9 0 1 1019.93 433.87
  C 1021.29 406.42 1017.30 378.54 998.63 357.29
  A 4.63 4.62 -69.3 0 1 997.52 354.83
  C 995.78 340.96 985.20 330.71 973.59 323.66
  Q 954.76 312.23 932.74 309.62
  Q 912.63 307.23 894.13 311.52
  C 890.03 312.47 885.14 314.83 883.48 318.89
  Q 882.93 320.23 882.44 322.37
  A 1.35 1.35 0.0 0 1 881.47 323.38
  Q 875.54 324.94 872.08 325.98
  C 846.87 333.55 824.56 352.12 814.54 376.79
  Q 808.48 391.72 807.34 407.77
  Q 806.59 418.49 807.16 432.52
  A 3.99 3.77 -43.3 0 1 807.12 433.20
  L 806.69 435.77
  A 5.68 5.64 63.2 0 1 806.17 437.37
  Q 799.68 450.76 800.72 466.01
  C 801.90 483.27 811.72 497.63 826.15 506.89
  Q 838.88 515.06 853.47 518.50
  A 0.60 0.60 0.0 0 1 853.68 519.57
  C 841.17 528.41 820.99 547.48 825.40 564.16
  C 827.64 572.62 836.39 576.63 844.64 577.10
  A 1.48 1.46 82.1 0 1 845.96 578.11
  Q 849.98 590.19 860.36 597.26
  A 3.33 3.30 13.3 0 1 861.76 599.50
  C 863.21 609.46 866.14 620.60 874.78 626.49
  Q 883.29 632.29 894.78 629.19
  C 903.11 626.95 908.02 618.78 910.17 610.68
  A 1.58 1.58 0.0 0 1 913.23 610.69
  C 915.13 618.00 917.93 623.62 924.55 627.77
  Q 929.70 631.00 937.31 630.53
  C 953.37 629.54 960.96 614.47 962.22 599.67
  A 3.47 3.47 0.0 0 1 963.72 597.10
  C 970.56 592.44 976.10 585.92 977.90 577.49
  A 1.09 1.09 0.0 0 1 979.13 576.63
  Q 984.85 577.48 990.03 575.28
  C 1003.71 569.48 1003.06 554.80 996.11 544.08
  Q 986.92 529.90 972.40 519.65
  A 0.66 0.66 0.0 0 1 972.62 518.48"
/>
<path stroke="#7b8f87" vector-effect="non-scaling-stroke" d="
  M 626.97 519.03
  Q 615.38 527.71 607.54 538.73
  C 599.77 549.63 594.68 566.09 607.52 574.93
  C 613.18 578.83 621.61 578.84 627.89 576.12
  A 0.72 0.71 66.1 0 1 628.83 576.49
  Q 631.52 582.60 635.54 586.74
  A 7.50 7.49 -69.7 0 1 637.60 591.22
  C 638.92 605.45 642.66 622.94 657.22 628.73
  Q 665.10 631.86 673.35 628.83
  C 682.99 625.28 687.24 615.25 688.18 605.66
  A 0.31 0.31 0.0 0 1 688.78 605.60
  Q 689.07 606.50 690.18 611.06
  C 692.82 621.88 700.55 630.83 712.31 630.53
  Q 723.62 630.24 730.65 620.60
  C 736.89 612.04 738.80 600.89 740.00 589.74
  A 4.74 4.69 -21.1 0 1 741.21 587.05
  Q 745.22 582.67 747.47 576.53
  A 0.96 0.95 -69.1 0 1 748.71 575.97
  C 756.49 579.03 765.69 578.30 771.41 571.83
  C 777.98 564.40 775.60 553.31 770.73 545.26
  Q 761.44 529.88 747.07 519.42
  A 0.38 0.37 56.1 0 1 747.20 518.75
  C 773.03 512.66 797.64 495.31 799.25 466.53
  Q 800.15 450.54 792.96 436.99
  A 6.58 6.57 -57.4 0 1 792.21 433.56
  C 793.87 404.34 788.28 373.70 765.38 353.34
  C 749.19 338.94 728.44 331.11 706.75 328.30
  C 688.92 325.99 669.02 326.23 651.02 330.50
  A 10.26 10.16 -46.7 0 1 647.02 330.64
  Q 634.49 328.57 626.17 338.28
  A 0.73 0.73 0.0 0 1 625.27 338.45
  Q 624.41 337.98 623.44 337.39
  C 616.00 332.91 607.79 333.41 601.52 338.74
  C 596.50 343.01 594.70 349.11 596.12 355.54
  A 0.76 0.76 0.0 0 1 595.50 356.45
  C 587.03 357.88 578.90 362.73 578.94 372.44
  Q 578.98 381.15 587.04 386.22
  A 0.88 0.87 -62.8 0 1 587.38 387.30
  Q 578.24 408.91 580.18 432.52
  Q 580.50 436.35 579.34 438.34
  Q 573.91 447.68 573.36 460.42
  Q 572.36 483.46 588.50 499.08
  C 599.01 509.26 612.82 514.96 626.90 518.66
  A 0.21 0.21 0.0 0 1 626.97 519.03"
/>
<path stroke="#ceeaf1" vector-effect="non-scaling-stroke" d="
  M 761.97 672.81
  A 0.46 0.46 0.0 0 1 762.42 672.35
  Q 770.90 672.19 780.06 672.37
  Q 783.99 672.44 786.77 670.98
  C 790.43 669.06 790.13 662.01 789.26 658.70
  C 788.46 655.63 786.25 653.92 783.21 653.82
  Q 780.91 653.76 762.42 653.79
  A 0.43 0.42 1.3 0 1 761.99 653.35
  C 762.21 647.66 760.93 642.25 754.49 641.35
  Q 748.94 640.58 746.97 641.27
  Q 740.74 643.44 740.56 650.05
  Q 740.21 662.46 740.44 695.04
  C 740.46 697.74 740.32 701.73 741.48 703.73
  C 743.95 707.98 747.94 707.67 752.74 707.62
  C 758.14 707.56 761.08 705.26 762.06 700.14
  A 0.65 0.65 0.0 0 1 762.72 699.61
  Q 768.36 699.75 778.22 699.60
  C 787.99 699.45 787.99 682.46 778.51 682.52
  Q 771.12 682.57 762.45 682.43
  A 0.49 0.49 0.0 0 1 761.97 681.94
  L 761.97 672.81"
/>
<path stroke="#ceeaf1" vector-effect="non-scaling-stroke" d="
  M 693.27 684.38
  C 690.74 684.38 689.09 681.94 689.05 679.59
  Q 688.89 671.79 688.97 657.51
  C 689.00 653.38 688.31 649.53 684.45 647.99
  Q 679.36 645.97 673.69 647.36
  C 669.62 648.36 667.84 651.02 667.53 654.79
  C 667.05 660.43 667.49 670.93 667.20 683.25
  C 667.03 690.78 668.53 698.13 676.25 701.23
  Q 679.68 702.61 682.63 702.63
  Q 709.33 702.83 726.44 702.63
  Q 731.57 702.56 733.02 697.90
  C 733.96 694.87 734.17 688.51 731.17 686.15
  Q 729.12 684.52 727.48 684.51
  Q 710.91 684.35 693.27 684.38"
/>
<path stroke="#ceeaf1" vector-effect="non-scaling-stroke" d="
  M 908.79 666.96
  Q 913.96 666.84 917.72 666.92
  Q 925.07 667.08 926.08 660.61
  C 927.02 654.56 925.23 648.93 918.00 648.91
  Q 872.49 648.81 827.34 648.91
  Q 823.01 648.92 821.26 649.71
  C 817.26 651.50 816.15 656.67 816.91 660.58
  Q 818.18 667.03 824.99 667.00
  Q 829.53 666.98 836.99 666.95
  A 0.54 0.53 0.0 0 1 837.53 667.48
  L 837.53 693.57
  A 0.53 0.53 0.0 0 1 837.00 694.10
  Q 826.27 694.15 825.01 694.27
  Q 820.01 694.73 819.26 699.24
  C 818.25 705.34 819.37 711.66 826.77 711.80
  Q 840.35 712.06 861.35 711.93
  A 0.74 0.73 -0.0 0 1 862.09 712.66
  L 862.09 734.54
  A 0.66 0.66 0.0 0 1 861.43 735.20
  Q 836.35 735.10 820.76 735.28
  C 816.09 735.33 812.48 735.96 811.11 740.77
  Q 810.32 743.56 811.14 747.84
  C 812.17 753.20 815.98 753.73 820.50 753.71
  Q 821.11 753.70 922.97 753.70
  C 928.02 753.70 931.78 752.99 932.68 747.73
  C 933.79 741.25 932.79 734.81 924.96 734.85
  Q 905.29 734.97 884.00 734.96
  A 0.82 0.82 0.0 0 1 883.18 734.14
  L 883.18 712.36
  A 0.55 0.55 0.0 0 1 883.73 711.81
  Q 907.93 712.00 918.01 711.80
  C 925.97 711.64 927.03 703.10 924.62 697.34
  C 923.62 694.94 922.15 694.16 919.75 693.99
  Q 917.79 693.86 909.07 693.93
  A 0.96 0.96 0.0 0 1 908.10 692.97
  L 908.10 667.67
  A 0.71 0.70 89.6 0 1 908.79 666.96"
/>
<path stroke="#ceeaf1" vector-effect="non-scaling-stroke" d="
  M 771.17 721.92
  C 768.55 714.14 762.79 713.20 754.46 713.23
  Q 725.90 713.32 704.10 713.25
  Q 690.08 713.20 687.15 714.40
  Q 677.74 718.22 678.03 730.75
  Q 678.16 736.48 678.02 743.53
  C 677.85 752.65 678.70 759.50 686.78 763.12
  Q 689.88 764.51 696.81 764.48
  Q 724.69 764.35 754.14 764.47
  Q 760.49 764.49 762.99 763.36
  C 772.40 759.11 771.88 750.19 771.95 741.50
  Q 772.10 724.90 771.45 722.78
  A 6.43 1.89 70.2 0 0 771.17 721.92"
/>
<path stroke="#7e8947" vector-effect="non-scaling-stroke" d="
  M 989.30 354.74
  A 0.87 0.87 0.0 0 0 990.16 353.81
  C 989.63 345.62 980.43 336.84 974.32 332.64
  Q 949.23 315.40 917.97 315.98
  C 913.46 316.07 889.92 317.00 889.84 322.90
  Q 889.75 328.82 893.35 334.49
  C 901.12 346.75 913.78 354.03 927.84 358.94
  Q 945.89 365.25 964.27 365.25
  C 969.16 365.25 974.28 365.19 976.95 360.52
  A 1.71 1.71 0.0 0 0 977.17 359.51
  Q 976.96 357.53 975.32 355.90
  Q 964.56 345.20 950.46 338.29
  Q 946.61 336.40 938.61 333.35
  C 937.05 332.75 935.96 331.91 935.99 330.26
  A 2.16 2.15 -3.8 0 1 937.83 328.17
  Q 940.21 327.81 943.02 328.72
  C 956.97 333.19 969.03 340.77 979.89 350.64
  C 982.69 353.18 985.84 354.78 989.30 354.74"
/>
<path stroke="#ac9551" vector-effect="non-scaling-stroke" d="
  M 883.09 330.91
  C 859.22 335.49 838.04 349.43 825.84 370.06
  C 814.72 388.87 812.91 411.28 814.52 433.01
  Q 814.73 435.73 814.26 436.72
  Q 810.97 443.64 810.19 445.94
  C 805.76 459.10 806.82 473.77 814.73 485.51
  C 823.72 498.84 837.66 506.74 852.94 511.07
  C 880.00 518.75 909.28 517.34 938.23 516.68
  Q 954.16 516.32 974.69 510.68
  C 1008.20 501.49 1030.30 472.47 1013.32 438.00
  A 7.84 7.77 -56.3 0 1 1012.54 434.00
  Q 1013.71 417.61 1011.08 401.10
  Q 1007.70 379.93 994.55 363.67
  A 3.48 3.47 74.3 0 0 992.35 362.43
  L 984.69 361.36
  A 0.40 0.40 0.0 0 0 984.25 361.62
  Q 982.76 365.65 979.93 368.06
  C 968.52 377.80 936.83 369.43 923.91 364.82
  C 907.86 359.08 890.20 347.96 883.89 331.35
  A 0.72 0.71 -15.6 0 0 883.09 330.91"
/>
<path stroke="#ac7d4c" vector-effect="non-scaling-stroke" d="
  M 854.19 574.20
  Q 857.07 573.40 859.67 571.68
  Q 865.11 568.08 868.90 565.92
  Q 873.47 563.32 877.53 566.37
  Q 886.22 572.91 890.82 576.18
  A 2.71 2.70 46.2 0 0 893.84 576.25
  Q 899.66 572.54 906.68 567.73
  C 910.77 564.94 914.13 565.62 918.21 568.57
  C 923.20 572.17 925.77 574.18 929.65 576.16
  C 931.22 576.96 932.75 576.11 933.95 575.20
  Q 939.87 570.68 944.32 567.22
  C 950.21 562.64 953.65 564.81 959.44 568.66
  C 962.06 570.39 966.17 573.61 969.78 573.77
  A 1.37 1.36 -85.8 0 0 971.20 572.54
  Q 971.58 568.52 970.94 564.81
  C 968.36 549.89 963.08 536.20 956.02 522.90
  A 1.95 1.94 -17.2 0 0 954.10 521.89
  Q 912.63 526.48 871.05 522.06
  A 1.65 1.64 -73.0 0 0 869.44 522.92
  Q 861.26 538.27 856.04 555.03
  Q 854.13 561.14 853.13 568.41
  Q 852.77 571.03 853.16 573.53
  A 0.82 0.82 0.0 0 0 854.19 574.20"
/>
<path stroke="#ac9551" vector-effect="non-scaling-stroke" d="
  M 965.17 523.78
  A 0.48 0.47 2.1 0 0 964.50 524.40
  C 971.61 538.70 977.35 553.29 978.64 568.46
  A 1.29 1.29 0.0 0 0 979.79 569.63
  C 987.45 570.36 994.59 566.46 993.77 558.00
  Q 993.32 553.47 991.76 550.75
  Q 981.91 533.64 965.17 523.78"
/>
<path stroke="#ac9551" vector-effect="non-scaling-stroke" d="
  M 860.73 524.64
  A 0.47 0.47 0.0 0 0 860.09 524.02
  C 850.65 528.85 841.31 538.69 835.96 546.95
  C 833.14 551.29 830.10 558.47 832.50 563.44
  C 834.50 567.58 839.85 569.75 844.34 569.86
  A 1.35 1.34 -84.9 0 0 845.70 568.71
  C 848.05 552.89 853.90 539.11 860.73 524.64"
/>
<path stroke="#aba394" vector-effect="non-scaling-stroke" d="
  M 968.02 582.10
  Q 961.68 578.94 953.19 573.27
  Q 950.32 571.35 947.82 573.51
  Q 944.47 576.42 937.01 581.69
  C 933.09 584.46 930.12 585.39 926.12 582.90
  Q 919.68 578.89 913.03 574.19
  A 2.36 2.36 0.0 0 0 910.31 574.19
  Q 902.15 579.92 895.92 583.34
  Q 891.88 585.56 888.37 583.31
  Q 881.99 579.21 874.62 573.17
  A 2.42 2.41 49.6 0 0 871.89 572.95
  L 856.60 581.77
  A 0.76 0.76 0.0 0 0 856.39 582.90
  C 865.98 594.99 881.22 599.77 896.29 601.29
  C 920.17 603.69 951.23 603.16 968.23 583.10
  A 0.65 0.65 0.0 0 0 968.02 582.10"
/>
<path stroke="#ac9551" vector-effect="non-scaling-stroke" d="
  M 954.27 602.24
  Q 938.31 608.60 921.51 609.35
  A 0.85 0.85 0.0 0 0 920.72 610.40
  Q 923.82 623.17 935.31 623.51
  C 947.76 623.87 952.97 612.96 954.75 602.63
  A 0.35 0.35 0.0 0 0 954.27 602.24"
/>
<path stroke="#ac9551" vector-effect="non-scaling-stroke" d="
  M 870.03 602.26
  A 0.35 0.34 -84.0 0 0 869.56 602.64
  C 871.31 612.73 876.41 623.37 888.56 623.01
  Q 899.78 622.67 902.80 610.19
  A 0.83 0.83 0.0 0 0 902.03 609.17
  Q 885.62 608.45 870.03 602.26"
/>
<path stroke="#aba394" vector-effect="non-scaling-stroke" d="
  M 595.53 388.95
  A 0.45 0.45 0.0 0 0 594.77 389.01
  C 587.47 402.64 586.28 420.79 587.96 435.91
  A 4.65 4.62 -31.0 0 1 587.18 439.01
  C 579.28 450.63 578.29 468.05 584.01 480.65
  C 590.53 495.02 605.46 504.62 619.98 508.82
  Q 642.15 515.21 666.77 516.47
  Q 695.11 517.91 715.98 516.16
  C 731.43 514.87 747.09 512.46 761.04 506.31
  C 776.39 499.54 789.25 487.37 791.81 470.61
  Q 794.53 452.89 785.27 437.98
  A 2.57 2.55 25.6 0 1 784.90 436.94
  C 784.51 433.89 785.25 430.72 785.27 427.90
  C 785.47 396.39 778.25 368.81 750.69 351.19
  Q 738.05 343.11 724.00 339.41
  Q 690.67 330.63 656.61 336.96
  A 0.62 0.62 0.0 0 0 656.13 337.77
  C 659.89 349.05 654.06 355.77 645.44 361.73
  A 0.98 0.97 63.8 0 0 645.07 362.83
  Q 645.92 365.44 646.22 366.97
  C 647.86 375.34 643.47 384.10 634.64 385.57
  Q 630.02 386.33 624.82 384.31
  A 0.94 0.93 -66.3 0 0 623.65 384.77
  C 620.44 391.25 615.35 397.50 607.29 397.06
  Q 601.78 396.77 597.95 392.63
  C 597.09 391.70 596.37 390.05 595.53 388.95"
/>
<path stroke="#7b8f87" vector-effect="non-scaling-stroke" d="
  M 601.21 382.69
  Q 602.98 386.75 603.70 387.61
  C 607.64 392.36 613.14 389.07 615.54 384.76
  Q 616.61 382.82 618.85 377.63
  A 2.74 2.72 22.6 0 1 622.39 376.18
  C 626.33 377.78 634.55 380.87 637.73 376.52
  C 641.28 371.66 639.63 366.83 636.54 362.35
  A 2.39 2.38 -33.9 0 1 637.20 359.01
  C 642.01 355.86 646.45 353.17 648.90 348.91
  C 652.34 342.94 648.89 336.04 641.50 337.09
  C 635.56 337.93 632.85 341.28 628.62 346.10
  C 626.92 348.03 624.56 347.60 622.51 345.83
  C 618.34 342.24 614.54 339.81 608.86 342.36
  C 602.89 345.05 601.72 350.28 603.60 356.34
  C 604.48 359.16 604.36 361.60 601.22 362.26
  C 595.39 363.49 586.32 364.40 585.49 372.01
  C 584.89 377.39 590.20 381.42 595.27 381.65
  Q 600.45 381.88 600.47 381.89
  A 1.65 1.65 0.0 0 1 601.21 382.69"
/>
<path stroke="#aba394" vector-effect="non-scaling-stroke" d="
  M 637.40 521.80
  C 627.39 526.63 618.96 534.82 612.62 544.08
  C 607.88 551.02 601.84 565.33 613.21 569.85
  Q 619.69 572.42 625.67 568.63
  A 3.86 3.85 -16.5 0 0 627.46 565.34
  Q 627.25 543.02 638.01 522.42
  A 0.46 0.46 0.0 0 0 637.40 521.80"
/>
<path stroke="#7b8f87" vector-effect="non-scaling-stroke" d="
  M 688.00 596.72
  Q 695.18 596.72 703.68 595.56
  C 718.95 593.47 739.96 586.29 741.27 568.10
  C 742.38 552.68 737.64 536.38 730.51 522.64
  A 1.13 1.12 -16.4 0 0 729.39 522.03
  L 715.99 523.37
  A 1.17 1.17 0.0 0 0 714.98 524.26
  C 711.90 537.34 701.27 543.83 688.00 543.83
  C 674.74 543.83 664.11 537.33 661.03 524.25
  A 1.17 1.17 0.0 0 0 660.02 523.36
  L 646.62 522.02
  A 1.13 1.12 16.4 0 0 645.50 522.63
  C 638.37 536.37 633.62 552.67 634.73 568.09
  C 636.04 586.28 657.05 593.46 672.31 595.55
  Q 680.81 596.72 688.00 596.72"
/>
<path stroke="#aba394" vector-effect="non-scaling-stroke" d="
  M 739.21 523.55
  Q 739.81 525.14 742.19 531.29
  Q 748.41 547.36 748.98 564.27
  C 749.19 570.47 757.32 571.16 761.70 569.74
  C 769.61 567.18 769.39 558.40 766.25 552.22
  Q 757.00 534.03 739.56 523.26
  A 0.24 0.24 0.0 0 0 739.21 523.55"
/>
<path stroke="#aba394" vector-effect="non-scaling-stroke" d="
  M 687.76 536.78
  Q 692.14 536.79 696.33 535.36
  Q 704.69 532.49 707.58 524.79
  A 0.74 0.74 0.0 0 0 706.80 523.79
  C 700.77 524.56 697.03 524.24 687.79 524.22
  C 678.56 524.20 674.82 524.50 668.79 523.71
  A 0.74 0.74 0.0 0 0 668.00 524.70
  Q 670.86 532.41 679.20 535.32
  Q 683.39 536.77 687.76 536.78"
/>
<path stroke="#aba394" vector-effect="non-scaling-stroke" d="
  M 731.40 594.33
  C 721.17 600.38 708.65 603.05 696.80 604.12
  A 0.57 0.56 -6.4 0 0 696.29 604.75
  C 697.21 612.37 700.65 621.18 708.85 622.56
  C 725.23 625.31 731.02 607.07 732.06 594.74
  A 0.44 0.44 0.0 0 0 731.40 594.33"
/>
<path stroke="#aba394" vector-effect="non-scaling-stroke" d="
  M 645.93 594.87
  A 0.44 0.43 12.1 0 0 645.28 595.29
  C 646.50 607.56 652.54 625.65 668.83 622.67
  C 676.98 621.17 680.27 612.34 681.08 604.73
  A 0.57 0.56 5.6 0 0 680.56 604.11
  C 668.73 603.22 656.22 600.75 645.93 594.87"
/>
<path stroke="#ac9551" vector-effect="non-scaling-stroke" d="
  M 871.2602 426.2631
  A 10.24 8.57 -88.6 0 0 862.4426 436.2906
  A 10.24 8.57 -88.6 0 0 870.7598 446.7369
  A 10.24 8.57 -88.6 0 0 879.5774 436.7094
  A 10.24 8.57 -88.6 0 0 871.2602 426.2631"
/>
<path stroke="#ac9551" vector-effect="non-scaling-stroke" d="
  M 953.4369 426.6301
  A 10.14 8.55 -90.3 0 0 944.9401 436.8148
  A 10.14 8.55 -90.3 0 0 953.5431 446.9099
  A 10.14 8.55 -90.3 0 0 962.0399 436.7252
  A 10.14 8.55 -90.3 0 0 953.4369 426.6301"
/>
<path stroke="#ffce65" vector-effect="non-scaling-stroke" d="
  M 832.5283 439.4027
  A 26.47 25.93 -105.9 0 0 814.8420 471.9638
  A 26.47 25.93 -105.9 0 0 847.0317 490.3173
  A 26.47 25.93 -105.9 0 0 864.7180 457.7562
  A 26.47 25.93 -105.9 0 0 832.5283 439.4027"
/>
<path stroke="#ffce65" vector-effect="non-scaling-stroke" d="
  M 1006.6198 449.1952
  A 26.95 26.08 -36.3 0 0 969.4603 444.1314
  A 26.95 26.08 -36.3 0 0 963.1802 481.1048
  A 26.95 26.08 -36.3 0 0 1000.3397 486.1686
  A 26.95 26.08 -36.3 0 0 1006.6198 449.1952"
/>
<path stroke="#ac9551" vector-effect="non-scaling-stroke" d="
  M 912.46 464.61
  C 920.52 464.54 927.94 463.02 934.38 458.25
  C 936.21 456.89 936.91 453.08 934.07 452.13
  Q 932.03 451.45 930.90 452.42
  C 925.43 457.16 919.34 458.45 912.42 458.51
  C 905.49 458.56 899.39 457.36 893.84 452.71
  Q 892.70 451.76 890.67 452.47
  C 887.84 453.46 888.60 457.26 890.45 458.59
  C 896.97 463.26 904.40 464.67 912.46 464.61"
/>
<path stroke="#aba394" vector-effect="non-scaling-stroke" d="
  M 729.3695 427.3906
  A 10.55 8.88 -90.6 0 0 720.6005 438.0330
  A 10.55 8.88 -90.6 0 0 729.5905 448.4894
  A 10.55 8.88 -90.6 0 0 738.3595 437.8470
  A 10.55 8.88 -90.6 0 0 729.3695 427.3906"
/>
<path stroke="#aba394" vector-effect="non-scaling-stroke" d="
  M 646.9633 427.5585
  A 10.51 9.01 -86.6 0 0 637.3459 437.5156
  A 10.51 9.01 -86.6 0 0 645.7167 448.5415
  A 10.51 9.01 -86.6 0 0 655.3341 438.5844
  A 10.51 9.01 -86.6 0 0 646.9633 427.5585"
/>
<path stroke="#fee3df" vector-effect="non-scaling-stroke" d="
  M 594.2294 447.9655
  A 26.17 25.68 -137.1 0 0 595.9191 484.5917
  A 26.17 25.68 -137.1 0 0 632.5706 483.5945
  A 26.17 25.68 -137.1 0 0 630.8809 446.9683
  A 26.17 25.68 -137.1 0 0 594.2294 447.9655"
/>
<path stroke="#fee3df" vector-effect="non-scaling-stroke" d="
  M 772.3065 442.2187
  A 26.07 24.81 -64.2 0 0 738.6231 454.8919
  A 26.07 24.81 -64.2 0 0 749.6135 489.1613
  A 26.07 24.81 -64.2 0 0 783.2969 476.4881
  A 26.07 24.81 -64.2 0 0 772.3065 442.2187"
/>
<path stroke="#aba394" vector-effect="non-scaling-stroke" d="
  M 706.98 448.54
  L 669.32 448.48
  A 7.38 7.38 0.0 0 0 661.92 455.84
  L 661.91 461.59
  A 27.65 24.82 -89.9 0 0 686.68 489.29
  L 689.46 489.29
  A 27.65 24.82 -89.9 0 0 714.33 461.69
  L 714.34 455.94
  A 7.38 7.38 0.0 0 0 706.98 448.54"
/>
<path stroke="#a76550" vector-effect="non-scaling-stroke" d="
  M 704.99 454.50
  L 671.35 454.62
  A 2.59 2.59 0.0 0 0 668.77 457.22
  L 668.79 462.05
  A 20.56 17.53 89.8 0 0 686.39 482.55
  L 690.15 482.53
  A 20.56 17.53 89.8 0 0 707.61 461.91
  L 707.59 457.08
  A 2.59 2.59 0.0 0 0 704.99 454.50"
/>
<path stroke="#ceeaf1" vector-effect="non-scaling-stroke" d="
  M 887.7225 667.5950
  A 0.67 0.67 0.0 0 0 887.0537 666.9238
  L 859.7937 666.8762
  A 0.67 0.67 0.0 0 0 859.1226 667.5451
  L 859.0775 693.3850
  A 0.67 0.67 0.0 0 0 859.7463 694.0562
  L 887.0063 694.1038
  A 0.67 0.67 0.0 0 0 887.6774 693.4349
  L 887.7225 667.5950"
/>
<path stroke="#ceeaf1" vector-effect="non-scaling-stroke" d="
  M 752.2667 735.8177
  A 4.36 4.36 0.0 0 0 747.9143 731.4501
  L 701.9544 731.3699
  A 4.36 4.36 0.0 0 0 697.5868 735.7223
  L 697.5733 743.4423
  A 4.36 4.36 0.0 0 0 701.9257 747.8099
  L 747.8856 747.8901
  A 4.36 4.36 0.0 0 0 752.2532 743.5377
  L 752.2667 735.8177"
/>
</g>
<path fill="#9dd6e4" d="
  M 632.91 274.99
  L 966.71 274.99
  A 98.09 98.09 0.0 0 1 1064.80 373.08
  L 1064.80 710.06
  A 98.09 98.09 0.0 0 1 966.71 808.15
  L 632.91 808.15
  A 98.09 98.09 0.0 0 1 534.82 710.06
  L 534.82 373.08
  A 98.09 98.09 0.0 0 1 632.91 274.99
  Z
  M 972.62 518.48
  C 1006.60 509.89 1035.30 482.98 1023.73 445.10
  C 1022.87 442.27 1020.93 438.98 1020.19 436.27
  A 7.73 7.71 38.9 0 1 1019.93 433.87
  C 1021.29 406.42 1017.30 378.54 998.63 357.29
  A 4.63 4.62 -69.3 0 1 997.52 354.83
  C 995.78 340.96 985.20 330.71 973.59 323.66
  Q 954.76 312.23 932.74 309.62
  Q 912.63 307.23 894.13 311.52
  C 890.03 312.47 885.14 314.83 883.48 318.89
  Q 882.93 320.23 882.44 322.37
  A 1.35 1.35 0.0 0 1 881.47 323.38
  Q 875.54 324.94 872.08 325.98
  C 846.87 333.55 824.56 352.12 814.54 376.79
  Q 808.48 391.72 807.34 407.77
  Q 806.59 418.49 807.16 432.52
  A 3.99 3.77 -43.3 0 1 807.12 433.20
  L 806.69 435.77
  A 5.68 5.64 63.2 0 1 806.17 437.37
  Q 799.68 450.76 800.72 466.01
  C 801.90 483.27 811.72 497.63 826.15 506.89
  Q 838.88 515.06 853.47 518.50
  A 0.60 0.60 0.0 0 1 853.68 519.57
  C 841.17 528.41 820.99 547.48 825.40 564.16
  C 827.64 572.62 836.39 576.63 844.64 577.10
  A 1.48 1.46 82.1 0 1 845.96 578.11
  Q 849.98 590.19 860.36 597.26
  A 3.33 3.30 13.3 0 1 861.76 599.50
  C 863.21 609.46 866.14 620.60 874.78 626.49
  Q 883.29 632.29 894.78 629.19
  C 903.11 626.95 908.02 618.78 910.17 610.68
  A 1.58 1.58 0.0 0 1 913.23 610.69
  C 915.13 618.00 917.93 623.62 924.55 627.77
  Q 929.70 631.00 937.31 630.53
  C 953.37 629.54 960.96 614.47 962.22 599.67
  A 3.47 3.47 0.0 0 1 963.72 597.10
  C 970.56 592.44 976.10 585.92 977.90 577.49
  A 1.09 1.09 0.0 0 1 979.13 576.63
  Q 984.85 577.48 990.03 575.28
  C 1003.71 569.48 1003.06 554.80 996.11 544.08
  Q 986.92 529.90 972.40 519.65
  A 0.66 0.66 0.0 0 1 972.62 518.48
  Z
  M 626.97 519.03
  Q 615.38 527.71 607.54 538.73
  C 599.77 549.63 594.68 566.09 607.52 574.93
  C 613.18 578.83 621.61 578.84 627.89 576.12
  A 0.72 0.71 66.1 0 1 628.83 576.49
  Q 631.52 582.60 635.54 586.74
  A 7.50 7.49 -69.7 0 1 637.60 591.22
  C 638.92 605.45 642.66 622.94 657.22 628.73
  Q 665.10 631.86 673.35 628.83
  C 682.99 625.28 687.24 615.25 688.18 605.66
  A 0.31 0.31 0.0 0 1 688.78 605.60
  Q 689.07 606.50 690.18 611.06
  C 692.82 621.88 700.55 630.83 712.31 630.53
  Q 723.62 630.24 730.65 620.60
  C 736.89 612.04 738.80 600.89 740.00 589.74
  A 4.74 4.69 -21.1 0 1 741.21 587.05
  Q 745.22 582.67 747.47 576.53
  A 0.96 0.95 -69.1 0 1 748.71 575.97
  C 756.49 579.03 765.69 578.30 771.41 571.83
  C 777.98 564.40 775.60 553.31 770.73 545.26
  Q 761.44 529.88 747.07 519.42
  A 0.38 0.37 56.1 0 1 747.20 518.75
  C 773.03 512.66 797.64 495.31 799.25 466.53
  Q 800.15 450.54 792.96 436.99
  A 6.58 6.57 -57.4 0 1 792.21 433.56
  C 793.87 404.34 788.28 373.70 765.38 353.34
  C 749.19 338.94 728.44 331.11 706.75 328.30
  C 688.92 325.99 669.02 326.23 651.02 330.50
  A 10.26 10.16 -46.7 0 1 647.02 330.64
  Q 634.49 328.57 626.17 338.28
  A 0.73 0.73 0.0 0 1 625.27 338.45
  Q 624.41 337.98 623.44 337.39
  C 616.00 332.91 607.79 333.41 601.52 338.74
  C 596.50 343.01 594.70 349.11 596.12 355.54
  A 0.76 0.76 0.0 0 1 595.50 356.45
  C 587.03 357.88 578.90 362.73 578.94 372.44
  Q 578.98 381.15 587.04 386.22
  A 0.88 0.87 -62.8 0 1 587.38 387.30
  Q 578.24 408.91 580.18 432.52
  Q 580.50 436.35 579.34 438.34
  Q 573.91 447.68 573.36 460.42
  Q 572.36 483.46 588.50 499.08
  C 599.01 509.26 612.82 514.96 626.90 518.66
  A 0.21 0.21 0.0 0 1 626.97 519.03
  Z
  M 761.97 672.81
  A 0.46 0.46 0.0 0 1 762.42 672.35
  Q 770.90 672.19 780.06 672.37
  Q 783.99 672.44 786.77 670.98
  C 790.43 669.06 790.13 662.01 789.26 658.70
  C 788.46 655.63 786.25 653.92 783.21 653.82
  Q 780.91 653.76 762.42 653.79
  A 0.43 0.42 1.3 0 1 761.99 653.35
  C 762.21 647.66 760.93 642.25 754.49 641.35
  Q 748.94 640.58 746.97 641.27
  Q 740.74 643.44 740.56 650.05
  Q 740.21 662.46 740.44 695.04
  C 740.46 697.74 740.32 701.73 741.48 703.73
  C 743.95 707.98 747.94 707.67 752.74 707.62
  C 758.14 707.56 761.08 705.26 762.06 700.14
  A 0.65 0.65 0.0 0 1 762.72 699.61
  Q 768.36 699.75 778.22 699.60
  C 787.99 699.45 787.99 682.46 778.51 682.52
  Q 771.12 682.57 762.45 682.43
  A 0.49 0.49 0.0 0 1 761.97 681.94
  L 761.97 672.81
  Z
  M 693.27 684.38
  C 690.74 684.38 689.09 681.94 689.05 679.59
  Q 688.89 671.79 688.97 657.51
  C 689.00 653.38 688.31 649.53 684.45 647.99
  Q 679.36 645.97 673.69 647.36
  C 669.62 648.36 667.84 651.02 667.53 654.79
  C 667.05 660.43 667.49 670.93 667.20 683.25
  C 667.03 690.78 668.53 698.13 676.25 701.23
  Q 679.68 702.61 682.63 702.63
  Q 709.33 702.83 726.44 702.63
  Q 731.57 702.56 733.02 697.90
  C 733.96 694.87 734.17 688.51 731.17 686.15
  Q 729.12 684.52 727.48 684.51
  Q 710.91 684.35 693.27 684.38
  Z
  M 908.79 666.96
  Q 913.96 666.84 917.72 666.92
  Q 925.07 667.08 926.08 660.61
  C 927.02 654.56 925.23 648.93 918.00 648.91
  Q 872.49 648.81 827.34 648.91
  Q 823.01 648.92 821.26 649.71
  C 817.26 651.50 816.15 656.67 816.91 660.58
  Q 818.18 667.03 824.99 667.00
  Q 829.53 666.98 836.99 666.95
  A 0.54 0.53 0.0 0 1 837.53 667.48
  L 837.53 693.57
  A 0.53 0.53 0.0 0 1 837.00 694.10
  Q 826.27 694.15 825.01 694.27
  Q 820.01 694.73 819.26 699.24
  C 818.25 705.34 819.37 711.66 826.77 711.80
  Q 840.35 712.06 861.35 711.93
  A 0.74 0.73 -0.0 0 1 862.09 712.66
  L 862.09 734.54
  A 0.66 0.66 0.0 0 1 861.43 735.20
  Q 836.35 735.10 820.76 735.28
  C 816.09 735.33 812.48 735.96 811.11 740.77
  Q 810.32 743.56 811.14 747.84
  C 812.17 753.20 815.98 753.73 820.50 753.71
  Q 821.11 753.70 922.97 753.70
  C 928.02 753.70 931.78 752.99 932.68 747.73
  C 933.79 741.25 932.79 734.81 924.96 734.85
  Q 905.29 734.97 884.00 734.96
  A 0.82 0.82 0.0 0 1 883.18 734.14
  L 883.18 712.36
  A 0.55 0.55 0.0 0 1 883.73 711.81
  Q 907.93 712.00 918.01 711.80
  C 925.97 711.64 927.03 703.10 924.62 697.34
  C 923.62 694.94 922.15 694.16 919.75 693.99
  Q 917.79 693.86 909.07 693.93
  A 0.96 0.96 0.0 0 1 908.10 692.97
  L 908.10 667.67
  A 0.71 0.70 89.6 0 1 908.79 666.96
  Z
  M 771.17 721.92
  C 768.55 714.14 762.79 713.20 754.46 713.23
  Q 725.90 713.32 704.10 713.25
  Q 690.08 713.20 687.15 714.40
  Q 677.74 718.22 678.03 730.75
  Q 678.16 736.48 678.02 743.53
  C 677.85 752.65 678.70 759.50 686.78 763.12
  Q 689.88 764.51 696.81 764.48
  Q 724.69 764.35 754.14 764.47
  Q 760.49 764.49 762.99 763.36
  C 772.40 759.11 771.88 750.19 771.95 741.50
  Q 772.10 724.90 771.45 722.78
  A 6.43 1.89 70.2 0 0 771.17 721.92
  Z"
/>
<path fill="#58482a" d="
  M 972.62 518.48
  A 0.66 0.66 0.0 0 0 972.40 519.65
  Q 986.92 529.90 996.11 544.08
  C 1003.06 554.80 1003.71 569.48 990.03 575.28
  Q 984.85 577.48 979.13 576.63
  A 1.09 1.09 0.0 0 0 977.90 577.49
  C 976.10 585.92 970.56 592.44 963.72 597.10
  A 3.47 3.47 0.0 0 0 962.22 599.67
  C 960.96 614.47 953.37 629.54 937.31 630.53
  Q 929.70 631.00 924.55 627.77
  C 917.93 623.62 915.13 618.00 913.23 610.69
  A 1.58 1.58 0.0 0 0 910.17 610.68
  C 908.02 618.78 903.11 626.95 894.78 629.19
  Q 883.29 632.29 874.78 626.49
  C 866.14 620.60 863.21 609.46 861.76 599.50
  A 3.33 3.30 13.3 0 0 860.36 597.26
  Q 849.98 590.19 845.96 578.11
  A 1.48 1.46 82.1 0 0 844.64 577.10
  C 836.39 576.63 827.64 572.62 825.40 564.16
  C 820.99 547.48 841.17 528.41 853.68 519.57
  A 0.60 0.60 0.0 0 0 853.47 518.50
  Q 838.88 515.06 826.15 506.89
  C 811.72 497.63 801.90 483.27 800.72 466.01
  Q 799.68 450.76 806.17 437.37
  A 5.68 5.64 63.2 0 0 806.69 435.77
  L 807.12 433.20
  A 3.99 3.77 -43.3 0 0 807.16 432.52
  Q 806.59 418.49 807.34 407.77
  Q 808.48 391.72 814.54 376.79
  C 824.56 352.12 846.87 333.55 872.08 325.98
  Q 875.54 324.94 881.47 323.38
  A 1.35 1.35 0.0 0 0 882.44 322.37
  Q 882.93 320.23 883.48 318.89
  C 885.14 314.83 890.03 312.47 894.13 311.52
  Q 912.63 307.23 932.74 309.62
  Q 954.76 312.23 973.59 323.66
  C 985.20 330.71 995.78 340.96 997.52 354.83
  A 4.63 4.62 -69.3 0 0 998.63 357.29
  C 1017.30 378.54 1021.29 406.42 1019.93 433.87
  A 7.73 7.71 38.9 0 0 1020.19 436.27
  C 1020.93 438.98 1022.87 442.27 1023.73 445.10
  C 1035.30 482.98 1006.60 509.89 972.62 518.48
  Z
  M 989.30 354.74
  A 0.87 0.87 0.0 0 0 990.16 353.81
  C 989.63 345.62 980.43 336.84 974.32 332.64
  Q 949.23 315.40 917.97 315.98
  C 913.46 316.07 889.92 317.00 889.84 322.90
  Q 889.75 328.82 893.35 334.49
  C 901.12 346.75 913.78 354.03 927.84 358.94
  Q 945.89 365.25 964.27 365.25
  C 969.16 365.25 974.28 365.19 976.95 360.52
  A 1.71 1.71 0.0 0 0 977.17 359.51
  Q 976.96 357.53 975.32 355.90
  Q 964.56 345.20 950.46 338.29
  Q 946.61 336.40 938.61 333.35
  C 937.05 332.75 935.96 331.91 935.99 330.26
  A 2.16 2.15 -3.8 0 1 937.83 328.17
  Q 940.21 327.81 943.02 328.72
  C 956.97 333.19 969.03 340.77 979.89 350.64
  C 982.69 353.18 985.84 354.78 989.30 354.74
  Z
  M 883.09 330.91
  C 859.22 335.49 838.04 349.43 825.84 370.06
  C 814.72 388.87 812.91 411.28 814.52 433.01
  Q 814.73 435.73 814.26 436.72
  Q 810.97 443.64 810.19 445.94
  C 805.76 459.10 806.82 473.77 814.73 485.51
  C 823.72 498.84 837.66 506.74 852.94 511.07
  C 880.00 518.75 909.28 517.34 938.23 516.68
  Q 954.16 516.32 974.69 510.68
  C 1008.20 501.49 1030.30 472.47 1013.32 438.00
  A 7.84 7.77 -56.3 0 1 1012.54 434.00
  Q 1013.71 417.61 1011.08 401.10
  Q 1007.70 379.93 994.55 363.67
  A 3.48 3.47 74.3 0 0 992.35 362.43
  L 984.69 361.36
  A 0.40 0.40 0.0 0 0 984.25 361.62
  Q 982.76 365.65 979.93 368.06
  C 968.52 377.80 936.83 369.43 923.91 364.82
  C 907.86 359.08 890.20 347.96 883.89 331.35
  A 0.72 0.71 -15.6 0 0 883.09 330.91
  Z
  M 854.19 574.20
  Q 857.07 573.40 859.67 571.68
  Q 865.11 568.08 868.90 565.92
  Q 873.47 563.32 877.53 566.37
  Q 886.22 572.91 890.82 576.18
  A 2.71 2.70 46.2 0 0 893.84 576.25
  Q 899.66 572.54 906.68 567.73
  C 910.77 564.94 914.13 565.62 918.21 568.57
  C 923.20 572.17 925.77 574.18 929.65 576.16
  C 931.22 576.96 932.75 576.11 933.95 575.20
  Q 939.87 570.68 944.32 567.22
  C 950.21 562.64 953.65 564.81 959.44 568.66
  C 962.06 570.39 966.17 573.61 969.78 573.77
  A 1.37 1.36 -85.8 0 0 971.20 572.54
  Q 971.58 568.52 970.94 564.81
  C 968.36 549.89 963.08 536.20 956.02 522.90
  A 1.95 1.94 -17.2 0 0 954.10 521.89
  Q 912.63 526.48 871.05 522.06
  A 1.65 1.64 -73.0 0 0 869.44 522.92
  Q 861.26 538.27 856.04 555.03
  Q 854.13 561.14 853.13 568.41
  Q 852.77 571.03 853.16 573.53
  A 0.82 0.82 0.0 0 0 854.19 574.20
  Z
  M 965.17 523.78
  A 0.48 0.47 2.1 0 0 964.50 524.40
  C 971.61 538.70 977.35 553.29 978.64 568.46
  A 1.29 1.29 0.0 0 0 979.79 569.63
  C 987.45 570.36 994.59 566.46 993.77 558.00
  Q 993.32 553.47 991.76 550.75
  Q 981.91 533.64 965.17 523.78
  Z
  M 860.73 524.64
  A 0.47 0.47 0.0 0 0 860.09 524.02
  C 850.65 528.85 841.31 538.69 835.96 546.95
  C 833.14 551.29 830.10 558.47 832.50 563.44
  C 834.50 567.58 839.85 569.75 844.34 569.86
  A 1.35 1.34 -84.9 0 0 845.70 568.71
  C 848.05 552.89 853.90 539.11 860.73 524.64
  Z
  M 968.02 582.10
  Q 961.68 578.94 953.19 573.27
  Q 950.32 571.35 947.82 573.51
  Q 944.47 576.42 937.01 581.69
  C 933.09 584.46 930.12 585.39 926.12 582.90
  Q 919.68 578.89 913.03 574.19
  A 2.36 2.36 0.0 0 0 910.31 574.19
  Q 902.15 579.92 895.92 583.34
  Q 891.88 585.56 888.37 583.31
  Q 881.99 579.21 874.62 573.17
  A 2.42 2.41 49.6 0 0 871.89 572.95
  L 856.60 581.77
  A 0.76 0.76 0.0 0 0 856.39 582.90
  C 865.98 594.99 881.22 599.77 896.29 601.29
  C 920.17 603.69 951.23 603.16 968.23 583.10
  A 0.65 0.65 0.0 0 0 968.02 582.10
  Z
  M 954.27 602.24
  Q 938.31 608.60 921.51 609.35
  A 0.85 0.85 0.0 0 0 920.72 610.40
  Q 923.82 623.17 935.31 623.51
  C 947.76 623.87 952.97 612.96 954.75 602.63
  A 0.35 0.35 0.0 0 0 954.27 602.24
  Z
  M 870.03 602.26
  A 0.35 0.34 -84.0 0 0 869.56 602.64
  C 871.31 612.73 876.41 623.37 888.56 623.01
  Q 899.78 622.67 902.80 610.19
  A 0.83 0.83 0.0 0 0 902.03 609.17
  Q 885.62 608.45 870.03 602.26
  Z"
/>
<path fill="#a4ca63" d="
  M 989.30 354.74
  C 985.84 354.78 982.69 353.18 979.89 350.64
  C 969.03 340.77 956.97 333.19 943.02 328.72
  Q 940.21 327.81 937.83 328.17
  A 2.16 2.15 -3.8 0 0 935.99 330.26
  C 935.96 331.91 937.05 332.75 938.61 333.35
  Q 946.61 336.40 950.46 338.29
  Q 964.56 345.20 975.32 355.90
  Q 976.96 357.53 977.17 359.51
  A 1.71 1.71 0.0 0 1 976.95 360.52
  C 974.28 365.19 969.16 365.25 964.27 365.25
  Q 945.89 365.25 927.84 358.94
  C 913.78 354.03 901.12 346.75 893.35 334.49
  Q 889.75 328.82 889.84 322.90
  C 889.92 317.00 913.46 316.07 917.97 315.98
  Q 949.23 315.40 974.32 332.64
  C 980.43 336.84 989.63 345.62 990.16 353.81
  A 0.87 0.87 0.0 0 1 989.30 354.74
  Z"
/>
<path fill="#58482a" d="
  M 626.97 519.03
  A 0.21 0.21 0.0 0 0 626.90 518.66
  C 612.82 514.96 599.01 509.26 588.50 499.08
  Q 572.36 483.46 573.36 460.42
  Q 573.91 447.68 579.34 438.34
  Q 580.50 436.35 580.18 432.52
  Q 578.24 408.91 587.38 387.30
  A 0.88 0.87 -62.8 0 0 587.04 386.22
  Q 578.98 381.15 578.94 372.44
  C 578.90 362.73 587.03 357.88 595.50 356.45
  A 0.76 0.76 0.0 0 0 596.12 355.54
  C 594.70 349.11 596.50 343.01 601.52 338.74
  C 607.79 333.41 616.00 332.91 623.44 337.39
  Q 624.41 337.98 625.27 338.45
  A 0.73 0.73 0.0 0 0 626.17 338.28
  Q 634.49 328.57 647.02 330.64
  A 10.26 10.16 -46.7 0 0 651.02 330.50
  C 669.02 326.23 688.92 325.99 706.75 328.30
  C 728.44 331.11 749.19 338.94 765.38 353.34
  C 788.28 373.70 793.87 404.34 792.21 433.56
  A 6.58 6.57 -57.4 0 0 792.96 436.99
  Q 800.15 450.54 799.25 466.53
  C 797.64 495.31 773.03 512.66 747.20 518.75
  A 0.38 0.37 56.1 0 0 747.07 519.42
  Q 761.44 529.88 770.73 545.26
  C 775.60 553.31 777.98 564.40 771.41 571.83
  C 765.69 578.30 756.49 579.03 748.71 575.97
  A 0.96 0.95 -69.1 0 0 747.47 576.53
  Q 745.22 582.67 741.21 587.05
  A 4.74 4.69 -21.1 0 0 740.00 589.74
  C 738.80 600.89 736.89 612.04 730.65 620.60
  Q 723.62 630.24 712.31 630.53
  C 700.55 630.83 692.82 621.88 690.18 611.06
  Q 689.07 606.50 688.78 605.60
  A 0.31 0.31 0.0 0 0 688.18 605.66
  C 687.24 615.25 682.99 625.28 673.35 628.83
  Q 665.10 631.86 657.22 628.73
  C 642.66 622.94 638.92 605.45 637.60 591.22
  A 7.50 7.49 -69.7 0 0 635.54 586.74
  Q 631.52 582.60 628.83 576.49
  A 0.72 0.71 66.1 0 0 627.89 576.12
  C 621.61 578.84 613.18 578.83 607.52 574.93
  C 594.68 566.09 599.77 549.63 607.54 538.73
  Q 615.38 527.71 626.97 519.03
  Z
  M 595.53 388.95
  A 0.45 0.45 0.0 0 0 594.77 389.01
  C 587.47 402.64 586.28 420.79 587.96 435.91
  A 4.65 4.62 -31.0 0 1 587.18 439.01
  C 579.28 450.63 578.29 468.05 584.01 480.65
  C 590.53 495.02 605.46 504.62 619.98 508.82
  Q 642.15 515.21 666.77 516.47
  Q 695.11 517.91 715.98 516.16
  C 731.43 514.87 747.09 512.46 761.04 506.31
  C 776.39 499.54 789.25 487.37 791.81 470.61
  Q 794.53 452.89 785.27 437.98
  A 2.57 2.55 25.6 0 1 784.90 436.94
  C 784.51 433.89 785.25 430.72 785.27 427.90
  C 785.47 396.39 778.25 368.81 750.69 351.19
  Q 738.05 343.11 724.00 339.41
  Q 690.67 330.63 656.61 336.96
  A 0.62 0.62 0.0 0 0 656.13 337.77
  C 659.89 349.05 654.06 355.77 645.44 361.73
  A 0.98 0.97 63.8 0 0 645.07 362.83
  Q 645.92 365.44 646.22 366.97
  C 647.86 375.34 643.47 384.10 634.64 385.57
  Q 630.02 386.33 624.82 384.31
  A 0.94 0.93 -66.3 0 0 623.65 384.77
  C 620.44 391.25 615.35 397.50 607.29 397.06
  Q 601.78 396.77 597.95 392.63
  C 597.09 391.70 596.37 390.05 595.53 388.95
  Z
  M 601.21 382.69
  Q 602.98 386.75 603.70 387.61
  C 607.64 392.36 613.14 389.07 615.54 384.76
  Q 616.61 382.82 618.85 377.63
  A 2.74 2.72 22.6 0 1 622.39 376.18
  C 626.33 377.78 634.55 380.87 637.73 376.52
  C 641.28 371.66 639.63 366.83 636.54 362.35
  A 2.39 2.38 -33.9 0 1 637.20 359.01
  C 642.01 355.86 646.45 353.17 648.90 348.91
  C 652.34 342.94 648.89 336.04 641.50 337.09
  C 635.56 337.93 632.85 341.28 628.62 346.10
  C 626.92 348.03 624.56 347.60 622.51 345.83
  C 618.34 342.24 614.54 339.81 608.86 342.36
  C 602.89 345.05 601.72 350.28 603.60 356.34
  C 604.48 359.16 604.36 361.60 601.22 362.26
  C 595.39 363.49 586.32 364.40 585.49 372.01
  C 584.89 377.39 590.20 381.42 595.27 381.65
  Q 600.45 381.88 600.47 381.89
  A 1.65 1.65 0.0 0 1 601.21 382.69
  Z
  M 637.40 521.80
  C 627.39 526.63 618.96 534.82 612.62 544.08
  C 607.88 551.02 601.84 565.33 613.21 569.85
  Q 619.69 572.42 625.67 568.63
  A 3.86 3.85 -16.5 0 0 627.46 565.34
  Q 627.25 543.02 638.01 522.42
  A 0.46 0.46 0.0 0 0 637.40 521.80
  Z
  M 688.00 596.72
  Q 695.18 596.72 703.68 595.56
  C 718.95 593.47 739.96 586.29 741.27 568.10
  C 742.38 552.68 737.64 536.38 730.51 522.64
  A 1.13 1.12 -16.4 0 0 729.39 522.03
  L 715.99 523.37
  A 1.17 1.17 0.0 0 0 714.98 524.26
  C 711.90 537.34 701.27 543.83 688.00 543.83
  C 674.74 543.83 664.11 537.33 661.03 524.25
  A 1.17 1.17 0.0 0 0 660.02 523.36
  L 646.62 522.02
  A 1.13 1.12 16.4 0 0 645.50 522.63
  C 638.37 536.37 633.62 552.67 634.73 568.09
  C 636.04 586.28 657.05 593.46 672.31 595.55
  Q 680.81 596.72 688.00 596.72
  Z
  M 739.21 523.55
  Q 739.81 525.14 742.19 531.29
  Q 748.41 547.36 748.98 564.27
  C 749.19 570.47 757.32 571.16 761.70 569.74
  C 769.61 567.18 769.39 558.40 766.25 552.22
  Q 757.00 534.03 739.56 523.26
  A 0.24 0.24 0.0 0 0 739.21 523.55
  Z
  M 687.76 536.78
  Q 692.14 536.79 696.33 535.36
  Q 704.69 532.49 707.58 524.79
  A 0.74 0.74 0.0 0 0 706.80 523.79
  C 700.77 524.56 697.03 524.24 687.79 524.22
  C 678.56 524.20 674.82 524.50 668.79 523.71
  A 0.74 0.74 0.0 0 0 668.00 524.70
  Q 670.86 532.41 679.20 535.32
  Q 683.39 536.77 687.76 536.78
  Z
  M 731.40 594.33
  C 721.17 600.38 708.65 603.05 696.80 604.12
  A 0.57 0.56 -6.4 0 0 696.29 604.75
  C 697.21 612.37 700.65 621.18 708.85 622.56
  C 725.23 625.31 731.02 607.07 732.06 594.74
  A 0.44 0.44 0.0 0 0 731.40 594.33
  Z
  M 645.93 594.87
  A 0.44 0.43 12.1 0 0 645.28 595.29
  C 646.50 607.56 652.54 625.65 668.83 622.67
  C 676.98 621.17 680.27 612.34 681.08 604.73
  A 0.57 0.56 5.6 0 0 680.56 604.11
  C 668.73 603.22 656.22 600.75 645.93 594.87
  Z"
/>
<path fill="#ffe177" d="
  M 883.09 330.91
  A 0.72 0.71 -15.6 0 1 883.89 331.35
  C 890.20 347.96 907.86 359.08 923.91 364.82
  C 936.83 369.43 968.52 377.80 979.93 368.06
  Q 982.76 365.65 984.25 361.62
  A 0.40 0.40 0.0 0 1 984.69 361.36
  L 992.35 362.43
  A 3.48 3.47 74.3 0 1 994.55 363.67
  Q 1007.70 379.93 1011.08 401.10
  Q 1013.71 417.61 1012.54 434.00
  A 7.84 7.77 -56.3 0 0 1013.32 438.00
  C 1030.30 472.47 1008.20 501.49 974.69 510.68
  Q 954.16 516.32 938.23 516.68
  C 909.28 517.34 880.00 518.75 852.94 511.07
  C 837.66 506.74 823.72 498.84 814.73 485.51
  C 806.82 473.77 805.76 459.10 810.19 445.94
  Q 810.97 443.64 814.26 436.72
  Q 814.73 435.73 814.52 433.01
  C 812.91 411.28 814.72 388.87 825.84 370.06
  C 838.04 349.43 859.22 335.49 883.09 330.91
  Z
  M 871.2602 426.2631
  A 10.24 8.57 -88.6 0 0 862.4426 436.2906
  A 10.24 8.57 -88.6 0 0 870.7598 446.7369
  A 10.24 8.57 -88.6 0 0 879.5774 436.7094
  A 10.24 8.57 -88.6 0 0 871.2602 426.2631
  Z
  M 953.4369 426.6301
  A 10.14 8.55 -90.3 0 0 944.9401 436.8148
  A 10.14 8.55 -90.3 0 0 953.5431 446.9099
  A 10.14 8.55 -90.3 0 0 962.0399 436.7252
  A 10.14 8.55 -90.3 0 0 953.4369 426.6301
  Z
  M 832.5283 439.4027
  A 26.47 25.93 -105.9 0 0 814.8420 471.9638
  A 26.47 25.93 -105.9 0 0 847.0317 490.3173
  A 26.47 25.93 -105.9 0 0 864.7180 457.7562
  A 26.47 25.93 -105.9 0 0 832.5283 439.4027
  Z
  M 1006.6198 449.1952
  A 26.95 26.08 -36.3 0 0 969.4603 444.1314
  A 26.95 26.08 -36.3 0 0 963.1802 481.1048
  A 26.95 26.08 -36.3 0 0 1000.3397 486.1686
  A 26.95 26.08 -36.3 0 0 1006.6198 449.1952
  Z
  M 912.46 464.61
  C 920.52 464.54 927.94 463.02 934.38 458.25
  C 936.21 456.89 936.91 453.08 934.07 452.13
  Q 932.03 451.45 930.90 452.42
  C 925.43 457.16 919.34 458.45 912.42 458.51
  C 905.49 458.56 899.39 457.36 893.84 452.71
  Q 892.70 451.76 890.67 452.47
  C 887.84 453.46 888.60 457.26 890.45 458.59
  C 896.97 463.26 904.40 464.67 912.46 464.61
  Z"
/>
<path fill="#fefefd" d="
  M 595.53 388.95
  C 596.37 390.05 597.09 391.70 597.95 392.63
  Q 601.78 396.77 607.29 397.06
  C 615.35 397.50 620.44 391.25 623.65 384.77
  A 0.94 0.93 -66.3 0 1 624.82 384.31
  Q 630.02 386.33 634.64 385.57
  C 643.47 384.10 647.86 375.34 646.22 366.97
  Q 645.92 365.44 645.07 362.83
  A 0.98 0.97 63.8 0 1 645.44 361.73
  C 654.06 355.77 659.89 349.05 656.13 337.77
  A 0.62 0.62 0.0 0 1 656.61 336.96
  Q 690.67 330.63 724.00 339.41
  Q 738.05 343.11 750.69 351.19
  C 778.25 368.81 785.47 396.39 785.27 427.90
  C 785.25 430.72 784.51 433.89 784.90 436.94
  A 2.57 2.55 25.6 0 0 785.27 437.98
  Q 794.53 452.89 791.81 470.61
  C 789.25 487.37 776.39 499.54 761.04 506.31
  C 747.09 512.46 731.43 514.87 715.98 516.16
  Q 695.11 517.91 666.77 516.47
  Q 642.15 515.21 619.98 508.82
  C 605.46 504.62 590.53 495.02 584.01 480.65
  C 578.29 468.05 579.28 450.63 587.18 439.01
  A 4.65 4.62 -31.0 0 0 587.96 435.91
  C 586.28 420.79 587.47 402.64 594.77 389.01
  A 0.45 0.45 0.0 0 1 595.53 388.95
  Z
  M 729.3695 427.3906
  A 10.55 8.88 -90.6 0 0 720.6005 438.0330
  A 10.55 8.88 -90.6 0 0 729.5905 448.4894
  A 10.55 8.88 -90.6 0 0 738.3595 437.8470
  A 10.55 8.88 -90.6 0 0 729.3695 427.3906
  Z
  M 646.9633 427.5585
  A 10.51 9.01 -86.6 0 0 637.3459 437.5156
  A 10.51 9.01 -86.6 0 0 645.7167 448.5415
  A 10.51 9.01 -86.6 0 0 655.3341 438.5844
  A 10.51 9.01 -86.6 0 0 646.9633 427.5585
  Z
  M 594.2294 447.9655
  A 26.17 25.68 -137.1 0 0 595.9191 484.5917
  A 26.17 25.68 -137.1 0 0 632.5706 483.5945
  A 26.17 25.68 -137.1 0 0 630.8809 446.9683
  A 26.17 25.68 -137.1 0 0 594.2294 447.9655
  Z
  M 772.3065 442.2187
  A 26.07 24.81 -64.2 0 0 738.6231 454.8919
  A 26.07 24.81 -64.2 0 0 749.6135 489.1613
  A 26.07 24.81 -64.2 0 0 783.2969 476.4881
  A 26.07 24.81 -64.2 0 0 772.3065 442.2187
  Z
  M 706.98 448.54
  L 669.32 448.48
  A 7.38 7.38 0.0 0 0 661.92 455.84
  L 661.91 461.59
  A 27.65 24.82 -89.9 0 0 686.68 489.29
  L 689.46 489.29
  A 27.65 24.82 -89.9 0 0 714.33 461.69
  L 714.34 455.94
  A 7.38 7.38 0.0 0 0 706.98 448.54
  Z"
/>
<path fill="#9dd6e4" d="
  M 600.47 381.89
  Q 600.45 381.88 595.27 381.65
  C 590.20 381.42 584.89 377.39 585.49 372.01
  C 586.32 364.40 595.39 363.49 601.22 362.26
  C 604.36 361.60 604.48 359.16 603.60 356.34
  C 601.72 350.28 602.89 345.05 608.86 342.36
  C 614.54 339.81 618.34 342.24 622.51 345.83
  C 624.56 347.60 626.92 348.03 628.62 346.10
  C 632.85 341.28 635.56 337.93 641.50 337.09
  C 648.89 336.04 652.34 342.94 648.90 348.91
  C 646.45 353.17 642.01 355.86 637.20 359.01
  A 2.39 2.38 -33.9 0 0 636.54 362.35
  C 639.63 366.83 641.28 371.66 637.73 376.52
  C 634.55 380.87 626.33 377.78 622.39 376.18
  A 2.74 2.72 22.6 0 0 618.85 377.63
  Q 616.61 382.82 615.54 384.76
  C 613.14 389.07 607.64 392.36 603.70 387.61
  Q 602.98 386.75 601.21 382.69
  A 1.65 1.65 0.0 0 0 600.47 381.89
  Z"
/>
<ellipse fill="#58482a" cx="0.00" cy="0.00" transform="translate(871.01,436.50) rotate(-88.6)" rx="10.24" ry="8.57"/>
<ellipse fill="#58482a" cx="0.00" cy="0.00" transform="translate(953.49,436.77) rotate(-90.3)" rx="10.14" ry="8.55"/>
<ellipse fill="#58482a" cx="0.00" cy="0.00" transform="translate(729.48,437.94) rotate(-90.6)" rx="10.55" ry="8.88"/>
<ellipse fill="#58482a" cx="0.00" cy="0.00" transform="translate(646.34,438.05) rotate(-86.6)" rx="10.51" ry="9.01"/>
<ellipse fill="#ffba53" cx="0.00" cy="0.00" transform="translate(839.78,464.86) rotate(-105.9)" rx="26.47" ry="25.93"/>
<ellipse fill="#ffba53" cx="0.00" cy="0.00" transform="translate(984.90,465.15) rotate(-36.3)" rx="26.95" ry="26.08"/>
<ellipse fill="#fdc8c1" cx="0.00" cy="0.00" transform="translate(613.40,465.78) rotate(-137.1)" rx="26.17" ry="25.68"/>
<ellipse fill="#fdc8c1" cx="0.00" cy="0.00" transform="translate(760.96,465.69) rotate(-64.2)" rx="26.07" ry="24.81"/>
<path fill="#58482a" d="
  M 706.98 448.54
  A 7.38 7.38 0.0 0 1 714.34 455.94
  L 714.33 461.69
  A 27.65 24.82 -89.9 0 1 689.46 489.29
  L 686.68 489.29
  A 27.65 24.82 -89.9 0 1 661.91 461.59
  L 661.92 455.84
  A 7.38 7.38 0.0 0 1 669.32 448.48
  L 706.98 448.54
  Z
  M 704.99 454.50
  L 671.35 454.62
  A 2.59 2.59 0.0 0 0 668.77 457.22
  L 668.79 462.05
  A 20.56 17.53 89.8 0 0 686.39 482.55
  L 690.15 482.53
  A 20.56 17.53 89.8 0 0 707.61 461.91
  L 707.59 457.08
  A 2.59 2.59 0.0 0 0 704.99 454.50
  Z"
/>
<path fill="#58482a" d="
  M 912.42 458.51
  C 919.34 458.45 925.43 457.16 930.90 452.42
  Q 932.03 451.45 934.07 452.13
  C 936.91 453.08 936.21 456.89 934.38 458.25
  C 927.94 463.02 920.52 464.54 912.46 464.61
  C 904.40 464.67 896.97 463.26 890.45 458.59
  C 888.60 457.26 887.84 453.46 890.67 452.47
  Q 892.70 451.76 893.84 452.71
  C 899.39 457.36 905.49 458.56 912.42 458.51
  Z"
/>
<path fill="#f68276" d="
  M 704.99 454.50
  A 2.59 2.59 0.0 0 1 707.59 457.08
  L 707.61 461.91
  A 20.56 17.53 89.8 0 1 690.15 482.53
  L 686.39 482.55
  A 20.56 17.53 89.8 0 1 668.79 462.05
  L 668.77 457.22
  A 2.59 2.59 0.0 0 1 671.35 454.62
  L 704.99 454.50
  Z"
/>
<path fill="#fefefd" d="
  M 637.40 521.80
  A 0.46 0.46 0.0 0 1 638.01 522.42
  Q 627.25 543.02 627.46 565.34
  A 3.86 3.85 -16.5 0 1 625.67 568.63
  Q 619.69 572.42 613.21 569.85
  C 601.84 565.33 607.88 551.02 612.62 544.08
  C 618.96 534.82 627.39 526.63 637.40 521.80
  Z"
/>
<path fill="#9dd6e4" d="
  M 688.00 543.83
  C 701.27 543.83 711.90 537.34 714.98 524.26
  A 1.17 1.17 0.0 0 1 715.99 523.37
  L 729.39 522.03
  A 1.13 1.12 -16.4 0 1 730.51 522.64
  C 737.64 536.38 742.38 552.68 741.27 568.10
  C 739.96 586.29 718.95 593.47 703.68 595.56
  Q 695.18 596.72 688.00 596.72
  Q 680.81 596.72 672.31 595.55
  C 657.05 593.46 636.04 586.28 634.73 568.09
  C 633.62 552.67 638.37 536.37 645.50 522.63
  A 1.13 1.12 16.4 0 1 646.62 522.02
  L 660.02 523.36
  A 1.17 1.17 0.0 0 1 661.03 524.25
  C 664.11 537.33 674.74 543.83 688.00 543.83
  Z"
/>
<path fill="#ffb26d" d="
  M 854.19 574.20
  A 0.82 0.82 0.0 0 1 853.16 573.53
  Q 852.77 571.03 853.13 568.41
  Q 854.13 561.14 856.04 555.03
  Q 861.26 538.27 869.44 522.92
  A 1.65 1.64 -73.0 0 1 871.05 522.06
  Q 912.63 526.48 954.10 521.89
  A 1.95 1.94 -17.2 0 1 956.02 522.90
  C 963.08 536.20 968.36 549.89 970.94 564.81
  Q 971.58 568.52 971.20 572.54
  A 1.37 1.36 -85.8 0 1 969.78 573.77
  C 966.17 573.61 962.06 570.39 959.44 568.66
  C 953.65 564.81 950.21 562.64 944.32 567.22
  Q 939.87 570.68 933.95 575.20
  C 932.75 576.11 931.22 576.96 929.65 576.16
  C 925.77 574.18 923.20 572.17 918.21 568.57
  C 914.13 565.62 910.77 564.94 906.68 567.73
  Q 899.66 572.54 893.84 576.25
  A 2.71 2.70 46.2 0 1 890.82 576.18
  Q 886.22 572.91 877.53 566.37
  Q 873.47 563.32 868.90 565.92
  Q 865.11 568.08 859.67 571.68
  Q 857.07 573.40 854.19 574.20
  Z"
/>
<path fill="#fefefd" d="
  M 739.56 523.26
  Q 757.00 534.03 766.25 552.22
  C 769.39 558.40 769.61 567.18 761.70 569.74
  C 757.32 571.16 749.19 570.47 748.98 564.27
  Q 748.41 547.36 742.19 531.29
  Q 739.81 525.14 739.21 523.55
  A 0.24 0.24 0.0 0 1 739.56 523.26
  Z"
/>
<path fill="#fefefd" d="
  M 687.79 524.22
  C 697.03 524.24 700.77 524.56 706.80 523.79
  A 0.74 0.74 0.0 0 1 707.58 524.79
  Q 704.69 532.49 696.33 535.36
  Q 692.14 536.79 687.76 536.78
  Q 683.39 536.77 679.20 535.32
  Q 670.86 532.41 668.00 524.70
  A 0.74 0.74 0.0 0 1 668.79 523.71
  C 674.82 524.50 678.56 524.20 687.79 524.22
  Z"
/>
<path fill="#ffe177" d="
  M 965.17 523.78
  Q 981.91 533.64 991.76 550.75
  Q 993.32 553.47 993.77 558.00
  C 994.59 566.46 987.45 570.36 979.79 569.63
  A 1.29 1.29 0.0 0 1 978.64 568.46
  C 977.35 553.29 971.61 538.70 964.50 524.40
  A 0.48 0.47 2.1 0 1 965.17 523.78
  Z"
/>
<path fill="#ffe177" d="
  M 860.73 524.64
  C 853.90 539.11 848.05 552.89 845.70 568.71
  A 1.35 1.34 -84.9 0 1 844.34 569.86
  C 839.85 569.75 834.50 567.58 832.50 563.44
  C 830.10 558.47 833.14 551.29 835.96 546.95
  C 841.31 538.69 850.65 528.85 860.09 524.02
  A 0.47 0.47 0.0 0 1 860.73 524.64
  Z"
/>
<path fill="#fefefd" d="
  M 968.02 582.10
  A 0.65 0.65 0.0 0 1 968.23 583.10
  C 951.23 603.16 920.17 603.69 896.29 601.29
  C 881.22 599.77 865.98 594.99 856.39 582.90
  A 0.76 0.76 0.0 0 1 856.60 581.77
  L 871.89 572.95
  A 2.42 2.41 49.6 0 1 874.62 573.17
  Q 881.99 579.21 888.37 583.31
  Q 891.88 585.56 895.92 583.34
  Q 902.15 579.92 910.31 574.19
  A 2.36 2.36 0.0 0 1 913.03 574.19
  Q 919.68 578.89 926.12 582.90
  C 930.12 585.39 933.09 584.46 937.01 581.69
  Q 944.47 576.42 947.82 573.51
  Q 950.32 571.35 953.19 573.27
  Q 961.68 578.94 968.02 582.10
  Z"
/>
<path fill="#fefefd" d="
  M 732.06 594.74
  C 731.02 607.07 725.23 625.31 708.85 622.56
  C 700.65 621.18 697.21 612.37 696.29 604.75
  A 0.57 0.56 -6.4 0 1 696.80 604.12
  C 708.65 603.05 721.17 600.38 731.40 594.33
  A 0.44 0.44 0.0 0 1 732.06 594.74
  Z"
/>
<path fill="#fefefd" d="
  M 645.93 594.87
  C 656.22 600.75 668.73 603.22 680.56 604.11
  A 0.57 0.56 5.6 0 1 681.08 604.73
  C 680.27 612.34 676.98 621.17 668.83 622.67
  C 652.54 625.65 646.50 607.56 645.28 595.29
  A 0.44 0.43 12.1 0 1 645.93 594.87
  Z"
/>
<path fill="#ffe177" d="
  M 954.27 602.24
  A 0.35 0.35 0.0 0 1 954.75 602.63
  C 952.97 612.96 947.76 623.87 935.31 623.51
  Q 923.82 623.17 920.72 610.40
  A 0.85 0.85 0.0 0 1 921.51 609.35
  Q 938.31 608.60 954.27 602.24
  Z"
/>
<path fill="#ffe177" d="
  M 870.03 602.26
  Q 885.62 608.45 902.03 609.17
  A 0.83 0.83 0.0 0 1 902.80 610.19
  Q 899.78 622.67 888.56 623.01
  C 876.41 623.37 871.31 612.73 869.56 602.64
  A 0.35 0.34 -84.0 0 1 870.03 602.26
  Z"
/>
<path fill="#fefefd" d="
  M 762.45 682.43
  Q 771.12 682.57 778.51 682.52
  C 787.99 682.46 787.99 699.45 778.22 699.60
  Q 768.36 699.75 762.72 699.61
  A 0.65 0.65 0.0 0 0 762.06 700.14
  C 761.08 705.26 758.14 707.56 752.74 707.62
  C 747.94 707.67 743.95 707.98 741.48 703.73
  C 740.32 701.73 740.46 697.74 740.44 695.04
  Q 740.21 662.46 740.56 650.05
  Q 740.74 643.44 746.97 641.27
  Q 748.94 640.58 754.49 641.35
  C 760.93 642.25 762.21 647.66 761.99 653.35
  A 0.43 0.42 1.3 0 0 762.42 653.79
  Q 780.91 653.76 783.21 653.82
  C 786.25 653.92 788.46 655.63 789.26 658.70
  C 790.13 662.01 790.43 669.06 786.77 670.98
  Q 783.99 672.44 780.06 672.37
  Q 770.90 672.19 762.42 672.35
  A 0.46 0.46 0.0 0 0 761.97 672.81
  L 761.97 681.94
  A 0.49 0.49 0.0 0 0 762.45 682.43
  Z"
/>
<path fill="#fefefd" d="
  M 689.05 679.59
  C 689.09 681.94 690.74 684.38 693.27 684.38
  Q 710.91 684.35 727.48 684.51
  Q 729.12 684.52 731.17 686.15
  C 734.17 688.51 733.96 694.87 733.02 697.90
  Q 731.57 702.56 726.44 702.63
  Q 709.33 702.83 682.63 702.63
  Q 679.68 702.61 676.25 701.23
  C 668.53 698.13 667.03 690.78 667.20 683.25
  C 667.49 670.93 667.05 660.43 667.53 654.79
  C 667.84 651.02 669.62 648.36 673.69 647.36
  Q 679.36 645.97 684.45 647.99
  C 688.31 649.53 689.00 653.38 688.97 657.51
  Q 688.89 671.79 689.05 679.59
  Z"
/>
<path fill="#fefefd" d="
  M 908.10 667.67
  L 908.10 692.97
  A 0.96 0.96 0.0 0 0 909.07 693.93
  Q 917.79 693.86 919.75 693.99
  C 922.15 694.16 923.62 694.94 924.62 697.34
  C 927.03 703.10 925.97 711.64 918.01 711.80
  Q 907.93 712.00 883.73 711.81
  A 0.55 0.55 0.0 0 0 883.18 712.36
  L 883.18 734.14
  A 0.82 0.82 0.0 0 0 884.00 734.96
  Q 905.29 734.97 924.96 734.85
  C 932.79 734.81 933.79 741.25 932.68 747.73
  C 931.78 752.99 928.02 753.70 922.97 753.70
  Q 821.11 753.70 820.50 753.71
  C 815.98 753.73 812.17 753.20 811.14 747.84
  Q 810.32 743.56 811.11 740.77
  C 812.48 735.96 816.09 735.33 820.76 735.28
  Q 836.35 735.10 861.43 735.20
  A 0.66 0.66 0.0 0 0 862.09 734.54
  L 862.09 712.66
  A 0.74 0.73 0.0 0 0 861.35 711.93
  Q 840.35 712.06 826.77 711.80
  C 819.37 711.66 818.25 705.34 819.26 699.24
  Q 820.01 694.73 825.01 694.27
  Q 826.27 694.15 837.00 694.10
  A 0.53 0.53 0.0 0 0 837.53 693.57
  L 837.53 667.48
  A 0.54 0.53 -0.0 0 0 836.99 666.95
  Q 829.53 666.98 824.99 667.00
  Q 818.18 667.03 816.91 660.58
  C 816.15 656.67 817.26 651.50 821.26 649.71
  Q 823.01 648.92 827.34 648.91
  Q 872.49 648.81 918.00 648.91
  C 925.23 648.93 927.02 654.56 926.08 660.61
  Q 925.07 667.08 917.72 666.92
  Q 913.96 666.84 908.79 666.96
  A 0.71 0.70 89.6 0 0 908.10 667.67
  Z
  M 887.7225 667.5950
  A 0.67 0.67 0.0 0 0 887.0537 666.9238
  L 859.7937 666.8762
  A 0.67 0.67 0.0 0 0 859.1226 667.5451
  L 859.0775 693.3850
  A 0.67 0.67 0.0 0 0 859.7463 694.0562
  L 887.0063 694.1038
  A 0.67 0.67 0.0 0 0 887.6774 693.4349
  L 887.7225 667.5950
  Z"
/>
<rect fill="#9dd6e4" x="-14.30" y="-13.59" transform="translate(873.40,680.49) rotate(0.1)" width="28.60" height="27.18" rx="0.67"/>
<path fill="#fefefd" d="
  M 771.45 722.78
  Q 772.10 724.90 771.95 741.50
  C 771.88 750.19 772.40 759.11 762.99 763.36
  Q 760.49 764.49 754.14 764.47
  Q 724.69 764.35 696.81 764.48
  Q 689.88 764.51 686.78 763.12
  C 678.70 759.50 677.85 752.65 678.02 743.53
  Q 678.16 736.48 678.03 730.75
  Q 677.74 718.22 687.15 714.40
  Q 690.08 713.20 704.10 713.25
  Q 725.90 713.32 754.46 713.23
  C 762.79 713.20 768.55 714.14 771.17 721.92
  A 6.43 1.89 70.2 0 1 771.45 722.78
  Z
  M 752.2667 735.8177
  A 4.36 4.36 0.0 0 0 747.9143 731.4501
  L 701.9544 731.3699
  A 4.36 4.36 0.0 0 0 697.5868 735.7223
  L 697.5733 743.4423
  A 4.36 4.36 0.0 0 0 701.9257 747.8099
  L 747.8856 747.8901
  A 4.36 4.36 0.0 0 0 752.2532 743.5377
  L 752.2667 735.8177
  Z"
/>
<rect fill="#9dd6e4" x="-27.34" y="-8.22" transform="translate(724.92,739.63) rotate(0.1)" width="54.68" height="16.44" rx="4.36"/>
</svg>
