<?xml version="1.0" encoding="UTF-8" standalone="no"?>
<!DOCTYPE svg PUBLIC "-//W3C//DTD SVG 1.1//EN" "http://www.w3.org/Graphics/SVG/1.1/DTD/svg11.dtd">
<svg xmlns="http://www.w3.org/2000/svg" version="1.1" viewBox="0.00 0.00 1024.00 1536.00">
<g stroke-width="2.00" fill="none" stroke-linecap="butt">
<path stroke="#b6ebf7" vector-effect="non-scaling-stroke" d="
  M 1024.00 465.08
  Q 1009.19 456.05 992.40 451.84
  C 988.07 450.75 983.45 450.90 979.31 450.07
  A 11.62 11.38 48.9 0 0 976.53 449.85
  Q 963.05 450.41 957.31 451.40
  Q 938.64 454.64 923.43 467.42
  C 920.64 469.77 918.56 471.23 916.81 473.16
  C 909.01 481.80 902.28 492.36 899.26 503.74
  Q 898.15 507.89 896.97 513.02
  A 0.90 0.90 0.0 0 1 895.89 513.70
  C 886.71 511.61 880.75 509.99 874.07 510.15
  Q 871.37 510.22 860.78 511.22
  Q 859.11 511.38 850.04 514.17
  C 842.02 516.65 833.52 522.27 828.26 527.01
  Q 808.03 545.22 802.56 572.08
  Q 799.93 584.95 801.59 597.84
  A 0.37 0.37 0.0 0 1 800.99 598.18
  C 797.43 595.22 792.57 595.59 788.08 594.84
  Q 783.35 594.06 781.35 593.92
  Q 762.01 592.58 743.05 598.80
  Q 727.63 603.86 715.83 612.88
  C 695.19 628.65 681.00 651.79 677.39 677.71
  Q 676.38 684.98 675.45 691.23
  Q 674.93 694.71 675.58 698.35
  A 0.69 0.69 0.0 0 1 674.77 699.14
  C 672.05 698.61 669.75 697.99 667.03 697.91
  Q 657.28 697.61 653.94 697.43
  A 13.82 13.22 40.8 0 0 651.05 697.58
  C 645.53 698.48 636.62 699.48 630.00 701.72
  Q 622.23 704.33 616.92 707.17
  Q 612.32 709.61 600.74 718.04
  C 597.63 720.30 595.09 723.27 592.43 725.69
  Q 589.14 728.68 586.62 731.86
  Q 570.66 751.93 565.44 776.91
  C 564.92 779.38 565.03 781.91 564.51 784.79
  C 564.25 786.25 564.39 787.91 564.61 789.54
  A 2.07 2.07 0.0 0 1 562.30 791.86
  Q 557.98 791.30 552.93 790.02
  C 544.94 788.00 536.21 787.57 528.56 788.22
  Q 524.39 788.57 523.36 788.62
  Q 519.30 788.79 518.16 789.03
  Q 505.65 791.56 502.71 792.76
  C 496.78 795.17 491.33 797.07 486.14 800.13
  Q 470.30 809.46 458.24 824.39
  C 455.49 827.79 453.53 831.57 451.34 835.05
  C 449.23 838.41 448.08 841.41 446.69 845.03
  A 0.53 0.53 0.0 0 1 445.89 845.27
  Q 438.08 839.73 428.52 837.50
  Q 405.30 832.10 382.52 839.22
  C 377.62 840.75 372.43 843.38 367.21 845.65
  A 6.52 6.39 12.5 0 0 365.62 846.64
  Q 362.59 849.24 359.49 851.53
  Q 357.26 853.17 355.65 850.84
  C 353.54 847.80 351.02 842.53 348.14 838.98
  Q 342.60 832.15 335.83 826.41
  Q 331.30 822.58 324.10 819.41
  C 309.21 812.85 291.63 811.17 276.74 817.92
  A 0.88 0.87 83.0 0 1 275.52 816.96
  C 276.16 813.42 277.14 810.52 277.09 806.96
  Q 276.98 798.01 276.00 793.00
  Q 272.69 776.04 262.31 761.96
  Q 254.73 751.67 240.36 744.46
  C 238.02 743.29 235.25 742.82 232.94 741.80
  Q 230.18 740.58 227.30 740.16
  Q 217.99 738.81 208.54 739.37
  A 0.83 0.83 0.0 0 1 207.68 738.34
  C 213.59 714.28 211.69 686.15 197.71 665.28
  C 189.96 653.70 177.12 643.57 163.15 639.11
  Q 155.51 636.67 152.71 636.08
  C 146.94 634.88 140.81 635.10 136.10 634.72
  Q 133.15 634.48 131.41 634.66
  C 127.31 635.06 125.40 634.82 121.42 636.03
  Q 119.24 636.70 115.75 636.94
  A 1.50 1.44 -58.6 0 0 115.25 637.07
  L 112.11 638.45
  A 0.75 0.74 78.1 0 1 111.06 637.76
  Q 111.17 623.00 107.72 608.51
  C 105.81 600.48 102.96 593.23 98.73 586.24
  C 95.08 580.20 92.56 576.17 87.79 570.98
  Q 82.93 565.68 72.30 558.24
  C 68.43 555.52 64.38 554.11 59.90 551.95
  Q 55.54 549.84 50.17 548.22
  Q 25.21 540.69 0.00 546.27"
/>
<path stroke="#b6ebf7" vector-effect="non-scaling-stroke" d="
  M 1024.00 498.82
  L 1024.00 509.38"
/>
<path stroke="#b6ebf7" vector-effect="non-scaling-stroke" d="
  M 1024.00 532.55
  L 1024.00 539.62"
/>
<path stroke="#b6ebf7" vector-effect="non-scaling-stroke" d="
  M 1024.00 638.40
  L 1024.00 649.11"
/>
<path stroke="#d2f2f5" vector-effect="non-scaling-stroke" d="
  M 1024.00 656.78
  C 1003.46 656.64 984.22 661.16 967.40 671.92
  Q 949.84 683.15 937.30 700.81
  C 932.40 707.70 929.56 714.94 925.07 723.80
  A 1.16 1.15 25.7 0 1 923.56 724.32
  Q 908.56 717.48 893.15 715.51
  C 881.36 714.00 872.47 715.06 861.55 718.79
  Q 844.22 724.72 831.42 736.64
  C 814.39 752.49 800.43 775.08 799.04 798.53
  A 1.91 1.91 0.0 0 1 796.56 800.24
  Q 788.74 797.78 780.60 796.18
  Q 750.80 790.31 722.51 802.55
  Q 711.26 807.42 703.08 814.63
  C 692.09 824.32 682.92 833.82 676.53 846.77
  Q 670.04 859.91 669.52 874.53
  A 0.60 0.59 -81.8 0 1 668.78 875.09
  C 662.91 873.57 658.28 872.11 652.45 871.78
  C 618.96 869.91 593.89 888.68 577.94 916.70
  C 572.22 926.75 568.66 938.43 567.17 949.78
  A 0.78 0.78 0.0 0 1 566.06 950.38
  C 540.34 937.97 512.06 934.66 483.46 936.26
  C 463.99 937.34 444.85 941.68 427.12 948.15
  Q 397.76 958.87 373.73 979.38
  A 1.10 1.10 0.0 0 1 372.12 979.17
  C 364.80 968.69 353.61 959.04 341.43 955.05
  C 325.34 949.77 310.96 951.95 296.49 959.47
  A 0.90 0.90 0.0 0 1 295.24 959.00
  C 290.75 947.59 283.14 936.44 275.21 928.61
  C 260.42 913.99 240.90 912.04 220.91 915.36
  A 1.54 1.54 0.0 0 1 219.13 913.96
  C 216.73 882.58 196.26 856.89 165.06 850.14
  C 154.39 847.84 144.85 849.36 134.15 852.10
  A 0.91 0.91 0.0 0 1 133.02 851.19
  C 133.86 828.76 129.04 808.66 115.35 790.62
  C 97.96 767.71 73.04 754.01 43.97 753.20
  C 29.38 752.79 12.99 757.84 0.00 764.89"
/>
<path stroke="#b6ebf7" vector-effect="non-scaling-stroke" d="
  M 729.36 615.19
  Q 717.48 621.80 708.61 632.45
  C 705.40 636.30 703.33 640.78 700.71 644.67
  A 0.42 0.42 0.0 0 0 701.17 645.31
  Q 701.87 645.11 702.40 644.41
  Q 704.72 641.38 707.24 638.75
  C 714.20 631.50 722.63 624.51 731.72 619.45
  C 740.82 614.39 751.21 610.91 761.04 608.82
  Q 764.60 608.07 768.40 607.70
  Q 769.27 607.62 769.81 607.13
  A 0.42 0.42 0.0 0 0 769.51 606.40
  C 764.82 606.58 759.93 605.97 754.96 606.66
  Q 741.23 608.59 729.36 615.19"
/>
<path stroke="#ddeba6" vector-effect="non-scaling-stroke" d="
  M 1024.00 1108.63
  Q 994.15 1098.99 981.56 1096.17
  Q 972.64 1094.17 965.16 1092.14
  Q 957.35 1090.02 928.03 1084.26
  Q 922.57 1083.19 918.50 1082.73
  C 909.89 1081.74 903.73 1080.46 894.60 1079.79
  Q 891.06 1079.53 883.46 1078.60
  Q 878.68 1078.01 876.01 1077.97
  C 869.59 1077.85 863.44 1076.99 857.42 1076.79
  Q 830.33 1075.89 802.73 1077.19
  Q 801.32 1077.25 796.93 1077.69
  C 792.69 1078.10 788.93 1077.84 784.45 1078.51
  Q 783.40 1078.67 777.76 1079.03
  Q 757.69 1080.32 729.90 1084.08
  Q 721.78 1085.17 712.71 1086.79
  C 699.80 1089.09 689.84 1090.35 678.52 1092.73
  C 666.25 1095.31 660.85 1096.63 652.05 1098.21
  Q 648.25 1098.89 642.53 1100.14
  Q 604.40 1108.45 559.01 1120.07
  Q 541.88 1124.46 530.52 1127.27
  Q 525.63 1128.49 522.02 1127.59"
/>
<path stroke="#e8f1b8" vector-effect="non-scaling-stroke" d="
  M 522.02 1127.59
  Q 494.29 1122.19 466.86 1115.45
  Q 457.71 1113.20 450.19 1112.03
  Q 439.82 1110.42 433.38 1109.16
  Q 428.23 1108.14 423.07 1107.80
  Q 416.96 1107.39 412.68 1106.76
  C 407.44 1106.00 402.03 1106.37 396.89 1105.71
  Q 391.28 1105.00 385.07 1104.92
  Q 361.99 1104.63 337.00 1104.77
  Q 326.77 1104.83 319.24 1103.75
  C 309.36 1102.35 295.30 1101.24 283.74 1098.78
  C 270.53 1095.98 262.47 1094.63 251.94 1091.53
  Q 228.15 1084.53 221.48 1081.76
  Q 201.87 1073.63 200.63 1073.22
  Q 196.75 1071.94 188.45 1067.95
  Q 186.96 1067.23 176.21 1062.81
  Q 153.76 1053.56 132.90 1048.63
  Q 132.76 1048.59 118.31 1046.14
  Q 110.22 1044.77 103.61 1044.88
  Q 96.51 1044.99 92.03 1044.93
  C 86.76 1044.85 82.28 1045.70 76.92 1045.77
  Q 71.65 1045.84 65.63 1046.76
  Q 46.38 1049.71 28.12 1054.64
  Q 14.90 1058.22 1.37 1062.65
  A 1.42 1.42 0.0 0 0 0.65 1063.19
  Q 0.22 1063.82 0.00 1064.76"
/>
<path stroke="#e7e86a" vector-effect="non-scaling-stroke" d="
  M 522.02 1127.59
  Q 521.84 1128.29 522.13 1128.72
  A 0.56 0.53 -24.7 0 1 521.80 1129.55
  Q 508.55 1133.21 499.59 1135.83
  C 496.63 1136.70 494.30 1136.82 491.70 1137.83
  Q 489.52 1138.68 485.86 1139.58
  Q 471.14 1143.19 460.81 1146.24
  Q 458.59 1146.89 456.44 1147.55
  Q 438.14 1153.08 420.43 1158.17
  Q 411.61 1160.71 368.85 1175.05
  C 362.50 1177.18 354.93 1179.36 349.16 1181.43
  Q 338.77 1185.17 327.56 1189.14
  C 322.36 1190.99 314.81 1192.49 310.41 1194.14
  Q 299.75 1198.15 289.69 1200.67
  C 282.74 1202.41 276.43 1204.62 270.66 1206.12
  Q 227.64 1217.32 213.88 1221.05
  C 209.31 1222.29 204.31 1223.24 199.44 1224.64
  C 192.94 1226.51 183.15 1228.38 176.18 1230.30
  C 166.71 1232.90 159.74 1234.19 149.34 1236.61
  Q 128.69 1241.41 119.27 1243.10
  C 113.17 1244.20 107.42 1246.22 101.19 1247.02
  Q 98.16 1247.41 95.37 1248.19
  C 92.18 1249.08 88.65 1249.30 84.87 1250.08
  Q 55.59 1256.06 28.00 1260.57
  C 24.85 1261.09 22.15 1262.07 19.00 1262.33
  Q 17.07 1262.49 12.24 1263.65
  Q 6.16 1265.10 0.00 1266.09"
/>
<path stroke="#cfde4f" vector-effect="non-scaling-stroke" d="
  M 1024.00 1195.28
  Q 1011.70 1193.73 999.40 1192.41
  C 984.83 1190.85 970.35 1188.58 954.98 1187.02
  Q 918.82 1183.34 914.59 1182.94
  C 909.65 1182.47 902.79 1183.06 897.13 1181.63
  A 0.62 0.61 26.9 0 1 896.80 1180.64
  Q 900.00 1176.79 900.12 1171.94
  A 1.60 1.60 0.0 0 0 899.80 1170.95
  Q 898.91 1169.75 896.73 1169.97
  A 1.54 1.49 20.2 0 0 895.85 1170.36
  C 892.70 1173.17 890.06 1177.59 886.16 1180.71
  A 1.66 1.66 0.0 0 1 885.14 1181.06
  L 878.64 1181.06
  A 0.54 0.54 0.0 0 1 878.15 1180.28
  L 882.19 1172.22
  A 1.62 1.61 -43.0 0 0 882.24 1170.88
  Q 881.38 1168.70 879.77 1167.59
  A 1.54 1.53 52.8 0 0 878.42 1167.40
  Q 870.51 1170.10 869.75 1178.62
  A 1.14 1.14 0.0 0 1 868.83 1179.63
  L 862.50 1180.85
  A 1.05 1.05 0.0 0 1 861.26 1179.75
  Q 861.94 1169.30 860.91 1162.42
  Q 860.31 1158.47 856.18 1158.91
  Q 853.16 1159.23 853.00 1161.54
  Q 852.41 1170.32 850.51 1177.06
  Q 849.67 1180.03 846.68 1180.53
  A 0.97 0.97 0.0 0 1 845.57 1179.77
  C 844.52 1174.75 842.71 1163.44 836.02 1163.43
  A 1.10 1.09 1.7 0 0 834.92 1164.46
  L 834.02 1179.13
  A 0.83 0.83 0.0 0 1 833.41 1179.89
  C 831.25 1180.50 829.93 1180.94 829.08 1178.49
  C 828.08 1175.60 827.81 1168.70 825.10 1165.13
  A 1.40 1.38 78.5 0 0 824.31 1164.60
  Q 821.86 1163.98 819.21 1165.15
  A 1.77 1.76 -16.9 0 0 818.18 1167.06
  C 818.82 1170.86 819.74 1175.27 818.49 1178.77
  A 1.42 1.40 -4.8 0 1 817.83 1179.54
  C 815.19 1181.00 813.60 1177.40 812.39 1175.37
  C 810.13 1171.60 806.38 1169.40 801.95 1169.39
  A 1.05 1.05 0.0 0 0 800.90 1170.45
  Q 800.93 1175.07 803.21 1178.88
  A 0.64 0.64 0.0 0 1 802.65 1179.85
  Q 785.50 1179.66 760.50 1179.98
  C 751.67 1180.09 744.48 1180.80 735.15 1180.79
  Q 721.32 1180.77 711.33 1181.39
  Q 692.41 1182.56 684.64 1182.68
  C 678.72 1182.78 674.27 1183.81 668.38 1183.97
  Q 664.22 1184.09 656.17 1184.76
  Q 634.44 1186.59 612.54 1188.67
  Q 608.87 1189.02 605.44 1189.40
  Q 587.64 1191.39 569.67 1192.85
  C 564.14 1193.30 559.60 1194.44 553.22 1195.14
  Q 527.74 1197.95 520.55 1199.33
  Q 503.89 1202.54 497.01 1203.68
  Q 489.79 1204.88 484.18 1206.33
  C 477.36 1208.10 468.86 1209.07 461.23 1211.23
  C 453.38 1213.46 445.92 1214.55 436.05 1216.84
  C 430.83 1218.05 420.49 1220.17 412.70 1222.27
  C 403.07 1224.86 395.14 1226.27 385.90 1228.88
  Q 369.88 1233.41 360.16 1235.76
  C 342.49 1240.02 334.35 1242.50 314.15 1248.01
  C 302.97 1251.06 293.60 1253.11 283.91 1256.13
  Q 278.02 1257.97 271.59 1259.05
  C 268.46 1259.58 265.02 1260.84 262.42 1261.41
  Q 236.92 1267.05 227.64 1269.22
  C 220.01 1271.00 212.31 1271.76 205.78 1273.59
  Q 198.33 1275.67 189.49 1277.28
  Q 186.87 1277.76 162.66 1282.30
  C 156.89 1283.39 151.53 1283.86 146.30 1285.14
  Q 141.90 1286.21 134.08 1287.37
  Q 122.46 1289.09 111.75 1291.17
  C 106.28 1292.24 101.20 1292.29 96.06 1293.37
  C 82.82 1296.16 68.44 1296.58 57.68 1299.01
  C 49.79 1300.78 42.82 1300.65 34.31 1302.37
  C 23.24 1304.62 11.43 1305.98 0.00 1307.70"
/>
<path stroke="#c0e5a8" vector-effect="non-scaling-stroke" d="
  M 0.00 1266.76
  Q 0.33 1266.16 0.00 1266.11"
/>
<path stroke="#b0cd42" vector-effect="non-scaling-stroke" d="
  M 1024.00 1356.26
  L 1001.30 1357.33
  A 0.14 0.09 31.7 0 1 1001.23 1357.33
  L 997.63 1357.04
  A 0.40 0.40 0.0 0 1 997.48 1356.28
  Q 998.80 1355.61 998.70 1353.91
  A 0.39 0.39 0.0 0 0 998.12 1353.60
  Q 996.14 1354.73 995.56 1356.24
  A 1.80 1.76 -9.4 0 1 995.02 1356.98
  Q 994.37 1357.51 991.26 1357.76
  Q 987.52 1358.05 983.92 1357.75
  A 0.64 0.64 0.0 0 1 983.54 1356.64
  Q 987.01 1353.36 985.21 1348.31
  A 1.05 1.05 0.0 0 0 984.44 1347.64
  C 980.02 1346.69 976.85 1354.39 976.68 1357.16
  A 1.54 1.53 1.6 0 1 975.14 1358.61
  L 970.44 1358.61
  A 1.04 1.04 0.0 0 1 969.47 1357.18
  Q 971.74 1351.49 971.33 1345.30
  A 1.29 1.29 0.0 0 0 969.92 1344.10
  Q 968.03 1344.28 966.07 1345.67
  A 2.04 2.03 81.7 0 0 965.33 1346.67
  L 961.82 1357.22
  A 2.69 2.68 -4.2 0 1 960.47 1358.78
  L 957.53 1360.26
  A 0.97 0.97 0.0 0 1 956.15 1359.19
  L 959.56 1343.24
  A 1.06 1.06 0.0 0 0 958.41 1341.96
  C 953.50 1342.49 952.31 1344.12 949.60 1348.10
  Q 948.81 1349.25 948.53 1352.65
  Q 948.18 1356.96 946.32 1360.09
  A 0.92 0.90 -72.1 0 1 945.48 1360.53
  Q 941.58 1360.24 941.97 1356.28
  Q 942.01 1355.86 942.15 1346.66
  Q 942.17 1345.37 940.44 1343.81
  A 0.75 0.74 -38.9 0 0 939.57 1343.72
  Q 936.54 1345.47 935.03 1348.71
  A 2.35 2.25 57.0 0 0 934.81 1349.86
  Q 935.08 1354.68 933.15 1360.58
  A 0.69 0.68 -78.2 0 1 932.44 1361.05
  L 927.88 1360.59
  A 0.69 0.68 88.4 0 1 927.27 1360.01
  L 926.90 1357.71
  A 3.31 3.19 28.0 0 0 926.60 1356.79
  L 922.99 1349.27
  A 0.98 0.95 4.1 0 0 922.63 1348.87
  Q 920.60 1347.56 918.90 1347.61
  A 1.93 1.92 -0.9 0 0 917.03 1349.53
  L 917.03 1361.50
  A 1.10 1.09 86.8 0 1 916.06 1362.59
  Q 914.37 1362.76 912.47 1362.37
  C 909.87 1361.83 908.70 1358.57 906.16 1357.04
  Q 903.08 1355.20 899.07 1357.08
  A 1.46 1.45 -26.0 0 0 898.39 1359.05
  L 901.00 1364.23
  A 0.39 0.39 0.0 0 1 900.63 1364.79
  Q 896.24 1364.57 890.08 1365.71
  C 882.11 1367.18 874.06 1368.05 866.06 1368.97"
/>
<path stroke="#bad545" vector-effect="non-scaling-stroke" d="
  M 866.06 1368.97
  Q 860.09 1366.93 852.11 1366.34
  Q 819.58 1363.94 778.26 1356.36
  Q 770.74 1354.98 744.01 1349.63
  Q 733.12 1347.45 726.67 1346.48
  Q 716.62 1344.96 709.36 1343.15
  Q 702.78 1341.51 691.38 1339.50
  Q 684.86 1338.35 673.47 1335.59
  A 0.22 0.22 0.0 0 1 673.32 1335.29
  L 676.14 1328.44
  A 1.04 1.04 0.0 0 0 674.84 1327.07
  C 670.09 1328.68 666.59 1332.18 662.40 1334.47
  A 1.63 1.62 -50.2 0 1 661.11 1334.59
  L 657.79 1333.48
  A 0.80 0.80 0.0 0 1 657.33 1332.36
  L 661.62 1323.77
  A 1.88 1.88 0.0 0 0 659.67 1321.07
  Q 656.09 1321.58 653.82 1324.10
  C 650.32 1327.99 648.35 1331.34 642.26 1329.08
  A 0.71 0.70 22.6 0 1 641.86 1328.13
  C 644.13 1323.07 645.76 1319.10 646.30 1314.49
  A 0.84 0.83 -0.5 0 0 645.36 1313.57
  C 637.59 1314.64 635.71 1320.50 632.06 1326.51
  A 1.30 1.26 7.9 0 1 631.27 1327.09
  Q 628.03 1327.89 626.89 1325.76
  A 2.06 2.04 40.6 0 1 626.76 1324.15
  L 631.53 1309.81
  A 0.62 0.57 -42.3 0 0 631.56 1309.49
  Q 631.21 1307.28 630.11 1306.50
  A 0.86 0.86 0.0 0 0 629.10 1306.51
  Q 626.98 1308.09 625.44 1310.46
  Q 621.44 1316.61 618.25 1323.50
  A 0.74 0.73 -64.3 0 1 617.26 1323.85
  L 613.42 1321.93
  A 0.60 0.60 0.0 0 1 613.09 1321.32
  L 615.24 1299.95
  A 1.10 1.09 -81.7 0 0 614.36 1298.76
  Q 613.33 1298.57 612.00 1299.04
  A 2.21 2.13 -79.3 0 0 611.07 1299.70
  C 605.77 1306.12 607.17 1313.58 606.03 1320.06
  A 0.47 0.46 -79.3 0 1 605.48 1320.44
  L 599.52 1319.16
  A 0.61 0.61 0.0 0 1 599.04 1318.60
  Q 598.59 1312.40 597.21 1309.08
  Q 596.65 1307.76 593.54 1304.02
  A 0.98 0.98 0.0 0 0 592.75 1303.67
  Q 590.80 1303.77 590.03 1304.17
  A 1.02 1.01 -12.4 0 0 589.48 1305.02
  Q 589.27 1310.59 590.62 1316.97
  A 0.38 0.37 1.0 0 1 590.16 1317.41
  C 582.39 1315.41 571.23 1313.69 562.76 1311.15
  Q 556.57 1309.29 550.01 1307.89
  C 541.65 1306.12 531.11 1302.94 523.37 1301.15
  Q 488.31 1293.06 484.05 1292.29
  C 471.84 1290.09 460.42 1287.41 445.76 1284.44
  Q 438.50 1282.98 429.67 1282.14
  Q 423.75 1281.57 413.58 1279.71
  C 407.23 1278.55 401.05 1279.42 394.93 1277.64
  A 0.73 0.72 21.2 0 1 394.48 1276.62
  L 401.12 1263.35
  A 1.16 1.16 0.0 0 0 400.36 1261.71
  Q 398.12 1261.14 396.77 1261.60
  A 2.12 2.12 0.0 0 0 395.80 1262.26
  C 392.37 1266.33 390.81 1268.99 387.53 1274.87
  C 386.88 1276.04 385.58 1277.59 384.73 1278.45
  A 1.04 1.03 -41.4 0 1 383.17 1278.36
  L 380.85 1275.35
  A 1.49 1.49 0.0 0 1 380.62 1273.99
  Q 383.14 1266.45 382.45 1258.90
  A 0.91 0.90 -87.9 0 0 381.71 1258.10
  Q 380.50 1257.88 379.20 1258.28
  A 1.47 1.47 0.0 0 0 378.39 1258.90
  C 374.69 1264.74 373.33 1269.62 370.76 1277.38
  A 0.73 0.72 49.3 0 1 369.36 1277.27
  C 367.97 1269.52 368.34 1261.21 364.52 1253.93
  A 0.95 0.95 0.0 0 0 362.79 1254.04
  Q 361.58 1257.39 361.58 1260.51
  Q 361.56 1267.86 360.75 1275.18
  C 360.56 1276.90 359.73 1277.80 358.28 1278.47
  A 0.91 0.90 68.4 0 1 357.04 1277.93
  C 354.98 1271.72 352.49 1263.83 347.96 1257.34
  A 1.30 1.27 75.6 0 0 347.07 1256.80
  Q 345.44 1256.59 344.01 1256.95
  A 0.84 0.84 0.0 0 0 343.40 1257.92
  L 346.98 1276.65
  A 1.52 1.52 0.0 0 1 344.25 1277.82
  Q 343.21 1276.35 340.81 1272.66
  C 339.11 1270.05 333.79 1267.60 331.15 1264.04
  A 0.50 0.50 0.0 0 0 330.26 1264.27
  Q 329.08 1272.10 334.59 1278.22
  A 0.39 0.38 66.4 0 1 334.34 1278.86
  Q 311.17 1280.91 283.82 1284.72
  C 277.24 1285.64 270.91 1288.21 263.93 1289.69
  Q 246.48 1293.38 240.04 1295.30
  Q 203.97 1306.04 197.53 1308.05
  Q 187.58 1311.15 159.52 1321.43
  Q 123.31 1334.71 92.35 1346.54
  Q 71.71 1354.42 26.30 1370.26
  Q 10.49 1375.77 0.00 1377.74"
/>
<path stroke="#bad545" vector-effect="non-scaling-stroke" d="
  M 907.29 1211.85
  C 904.52 1218.16 905.37 1228.56 911.59 1232.71
  A 0.74 0.73 -68.2 0 0 912.72 1232.22
  Q 914.58 1221.50 910.21 1211.83
  A 1.60 1.60 0.0 0 0 907.29 1211.85"
/>
<path stroke="#bad545" vector-effect="non-scaling-stroke" d="
  M 537.50 1233.15
  A 1.18 1.18 0.0 0 0 536.23 1232.52
  L 532.77 1233.19
  A 1.17 1.16 89.7 0 0 531.84 1234.14
  Q 530.19 1243.84 531.60 1254.07
  A 1.58 1.53 19.0 0 0 532.06 1254.98
  Q 533.37 1256.23 535.16 1254.97
  A 1.12 1.10 82.7 0 0 535.59 1254.40
  L 540.25 1240.40
  A 2.74 2.71 -49.4 0 0 540.10 1238.31
  L 537.50 1233.15"
/>
<path stroke="#bad545" vector-effect="non-scaling-stroke" d="
  M 516.97 1235.32
  Q 515.74 1242.44 516.08 1244.60
  Q 517.39 1252.99 517.37 1254.30
  A 0.57 0.57 0.0 0 0 517.91 1254.88
  L 520.61 1255.05
  A 0.98 0.98 0.0 0 0 521.55 1254.51
  L 524.13 1249.35
  A 5.83 5.81 55.7 0 0 524.72 1246.22
  Q 524.43 1242.92 523.70 1236.69
  C 523.51 1235.03 522.53 1233.46 520.69 1233.68
  Q 518.45 1233.95 517.59 1234.44
  A 1.25 1.24 80.4 0 0 516.97 1235.32"
/>
<path stroke="#bad545" vector-effect="non-scaling-stroke" d="
  M 702.35 1236.70
  A 1.54 1.53 -16.7 0 0 699.88 1235.37
  L 698.12 1236.72
  A 5.73 5.71 72.7 0 0 695.90 1240.97
  Q 695.51 1249.00 696.54 1257.88
  A 0.78 0.78 0.0 0 0 697.97 1258.22
  Q 699.25 1256.31 699.79 1254.07
  Q 701.58 1246.61 702.35 1236.70"
/>
<path stroke="#bad545" vector-effect="non-scaling-stroke" d="
  M 505.28 1255.23
  A 0.76 0.76 0.0 0 0 506.49 1254.80
  Q 508.51 1246.23 504.77 1238.39
  A 2.17 2.15 88.7 0 0 503.68 1237.34
  Q 502.10 1236.65 499.65 1236.61
  A 0.93 0.93 0.0 0 0 498.71 1237.38
  Q 496.76 1248.61 505.28 1255.23"
/>
<path stroke="#bad545" vector-effect="non-scaling-stroke" d="
  M 685.13 1239.41
  C 683.34 1236.74 680.60 1237.81 678.71 1239.17
  A 1.72 1.71 -13.0 0 0 678.02 1240.27
  C 676.92 1246.48 676.69 1250.52 679.39 1255.91
  A 1.62 1.60 80.4 0 0 680.59 1256.78
  Q 682.60 1257.08 684.26 1256.54
  A 1.40 1.39 87.1 0 0 685.18 1255.51
  Q 686.81 1247.78 685.41 1240.11
  A 1.93 1.88 -67.5 0 0 685.13 1239.41"
/>
<path stroke="#bad545" vector-effect="non-scaling-stroke" d="
  M 552.5100 1240.3068
  A 8.99 2.18 -70.1 0 0 547.4002 1248.0180
  A 8.99 2.18 -70.1 0 0 546.3900 1257.2132
  A 8.99 2.18 -70.1 0 0 551.4998 1249.5020
  A 8.99 2.18 -70.1 0 0 552.5100 1240.3068"
/>
<path stroke="#bad545" vector-effect="non-scaling-stroke" d="
  M 715.53 1241.63
  C 711.11 1245.28 710.17 1249.47 709.22 1254.91
  A 1.31 1.31 0.0 0 0 710.34 1256.44
  Q 712.61 1256.74 714.10 1256.26
  A 1.91 1.86 -81.5 0 0 715.10 1255.50
  L 720.36 1247.68
  A 2.26 2.25 43.3 0 0 720.27 1245.05
  L 717.84 1241.89
  A 1.61 1.61 0.0 0 0 715.53 1241.63"
/>
<path stroke="#bad545" vector-effect="non-scaling-stroke" d="
  M 854.85 1275.15
  C 849.80 1280.02 848.65 1288.28 848.21 1295.09
  A 2.57 2.48 36.0 0 0 848.42 1296.27
  Q 849.20 1298.04 851.44 1298.47
  A 1.63 1.62 -56.7 0 0 852.64 1298.22
  C 857.26 1295.12 859.36 1289.96 860.72 1284.79
  Q 862.28 1278.84 856.96 1275.00
  A 1.66 1.65 40.8 0 0 854.85 1275.15"
/>
<path stroke="#bad545" vector-effect="non-scaling-stroke" d="
  M 838.89 1275.62
  A 0.95 0.95 0.0 0 0 837.26 1275.24
  C 833.55 1279.42 832.98 1284.23 832.34 1289.58
  Q 831.79 1294.16 831.81 1295.28
  A 1.28 1.26 -74.4 0 0 832.37 1296.30
  L 835.16 1298.17
  A 1.07 1.07 0.0 0 0 836.78 1297.60
  C 838.92 1290.69 840.81 1282.66 838.89 1275.62"
/>
<path stroke="#bad545" vector-effect="non-scaling-stroke" d="
  M 819.59 1297.04
  Q 822.58 1287.95 819.88 1278.86
  A 1.55 1.55 0.0 0 0 819.12 1277.92
  Q 817.60 1277.12 815.45 1277.21
  A 0.80 0.79 0.4 0 0 814.70 1277.94
  Q 813.81 1288.83 817.76 1297.16
  A 0.99 0.99 0.0 0 0 819.59 1297.04"
/>
<path stroke="#bad545" vector-effect="non-scaling-stroke" d="
  M 914.00 1359.13
  A 0.35 0.35 0.0 0 0 914.66 1358.96
  Q 914.25 1351.82 915.81 1346.83
  A 2.80 2.80 0.0 0 0 914.70 1343.66
  L 914.21 1343.33
  A 1.42 1.42 0.0 0 0 912.04 1344.18
  Q 910.29 1351.59 914.00 1359.13"
/>
<path stroke="#a7c941" vector-effect="non-scaling-stroke" d="
  M 866.06 1368.97
  Q 861.62 1370.62 859.30 1371.08
  Q 831.41 1376.60 812.03 1382.37
  Q 791.42 1388.51 780.79 1391.77
  C 771.59 1394.59 764.27 1397.38 754.16 1400.44
  Q 742.40 1404.00 726.07 1409.83
  C 722.83 1410.99 718.71 1411.87 716.37 1412.86
  Q 710.85 1415.21 700.62 1418.53
  C 690.10 1421.94 679.23 1426.70 668.63 1429.81
  A 0.69 0.69 0.0 0 1 668.01 1428.60
  L 670.79 1426.45
  A 0.85 0.85 0.0 0 0 671.11 1425.61
  L 670.12 1420.39
  A 0.80 0.80 0.0 0 0 669.24 1419.75
  Q 665.75 1420.12 663.37 1422.17
  C 661.10 1424.13 660.27 1428.20 659.03 1430.03
  C 657.04 1432.96 653.67 1434.06 650.48 1435.10
  A 0.37 0.37 0.0 0 1 649.99 1434.73
  C 650.21 1427.46 651.37 1421.68 647.23 1417.52
  A 1.35 1.35 0.0 0 0 645.46 1417.39
  C 639.91 1421.58 640.62 1430.18 641.57 1436.37
  A 1.49 1.49 0.0 0 1 640.61 1438.00
  L 634.83 1440.09
  A 0.92 0.92 0.0 0 1 633.60 1439.30
  C 632.94 1431.64 631.94 1425.54 626.00 1420.21
  A 0.87 0.86 -37.0 0 0 625.05 1420.08
  Q 621.59 1421.77 622.17 1425.17
  Q 624.75 1440.11 624.71 1443.08
  A 1.08 1.06 -27.7 0 1 624.51 1443.70
  Q 623.51 1445.07 621.99 1444.55
  A 1.31 1.28 -8.3 0 1 621.40 1444.12
  L 611.04 1430.67
  A 2.90 2.90 0.0 0 0 608.19 1429.59
  L 605.12 1430.18
  A 1.00 1.00 0.0 0 0 604.41 1431.61
  L 612.46 1447.62
  A 0.51 0.51 0.0 0 1 611.97 1448.36
  Q 608.76 1448.15 606.73 1447.50
  C 603.86 1446.59 601.68 1444.41 599.09 1442.71
  Q 596.82 1441.21 591.85 1439.64
  Q 590.49 1439.22 589.09 1440.97
  A 0.81 0.80 47.9 0 0 589.05 1441.91
  C 591.99 1446.35 594.90 1448.27 599.45 1451.20
  A 0.47 0.47 0.0 0 1 599.27 1452.06
  C 590.23 1453.59 578.72 1458.82 568.06 1461.93
  Q 540.34 1470.01 518.59 1477.32
  C 512.67 1479.31 507.84 1480.30 502.49 1481.84
  Q 498.24 1483.07 490.31 1484.71
  Q 470.45 1488.80 461.68 1490.15
  C 440.77 1493.35 414.71 1495.57 389.21 1496.40
  Q 377.81 1496.78 359.51 1495.51
  Q 347.07 1494.65 324.16 1493.38
  A 1.00 1.00 0.0 0 1 323.48 1491.71
  Q 326.76 1488.13 328.78 1483.98
  Q 330.26 1480.93 326.90 1479.81
  A 1.27 1.24 41.1 0 0 325.97 1479.86
  Q 322.19 1481.64 321.12 1482.89
  C 316.53 1488.27 315.20 1490.21 310.99 1493.03
  Q 309.81 1493.82 308.43 1493.10
  A 1.64 1.63 26.8 0 1 307.71 1490.94
  Q 310.97 1484.13 312.27 1477.23
  A 1.23 1.22 -78.6 0 0 311.33 1475.80
  L 308.60 1475.22
  A 1.58 1.57 21.7 0 0 306.93 1475.93
  Q 303.86 1480.94 301.37 1485.15
  Q 298.65 1489.76 293.52 1491.27
  A 0.74 0.73 -5.7 0 1 292.57 1490.50
  Q 292.80 1487.87 293.46 1485.40
  Q 295.45 1477.98 296.10 1470.78
  Q 296.22 1469.46 294.70 1468.07
  A 0.76 0.76 0.0 0 0 293.81 1467.98
  Q 289.72 1470.36 288.37 1474.17
  Q 287.76 1475.88 284.01 1487.80
  A 0.83 0.82 10.0 0 1 283.18 1488.37
  Q 282.28 1488.32 281.20 1487.57
  A 0.83 0.81 -44.6 0 0 280.27 1487.57
  Q 279.38 1488.17 278.96 1487.60
  A 1.00 0.98 -67.5 0 1 278.76 1487.10
  Q 277.95 1480.12 277.66 1470.92
  Q 277.58 1468.11 275.63 1463.30
  A 0.91 0.90 76.8 0 0 274.72 1462.73
  C 272.36 1462.90 270.72 1463.00 270.70 1466.16
  Q 270.61 1477.73 271.07 1485.43
  A 0.59 0.58 -8.2 0 1 270.61 1486.03
  C 267.61 1486.73 265.30 1486.10 264.35 1482.63
  Q 262.94 1477.51 258.20 1471.48
  A 1.01 1.01 0.0 0 0 257.21 1471.11
  L 253.45 1471.83
  A 1.22 1.22 0.0 0 0 252.48 1473.26
  L 254.64 1484.55
  A 0.15 0.15 0.0 0 1 254.44 1484.72
  C 252.25 1484.03 250.05 1483.45 247.84 1483.13
  Q 223.47 1479.62 201.36 1474.99
  Q 184.43 1471.45 177.67 1470.10
  C 162.37 1467.05 146.24 1463.24 131.44 1461.27
  A 0.67 0.66 19.5 0 1 130.96 1460.27
  Q 134.19 1454.89 133.82 1448.85
  A 0.71 0.71 0.0 0 0 133.08 1448.19
  C 128.70 1448.42 125.94 1449.91 123.46 1453.60
  Q 120.76 1457.62 120.73 1457.68
  A 1.90 1.90 0.0 0 1 118.50 1458.58
  L 112.93 1456.86
  A 1.51 1.51 0.0 0 1 112.03 1454.73
  C 115.34 1448.21 117.31 1445.26 118.08 1440.08
  A 1.23 1.23 0.0 0 0 117.08 1438.69
  C 115.46 1438.40 113.22 1438.29 111.85 1440.12
  C 108.98 1443.94 107.10 1447.89 104.24 1453.79
  A 2.39 2.38 -70.9 0 1 101.59 1455.08
  L 97.60 1454.23
  A 1.58 1.58 0.0 0 1 96.45 1452.15
  C 99.05 1444.98 100.82 1441.10 100.66 1434.61
  A 0.73 0.73 0.0 0 0 100.08 1433.91
  Q 97.82 1433.44 96.20 1434.08
  A 1.78 1.73 5.1 0 0 95.34 1434.78
  Q 93.24 1438.12 89.75 1445.54
  Q 87.69 1449.93 83.76 1452.27
  A 0.62 0.62 0.0 0 1 82.82 1451.68
  C 83.60 1443.05 83.78 1436.47 81.05 1428.12
  A 1.59 1.58 87.1 0 0 79.87 1427.05
  L 77.99 1426.65
  A 1.14 1.14 0.0 0 0 76.69 1427.35
  C 74.65 1432.54 75.04 1438.95 73.83 1444.91
  Q 73.49 1446.59 72.60 1451.41
  A 0.61 0.61 0.0 0 1 71.55 1451.72
  C 67.27 1447.15 66.68 1442.37 65.33 1436.61
  C 64.20 1431.77 62.16 1428.37 58.15 1425.49
  A 0.86 0.86 0.0 0 0 56.79 1426.15
  C 56.68 1429.31 56.66 1433.24 57.03 1436.78
  Q 57.89 1444.79 57.90 1447.05
  A 0.45 0.45 0.0 0 1 57.35 1447.50
  L 51.18 1446.18
  A 0.79 0.79 0.0 0 1 50.63 1445.75
  C 48.42 1441.12 45.35 1435.45 40.13 1432.88
  A 1.78 1.77 11.3 0 0 37.58 1434.58
  C 37.86 1439.36 41.02 1443.36 43.87 1447.12
  A 0.35 0.34 -14.9 0 1 43.55 1447.67
  Q 30.72 1446.05 16.99 1443.29
  C 11.45 1442.18 5.71 1441.96 0.00 1441.65"
/>
<path stroke="#a7c941" vector-effect="non-scaling-stroke" d="
  M 178.08 1399.06
  C 181.93 1392.14 183.36 1383.73 184.47 1376.02
  A 0.98 0.94 -61.1 0 0 184.28 1375.31
  L 182.85 1373.45
  A 1.42 1.41 55.7 0 0 181.00 1373.10
  C 175.94 1376.16 175.23 1380.31 174.69 1386.16
  Q 174.08 1392.79 176.13 1398.88
  A 1.07 1.07 0.0 0 0 178.08 1399.06"
/>
<path stroke="#a7c941" vector-effect="non-scaling-stroke" d="
  M 163.87 1375.71
  C 160.87 1382.24 162.06 1391.68 163.34 1398.67
  A 0.73 0.73 0.0 0 0 164.65 1398.98
  C 169.66 1392.30 168.39 1383.32 166.45 1375.93
  A 1.38 1.37 -40.1 0 0 163.87 1375.71"
/>
<path stroke="#a7c941" vector-effect="non-scaling-stroke" d="
  M 191.93 1396.08
  A 1.01 1.01 0.0 0 0 193.53 1396.67
  Q 200.76 1391.14 203.14 1382.82
  A 2.08 2.06 -56.0 0 0 202.79 1381.00
  L 200.33 1377.80
  A 1.20 1.20 0.0 0 0 198.39 1377.85
  C 194.81 1383.07 190.42 1389.13 191.93 1396.08"
/>
<path stroke="#a7c941" vector-effect="non-scaling-stroke" d="
  M 139.92 1378.69
  C 138.26 1384.84 142.43 1393.84 146.87 1397.91
  C 148.29 1399.20 149.61 1399.04 150.83 1398.03
  A 1.14 1.13 -22.4 0 0 151.24 1397.06
  C 150.66 1390.80 149.17 1383.77 145.27 1378.73
  A 1.93 1.93 0.0 0 0 143.93 1377.99
  L 141.32 1377.73
  A 1.31 1.30 -79.4 0 0 139.92 1378.69"
/>
<path stroke="#a7c941" vector-effect="non-scaling-stroke" d="
  M 392.28 1413.99
  A 1.05 1.04 12.3 0 0 390.95 1414.84
  Q 389.86 1422.25 392.38 1429.62
  Q 394.03 1434.44 398.81 1436.40
  A 0.66 0.66 0.0 0 0 399.71 1435.89
  Q 400.51 1430.61 400.27 1424.22
  Q 399.97 1416.29 392.28 1413.99"
/>
<path stroke="#a7c941" vector-effect="non-scaling-stroke" d="
  M 385.28 1437.47
  Q 384.45 1427.87 379.52 1417.49
  Q 378.19 1414.67 374.76 1415.48
  A 0.76 0.75 -2.0 0 0 374.21 1416.06
  C 373.11 1421.84 374.91 1428.07 377.63 1432.96
  Q 379.65 1436.60 383.81 1438.50
  A 1.04 1.04 0.0 0 0 385.28 1437.47"
/>
<path stroke="#a7c941" vector-effect="non-scaling-stroke" d="
  M 410.57 1418.68
  C 406.90 1423.60 405.90 1430.28 406.21 1436.57
  A 1.11 1.11 0.0 0 0 408.00 1437.39
  Q 413.03 1433.45 416.02 1427.97
  A 3.17 3.15 -44.2 0 0 416.07 1425.01
  L 413.00 1418.90
  A 1.43 1.43 0.0 0 0 410.57 1418.68"
/>
<path stroke="#a7c941" vector-effect="non-scaling-stroke" d="
  M 367.31 1440.77
  C 369.80 1433.36 367.13 1427.20 363.88 1420.52
  A 2.01 2.01 0.0 0 0 360.35 1420.35
  C 356.12 1427.32 361.08 1435.64 365.92 1441.06
  A 0.82 0.82 0.0 0 0 367.31 1440.77"
/>
<path stroke="#a1d49b" vector-effect="non-scaling-stroke" d="
  M 1019.12 1536.00
  Q 1018.29 1535.65 1018.25 1536.00"
/>
<path stroke="#a1d49b" vector-effect="non-scaling-stroke" d="
  M 0.50 1536.00
  L 0.00 1535.37"
/>
</g>
<path fill="#a4e7f8" d="
  M 1024.00 0.00
  L 1024.00 465.08
  Q 1009.19 456.05 992.40 451.84
  C 988.07 450.75 983.45 450.90 979.31 450.07
  A 11.62 11.38 48.9 0 0 976.53 449.85
  Q 963.05 450.41 957.31 451.40
  Q 938.64 454.64 923.43 467.42
  C 920.64 469.77 918.56 471.23 916.81 473.16
  C 909.01 481.80 902.28 492.36 899.26 503.74
  Q 898.15 507.89 896.97 513.02
  A 0.90 0.90 0.0 0 1 895.89 513.70
  C 886.71 511.61 880.75 509.99 874.07 510.15
  Q 871.37 510.22 860.78 511.22
  Q 859.11 511.38 850.04 514.17
  C 842.02 516.65 833.52 522.27 828.26 527.01
  Q 808.03 545.22 802.56 572.08
  Q 799.93 584.95 801.59 597.84
  A 0.37 0.37 0.0 0 1 800.99 598.18
  C 797.43 595.22 792.57 595.59 788.08 594.84
  Q 783.35 594.06 781.35 593.92
  Q 762.01 592.58 743.05 598.80
  Q 727.63 603.86 715.83 612.88
  C 695.19 628.65 681.00 651.79 677.39 677.71
  Q 676.38 684.98 675.45 691.23
  Q 674.93 694.71 675.58 698.35
  A 0.69 0.69 0.0 0 1 674.77 699.14
  C 672.05 698.61 669.75 697.99 667.03 697.91
  Q 657.28 697.61 653.94 697.43
  A 13.82 13.22 40.8 0 0 651.05 697.58
  C 645.53 698.48 636.62 699.48 630.00 701.72
  Q 622.23 704.33 616.92 707.17
  Q 612.32 709.61 600.74 718.04
  C 597.63 720.30 595.09 723.27 592.43 725.69
  Q 589.14 728.68 586.62 731.86
  Q 570.66 751.93 565.44 776.91
  C 564.92 779.38 565.03 781.91 564.51 784.79
  C 564.25 786.25 564.39 787.91 564.61 789.54
  A 2.07 2.07 0.0 0 1 562.30 791.86
  Q 557.98 791.30 552.93 790.02
  C 544.94 788.00 536.21 787.57 528.56 788.22
  Q 524.39 788.57 523.36 788.62
  Q 519.30 788.79 518.16 789.03
  Q 505.65 791.56 502.71 792.76
  C 496.78 795.17 491.33 797.07 486.14 800.13
  Q 470.30 809.46 458.24 824.39
  C 455.49 827.79 453.53 831.57 451.34 835.05
  C 449.23 838.41 448.08 841.41 446.69 845.03
  A 0.53 0.53 0.0 0 1 445.89 845.27
  Q 438.08 839.73 428.52 837.50
  Q 405.30 832.10 382.52 839.22
  C 377.62 840.75 372.43 843.38 367.21 845.65
  A 6.52 6.39 12.5 0 0 365.62 846.64
  Q 362.59 849.24 359.49 851.53
  Q 357.26 853.17 355.65 850.84
  C 353.54 847.80 351.02 842.53 348.14 838.98
  Q 342.60 832.15 335.83 826.41
  Q 331.30 822.58 324.10 819.41
  C 309.21 812.85 291.63 811.17 276.74 817.92
  A 0.88 0.87 83.0 0 1 275.52 816.96
  C 276.16 813.42 277.14 810.52 277.09 806.96
  Q 276.98 798.01 276.00 793.00
  Q 272.69 776.04 262.31 761.96
  Q 254.73 751.67 240.36 744.46
  C 238.02 743.29 235.25 742.82 232.94 741.80
  Q 230.18 740.58 227.30 740.16
  Q 217.99 738.81 208.54 739.37
  A 0.83 0.83 0.0 0 1 207.68 738.34
  C 213.59 714.28 211.69 686.15 197.71 665.28
  C 189.96 653.70 177.12 643.57 163.15 639.11
  Q 155.51 636.67 152.71 636.08
  C 146.94 634.88 140.81 635.10 136.10 634.72
  Q 133.15 634.48 131.41 634.66
  C 127.31 635.06 125.40 634.82 121.42 636.03
  Q 119.24 636.70 115.75 636.94
  A 1.50 1.44 -58.6 0 0 115.25 637.07
  L 112.11 638.45
  A 0.75 0.74 78.1 0 1 111.06 637.76
  Q 111.17 623.00 107.72 608.51
  C 105.81 600.48 102.96 593.23 98.73 586.24
  C 95.08 580.20 92.56 576.17 87.79 570.98
  Q 82.93 565.68 72.30 558.24
  C 68.43 555.52 64.38 554.11 59.90 551.95
  Q 55.54 549.84 50.17 548.22
  Q 25.21 540.69 0.00 546.27
  L 0.00 0.00
  L 1024.00 0.00
  Z"
/>
<path fill="#c7eff5" d="
  M 1024.00 465.08
  L 1024.00 498.82
  L 1024.00 509.38
  L 1024.00 532.55
  L 1024.00 539.62
  L 1024.00 638.40
  L 1024.00 649.11
  L 1024.00 656.78
  C 1003.46 656.64 984.22 661.16 967.40 671.92
  Q 949.84 683.15 937.30 700.81
  C 932.40 707.70 929.56 714.94 925.07 723.80
  A 1.16 1.15 25.7 0 1 923.56 724.32
  Q 908.56 717.48 893.15 715.51
  C 881.36 714.00 872.47 715.06 861.55 718.79
  Q 844.22 724.72 831.42 736.64
  C 814.39 752.49 800.43 775.08 799.04 798.53
  A 1.91 1.91 0.0 0 1 796.56 800.24
  Q 788.74 797.78 780.60 796.18
  Q 750.80 790.31 722.51 802.55
  Q 711.26 807.42 703.08 814.63
  C 692.09 824.32 682.92 833.82 676.53 846.77
  Q 670.04 859.91 669.52 874.53
  A 0.60 0.59 -81.8 0 1 668.78 875.09
  C 662.91 873.57 658.28 872.11 652.45 871.78
  C 618.96 869.91 593.89 888.68 577.94 916.70
  C 572.22 926.75 568.66 938.43 567.17 949.78
  A 0.78 0.78 0.0 0 1 566.06 950.38
  C 540.34 937.97 512.06 934.66 483.46 936.26
  C 463.99 937.34 444.85 941.68 427.12 948.15
  Q 397.76 958.87 373.73 979.38
  A 1.10 1.10 0.0 0 1 372.12 979.17
  C 364.80 968.69 353.61 959.04 341.43 955.05
  C 325.34 949.77 310.96 951.95 296.49 959.47
  A 0.90 0.90 0.0 0 1 295.24 959.00
  C 290.75 947.59 283.14 936.44 275.21 928.61
  C 260.42 913.99 240.90 912.04 220.91 915.36
  A 1.54 1.54 0.0 0 1 219.13 913.96
  C 216.73 882.58 196.26 856.89 165.06 850.14
  C 154.39 847.84 144.85 849.36 134.15 852.10
  A 0.91 0.91 0.0 0 1 133.02 851.19
  C 133.86 828.76 129.04 808.66 115.35 790.62
  C 97.96 767.71 73.04 754.01 43.97 753.20
  C 29.38 752.79 12.99 757.84 0.00 764.89
  L 0.00 546.27
  Q 25.21 540.69 50.17 548.22
  Q 55.54 549.84 59.90 551.95
  C 64.38 554.11 68.43 555.52 72.30 558.24
  Q 82.93 565.68 87.79 570.98
  C 92.56 576.17 95.08 580.20 98.73 586.24
  C 102.96 593.23 105.81 600.48 107.72 608.51
  Q 111.17 623.00 111.06 637.76
  A 0.75 0.74 78.1 0 0 112.11 638.45
  L 115.25 637.07
  A 1.50 1.44 -58.6 0 1 115.75 636.94
  Q 119.24 636.70 121.42 636.03
  C 125.40 634.82 127.31 635.06 131.41 634.66
  Q 133.15 634.48 136.10 634.72
  C 140.81 635.10 146.94 634.88 152.71 636.08
  Q 155.51 636.67 163.15 639.11
  C 177.12 643.57 189.96 653.70 197.71 665.28
  C 211.69 686.15 213.59 714.28 207.68 738.34
  A 0.83 0.83 0.0 0 0 208.54 739.37
  Q 217.99 738.81 227.30 740.16
  Q 230.18 740.58 232.94 741.80
  C 235.25 742.82 238.02 743.29 240.36 744.46
  Q 254.73 751.67 262.31 761.96
  Q 272.69 776.04 276.00 793.00
  Q 276.98 798.01 277.09 806.96
  C 277.14 810.52 276.16 813.42 275.52 816.96
  A 0.88 0.87 83.0 0 0 276.74 817.92
  C 291.63 811.17 309.21 812.85 324.10 819.41
  Q 331.30 822.58 335.83 826.41
  Q 342.60 832.15 348.14 838.98
  C 351.02 842.53 353.54 847.80 355.65 850.84
  Q 357.26 853.17 359.49 851.53
  Q 362.59 849.24 365.62 846.64
  A 6.52 6.39 12.5 0 1 367.21 845.65
  C 372.43 843.38 377.62 840.75 382.52 839.22
  Q 405.30 832.10 428.52 837.50
  Q 438.08 839.73 445.89 845.27
  A 0.53 0.53 0.0 0 0 446.69 845.03
  C 448.08 841.41 449.23 838.41 451.34 835.05
  C 453.53 831.57 455.49 827.79 458.24 824.39
  Q 470.30 809.46 486.14 800.13
  C 491.33 797.07 496.78 795.17 502.71 792.76
  Q 505.65 791.56 518.16 789.03
  Q 519.30 788.79 523.36 788.62
  Q 524.39 788.57 528.56 788.22
  C 536.21 787.57 544.94 788.00 552.93 790.02
  Q 557.98 791.30 562.30 791.86
  A 2.07 2.07 0.0 0 0 564.61 789.54
  C 564.39 787.91 564.25 786.25 564.51 784.79
  C 565.03 781.91 564.92 779.38 565.44 776.91
  Q 570.66 751.93 586.62 731.86
  Q 589.14 728.68 592.43 725.69
  C 595.09 723.27 597.63 720.30 600.74 718.04
  Q 612.32 709.61 616.92 707.17
  Q 622.23 704.33 630.00 701.72
  C 636.62 699.48 645.53 698.48 651.05 697.58
  A 13.82 13.22 40.8 0 1 653.94 697.43
  Q 657.28 697.61 667.03 697.91
  C 669.75 697.99 672.05 698.61 674.77 699.14
  A 0.69 0.69 0.0 0 0 675.58 698.35
  Q 674.93 694.71 675.45 691.23
  Q 676.38 684.98 677.39 677.71
  C 681.00 651.79 695.19 628.65 715.83 612.88
  Q 727.63 603.86 743.05 598.80
  Q 762.01 592.58 781.35 593.92
  Q 783.35 594.06 788.08 594.84
  C 792.57 595.59 797.43 595.22 800.99 598.18
  A 0.37 0.37 0.0 0 0 801.59 597.84
  Q 799.93 584.95 802.56 572.08
  Q 808.03 545.22 828.26 527.01
  C 833.52 522.27 842.02 516.65 850.04 514.17
  Q 859.11 511.38 860.78 511.22
  Q 871.37 510.22 874.07 510.15
  C 880.75 509.99 886.71 511.61 895.89 513.70
  A 0.90 0.90 0.0 0 0 896.97 513.02
  Q 898.15 507.89 899.26 503.74
  C 902.28 492.36 909.01 481.80 916.81 473.16
  C 918.56 471.23 920.64 469.77 923.43 467.42
  Q 938.64 454.64 957.31 451.40
  Q 963.05 450.41 976.53 449.85
  A 11.62 11.38 48.9 0 1 979.31 450.07
  C 983.45 450.90 988.07 450.75 992.40 451.84
  Q 1009.19 456.05 1024.00 465.08
  Z
  M 729.36 615.19
  Q 717.48 621.80 708.61 632.45
  C 705.40 636.30 703.33 640.78 700.71 644.67
  A 0.42 0.42 0.0 0 0 701.17 645.31
  Q 701.87 645.11 702.40 644.41
  Q 704.72 641.38 707.24 638.75
  C 714.20 631.50 722.63 624.51 731.72 619.45
  C 740.82 614.39 751.21 610.91 761.04 608.82
  Q 764.60 608.07 768.40 607.70
  Q 769.27 607.62 769.81 607.13
  A 0.42 0.42 0.0 0 0 769.51 606.40
  C 764.82 606.58 759.93 605.97 754.96 606.66
  Q 741.23 608.59 729.36 615.19
  Z"
/>
<path fill="#a4e7f8" d="
  M 1024.00 498.82
  L 1024.00 509.38
  L 1024.00 498.82
  Z"
/>
<path fill="#a4e7f8" d="
  M 1024.00 532.55
  L 1024.00 539.62
  L 1024.00 532.55
  Z"
/>
<path fill="#a4e7f8" d="
  M 731.72 619.45
  C 722.63 624.51 714.20 631.50 707.24 638.75
  Q 704.72 641.38 702.40 644.41
  Q 701.87 645.11 701.17 645.31
  A 0.42 0.42 0.0 0 1 700.71 644.67
  C 703.33 640.78 705.40 636.30 708.61 632.45
  Q 717.48 621.80 729.36 615.19
  Q 741.23 608.59 754.96 606.66
  C 759.93 605.97 764.82 606.58 769.51 606.40
  A 0.42 0.42 0.0 0 1 769.81 607.13
  Q 769.27 607.62 768.40 607.70
  Q 764.60 608.07 761.04 608.82
  C 751.21 610.91 740.82 614.39 731.72 619.45
  Z"
/>
<path fill="#a4e7f8" d="
  M 1024.00 638.40
  L 1024.00 649.11
  L 1024.00 638.40
  Z"
/>
<path fill="#ddf4f4" d="
  M 1024.00 656.78
  L 1024.00 1108.63
  Q 994.15 1098.99 981.56 1096.17
  Q 972.64 1094.17 965.16 1092.14
  Q 957.35 1090.02 928.03 1084.26
  Q 922.57 1083.19 918.50 1082.73
  C 909.89 1081.74 903.73 1080.46 894.60 1079.79
  Q 891.06 1079.53 883.46 1078.60
  Q 878.68 1078.01 876.01 1077.97
  C 869.59 1077.85 863.44 1076.99 857.42 1076.79
  Q 830.33 1075.89 802.73 1077.19
  Q 801.32 1077.25 796.93 1077.69
  C 792.69 1078.10 788.93 1077.84 784.45 1078.51
  Q 783.40 1078.67 777.76 1079.03
  Q 757.69 1080.32 729.90 1084.08
  Q 721.78 1085.17 712.71 1086.79
  C 699.80 1089.09 689.84 1090.35 678.52 1092.73
  C 666.25 1095.31 660.85 1096.63 652.05 1098.21
  Q 648.25 1098.89 642.53 1100.14
  Q 604.40 1108.45 559.01 1120.07
  Q 541.88 1124.46 530.52 1127.27
  Q 525.63 1128.49 522.02 1127.59
  Q 494.29 1122.19 466.86 1115.45
  Q 457.71 1113.20 450.19 1112.03
  Q 439.82 1110.42 433.38 1109.16
  Q 428.23 1108.14 423.07 1107.80
  Q 416.96 1107.39 412.68 1106.76
  C 407.44 1106.00 402.03 1106.37 396.89 1105.71
  Q 391.28 1105.00 385.07 1104.92
  Q 361.99 1104.63 337.00 1104.77
  Q 326.77 1104.83 319.24 1103.75
  C 309.36 1102.35 295.30 1101.24 283.74 1098.78
  C 270.53 1095.98 262.47 1094.63 251.94 1091.53
  Q 228.15 1084.53 221.48 1081.76
  Q 201.87 1073.63 200.63 1073.22
  Q 196.75 1071.94 188.45 1067.95
  Q 186.96 1067.23 176.21 1062.81
  Q 153.76 1053.56 132.90 1048.63
  Q 132.76 1048.59 118.31 1046.14
  Q 110.22 1044.77 103.61 1044.88
  Q 96.51 1044.99 92.03 1044.93
  C 86.76 1044.85 82.28 1045.70 76.92 1045.77
  Q 71.65 1045.84 65.63 1046.76
  Q 46.38 1049.71 28.12 1054.64
  Q 14.90 1058.22 1.37 1062.65
  A 1.42 1.42 0.0 0 0 0.65 1063.19
  Q 0.22 1063.82 0.00 1064.76
  L 0.00 764.89
  C 12.99 757.84 29.38 752.79 43.97 753.20
  C 73.04 754.01 97.96 767.71 115.35 790.62
  C 129.04 808.66 133.86 828.76 133.02 851.19
  A 0.91 0.91 0.0 0 0 134.15 852.10
  C 144.85 849.36 154.39 847.84 165.06 850.14
  C 196.26 856.89 216.73 882.58 219.13 913.96
  A 1.54 1.54 0.0 0 0 220.91 915.36
  C 240.90 912.04 260.42 913.99 275.21 928.61
  C 283.14 936.44 290.75 947.59 295.24 959.00
  A 0.90 0.90 0.0 0 0 296.49 959.47
  C 310.96 951.95 325.34 949.77 341.43 955.05
  C 353.61 959.04 364.80 968.69 372.12 979.17
  A 1.10 1.10 0.0 0 0 373.73 979.38
  Q 397.76 958.87 427.12 948.15
  C 444.85 941.68 463.99 937.34 483.46 936.26
  C 512.06 934.66 540.34 937.97 566.06 950.38
  A 0.78 0.78 0.0 0 0 567.17 949.78
  C 568.66 938.43 572.22 926.75 577.94 916.70
  C 593.89 888.68 618.96 869.91 652.45 871.78
  C 658.28 872.11 662.91 873.57 668.78 875.09
  A 0.60 0.59 -81.8 0 0 669.52 874.53
  Q 670.04 859.91 676.53 846.77
  C 682.92 833.82 692.09 824.32 703.08 814.63
  Q 711.26 807.42 722.51 802.55
  Q 750.80 790.31 780.60 796.18
  Q 788.74 797.78 796.56 800.24
  A 1.91 1.91 0.0 0 0 799.04 798.53
  C 800.43 775.08 814.39 752.49 831.42 736.64
  Q 844.22 724.72 861.55 718.79
  C 872.47 715.06 881.36 714.00 893.15 715.51
  Q 908.56 717.48 923.56 724.32
  A 1.16 1.15 25.7 0 0 925.07 723.80
  C 929.56 714.94 932.40 707.70 937.30 700.81
  Q 949.84 683.15 967.40 671.92
  C 984.22 661.16 1003.46 656.64 1024.00 656.78
  Z"
/>
<path fill="#f2ee7c" d="
  M 522.02 1127.59
  Q 521.84 1128.29 522.13 1128.72
  A 0.56 0.53 -24.7 0 1 521.80 1129.55
  Q 508.55 1133.21 499.59 1135.83
  C 496.63 1136.70 494.30 1136.82 491.70 1137.83
  Q 489.52 1138.68 485.86 1139.58
  Q 471.14 1143.19 460.81 1146.24
  Q 458.59 1146.89 456.44 1147.55
  Q 438.14 1153.08 420.43 1158.17
  Q 411.61 1160.71 368.85 1175.05
  C 362.50 1177.18 354.93 1179.36 349.16 1181.43
  Q 338.77 1185.17 327.56 1189.14
  C 322.36 1190.99 314.81 1192.49 310.41 1194.14
  Q 299.75 1198.15 289.69 1200.67
  C 282.74 1202.41 276.43 1204.62 270.66 1206.12
  Q 227.64 1217.32 213.88 1221.05
  C 209.31 1222.29 204.31 1223.24 199.44 1224.64
  C 192.94 1226.51 183.15 1228.38 176.18 1230.30
  C 166.71 1232.90 159.74 1234.19 149.34 1236.61
  Q 128.69 1241.41 119.27 1243.10
  C 113.17 1244.20 107.42 1246.22 101.19 1247.02
  Q 98.16 1247.41 95.37 1248.19
  C 92.18 1249.08 88.65 1249.30 84.87 1250.08
  Q 55.59 1256.06 28.00 1260.57
  C 24.85 1261.09 22.15 1262.07 19.00 1262.33
  Q 17.07 1262.49 12.24 1263.65
  Q 6.16 1265.10 0.00 1266.09
  L 0.00 1064.76
  Q 0.22 1063.82 0.65 1063.19
  A 1.42 1.42 0.0 0 1 1.37 1062.65
  Q 14.90 1058.22 28.12 1054.64
  Q 46.38 1049.71 65.63 1046.76
  Q 71.65 1045.84 76.92 1045.77
  C 82.28 1045.70 86.76 1044.85 92.03 1044.93
  Q 96.51 1044.99 103.61 1044.88
  Q 110.22 1044.77 118.31 1046.14
  Q 132.76 1048.59 132.90 1048.63
  Q 153.76 1053.56 176.21 1062.81
  Q 186.96 1067.23 188.45 1067.95
  Q 196.75 1071.94 200.63 1073.22
  Q 201.87 1073.63 221.48 1081.76
  Q 228.15 1084.53 251.94 1091.53
  C 262.47 1094.63 270.53 1095.98 283.74 1098.78
  C 295.30 1101.24 309.36 1102.35 319.24 1103.75
  Q 326.77 1104.83 337.00 1104.77
  Q 361.99 1104.63 385.07 1104.92
  Q 391.28 1105.00 396.89 1105.71
  C 402.03 1106.37 407.44 1106.00 412.68 1106.76
  Q 416.96 1107.39 423.07 1107.80
  Q 428.23 1108.14 433.38 1109.16
  Q 439.82 1110.42 450.19 1112.03
  Q 457.71 1113.20 466.86 1115.45
  Q 494.29 1122.19 522.02 1127.59
  Z"
/>
<path fill="#dce257" d="
  M 1024.00 1108.63
  L 1024.00 1195.28
  Q 1011.70 1193.73 999.40 1192.41
  C 984.83 1190.85 970.35 1188.58 954.98 1187.02
  Q 918.82 1183.34 914.59 1182.94
  C 909.65 1182.47 902.79 1183.06 897.13 1181.63
  A 0.62 0.61 26.9 0 1 896.80 1180.64
  Q 900.00 1176.79 900.12 1171.94
  A 1.60 1.60 0.0 0 0 899.80 1170.95
  Q 898.91 1169.75 896.73 1169.97
  A 1.54 1.49 20.2 0 0 895.85 1170.36
  C 892.70 1173.17 890.06 1177.59 886.16 1180.71
  A 1.66 1.66 0.0 0 1 885.14 1181.06
  L 878.64 1181.06
  A 0.54 0.54 0.0 0 1 878.15 1180.28
  L 882.19 1172.22
  A 1.62 1.61 -43.0 0 0 882.24 1170.88
  Q 881.38 1168.70 879.77 1167.59
  A 1.54 1.53 52.8 0 0 878.42 1167.40
  Q 870.51 1170.10 869.75 1178.62
  A 1.14 1.14 0.0 0 1 868.83 1179.63
  L 862.50 1180.85
  A 1.05 1.05 0.0 0 1 861.26 1179.75
  Q 861.94 1169.30 860.91 1162.42
  Q 860.31 1158.47 856.18 1158.91
  Q 853.16 1159.23 853.00 1161.54
  Q 852.41 1170.32 850.51 1177.06
  Q 849.67 1180.03 846.68 1180.53
  A 0.97 0.97 0.0 0 1 845.57 1179.77
  C 844.52 1174.75 842.71 1163.44 836.02 1163.43
  A 1.10 1.09 1.7 0 0 834.92 1164.46
  L 834.02 1179.13
  A 0.83 0.83 0.0 0 1 833.41 1179.89
  C 831.25 1180.50 829.93 1180.94 829.08 1178.49
  C 828.08 1175.60 827.81 1168.70 825.10 1165.13
  A 1.40 1.38 78.5 0 0 824.31 1164.60
  Q 821.86 1163.98 819.21 1165.15
  A 1.77 1.76 -16.9 0 0 818.18 1167.06
  C 818.82 1170.86 819.74 1175.27 818.49 1178.77
  A 1.42 1.40 -4.8 0 1 817.83 1179.54
  C 815.19 1181.00 813.60 1177.40 812.39 1175.37
  C 810.13 1171.60 806.38 1169.40 801.95 1169.39
  A 1.05 1.05 0.0 0 0 800.90 1170.45
  Q 800.93 1175.07 803.21 1178.88
  A 0.64 0.64 0.0 0 1 802.65 1179.85
  Q 785.50 1179.66 760.50 1179.98
  C 751.67 1180.09 744.48 1180.80 735.15 1180.79
  Q 721.32 1180.77 711.33 1181.39
  Q 692.41 1182.56 684.64 1182.68
  C 678.72 1182.78 674.27 1183.81 668.38 1183.97
  Q 664.22 1184.09 656.17 1184.76
  Q 634.44 1186.59 612.54 1188.67
  Q 608.87 1189.02 605.44 1189.40
  Q 587.64 1191.39 569.67 1192.85
  C 564.14 1193.30 559.60 1194.44 553.22 1195.14
  Q 527.74 1197.95 520.55 1199.33
  Q 503.89 1202.54 497.01 1203.68
  Q 489.79 1204.88 484.18 1206.33
  C 477.36 1208.10 468.86 1209.07 461.23 1211.23
  C 453.38 1213.46 445.92 1214.55 436.05 1216.84
  C 430.83 1218.05 420.49 1220.17 412.70 1222.27
  C 403.07 1224.86 395.14 1226.27 385.90 1228.88
  Q 369.88 1233.41 360.16 1235.76
  C 342.49 1240.02 334.35 1242.50 314.15 1248.01
  C 302.97 1251.06 293.60 1253.11 283.91 1256.13
  Q 278.02 1257.97 271.59 1259.05
  C 268.46 1259.58 265.02 1260.84 262.42 1261.41
  Q 236.92 1267.05 227.64 1269.22
  C 220.01 1271.00 212.31 1271.76 205.78 1273.59
  Q 198.33 1275.67 189.49 1277.28
  Q 186.87 1277.76 162.66 1282.30
  C 156.89 1283.39 151.53 1283.86 146.30 1285.14
  Q 141.90 1286.21 134.08 1287.37
  Q 122.46 1289.09 111.75 1291.17
  C 106.28 1292.24 101.20 1292.29 96.06 1293.37
  C 82.82 1296.16 68.44 1296.58 57.68 1299.01
  C 49.79 1300.78 42.82 1300.65 34.31 1302.37
  C 23.24 1304.62 11.43 1305.98 0.00 1307.70
  L 0.00 1266.76
  Q 0.33 1266.16 0.00 1266.11
  Q 0.00 1266.10 0.00 1266.09
  Q 6.16 1265.10 12.24 1263.65
  Q 17.07 1262.49 19.00 1262.33
  C 22.15 1262.07 24.85 1261.09 28.00 1260.57
  Q 55.59 1256.06 84.87 1250.08
  C 88.65 1249.30 92.18 1249.08 95.37 1248.19
  Q 98.16 1247.41 101.19 1247.02
  C 107.42 1246.22 113.17 1244.20 119.27 1243.10
  Q 128.69 1241.41 149.34 1236.61
  C 159.74 1234.19 166.71 1232.90 176.18 1230.30
  C 183.15 1228.38 192.94 1226.51 199.44 1224.64
  C 204.31 1223.24 209.31 1222.29 213.88 1221.05
  Q 227.64 1217.32 270.66 1206.12
  C 276.43 1204.62 282.74 1202.41 289.69 1200.67
  Q 299.75 1198.15 310.41 1194.14
  C 314.81 1192.49 322.36 1190.99 327.56 1189.14
  Q 338.77 1185.17 349.16 1181.43
  C 354.93 1179.36 362.50 1177.18 368.85 1175.05
  Q 411.61 1160.71 420.43 1158.17
  Q 438.14 1153.08 456.44 1147.55
  Q 458.59 1146.89 460.81 1146.24
  Q 471.14 1143.19 485.86 1139.58
  Q 489.52 1138.68 491.70 1137.83
  C 494.30 1136.82 496.63 1136.70 499.59 1135.83
  Q 508.55 1133.21 521.80 1129.55
  A 0.56 0.53 -24.7 0 0 522.13 1128.72
  Q 521.84 1128.29 522.02 1127.59
  Q 525.63 1128.49 530.52 1127.27
  Q 541.88 1124.46 559.01 1120.07
  Q 604.40 1108.45 642.53 1100.14
  Q 648.25 1098.89 652.05 1098.21
  C 660.85 1096.63 666.25 1095.31 678.52 1092.73
  C 689.84 1090.35 699.80 1089.09 712.71 1086.79
  Q 721.78 1085.17 729.90 1084.08
  Q 757.69 1080.32 777.76 1079.03
  Q 783.40 1078.67 784.45 1078.51
  C 788.93 1077.84 792.69 1078.10 796.93 1077.69
  Q 801.32 1077.25 802.73 1077.19
  Q 830.33 1075.89 857.42 1076.79
  C 863.44 1076.99 869.59 1077.85 876.01 1077.97
  Q 878.68 1078.01 883.46 1078.60
  Q 891.06 1079.53 894.60 1079.79
  C 903.73 1080.46 909.89 1081.74 918.50 1082.73
  Q 922.57 1083.19 928.03 1084.26
  Q 957.35 1090.02 965.16 1092.14
  Q 972.64 1094.17 981.56 1096.17
  Q 994.15 1098.99 1024.00 1108.63
  Z"
/>
<path fill="#c2d946" d="
  M 1024.00 1195.28
  L 1024.00 1356.26
  L 1001.30 1357.33
  A 0.14 0.09 31.7 0 1 1001.23 1357.33
  L 997.63 1357.04
  A 0.40 0.40 0.0 0 1 997.48 1356.28
  Q 998.80 1355.61 998.70 1353.91
  A 0.39 0.39 0.0 0 0 998.12 1353.60
  Q 996.14 1354.73 995.56 1356.24
  A 1.80 1.76 -9.4 0 1 995.02 1356.98
  Q 994.37 1357.51 991.26 1357.76
  Q 987.52 1358.05 983.92 1357.75
  A 0.64 0.64 0.0 0 1 983.54 1356.64
  Q 987.01 1353.36 985.21 1348.31
  A 1.05 1.05 0.0 0 0 984.44 1347.64
  C 980.02 1346.69 976.85 1354.39 976.68 1357.16
  A 1.54 1.53 1.6 0 1 975.14 1358.61
  L 970.44 1358.61
  A 1.04 1.04 0.0 0 1 969.47 1357.18
  Q 971.74 1351.49 971.33 1345.30
  A 1.29 1.29 0.0 0 0 969.92 1344.10
  Q 968.03 1344.28 966.07 1345.67
  A 2.04 2.03 81.7 0 0 965.33 1346.67
  L 961.82 1357.22
  A 2.69 2.68 -4.2 0 1 960.47 1358.78
  L 957.53 1360.26
  A 0.97 0.97 0.0 0 1 956.15 1359.19
  L 959.56 1343.24
  A 1.06 1.06 0.0 0 0 958.41 1341.96
  C 953.50 1342.49 952.31 1344.12 949.60 1348.10
  Q 948.81 1349.25 948.53 1352.65
  Q 948.18 1356.96 946.32 1360.09
  A 0.92 0.90 -72.1 0 1 945.48 1360.53
  Q 941.58 1360.24 941.97 1356.28
  Q 942.01 1355.86 942.15 1346.66
  Q 942.17 1345.37 940.44 1343.81
  A 0.75 0.74 -38.9 0 0 939.57 1343.72
  Q 936.54 1345.47 935.03 1348.71
  A 2.35 2.25 57.0 0 0 934.81 1349.86
  Q 935.08 1354.68 933.15 1360.58
  A 0.69 0.68 -78.2 0 1 932.44 1361.05
  L 927.88 1360.59
  A 0.69 0.68 88.4 0 1 927.27 1360.01
  L 926.90 1357.71
  A 3.31 3.19 28.0 0 0 926.60 1356.79
  L 922.99 1349.27
  A 0.98 0.95 4.1 0 0 922.63 1348.87
  Q 920.60 1347.56 918.90 1347.61
  A 1.93 1.92 -0.9 0 0 917.03 1349.53
  L 917.03 1361.50
  A 1.10 1.09 86.8 0 1 916.06 1362.59
  Q 914.37 1362.76 912.47 1362.37
  C 909.87 1361.83 908.70 1358.57 906.16 1357.04
  Q 903.08 1355.20 899.07 1357.08
  A 1.46 1.45 -26.0 0 0 898.39 1359.05
  L 901.00 1364.23
  A 0.39 0.39 0.0 0 1 900.63 1364.79
  Q 896.24 1364.57 890.08 1365.71
  C 882.11 1367.18 874.06 1368.05 866.06 1368.97
  Q 860.09 1366.93 852.11 1366.34
  Q 819.58 1363.94 778.26 1356.36
  Q 770.74 1354.98 744.01 1349.63
  Q 733.12 1347.45 726.67 1346.48
  Q 716.62 1344.96 709.36 1343.15
  Q 702.78 1341.51 691.38 1339.50
  Q 684.86 1338.35 673.47 1335.59
  A 0.22 0.22 0.0 0 1 673.32 1335.29
  L 676.14 1328.44
  A 1.04 1.04 0.0 0 0 674.84 1327.07
  C 670.09 1328.68 666.59 1332.18 662.40 1334.47
  A 1.63 1.62 -50.2 0 1 661.11 1334.59
  L 657.79 1333.48
  A 0.80 0.80 0.0 0 1 657.33 1332.36
  L 661.62 1323.77
  A 1.88 1.88 0.0 0 0 659.67 1321.07
  Q 656.09 1321.58 653.82 1324.10
  C 650.32 1327.99 648.35 1331.34 642.26 1329.08
  A 0.71 0.70 22.6 0 1 641.86 1328.13
  C 644.13 1323.07 645.76 1319.10 646.30 1314.49
  A 0.84 0.83 -0.5 0 0 645.36 1313.57
  C 637.59 1314.64 635.71 1320.50 632.06 1326.51
  A 1.30 1.26 7.9 0 1 631.27 1327.09
  Q 628.03 1327.89 626.89 1325.76
  A 2.06 2.04 40.6 0 1 626.76 1324.15
  L 631.53 1309.81
  A 0.62 0.57 -42.3 0 0 631.56 1309.49
  Q 631.21 1307.28 630.11 1306.50
  A 0.86 0.86 0.0 0 0 629.10 1306.51
  Q 626.98 1308.09 625.44 1310.46
  Q 621.44 1316.61 618.25 1323.50
  A 0.74 0.73 -64.3 0 1 617.26 1323.85
  L 613.42 1321.93
  A 0.60 0.60 0.0 0 1 613.09 1321.32
  L 615.24 1299.95
  A 1.10 1.09 -81.7 0 0 614.36 1298.76
  Q 613.33 1298.57 612.00 1299.04
  A 2.21 2.13 -79.3 0 0 611.07 1299.70
  C 605.77 1306.12 607.17 1313.58 606.03 1320.06
  A 0.47 0.46 -79.3 0 1 605.48 1320.44
  L 599.52 1319.16
  A 0.61 0.61 0.0 0 1 599.04 1318.60
  Q 598.59 1312.40 597.21 1309.08
  Q 596.65 1307.76 593.54 1304.02
  A 0.98 0.98 0.0 0 0 592.75 1303.67
  Q 590.80 1303.77 590.03 1304.17
  A 1.02 1.01 -12.4 0 0 589.48 1305.02
  Q 589.27 1310.59 590.62 1316.97
  A 0.38 0.37 1.0 0 1 590.16 1317.41
  C 582.39 1315.41 571.23 1313.69 562.76 1311.15
  Q 556.57 1309.29 550.01 1307.89
  C 541.65 1306.12 531.11 1302.94 523.37 1301.15
  Q 488.31 1293.06 484.05 1292.29
  C 471.84 1290.09 460.42 1287.41 445.76 1284.44
  Q 438.50 1282.98 429.67 1282.14
  Q 423.75 1281.57 413.58 1279.71
  C 407.23 1278.55 401.05 1279.42 394.93 1277.64
  A 0.73 0.72 21.2 0 1 394.48 1276.62
  L 401.12 1263.35
  A 1.16 1.16 0.0 0 0 400.36 1261.71
  Q 398.12 1261.14 396.77 1261.60
  A 2.12 2.12 0.0 0 0 395.80 1262.26
  C 392.37 1266.33 390.81 1268.99 387.53 1274.87
  C 386.88 1276.04 385.58 1277.59 384.73 1278.45
  A 1.04 1.03 -41.4 0 1 383.17 1278.36
  L 380.85 1275.35
  A 1.49 1.49 0.0 0 1 380.62 1273.99
  Q 383.14 1266.45 382.45 1258.90
  A 0.91 0.90 -87.9 0 0 381.71 1258.10
  Q 380.50 1257.88 379.20 1258.28
  A 1.47 1.47 0.0 0 0 378.39 1258.90
  C 374.69 1264.74 373.33 1269.62 370.76 1277.38
  A 0.73 0.72 49.3 0 1 369.36 1277.27
  C 367.97 1269.52 368.34 1261.21 364.52 1253.93
  A 0.95 0.95 0.0 0 0 362.79 1254.04
  Q 361.58 1257.39 361.58 1260.51
  Q 361.56 1267.86 360.75 1275.18
  C 360.56 1276.90 359.73 1277.80 358.28 1278.47
  A 0.91 0.90 68.4 0 1 357.04 1277.93
  C 354.98 1271.72 352.49 1263.83 347.96 1257.34
  A 1.30 1.27 75.6 0 0 347.07 1256.80
  Q 345.44 1256.59 344.01 1256.95
  A 0.84 0.84 0.0 0 0 343.40 1257.92
  L 346.98 1276.65
  A 1.52 1.52 0.0 0 1 344.25 1277.82
  Q 343.21 1276.35 340.81 1272.66
  C 339.11 1270.05 333.79 1267.60 331.15 1264.04
  A 0.50 0.50 0.0 0 0 330.26 1264.27
  Q 329.08 1272.10 334.59 1278.22
  A 0.39 0.38 66.4 0 1 334.34 1278.86
  Q 311.17 1280.91 283.82 1284.72
  C 277.24 1285.64 270.91 1288.21 263.93 1289.69
  Q 246.48 1293.38 240.04 1295.30
  Q 203.97 1306.04 197.53 1308.05
  Q 187.58 1311.15 159.52 1321.43
  Q 123.31 1334.71 92.35 1346.54
  Q 71.71 1354.42 26.30 1370.26
  Q 10.49 1375.77 0.00 1377.74
  L 0.00 1307.70
  C 11.43 1305.98 23.24 1304.62 34.31 1302.37
  C 42.82 1300.65 49.79 1300.78 57.68 1299.01
  C 68.44 1296.58 82.82 1296.16 96.06 1293.37
  C 101.20 1292.29 106.28 1292.24 111.75 1291.17
  Q 122.46 1289.09 134.08 1287.37
  Q 141.90 1286.21 146.30 1285.14
  C 151.53 1283.86 156.89 1283.39 162.66 1282.30
  Q 186.87 1277.76 189.49 1277.28
  Q 198.33 1275.67 205.78 1273.59
  C 212.31 1271.76 220.01 1271.00 227.64 1269.22
  Q 236.92 1267.05 262.42 1261.41
  C 265.02 1260.84 268.46 1259.58 271.59 1259.05
  Q 278.02 1257.97 283.91 1256.13
  C 293.60 1253.11 302.97 1251.06 314.15 1248.01
  C 334.35 1242.50 342.49 1240.02 360.16 1235.76
  Q 369.88 1233.41 385.90 1228.88
  C 395.14 1226.27 403.07 1224.86 412.70 1222.27
  C 420.49 1220.17 430.83 1218.05 436.05 1216.84
  C 445.92 1214.55 453.38 1213.46 461.23 1211.23
  C 468.86 1209.07 477.36 1208.10 484.18 1206.33
  Q 489.79 1204.88 497.01 1203.68
  Q 503.89 1202.54 520.55 1199.33
  Q 527.74 1197.95 553.22 1195.14
  C 559.60 1194.44 564.14 1193.30 569.67 1192.85
  Q 587.64 1191.39 605.44 1189.40
  Q 608.87 1189.02 612.54 1188.67
  Q 634.44 1186.59 656.17 1184.76
  Q 664.22 1184.09 668.38 1183.97
  C 674.27 1183.81 678.72 1182.78 684.64 1182.68
  Q 692.41 1182.56 711.33 1181.39
  Q 721.32 1180.77 735.15 1180.79
  C 744.48 1180.80 751.67 1180.09 760.50 1179.98
  Q 785.50 1179.66 802.65 1179.85
  A 0.64 0.64 0.0 0 0 803.21 1178.88
  Q 800.93 1175.07 800.90 1170.45
  A 1.05 1.05 0.0 0 1 801.95 1169.39
  C 806.38 1169.40 810.13 1171.60 812.39 1175.37
  C 813.60 1177.40 815.19 1181.00 817.83 1179.54
  A 1.42 1.40 -4.8 0 0 818.49 1178.77
  C 819.74 1175.27 818.82 1170.86 818.18 1167.06
  A 1.77 1.76 -16.9 0 1 819.21 1165.15
  Q 821.86 1163.98 824.31 1164.60
  A 1.40 1.38 78.5 0 1 825.10 1165.13
  C 827.81 1168.70 828.08 1175.60 829.08 1178.49
  C 829.93 1180.94 831.25 1180.50 833.41 1179.89
  A 0.83 0.83 0.0 0 0 834.02 1179.13
  L 834.92 1164.46
  A 1.10 1.09 1.7 0 1 836.02 1163.43
  C 842.71 1163.44 844.52 1174.75 845.57 1179.77
  A 0.97 0.97 0.0 0 0 846.68 1180.53
  Q 849.67 1180.03 850.51 1177.06
  Q 852.41 1170.32 853.00 1161.54
  Q 853.16 1159.23 856.18 1158.91
  Q 860.31 1158.47 860.91 1162.42
  Q 861.94 1169.30 861.26 1179.75
  A 1.05 1.05 0.0 0 0 862.50 1180.85
  L 868.83 1179.63
  A 1.14 1.14 0.0 0 0 869.75 1178.62
  Q 870.51 1170.10 878.42 1167.40
  A 1.54 1.53 52.8 0 1 879.77 1167.59
  Q 881.38 1168.70 882.24 1170.88
  A 1.62 1.61 -43.0 0 1 882.19 1172.22
  L 878.15 1180.28
  A 0.54 0.54 0.0 0 0 878.64 1181.06
  L 885.14 1181.06
  A 1.66 1.66 0.0 0 0 886.16 1180.71
  C 890.06 1177.59 892.70 1173.17 895.85 1170.36
  A 1.54 1.49 20.2 0 1 896.73 1169.97
  Q 898.91 1169.75 899.80 1170.95
  A 1.60 1.60 0.0 0 1 900.12 1171.94
  Q 900.00 1176.79 896.80 1180.64
  A 0.62 0.61 26.9 0 0 897.13 1181.63
  C 902.79 1183.06 909.65 1182.47 914.59 1182.94
  Q 918.82 1183.34 954.98 1187.02
  C 970.35 1188.58 984.83 1190.85 999.40 1192.41
  Q 1011.70 1193.73 1024.00 1195.28
  Z
  M 907.29 1211.85
  C 904.52 1218.16 905.37 1228.56 911.59 1232.71
  A 0.74 0.73 -68.2 0 0 912.72 1232.22
  Q 914.58 1221.50 910.21 1211.83
  A 1.60 1.60 0.0 0 0 907.29 1211.85
  Z
  M 537.50 1233.15
  A 1.18 1.18 0.0 0 0 536.23 1232.52
  L 532.77 1233.19
  A 1.17 1.16 89.7 0 0 531.84 1234.14
  Q 530.19 1243.84 531.60 1254.07
  A 1.58 1.53 19.0 0 0 532.06 1254.98
  Q 533.37 1256.23 535.16 1254.97
  A 1.12 1.10 82.7 0 0 535.59 1254.40
  L 540.25 1240.40
  A 2.74 2.71 -49.4 0 0 540.10 1238.31
  L 537.50 1233.15
  Z
  M 516.97 1235.32
  Q 515.74 1242.44 516.08 1244.60
  Q 517.39 1252.99 517.37 1254.30
  A 0.57 0.57 0.0 0 0 517.91 1254.88
  L 520.61 1255.05
  A 0.98 0.98 0.0 0 0 521.55 1254.51
  L 524.13 1249.35
  A 5.83 5.81 55.7 0 0 524.72 1246.22
  Q 524.43 1242.92 523.70 1236.69
  C 523.51 1235.03 522.53 1233.46 520.69 1233.68
  Q 518.45 1233.95 517.59 1234.44
  A 1.25 1.24 80.4 0 0 516.97 1235.32
  Z
  M 702.35 1236.70
  A 1.54 1.53 -16.7 0 0 699.88 1235.37
  L 698.12 1236.72
  A 5.73 5.71 72.7 0 0 695.90 1240.97
  Q 695.51 1249.00 696.54 1257.88
  A 0.78 0.78 0.0 0 0 697.97 1258.22
  Q 699.25 1256.31 699.79 1254.07
  Q 701.58 1246.61 702.35 1236.70
  Z
  M 505.28 1255.23
  A 0.76 0.76 0.0 0 0 506.49 1254.80
  Q 508.51 1246.23 504.77 1238.39
  A 2.17 2.15 88.7 0 0 503.68 1237.34
  Q 502.10 1236.65 499.65 1236.61
  A 0.93 0.93 0.0 0 0 498.71 1237.38
  Q 496.76 1248.61 505.28 1255.23
  Z
  M 685.13 1239.41
  C 683.34 1236.74 680.60 1237.81 678.71 1239.17
  A 1.72 1.71 -13.0 0 0 678.02 1240.27
  C 676.92 1246.48 676.69 1250.52 679.39 1255.91
  A 1.62 1.60 80.4 0 0 680.59 1256.78
  Q 682.60 1257.08 684.26 1256.54
  A 1.40 1.39 87.1 0 0 685.18 1255.51
  Q 686.81 1247.78 685.41 1240.11
  A 1.93 1.88 -67.5 0 0 685.13 1239.41
  Z
  M 552.5100 1240.3068
  A 8.99 2.18 -70.1 0 0 547.4002 1248.0180
  A 8.99 2.18 -70.1 0 0 546.3900 1257.2132
  A 8.99 2.18 -70.1 0 0 551.4998 1249.5020
  A 8.99 2.18 -70.1 0 0 552.5100 1240.3068
  Z
  M 715.53 1241.63
  C 711.11 1245.28 710.17 1249.47 709.22 1254.91
  A 1.31 1.31 0.0 0 0 710.34 1256.44
  Q 712.61 1256.74 714.10 1256.26
  A 1.91 1.86 -81.5 0 0 715.10 1255.50
  L 720.36 1247.68
  A 2.26 2.25 43.3 0 0 720.27 1245.05
  L 717.84 1241.89
  A 1.61 1.61 0.0 0 0 715.53 1241.63
  Z
  M 854.85 1275.15
  C 849.80 1280.02 848.65 1288.28 848.21 1295.09
  A 2.57 2.48 36.0 0 0 848.42 1296.27
  Q 849.20 1298.04 851.44 1298.47
  A 1.63 1.62 -56.7 0 0 852.64 1298.22
  C 857.26 1295.12 859.36 1289.96 860.72 1284.79
  Q 862.28 1278.84 856.96 1275.00
  A 1.66 1.65 40.8 0 0 854.85 1275.15
  Z
  M 838.89 1275.62
  A 0.95 0.95 0.0 0 0 837.26 1275.24
  C 833.55 1279.42 832.98 1284.23 832.34 1289.58
  Q 831.79 1294.16 831.81 1295.28
  A 1.28 1.26 -74.4 0 0 832.37 1296.30
  L 835.16 1298.17
  A 1.07 1.07 0.0 0 0 836.78 1297.60
  C 838.92 1290.69 840.81 1282.66 838.89 1275.62
  Z
  M 819.59 1297.04
  Q 822.58 1287.95 819.88 1278.86
  A 1.55 1.55 0.0 0 0 819.12 1277.92
  Q 817.60 1277.12 815.45 1277.21
  A 0.80 0.79 0.4 0 0 814.70 1277.94
  Q 813.81 1288.83 817.76 1297.16
  A 0.99 0.99 0.0 0 0 819.59 1297.04
  Z
  M 914.00 1359.13
  A 0.35 0.35 0.0 0 0 914.66 1358.96
  Q 914.25 1351.82 915.81 1346.83
  A 2.80 2.80 0.0 0 0 914.70 1343.66
  L 914.21 1343.33
  A 1.42 1.42 0.0 0 0 912.04 1344.18
  Q 910.29 1351.59 914.00 1359.13
  Z"
/>
<path fill="#b1d043" d="
  M 907.29 1211.85
  A 1.60 1.60 0.0 0 1 910.21 1211.83
  Q 914.58 1221.50 912.72 1232.22
  A 0.74 0.73 -68.2 0 1 911.59 1232.71
  C 905.37 1228.56 904.52 1218.16 907.29 1211.85
  Z"
/>
<path fill="#b1d043" d="
  M 537.50 1233.15
  L 540.10 1238.31
  A 2.74 2.71 -49.4 0 1 540.25 1240.40
  L 535.59 1254.40
  A 1.12 1.10 82.7 0 1 535.16 1254.97
  Q 533.37 1256.23 532.06 1254.98
  A 1.58 1.53 19.0 0 1 531.60 1254.07
  Q 530.19 1243.84 531.84 1234.14
  A 1.17 1.16 89.7 0 1 532.77 1233.19
  L 536.23 1232.52
  A 1.18 1.18 0.0 0 1 537.50 1233.15
  Z"
/>
<path fill="#b1d043" d="
  M 517.59 1234.44
  Q 518.45 1233.95 520.69 1233.68
  C 522.53 1233.46 523.51 1235.03 523.70 1236.69
  Q 524.43 1242.92 524.72 1246.22
  A 5.83 5.81 55.7 0 1 524.13 1249.35
  L 521.55 1254.51
  A 0.98 0.98 0.0 0 1 520.61 1255.05
  L 517.91 1254.88
  A 0.57 0.57 0.0 0 1 517.37 1254.30
  Q 517.39 1252.99 516.08 1244.60
  Q 515.74 1242.44 516.97 1235.32
  A 1.25 1.24 80.4 0 1 517.59 1234.44
  Z"
/>
<path fill="#b1d043" d="
  M 702.35 1236.70
  Q 701.58 1246.61 699.79 1254.07
  Q 699.25 1256.31 697.97 1258.22
  A 0.78 0.78 0.0 0 1 696.54 1257.88
  Q 695.51 1249.00 695.90 1240.97
  A 5.73 5.71 72.7 0 1 698.12 1236.72
  L 699.88 1235.37
  A 1.54 1.53 -16.7 0 1 702.35 1236.70
  Z"
/>
<path fill="#b1d043" d="
  M 505.28 1255.23
  Q 496.76 1248.61 498.71 1237.38
  A 0.93 0.93 0.0 0 1 499.65 1236.61
  Q 502.10 1236.65 503.68 1237.34
  A 2.17 2.15 88.7 0 1 504.77 1238.39
  Q 508.51 1246.23 506.49 1254.80
  A 0.76 0.76 0.0 0 1 505.28 1255.23
  Z"
/>
<path fill="#b1d043" d="
  M 678.71 1239.17
  C 680.60 1237.81 683.34 1236.74 685.13 1239.41
  A 1.93 1.88 -67.5 0 1 685.41 1240.11
  Q 686.81 1247.78 685.18 1255.51
  A 1.40 1.39 87.1 0 1 684.26 1256.54
  Q 682.60 1257.08 680.59 1256.78
  A 1.62 1.60 80.4 0 1 679.39 1255.91
  C 676.69 1250.52 676.92 1246.48 678.02 1240.27
  A 1.72 1.71 -13.0 0 1 678.71 1239.17
  Z"
/>
<ellipse fill="#b1d043" cx="0.00" cy="0.00" transform="translate(549.45,1248.76) rotate(-70.1)" rx="8.99" ry="2.18"/>
<path fill="#b1d043" d="
  M 715.53 1241.63
  A 1.61 1.61 0.0 0 1 717.84 1241.89
  L 720.27 1245.05
  A 2.26 2.25 43.3 0 1 720.36 1247.68
  L 715.10 1255.50
  A 1.91 1.86 -81.5 0 1 714.10 1256.26
  Q 712.61 1256.74 710.34 1256.44
  A 1.31 1.31 0.0 0 1 709.22 1254.91
  C 710.17 1249.47 711.11 1245.28 715.53 1241.63
  Z"
/>
<path fill="#b1d043" d="
  M 866.06 1368.97
  Q 861.62 1370.62 859.30 1371.08
  Q 831.41 1376.60 812.03 1382.37
  Q 791.42 1388.51 780.79 1391.77
  C 771.59 1394.59 764.27 1397.38 754.16 1400.44
  Q 742.40 1404.00 726.07 1409.83
  C 722.83 1410.99 718.71 1411.87 716.37 1412.86
  Q 710.85 1415.21 700.62 1418.53
  C 690.10 1421.94 679.23 1426.70 668.63 1429.81
  A 0.69 0.69 0.0 0 1 668.01 1428.60
  L 670.79 1426.45
  A 0.85 0.85 0.0 0 0 671.11 1425.61
  L 670.12 1420.39
  A 0.80 0.80 0.0 0 0 669.24 1419.75
  Q 665.75 1420.12 663.37 1422.17
  C 661.10 1424.13 660.27 1428.20 659.03 1430.03
  C 657.04 1432.96 653.67 1434.06 650.48 1435.10
  A 0.37 0.37 0.0 0 1 649.99 1434.73
  C 650.21 1427.46 651.37 1421.68 647.23 1417.52
  A 1.35 1.35 0.0 0 0 645.46 1417.39
  C 639.91 1421.58 640.62 1430.18 641.57 1436.37
  A 1.49 1.49 0.0 0 1 640.61 1438.00
  L 634.83 1440.09
  A 0.92 0.92 0.0 0 1 633.60 1439.30
  C 632.94 1431.64 631.94 1425.54 626.00 1420.21
  A 0.87 0.86 -37.0 0 0 625.05 1420.08
  Q 621.59 1421.77 622.17 1425.17
  Q 624.75 1440.11 624.71 1443.08
  A 1.08 1.06 -27.7 0 1 624.51 1443.70
  Q 623.51 1445.07 621.99 1444.55
  A 1.31 1.28 -8.3 0 1 621.40 1444.12
  L 611.04 1430.67
  A 2.90 2.90 0.0 0 0 608.19 1429.59
  L 605.12 1430.18
  A 1.00 1.00 0.0 0 0 604.41 1431.61
  L 612.46 1447.62
  A 0.51 0.51 0.0 0 1 611.97 1448.36
  Q 608.76 1448.15 606.73 1447.50
  C 603.86 1446.59 601.68 1444.41 599.09 1442.71
  Q 596.82 1441.21 591.85 1439.64
  Q 590.49 1439.22 589.09 1440.97
  A 0.81 0.80 47.9 0 0 589.05 1441.91
  C 591.99 1446.35 594.90 1448.27 599.45 1451.20
  A 0.47 0.47 0.0 0 1 599.27 1452.06
  C 590.23 1453.59 578.72 1458.82 568.06 1461.93
  Q 540.34 1470.01 518.59 1477.32
  C 512.67 1479.31 507.84 1480.30 502.49 1481.84
  Q 498.24 1483.07 490.31 1484.71
  Q 470.45 1488.80 461.68 1490.15
  C 440.77 1493.35 414.71 1495.57 389.21 1496.40
  Q 377.81 1496.78 359.51 1495.51
  Q 347.07 1494.65 324.16 1493.38
  A 1.00 1.00 0.0 0 1 323.48 1491.71
  Q 326.76 1488.13 328.78 1483.98
  Q 330.26 1480.93 326.90 1479.81
  A 1.27 1.24 41.1 0 0 325.97 1479.86
  Q 322.19 1481.64 321.12 1482.89
  C 316.53 1488.27 315.20 1490.21 310.99 1493.03
  Q 309.81 1493.82 308.43 1493.10
  A 1.64 1.63 26.8 0 1 307.71 1490.94
  Q 310.97 1484.13 312.27 1477.23
  A 1.23 1.22 -78.6 0 0 311.33 1475.80
  L 308.60 1475.22
  A 1.58 1.57 21.7 0 0 306.93 1475.93
  Q 303.86 1480.94 301.37 1485.15
  Q 298.65 1489.76 293.52 1491.27
  A 0.74 0.73 -5.7 0 1 292.57 1490.50
  Q 292.80 1487.87 293.46 1485.40
  Q 295.45 1477.98 296.10 1470.78
  Q 296.22 1469.46 294.70 1468.07
  A 0.76 0.76 0.0 0 0 293.81 1467.98
  Q 289.72 1470.36 288.37 1474.17
  Q 287.76 1475.88 284.01 1487.80
  A 0.83 0.82 10.0 0 1 283.18 1488.37
  Q 282.28 1488.32 281.20 1487.57
  A 0.83 0.81 -44.6 0 0 280.27 1487.57
  Q 279.38 1488.17 278.96 1487.60
  A 1.00 0.98 -67.5 0 1 278.76 1487.10
  Q 277.95 1480.12 277.66 1470.92
  Q 277.58 1468.11 275.63 1463.30
  A 0.91 0.90 76.8 0 0 274.72 1462.73
  C 272.36 1462.90 270.72 1463.00 270.70 1466.16
  Q 270.61 1477.73 271.07 1485.43
  A 0.59 0.58 -8.2 0 1 270.61 1486.03
  C 267.61 1486.73 265.30 1486.10 264.35 1482.63
  Q 262.94 1477.51 258.20 1471.48
  A 1.01 1.01 0.0 0 0 257.21 1471.11
  L 253.45 1471.83
  A 1.22 1.22 0.0 0 0 252.48 1473.26
  L 254.64 1484.55
  A 0.15 0.15 0.0 0 1 254.44 1484.72
  C 252.25 1484.03 250.05 1483.45 247.84 1483.13
  Q 223.47 1479.62 201.36 1474.99
  Q 184.43 1471.45 177.67 1470.10
  C 162.37 1467.05 146.24 1463.24 131.44 1461.27
  A 0.67 0.66 19.5 0 1 130.96 1460.27
  Q 134.19 1454.89 133.82 1448.85
  A 0.71 0.71 0.0 0 0 133.08 1448.19
  C 128.70 1448.42 125.94 1449.91 123.46 1453.60
  Q 120.76 1457.62 120.73 1457.68
  A 1.90 1.90 0.0 0 1 118.50 1458.58
  L 112.93 1456.86
  A 1.51 1.51 0.0 0 1 112.03 1454.73
  C 115.34 1448.21 117.31 1445.26 118.08 1440.08
  A 1.23 1.23 0.0 0 0 117.08 1438.69
  C 115.46 1438.40 113.22 1438.29 111.85 1440.12
  C 108.98 1443.94 107.10 1447.89 104.24 1453.79
  A 2.39 2.38 -70.9 0 1 101.59 1455.08
  L 97.60 1454.23
  A 1.58 1.58 0.0 0 1 96.45 1452.15
  C 99.05 1444.98 100.82 1441.10 100.66 1434.61
  A 0.73 0.73 0.0 0 0 100.08 1433.91
  Q 97.82 1433.44 96.20 1434.08
  A 1.78 1.73 5.1 0 0 95.34 1434.78
  Q 93.24 1438.12 89.75 1445.54
  Q 87.69 1449.93 83.76 1452.27
  A 0.62 0.62 0.0 0 1 82.82 1451.68
  C 83.60 1443.05 83.78 1436.47 81.05 1428.12
  A 1.59 1.58 87.1 0 0 79.87 1427.05
  L 77.99 1426.65
  A 1.14 1.14 0.0 0 0 76.69 1427.35
  C 74.65 1432.54 75.04 1438.95 73.83 1444.91
  Q 73.49 1446.59 72.60 1451.41
  A 0.61 0.61 0.0 0 1 71.55 1451.72
  C 67.27 1447.15 66.68 1442.37 65.33 1436.61
  C 64.20 1431.77 62.16 1428.37 58.15 1425.49
  A 0.86 0.86 0.0 0 0 56.79 1426.15
  C 56.68 1429.31 56.66 1433.24 57.03 1436.78
  Q 57.89 1444.79 57.90 1447.05
  A 0.45 0.45 0.0 0 1 57.35 1447.50
  L 51.18 1446.18
  A 0.79 0.79 0.0 0 1 50.63 1445.75
  C 48.42 1441.12 45.35 1435.45 40.13 1432.88
  A 1.78 1.77 11.3 0 0 37.58 1434.58
  C 37.86 1439.36 41.02 1443.36 43.87 1447.12
  A 0.35 0.34 -14.9 0 1 43.55 1447.67
  Q 30.72 1446.05 16.99 1443.29
  C 11.45 1442.18 5.71 1441.96 0.00 1441.65
  L 0.00 1377.74
  Q 10.49 1375.77 26.30 1370.26
  Q 71.71 1354.42 92.35 1346.54
  Q 123.31 1334.71 159.52 1321.43
  Q 187.58 1311.15 197.53 1308.05
  Q 203.97 1306.04 240.04 1295.30
  Q 246.48 1293.38 263.93 1289.69
  C 270.91 1288.21 277.24 1285.64 283.82 1284.72
  Q 311.17 1280.91 334.34 1278.86
  A 0.39 0.38 66.4 0 0 334.59 1278.22
  Q 329.08 1272.10 330.26 1264.27
  A 0.50 0.50 0.0 0 1 331.15 1264.04
  C 333.79 1267.60 339.11 1270.05 340.81 1272.66
  Q 343.21 1276.35 344.25 1277.82
  A 1.52 1.52 0.0 0 0 346.98 1276.65
  L 343.40 1257.92
  A 0.84 0.84 0.0 0 1 344.01 1256.95
  Q 345.44 1256.59 347.07 1256.80
  A 1.30 1.27 75.6 0 1 347.96 1257.34
  C 352.49 1263.83 354.98 1271.72 357.04 1277.93
  A 0.91 0.90 68.4 0 0 358.28 1278.47
  C 359.73 1277.80 360.56 1276.90 360.75 1275.18
  Q 361.56 1267.86 361.58 1260.51
  Q 361.58 1257.39 362.79 1254.04
  A 0.95 0.95 0.0 0 1 364.52 1253.93
  C 368.34 1261.21 367.97 1269.52 369.36 1277.27
  A 0.73 0.72 49.3 0 0 370.76 1277.38
  C 373.33 1269.62 374.69 1264.74 378.39 1258.90
  A 1.47 1.47 0.0 0 1 379.20 1258.28
  Q 380.50 1257.88 381.71 1258.10
  A 0.91 0.90 -87.9 0 1 382.45 1258.90
  Q 383.14 1266.45 380.62 1273.99
  A 1.49 1.49 0.0 0 0 380.85 1275.35
  L 383.17 1278.36
  A 1.04 1.03 -41.4 0 0 384.73 1278.45
  C 385.58 1277.59 386.88 1276.04 387.53 1274.87
  C 390.81 1268.99 392.37 1266.33 395.80 1262.26
  A 2.12 2.12 0.0 0 1 396.77 1261.60
  Q 398.12 1261.14 400.36 1261.71
  A 1.16 1.16 0.0 0 1 401.12 1263.35
  L 394.48 1276.62
  A 0.73 0.72 21.2 0 0 394.93 1277.64
  C 401.05 1279.42 407.23 1278.55 413.58 1279.71
  Q 423.75 1281.57 429.67 1282.14
  Q 438.50 1282.98 445.76 1284.44
  C 460.42 1287.41 471.84 1290.09 484.05 1292.29
  Q 488.31 1293.06 523.37 1301.15
  C 531.11 1302.94 541.65 1306.12 550.01 1307.89
  Q 556.57 1309.29 562.76 1311.15
  C 571.23 1313.69 582.39 1315.41 590.16 1317.41
  A 0.38 0.37 1.0 0 0 590.62 1316.97
  Q 589.27 1310.59 589.48 1305.02
  A 1.02 1.01 -12.4 0 1 590.03 1304.17
  Q 590.80 1303.77 592.75 1303.67
  A 0.98 0.98 0.0 0 1 593.54 1304.02
  Q 596.65 1307.76 597.21 1309.08
  Q 598.59 1312.40 599.04 1318.60
  A 0.61 0.61 0.0 0 0 599.52 1319.16
  L 605.48 1320.44
  A 0.47 0.46 -79.3 0 0 606.03 1320.06
  C 607.17 1313.58 605.77 1306.12 611.07 1299.70
  A 2.21 2.13 -79.3 0 1 612.00 1299.04
  Q 613.33 1298.57 614.36 1298.76
  A 1.10 1.09 -81.7 0 1 615.24 1299.95
  L 613.09 1321.32
  A 0.60 0.60 0.0 0 0 613.42 1321.93
  L 617.26 1323.85
  A 0.74 0.73 -64.3 0 0 618.25 1323.50
  Q 621.44 1316.61 625.44 1310.46
  Q 626.98 1308.09 629.10 1306.51
  A 0.86 0.86 0.0 0 1 630.11 1306.50
  Q 631.21 1307.28 631.56 1309.49
  A 0.62 0.57 -42.3 0 1 631.53 1309.81
  L 626.76 1324.15
  A 2.06 2.04 40.6 0 0 626.89 1325.76
  Q 628.03 1327.89 631.27 1327.09
  A 1.30 1.26 7.9 0 0 632.06 1326.51
  C 635.71 1320.50 637.59 1314.64 645.36 1313.57
  A 0.84 0.83 -0.5 0 1 646.30 1314.49
  C 645.76 1319.10 644.13 1323.07 641.86 1328.13
  A 0.71 0.70 22.6 0 0 642.26 1329.08
  C 648.35 1331.34 650.32 1327.99 653.82 1324.10
  Q 656.09 1321.58 659.67 1321.07
  A 1.88 1.88 0.0 0 1 661.62 1323.77
  L 657.33 1332.36
  A 0.80 0.80 0.0 0 0 657.79 1333.48
  L 661.11 1334.59
  A 1.63 1.62 -50.2 0 0 662.40 1334.47
  C 666.59 1332.18 670.09 1328.68 674.84 1327.07
  A 1.04 1.04 0.0 0 1 676.14 1328.44
  L 673.32 1335.29
  A 0.22 0.22 0.0 0 0 673.47 1335.59
  Q 684.86 1338.35 691.38 1339.50
  Q 702.78 1341.51 709.36 1343.15
  Q 716.62 1344.96 726.67 1346.48
  Q 733.12 1347.45 744.01 1349.63
  Q 770.74 1354.98 778.26 1356.36
  Q 819.58 1363.94 852.11 1366.34
  Q 860.09 1366.93 866.06 1368.97
  Z
  M 178.08 1399.06
  C 181.93 1392.14 183.36 1383.73 184.47 1376.02
  A 0.98 0.94 -61.1 0 0 184.28 1375.31
  L 182.85 1373.45
  A 1.42 1.41 55.7 0 0 181.00 1373.10
  C 175.94 1376.16 175.23 1380.31 174.69 1386.16
  Q 174.08 1392.79 176.13 1398.88
  A 1.07 1.07 0.0 0 0 178.08 1399.06
  Z
  M 163.87 1375.71
  C 160.87 1382.24 162.06 1391.68 163.34 1398.67
  A 0.73 0.73 0.0 0 0 164.65 1398.98
  C 169.66 1392.30 168.39 1383.32 166.45 1375.93
  A 1.38 1.37 -40.1 0 0 163.87 1375.71
  Z
  M 191.93 1396.08
  A 1.01 1.01 0.0 0 0 193.53 1396.67
  Q 200.76 1391.14 203.14 1382.82
  A 2.08 2.06 -56.0 0 0 202.79 1381.00
  L 200.33 1377.80
  A 1.20 1.20 0.0 0 0 198.39 1377.85
  C 194.81 1383.07 190.42 1389.13 191.93 1396.08
  Z
  M 139.92 1378.69
  C 138.26 1384.84 142.43 1393.84 146.87 1397.91
  C 148.29 1399.20 149.61 1399.04 150.83 1398.03
  A 1.14 1.13 -22.4 0 0 151.24 1397.06
  C 150.66 1390.80 149.17 1383.77 145.27 1378.73
  A 1.93 1.93 0.0 0 0 143.93 1377.99
  L 141.32 1377.73
  A 1.31 1.30 -79.4 0 0 139.92 1378.69
  Z
  M 392.28 1413.99
  A 1.05 1.04 12.3 0 0 390.95 1414.84
  Q 389.86 1422.25 392.38 1429.62
  Q 394.03 1434.44 398.81 1436.40
  A 0.66 0.66 0.0 0 0 399.71 1435.89
  Q 400.51 1430.61 400.27 1424.22
  Q 399.97 1416.29 392.28 1413.99
  Z
  M 385.28 1437.47
  Q 384.45 1427.87 379.52 1417.49
  Q 378.19 1414.67 374.76 1415.48
  A 0.76 0.75 -2.0 0 0 374.21 1416.06
  C 373.11 1421.84 374.91 1428.07 377.63 1432.96
  Q 379.65 1436.60 383.81 1438.50
  A 1.04 1.04 0.0 0 0 385.28 1437.47
  Z
  M 410.57 1418.68
  C 406.90 1423.60 405.90 1430.28 406.21 1436.57
  A 1.11 1.11 0.0 0 0 408.00 1437.39
  Q 413.03 1433.45 416.02 1427.97
  A 3.17 3.15 -44.2 0 0 416.07 1425.01
  L 413.00 1418.90
  A 1.43 1.43 0.0 0 0 410.57 1418.68
  Z
  M 367.31 1440.77
  C 369.80 1433.36 367.13 1427.20 363.88 1420.52
  A 2.01 2.01 0.0 0 0 360.35 1420.35
  C 356.12 1427.32 361.08 1435.64 365.92 1441.06
  A 0.82 0.82 0.0 0 0 367.31 1440.77
  Z"
/>
<path fill="#a4e7f8" d="
  M 0.00 1266.76
  L 0.00 1266.11
  Q 0.33 1266.16 0.00 1266.76
  Z"
/>
<path fill="#b1d043" d="
  M 854.85 1275.15
  A 1.66 1.65 40.8 0 1 856.96 1275.00
  Q 862.28 1278.84 860.72 1284.79
  C 859.36 1289.96 857.26 1295.12 852.64 1298.22
  A 1.63 1.62 -56.7 0 1 851.44 1298.47
  Q 849.20 1298.04 848.42 1296.27
  A 2.57 2.48 36.0 0 1 848.21 1295.09
  C 848.65 1288.28 849.80 1280.02 854.85 1275.15
  Z"
/>
<path fill="#b1d043" d="
  M 838.89 1275.62
  C 840.81 1282.66 838.92 1290.69 836.78 1297.60
  A 1.07 1.07 0.0 0 1 835.16 1298.17
  L 832.37 1296.30
  A 1.28 1.26 -74.4 0 1 831.81 1295.28
  Q 831.79 1294.16 832.34 1289.58
  C 832.98 1284.23 833.55 1279.42 837.26 1275.24
  A 0.95 0.95 0.0 0 1 838.89 1275.62
  Z"
/>
<path fill="#b1d043" d="
  M 819.59 1297.04
  A 0.99 0.99 0.0 0 1 817.76 1297.16
  Q 813.81 1288.83 814.70 1277.94
  A 0.80 0.79 0.4 0 1 815.45 1277.21
  Q 817.60 1277.12 819.12 1277.92
  A 1.55 1.55 0.0 0 1 819.88 1278.86
  Q 822.58 1287.95 819.59 1297.04
  Z"
/>
<path fill="#9dc13e" d="
  M 1024.00 1356.26
  L 1024.00 1536.00
  L 1019.12 1536.00
  Q 1018.29 1535.65 1018.25 1536.00
  L 0.50 1536.00
  L 0.00 1535.37
  L 0.00 1441.65
  C 5.71 1441.96 11.45 1442.18 16.99 1443.29
  Q 30.72 1446.05 43.55 1447.67
  A 0.35 0.34 -14.9 0 0 43.87 1447.12
  C 41.02 1443.36 37.86 1439.36 37.58 1434.58
  A 1.78 1.77 11.3 0 1 40.13 1432.88
  C 45.35 1435.45 48.42 1441.12 50.63 1445.75
  A 0.79 0.79 0.0 0 0 51.18 1446.18
  L 57.35 1447.50
  A 0.45 0.45 0.0 0 0 57.90 1447.05
  Q 57.89 1444.79 57.03 1436.78
  C 56.66 1433.24 56.68 1429.31 56.79 1426.15
  A 0.86 0.86 0.0 0 1 58.15 1425.49
  C 62.16 1428.37 64.20 1431.77 65.33 1436.61
  C 66.68 1442.37 67.27 1447.15 71.55 1451.72
  A 0.61 0.61 0.0 0 0 72.60 1451.41
  Q 73.49 1446.59 73.83 1444.91
  C 75.04 1438.95 74.65 1432.54 76.69 1427.35
  A 1.14 1.14 0.0 0 1 77.99 1426.65
  L 79.87 1427.05
  A 1.59 1.58 87.1 0 1 81.05 1428.12
  C 83.78 1436.47 83.60 1443.05 82.82 1451.68
  A 0.62 0.62 0.0 0 0 83.76 1452.27
  Q 87.69 1449.93 89.75 1445.54
  Q 93.24 1438.12 95.34 1434.78
  A 1.78 1.73 5.1 0 1 96.20 1434.08
  Q 97.82 1433.44 100.08 1433.91
  A 0.73 0.73 0.0 0 1 100.66 1434.61
  C 100.82 1441.10 99.05 1444.98 96.45 1452.15
  A 1.58 1.58 0.0 0 0 97.60 1454.23
  L 101.59 1455.08
  A 2.39 2.38 -70.9 0 0 104.24 1453.79
  C 107.10 1447.89 108.98 1443.94 111.85 1440.12
  C 113.22 1438.29 115.46 1438.40 117.08 1438.69
  A 1.23 1.23 0.0 0 1 118.08 1440.08
  C 117.31 1445.26 115.34 1448.21 112.03 1454.73
  A 1.51 1.51 0.0 0 0 112.93 1456.86
  L 118.50 1458.58
  A 1.90 1.90 0.0 0 0 120.73 1457.68
  Q 120.76 1457.62 123.46 1453.60
  C 125.94 1449.91 128.70 1448.42 133.08 1448.19
  A 0.71 0.71 0.0 0 1 133.82 1448.85
  Q 134.19 1454.89 130.96 1460.27
  A 0.67 0.66 19.5 0 0 131.44 1461.27
  C 146.24 1463.24 162.37 1467.05 177.67 1470.10
  Q 184.43 1471.45 201.36 1474.99
  Q 223.47 1479.62 247.84 1483.13
  C 250.05 1483.45 252.25 1484.03 254.44 1484.72
  A 0.15 0.15 0.0 0 0 254.64 1484.55
  L 252.48 1473.26
  A 1.22 1.22 0.0 0 1 253.45 1471.83
  L 257.21 1471.11
  A 1.01 1.01 0.0 0 1 258.20 1471.48
  Q 262.94 1477.51 264.35 1482.63
  C 265.30 1486.10 267.61 1486.73 270.61 1486.03
  A 0.59 0.58 -8.2 0 0 271.07 1485.43
  Q 270.61 1477.73 270.70 1466.16
  C 270.72 1463.00 272.36 1462.90 274.72 1462.73
  A 0.91 0.90 76.8 0 1 275.63 1463.30
  Q 277.58 1468.11 277.66 1470.92
  Q 277.95 1480.12 278.76 1487.10
  A 1.00 0.98 -67.5 0 0 278.96 1487.60
  Q 279.38 1488.17 280.27 1487.57
  A 0.83 0.81 -44.6 0 1 281.20 1487.57
  Q 282.28 1488.32 283.18 1488.37
  A 0.83 0.82 10.0 0 0 284.01 1487.80
  Q 287.76 1475.88 288.37 1474.17
  Q 289.72 1470.36 293.81 1467.98
  A 0.76 0.76 0.0 0 1 294.70 1468.07
  Q 296.22 1469.46 296.10 1470.78
  Q 295.45 1477.98 293.46 1485.40
  Q 292.80 1487.87 292.57 1490.50
  A 0.74 0.73 -5.7 0 0 293.52 1491.27
  Q 298.65 1489.76 301.37 1485.15
  Q 303.86 1480.94 306.93 1475.93
  A 1.58 1.57 21.7 0 1 308.60 1475.22
  L 311.33 1475.80
  A 1.23 1.22 -78.6 0 1 312.27 1477.23
  Q 310.97 1484.13 307.71 1490.94
  A 1.64 1.63 26.8 0 0 308.43 1493.10
  Q 309.81 1493.82 310.99 1493.03
  C 315.20 1490.21 316.53 1488.27 321.12 1482.89
  Q 322.19 1481.64 325.97 1479.86
  A 1.27 1.24 41.1 0 1 326.90 1479.81
  Q 330.26 1480.93 328.78 1483.98
  Q 326.76 1488.13 323.48 1491.71
  A 1.00 1.00 0.0 0 0 324.16 1493.38
  Q 347.07 1494.65 359.51 1495.51
  Q 377.81 1496.78 389.21 1496.40
  C 414.71 1495.57 440.77 1493.35 461.68 1490.15
  Q 470.45 1488.80 490.31 1484.71
  Q 498.24 1483.07 502.49 1481.84
  C 507.84 1480.30 512.67 1479.31 518.59 1477.32
  Q 540.34 1470.01 568.06 1461.93
  C 578.72 1458.82 590.23 1453.59 599.27 1452.06
  A 0.47 0.47 0.0 0 0 599.45 1451.20
  C 594.90 1448.27 591.99 1446.35 589.05 1441.91
  A 0.81 0.80 47.9 0 1 589.09 1440.97
  Q 590.49 1439.22 591.85 1439.64
  Q 596.82 1441.21 599.09 1442.71
  C 601.68 1444.41 603.86 1446.59 606.73 1447.50
  Q 608.76 1448.15 611.97 1448.36
  A 0.51 0.51 0.0 0 0 612.46 1447.62
  L 604.41 1431.61
  A 1.00 1.00 0.0 0 1 605.12 1430.18
  L 608.19 1429.59
  A 2.90 2.90 0.0 0 1 611.04 1430.67
  L 621.40 1444.12
  A 1.31 1.28 -8.3 0 0 621.99 1444.55
  Q 623.51 1445.07 624.51 1443.70
  A 1.08 1.06 -27.7 0 0 624.71 1443.08
  Q 624.75 1440.11 622.17 1425.17
  Q 621.59 1421.77 625.05 1420.08
  A 0.87 0.86 -37.0 0 1 626.00 1420.21
  C 631.94 1425.54 632.94 1431.64 633.60 1439.30
  A 0.92 0.92 0.0 0 0 634.83 1440.09
  L 640.61 1438.00
  A 1.49 1.49 0.0 0 0 641.57 1436.37
  C 640.62 1430.18 639.91 1421.58 645.46 1417.39
  A 1.35 1.35 0.0 0 1 647.23 1417.52
  C 651.37 1421.68 650.21 1427.46 649.99 1434.73
  A 0.37 0.37 0.0 0 0 650.48 1435.10
  C 653.67 1434.06 657.04 1432.96 659.03 1430.03
  C 660.27 1428.20 661.10 1424.13 663.37 1422.17
  Q 665.75 1420.12 669.24 1419.75
  A 0.80 0.80 0.0 0 1 670.12 1420.39
  L 671.11 1425.61
  A 0.85 0.85 0.0 0 1 670.79 1426.45
  L 668.01 1428.60
  A 0.69 0.69 0.0 0 0 668.63 1429.81
  C 679.23 1426.70 690.10 1421.94 700.62 1418.53
  Q 710.85 1415.21 716.37 1412.86
  C 718.71 1411.87 722.83 1410.99 726.07 1409.83
  Q 742.40 1404.00 754.16 1400.44
  C 764.27 1397.38 771.59 1394.59 780.79 1391.77
  Q 791.42 1388.51 812.03 1382.37
  Q 831.41 1376.60 859.30 1371.08
  Q 861.62 1370.62 866.06 1368.97
  C 874.06 1368.05 882.11 1367.18 890.08 1365.71
  Q 896.24 1364.57 900.63 1364.79
  A 0.39 0.39 0.0 0 0 901.00 1364.23
  L 898.39 1359.05
  A 1.46 1.45 -26.0 0 1 899.07 1357.08
  Q 903.08 1355.20 906.16 1357.04
  C 908.70 1358.57 909.87 1361.83 912.47 1362.37
  Q 914.37 1362.76 916.06 1362.59
  A 1.10 1.09 86.8 0 0 917.03 1361.50
  L 917.03 1349.53
  A 1.93 1.92 -0.9 0 1 918.90 1347.61
  Q 920.60 1347.56 922.63 1348.87
  A 0.98 0.95 4.1 0 1 922.99 1349.27
  L 926.60 1356.79
  A 3.31 3.19 28.0 0 1 926.90 1357.71
  L 927.27 1360.01
  A 0.69 0.68 88.4 0 0 927.88 1360.59
  L 932.44 1361.05
  A 0.69 0.68 -78.2 0 0 933.15 1360.58
  Q 935.08 1354.68 934.81 1349.86
  A 2.35 2.25 57.0 0 1 935.03 1348.71
  Q 936.54 1345.47 939.57 1343.72
  A 0.75 0.74 -38.9 0 1 940.44 1343.81
  Q 942.17 1345.37 942.15 1346.66
  Q 942.01 1355.86 941.97 1356.28
  Q 941.58 1360.24 945.48 1360.53
  A 0.92 0.90 -72.1 0 0 946.32 1360.09
  Q 948.18 1356.96 948.53 1352.65
  Q 948.81 1349.25 949.60 1348.10
  C 952.31 1344.12 953.50 1342.49 958.41 1341.96
  A 1.06 1.06 0.0 0 1 959.56 1343.24
  L 956.15 1359.19
  A 0.97 0.97 0.0 0 0 957.53 1360.26
  L 960.47 1358.78
  A 2.69 2.68 -4.2 0 0 961.82 1357.22
  L 965.33 1346.67
  A 2.04 2.03 81.7 0 1 966.07 1345.67
  Q 968.03 1344.28 969.92 1344.10
  A 1.29 1.29 0.0 0 1 971.33 1345.30
  Q 971.74 1351.49 969.47 1357.18
  A 1.04 1.04 0.0 0 0 970.44 1358.61
  L 975.14 1358.61
  A 1.54 1.53 1.6 0 0 976.68 1357.16
  C 976.85 1354.39 980.02 1346.69 984.44 1347.64
  A 1.05 1.05 0.0 0 1 985.21 1348.31
  Q 987.01 1353.36 983.54 1356.64
  A 0.64 0.64 0.0 0 0 983.92 1357.75
  Q 987.52 1358.05 991.26 1357.76
  Q 994.37 1357.51 995.02 1356.98
  A 1.80 1.76 -9.4 0 0 995.56 1356.24
  Q 996.14 1354.73 998.12 1353.60
  A 0.39 0.39 0.0 0 1 998.70 1353.91
  Q 998.80 1355.61 997.48 1356.28
  A 0.40 0.40 0.0 0 0 997.63 1357.04
  L 1001.23 1357.33
  A 0.14 0.09 31.7 0 0 1001.30 1357.33
  L 1024.00 1356.26
  Z"
/>
<path fill="#b1d043" d="
  M 914.00 1359.13
  Q 910.29 1351.59 912.04 1344.18
  A 1.42 1.42 0.0 0 1 914.21 1343.33
  L 914.70 1343.66
  A 2.80 2.80 0.0 0 1 915.81 1346.83
  Q 914.25 1351.82 914.66 1358.96
  A 0.35 0.35 0.0 0 1 914.00 1359.13
  Z"
/>
<path fill="#9dc13e" d="
  M 178.08 1399.06
  A 1.07 1.07 0.0 0 1 176.13 1398.88
  Q 174.08 1392.79 174.69 1386.16
  C 175.23 1380.31 175.94 1376.16 181.00 1373.10
  A 1.42 1.41 55.7 0 1 182.85 1373.45
  L 184.28 1375.31
  A 0.98 0.94 -61.1 0 1 184.47 1376.02
  C 183.36 1383.73 181.93 1392.14 178.08 1399.06
  Z"
/>
<path fill="#9dc13e" d="
  M 163.87 1375.71
  A 1.38 1.37 -40.1 0 1 166.45 1375.93
  C 168.39 1383.32 169.66 1392.30 164.65 1398.98
  A 0.73 0.73 0.0 0 1 163.34 1398.67
  C 162.06 1391.68 160.87 1382.24 163.87 1375.71
  Z"
/>
<path fill="#9dc13e" d="
  M 191.93 1396.08
  C 190.42 1389.13 194.81 1383.07 198.39 1377.85
  A 1.20 1.20 0.0 0 1 200.33 1377.80
  L 202.79 1381.00
  A 2.08 2.06 -56.0 0 1 203.14 1382.82
  Q 200.76 1391.14 193.53 1396.67
  A 1.01 1.01 0.0 0 1 191.93 1396.08
  Z"
/>
<path fill="#9dc13e" d="
  M 141.32 1377.73
  L 143.93 1377.99
  A 1.93 1.93 0.0 0 1 145.27 1378.73
  C 149.17 1383.77 150.66 1390.80 151.24 1397.06
  A 1.14 1.13 -22.4 0 1 150.83 1398.03
  C 149.61 1399.04 148.29 1399.20 146.87 1397.91
  C 142.43 1393.84 138.26 1384.84 139.92 1378.69
  A 1.31 1.30 -79.4 0 1 141.32 1377.73
  Z"
/>
<path fill="#9dc13e" d="
  M 392.28 1413.99
  Q 399.97 1416.29 400.27 1424.22
  Q 400.51 1430.61 399.71 1435.89
  A 0.66 0.66 0.0 0 1 398.81 1436.40
  Q 394.03 1434.44 392.38 1429.62
  Q 389.86 1422.25 390.95 1414.84
  A 1.05 1.04 12.3 0 1 392.28 1413.99
  Z"
/>
<path fill="#9dc13e" d="
  M 385.28 1437.47
  A 1.04 1.04 0.0 0 1 383.81 1438.50
  Q 379.65 1436.60 377.63 1432.96
  C 374.91 1428.07 373.11 1421.84 374.21 1416.06
  A 0.76 0.75 -2.0 0 1 374.76 1415.48
  Q 378.19 1414.67 379.52 1417.49
  Q 384.45 1427.87 385.28 1437.47
  Z"
/>
<path fill="#9dc13e" d="
  M 410.57 1418.68
  A 1.43 1.43 0.0 0 1 413.00 1418.90
  L 416.07 1425.01
  A 3.17 3.15 -44.2 0 1 416.02 1427.97
  Q 413.03 1433.45 408.00 1437.39
  A 1.11 1.11 0.0 0 1 406.21 1436.57
  C 405.90 1430.28 406.90 1423.60 410.57 1418.68
  Z"
/>
<path fill="#9dc13e" d="
  M 367.31 1440.77
  A 0.82 0.82 0.0 0 1 365.92 1441.06
  C 361.08 1435.64 356.12 1427.32 360.35 1420.35
  A 2.01 2.01 0.0 0 1 363.88 1420.52
  C 367.13 1427.20 369.80 1433.36 367.31 1440.77
  Z"
/>
<path fill="#a4e7f8" d="
  M 0.50 1536.00
  L 0.00 1536.00
  L 0.00 1535.37
  L 0.50 1536.00
  Z"
/>
<path fill="#a4e7f8" d="
  M 1019.12 1536.00
  L 1018.25 1536.00
  Q 1018.29 1535.65 1019.12 1536.00
  Z"
/>
</svg>
