<?xml version="1.0" encoding="UTF-8" standalone="no"?>
<!DOCTYPE svg PUBLIC "-//W3C//DTD SVG 1.1//EN" "http://www.w3.org/Graphics/SVG/1.1/DTD/svg11.dtd">
<svg xmlns="http://www.w3.org/2000/svg" version="1.1" viewBox="0.00 0.00 542.00 622.00">
<g stroke-width="2.00" fill="none" stroke-linecap="butt">
<path stroke="#808080" vector-effect="non-scaling-stroke" d="
  M 273.88 603.41
  Q 290.36 603.41 305.02 598.55
  C 336.56 588.10 359.83 560.38 367.24 528.00
  A 1.28 1.27 -83.4 0 1 368.48 527.01
  Q 467.07 526.94 469.45 526.97
  Q 477.34 527.09 482.97 526.09
  C 513.23 520.74 525.52 490.53 512.28 464.21
  Q 509.17 458.03 499.34 443.96
  C 485.13 423.61 476.11 399.59 471.69 374.95
  Q 468.86 359.18 467.13 344.78
  Q 465.88 334.30 461.63 286.26
  C 458.86 254.82 455.17 222.31 443.13 192.50
  C 426.24 150.71 391.80 117.93 349.30 103.19
  Q 341.31 100.42 335.36 98.77
  A 0.70 0.69 -80.7 0 1 334.86 98.06
  Q 335.48 87.71 335.02 76.50
  C 333.92 49.68 317.59 29.52 290.73 25.08
  Q 284.14 24.00 273.78 24.00
  Q 263.41 24.00 256.82 25.09
  C 229.96 29.54 213.64 49.70 212.55 76.52
  Q 212.10 87.73 212.72 98.08
  A 0.70 0.69 80.7 0 1 212.22 98.79
  Q 206.27 100.45 198.28 103.22
  C 155.79 117.97 121.36 150.77 104.48 192.56
  C 92.45 222.38 88.78 254.89 86.02 286.33
  Q 81.79 334.37 80.54 344.85
  Q 78.82 359.25 75.99 375.02
  C 71.58 399.66 62.57 423.69 48.37 444.04
  Q 38.54 458.12 35.43 464.30
  C 22.20 490.62 34.51 520.83 64.77 526.17
  Q 70.40 527.17 78.29 527.04
  Q 80.67 527.01 179.26 527.05
  A 1.28 1.27 83.4 0 1 180.50 528.03
  C 187.92 560.41 211.20 588.12 242.74 598.56
  Q 257.40 603.41 273.88 603.41"
/>
<path stroke="#808080" vector-effect="non-scaling-stroke" d="
  M 245.15 94.29
  Q 246.43 94.36 247.75 94.23
  Q 268.48 92.18 286.00 93.18
  Q 297.75 93.85 302.91 94.14
  A 1.21 1.21 0.0 0 0 304.18 93.06
  Q 305.50 81.44 303.02 70.97
  C 301.86 66.05 298.32 60.76 294.05 58.77
  C 282.85 53.57 271.11 53.73 259.24 56.26
  Q 252.79 57.63 250.52 58.88
  C 242.98 62.99 241.53 73.33 242.07 81.25
  Q 242.48 87.43 243.03 92.30
  A 2.25 2.25 0.0 0 0 245.15 94.29"
/>
<path stroke="#7b6626" vector-effect="non-scaling-stroke" d="
  M 123.00 239.60
  Q 122.02 244.46 121.58 247.28
  Q 117.62 273.08 115.44 301.99
  Q 113.32 330.17 109.44 361.74
  C 105.37 394.78 96.74 427.34 77.91 454.68
  Q 77.54 455.23 65.80 471.56
  Q 63.41 474.90 61.62 480.31
  Q 59.77 485.90 63.02 490.69
  C 66.14 495.27 70.32 495.56 76.24 495.56
  Q 351.48 495.75 475.52 495.51
  C 484.28 495.50 488.89 487.53 486.11 479.57
  Q 484.42 474.74 481.87 470.87
  Q 480.54 468.85 469.85 453.48
  C 452.95 429.19 444.18 398.96 439.58 367.67
  Q 438.64 361.28 437.12 347.98
  C 433.93 319.96 432.19 287.02 428.67 260.27
  C 425.29 234.52 419.26 209.04 406.09 186.88
  C 389.03 158.16 362.21 138.93 330.34 129.43
  Q 311.36 123.77 292.49 122.33
  Q 262.49 120.04 234.26 125.00
  Q 216.80 128.07 201.89 134.66
  Q 152.42 156.49 132.42 207.15
  Q 126.59 221.90 123.00 239.60"
/>
<path stroke="#7b6626" vector-effect="non-scaling-stroke" d="
  M 334.61 527.17
  L 214.08 527.17
  A 0.46 0.46 0.0 0 0 213.64 527.76
  C 221.98 555.34 243.09 570.84 271.14 572.07
  C 293.18 573.04 313.39 564.49 325.93 545.98
  Q 331.52 537.72 335.00 527.71
  A 0.41 0.41 0.0 0 0 334.61 527.17"
/>
</g>
<path fill="#ffffff" d="
  M 542.00 0.00
  L 542.00 622.00
  L 0.00 622.00
  L 0.00 0.00
  L 542.00 0.00
  Z
  M 273.88 603.41
  Q 290.36 603.41 305.02 598.55
  C 336.56 588.10 359.83 560.38 367.24 528.00
  A 1.28 1.27 -83.4 0 1 368.48 527.01
  Q 467.07 526.94 469.45 526.97
  Q 477.34 527.09 482.97 526.09
  C 513.23 520.74 525.52 490.53 512.28 464.21
  Q 509.17 458.03 499.34 443.96
  C 485.13 423.61 476.11 399.59 471.69 374.95
  Q 468.86 359.18 467.13 344.78
  Q 465.88 334.30 461.63 286.26
  C 458.86 254.82 455.17 222.31 443.13 192.50
  C 426.24 150.71 391.80 117.93 349.30 103.19
  Q 341.31 100.42 335.36 98.77
  A 0.70 0.69 -80.7 0 1 334.86 98.06
  Q 335.48 87.71 335.02 76.50
  C 333.92 49.68 317.59 29.52 290.73 25.08
  Q 284.14 24.00 273.78 24.00
  Q 263.41 24.00 256.82 25.09
  C 229.96 29.54 213.64 49.70 212.55 76.52
  Q 212.10 87.73 212.72 98.08
  A 0.70 0.69 80.7 0 1 212.22 98.79
  Q 206.27 100.45 198.28 103.22
  C 155.79 117.97 121.36 150.77 104.48 192.56
  C 92.45 222.38 88.78 254.89 86.02 286.33
  Q 81.79 334.37 80.54 344.85
  Q 78.82 359.25 75.99 375.02
  C 71.58 399.66 62.57 423.69 48.37 444.04
  Q 38.54 458.12 35.43 464.30
  C 22.20 490.62 34.51 520.83 64.77 526.17
  Q 70.40 527.17 78.29 527.04
  Q 80.67 527.01 179.26 527.05
  A 1.28 1.27 83.4 0 1 180.50 528.03
  C 187.92 560.41 211.20 588.12 242.74 598.56
  Q 257.40 603.41 273.88 603.41
  Z"
/>
<path fill="#000000" d="
  M 273.78 24.00
  Q 284.14 24.00 290.73 25.08
  C 317.59 29.52 333.92 49.68 335.02 76.50
  Q 335.48 87.71 334.86 98.06
  A 0.70 0.69 -80.7 0 0 335.36 98.77
  Q 341.31 100.42 349.30 103.19
  C 391.80 117.93 426.24 150.71 443.13 192.50
  C 455.17 222.31 458.86 254.82 461.63 286.26
  Q 465.88 334.30 467.13 344.78
  Q 468.86 359.18 471.69 374.95
  C 476.11 399.59 485.13 423.61 499.34 443.96
  Q 509.17 458.03 512.28 464.21
  C 525.52 490.53 513.23 520.74 482.97 526.09
  Q 477.34 527.09 469.45 526.97
  Q 467.07 526.94 368.48 527.01
  A 1.28 1.27 -83.4 0 0 367.24 528.00
  C 359.83 560.38 336.56 588.10 305.02 598.55
  Q 290.36 603.41 273.88 603.41
  Q 257.40 603.41 242.74 598.56
  C 211.20 588.12 187.92 560.41 180.50 528.03
  A 1.28 1.27 83.4 0 0 179.26 527.05
  Q 80.67 527.01 78.29 527.04
  Q 70.40 527.17 64.77 526.17
  C 34.51 520.83 22.20 490.62 35.43 464.30
  Q 38.54 458.12 48.37 444.04
  C 62.57 423.69 71.58 399.66 75.99 375.02
  Q 78.82 359.25 80.54 344.85
  Q 81.79 334.37 86.02 286.33
  C 88.78 254.89 92.45 222.38 104.48 192.56
  C 121.36 150.77 155.79 117.97 198.28 103.22
  Q 206.27 100.45 212.22 98.79
  A 0.70 0.69 80.7 0 0 212.72 98.08
  Q 212.10 87.73 212.55 76.52
  C 213.64 49.70 229.96 29.54 256.82 25.09
  Q 263.41 24.00 273.78 24.00
  Z
  M 245.15 94.29
  Q 246.43 94.36 247.75 94.23
  Q 268.48 92.18 286.00 93.18
  Q 297.75 93.85 302.91 94.14
  A 1.21 1.21 0.0 0 0 304.18 93.06
  Q 305.50 81.44 303.02 70.97
  C 301.86 66.05 298.32 60.76 294.05 58.77
  C 282.85 53.57 271.11 53.73 259.24 56.26
  Q 252.79 57.63 250.52 58.88
  C 242.98 62.99 241.53 73.33 242.07 81.25
  Q 242.48 87.43 243.03 92.30
  A 2.25 2.25 0.0 0 0 245.15 94.29
  Z
  M 123.00 239.60
  Q 122.02 244.46 121.58 247.28
  Q 117.62 273.08 115.44 301.99
  Q 113.32 330.17 109.44 361.74
  C 105.37 394.78 96.74 427.34 77.91 454.68
  Q 77.54 455.23 65.80 471.56
  Q 63.41 474.90 61.62 480.31
  Q 59.77 485.90 63.02 490.69
  C 66.14 495.27 70.32 495.56 76.24 495.56
  Q 351.48 495.75 475.52 495.51
  C 484.28 495.50 488.89 487.53 486.11 479.57
  Q 484.42 474.74 481.87 470.87
  Q 480.54 468.85 469.85 453.48
  C 452.95 429.19 444.18 398.96 439.58 367.67
  Q 438.64 361.28 437.12 347.98
  C 433.93 319.96 432.19 287.02 428.67 260.27
  C 425.29 234.52 419.26 209.04 406.09 186.88
  C 389.03 158.16 362.21 138.93 330.34 129.43
  Q 311.36 123.77 292.49 122.33
  Q 262.49 120.04 234.26 125.00
  Q 216.80 128.07 201.89 134.66
  Q 152.42 156.49 132.42 207.15
  Q 126.59 221.90 123.00 239.60
  Z
  M 334.61 527.17
  L 214.08 527.17
  A 0.46 0.46 0.0 0 0 213.64 527.76
  C 221.98 555.34 243.09 570.84 271.14 572.07
  C 293.18 573.04 313.39 564.49 325.93 545.98
  Q 331.52 537.72 335.00 527.71
  A 0.41 0.41 0.0 0 0 334.61 527.17
  Z"
/>
<path fill="#ffffff" d="
  M 245.15 94.29
  A 2.25 2.25 0.0 0 1 243.03 92.30
  Q 242.48 87.43 242.07 81.25
  C 241.53 73.33 242.98 62.99 250.52 58.88
  Q 252.79 57.63 259.24 56.26
  C 271.11 53.73 282.85 53.57 294.05 58.77
  C 298.32 60.76 301.86 66.05 303.02 70.97
  Q 305.50 81.44 304.18 93.06
  A 1.21 1.21 0.0 0 1 302.91 94.14
  Q 297.75 93.85 286.00 93.18
  Q 268.48 92.18 247.75 94.23
  Q 246.43 94.36 245.15 94.29
  Z"
/>
<path fill="#f6cb4b" d="
  M 123.00 239.60
  Q 126.59 221.90 132.42 207.15
  Q 152.42 156.49 201.89 134.66
  Q 216.80 128.07 234.26 125.00
  Q 262.49 120.04 292.49 122.33
  Q 311.36 123.77 330.34 129.43
  C 362.21 138.93 389.03 158.16 406.09 186.88
  C 419.26 209.04 425.29 234.52 428.67 260.27
  C 432.19 287.02 433.93 319.96 437.12 347.98
  Q 438.64 361.28 439.58 367.67
  C 444.18 398.96 452.95 429.19 469.85 453.48
  Q 480.54 468.85 481.87 470.87
  Q 484.42 474.74 486.11 479.57
  C 488.89 487.53 484.28 495.50 475.52 495.51
  Q 351.48 495.75 76.24 495.56
  C 70.32 495.56 66.14 495.27 63.02 490.69
  Q 59.77 485.90 61.62 480.31
  Q 63.41 474.90 65.80 471.56
  Q 77.54 455.23 77.91 454.68
  C 96.74 427.34 105.37 394.78 109.44 361.74
  Q 113.32 330.17 115.44 301.99
  Q 117.62 273.08 121.58 247.28
  Q 122.02 244.46 123.00 239.60
  Z"
/>
<path fill="#f6cb4b" d="
  M 334.61 527.17
  A 0.41 0.41 0.0 0 1 335.00 527.71
  Q 331.52 537.72 325.93 545.98
  C 313.39 564.49 293.18 573.04 271.14 572.07
  C 243.09 570.84 221.98 555.34 213.64 527.76
  A 0.46 0.46 0.0 0 1 214.08 527.17
  L 334.61 527.17
  Z"
/>
</svg>
