<?xml version="1.0" encoding="UTF-8" standalone="no"?>
<!DOCTYPE svg PUBLIC "-//W3C//DTD SVG 1.1//EN" "http://www.w3.org/Graphics/SVG/1.1/DTD/svg11.dtd">
<svg xmlns="http://www.w3.org/2000/svg" version="1.1" viewBox="0.00 0.00 516.00 647.00">
<g stroke-width="2.00" fill="none" stroke-linecap="butt">
<path stroke="#808080" vector-effect="non-scaling-stroke" d="
  M 240.63 119.37
  L 294.85 119.47
  A 0.30 0.30 0.0 0 0 295.15 119.17
  L 295.19 94.67
  A 13.97 13.48 0.1 0 0 281.24 81.16
  L 254.36 81.12
  A 13.97 13.48 0.1 0 0 240.37 94.57
  L 240.33 119.07
  A 0.30 0.30 0.0 0 0 240.63 119.37"
/>
<path stroke="#7f6b06" vector-effect="non-scaling-stroke" d="
  M 267.60 470.93
  Q 411.93 470.93 417.00 470.95
  C 420.27 470.96 443.59 469.91 442.87 463.28
  C 442.29 457.94 439.42 452.87 436.57 448.15
  Q 430.08 437.41 424.06 428.15
  Q 415.31 414.71 412.81 400.49
  Q 410.18 385.51 409.33 375.65
  Q 406.08 337.98 402.86 288.20
  Q 402.37 280.50 401.41 274.33
  Q 400.18 266.34 399.39 260.52
  Q 395.73 233.46 386.22 209.25
  C 372.84 175.17 347.75 151.15 311.19 142.92
  Q 296.39 139.58 286.75 138.97
  Q 281.39 138.62 267.60 138.62
  Q 253.82 138.62 248.46 138.97
  Q 238.81 139.58 224.01 142.92
  C 187.45 151.15 162.36 175.17 148.98 209.25
  Q 139.47 233.46 135.81 260.52
  Q 135.02 266.34 133.79 274.33
  Q 132.83 280.50 132.34 288.20
  Q 129.12 337.98 125.87 375.65
  Q 125.02 385.51 122.39 400.49
  Q 119.89 414.71 111.14 428.15
  Q 105.12 437.41 98.63 448.15
  C 95.78 452.87 92.91 457.94 92.33 463.28
  C 91.61 469.91 114.93 470.96 118.20 470.95
  Q 123.27 470.93 267.60 470.93"
/>
<path stroke="#808080" vector-effect="non-scaling-stroke" d="
  M 267.69 527.56
  Q 271.19 527.56 274.79 526.98
  Q 278.28 526.42 278.52 526.33
  C 282.15 524.92 285.58 524.29 288.96 522.45
  Q 303.03 514.80 310.25 500.77
  C 311.93 497.50 312.86 493.52 313.62 490.69
  A 0.52 0.52 0.0 0 0 313.12 490.03
  Q 301.74 489.99 267.66 490.02
  Q 233.57 490.04 222.19 490.10
  A 0.52 0.52 0.0 0 0 221.69 490.76
  C 222.46 493.59 223.39 497.57 225.08 500.83
  Q 232.32 514.85 246.40 522.48
  C 249.79 524.32 253.22 524.94 256.85 526.35
  Q 257.09 526.44 260.58 526.99
  Q 264.18 527.56 267.69 527.56"
/>
<path stroke="#ffcb12" vector-effect="non-scaling-stroke" d="
  M 98.70 463.03
  C 108.05 467.58 118.77 465.69 128.44 465.95
  Q 140.28 466.26 163.05 466.48
  C 174.37 466.58 184.95 467.47 196.22 468.03
  Q 202.27 468.32 216.62 467.92
  Q 227.16 467.63 237.00 467.76
  C 263.57 468.09 290.63 467.41 314.65 467.65
  Q 331.67 467.82 353.45 467.80
  C 364.90 467.79 381.18 466.74 395.02 466.87
  Q 402.95 466.95 412.73 466.98
  C 420.56 467.00 430.76 466.67 437.11 463.31
  A 0.93 0.92 74.2 0 0 437.60 462.43
  C 437.18 456.46 434.38 451.55 430.86 446.14
  C 422.28 432.98 413.12 420.70 409.87 405.32
  Q 407.55 394.33 405.52 379.78
  Q 404.74 374.12 405.05 367.70
  Q 405.16 365.47 404.23 359.39
  C 403.06 351.64 403.54 343.91 402.43 336.24
  Q 400.72 324.41 401.27 311.23
  Q 401.35 309.29 400.43 302.93
  C 399.35 295.48 399.38 288.26 398.45 280.96
  Q 396.25 263.57 395.13 256.31
  Q 392.95 242.04 386.96 222.48
  C 383.82 212.26 378.31 202.41 373.18 193.07
  Q 367.43 182.58 358.55 175.04
  Q 348.89 166.83 344.69 163.82
  Q 342.77 162.46 332.67 156.69
  C 328.17 154.13 323.25 152.74 317.75 150.56
  Q 314.06 149.09 306.70 147.26
  C 296.55 144.74 287.53 142.84 277.86 141.98
  Q 270.79 141.36 260.10 142.36
  Q 234.62 144.73 220.34 148.14
  C 204.60 151.91 190.83 159.98 178.87 170.14
  Q 171.60 176.31 165.37 185.84
  Q 155.62 200.78 149.20 219.69
  Q 145.49 230.62 144.41 238.50
  C 143.20 247.32 141.67 253.82 138.78 269.44
  C 137.01 279.02 137.19 289.73 136.14 300.29
  C 133.76 324.09 132.33 348.66 130.58 372.85
  Q 129.78 384.03 127.35 397.47
  Q 124.44 413.66 116.04 428.03
  Q 113.70 432.03 105.39 444.61
  C 101.52 450.47 98.78 455.30 97.86 461.43
  A 1.52 1.52 0.0 0 0 98.70 463.03"
/>
</g>
<path fill="#000000" d="
  M 333.79 490.76
  Q 332.94 494.48 332.49 498.76
  C 332.32 500.31 331.10 501.74 330.45 503.43
  Q 318.58 534.33 286.44 544.73
  Q 283.18 545.79 278.79 546.11
  A 13.08 12.46 -52.7 0 0 276.67 546.45
  Q 273.17 547.33 272.26 547.33
  C 267.21 547.35 263.30 547.82 259.24 546.81
  C 255.60 545.90 251.49 545.61 247.26 544.25
  Q 226.06 537.42 213.38 519.97
  C 209.52 514.66 206.25 507.57 203.71 501.05
  Q 202.42 497.73 201.48 491.07
  A 0.96 0.95 5.6 0 0 200.84 490.30
  Q 199.55 489.88 196.53 489.88
  Q 125.11 489.91 104.75 489.82
  Q 103.44 489.81 100.90 488.58
  A 5.67 5.46 -28.2 0 0 99.08 488.07
  Q 91.36 487.25 88.72 486.01
  Q 83.48 483.54 80.21 481.31
  C 73.94 477.04 71.69 468.30 72.39 461.10
  Q 72.47 460.29 73.46 454.90
  A 7.46 7.23 63.9 0 1 74.07 453.03
  C 75.68 449.72 77.28 445.18 79.54 441.42
  Q 86.89 429.17 95.59 415.36
  Q 99.59 409.00 101.39 402.21
  C 103.97 392.46 105.68 382.23 106.38 371.14
  C 106.80 364.46 107.86 350.54 109.06 339.86
  C 109.84 332.86 109.78 325.55 110.25 318.71
  Q 111.80 296.52 111.87 294.35
  C 112.01 290.19 113.48 282.17 113.58 276.65
  C 113.65 272.98 114.73 269.90 115.05 266.10
  Q 115.80 257.19 116.74 250.25
  Q 116.99 248.36 117.72 245.74
  C 118.68 242.30 118.69 238.20 119.95 235.16
  A 4.61 4.47 58.1 0 0 120.29 233.59
  Q 120.41 230.39 122.15 224.70
  Q 122.29 224.26 124.01 218.02
  Q 131.26 191.84 145.04 170.79
  C 161.58 145.53 189.29 129.01 218.67 123.22
  A 1.49 1.49 0.0 0 0 219.87 121.75
  Q 219.69 104.17 219.89 93.20
  Q 219.92 91.36 220.90 86.99
  C 223.72 74.41 232.62 65.51 245.02 62.47
  A 6.16 6.04 37.4 0 1 246.32 62.31
  Q 271.67 62.01 288.04 62.25
  C 289.08 62.26 291.73 62.79 292.80 63.20
  Q 308.41 69.20 314.04 85.00
  A 6.30 6.30 0.0 0 1 314.40 87.04
  L 314.90 122.09
  A 1.02 1.01 -85.0 0 0 315.71 123.06
  Q 326.74 125.33 336.87 129.12
  Q 344.94 132.13 351.87 136.04
  C 362.79 142.22 374.54 150.99 382.52 160.94
  Q 390.79 171.26 395.51 179.78
  Q 397.71 183.74 398.15 184.48
  C 400.27 188.06 401.08 190.88 402.75 194.04
  Q 403.77 195.96 404.81 198.86
  Q 411.86 218.45 414.29 230.63
  C 416.96 244.02 418.43 250.90 419.74 259.48
  Q 420.37 263.58 420.54 267.54
  Q 420.76 272.61 422.32 284.97
  Q 423.38 293.27 424.27 310.26
  C 424.55 315.49 425.54 322.76 425.68 328.92
  Q 425.87 337.56 426.28 346.75
  C 426.38 348.92 427.04 351.89 427.28 354.87
  Q 429.38 380.78 430.30 385.00
  Q 431.34 389.78 431.33 392.48
  A 4.74 4.63 38.3 0 0 431.50 393.80
  C 432.68 398.05 434.30 405.96 437.51 411.73
  Q 441.53 418.93 444.70 423.58
  C 448.16 428.65 450.90 433.66 453.67 438.25
  Q 456.69 443.23 458.00 446.40
  C 459.52 450.10 461.64 453.81 462.25 457.87
  Q 463.20 464.12 462.16 470.47
  Q 461.56 474.21 457.16 479.37
  C 454.84 482.10 450.56 483.76 446.83 486.08
  A 2.44 2.27 -64.3 0 1 446.09 486.37
  L 435.01 488.51
  A 0.51 0.50 27.6 0 0 434.84 488.56
  Q 431.66 489.81 429.00 489.82
  Q 394.38 489.91 346.26 489.89
  Q 344.54 489.89 334.53 490.16
  A 0.78 0.77 -83.7 0 0 333.79 490.76
  Z
  M 240.63 119.37
  L 294.85 119.47
  A 0.30 0.30 0.0 0 0 295.15 119.17
  L 295.19 94.67
  A 13.97 13.48 0.1 0 0 281.24 81.16
  L 254.36 81.12
  A 13.97 13.48 0.1 0 0 240.37 94.57
  L 240.33 119.07
  A 0.30 0.30 0.0 0 0 240.63 119.37
  Z
  M 267.60 470.93
  Q 411.93 470.93 417.00 470.95
  C 420.27 470.96 443.59 469.91 442.87 463.28
  C 442.29 457.94 439.42 452.87 436.57 448.15
  Q 430.08 437.41 424.06 428.15
  Q 415.31 414.71 412.81 400.49
  Q 410.18 385.51 409.33 375.65
  Q 406.08 337.98 402.86 288.20
  Q 402.37 280.50 401.41 274.33
  Q 400.18 266.34 399.39 260.52
  Q 395.73 233.46 386.22 209.25
  C 372.84 175.17 347.75 151.15 311.19 142.92
  Q 296.39 139.58 286.75 138.97
  Q 281.39 138.62 267.60 138.62
  Q 253.82 138.62 248.46 138.97
  Q 238.81 139.58 224.01 142.92
  C 187.45 151.15 162.36 175.17 148.98 209.25
  Q 139.47 233.46 135.81 260.52
  Q 135.02 266.34 133.79 274.33
  Q 132.83 280.50 132.34 288.20
  Q 129.12 337.98 125.87 375.65
  Q 125.02 385.51 122.39 400.49
  Q 119.89 414.71 111.14 428.15
  Q 105.12 437.41 98.63 448.15
  C 95.78 452.87 92.91 457.94 92.33 463.28
  C 91.61 469.91 114.93 470.96 118.20 470.95
  Q 123.27 470.93 267.60 470.93
  Z
  M 267.69 527.56
  Q 271.19 527.56 274.79 526.98
  Q 278.28 526.42 278.52 526.33
  C 282.15 524.92 285.58 524.29 288.96 522.45
  Q 303.03 514.80 310.25 500.77
  C 311.93 497.50 312.86 493.52 313.62 490.69
  A 0.52 0.52 0.0 0 0 313.12 490.03
  Q 301.74 489.99 267.66 490.02
  Q 233.57 490.04 222.19 490.10
  A 0.52 0.52 0.0 0 0 221.69 490.76
  C 222.46 493.59 223.39 497.57 225.08 500.83
  Q 232.32 514.85 246.40 522.48
  C 249.79 524.32 253.22 524.94 256.85 526.35
  Q 257.09 526.44 260.58 526.99
  Q 264.18 527.56 267.69 527.56
  Z"
/>
<path fill="#ffffff" d="
  M 240.63 119.37
  A 0.30 0.30 0.0 0 1 240.33 119.07
  L 240.37 94.57
  A 13.97 13.48 0.1 0 1 254.36 81.12
  L 281.24 81.16
  A 13.97 13.48 0.1 0 1 295.19 94.67
  L 295.15 119.17
  A 0.30 0.30 0.0 0 1 294.85 119.47
  L 240.63 119.37
  Z"
/>
<path fill="#fed60d" fill-opacity="0.996" d="
  M 267.60 138.62
  Q 281.39 138.62 286.75 138.97
  Q 296.39 139.58 311.19 142.92
  C 347.75 151.15 372.84 175.17 386.22 209.25
  Q 395.73 233.46 399.39 260.52
  Q 400.18 266.34 401.41 274.33
  Q 402.37 280.50 402.86 288.20
  Q 406.08 337.98 409.33 375.65
  Q 410.18 385.51 412.81 400.49
  Q 415.31 414.71 424.06 428.15
  Q 430.08 437.41 436.57 448.15
  C 439.42 452.87 442.29 457.94 442.87 463.28
  C 443.59 469.91 420.27 470.96 417.00 470.95
  Q 411.93 470.93 267.60 470.93
  Q 123.27 470.93 118.20 470.95
  C 114.93 470.96 91.61 469.91 92.33 463.28
  C 92.91 457.94 95.78 452.87 98.63 448.15
  Q 105.12 437.41 111.14 428.15
  Q 119.89 414.71 122.39 400.49
  Q 125.02 385.51 125.87 375.65
  Q 129.12 337.98 132.34 288.20
  Q 132.83 280.50 133.79 274.33
  Q 135.02 266.34 135.81 260.52
  Q 139.47 233.46 148.98 209.25
  C 162.36 175.17 187.45 151.15 224.01 142.92
  Q 238.81 139.58 248.46 138.97
  Q 253.82 138.62 267.60 138.62
  Z
  M 98.70 463.03
  C 108.05 467.58 118.77 465.69 128.44 465.95
  Q 140.28 466.26 163.05 466.48
  C 174.37 466.58 184.95 467.47 196.22 468.03
  Q 202.27 468.32 216.62 467.92
  Q 227.16 467.63 237.00 467.76
  C 263.57 468.09 290.63 467.41 314.65 467.65
  Q 331.67 467.82 353.45 467.80
  C 364.90 467.79 381.18 466.74 395.02 466.87
  Q 402.95 466.95 412.73 466.98
  C 420.56 467.00 430.76 466.67 437.11 463.31
  A 0.93 0.92 74.2 0 0 437.60 462.43
  C 437.18 456.46 434.38 451.55 430.86 446.14
  C 422.28 432.98 413.12 420.70 409.87 405.32
  Q 407.55 394.33 405.52 379.78
  Q 404.74 374.12 405.05 367.70
  Q 405.16 365.47 404.23 359.39
  C 403.06 351.64 403.54 343.91 402.43 336.24
  Q 400.72 324.41 401.27 311.23
  Q 401.35 309.29 400.43 302.93
  C 399.35 295.48 399.38 288.26 398.45 280.96
  Q 396.25 263.57 395.13 256.31
  Q 392.95 242.04 386.96 222.48
  C 383.82 212.26 378.31 202.41 373.18 193.07
  Q 367.43 182.58 358.55 175.04
  Q 348.89 166.83 344.69 163.82
  Q 342.77 162.46 332.67 156.69
  C 328.17 154.13 323.25 152.74 317.75 150.56
  Q 314.06 149.09 306.70 147.26
  C 296.55 144.74 287.53 142.84 277.86 141.98
  Q 270.79 141.36 260.10 142.36
  Q 234.62 144.73 220.34 148.14
  C 204.60 151.91 190.83 159.98 178.87 170.14
  Q 171.60 176.31 165.37 185.84
  Q 155.62 200.78 149.20 219.69
  Q 145.49 230.62 144.41 238.50
  C 143.20 247.32 141.67 253.82 138.78 269.44
  C 137.01 279.02 137.19 289.73 136.14 300.29
  C 133.76 324.09 132.33 348.66 130.58 372.85
  Q 129.78 384.03 127.35 397.47
  Q 124.44 413.66 116.04 428.03
  Q 113.70 432.03 105.39 444.61
  C 101.52 450.47 98.78 455.30 97.86 461.43
  A 1.52 1.52 0.0 0 0 98.70 463.03
  Z"
/>
<path fill="#ffc016" d="
  M 98.70 463.03
  A 1.52 1.52 0.0 0 1 97.86 461.43
  C 98.78 455.30 101.52 450.47 105.39 444.61
  Q 113.70 432.03 116.04 428.03
  Q 124.44 413.66 127.35 397.47
  Q 129.78 384.03 130.58 372.85
  C 132.33 348.66 133.76 324.09 136.14 300.29
  C 137.19 289.73 137.01 279.02 138.78 269.44
  C 141.67 253.82 143.20 247.32 144.41 238.50
  Q 145.49 230.62 149.20 219.69
  Q 155.62 200.78 165.37 185.84
  Q 171.60 176.31 178.87 170.14
  C 190.83 159.98 204.60 151.91 220.34 148.14
  Q 234.62 144.73 260.10 142.36
  Q 270.79 141.36 277.86 141.98
  C 287.53 142.84 296.55 144.74 306.70 147.26
  Q 314.06 149.09 317.75 150.56
  C 323.25 152.74 328.17 154.13 332.67 156.69
  Q 342.77 162.46 344.69 163.82
  Q 348.89 166.83 358.55 175.04
  Q 367.43 182.58 373.18 193.07
  C 378.31 202.41 383.82 212.26 386.96 222.48
  Q 392.95 242.04 395.13 256.31
  Q 396.25 263.57 398.45 280.96
  C 399.38 288.26 399.35 295.48 400.43 302.93
  Q 401.35 309.29 401.27 311.23
  Q 400.72 324.41 402.43 336.24
  C 403.54 343.91 403.06 351.64 404.23 359.39
  Q 405.16 365.47 405.05 367.70
  Q 404.74 374.12 405.52 379.78
  Q 407.55 394.33 409.87 405.32
  C 413.12 420.70 422.28 432.98 430.86 446.14
  C 434.38 451.55 437.18 456.46 437.60 462.43
  A 0.93 0.92 74.2 0 1 437.11 463.31
  C 430.76 466.67 420.56 467.00 412.73 466.98
  Q 402.95 466.95 395.02 466.87
  C 381.18 466.74 364.90 467.79 353.45 467.80
  Q 331.67 467.82 314.65 467.65
  C 290.63 467.41 263.57 468.09 237.00 467.76
  Q 227.16 467.63 216.62 467.92
  Q 202.27 468.32 196.22 468.03
  C 184.95 467.47 174.37 466.58 163.05 466.48
  Q 140.28 466.26 128.44 465.95
  C 118.77 465.69 108.05 467.58 98.70 463.03
  Z"
/>
<path fill="#ffffff" d="
  M 267.66 490.02
  Q 301.74 489.99 313.12 490.03
  A 0.52 0.52 0.0 0 1 313.62 490.69
  C 312.86 493.52 311.93 497.50 310.25 500.77
  Q 303.03 514.80 288.96 522.45
  C 285.58 524.29 282.15 524.92 278.52 526.33
  Q 278.28 526.42 274.79 526.98
  Q 271.19 527.56 267.69 527.56
  Q 264.18 527.56 260.58 526.99
  Q 257.09 526.44 256.85 526.35
  C 253.22 524.94 249.79 524.32 246.40 522.48
  Q 232.32 514.85 225.08 500.83
  C 223.39 497.57 222.46 493.59 221.69 490.76
  A 0.52 0.52 0.0 0 1 222.19 490.10
  Q 233.57 490.04 267.66 490.02
  Z"
/>
</svg>
