<?xml version="1.0" encoding="UTF-8" standalone="no"?>
<!DOCTYPE svg PUBLIC "-//W3C//DTD SVG 1.1//EN" "http://www.w3.org/Graphics/SVG/1.1/DTD/svg11.dtd">
<svg xmlns="http://www.w3.org/2000/svg" version="1.1" viewBox="0.00 0.00 1024.00 1024.00">
<g stroke-width="2.00" fill="none" stroke-linecap="butt">
<path stroke="#edf7ff" vector-effect="non-scaling-stroke" d="
  M 566.59 894.43
  Q 578.02 895.66 594.90 895.17
  Q 609.24 894.76 659.13 895.52"<?xml version="1.0" encoding="UTF-8" standalone="no"?>
<!DOCTYPE svg PUBLIC "-//W3C//DTD SVG 1.1//EN" "http://www.w3.org/Graphics/SVG/1.1/DTD/svg11.dtd">
<svg xmlns="http://www.w3.org/2000/svg" version="1.1" viewBox="0.00 0.00 1024.00 1024.00">
<g stroke-width="2.00" fill="none" stroke-linecap="butt">
<path stroke="#4c9ce4" vector-effect="non-scaling-stroke" d="
  M 265.09 176.26
  Q 265.07 202.05 265.08 206.53
  Q 265.09 218.04 266.64 222.24
  C 269.66 230.42 277.50 236.37 286.99 236.38
  C 296.48 236.38 304.33 230.44 307.35 222.28
  Q 308.91 218.07 308.94 206.56
  Q 308.96 202.08 308.98 176.29
  Q 309.00 150.49 308.99 146.02
  Q 308.98 134.50 307.42 130.30
  C 304.41 122.13 296.57 116.17 287.08 116.17
  C 277.59 116.16 269.74 122.10 266.71 130.27
  Q 265.15 134.47 265.12 145.98
  Q 265.11 150.46 265.09 176.26"
/>
<path stroke="#4c9ce4" vector-effect="non-scaling-stroke" d="
  M 533.8557 137.4062
  A 20.96 20.96 0.0 0 0 512.9690 116.3731
  L 511.3890 116.3676
  A 20.96 20.96 0.0 0 0 490.3560 137.2543
  L 490.0843 215.0938
  A 20.96 20.96 0.0 0 0 510.9710 236.1269
  L 512.5510 236.1324
  A 20.96 20.96 0.0 0 0 533.5840 215.2457
  L 533.8557 137.4062"
/>
<path stroke="#4c9ce4" vector-effect="non-scaling-stroke" d="
  M 758.85 136.93
  A 20.69 20.69 0.0 0 0 738.16 116.24
  L 736.60 116.24
  A 20.69 20.69 0.0 0 0 715.91 136.93
  L 715.91 215.41
  A 20.69 20.69 0.0 0 0 736.60 236.10
  L 738.16 236.10
  A 20.69 20.69 0.0 0 0 758.85 215.41
  L 758.85 136.93"
/>
<path stroke="#86bff4" vector-effect="non-scaling-stroke" d="
  M 126.79 311.95
  L 897.81 311.95
  A 0.55 0.55 0.0 0 0 898.36 311.41
  Q 898.76 274.19 898.64 231.75
  C 898.61 220.27 895.69 209.95 886.52 202.67
  Q 878.70 196.45 869.74 194.82
  Q 866.20 194.17 851.20 194.14
  C 820.50 194.09 801.17 194.11 788.46 194.35
  A 0.71 0.70 88.8 0 0 787.77 195.08
  Q 787.97 202.22 787.89 210.47
  C 787.78 222.94 785.81 231.94 779.78 241.84
  Q 775.35 249.13 768.00 254.60
  Q 751.93 266.57 731.14 264.85
  Q 723.66 264.23 717.82 261.83
  Q 710.22 258.72 705.84 255.17
  C 696.55 247.62 687.95 235.08 687.06 222.79
  C 686.38 213.58 686.30 206.13 686.33 194.94
  A 0.74 0.74 0.0 0 0 685.59 194.20
  L 562.87 194.20
  A 0.68 0.68 0.0 0 0 562.19 194.91
  Q 562.32 198.44 562.18 212.73
  Q 562.07 223.96 560.28 229.59
  C 552.35 254.61 528.99 267.73 503.23 264.60
  Q 491.67 263.19 482.02 256.05
  Q 461.60 240.94 461.05 215.75
  Q 460.75 202.12 461.11 195.24
  A 1.00 0.99 -88.6 0 0 460.12 194.19
  L 337.76 194.19
  A 0.81 0.80 89.6 0 0 336.96 195.01
  Q 337.09 205.72 336.97 215.99
  C 336.77 233.60 327.19 249.73 312.04 258.19
  C 307.69 260.62 303.27 262.78 298.12 263.86
  C 275.34 268.66 253.64 259.14 242.37 238.84
  Q 236.85 228.91 236.74 217.25
  Q 236.63 206.34 236.60 195.01
  A 0.84 0.84 0.0 0 0 235.76 194.17
  Q 197.01 194.05 164.00 194.17
  Q 155.88 194.20 151.99 195.25
  Q 137.27 199.20 129.96 212.52
  Q 126.54 218.77 126.50 227.01
  Q 126.35 259.33 126.55 311.71
  A 0.24 0.24 0.0 0 0 126.79 311.95"
/>
<path stroke="#86bff4" vector-effect="non-scaling-stroke" d="
  M 512.56 853.00
  Q 832.29 852.99 858.95 852.98
  Q 868.64 852.98 871.48 852.28
  C 884.59 849.06 893.94 839.21 897.48 826.08
  C 898.44 822.53 898.50 817.11 898.55 814.50
  Q 898.69 807.46 898.58 343.59
  A 0.59 0.59 0.0 0 0 897.99 343.00
  Q 705.38 343.12 512.54 343.13
  Q 319.70 343.13 127.09 343.03
  A 0.59 0.59 0.0 0 0 126.50 343.62
  Q 126.42 807.49 126.56 814.53
  C 126.61 817.14 126.67 822.56 127.63 826.11
  C 131.18 839.24 140.53 849.09 153.64 852.30
  Q 156.48 853.00 166.16 853.01
  Q 192.83 853.01 512.56 853.00"
/>
<path stroke="#91c4ef" vector-effect="non-scaling-stroke" d="
  M 307.69 137.10
  A 19.92 19.92 0.0 0 0 287.77 117.18
  L 286.31 117.18
  A 19.92 19.92 0.0 0 0 266.39 137.10
  L 266.39 215.42
  A 19.92 19.92 0.0 0 0 286.31 235.34
  L 287.77 235.34
  A 19.92 19.92 0.0 0 0 307.69 215.42
  L 307.69 137.10"
/>
<path stroke="#91c4ef" vector-effect="non-scaling-stroke" d="
  M 532.2517 137.0941
  A 19.89 19.89 0.0 0 0 512.3270 117.2389
  L 510.9070 117.2413
  A 19.89 19.89 0.0 0 0 491.0518 137.1660
  L 491.1883 215.3859
  A 19.89 19.89 0.0 0 0 511.1130 235.2411
  L 512.5330 235.2387
  A 19.89 19.89 0.0 0 0 532.3882 215.3140
  L 532.2517 137.0941"
/>
<path stroke="#91c4ef" vector-effect="non-scaling-stroke" d="
  M 757.89 136.77
  A 19.74 19.74 0.0 0 0 738.15 117.03
  L 736.71 117.03
  A 19.74 19.74 0.0 0 0 716.97 136.77
  L 716.97 215.47
  A 19.74 19.74 0.0 0 0 736.71 235.21
  L 738.15 235.21
  A 19.74 19.74 0.0 0 0 757.89 215.47
  L 757.89 136.77"
/>
<path stroke="#86bff4" vector-effect="non-scaling-stroke" d="
  M 328.1045 406.0638
  A 16.67 16.67 0.0 0 0 311.4637 389.3647
  L 225.9438 389.2155
  A 16.67 16.67 0.0 0 0 209.2447 405.8563
  L 209.0955 491.3762
  A 16.67 16.67 0.0 0 0 225.7363 508.0753
  L 311.2562 508.2245
  A 16.67 16.67 0.0 0 0 327.9553 491.5837
  L 328.1045 406.0638"
/>
<path stroke="#86bff4" vector-effect="non-scaling-stroke" d="
  M 485.82 503.64
  C 490.73 498.74 490.33 493.54 490.29 486.00
  Q 490.04 440.67 490.28 409.21
  Q 490.29 408.47 489.99 402.86
  A 6.89 6.65 -57.0 0 0 489.63 401.00
  Q 487.16 393.93 480.75 390.93
  Q 477.15 389.24 467.28 389.31
  Q 443.38 389.46 389.08 389.37
  Q 381.48 389.35 376.53 394.31
  Q 371.57 399.26 371.58 406.86
  Q 371.66 461.16 371.50 485.07
  Q 371.43 494.93 373.11 498.53
  Q 376.11 504.94 383.18 507.42
  A 6.89 6.65 -33.0 0 0 385.04 507.78
  Q 390.65 508.08 391.39 508.07
  Q 422.86 507.84 468.18 508.10
  C 475.72 508.14 480.92 508.54 485.82 503.64"
/>
<path stroke="#86bff4" vector-effect="non-scaling-stroke" d="
  M 538.06 503.76
  C 542.98 508.67 548.19 508.27 555.75 508.23
  Q 601.20 507.99 632.75 508.23
  Q 633.49 508.24 639.12 507.94
  A 6.91 6.67 33.0 0 0 640.98 507.58
  Q 648.07 505.10 651.08 498.67
  Q 652.77 495.06 652.70 485.17
  Q 652.55 461.20 652.65 406.75
  Q 652.66 399.14 647.69 394.17
  Q 642.73 389.20 635.11 389.21
  Q 580.66 389.28 556.69 389.13
  Q 546.80 389.05 543.19 390.74
  Q 536.76 393.75 534.28 400.84
  A 6.91 6.67 57.0 0 0 533.92 402.70
  Q 533.62 408.33 533.62 409.07
  Q 533.85 440.62 533.59 486.07
  C 533.55 493.62 533.15 498.84 538.06 503.76"
/>
<path stroke="#86bff4" vector-effect="non-scaling-stroke" d="
  M 695.79 404.87
  L 695.79 492.59
  A 15.67 15.67 0.0 0 0 711.46 508.26
  L 797.82 508.26
  A 17.25 17.03 -90.0 0 0 814.85 491.01
  L 814.85 406.45
  A 17.25 17.03 90.0 0 0 797.82 389.20
  L 711.46 389.20
  A 15.67 15.67 0.0 0 0 695.79 404.87"
/>
<path stroke="#86bff4" vector-effect="non-scaling-stroke" d="
  M 328.01 553.79
  A 16.85 16.85 0.0 0 0 311.16 536.94
  L 226.02 536.94
  A 16.85 16.85 0.0 0 0 209.17 553.79
  L 209.17 638.93
  A 16.85 16.85 0.0 0 0 226.02 655.78
  L 311.16 655.78
  A 16.85 16.85 0.0 0 0 328.01 638.93
  L 328.01 553.79"
/>
<path stroke="#86bff4" vector-effect="non-scaling-stroke" d="
  M 490.2342 553.8934
  A 16.84 16.84 0.0 0 0 473.4236 537.0240
  L 388.7438 536.8762
  A 16.84 16.84 0.0 0 0 371.8744 553.6868
  L 371.7258 638.8266
  A 16.84 16.84 0.0 0 0 388.5364 655.6960
  L 473.2162 655.8438
  A 16.84 16.84 0.0 0 0 490.0856 639.0332
  L 490.2342 553.8934"
/>
<path stroke="#86bff4" vector-effect="non-scaling-stroke" d="
  M 652.5152 553.4164
  A 16.61 16.61 0.0 0 0 635.8762 536.8354
  L 550.2564 536.9848
  A 16.61 16.61 0.0 0 0 533.6754 553.6238
  L 533.8248 639.2236
  A 16.61 16.61 0.0 0 0 550.4638 655.8046
  L 636.0836 655.6552
  A 16.61 16.61 0.0 0 0 652.6646 639.0162
  L 652.5152 553.4164"
/>
<path stroke="#86bff4" vector-effect="non-scaling-stroke" d="
  M 814.9645 553.6842
  A 16.69 16.69 0.0 0 0 798.3037 536.9651
  L 712.4038 536.8151
  A 16.69 16.69 0.0 0 0 695.6847 553.4760
  L 695.5355 638.9758
  A 16.69 16.69 0.0 0 0 712.1963 655.6949
  L 798.0962 655.8449
  A 16.69 16.69 0.0 0 0 814.8153 639.1840
  L 814.9645 553.6842"
/>
<path stroke="#86bff4" vector-effect="non-scaling-stroke" d="
  M 328.03 701.15
  A 16.67 16.67 0.0 0 0 311.36 684.48
  L 225.94 684.48
  A 16.67 16.67 0.0 0 0 209.27 701.15
  L 209.27 787.25
  A 16.67 16.67 0.0 0 0 225.94 803.92
  L 311.36 803.92
  A 16.67 16.67 0.0 0 0 328.03 787.25
  L 328.03 701.15"
/>
<path stroke="#86bff4" vector-effect="non-scaling-stroke" d="
  M 490.21 700.94
  A 16.45 16.45 0.0 0 0 473.76 684.49
  L 388.24 684.49
  A 16.45 16.45 0.0 0 0 371.79 700.94
  L 371.79 787.46
  A 16.45 16.45 0.0 0 0 388.24 803.91
  L 473.76 803.91
  A 16.45 16.45 0.0 0 0 490.21 787.46
  L 490.21 700.94"
/>
<path stroke="#86bff4" vector-effect="non-scaling-stroke" d="
  M 814.9857 700.8341
  A 16.28 16.28 0.0 0 0 798.7341 684.5258
  L 712.0343 684.3744
  A 16.28 16.28 0.0 0 0 695.7259 700.6260
  L 695.5743 787.4859
  A 16.28 16.28 0.0 0 0 711.8259 803.7942
  L 798.5257 803.9456
  A 16.28 16.28 0.0 0 0 814.8341 787.6940
  L 814.9857 700.8341"
/>
<path stroke="#86bff4" vector-effect="non-scaling-stroke" d="
  M 652.60 700.73
  A 16.23 16.23 0.0 0 0 636.37 684.50
  L 549.95 684.50
  A 16.23 16.23 0.0 0 0 533.72 700.73
  L 533.72 787.67
  A 16.23 16.23 0.0 0 0 549.95 803.90
  L 636.37 803.90
  A 16.23 16.23 0.0 0 0 652.60 787.67
  L 652.60 700.73"
/>
<path stroke="#4c9ce4" vector-effect="non-scaling-stroke" d="
  M 300.7889 419.6042
  A 2.72 2.72 0.0 0 0 298.0641 416.8890
  L 239.5242 416.9911
  A 2.72 2.72 0.0 0 0 236.8090 419.7159
  L 236.9111 478.2558
  A 2.72 2.72 0.0 0 0 239.6359 480.9710
  L 298.1758 480.8689
  A 2.72 2.72 0.0 0 0 300.8910 478.1441
  L 300.7889 419.6042"
/>
<path stroke="#4c9ce4" vector-effect="non-scaling-stroke" d="
  M 462.8491 419.7144
  A 2.76 2.76 0.0 0 0 460.0843 416.9592
  L 401.7844 417.0609
  A 2.76 2.76 0.0 0 0 399.0292 419.8257
  L 399.1309 478.1256
  A 2.76 2.76 0.0 0 0 401.8957 480.8808
  L 460.1956 480.7791
  A 2.76 2.76 0.0 0 0 462.9508 478.0143
  L 462.8491 419.7144"
/>
<path stroke="#4c9ce4" vector-effect="non-scaling-stroke" d="
  M 624.9586 419.4843
  A 2.51 2.51 0.0 0 0 622.4442 416.9787
  L 563.6243 417.0814
  A 2.51 2.51 0.0 0 0 561.1187 419.5958
  L 561.2214 478.4157
  A 2.51 2.51 0.0 0 0 563.7358 480.9213
  L 622.5557 480.8186
  A 2.51 2.51 0.0 0 0 625.0613 478.3042
  L 624.9586 419.4843"
/>
<path stroke="#4c9ce4" vector-effect="non-scaling-stroke" d="
  M 787.9308 419.8266
  A 2.79 2.79 0.0 0 0 785.1457 417.0317
  L 725.9058 416.9284
  A 2.79 2.79 0.0 0 0 723.1109 419.7135
  L 723.0092 478.0134
  A 2.79 2.79 0.0 0 0 725.7943 480.8083
  L 785.0342 480.9116
  A 2.79 2.79 0.0 0 0 787.8291 478.1265
  L 787.9308 419.8266"
/>
<path stroke="#91c4ef" vector-effect="non-scaling-stroke" d="
  M 299.51 418.39
  A 0.27 0.27 0.0 0 0 299.24 418.12
  L 238.20 418.12
  A 0.27 0.27 0.0 0 0 237.93 418.39
  L 237.93 479.43
  A 0.27 0.27 0.0 0 0 238.20 479.70
  L 299.24 479.70
  A 0.27 0.27 0.0 0 0 299.51 479.43
  L 299.51 418.39"
/>
<path stroke="#91c4ef" vector-effect="non-scaling-stroke" d="
  M 461.6730 418.5736
  A 0.27 0.27 0.0 0 0 461.4035 418.3031
  L 400.6236 418.1970
  A 0.27 0.27 0.0 0 0 400.3531 418.4665
  L 400.2470 479.2464
  A 0.27 0.27 0.0 0 0 400.5165 479.5169
  L 461.2964 479.6230
  A 0.27 0.27 0.0 0 0 461.5669 479.3535
  L 461.6730 418.5736"
/>
<path stroke="#91c4ef" vector-effect="non-scaling-stroke" d="
  M 624.04 418.64
  A 0.46 0.46 0.0 0 0 623.58 418.18
  L 562.48 418.18
  A 0.46 0.46 0.0 0 0 562.02 418.64
  L 562.02 479.20
  A 0.46 0.46 0.0 0 0 562.48 479.66
  L 623.58 479.66
  A 0.46 0.46 0.0 0 0 624.04 479.20
  L 624.04 418.64"
/>
<path stroke="#91c4ef" vector-effect="non-scaling-stroke" d="
  M 786.59 418.45
  A 0.26 0.26 0.0 0 0 786.33 418.19
  L 724.47 418.19
  A 0.26 0.26 0.0 0 0 724.21 418.45
  L 724.21 479.39
  A 0.26 0.26 0.0 0 0 724.47 479.65
  L 786.33 479.65
  A 0.26 0.26 0.0 0 0 786.59 479.39
  L 786.59 418.45"
/>
<path stroke="#4c9ce4" vector-effect="non-scaling-stroke" d="
  M 300.8589 566.6340
  A 2.57 2.57 0.0 0 0 298.2844 564.0685
  L 239.2045 564.1716
  A 2.57 2.57 0.0 0 0 236.6390 566.7461
  L 236.7411 625.2860
  A 2.57 2.57 0.0 0 0 239.3156 627.8515
  L 298.3955 627.7484
  A 2.57 2.57 0.0 0 0 300.9610 625.1739
  L 300.8589 566.6340"
/>
<path stroke="#4c9ce4" vector-effect="non-scaling-stroke" d="
  M 400.41 566.97
  Q 399.98 566.05 399.75 566.16
  Q 399.08 566.49 399.08 567.23
  Q 399.00 610.73 399.24 624.25
  Q 399.27 625.64 399.50 626.43
  A 1.95 1.95 0.0 0 0 401.37 627.83
  L 461.07 627.83
  A 1.74 1.74 0.0 0 0 462.81 626.09
  L 462.92 567.11
  A 1.02 1.02 0.0 0 0 462.04 566.10
  Q 461.93 566.08 461.52 566.85"
/>
<path stroke="#b8d8f5" vector-effect="non-scaling-stroke" d="
  M 461.52 566.85
  Q 461.63 566.47 461.47 566.20
  Q 461.32 565.94 460.89 565.94
  Q 430.86 565.98 400.83 565.97
  Q 400.15 565.97 400.41 566.97"
/>
<path stroke="#91c4ef" vector-effect="non-scaling-stroke" d="
  M 461.52 566.85
  L 461.56 626.58
  A 0.47 0.46 90.0 0 1 461.10 627.05
  L 400.87 627.05
  A 0.46 0.46 0.0 0 1 400.41 626.59
  L 400.41 566.97"
/>
<path stroke="#4c9ce4" vector-effect="non-scaling-stroke" d="
  M 625.1308 567.0158
  A 2.65 2.65 0.0 0 0 622.4854 564.3612
  L 563.8655 564.2589
  A 2.65 2.65 0.0 0 0 561.2109 566.9043
  L 561.1092 625.1242
  A 2.65 2.65 0.0 0 0 563.7546 627.7788
  L 622.3745 627.8811
  A 2.65 2.65 0.0 0 0 625.0291 625.2357
  L 625.1308 567.0158"
/>
<path stroke="#4c9ce4" vector-effect="non-scaling-stroke" d="
  M 787.87 566.83
  A 2.48 2.48 0.0 0 0 785.39 564.35
  L 725.55 564.35
  A 2.48 2.48 0.0 0 0 723.07 566.83
  L 723.07 625.37
  A 2.48 2.48 0.0 0 0 725.55 627.85
  L 785.39 627.85
  A 2.48 2.48 0.0 0 0 787.87 625.37
  L 787.87 566.83"
/>
<path stroke="#91c4ef" vector-effect="non-scaling-stroke" d="
  M 299.6328 566.2439
  A 0.27 0.27 0.0 0 0 299.3633 565.9734
  L 238.2434 565.8667
  A 0.27 0.27 0.0 0 0 237.9729 566.1362
  L 237.8672 626.6961
  A 0.27 0.27 0.0 0 0 238.1367 626.9666
  L 299.2566 627.0733
  A 0.27 0.27 0.0 0 0 299.5271 626.8038
  L 299.6328 566.2439"
/>
<path stroke="#91c4ef" vector-effect="non-scaling-stroke" d="
  M 786.59 566.13
  A 0.26 0.26 0.0 0 0 786.33 565.87
  L 724.49 565.87
  A 0.26 0.26 0.0 0 0 724.23 566.13
  L 724.23 626.73
  A 0.26 0.26 0.0 0 0 724.49 626.99
  L 786.33 626.99
  A 0.26 0.26 0.0 0 0 786.59 626.73
  L 786.59 566.13"
/>
<path stroke="#91c4ef" vector-effect="non-scaling-stroke" d="
  M 623.96 566.66
  A 0.80 0.80 0.0 0 0 623.16 565.86
  L 562.84 565.86
  A 0.80 0.80 0.0 0 0 562.04 566.66
  L 562.04 626.16
  A 0.80 0.80 0.0 0 0 562.84 626.96
  L 623.16 626.96
  A 0.80 0.80 0.0 0 0 623.96 626.16
  L 623.96 566.66"
/>
<path stroke="#4c9ce4" vector-effect="non-scaling-stroke" d="
  M 301.0222 714.3561
  A 2.57 2.57 0.0 0 0 298.4566 711.7817
  L 239.3167 711.6784
  A 2.57 2.57 0.0 0 0 236.7423 714.2440
  L 236.6378 774.0639
  A 2.57 2.57 0.0 0 0 239.2034 776.6383
  L 298.3433 776.7416
  A 2.57 2.57 0.0 0 0 300.9177 774.1760
  L 301.0222 714.3561"
/>
<path stroke="#4c9ce4" vector-effect="non-scaling-stroke" d="
  M 462.89 714.08
  A 2.34 2.34 0.0 0 0 460.55 711.74
  L 401.45 711.74
  A 2.34 2.34 0.0 0 0 399.11 714.08
  L 399.11 774.32
  A 2.34 2.34 0.0 0 0 401.45 776.66
  L 460.55 776.66
  A 2.34 2.34 0.0 0 0 462.89 774.32
  L 462.89 714.08"
/>
<path stroke="#4c9ce4" vector-effect="non-scaling-stroke" d="
  M 787.9422 714.3166
  A 2.50 2.50 0.0 0 0 785.4465 711.8123
  L 725.6066 711.7078
  A 2.50 2.50 0.0 0 0 723.1023 714.2035
  L 722.9978 774.0434
  A 2.50 2.50 0.0 0 0 725.4935 776.5477
  L 785.3334 776.6522
  A 2.50 2.50 0.0 0 0 787.8377 774.1565
  L 787.9422 714.3166"
/>
<path stroke="#4c9ce4" vector-effect="non-scaling-stroke" d="
  M 625.0723 714.2558
  A 2.42 2.42 0.0 0 0 622.6565 711.8316
  L 563.5966 711.7285
  A 2.42 2.42 0.0 0 0 561.1724 714.1443
  L 561.0677 774.1442
  A 2.42 2.42 0.0 0 0 563.4835 776.5684
  L 622.5434 776.6715
  A 2.42 2.42 0.0 0 0 624.9676 774.2557
  L 625.0723 714.2558"
/>
<path stroke="#91c4ef" vector-effect="non-scaling-stroke" d="
  M 461.55 713.11
  A 0.26 0.26 0.0 0 0 461.29 712.85
  L 400.67 712.85
  A 0.26 0.26 0.0 0 0 400.41 713.11
  L 400.41 775.11
  A 0.26 0.26 0.0 0 0 400.67 775.37
  L 461.29 775.37
  A 0.26 0.26 0.0 0 0 461.55 775.11
  L 461.55 713.11"
/>
<path stroke="#91c4ef" vector-effect="non-scaling-stroke" d="
  M 299.5159 713.0462
  A 0.26 0.26 0.0 0 0 299.2554 712.7867
  L 238.1155 712.8934
  A 0.26 0.26 0.0 0 0 237.8560 713.1539
  L 237.9641 775.1338
  A 0.26 0.26 0.0 0 0 238.2246 775.3933
  L 299.3645 775.2866
  A 0.26 0.26 0.0 0 0 299.6240 775.0261
  L 299.5159 713.0462"
/>
<path stroke="#91c4ef" vector-effect="non-scaling-stroke" d="
  M 624.0737 713.3142
  A 0.45 0.45 0.0 0 0 623.6245 712.8634
  L 562.5246 712.7567
  A 0.45 0.45 0.0 0 0 562.0738 713.2059
  L 561.9663 774.8458
  A 0.45 0.45 0.0 0 0 562.4155 775.2966
  L 623.5154 775.4033
  A 0.45 0.45 0.0 0 0 623.9662 774.9541
  L 624.0737 713.3142"
/>
<path stroke="#91c4ef" vector-effect="non-scaling-stroke" d="
  M 786.63 713.13
  A 0.26 0.26 0.0 0 0 786.37 712.87
  L 724.45 712.87
  A 0.26 0.26 0.0 0 0 724.19 713.13
  L 724.19 775.05
  A 0.26 0.26 0.0 0 0 724.45 775.31
  L 786.37 775.31
  A 0.26 0.26 0.0 0 0 786.63 775.05
  L 786.63 713.13"
/>
</g>
<path fill="#72b0ea" d="
  M 563.45 164.06
  L 685.43 164.06
  A 0.59 0.59 0.0 0 0 686.02 163.47
  Q 686.01 145.64 685.95 140.71
  Q 685.84 131.38 687.50 124.99
  Q 692.64 105.14 709.85 94.15
  C 727.34 82.99 749.56 83.60 766.65 95.25
  Q 781.99 105.71 786.80 124.83
  Q 788.10 129.98 788.05 137.75
  Q 787.92 159.19 787.95 163.69
  A 0.38 0.37 -0.0 0 0 788.33 164.06
  Q 821.44 164.08 860.44 164.01
  Q 871.60 163.99 877.84 165.40
  Q 901.53 170.75 916.16 190.34
  Q 923.96 200.78 926.86 213.40
  Q 928.38 220.01 928.37 236.75
  Q 928.31 408.49 928.37 819.00
  C 928.37 822.62 927.95 827.14 927.07 830.88
  Q 921.75 853.41 904.84 868.08
  Q 890.27 880.73 870.15 883.74
  C 867.71 884.11 864.98 883.90 862.56 884.14
  Q 862.13 884.18 165.00 884.15
  C 161.71 884.15 157.23 884.15 153.69 883.59
  C 124.51 878.90 102.95 857.63 97.45 828.73
  C 96.72 824.91 96.86 821.06 96.76 816.75
  Q 96.59 809.44 96.64 227.90
  C 96.64 225.12 96.91 221.82 97.02 219.08
  Q 97.13 216.52 97.34 215.56
  Q 104.99 181.76 135.97 168.46
  Q 140.52 166.51 148.35 164.89
  Q 153.04 163.92 161.21 164.00
  Q 170.25 164.09 235.49 164.05
  A 0.51 0.51 0.0 0 0 236.00 163.54
  Q 235.96 139.34 235.96 139.30
  Q 235.74 130.69 237.47 123.87
  C 244.73 95.10 275.33 79.32 303.20 89.07
  Q 319.40 94.75 329.08 108.97
  Q 333.05 114.81 335.40 122.77
  Q 337.23 128.93 337.31 137.88
  Q 337.46 152.37 337.34 163.69
  A 0.37 0.36 -90.0 0 0 337.70 164.06
  L 459.99 164.06
  A 0.57 0.57 0.0 0 0 460.56 163.49
  Q 460.57 146.39 460.64 135.27
  C 460.71 122.59 465.39 111.08 474.29 101.77
  Q 489.69 85.66 513.47 86.04
  Q 516.09 86.08 517.50 86.48
  C 519.32 86.99 520.95 86.89 522.82 87.33
  Q 534.12 89.96 543.28 97.23
  Q 562.87 112.78 562.84 138.50
  Q 562.82 158.22 562.83 163.44
  A 0.62 0.62 0.0 0 0 563.45 164.06
  Z
  M 265.09 176.26
  Q 265.07 202.05 265.08 206.53
  Q 265.09 218.04 266.64 222.24
  C 269.66 230.42 277.50 236.37 286.99 236.38
  C 296.48 236.38 304.33 230.44 307.35 222.28
  Q 308.91 218.07 308.94 206.56
  Q 308.96 202.08 308.98 176.29
  Q 309.00 150.49 308.99 146.02
  Q 308.98 134.50 307.42 130.30
  C 304.41 122.13 296.57 116.17 287.08 116.17
  C 277.59 116.16 269.74 122.10 266.71 130.27
  Q 265.15 134.47 265.12 145.98
  Q 265.11 150.46 265.09 176.26
  Z
  M 533.8557 137.4062
  A 20.96 20.96 0.0 0 0 512.9690 116.3731
  L 511.3890 116.3676
  A 20.96 20.96 0.0 0 0 490.3560 137.2543
  L 490.0843 215.0938
  A 20.96 20.96 0.0 0 0 510.9710 236.1269
  L 512.5510 236.1324
  A 20.96 20.96 0.0 0 0 533.5840 215.2457
  L 533.8557 137.4062
  Z
  M 758.85 136.93
  A 20.69 20.69 0.0 0 0 738.16 116.24
  L 736.60 116.24
  A 20.69 20.69 0.0 0 0 715.91 136.93
  L 715.91 215.41
  A 20.69 20.69 0.0 0 0 736.60 236.10
  L 738.16 236.10
  A 20.69 20.69 0.0 0 0 758.85 215.41
  L 758.85 136.93
  Z
  M 126.79 311.95
  L 897.81 311.95
  A 0.55 0.55 0.0 0 0 898.36 311.41
  Q 898.76 274.19 898.64 231.75
  C 898.61 220.27 895.69 209.95 886.52 202.67
  Q 878.70 196.45 869.74 194.82
  Q 866.20 194.17 851.20 194.14
  C 820.50 194.09 801.17 194.11 788.46 194.35
  A 0.71 0.70 88.8 0 0 787.77 195.08
  Q 787.97 202.22 787.89 210.47
  C 787.78 222.94 785.81 231.94 779.78 241.84
  Q 775.35 249.13 768.00 254.60
  Q 751.93 266.57 731.14 264.85
  Q 723.66 264.23 717.82 261.83
  Q 710.22 258.72 705.84 255.17
  C 696.55 247.62 687.95 235.08 687.06 222.79
  C 686.38 213.58 686.30 206.13 686.33 194.94
  A 0.74 0.74 0.0 0 0 685.59 194.20
  L 562.87 194.20
  A 0.68 0.68 0.0 0 0 562.19 194.91
  Q 562.32 198.44 562.18 212.73
  Q 562.07 223.96 560.28 229.59
  C 552.35 254.61 528.99 267.73 503.23 264.60
  Q 491.67 263.19 482.02 256.05
  Q 461.60 240.94 461.05 215.75
  Q 460.75 202.12 461.11 195.24
  A 1.00 0.99 -88.6 0 0 460.12 194.19
  L 337.76 194.19
  A 0.81 0.80 89.6 0 0 336.96 195.01
  Q 337.09 205.72 336.97 215.99
  C 336.77 233.60 327.19 249.73 312.04 258.19
  C 307.69 260.62 303.27 262.78 298.12 263.86
  C 275.34 268.66 253.64 259.14 242.37 238.84
  Q 236.85 228.91 236.74 217.25
  Q 236.63 206.34 236.60 195.01
  A 0.84 0.84 0.0 0 0 235.76 194.17
  Q 197.01 194.05 164.00 194.17
  Q 155.88 194.20 151.99 195.25
  Q 137.27 199.20 129.96 212.52
  Q 126.54 218.77 126.50 227.01
  Q 126.35 259.33 126.55 311.71
  A 0.24 0.24 0.0 0 0 126.79 311.95
  Z
  M 512.56 853.00
  Q 832.29 852.99 858.95 852.98
  Q 868.64 852.98 871.48 852.28
  C 884.59 849.06 893.94 839.21 897.48 826.08
  C 898.44 822.53 898.50 817.11 898.55 814.50
  Q 898.69 807.46 898.58 343.59
  A 0.59 0.59 0.0 0 0 897.99 343.00
  Q 705.38 343.12 512.54 343.13
  Q 319.70 343.13 127.09 343.03
  A 0.59 0.59 0.0 0 0 126.50 343.62
  Q 126.42 807.49 126.56 814.53
  C 126.61 817.14 126.67 822.56 127.63 826.11
  C 131.18 839.24 140.53 849.09 153.64 852.30
  Q 156.48 853.00 166.16 853.01
  Q 192.83 853.01 512.56 853.00
  Z"
/>
<path fill="#2588de" d="
  M 287.08 116.17
  C 296.57 116.17 304.41 122.13 307.42 130.30
  Q 308.98 134.50 308.99 146.02
  Q 309.00 150.49 308.98 176.29
  Q 308.96 202.08 308.94 206.56
  Q 308.91 218.07 307.35 222.28
  C 304.33 230.44 296.48 236.38 286.99 236.38
  C 277.50 236.37 269.66 230.42 266.64 222.24
  Q 265.09 218.04 265.08 206.53
  Q 265.07 202.05 265.09 176.26
  Q 265.11 150.46 265.12 145.98
  Q 265.15 134.47 266.71 130.27
  C 269.74 122.10 277.59 116.16 287.08 116.17
  Z
  M 307.69 137.10
  A 19.92 19.92 0.0 0 0 287.77 117.18
  L 286.31 117.18
  A 19.92 19.92 0.0 0 0 266.39 137.10
  L 266.39 215.42
  A 19.92 19.92 0.0 0 0 286.31 235.34
  L 287.77 235.34
  A 19.92 19.92 0.0 0 0 307.69 215.42
  L 307.69 137.10
  Z"
/>
<path fill="#2588de" d="
  M 533.5840 215.2457
  A 20.96 20.96 0.0 0 1 512.5510 236.1324
  L 510.9710 236.1269
  A 20.96 20.96 0.0 0 1 490.0843 215.0938
  L 490.3560 137.2543
  A 20.96 20.96 0.0 0 1 511.3890 116.3676
  L 512.9690 116.3731
  A 20.96 20.96 0.0 0 1 533.8557 137.4062
  L 533.5840 215.2457
  Z
  M 532.2517 137.0941
  A 19.89 19.89 0.0 0 0 512.3270 117.2389
  L 510.9070 117.2413
  A 19.89 19.89 0.0 0 0 491.0518 137.1660
  L 491.1883 215.3859
  A 19.89 19.89 0.0 0 0 511.1130 235.2411
  L 512.5330 235.2387
  A 19.89 19.89 0.0 0 0 532.3882 215.3140
  L 532.2517 137.0941
  Z"
/>
<path fill="#2588de" d="
  M 758.85 215.41
  A 20.69 20.69 0.0 0 1 738.16 236.10
  L 736.60 236.10
  A 20.69 20.69 0.0 0 1 715.91 215.41
  L 715.91 136.93
  A 20.69 20.69 0.0 0 1 736.60 116.24
  L 738.16 116.24
  A 20.69 20.69 0.0 0 1 758.85 136.93
  L 758.85 215.41
  Z
  M 757.89 136.77
  A 19.74 19.74 0.0 0 0 738.15 117.03
  L 736.71 117.03
  A 19.74 19.74 0.0 0 0 716.97 136.77
  L 716.97 215.47
  A 19.74 19.74 0.0 0 0 736.71 235.21
  L 738.15 235.21
  A 19.74 19.74 0.0 0 0 757.89 215.47
  L 757.89 136.77
  Z"
/>
<rect fill="#fdffff" x="266.39" y="117.18" width="41.30" height="118.16" rx="19.92"/>
<rect fill="#fdffff" x="-20.60" y="-59.00" transform="translate(511.72,176.24) rotate(-0.1)" width="41.20" height="118.00" rx="19.89"/>
<rect fill="#fdffff" x="716.97" y="117.03" width="40.92" height="118.18" rx="19.74"/>
<path fill="#9acdfd" d="
  M 126.79 311.95
  A 0.24 0.24 0.0 0 1 126.55 311.71
  Q 126.35 259.33 126.50 227.01
  Q 126.54 218.77 129.96 212.52
  Q 137.27 199.20 151.99 195.25
  Q 155.88 194.20 164.00 194.17
  Q 197.01 194.05 235.76 194.17
  A 0.84 0.84 0.0 0 1 236.60 195.01
  Q 236.63 206.34 236.74 217.25
  Q 236.85 228.91 242.37 238.84
  C 253.64 259.14 275.34 268.66 298.12 263.86
  C 303.27 262.78 307.69 260.62 312.04 258.19
  C 327.19 249.73 336.77 233.60 336.97 215.99
  Q 337.09 205.72 336.96 195.01
  A 0.81 0.80 89.6 0 1 337.76 194.19
  L 460.12 194.19
  A 1.00 0.99 -88.6 0 1 461.11 195.24
  Q 460.75 202.12 461.05 215.75
  Q 461.60 240.94 482.02 256.05
  Q 491.67 263.19 503.23 264.60
  C 528.99 267.73 552.35 254.61 560.28 229.59
  Q 562.07 223.96 562.18 212.73
  Q 562.32 198.44 562.19 194.91
  A 0.68 0.68 0.0 0 1 562.87 194.20
  L 685.59 194.20
  A 0.74 0.74 0.0 0 1 686.33 194.94
  C 686.30 206.13 686.38 213.58 687.06 222.79
  C 687.95 235.08 696.55 247.62 705.84 255.17
  Q 710.22 258.72 717.82 261.83
  Q 723.66 264.23 731.14 264.85
  Q 751.93 266.57 768.00 254.60
  Q 775.35 249.13 779.78 241.84
  C 785.81 231.94 787.78 222.94 787.89 210.47
  Q 787.97 202.22 787.77 195.08
  A 0.71 0.70 88.8 0 1 788.46 194.35
  C 801.17 194.11 820.50 194.09 851.20 194.14
  Q 866.20 194.17 869.74 194.82
  Q 878.70 196.45 886.52 202.67
  C 895.69 209.95 898.61 220.27 898.64 231.75
  Q 898.76 274.19 898.36 311.41
  A 0.55 0.55 0.0 0 1 897.81 311.95
  L 126.79 311.95
  Z"
/>
<path fill="#9acdfd" d="
  M 512.54 343.13
  Q 705.38 343.12 897.99 343.00
  A 0.59 0.59 0.0 0 1 898.58 343.59
  Q 898.69 807.46 898.55 814.50
  C 898.50 817.11 898.44 822.53 897.48 826.08
  C 893.94 839.21 884.59 849.06 871.48 852.28
  Q 868.64 852.98 858.95 852.98
  Q 832.29 852.99 512.56 853.00
  Q 192.83 853.01 166.16 853.01
  Q 156.48 853.00 153.64 852.30
  C 140.53 849.09 131.18 839.24 127.63 826.11
  C 126.67 822.56 126.61 817.14 126.56 814.53
  Q 126.42 807.49 126.50 343.62
  A 0.59 0.59 0.0 0 1 127.09 343.03
  Q 319.70 343.13 512.54 343.13
  Z
  M 328.1045 406.0638
  A 16.67 16.67 0.0 0 0 311.4637 389.3647
  L 225.9438 389.2155
  A 16.67 16.67 0.0 0 0 209.2447 405.8563
  L 209.0955 491.3762
  A 16.67 16.67 0.0 0 0 225.7363 508.0753
  L 311.2562 508.2245
  A 16.67 16.67 0.0 0 0 327.9553 491.5837
  L 328.1045 406.0638
  Z
  M 485.82 503.64
  C 490.73 498.74 490.33 493.54 490.29 486.00
  Q 490.04 440.67 490.28 409.21
  Q 490.29 408.47 489.99 402.86
  A 6.89 6.65 -57.0 0 0 489.63 401.00
  Q 487.16 393.93 480.75 390.93
  Q 477.15 389.24 467.28 389.31
  Q 443.38 389.46 389.08 389.37
  Q 381.48 389.35 376.53 394.31
  Q 371.57 399.26 371.58 406.86
  Q 371.66 461.16 371.50 485.07
  Q 371.43 494.93 373.11 498.53
  Q 376.11 504.94 383.18 507.42
  A 6.89 6.65 -33.0 0 0 385.04 507.78
  Q 390.65 508.08 391.39 508.07
  Q 422.86 507.84 468.18 508.10
  C 475.72 508.14 480.92 508.54 485.82 503.64
  Z
  M 538.06 503.76
  C 542.98 508.67 548.19 508.27 555.75 508.23
  Q 601.20 507.99 632.75 508.23
  Q 633.49 508.24 639.12 507.94
  A 6.91 6.67 33.0 0 0 640.98 507.58
  Q 648.07 505.10 651.08 498.67
  Q 652.77 495.06 652.70 485.17
  Q 652.55 461.20 652.65 406.75
  Q 652.66 399.14 647.69 394.17
  Q 642.73 389.20 635.11 389.21
  Q 580.66 389.28 556.69 389.13
  Q 546.80 389.05 543.19 390.74
  Q 536.76 393.75 534.28 400.84
  A 6.91 6.67 57.0 0 0 533.92 402.70
  Q 533.62 408.33 533.62 409.07
  Q 533.85 440.62 533.59 486.07
  C 533.55 493.62 533.15 498.84 538.06 503.76
  Z
  M 695.79 404.87
  L 695.79 492.59
  A 15.67 15.67 0.0 0 0 711.46 508.26
  L 797.82 508.26
  A 17.25 17.03 -90.0 0 0 814.85 491.01
  L 814.85 406.45
  A 17.25 17.03 90.0 0 0 797.82 389.20
  L 711.46 389.20
  A 15.67 15.67 0.0 0 0 695.79 404.87
  Z
  M 328.01 553.79
  A 16.85 16.85 0.0 0 0 311.16 536.94
  L 226.02 536.94
  A 16.85 16.85 0.0 0 0 209.17 553.79
  L 209.17 638.93
  A 16.85 16.85 0.0 0 0 226.02 655.78
  L 311.16 655.78
  A 16.85 16.85 0.0 0 0 328.01 638.93
  L 328.01 553.79
  Z
  M 490.2342 553.8934
  A 16.84 16.84 0.0 0 0 473.4236 537.0240
  L 388.7438 536.8762
  A 16.84 16.84 0.0 0 0 371.8744 553.6868
  L 371.7258 638.8266
  A 16.84 16.84 0.0 0 0 388.5364 655.6960
  L 473.2162 655.8438
  A 16.84 16.84 0.0 0 0 490.0856 639.0332
  L 490.2342 553.8934
  Z
  M 652.5152 553.4164
  A 16.61 16.61 0.0 0 0 635.8762 536.8354
  L 550.2564 536.9848
  A 16.61 16.61 0.0 0 0 533.6754 553.6238
  L 533.8248 639.2236
  A 16.61 16.61 0.0 0 0 550.4638 655.8046
  L 636.0836 655.6552
  A 16.61 16.61 0.0 0 0 652.6646 639.0162
  L 652.5152 553.4164
  Z
  M 814.9645 553.6842
  A 16.69 16.69 0.0 0 0 798.3037 536.9651
  L 712.4038 536.8151
  A 16.69 16.69 0.0 0 0 695.6847 553.4760
  L 695.5355 638.9758
  A 16.69 16.69 0.0 0 0 712.1963 655.6949
  L 798.0962 655.8449
  A 16.69 16.69 0.0 0 0 814.8153 639.1840
  L 814.9645 553.6842
  Z
  M 328.03 701.15
  A 16.67 16.67 0.0 0 0 311.36 684.48
  L 225.94 684.48
  A 16.67 16.67 0.0 0 0 209.27 701.15
  L 209.27 787.25
  A 16.67 16.67 0.0 0 0 225.94 803.92
  L 311.36 803.92
  A 16.67 16.67 0.0 0 0 328.03 787.25
  L 328.03 701.15
  Z
  M 490.21 700.94
  A 16.45 16.45 0.0 0 0 473.76 684.49
  L 388.24 684.49
  A 16.45 16.45 0.0 0 0 371.79 700.94
  L 371.79 787.46
  A 16.45 16.45 0.0 0 0 388.24 803.91
  L 473.76 803.91
  A 16.45 16.45 0.0 0 0 490.21 787.46
  L 490.21 700.94
  Z
  M 814.9857 700.8341
  A 16.28 16.28 0.0 0 0 798.7341 684.5258
  L 712.0343 684.3744
  A 16.28 16.28 0.0 0 0 695.7259 700.6260
  L 695.5743 787.4859
  A 16.28 16.28 0.0 0 0 711.8259 803.7942
  L 798.5257 803.9456
  A 16.28 16.28 0.0 0 0 814.8341 787.6940
  L 814.9857 700.8341
  Z
  M 652.60 700.73
  A 16.23 16.23 0.0 0 0 636.37 684.50
  L 549.95 684.50
  A 16.23 16.23 0.0 0 0 533.72 700.73
  L 533.72 787.67
  A 16.23 16.23 0.0 0 0 549.95 803.90
  L 636.37 803.90
  A 16.23 16.23 0.0 0 0 652.60 787.67
  L 652.60 700.73
  Z"
/>
<path fill="#72b0ea" d="
  M 327.9553 491.5837
  A 16.67 16.67 0.0 0 1 311.2562 508.2245
  L 225.7363 508.0753
  A 16.67 16.67 0.0 0 1 209.0955 491.3762
  L 209.2447 405.8563
  A 16.67 16.67 0.0 0 1 225.9438 389.2155
  L 311.4637 389.3647
  A 16.67 16.67 0.0 0 1 328.1045 406.0638
  L 327.9553 491.5837
  Z
  M 300.7889 419.6042
  A 2.72 2.72 0.0 0 0 298.0641 416.8890
  L 239.5242 416.9911
  A 2.72 2.72 0.0 0 0 236.8090 419.7159
  L 236.9111 478.2558
  A 2.72 2.72 0.0 0 0 239.6359 480.9710
  L 298.1758 480.8689
  A 2.72 2.72 0.0 0 0 300.8910 478.1441
  L 300.7889 419.6042
  Z"
/>
<path fill="#72b0ea" d="
  M 485.82 503.64
  C 480.92 508.54 475.72 508.14 468.18 508.10
  Q 422.86 507.84 391.39 508.07
  Q 390.65 508.08 385.04 507.78
  A 6.89 6.65 -33.0 0 1 383.18 507.42
  Q 376.11 504.94 373.11 498.53
  Q 371.43 494.93 371.50 485.07
  Q 371.66 461.16 371.58 406.86
  Q 371.57 399.26 376.53 394.31
  Q 381.48 389.35 389.08 389.37
  Q 443.38 389.46 467.28 389.31
  Q 477.15 389.24 480.75 390.93
  Q 487.16 393.93 489.63 401.00
  A 6.89 6.65 -57.0 0 1 489.99 402.86
  Q 490.29 408.47 490.28 409.21
  Q 490.04 440.67 490.29 486.00
  C 490.33 493.54 490.73 498.74 485.82 503.64
  Z
  M 462.8491 419.7144
  A 2.76 2.76 0.0 0 0 460.0843 416.9592
  L 401.7844 417.0609
  A 2.76 2.76 0.0 0 0 399.0292 419.8257
  L 399.1309 478.1256
  A 2.76 2.76 0.0 0 0 401.8957 480.8808
  L 460.1956 480.7791
  A 2.76 2.76 0.0 0 0 462.9508 478.0143
  L 462.8491 419.7144
  Z"
/>
<path fill="#72b0ea" d="
  M 647.69 394.17
  Q 652.66 399.14 652.65 406.75
  Q 652.55 461.20 652.70 485.17
  Q 652.77 495.06 651.08 498.67
  Q 648.07 505.10 640.98 507.58
  A 6.91 6.67 33.0 0 1 639.12 507.94
  Q 633.49 508.24 632.75 508.23
  Q 601.20 507.99 555.75 508.23
  C 548.19 508.27 542.98 508.67 538.06 503.76
  C 533.15 498.84 533.55 493.62 533.59 486.07
  Q 533.85 440.62 533.62 409.07
  Q 533.62 408.33 533.92 402.70
  A 6.91 6.67 57.0 0 1 534.28 400.84
  Q 536.76 393.75 543.19 390.74
  Q 546.80 389.05 556.69 389.13
  Q 580.66 389.28 635.11 389.21
  Q 642.73 389.20 647.69 394.17
  Z
  M 624.9586 419.4843
  A 2.51 2.51 0.0 0 0 622.4442 416.9787
  L 563.6243 417.0814
  A 2.51 2.51 0.0 0 0 561.1187 419.5958
  L 561.2214 478.4157
  A 2.51 2.51 0.0 0 0 563.7358 480.9213
  L 622.5557 480.8186
  A 2.51 2.51 0.0 0 0 625.0613 478.3042
  L 624.9586 419.4843
  Z"
/>
<path fill="#72b0ea" d="
  M 695.79 404.87
  A 15.67 15.67 0.0 0 1 711.46 389.20
  L 797.82 389.20
  A 17.25 17.03 90.0 0 1 814.85 406.45
  L 814.85 491.01
  A 17.25 17.03 -90.0 0 1 797.82 508.26
  L 711.46 508.26
  A 15.67 15.67 0.0 0 1 695.79 492.59
  L 695.79 404.87
  Z
  M 787.9308 419.8266
  A 2.79 2.79 0.0 0 0 785.1457 417.0317
  L 725.9058 416.9284
  A 2.79 2.79 0.0 0 0 723.1109 419.7135
  L 723.0092 478.0134
  A 2.79 2.79 0.0 0 0 725.7943 480.8083
  L 785.0342 480.9116
  A 2.79 2.79 0.0 0 0 787.8291 478.1265
  L 787.9308 419.8266
  Z"
/>
<path fill="#2588de" d="
  M 300.8910 478.1441
  A 2.72 2.72 0.0 0 1 298.1758 480.8689
  L 239.6359 480.9710
  A 2.72 2.72 0.0 0 1 236.9111 478.2558
  L 236.8090 419.7159
  A 2.72 2.72 0.0 0 1 239.5242 416.9911
  L 298.0641 416.8890
  A 2.72 2.72 0.0 0 1 300.7889 419.6042
  L 300.8910 478.1441
  Z
  M 299.51 418.39
  A 0.27 0.27 0.0 0 0 299.24 418.12
  L 238.20 418.12
  A 0.27 0.27 0.0 0 0 237.93 418.39
  L 237.93 479.43
  A 0.27 0.27 0.0 0 0 238.20 479.70
  L 299.24 479.70
  A 0.27 0.27 0.0 0 0 299.51 479.43
  L 299.51 418.39
  Z"
/>
<path fill="#2588de" d="
  M 462.9508 478.0143
  A 2.76 2.76 0.0 0 1 460.1956 480.7791
  L 401.8957 480.8808
  A 2.76 2.76 0.0 0 1 399.1309 478.1256
  L 399.0292 419.8257
  A 2.76 2.76 0.0 0 1 401.7844 417.0609
  L 460.0843 416.9592
  A 2.76 2.76 0.0 0 1 462.8491 419.7144
  L 462.9508 478.0143
  Z
  M 461.6730 418.5736
  A 0.27 0.27 0.0 0 0 461.4035 418.3031
  L 400.6236 418.1970
  A 0.27 0.27 0.0 0 0 400.3531 418.4665
  L 400.2470 479.2464
  A 0.27 0.27 0.0 0 0 400.5165 479.5169
  L 461.2964 479.6230
  A 0.27 0.27 0.0 0 0 461.5669 479.3535
  L 461.6730 418.5736
  Z"
/>
<path fill="#2588de" d="
  M 625.0613 478.3042
  A 2.51 2.51 0.0 0 1 622.5557 480.8186
  L 563.7358 480.9213
  A 2.51 2.51 0.0 0 1 561.2214 478.4157
  L 561.1187 419.5958
  A 2.51 2.51 0.0 0 1 563.6243 417.0814
  L 622.4442 416.9787
  A 2.51 2.51 0.0 0 1 624.9586 419.4843
  L 625.0613 478.3042
  Z
  M 624.04 418.64
  A 0.46 0.46 0.0 0 0 623.58 418.18
  L 562.48 418.18
  A 0.46 0.46 0.0 0 0 562.02 418.64
  L 562.02 479.20
  A 0.46 0.46 0.0 0 0 562.48 479.66
  L 623.58 479.66
  A 0.46 0.46 0.0 0 0 624.04 479.20
  L 624.04 418.64
  Z"
/>
<path fill="#2588de" d="
  M 787.8291 478.1265
  A 2.79 2.79 0.0 0 1 785.0342 480.9116
  L 725.7943 480.8083
  A 2.79 2.79 0.0 0 1 723.0092 478.0134
  L 723.1109 419.7135
  A 2.79 2.79 0.0 0 1 725.9058 416.9284
  L 785.1457 417.0317
  A 2.79 2.79 0.0 0 1 787.9308 419.8266
  L 787.8291 478.1265
  Z
  M 786.59 418.45
  A 0.26 0.26 0.0 0 0 786.33 418.19
  L 724.47 418.19
  A 0.26 0.26 0.0 0 0 724.21 418.45
  L 724.21 479.39
  A 0.26 0.26 0.0 0 0 724.47 479.65
  L 786.33 479.65
  A 0.26 0.26 0.0 0 0 786.59 479.39
  L 786.59 418.45
  Z"
/>
<rect fill="#fdffff" x="237.93" y="418.12" width="61.58" height="61.58" rx="0.27"/>
<rect fill="#fdffff" x="-30.66" y="-30.66" transform="translate(430.96,448.91) rotate(0.1)" width="61.32" height="61.32" rx="0.27"/>
<rect fill="#fdffff" x="562.02" y="418.18" width="62.02" height="61.48" rx="0.46"/>
<rect fill="#fdffff" x="724.21" y="418.19" width="62.38" height="61.46" rx="0.26"/>
<path fill="#72b0ea" d="
  M 328.01 638.93
  A 16.85 16.85 0.0 0 1 311.16 655.78
  L 226.02 655.78
  A 16.85 16.85 0.0 0 1 209.17 638.93
  L 209.17 553.79
  A 16.85 16.85 0.0 0 1 226.02 536.94
  L 311.16 536.94
  A 16.85 16.85 0.0 0 1 328.01 553.79
  L 328.01 638.93
  Z
  M 300.8589 566.6340
  A 2.57 2.57 0.0 0 0 298.2844 564.0685
  L 239.2045 564.1716
  A 2.57 2.57 0.0 0 0 236.6390 566.7461
  L 236.7411 625.2860
  A 2.57 2.57 0.0 0 0 239.3156 627.8515
  L 298.3955 627.7484
  A 2.57 2.57 0.0 0 0 300.9610 625.1739
  L 300.8589 566.6340
  Z"
/>
<path fill="#72b0ea" d="
  M 490.0856 639.0332
  A 16.84 16.84 0.0 0 1 473.2162 655.8438
  L 388.5364 655.6960
  A 16.84 16.84 0.0 0 1 371.7258 638.8266
  L 371.8744 553.6868
  A 16.84 16.84 0.0 0 1 388.7438 536.8762
  L 473.4236 537.0240
  A 16.84 16.84 0.0 0 1 490.2342 553.8934
  L 490.0856 639.0332
  Z
  M 400.41 566.97
  Q 399.98 566.05 399.75 566.16
  Q 399.08 566.49 399.08 567.23
  Q 399.00 610.73 399.24 624.25
  Q 399.27 625.64 399.50 626.43
  A 1.95 1.95 0.0 0 0 401.37 627.83
  L 461.07 627.83
  A 1.74 1.74 0.0 0 0 462.81 626.09
  L 462.92 567.11
  A 1.02 1.02 0.0 0 0 462.04 566.10
  Q 461.93 566.08 461.52 566.85
  Q 461.63 566.47 461.47 566.20
  Q 461.32 565.94 460.89 565.94
  Q 430.86 565.98 400.83 565.97
  Q 400.15 565.97 400.41 566.97
  Z"
/>
<path fill="#72b0ea" d="
  M 652.6646 639.0162
  A 16.61 16.61 0.0 0 1 636.0836 655.6552
  L 550.4638 655.8046
  A 16.61 16.61 0.0 0 1 533.8248 639.2236
  L 533.6754 553.6238
  A 16.61 16.61 0.0 0 1 550.2564 536.9848
  L 635.8762 536.8354
  A 16.61 16.61 0.0 0 1 652.5152 553.4164
  L 652.6646 639.0162
  Z
  M 625.1308 567.0158
  A 2.65 2.65 0.0 0 0 622.4854 564.3612
  L 563.8655 564.2589
  A 2.65 2.65 0.0 0 0 561.2109 566.9043
  L 561.1092 625.1242
  A 2.65 2.65 0.0 0 0 563.7546 627.7788
  L 622.3745 627.8811
  A 2.65 2.65 0.0 0 0 625.0291 625.2357
  L 625.1308 567.0158
  Z"
/>
<path fill="#72b0ea" d="
  M 814.8153 639.1840
  A 16.69 16.69 0.0 0 1 798.0962 655.8449
  L 712.1963 655.6949
  A 16.69 16.69 0.0 0 1 695.5355 638.9758
  L 695.6847 553.4760
  A 16.69 16.69 0.0 0 1 712.4038 536.8151
  L 798.3037 536.9651
  A 16.69 16.69 0.0 0 1 814.9645 553.6842
  L 814.8153 639.1840
  Z
  M 787.87 566.83
  A 2.48 2.48 0.0 0 0 785.39 564.35
  L 725.55 564.35
  A 2.48 2.48 0.0 0 0 723.07 566.83
  L 723.07 625.37
  A 2.48 2.48 0.0 0 0 725.55 627.85
  L 785.39 627.85
  A 2.48 2.48 0.0 0 0 787.87 625.37
  L 787.87 566.83
  Z"
/>
<path fill="#2588de" d="
  M 300.9610 625.1739
  A 2.57 2.57 0.0 0 1 298.3955 627.7484
  L 239.3156 627.8515
  A 2.57 2.57 0.0 0 1 236.7411 625.2860
  L 236.6390 566.7461
  A 2.57 2.57 0.0 0 1 239.2045 564.1716
  L 298.2844 564.0685
  A 2.57 2.57 0.0 0 1 300.8589 566.6340
  L 300.9610 625.1739
  Z
  M 299.6328 566.2439
  A 0.27 0.27 0.0 0 0 299.3633 565.9734
  L 238.2434 565.8667
  A 0.27 0.27 0.0 0 0 237.9729 566.1362
  L 237.8672 626.6961
  A 0.27 0.27 0.0 0 0 238.1367 626.9666
  L 299.2566 627.0733
  A 0.27 0.27 0.0 0 0 299.5271 626.8038
  L 299.6328 566.2439
  Z"
/>
<path fill="#2588de" d="
  M 787.87 625.37
  A 2.48 2.48 0.0 0 1 785.39 627.85
  L 725.55 627.85
  A 2.48 2.48 0.0 0 1 723.07 625.37
  L 723.07 566.83
  A 2.48 2.48 0.0 0 1 725.55 564.35
  L 785.39 564.35
  A 2.48 2.48 0.0 0 1 787.87 566.83
  L 787.87 625.37
  Z
  M 786.59 566.13
  A 0.26 0.26 0.0 0 0 786.33 565.87
  L 724.49 565.87
  A 0.26 0.26 0.0 0 0 724.23 566.13
  L 724.23 626.73
  A 0.26 0.26 0.0 0 0 724.49 626.99
  L 786.33 626.99
  A 0.26 0.26 0.0 0 0 786.59 626.73
  L 786.59 566.13
  Z"
/>
<path fill="#2588de" d="
  M 625.0291 625.2357
  A 2.65 2.65 0.0 0 1 622.3745 627.8811
  L 563.7546 627.7788
  A 2.65 2.65 0.0 0 1 561.1092 625.1242
  L 561.2109 566.9043
  A 2.65 2.65 0.0 0 1 563.8655 564.2589
  L 622.4854 564.3612
  A 2.65 2.65 0.0 0 1 625.1308 567.0158
  L 625.0291 625.2357
  Z
  M 623.96 566.66
  A 0.80 0.80 0.0 0 0 623.16 565.86
  L 562.84 565.86
  A 0.80 0.80 0.0 0 0 562.04 566.66
  L 562.04 626.16
  A 0.80 0.80 0.0 0 0 562.84 626.96
  L 623.16 626.96
  A 0.80 0.80 0.0 0 0 623.96 626.16
  L 623.96 566.66
  Z"
/>
<rect fill="#fdffff" x="-30.83" y="-30.55" transform="translate(268.75,596.47) rotate(0.1)" width="61.66" height="61.10" rx="0.27"/>
<path fill="#fdffff" d="
  M 461.52 566.85
  L 461.56 626.58
  A 0.47 0.46 90.0 0 1 461.10 627.05
  L 400.87 627.05
  A 0.46 0.46 0.0 0 1 400.41 626.59
  L 400.41 566.97
  Q 400.15 565.97 400.83 565.97
  Q 430.86 565.98 460.89 565.94
  Q 461.32 565.94 461.47 566.20
  Q 461.63 566.47 461.52 566.85
  Z"
/>
<rect fill="#fdffff" x="562.04" y="565.86" width="61.92" height="61.10" rx="0.80"/>
<rect fill="#fdffff" x="724.23" y="565.87" width="62.36" height="61.12" rx="0.26"/>
<path fill="#2588de" d="
  M 400.41 566.97
  L 400.41 626.59
  A 0.46 0.46 0.0 0 0 400.87 627.05
  L 461.10 627.05
  A 0.47 0.46 -90.0 0 0 461.56 626.58
  L 461.52 566.85
  Q 461.93 566.08 462.04 566.10
  A 1.02 1.02 0.0 0 1 462.92 567.11
  L 462.81 626.09
  A 1.74 1.74 0.0 0 1 461.07 627.83
  L 401.37 627.83
  A 1.95 1.95 0.0 0 1 399.50 626.43
  Q 399.27 625.64 399.24 624.25
  Q 399.00 610.73 399.08 567.23
  Q 399.08 566.49 399.75 566.16
  Q 399.98 566.05 400.41 566.97
  Z"
/>
<path fill="#72b0ea" d="
  M 328.03 787.25
  A 16.67 16.67 0.0 0 1 311.36 803.92
  L 225.94 803.92
  A 16.67 16.67 0.0 0 1 209.27 787.25
  L 209.27 701.15
  A 16.67 16.67 0.0 0 1 225.94 684.48
  L 311.36 684.48
  A 16.67 16.67 0.0 0 1 328.03 701.15
  L 328.03 787.25
  Z
  M 301.0222 714.3561
  A 2.57 2.57 0.0 0 0 298.4566 711.7817
  L 239.3167 711.6784
  A 2.57 2.57 0.0 0 0 236.7423 714.2440
  L 236.6378 774.0639
  A 2.57 2.57 0.0 0 0 239.2034 776.6383
  L 298.3433 776.7416
  A 2.57 2.57 0.0 0 0 300.9177 774.1760
  L 301.0222 714.3561
  Z"
/>
<path fill="#72b0ea" d="
  M 490.21 787.46
  A 16.45 16.45 0.0 0 1 473.76 803.91
  L 388.24 803.91
  A 16.45 16.45 0.0 0 1 371.79 787.46
  L 371.79 700.94
  A 16.45 16.45 0.0 0 1 388.24 684.49
  L 473.76 684.49
  A 16.45 16.45 0.0 0 1 490.21 700.94
  L 490.21 787.46
  Z
  M 462.89 714.08
  A 2.34 2.34 0.0 0 0 460.55 711.74
  L 401.45 711.74
  A 2.34 2.34 0.0 0 0 399.11 714.08
  L 399.11 774.32
  A 2.34 2.34 0.0 0 0 401.45 776.66
  L 460.55 776.66
  A 2.34 2.34 0.0 0 0 462.89 774.32
  L 462.89 714.08
  Z"
/>
<path fill="#72b0ea" d="
  M 814.8341 787.6940
  A 16.28 16.28 0.0 0 1 798.5257 803.9456
  L 711.8259 803.7942
  A 16.28 16.28 0.0 0 1 695.5743 787.4859
  L 695.7259 700.6260
  A 16.28 16.28 0.0 0 1 712.0343 684.3744
  L 798.7341 684.5258
  A 16.28 16.28 0.0 0 1 814.9857 700.8341
  L 814.8341 787.6940
  Z
  M 787.9422 714.3166
  A 2.50 2.50 0.0 0 0 785.4465 711.8123
  L 725.6066 711.7078
  A 2.50 2.50 0.0 0 0 723.1023 714.2035
  L 722.9978 774.0434
  A 2.50 2.50 0.0 0 0 725.4935 776.5477
  L 785.3334 776.6522
  A 2.50 2.50 0.0 0 0 787.8377 774.1565
  L 787.9422 714.3166
  Z"
/>
<path fill="#72b0ea" d="
  M 652.60 787.67
  A 16.23 16.23 0.0 0 1 636.37 803.90
  L 549.95 803.90
  A 16.23 16.23 0.0 0 1 533.72 787.67
  L 533.72 700.73
  A 16.23 16.23 0.0 0 1 549.95 684.50
  L 636.37 684.50
  A 16.23 16.23 0.0 0 1 652.60 700.73
  L 652.60 787.67
  Z
  M 625.0723 714.2558
  A 2.42 2.42 0.0 0 0 622.6565 711.8316
  L 563.5966 711.7285
  A 2.42 2.42 0.0 0 0 561.1724 714.1443
  L 561.0677 774.1442
  A 2.42 2.42 0.0 0 0 563.4835 776.5684
  L 622.5434 776.6715
  A 2.42 2.42 0.0 0 0 624.9676 774.2557
  L 625.0723 714.2558
  Z"
/>
<path fill="#2588de" d="
  M 462.89 774.32
  A 2.34 2.34 0.0 0 1 460.55 776.66
  L 401.45 776.66
  A 2.34 2.34 0.0 0 1 399.11 774.32
  L 399.11 714.08
  A 2.34 2.34 0.0 0 1 401.45 711.74
  L 460.55 711.74
  A 2.34 2.34 0.0 0 1 462.89 714.08
  L 462.89 774.32
  Z
  M 461.55 713.11
  A 0.26 0.26 0.0 0 0 461.29 712.85
  L 400.67 712.85
  A 0.26 0.26 0.0 0 0 400.41 713.11
  L 400.41 775.11
  A 0.26 0.26 0.0 0 0 400.67 775.37
  L 461.29 775.37
  A 0.26 0.26 0.0 0 0 461.55 775.11
  L 461.55 713.11
  Z"
/>
<path fill="#2588de" d="
  M 300.9177 774.1760
  A 2.57 2.57 0.0 0 1 298.3433 776.7416
  L 239.2034 776.6383
  A 2.57 2.57 0.0 0 1 236.6378 774.0639
  L 236.7423 714.2440
  A 2.57 2.57 0.0 0 1 239.3167 711.6784
  L 298.4566 711.7817
  A 2.57 2.57 0.0 0 1 301.0222 714.3561
  L 300.9177 774.1760
  Z
  M 299.5159 713.0462
  A 0.26 0.26 0.0 0 0 299.2554 712.7867
  L 238.1155 712.8934
  A 0.26 0.26 0.0 0 0 237.8560 713.1539
  L 237.9641 775.1338
  A 0.26 0.26 0.0 0 0 238.2246 775.3933
  L 299.3645 775.2866
  A 0.26 0.26 0.0 0 0 299.6240 775.0261
  L 299.5159 713.0462
  Z"
/>
<path fill="#2588de" d="
  M 624.9676 774.2557
  A 2.42 2.42 0.0 0 1 622.5434 776.6715
  L 563.4835 776.5684
  A 2.42 2.42 0.0 0 1 561.0677 774.1442
  L 561.1724 714.1443
  A 2.42 2.42 0.0 0 1 563.5966 711.7285
  L 622.6565 711.8316
  A 2.42 2.42 0.0 0 1 625.0723 714.2558
  L 624.9676 774.2557
  Z
  M 624.0737 713.3142
  A 0.45 0.45 0.0 0 0 623.6245 712.8634
  L 562.5246 712.7567
  A 0.45 0.45 0.0 0 0 562.0738 713.2059
  L 561.9663 774.8458
  A 0.45 0.45 0.0 0 0 562.4155 775.2966
  L 623.5154 775.4033
  A 0.45 0.45 0.0 0 0 623.9662 774.9541
  L 624.0737 713.3142
  Z"
/>
<path fill="#2588de" d="
  M 787.8377 774.1565
  A 2.50 2.50 0.0 0 1 785.3334 776.6522
  L 725.4935 776.5477
  A 2.50 2.50 0.0 0 1 722.9978 774.0434
  L 723.1023 714.2035
  A 2.50 2.50 0.0 0 1 725.6066 711.7078
  L 785.4465 711.8123
  A 2.50 2.50 0.0 0 1 787.9422 714.3166
  L 787.8377 774.1565
  Z
  M 786.63 713.13
  A 0.26 0.26 0.0 0 0 786.37 712.87
  L 724.45 712.87
  A 0.26 0.26 0.0 0 0 724.19 713.13
  L 724.19 775.05
  A 0.26 0.26 0.0 0 0 724.45 775.31
  L 786.37 775.31
  A 0.26 0.26 0.0 0 0 786.63 775.05
  L 786.63 713.13
  Z"
/>
<rect fill="#fdffff" x="-30.83" y="-31.25" transform="translate(268.74,744.09) rotate(-0.1)" width="61.66" height="62.50" rx="0.26"/>
<rect fill="#fdffff" x="724.19" y="712.87" width="62.44" height="62.44" rx="0.26"/>
<rect fill="#fdffff" x="400.41" y="712.85" width="61.14" height="62.52" rx="0.26"/>
<rect fill="#fdffff" x="-31.00" y="-31.27" transform="translate(593.02,744.08) rotate(0.1)" width="62.00" height="62.54" rx="0.45"/>
</svg>

/>
<path stroke="#c4dffa" vector-effect="non-scaling-stroke" d="
  M 659.13 895.52
  Q 676.21 906.68 696.52 913.93
  Q 720.67 922.54 745.98 924.71
  Q 782.36 927.82 820.29 917.18
  Q 849.58 908.97 875.34 890.60
  Q 905.55 869.07 924.61 838.62
  Q 951.78 795.24 953.99 742.99
  C 955.25 713.07 951.19 683.97 939.95 655.80
  Q 935.34 644.23 929.13 634.52"
/>
<path stroke="#edf7ff" vector-effect="non-scaling-stroke" d="
  M 929.13 634.52
  Q 931.49 633.03 931.48 631.22
  Q 931.38 589.46 931.48 578.75
  Q 931.50 576.34 928.51 573.71"
/>
<path stroke="#c4dffa" vector-effect="non-scaling-stroke" d="
  M 928.51 573.71
  C 932.70 574.51 937.69 574.81 941.24 572.23
  Q 948.40 567.03 948.07 557.99
  Q 947.91 553.46 947.89 529.25
  Q 947.83 436.17 947.81 338.26
  Q 947.81 302.71 947.90 237.77
  Q 947.92 219.57 947.37 215.29
  Q 945.88 203.66 940.95 193.81
  C 928.32 168.57 903.52 153.13 875.24 152.98
  Q 848.56 152.83 788.50 152.93
  A 0.48 0.48 0.0 0 1 788.02 152.45
  Q 788.17 139.78 788.02 125.24
  C 787.69 91.87 757.93 69.74 725.83 75.90
  C 703.94 80.10 688.54 96.10 684.05 117.88
  Q 682.81 123.91 682.88 135.20
  Q 682.95 145.31 682.92 152.61
  A 0.29 0.28 0.0 0 1 682.63 152.89
  L 564.56 152.89
  A 0.60 0.60 0.0 0 1 563.96 152.29
  Q 563.98 144.11 564.02 136.09
  C 564.10 120.35 563.21 107.64 553.74 95.52
  C 534.74 71.21 499.44 67.71 476.25 88.29
  Q 464.34 98.86 460.45 115.75
  Q 458.94 122.29 459.13 133.85
  Q 459.29 143.93 459.23 152.13
  A 0.78 0.77 -89.6 0 1 458.46 152.90
  L 340.30 152.90
  A 0.28 0.28 0.0 0 1 340.02 152.62
  Q 340.17 135.10 339.99 128.00
  Q 339.73 118.03 338.55 113.73
  Q 331.87 89.42 309.25 79.49
  C 283.07 68.00 250.94 78.36 239.06 105.05
  Q 233.95 116.53 233.90 128.76
  Q 233.87 138.37 234.01 152.33
  A 0.58 0.58 0.0 0 1 233.43 152.92
  Q 202.47 152.93 159.00 152.85
  Q 141.41 152.82 133.63 154.38
  C 105.20 160.05 81.09 182.31 76.28 211.85
  C 75.83 214.56 75.92 218.26 75.73 221.41
  Q 75.54 224.63 75.54 228.61
  Q 75.66 508.85 75.60 815.50
  Q 75.60 822.34 75.80 831.44
  Q 76.02 841.28 77.41 847.24
  C 84.23 876.41 107.26 897.86 136.20 903.74
  Q 143.46 905.21 160.48 905.19
  Q 376.76 904.98 544.43 905.15
  Q 553.55 905.16 557.36 903.61
  Q 563.71 901.02 566.59 894.43"
/>
<path stroke="#b2d6fa" vector-effect="non-scaling-stroke" d="
  M 928.51 573.71
  Q 920.00 570.82 918.89 562.00
  Q 918.46 558.59 918.45 555.75
  Q 918.33 450.81 918.49 347.76
  A 0.72 0.71 0.0 0 0 917.77 347.05
  L 106.57 347.05
  A 0.60 0.60 0.0 0 0 105.97 347.65
  Q 106.10 524.82 106.00 810.87
  Q 105.99 831.39 107.09 836.51
  C 110.52 852.46 122.54 867.08 138.69 871.89
  Q 142.96 873.16 151.25 873.18
  Q 167.02 873.21 184.54 873.19
  Q 356.59 873.04 548.00 872.90
  Q 554.39 872.89 557.42 874.25
  Q 570.19 879.96 566.59 894.43"
/>
<path stroke="#b2d6fa" vector-effect="non-scaling-stroke" d="
  M 929.13 634.52
  C 909.30 605.87 884.69 581.83 853.27 565.99
  Q 842.03 560.32 835.45 557.79
  Q 797.72 543.31 759.33 544.22
  C 704.68 545.53 652.32 570.47 616.24 611.65
  Q 596.85 633.79 586.27 658.34
  Q 574.92 684.66 572.32 712.01
  Q 570.87 727.34 571.19 737.25
  Q 572.23 768.73 582.78 799.00
  C 593.99 831.13 614.67 859.28 640.67 881.08
  Q 646.42 885.90 659.13 895.52"
/>
<path stroke="#c4dffa" vector-effect="non-scaling-stroke" d="
  M 300.95 228.84
  Q 302.72 227.24 305.94 222.39
  Q 309.42 217.13 309.48 211.24
  Q 309.76 182.53 310.07 153.75
  Q 310.29 133.13 309.64 125.84
  Q 309.16 120.45 305.93 113.12
  C 304.36 109.53 300.36 105.38 297.06 104.45
  C 291.68 102.94 288.65 101.66 284.52 102.75
  C 275.89 105.02 267.64 108.07 265.42 118.16
  Q 264.34 123.05 264.28 124.51
  Q 262.93 155.97 263.42 190.50
  Q 263.51 196.87 264.32 209.99
  Q 265.02 221.56 273.83 227.14
  Q 274.00 227.24 278.91 230.55
  A 6.04 5.93 -20.3 0 0 280.83 231.41
  Q 290.73 233.92 299.63 229.73
  A 5.54 5.31 9.8 0 0 300.95 228.84"
/>
<path stroke="#c4dffa" vector-effect="non-scaling-stroke" d="
  M 528.67 228.38
  Q 531.14 226.59 532.66 222.90
  C 534.64 218.10 535.57 216.07 535.48 211.21
  C 535.29 200.56 535.38 194.00 534.51 184.28
  C 532.73 164.28 535.95 144.13 533.82 123.75
  C 532.70 113.03 523.34 104.80 512.79 104.20
  C 508.83 103.98 501.36 106.50 498.49 108.50
  Q 492.12 112.91 490.21 120.87
  A 4.83 4.72 -38.6 0 0 490.09 121.84
  Q 489.68 159.20 489.76 169.17
  C 489.86 182.99 488.90 196.14 489.53 209.51
  Q 489.92 217.80 493.16 223.04
  C 496.87 229.05 499.72 232.16 507.00 233.30
  Q 519.24 235.20 528.67 228.38"
/>
<path stroke="#c4dffa" vector-effect="non-scaling-stroke" d="
  M 758.88 119.62
  C 752.65 104.48 733.53 99.85 720.71 110.44
  Q 717.20 113.34 715.34 118.26
  Q 714.03 121.72 714.02 127.66
  Q 713.96 161.09 714.00 167.58
  C 714.09 181.75 713.23 197.39 713.95 211.25
  Q 714.28 217.75 717.44 223.13
  C 720.65 228.60 724.37 232.95 730.97 233.56
  C 740.25 234.42 746.08 233.81 753.53 228.38
  A 6.02 5.96 -1.8 0 0 754.99 226.84
  Q 758.29 221.75 759.66 215.89
  A 7.56 7.50 -38.8 0 0 759.85 214.21
  Q 759.82 203.26 759.40 192.52
  C 758.79 176.90 758.94 161.21 758.99 148.25
  Q 759.02 140.96 759.57 136.49
  Q 760.33 130.37 760.17 128.01
  Q 759.75 121.73 758.88 119.62"
/>
<path stroke="#b2d6fa" vector-effect="non-scaling-stroke" d="
  M 917.45 313.10
  A 0.99 0.98 -0.0 0 0 918.44 312.12
  Q 918.44 241.35 918.47 229.75
  C 918.53 209.40 904.18 192.31 885.18 187.28
  Q 879.34 185.74 865.50 185.80
  Q 845.38 185.90 794.25 185.93
  Q 793.10 185.93 790.54 186.23
  A 0.69 0.67 -89.4 0 0 789.95 186.82
  Q 789.94 186.89 790.08 203.79
  Q 790.16 214.96 788.97 220.62
  C 782.18 252.77 750.23 268.28 719.79 259.42
  C 700.84 253.91 686.88 239.50 683.46 219.97
  C 681.61 209.37 682.45 199.45 682.45 187.12
  A 1.21 1.21 0.0 0 0 681.24 185.91
  L 565.71 185.98
  A 0.88 0.87 -89.3 0 0 564.84 186.84
  Q 564.82 187.65 564.94 209.10
  Q 564.98 217.89 563.59 223.27
  C 554.71 257.44 516.20 270.86 485.86 255.91
  C 472.66 249.41 462.92 237.72 459.42 223.54
  Q 458.02 217.90 457.95 205.39
  Q 457.88 194.08 458.13 187.14
  A 1.19 1.19 0.0 0 0 456.94 185.91
  L 342.04 185.91
  A 1.13 1.13 0.0 0 0 340.91 187.02
  Q 340.74 196.37 340.91 205.61
  Q 341.12 216.71 339.36 223.77
  C 335.31 240.00 323.37 252.81 307.64 258.30
  C 293.61 263.20 279.33 263.22 265.50 257.75
  C 250.33 251.74 239.66 239.63 235.18 223.80
  Q 233.31 217.22 233.30 205.44
  Q 233.29 193.12 233.42 186.87
  A 0.95 0.94 -89.4 0 0 232.48 185.90
  Q 197.32 185.84 150.26 185.96
  Q 134.17 186.00 122.29 195.51
  Q 105.65 208.84 105.88 230.79
  Q 106.06 246.97 105.93 309.26
  Q 105.92 310.54 106.06 312.21
  A 0.98 0.98 0.0 0 0 107.04 313.10
  L 917.45 313.10"
/>
<path stroke="#b2d6fa" vector-effect="non-scaling-stroke" d="
  M 313.5673 428.9076
  A 20.78 20.78 0.0 0 0 292.7510 408.1639
  L 216.9511 408.2962
  A 20.78 20.78 0.0 0 0 196.2074 429.1125
  L 196.3327 500.9124
  A 20.78 20.78 0.0 0 0 217.1490 521.6561
  L 292.9489 521.5238
  A 20.78 20.78 0.0 0 0 313.6926 500.7075
  L 313.5673 428.9076"
/>
<path stroke="#b2d6fa" vector-effect="non-scaling-stroke" d="
  M 482.4629 428.9124
  A 20.58 20.58 0.0 0 0 461.9189 408.2965
  L 385.8390 408.1637
  A 20.58 20.58 0.0 0 0 365.2231 428.7077
  L 365.0971 500.9076
  A 20.58 20.58 0.0 0 0 385.6411 521.5235
  L 461.7210 521.6563
  A 20.58 20.58 0.0 0 0 482.3369 501.1123
  L 482.4629 428.9124"
/>
<path stroke="#b2d6fa" vector-effect="non-scaling-stroke" d="
  M 658.87 428.65
  A 20.47 20.47 0.0 0 0 638.40 408.18
  L 554.82 408.18
  A 20.47 20.47 0.0 0 0 534.35 428.65
  L 534.35 501.07
  A 20.47 20.47 0.0 0 0 554.82 521.54
  L 638.40 521.54
  A 20.47 20.47 0.0 0 0 658.87 501.07
  L 658.87 428.65"
/>
<path stroke="#b2d6fa" vector-effect="non-scaling-stroke" d="
  M 827.9414 429.7318
  A 21.44 21.44 0.0 0 0 806.5389 408.2545
  L 732.7790 408.1257
  A 21.44 21.44 0.0 0 0 711.3016 429.5283
  L 711.1786 499.9882
  A 21.44 21.44 0.0 0 0 732.5811 521.4655
  L 806.3410 521.5943
  A 21.44 21.44 0.0 0 0 827.8184 500.1917
  L 827.9414 429.7318"
/>
<path stroke="#b2d6fa" vector-effect="non-scaling-stroke" d="
  M 196.26 651.11
  A 20.55 20.55 0.0 0 0 216.81 671.66
  L 293.11 671.66
  A 20.55 20.55 0.0 0 0 313.66 651.11
  L 313.66 580.14
  A 20.55 20.55 0.0 0 0 293.11 559.59
  L 216.81 559.59
  A 20.55 20.55 0.0 0 0 196.26 580.14
  L 196.26 651.11"
/>
<path stroke="#b2d6fa" vector-effect="non-scaling-stroke" d="
  M 482.2680 580.1278
  A 20.53 20.53 0.0 0 0 461.7022 559.6336
  L 385.5623 559.7665
  A 20.53 20.53 0.0 0 0 365.0682 580.3323
  L 365.1920 651.2922
  A 20.53 20.53 0.0 0 0 385.7578 671.7864
  L 461.8977 671.6535
  A 20.53 20.53 0.0 0 0 482.3918 651.0877
  L 482.2680 580.1278"
/>
<path stroke="#b2d6fa" vector-effect="non-scaling-stroke" d="
  M 564.91 589.86
  A 0.71 0.70 0.0 0 1 565.62 589.16
  Q 577.20 589.18 591.52 589.18
  Q 597.76 589.18 600.11 588.23
  C 606.87 585.51 610.53 577.47 608.21 570.80
  Q 604.66 560.57 593.47 560.19
  Q 591.69 560.14 565.92 560.00
  Q 551.70 559.93 549.13 560.62
  Q 540.79 562.85 536.61 571.18
  C 534.91 574.58 534.85 578.03 534.82 582.25
  Q 534.66 607.58 534.96 634.97
  Q 535.06 643.49 541.11 648.39
  C 548.19 654.12 557.30 652.21 562.05 644.91
  C 564.51 641.14 564.84 637.62 564.86 633.25
  Q 564.88 628.59 564.91 589.86"
/>
<path stroke="#b2d6fa" vector-effect="non-scaling-stroke" d="
  M 313.6274 729.0376
  A 20.99 20.99 0.0 0 0 292.6008 708.0843
  L 217.1609 708.2159
  A 20.99 20.99 0.0 0 0 196.2076 729.2425
  L 196.3326 800.8424
  A 20.99 20.99 0.0 0 0 217.3592 821.7957
  L 292.7991 821.6641
  A 20.99 20.99 0.0 0 0 313.7524 800.6375
  L 313.6274 729.0376"
/>
<path stroke="#b2d6fa" vector-effect="non-scaling-stroke" d="
  M 482.4127 729.0323
  A 20.82 20.82 0.0 0 0 461.6290 708.1760
  L 386.0492 708.0441
  A 20.82 20.82 0.0 0 0 365.1929 728.8278
  L 365.0673 800.7477
  A 20.82 20.82 0.0 0 0 385.8510 821.6040
  L 461.4308 821.7359
  A 20.82 20.82 0.0 0 0 482.2871 800.9522
  L 482.4127 729.0323"
/>
<path stroke="#c4dffa" vector-effect="non-scaling-stroke" d="
  M 279.78 434.76
  L 230.66 434.76
  A 5.55 5.55 0.0 0 0 225.11 440.31
  L 225.11 488.02
  A 6.47 6.34 0.0 0 0 231.58 494.36
  L 278.86 494.36
  A 6.47 6.34 -0.0 0 0 285.33 488.02
  L 285.33 440.31
  A 5.55 5.55 0.0 0 0 279.78 434.76"
/>
<path stroke="#c4dffa" vector-effect="non-scaling-stroke" d="
  M 395.00 438.23
  Q 395.13 444.95 395.04 486.37
  C 395.03 491.62 396.39 494.91 402.00 494.94
  Q 427.42 495.09 449.48 494.86
  Q 454.98 494.80 455.08 489.27
  Q 455.25 479.73 455.14 443.30
  C 455.12 438.84 454.46 435.52 449.51 435.47
  Q 435.56 435.32 401.53 435.52
  Q 399.29 435.53 395.45 437.48
  A 0.82 0.81 76.3 0 0 395.00 438.23"
/>
<path stroke="#c4dffa" vector-effect="non-scaling-stroke" d="
  M 566.59 492.58
  L 626.29 492.58
  A 4.21 4.21 0.0 0 0 630.50 488.37
  L 630.50 439.42
  A 6.42 6.30 -90.0 0 0 624.20 433.00
  L 568.68 433.00
  A 6.42 6.30 90.0 0 0 562.38 439.42
  L 562.38 488.37
  A 4.21 4.21 0.0 0 0 566.59 492.58"
/>
<path stroke="#c4dffa" vector-effect="non-scaling-stroke" d="
  M 800.50 438.85
  A 5.26 5.26 0.0 0 0 795.24 433.59
  L 746.24 433.59
  A 5.26 5.26 0.0 0 0 740.98 438.85
  L 740.98 487.99
  A 5.26 5.26 0.0 0 0 746.24 493.25
  L 795.24 493.25
  A 5.26 5.26 0.0 0 0 800.50 487.99
  L 800.50 438.85"
/>
<path stroke="#b2d6fa" vector-effect="non-scaling-stroke" d="
  M 924.25 719.95
  C 921.49 680.63 904.20 643.87 874.68 617.83
  C 855.25 600.69 830.58 587.13 805.53 581.29
  Q 782.98 576.04 759.26 576.38
  Q 718.47 576.95 683.51 596.99
  C 653.55 614.18 628.75 639.15 615.02 669.84
  C 599.05 705.52 598.32 746.60 609.87 783.90
  C 617.93 809.95 634.33 833.82 655.03 852.21
  C 682.33 876.46 717.00 890.85 753.28 893.06
  Q 757.32 893.31 769.77 893.09
  Q 779.22 892.92 786.20 891.97
  C 835.29 885.22 877.45 857.48 902.76 815.28
  C 919.82 786.85 926.61 753.56 924.25 719.95"
/>
<path stroke="#c4dffa" vector-effect="non-scaling-stroke" d="
  M 284.11 590.68
  A 5.38 5.38 0.0 0 0 278.73 585.30
  L 229.93 585.30
  A 5.38 5.38 0.0 0 0 224.55 590.68
  L 224.55 639.48
  A 5.38 5.38 0.0 0 0 229.93 644.86
  L 278.73 644.86
  A 5.38 5.38 0.0 0 0 284.11 639.48
  L 284.11 590.68"
/>
<path stroke="#c4dffa" vector-effect="non-scaling-stroke" d="
  M 453.3076 588.9480
  A 5.57 5.57 0.0 0 0 447.7279 583.3877
  L 399.2080 583.4724
  A 5.57 5.57 0.0 0 0 393.6477 589.0521
  L 393.7324 637.5720
  A 5.57 5.57 0.0 0 0 399.3121 643.1323
  L 447.8320 643.0476
  A 5.57 5.57 0.0 0 0 453.3923 637.4679
  L 453.3076 588.9480"
/>
<path stroke="#b2d6fa" vector-effect="non-scaling-stroke" d="
  M 725.80 771.22
  Q 725.23 770.98 724.75 770.51
  Q 704.36 750.88 676.88 723.13
  C 671.43 717.63 663.96 717.27 657.65 721.73
  C 652.32 725.49 649.84 732.53 651.99 738.63
  Q 653.13 741.86 658.12 746.68
  Q 660.01 748.51 710.50 798.74
  Q 717.16 805.37 719.40 806.34
  Q 725.17 808.86 731.08 807.16
  Q 733.92 806.34 742.67 797.72
  Q 805.67 735.58 862.40 678.90
  C 866.24 675.07 869.75 671.89 870.70 667.34
  C 873.15 655.59 862.68 646.10 851.25 649.40
  Q 848.50 650.20 842.51 656.16
  Q 805.17 693.26 768.65 729.40
  Q 744.55 753.25 727.11 770.96
  A 1.19 1.18 -56.0 0 1 725.80 771.22"
/>
<path stroke="#c4dffa" vector-effect="non-scaling-stroke" d="
  M 284.20 739.89
  A 5.40 5.40 0.0 0 0 278.80 734.49
  L 229.96 734.49
  A 5.40 5.40 0.0 0 0 224.56 739.89
  L 224.56 788.73
  A 5.40 5.40 0.0 0 0 229.96 794.13
  L 278.80 794.13
  A 5.40 5.40 0.0 0 0 284.20 788.73
  L 284.20 739.89"
/>
<path stroke="#c4dffa" vector-effect="non-scaling-stroke" d="
  M 453.9172 738.5380
  A 5.30 5.30 0.0 0 0 448.6079 733.2473
  L 399.5880 733.3328
  A 5.30 5.30 0.0 0 0 394.2973 738.6421
  L 394.3828 787.6620
  A 5.30 5.30 0.0 0 0 399.6921 792.9527
  L 448.7120 792.8672
  A 5.30 5.30 0.0 0 0 454.0027 787.5579
  L 453.9172 738.5380"
/>
</g>
<path fill="#ffffff" d="
  M 1024.00 0.00
  L 1024.00 1024.00
  L 0.00 1024.00
  L 0.00 0.00
  L 1024.00 0.00
  Z
  M 566.59 894.43
  Q 578.02 895.66 594.90 895.17
  Q 609.24 894.76 659.13 895.52
  Q 676.21 906.68 696.52 913.93
  Q 720.67 922.54 745.98 924.71
  Q 782.36 927.82 820.29 917.18
  Q 849.58 908.97 875.34 890.60
  Q 905.55 869.07 924.61 838.62
  Q 951.78 795.24 953.99 742.99
  C 955.25 713.07 951.19 683.97 939.95 655.80
  Q 935.34 644.23 929.13 634.52
  Q 931.49 633.03 931.48 631.22
  Q 931.38 589.46 931.48 578.75
  Q 931.50 576.34 928.51 573.71
  C 932.70 574.51 937.69 574.81 941.24 572.23
  Q 948.40 567.03 948.07 557.99
  Q 947.91 553.46 947.89 529.25
  Q 947.83 436.17 947.81 338.26
  Q 947.81 302.71 947.90 237.77
  Q 947.92 219.57 947.37 215.29
  Q 945.88 203.66 940.95 193.81
  C 928.32 168.57 903.52 153.13 875.24 152.98
  Q 848.56 152.83 788.50 152.93
  A 0.48 0.48 0.0 0 1 788.02 152.45
  Q 788.17 139.78 788.02 125.24
  C 787.69 91.87 757.93 69.74 725.83 75.90
  C 703.94 80.10 688.54 96.10 684.05 117.88
  Q 682.81 123.91 682.88 135.20
  Q 682.95 145.31 682.92 152.61
  A 0.29 0.28 0.0 0 1 682.63 152.89
  L 564.56 152.89
  A 0.60 0.60 0.0 0 1 563.96 152.29
  Q 563.98 144.11 564.02 136.09
  C 564.10 120.35 563.21 107.64 553.74 95.52
  C 534.74 71.21 499.44 67.71 476.25 88.29
  Q 464.34 98.86 460.45 115.75
  Q 458.94 122.29 459.13 133.85
  Q 459.29 143.93 459.23 152.13
  A 0.78 0.77 -89.6 0 1 458.46 152.90
  L 340.30 152.90
  A 0.28 0.28 0.0 0 1 340.02 152.62
  Q 340.17 135.10 339.99 128.00
  Q 339.73 118.03 338.55 113.73
  Q 331.87 89.42 309.25 79.49
  C 283.07 68.00 250.94 78.36 239.06 105.05
  Q 233.95 116.53 233.90 128.76
  Q 233.87 138.37 234.01 152.33
  A 0.58 0.58 0.0 0 1 233.43 152.92
  Q 202.47 152.93 159.00 152.85
  Q 141.41 152.82 133.63 154.38
  C 105.20 160.05 81.09 182.31 76.28 211.85
  C 75.83 214.56 75.92 218.26 75.73 221.41
  Q 75.54 224.63 75.54 228.61
  Q 75.66 508.85 75.60 815.50
  Q 75.60 822.34 75.80 831.44
  Q 76.02 841.28 77.41 847.24
  C 84.23 876.41 107.26 897.86 136.20 903.74
  Q 143.46 905.21 160.48 905.19
  Q 376.76 904.98 544.43 905.15
  Q 553.55 905.16 557.36 903.61
  Q 563.71 901.02 566.59 894.43
  Z"
/>
<path fill="#88bef4" d="
  M 928.51 573.71
  Q 920.00 570.82 918.89 562.00
  Q 918.46 558.59 918.45 555.75
  Q 918.33 450.81 918.49 347.76
  A 0.72 0.71 0.0 0 0 917.77 347.05
  L 106.57 347.05
  A 0.60 0.60 0.0 0 0 105.97 347.65
  Q 106.10 524.82 106.00 810.87
  Q 105.99 831.39 107.09 836.51
  C 110.52 852.46 122.54 867.08 138.69 871.89
  Q 142.96 873.16 151.25 873.18
  Q 167.02 873.21 184.54 873.19
  Q 356.59 873.04 548.00 872.90
  Q 554.39 872.89 557.42 874.25
  Q 570.19 879.96 566.59 894.43
  Q 563.71 901.02 557.36 903.61
  Q 553.55 905.16 544.43 905.15
  Q 376.76 904.98 160.48 905.19
  Q 143.46 905.21 136.20 903.74
  C 107.26 897.86 84.23 876.41 77.41 847.24
  Q 76.02 841.28 75.80 831.44
  Q 75.60 822.34 75.60 815.50
  Q 75.66 508.85 75.54 228.61
  Q 75.54 224.63 75.73 221.41
  C 75.92 218.26 75.83 214.56 76.28 211.85
  C 81.09 182.31 105.20 160.05 133.63 154.38
  Q 141.41 152.82 159.00 152.85
  Q 202.47 152.93 233.43 152.92
  A 0.58 0.58 0.0 0 0 234.01 152.33
  Q 233.87 138.37 233.90 128.76
  Q 233.95 116.53 239.06 105.05
  C 250.94 78.36 283.07 68.00 309.25 79.49
  Q 331.87 89.42 338.55 113.73
  Q 339.73 118.03 339.99 128.00
  Q 340.17 135.10 340.02 152.62
  A 0.28 0.28 0.0 0 0 340.30 152.90
  L 458.46 152.90
  A 0.78 0.77 -89.6 0 0 459.23 152.13
  Q 459.29 143.93 459.13 133.85
  Q 458.94 122.29 460.45 115.75
  Q 464.34 98.86 476.25 88.29
  C 499.44 67.71 534.74 71.21 553.74 95.52
  C 563.21 107.64 564.10 120.35 564.02 136.09
  Q 563.98 144.11 563.96 152.29
  A 0.60 0.60 0.0 0 0 564.56 152.89
  L 682.63 152.89
  A 0.29 0.28 0.0 0 0 682.92 152.61
  Q 682.95 145.31 682.88 135.20
  Q 682.81 123.91 684.05 117.88
  C 688.54 96.10 703.94 80.10 725.83 75.90
  C 757.93 69.74 787.69 91.87 788.02 125.24
  Q 788.17 139.78 788.02 152.45
  A 0.48 0.48 0.0 0 0 788.50 152.93
  Q 848.56 152.83 875.24 152.98
  C 903.52 153.13 928.32 168.57 940.95 193.81
  Q 945.88 203.66 947.37 215.29
  Q 947.92 219.57 947.90 237.77
  Q 947.81 302.71 947.81 338.26
  Q 947.83 436.17 947.89 529.25
  Q 947.91 553.46 948.07 557.99
  Q 948.40 567.03 941.24 572.23
  C 937.69 574.81 932.70 574.51 928.51 573.71
  Z
  M 300.95 228.84
  Q 302.72 227.24 305.94 222.39
  Q 309.42 217.13 309.48 211.24
  Q 309.76 182.53 310.07 153.75
  Q 310.29 133.13 309.64 125.84
  Q 309.16 120.45 305.93 113.12
  C 304.36 109.53 300.36 105.38 297.06 104.45
  C 291.68 102.94 288.65 101.66 284.52 102.75
  C 275.89 105.02 267.64 108.07 265.42 118.16
  Q 264.34 123.05 264.28 124.51
  Q 262.93 155.97 263.42 190.50
  Q 263.51 196.87 264.32 209.99
  Q 265.02 221.56 273.83 227.14
  Q 274.00 227.24 278.91 230.55
  A 6.04 5.93 -20.3 0 0 280.83 231.41
  Q 290.73 233.92 299.63 229.73
  A 5.54 5.31 9.8 0 0 300.95 228.84
  Z
  M 528.67 228.38
  Q 531.14 226.59 532.66 222.90
  C 534.64 218.10 535.57 216.07 535.48 211.21
  C 535.29 200.56 535.38 194.00 534.51 184.28
  C 532.73 164.28 535.95 144.13 533.82 123.75
  C 532.70 113.03 523.34 104.80 512.79 104.20
  C 508.83 103.98 501.36 106.50 498.49 108.50
  Q 492.12 112.91 490.21 120.87
  A 4.83 4.72 -38.6 0 0 490.09 121.84
  Q 489.68 159.20 489.76 169.17
  C 489.86 182.99 488.90 196.14 489.53 209.51
  Q 489.92 217.80 493.16 223.04
  C 496.87 229.05 499.72 232.16 507.00 233.30
  Q 519.24 235.20 528.67 228.38
  Z
  M 758.88 119.62
  C 752.65 104.48 733.53 99.85 720.71 110.44
  Q 717.20 113.34 715.34 118.26
  Q 714.03 121.72 714.02 127.66
  Q 713.96 161.09 714.00 167.58
  C 714.09 181.75 713.23 197.39 713.95 211.25
  Q 714.28 217.75 717.44 223.13
  C 720.65 228.60 724.37 232.95 730.97 233.56
  C 740.25 234.42 746.08 233.81 753.53 228.38
  A 6.02 5.96 -1.8 0 0 754.99 226.84
  Q 758.29 221.75 759.66 215.89
  A 7.56 7.50 -38.8 0 0 759.85 214.21
  Q 759.82 203.26 759.40 192.52
  C 758.79 176.90 758.94 161.21 758.99 148.25
  Q 759.02 140.96 759.57 136.49
  Q 760.33 130.37 760.17 128.01
  Q 759.75 121.73 758.88 119.62
  Z
  M 917.45 313.10
  A 0.99 0.98 -0.0 0 0 918.44 312.12
  Q 918.44 241.35 918.47 229.75
  C 918.53 209.40 904.18 192.31 885.18 187.28
  Q 879.34 185.74 865.50 185.80
  Q 845.38 185.90 794.25 185.93
  Q 793.10 185.93 790.54 186.23
  A 0.69 0.67 -89.4 0 0 789.95 186.82
  Q 789.94 186.89 790.08 203.79
  Q 790.16 214.96 788.97 220.62
  C 782.18 252.77 750.23 268.28 719.79 259.42
  C 700.84 253.91 686.88 239.50 683.46 219.97
  C 681.61 209.37 682.45 199.45 682.45 187.12
  A 1.21 1.21 0.0 0 0 681.24 185.91
  L 565.71 185.98
  A 0.88 0.87 -89.3 0 0 564.84 186.84
  Q 564.82 187.65 564.94 209.10
  Q 564.98 217.89 563.59 223.27
  C 554.71 257.44 516.20 270.86 485.86 255.91
  C 472.66 249.41 462.92 237.72 459.42 223.54
  Q 458.02 217.90 457.95 205.39
  Q 457.88 194.08 458.13 187.14
  A 1.19 1.19 0.0 0 0 456.94 185.91
  L 342.04 185.91
  A 1.13 1.13 0.0 0 0 340.91 187.02
  Q 340.74 196.37 340.91 205.61
  Q 341.12 216.71 339.36 223.77
  C 335.31 240.00 323.37 252.81 307.64 258.30
  C 293.61 263.20 279.33 263.22 265.50 257.75
  C 250.33 251.74 239.66 239.63 235.18 223.80
  Q 233.31 217.22 233.30 205.44
  Q 233.29 193.12 233.42 186.87
  A 0.95 0.94 -89.4 0 0 232.48 185.90
  Q 197.32 185.84 150.26 185.96
  Q 134.17 186.00 122.29 195.51
  Q 105.65 208.84 105.88 230.79
  Q 106.06 246.97 105.93 309.26
  Q 105.92 310.54 106.06 312.21
  A 0.98 0.98 0.0 0 0 107.04 313.10
  L 917.45 313.10
  Z"
/>
<path fill="#ffffff" d="
  M 299.63 229.73
  Q 290.73 233.92 280.83 231.41
  A 6.04 5.93 -20.3 0 1 278.91 230.55
  Q 274.00 227.24 273.83 227.14
  Q 265.02 221.56 264.32 209.99
  Q 263.51 196.87 263.42 190.50
  Q 262.93 155.97 264.28 124.51
  Q 264.34 123.05 265.42 118.16
  C 267.64 108.07 275.89 105.02 284.52 102.75
  C 288.65 101.66 291.68 102.94 297.06 104.45
  C 300.36 105.38 304.36 109.53 305.93 113.12
  Q 309.16 120.45 309.64 125.84
  Q 310.29 133.13 310.07 153.75
  Q 309.76 182.53 309.48 211.24
  Q 309.42 217.13 305.94 222.39
  Q 302.72 227.24 300.95 228.84
  A 5.54 5.31 9.8 0 1 299.63 229.73
  Z"
/>
<path fill="#ffffff" d="
  M 528.67 228.38
  Q 519.24 235.20 507.00 233.30
  C 499.72 232.16 496.87 229.05 493.16 223.04
  Q 489.92 217.80 489.53 209.51
  C 488.90 196.14 489.86 182.99 489.76 169.17
  Q 489.68 159.20 490.09 121.84
  A 4.83 4.72 -38.6 0 1 490.21 120.87
  Q 492.12 112.91 498.49 108.50
  C 501.36 106.50 508.83 103.98 512.79 104.20
  C 523.34 104.80 532.70 113.03 533.82 123.75
  C 535.95 144.13 532.73 164.28 534.51 184.28
  C 535.38 194.00 535.29 200.56 535.48 211.21
  C 535.57 216.07 534.64 218.10 532.66 222.90
  Q 531.14 226.59 528.67 228.38
  Z"
/>
<path fill="#ffffff" d="
  M 758.88 119.62
  Q 759.75 121.73 760.17 128.01
  Q 760.33 130.37 759.57 136.49
  Q 759.02 140.96 758.99 148.25
  C 758.94 161.21 758.79 176.90 759.40 192.52
  Q 759.82 203.26 759.85 214.21
  A 7.56 7.50 -38.8 0 1 759.66 215.89
  Q 758.29 221.75 754.99 226.84
  A 6.02 5.96 -1.8 0 1 753.53 228.38
  C 746.08 233.81 740.25 234.42 730.97 233.56
  C 724.37 232.95 720.65 228.60 717.44 223.13
  Q 714.28 217.75 713.95 211.25
  C 713.23 197.39 714.09 181.75 714.00 167.58
  Q 713.96 161.09 714.02 127.66
  Q 714.03 121.72 715.34 118.26
  Q 717.20 113.34 720.71 110.44
  C 733.53 99.85 752.65 104.48 758.88 119.62
  Z"
/>
<path fill="#dbeeff" d="
  M 917.45 313.10
  L 107.04 313.10
  A 0.98 0.98 0.0 0 1 106.06 312.21
  Q 105.92 310.54 105.93 309.26
  Q 106.06 246.97 105.88 230.79
  Q 105.65 208.84 122.29 195.51
  Q 134.17 186.00 150.26 185.96
  Q 197.32 185.84 232.48 185.90
  A 0.95 0.94 -89.4 0 1 233.42 186.87
  Q 233.29 193.12 233.30 205.44
  Q 233.31 217.22 235.18 223.80
  C 239.66 239.63 250.33 251.74 265.50 257.75
  C 279.33 263.22 293.61 263.20 307.64 258.30
  C 323.37 252.81 335.31 240.00 339.36 223.77
  Q 341.12 216.71 340.91 205.61
  Q 340.74 196.37 340.91 187.02
  A 1.13 1.13 0.0 0 1 342.04 185.91
  L 456.94 185.91
  A 1.19 1.19 0.0 0 1 458.13 187.14
  Q 457.88 194.08 457.95 205.39
  Q 458.02 217.90 459.42 223.54
  C 462.92 237.72 472.66 249.41 485.86 255.91
  C 516.20 270.86 554.71 257.44 563.59 223.27
  Q 564.98 217.89 564.94 209.10
  Q 564.82 187.65 564.84 186.84
  A 0.88 0.87 -89.3 0 1 565.71 185.98
  L 681.24 185.91
  A 1.21 1.21 0.0 0 1 682.45 187.12
  C 682.45 199.45 681.61 209.37 683.46 219.97
  C 686.88 239.50 700.84 253.91 719.79 259.42
  C 750.23 268.28 782.18 252.77 788.97 220.62
  Q 790.16 214.96 790.08 203.79
  Q 789.94 186.89 789.95 186.82
  A 0.69 0.67 -89.4 0 1 790.54 186.23
  Q 793.10 185.93 794.25 185.93
  Q 845.38 185.90 865.50 185.80
  Q 879.34 185.74 885.18 187.28
  C 904.18 192.31 918.53 209.40 918.47 229.75
  Q 918.44 241.35 918.44 312.12
  A 0.99 0.98 -0.0 0 1 917.45 313.10
  Z"
/>
<path fill="#dbeeff" d="
  M 928.51 573.71
  Q 931.50 576.34 931.48 578.75
  Q 931.38 589.46 931.48 631.22
  Q 931.49 633.03 929.13 634.52
  C 909.30 605.87 884.69 581.83 853.27 565.99
  Q 842.03 560.32 835.45 557.79
  Q 797.72 543.31 759.33 544.22
  C 704.68 545.53 652.32 570.47 616.24 611.65
  Q 596.85 633.79 586.27 658.34
  Q 574.92 684.66 572.32 712.01
  Q 570.87 727.34 571.19 737.25
  Q 572.23 768.73 582.78 799.00
  C 593.99 831.13 614.67 859.28 640.67 881.08
  Q 646.42 885.90 659.13 895.52
  Q 609.24 894.76 594.90 895.17
  Q 578.02 895.66 566.59 894.43
  Q 570.19 879.96 557.42 874.25
  Q 554.39 872.89 548.00 872.90
  Q 356.59 873.04 184.54 873.19
  Q 167.02 873.21 151.25 873.18
  Q 142.96 873.16 138.69 871.89
  C 122.54 867.08 110.52 852.46 107.09 836.51
  Q 105.99 831.39 106.00 810.87
  Q 106.10 524.82 105.97 347.65
  A 0.60 0.60 0.0 0 1 106.57 347.05
  L 917.77 347.05
  A 0.72 0.71 0.0 0 1 918.49 347.76
  Q 918.33 450.81 918.45 555.75
  Q 918.46 558.59 918.89 562.00
  Q 920.00 570.82 928.51 573.71
  Z
  M 313.5673 428.9076
  A 20.78 20.78 0.0 0 0 292.7510 408.1639
  L 216.9511 408.2962
  A 20.78 20.78 0.0 0 0 196.2074 429.1125
  L 196.3327 500.9124
  A 20.78 20.78 0.0 0 0 217.1490 521.6561
  L 292.9489 521.5238
  A 20.78 20.78 0.0 0 0 313.6926 500.7075
  L 313.5673 428.9076
  Z
  M 482.4629 428.9124
  A 20.58 20.58 0.0 0 0 461.9189 408.2965
  L 385.8390 408.1637
  A 20.58 20.58 0.0 0 0 365.2231 428.7077
  L 365.0971 500.9076
  A 20.58 20.58 0.0 0 0 385.6411 521.5235
  L 461.7210 521.6563
  A 20.58 20.58 0.0 0 0 482.3369 501.1123
  L 482.4629 428.9124
  Z
  M 658.87 428.65
  A 20.47 20.47 0.0 0 0 638.40 408.18
  L 554.82 408.18
  A 20.47 20.47 0.0 0 0 534.35 428.65
  L 534.35 501.07
  A 20.47 20.47 0.0 0 0 554.82 521.54
  L 638.40 521.54
  A 20.47 20.47 0.0 0 0 658.87 501.07
  L 658.87 428.65
  Z
  M 827.9414 429.7318
  A 21.44 21.44 0.0 0 0 806.5389 408.2545
  L 732.7790 408.1257
  A 21.44 21.44 0.0 0 0 711.3016 429.5283
  L 711.1786 499.9882
  A 21.44 21.44 0.0 0 0 732.5811 521.4655
  L 806.3410 521.5943
  A 21.44 21.44 0.0 0 0 827.8184 500.1917
  L 827.9414 429.7318
  Z
  M 196.26 651.11
  A 20.55 20.55 0.0 0 0 216.81 671.66
  L 293.11 671.66
  A 20.55 20.55 0.0 0 0 313.66 651.11
  L 313.66 580.14
  A 20.55 20.55 0.0 0 0 293.11 559.59
  L 216.81 559.59
  A 20.55 20.55 0.0 0 0 196.26 580.14
  L 196.26 651.11
  Z
  M 482.2680 580.1278
  A 20.53 20.53 0.0 0 0 461.7022 559.6336
  L 385.5623 559.7665
  A 20.53 20.53 0.0 0 0 365.0682 580.3323
  L 365.1920 651.2922
  A 20.53 20.53 0.0 0 0 385.7578 671.7864
  L 461.8977 671.6535
  A 20.53 20.53 0.0 0 0 482.3918 651.0877
  L 482.2680 580.1278
  Z
  M 564.91 589.86
  A 0.71 0.70 0.0 0 1 565.62 589.16
  Q 577.20 589.18 591.52 589.18
  Q 597.76 589.18 600.11 588.23
  C 606.87 585.51 610.53 577.47 608.21 570.80
  Q 604.66 560.57 593.47 560.19
  Q 591.69 560.14 565.92 560.00
  Q 551.70 559.93 549.13 560.62
  Q 540.79 562.85 536.61 571.18
  C 534.91 574.58 534.85 578.03 534.82 582.25
  Q 534.66 607.58 534.96 634.97
  Q 535.06 643.49 541.11 648.39
  C 548.19 654.12 557.30 652.21 562.05 644.91
  C 564.51 641.14 564.84 637.62 564.86 633.25
  Q 564.88 628.59 564.91 589.86
  Z
  M 313.6274 729.0376
  A 20.99 20.99 0.0 0 0 292.6008 708.0843
  L 217.1609 708.2159
  A 20.99 20.99 0.0 0 0 196.2076 729.2425
  L 196.3326 800.8424
  A 20.99 20.99 0.0 0 0 217.3592 821.7957
  L 292.7991 821.6641
  A 20.99 20.99 0.0 0 0 313.7524 800.6375
  L 313.6274 729.0376
  Z
  M 482.4127 729.0323
  A 20.82 20.82 0.0 0 0 461.6290 708.1760
  L 386.0492 708.0441
  A 20.82 20.82 0.0 0 0 365.1929 728.8278
  L 365.0673 800.7477
  A 20.82 20.82 0.0 0 0 385.8510 821.6040
  L 461.4308 821.7359
  A 20.82 20.82 0.0 0 0 482.2871 800.9522
  L 482.4127 729.0323
  Z"
/>
<path fill="#88bef4" d="
  M 313.6926 500.7075
  A 20.78 20.78 0.0 0 1 292.9489 521.5238
  L 217.1490 521.6561
  A 20.78 20.78 0.0 0 1 196.3327 500.9124
  L 196.2074 429.1125
  A 20.78 20.78 0.0 0 1 216.9511 408.2962
  L 292.7510 408.1639
  A 20.78 20.78 0.0 0 1 313.5673 428.9076
  L 313.6926 500.7075
  Z
  M 279.78 434.76
  L 230.66 434.76
  A 5.55 5.55 0.0 0 0 225.11 440.31
  L 225.11 488.02
  A 6.47 6.34 0.0 0 0 231.58 494.36
  L 278.86 494.36
  A 6.47 6.34 -0.0 0 0 285.33 488.02
  L 285.33 440.31
  A 5.55 5.55 0.0 0 0 279.78 434.76
  Z"
/>
<path fill="#88bef4" d="
  M 482.3369 501.1123
  A 20.58 20.58 0.0 0 1 461.7210 521.6563
  L 385.6411 521.5235
  A 20.58 20.58 0.0 0 1 365.0971 500.9076
  L 365.2231 428.7077
  A 20.58 20.58 0.0 0 1 385.8390 408.1637
  L 461.9189 408.2965
  A 20.58 20.58 0.0 0 1 482.4629 428.9124
  L 482.3369 501.1123
  Z
  M 395.00 438.23
  Q 395.13 444.95 395.04 486.37
  C 395.03 491.62 396.39 494.91 402.00 494.94
  Q 427.42 495.09 449.48 494.86
  Q 454.98 494.80 455.08 489.27
  Q 455.25 479.73 455.14 443.30
  C 455.12 438.84 454.46 435.52 449.51 435.47
  Q 435.56 435.32 401.53 435.52
  Q 399.29 435.53 395.45 437.48
  A 0.82 0.81 76.3 0 0 395.00 438.23
  Z"
/>
<path fill="#88bef4" d="
  M 658.87 501.07
  A 20.47 20.47 0.0 0 1 638.40 521.54
  L 554.82 521.54
  A 20.47 20.47 0.0 0 1 534.35 501.07
  L 534.35 428.65
  A 20.47 20.47 0.0 0 1 554.82 408.18
  L 638.40 408.18
  A 20.47 20.47 0.0 0 1 658.87 428.65
  L 658.87 501.07
  Z
  M 566.59 492.58
  L 626.29 492.58
  A 4.21 4.21 0.0 0 0 630.50 488.37
  L 630.50 439.42
  A 6.42 6.30 -90.0 0 0 624.20 433.00
  L 568.68 433.00
  A 6.42 6.30 90.0 0 0 562.38 439.42
  L 562.38 488.37
  A 4.21 4.21 0.0 0 0 566.59 492.58
  Z"
/>
<path fill="#88bef4" d="
  M 827.8184 500.1917
  A 21.44 21.44 0.0 0 1 806.3410 521.5943
  L 732.5811 521.4655
  A 21.44 21.44 0.0 0 1 711.1786 499.9882
  L 711.3016 429.5283
  A 21.44 21.44 0.0 0 1 732.7790 408.1257
  L 806.5389 408.2545
  A 21.44 21.44 0.0 0 1 827.9414 429.7318
  L 827.8184 500.1917
  Z
  M 800.50 438.85
  A 5.26 5.26 0.0 0 0 795.24 433.59
  L 746.24 433.59
  A 5.26 5.26 0.0 0 0 740.98 438.85
  L 740.98 487.99
  A 5.26 5.26 0.0 0 0 746.24 493.25
  L 795.24 493.25
  A 5.26 5.26 0.0 0 0 800.50 487.99
  L 800.50 438.85
  Z"
/>
<path fill="#ffffff" d="
  M 566.59 492.58
  A 4.21 4.21 0.0 0 1 562.38 488.37
  L 562.38 439.42
  A 6.42 6.30 -90.0 0 1 568.68 433.00
  L 624.20 433.00
  A 6.42 6.30 -90.0 0 1 630.50 439.42
  L 630.50 488.37
  A 4.21 4.21 0.0 0 1 626.29 492.58
  L 566.59 492.58
  Z"
/>
<rect fill="#ffffff" x="740.98" y="433.59" width="59.52" height="59.66" rx="5.26"/>
<path fill="#ffffff" d="
  M 279.78 434.76
  A 5.55 5.55 0.0 0 1 285.33 440.31
  L 285.33 488.02
  A 6.47 6.34 -0.0 0 1 278.86 494.36
  L 231.58 494.36
  A 6.47 6.34 0.0 0 1 225.11 488.02
  L 225.11 440.31
  A 5.55 5.55 0.0 0 1 230.66 434.76
  L 279.78 434.76
  Z"
/>
<path fill="#ffffff" d="
  M 395.45 437.48
  Q 399.29 435.53 401.53 435.52
  Q 435.56 435.32 449.51 435.47
  C 454.46 435.52 455.12 438.84 455.14 443.30
  Q 455.25 479.73 455.08 489.27
  Q 454.98 494.80 449.48 494.86
  Q 427.42 495.09 402.00 494.94
  C 396.39 494.91 395.03 491.62 395.04 486.37
  Q 395.13 444.95 395.00 438.23
  A 0.82 0.81 76.3 0 1 395.45 437.48
  Z"
/>
<path fill="#88bef4" d="
  M 929.13 634.52
  Q 935.34 644.23 939.95 655.80
  C 951.19 683.97 955.25 713.07 953.99 742.99
  Q 951.78 795.24 924.61 838.62
  Q 905.55 869.07 875.34 890.60
  Q 849.58 908.97 820.29 917.18
  Q 782.36 927.82 745.98 924.71
  Q 720.67 922.54 696.52 913.93
  Q 676.21 906.68 659.13 895.52
  Q 646.42 885.90 640.67 881.08
  C 614.67 859.28 593.99 831.13 582.78 799.00
  Q 572.23 768.73 571.19 737.25
  Q 570.87 727.34 572.32 712.01
  Q 574.92 684.66 586.27 658.34
  Q 596.85 633.79 616.24 611.65
  C 652.32 570.47 704.68 545.53 759.33 544.22
  Q 797.72 543.31 835.45 557.79
  Q 842.03 560.32 853.27 565.99
  C 884.69 581.83 909.30 605.87 929.13 634.52
  Z
  M 924.25 719.95
  C 921.49 680.63 904.20 643.87 874.68 617.83
  C 855.25 600.69 830.58 587.13 805.53 581.29
  Q 782.98 576.04 759.26 576.38
  Q 718.47 576.95 683.51 596.99
  C 653.55 614.18 628.75 639.15 615.02 669.84
  C 599.05 705.52 598.32 746.60 609.87 783.90
  C 617.93 809.95 634.33 833.82 655.03 852.21
  C 682.33 876.46 717.00 890.85 753.28 893.06
  Q 757.32 893.31 769.77 893.09
  Q 779.22 892.92 786.20 891.97
  C 835.29 885.22 877.45 857.48 902.76 815.28
  C 919.82 786.85 926.61 753.56 924.25 719.95
  Z"
/>
<path fill="#88bef4" d="
  M 196.26 651.11
  L 196.26 580.14
  A 20.55 20.55 0.0 0 1 216.81 559.59
  L 293.11 559.59
  A 20.55 20.55 0.0 0 1 313.66 580.14
  L 313.66 651.11
  A 20.55 20.55 0.0 0 1 293.11 671.66
  L 216.81 671.66
  A 20.55 20.55 0.0 0 1 196.26 651.11
  Z
  M 284.11 590.68
  A 5.38 5.38 0.0 0 0 278.73 585.30
  L 229.93 585.30
  A 5.38 5.38 0.0 0 0 224.55 590.68
  L 224.55 639.48
  A 5.38 5.38 0.0 0 0 229.93 644.86
  L 278.73 644.86
  A 5.38 5.38 0.0 0 0 284.11 639.48
  L 284.11 590.68
  Z"
/>
<path fill="#88bef4" d="
  M 482.3918 651.0877
  A 20.53 20.53 0.0 0 1 461.8977 671.6535
  L 385.7578 671.7864
  A 20.53 20.53 0.0 0 1 365.1920 651.2922
  L 365.0682 580.3323
  A 20.53 20.53 0.0 0 1 385.5623 559.7665
  L 461.7022 559.6336
  A 20.53 20.53 0.0 0 1 482.2680 580.1278
  L 482.3918 651.0877
  Z
  M 453.3076 588.9480
  A 5.57 5.57 0.0 0 0 447.7279 583.3877
  L 399.2080 583.4724
  A 5.57 5.57 0.0 0 0 393.6477 589.0521
  L 393.7324 637.5720
  A 5.57 5.57 0.0 0 0 399.3121 643.1323
  L 447.8320 643.0476
  A 5.57 5.57 0.0 0 0 453.3923 637.4679
  L 453.3076 588.9480
  Z"
/>
<path fill="#88bef4" d="
  M 564.91 589.86
  Q 564.88 628.59 564.86 633.25
  C 564.84 637.62 564.51 641.14 562.05 644.91
  C 557.30 652.21 548.19 654.12 541.11 648.39
  Q 535.06 643.49 534.96 634.97
  Q 534.66 607.58 534.82 582.25
  C 534.85 578.03 534.91 574.58 536.61 571.18
  Q 540.79 562.85 549.13 560.62
  Q 551.70 559.93 565.92 560.00
  Q 591.69 560.14 593.47 560.19
  Q 604.66 560.57 608.21 570.80
  C 610.53 577.47 606.87 585.51 600.11 588.23
  Q 597.76 589.18 591.52 589.18
  Q 577.20 589.18 565.62 589.16
  A 0.71 0.70 0.0 0 0 564.91 589.86
  Z"
/>
<path fill="#dbeeff" d="
  M 924.25 719.95
  C 926.61 753.56 919.82 786.85 902.76 815.28
  C 877.45 857.48 835.29 885.22 786.20 891.97
  Q 779.22 892.92 769.77 893.09
  Q 757.32 893.31 753.28 893.06
  C 717.00 890.85 682.33 876.46 655.03 852.21
  C 634.33 833.82 617.93 809.95 609.87 783.90
  C 598.32 746.60 599.05 705.52 615.02 669.84
  C 628.75 639.15 653.55 614.18 683.51 596.99
  Q 718.47 576.95 759.26 576.38
  Q 782.98 576.04 805.53 581.29
  C 830.58 587.13 855.25 600.69 874.68 617.83
  C 904.20 643.87 921.49 680.63 924.25 719.95
  Z
  M 725.80 771.22
  Q 725.23 770.98 724.75 770.51
  Q 704.36 750.88 676.88 723.13
  C 671.43 717.63 663.96 717.27 657.65 721.73
  C 652.32 725.49 649.84 732.53 651.99 738.63
  Q 653.13 741.86 658.12 746.68
  Q 660.01 748.51 710.50 798.74
  Q 717.16 805.37 719.40 806.34
  Q 725.17 808.86 731.08 807.16
  Q 733.92 806.34 742.67 797.72
  Q 805.67 735.58 862.40 678.90
  C 866.24 675.07 869.75 671.89 870.70 667.34
  C 873.15 655.59 862.68 646.10 851.25 649.40
  Q 848.50 650.20 842.51 656.16
  Q 805.17 693.26 768.65 729.40
  Q 744.55 753.25 727.11 770.96
  A 1.19 1.18 -56.0 0 1 725.80 771.22
  Z"
/>
<rect fill="#ffffff" x="-29.83" y="-29.83" transform="translate(423.52,613.26) rotate(-0.1)" width="59.66" height="59.66" rx="5.57"/>
<rect fill="#ffffff" x="224.55" y="585.30" width="59.56" height="59.56" rx="5.38"/>
<path fill="#88bef4" d="
  M 725.80 771.22
  A 1.19 1.18 -56.0 0 0 727.11 770.96
  Q 744.55 753.25 768.65 729.40
  Q 805.17 693.26 842.51 656.16
  Q 848.50 650.20 851.25 649.40
  C 862.68 646.10 873.15 655.59 870.70 667.34
  C 869.75 671.89 866.24 675.07 862.40 678.90
  Q 805.67 735.58 742.67 797.72
  Q 733.92 806.34 731.08 807.16
  Q 725.17 808.86 719.40 806.34
  Q 717.16 805.37 710.50 798.74
  Q 660.01 748.51 658.12 746.68
  Q 653.13 741.86 651.99 738.63
  C 649.84 732.53 652.32 725.49 657.65 721.73
  C 663.96 717.27 671.43 717.63 676.88 723.13
  Q 704.36 750.88 724.75 770.51
  Q 725.23 770.98 725.80 771.22
  Z"
/>
<path fill="#88bef4" d="
  M 313.7524 800.6375
  A 20.99 20.99 0.0 0 1 292.7991 821.6641
  L 217.3592 821.7957
  A 20.99 20.99 0.0 0 1 196.3326 800.8424
  L 196.2076 729.2425
  A 20.99 20.99 0.0 0 1 217.1609 708.2159
  L 292.6008 708.0843
  A 20.99 20.99 0.0 0 1 313.6274 729.0376
  L 313.7524 800.6375
  Z
  M 284.20 739.89
  A 5.40 5.40 0.0 0 0 278.80 734.49
  L 229.96 734.49
  A 5.40 5.40 0.0 0 0 224.56 739.89
  L 224.56 788.73
  A 5.40 5.40 0.0 0 0 229.96 794.13
  L 278.80 794.13
  A 5.40 5.40 0.0 0 0 284.20 788.73
  L 284.20 739.89
  Z"
/>
<path fill="#88bef4" d="
  M 482.2871 800.9522
  A 20.82 20.82 0.0 0 1 461.4308 821.7359
  L 385.8510 821.6040
  A 20.82 20.82 0.0 0 1 365.0673 800.7477
  L 365.1929 728.8278
  A 20.82 20.82 0.0 0 1 386.0492 708.0441
  L 461.6290 708.1760
  A 20.82 20.82 0.0 0 1 482.4127 729.0323
  L 482.2871 800.9522
  Z
  M 453.9172 738.5380
  A 5.30 5.30 0.0 0 0 448.6079 733.2473
  L 399.5880 733.3328
  A 5.30 5.30 0.0 0 0 394.2973 738.6421
  L 394.3828 787.6620
  A 5.30 5.30 0.0 0 0 399.6921 792.9527
  L 448.7120 792.8672
  A 5.30 5.30 0.0 0 0 454.0027 787.5579
  L 453.9172 738.5380
  Z"
/>
<rect fill="#ffffff" x="-29.81" y="-29.81" transform="translate(424.15,763.10) rotate(-0.1)" width="59.62" height="59.62" rx="5.30"/>
<rect fill="#ffffff" x="224.56" y="734.49" width="59.64" height="59.64" rx="5.40"/>
</svg>
