<?xml version="1.0" encoding="UTF-8" standalone="no"?>
<!DOCTYPE svg PUBLIC "-//W3C//DTD SVG 1.1//EN" "http://www.w3.org/Graphics/SVG/1.1/DTD/svg11.dtd">
<svg xmlns="http://www.w3.org/2000/svg" version="1.1" viewBox="0.00 0.00 1024.00 1024.00">
<g stroke-width="2.00" fill="none" stroke-linecap="butt">
<path stroke="#4c9ce4" vector-effect="non-scaling-stroke" d="
  M 265.09 176.26
  Q 265.07 202.05 265.08 206.53
  Q 265.09 218.04 266.64 222.24
  C 269.66 230.42 277.50 236.37 286.99 236.38
  C 296.48 236.38 304.33 230.44 307.35 222.28
  Q 308.91 218.07 308.94 206.56
  Q 308.96 202.08 308.98 176.29
  Q 309.00 150.49 308.99 146.02
  Q 308.98 134.50 307.42 130.30
  C 304.41 122.13 296.57 116.17 287.08 116.17
  C 277.59 116.16 269.74 122.10 266.71 130.27
  Q 265.15 134.47 265.12 145.98
  Q 265.11 150.46 265.09 176.26"
/>
<path stroke="#4c9ce4" vector-effect="non-scaling-stroke" d="
  M 533.8557 137.4062
  A 20.96 20.96 0.0 0 0 512.9690 116.3731
  L 511.3890 116.3676
  A 20.96 20.96 0.0 0 0 490.3560 137.2543
  L 490.0843 215.0938
  A 20.96 20.96 0.0 0 0 510.9710 236.1269
  L 512.5510 236.1324
  A 20.96 20.96 0.0 0 0 533.5840 215.2457
  L 533.8557 137.4062"
/>
<path stroke="#4c9ce4" vector-effect="non-scaling-stroke" d="
  M 758.85 136.93
  A 20.69 20.69 0.0 0 0 738.16 116.24
  L 736.60 116.24
  A 20.69 20.69 0.0 0 0 715.91 136.93
  L 715.91 215.41
  A 20.69 20.69 0.0 0 0 736.60 236.10
  L 738.16 236.10
  A 20.69 20.69 0.0 0 0 758.85 215.41
  L 758.85 136.93"
/>
<path stroke="#86bff4" vector-effect="non-scaling-stroke" d="
  M 126.79 311.95
  L 897.81 311.95
  A 0.55 0.55 0.0 0 0 898.36 311.41
  Q 898.76 274.19 898.64 231.75
  C 898.61 220.27 895.69 209.95 886.52 202.67
  Q 878.70 196.45 869.74 194.82
  Q 866.20 194.17 851.20 194.14
  C 820.50 194.09 801.17 194.11 788.46 194.35
  A 0.71 0.70 88.8 0 0 787.77 195.08
  Q 787.97 202.22 787.89 210.47
  C 787.78 222.94 785.81 231.94 779.78 241.84
  Q 775.35 249.13 768.00 254.60
  Q 751.93 266.57 731.14 264.85
  Q 723.66 264.23 717.82 261.83
  Q 710.22 258.72 705.84 255.17
  C 696.55 247.62 687.95 235.08 687.06 222.79
  C 686.38 213.58 686.30 206.13 686.33 194.94
  A 0.74 0.74 0.0 0 0 685.59 194.20
  L 562.87 194.20
  A 0.68 0.68 0.0 0 0 562.19 194.91
  Q 562.32 198.44 562.18 212.73
  Q 562.07 223.96 560.28 229.59
  C 552.35 254.61 528.99 267.73 503.23 264.60
  Q 491.67 263.19 482.02 256.05
  Q 461.60 240.94 461.05 215.75
  Q 460.75 202.12 461.11 195.24
  A 1.00 0.99 -88.6 0 0 460.12 194.19
  L 337.76 194.19
  A 0.81 0.80 89.6 0 0 336.96 195.01
  Q 337.09 205.72 336.97 215.99
  C 336.77 233.60 327.19 249.73 312.04 258.19
  C 307.69 260.62 303.27 262.78 298.12 263.86
  C 275.34 268.66 253.64 259.14 242.37 238.84
  Q 236.85 228.91 236.74 217.25
  Q 236.63 206.34 236.60 195.01
  A 0.84 0.84 0.0 0 0 235.76 194.17
  Q 197.01 194.05 164.00 194.17
  Q 155.88 194.20 151.99 195.25
  Q 137.27 199.20 129.96 212.52
  Q 126.54 218.77 126.50 227.01
  Q 126.35 259.33 126.55 311.71
  A 0.24 0.24 0.0 0 0 126.79 311.95"
/>
<path stroke="#86bff4" vector-effect="non-scaling-stroke" d="
  M 512.56 853.00
  Q 832.29 852.99 858.95 852.98
  Q 868.64 852.98 871.48 852.28
  C 884.59 849.06 893.94 839.21 897.48 826.08
  C 898.44 822.53 898.50 817.11 898.55 814.50
  Q 898.69 807.46 898.58 343.59
  A 0.59 0.59 0.0 0 0 897.99 343.00
  Q 705.38 343.12 512.54 343.13
  Q 319.70 343.13 127.09 343.03
  A 0.59 0.59 0.0 0 0 126.50 343.62
  Q 126.42 807.49 126.56 814.53
  C 126.61 817.14 126.67 822.56 127.63 826.11
  C 131.18 839.24 140.53 849.09 153.64 852.30
  Q 156.48 853.00 166.16 853.01
  Q 192.83 853.01 512.56 853.00"
/>
<path stroke="#91c4ef" vector-effect="non-scaling-stroke" d="
  M 307.69 137.10
  A 19.92 19.92 0.0 0 0 287.77 117.18
  L 286.31 117.18
  A 19.92 19.92 0.0 0 0 266.39 137.10
  L 266.39 215.42
  A 19.92 19.92 0.0 0 0 286.31 235.34
  L 287.77 235.34
  A 19.92 19.92 0.0 0 0 307.69 215.42
  L 307.69 137.10"
/>
<path stroke="#91c4ef" vector-effect="non-scaling-stroke" d="
  M 532.2517 137.0941
  A 19.89 19.89 0.0 0 0 512.3270 117.2389
  L 510.9070 117.2413
  A 19.89 19.89 0.0 0 0 491.0518 137.1660
  L 491.1883 215.3859
  A 19.89 19.89 0.0 0 0 511.1130 235.2411
  L 512.5330 235.2387
  A 19.89 19.89 0.0 0 0 532.3882 215.3140
  L 532.2517 137.0941"
/>
<path stroke="#91c4ef" vector-effect="non-scaling-stroke" d="
  M 757.89 136.77
  A 19.74 19.74 0.0 0 0 738.15 117.03
  L 736.71 117.03
  A 19.74 19.74 0.0 0 0 716.97 136.77
  L 716.97 215.47
  A 19.74 19.74 0.0 0 0 736.71 235.21
  L 738.15 235.21
  A 19.74 19.74 0.0 0 0 757.89 215.47
  L 757.89 136.77"
/>
<path stroke="#86bff4" vector-effect="non-scaling-stroke" d="
  M 328.1045 406.0638
  A 16.67 16.67 0.0 0 0 311.4637 389.3647
  L 225.9438 389.2155
  A 16.67 16.67 0.0 0 0 209.2447 405.8563
  L 209.0955 491.3762
  A 16.67 16.67 0.0 0 0 225.7363 508.0753
  L 311.2562 508.2245
  A 16.67 16.67 0.0 0 0 327.9553 491.5837
  L 328.1045 406.0638"
/>
<path stroke="#86bff4" vector-effect="non-scaling-stroke" d="
  M 485.82 503.64
  C 490.73 498.74 490.33 493.54 490.29 486.00
  Q 490.04 440.67 490.28 409.21
  Q 490.29 408.47 489.99 402.86
  A 6.89 6.65 -57.0 0 0 489.63 401.00
  Q 487.16 393.93 480.75 390.93
  Q 477.15 389.24 467.28 389.31
  Q 443.38 389.46 389.08 389.37
  Q 381.48 389.35 376.53 394.31
  Q 371.57 399.26 371.58 406.86
  Q 371.66 461.16 371.50 485.07
  Q 371.43 494.93 373.11 498.53
  Q 376.11 504.94 383.18 507.42
  A 6.89 6.65 -33.0 0 0 385.04 507.78
  Q 390.65 508.08 391.39 508.07
  Q 422.86 507.84 468.18 508.10
  C 475.72 508.14 480.92 508.54 485.82 503.64"
/>
<path stroke="#86bff4" vector-effect="non-scaling-stroke" d="
  M 538.06 503.76
  C 542.98 508.67 548.19 508.27 555.75 508.23
  Q 601.20 507.99 632.75 508.23
  Q 633.49 508.24 639.12 507.94
  A 6.91 6.67 33.0 0 0 640.98 507.58
  Q 648.07 505.10 651.08 498.67
  Q 652.77 495.06 652.70 485.17
  Q 652.55 461.20 652.65 406.75
  Q 652.66 399.14 647.69 394.17
  Q 642.73 389.20 635.11 389.21
  Q 580.66 389.28 556.69 389.13
  Q 546.80 389.05 543.19 390.74
  Q 536.76 393.75 534.28 400.84
  A 6.91 6.67 57.0 0 0 533.92 402.70
  Q 533.62 408.33 533.62 409.07
  Q 533.85 440.62 533.59 486.07
  C 533.55 493.62 533.15 498.84 538.06 503.76"
/>
<path stroke="#86bff4" vector-effect="non-scaling-stroke" d="
  M 695.79 404.87
  L 695.79 492.59
  A 15.67 15.67 0.0 0 0 711.46 508.26
  L 797.82 508.26
  A 17.25 17.03 -90.0 0 0 814.85 491.01
  L 814.85 406.45
  A 17.25 17.03 90.0 0 0 797.82 389.20
  L 711.46 389.20
  A 15.67 15.67 0.0 0 0 695.79 404.87"
/>
<path stroke="#86bff4" vector-effect="non-scaling-stroke" d="
  M 328.01 553.79
  A 16.85 16.85 0.0 0 0 311.16 536.94
  L 226.02 536.94
  A 16.85 16.85 0.0 0 0 209.17 553.79
  L 209.17 638.93
  A 16.85 16.85 0.0 0 0 226.02 655.78
  L 311.16 655.78
  A 16.85 16.85 0.0 0 0 328.01 638.93
  L 328.01 553.79"
/>
<path stroke="#86bff4" vector-effect="non-scaling-stroke" d="
  M 490.2342 553.8934
  A 16.84 16.84 0.0 0 0 473.4236 537.0240
  L 388.7438 536.8762
  A 16.84 16.84 0.0 0 0 371.8744 553.6868
  L 371.7258 638.8266
  A 16.84 16.84 0.0 0 0 388.5364 655.6960
  L 473.2162 655.8438
  A 16.84 16.84 0.0 0 0 490.0856 639.0332
  L 490.2342 553.8934"
/>
<path stroke="#86bff4" vector-effect="non-scaling-stroke" d="
  M 652.5152 553.4164
  A 16.61 16.61 0.0 0 0 635.8762 536.8354
  L 550.2564 536.9848
  A 16.61 16.61 0.0 0 0 533.6754 553.6238
  L 533.8248 639.2236
  A 16.61 16.61 0.0 0 0 550.4638 655.8046
  L 636.0836 655.6552
  A 16.61 16.61 0.0 0 0 652.6646 639.0162
  L 652.5152 553.4164"
/>
<path stroke="#86bff4" vector-effect="non-scaling-stroke" d="
  M 814.9645 553.6842
  A 16.69 16.69 0.0 0 0 798.3037 536.9651
  L 712.4038 536.8151
  A 16.69 16.69 0.0 0 0 695.6847 553.4760
  L 695.5355 638.9758
  A 16.69 16.69 0.0 0 0 712.1963 655.6949
  L 798.0962 655.8449
  A 16.69 16.69 0.0 0 0 814.8153 639.1840
  L 814.9645 553.6842"
/>
<path stroke="#86bff4" vector-effect="non-scaling-stroke" d="
  M 328.03 701.15
  A 16.67 16.67 0.0 0 0 311.36 684.48
  L 225.94 684.48
  A 16.67 16.67 0.0 0 0 209.27 701.15
  L 209.27 787.25
  A 16.67 16.67 0.0 0 0 225.94 803.92
  L 311.36 803.92
  A 16.67 16.67 0.0 0 0 328.03 787.25
  L 328.03 701.15"
/>
<path stroke="#86bff4" vector-effect="non-scaling-stroke" d="
  M 490.21 700.94
  A 16.45 16.45 0.0 0 0 473.76 684.49
  L 388.24 684.49
  A 16.45 16.45 0.0 0 0 371.79 700.94
  L 371.79 787.46
  A 16.45 16.45 0.0 0 0 388.24 803.91
  L 473.76 803.91
  A 16.45 16.45 0.0 0 0 490.21 787.46
  L 490.21 700.94"
/>
<path stroke="#86bff4" vector-effect="non-scaling-stroke" d="
  M 814.9857 700.8341
  A 16.28 16.28 0.0 0 0 798.7341 684.5258
  L 712.0343 684.3744
  A 16.28 16.28 0.0 0 0 695.7259 700.6260
  L 695.5743 787.4859
  A 16.28 16.28 0.0 0 0 711.8259 803.7942
  L 798.5257 803.9456
  A 16.28 16.28 0.0 0 0 814.8341 787.6940
  L 814.9857 700.8341"
/>
<path stroke="#86bff4" vector-effect="non-scaling-stroke" d="
  M 652.60 700.73
  A 16.23 16.23 0.0 0 0 636.37 684.50
  L 549.95 684.50
  A 16.23 16.23 0.0 0 0 533.72 700.73
  L 533.72 787.67
  A 16.23 16.23 0.0 0 0 549.95 803.90
  L 636.37 803.90
  A 16.23 16.23 0.0 0 0 652.60 787.67
  L 652.60 700.73"
/>
<path stroke="#4c9ce4" vector-effect="non-scaling-stroke" d="
  M 300.7889 419.6042
  A 2.72 2.72 0.0 0 0 298.0641 416.8890
  L 239.5242 416.9911
  A 2.72 2.72 0.0 0 0 236.8090 419.7159
  L 236.9111 478.2558
  A 2.72 2.72 0.0 0 0 239.6359 480.9710
  L 298.1758 480.8689
  A 2.72 2.72 0.0 0 0 300.8910 478.1441
  L 300.7889 419.6042"
/>
<path stroke="#4c9ce4" vector-effect="non-scaling-stroke" d="
  M 462.8491 419.7144
  A 2.76 2.76 0.0 0 0 460.0843 416.9592
  L 401.7844 417.0609
  A 2.76 2.76 0.0 0 0 399.0292 419.8257
  L 399.1309 478.1256
  A 2.76 2.76 0.0 0 0 401.8957 480.8808
  L 460.1956 480.7791
  A 2.76 2.76 0.0 0 0 462.9508 478.0143
  L 462.8491 419.7144"
/>
<path stroke="#4c9ce4" vector-effect="non-scaling-stroke" d="
  M 624.9586 419.4843
  A 2.51 2.51 0.0 0 0 622.4442 416.9787
  L 563.6243 417.0814
  A 2.51 2.51 0.0 0 0 561.1187 419.5958
  L 561.2214 478.4157
  A 2.51 2.51 0.0 0 0 563.7358 480.9213
  L 622.5557 480.8186
  A 2.51 2.51 0.0 0 0 625.0613 478.3042
  L 624.9586 419.4843"
/>
<path stroke="#4c9ce4" vector-effect="non-scaling-stroke" d="
  M 787.9308 419.8266
  A 2.79 2.79 0.0 0 0 785.1457 417.0317
  L 725.9058 416.9284
  A 2.79 2.79 0.0 0 0 723.1109 419.7135
  L 723.0092 478.0134
  A 2.79 2.79 0.0 0 0 725.7943 480.8083
  L 785.0342 480.9116
  A 2.79 2.79 0.0 0 0 787.8291 478.1265
  L 787.9308 419.8266"
/>
<path stroke="#91c4ef" vector-effect="non-scaling-stroke" d="
  M 299.51 418.39
  A 0.27 0.27 0.0 0 0 299.24 418.12
  L 238.20 418.12
  A 0.27 0.27 0.0 0 0 237.93 418.39
  L 237.93 479.43
  A 0.27 0.27 0.0 0 0 238.20 479.70
  L 299.24 479.70
  A 0.27 0.27 0.0 0 0 299.51 479.43
  L 299.51 418.39"
/>
<path stroke="#91c4ef" vector-effect="non-scaling-stroke" d="
  M 461.6730 418.5736
  A 0.27 0.27 0.0 0 0 461.4035 418.3031
  L 400.6236 418.1970
  A 0.27 0.27 0.0 0 0 400.3531 418.4665
  L 400.2470 479.2464
  A 0.27 0.27 0.0 0 0 400.5165 479.5169
  L 461.2964 479.6230
  A 0.27 0.27 0.0 0 0 461.5669 479.3535
  L 461.6730 418.5736"
/>
<path stroke="#91c4ef" vector-effect="non-scaling-stroke" d="
  M 624.04 418.64
  A 0.46 0.46 0.0 0 0 623.58 418.18
  L 562.48 418.18
  A 0.46 0.46 0.0 0 0 562.02 418.64
  L 562.02 479.20
  A 0.46 0.46 0.0 0 0 562.48 479.66
  L 623.58 479.66
  A 0.46 0.46 0.0 0 0 624.04 479.20
  L 624.04 418.64"
/>
<path stroke="#91c4ef" vector-effect="non-scaling-stroke" d="
  M 786.59 418.45
  A 0.26 0.26 0.0 0 0 786.33 418.19
  L 724.47 418.19
  A 0.26 0.26 0.0 0 0 724.21 418.45
  L 724.21 479.39
  A 0.26 0.26 0.0 0 0 724.47 479.65
  L 786.33 479.65
  A 0.26 0.26 0.0 0 0 786.59 479.39
  L 786.59 418.45"
/>
<path stroke="#4c9ce4" vector-effect="non-scaling-stroke" d="
  M 300.8589 566.6340
  A 2.57 2.57 0.0 0 0 298.2844 564.0685
  L 239.2045 564.1716
  A 2.57 2.57 0.0 0 0 236.6390 566.7461
  L 236.7411 625.2860
  A 2.57 2.57 0.0 0 0 239.3156 627.8515
  L 298.3955 627.7484
  A 2.57 2.57 0.0 0 0 300.9610 625.1739
  L 300.8589 566.6340"
/>
<path stroke="#4c9ce4" vector-effect="non-scaling-stroke" d="
  M 400.41 566.97
  Q 399.98 566.05 399.75 566.16
  Q 399.08 566.49 399.08 567.23
  Q 399.00 610.73 399.24 624.25
  Q 399.27 625.64 399.50 626.43
  A 1.95 1.95 0.0 0 0 401.37 627.83
  L 461.07 627.83
  A 1.74 1.74 0.0 0 0 462.81 626.09
  L 462.92 567.11
  A 1.02 1.02 0.0 0 0 462.04 566.10
  Q 461.93 566.08 461.52 566.85"
/>
<path stroke="#b8d8f5" vector-effect="non-scaling-stroke" d="
  M 461.52 566.85
  Q 461.63 566.47 461.47 566.20
  Q 461.32 565.94 460.89 565.94
  Q 430.86 565.98 400.83 565.97
  Q 400.15 565.97 400.41 566.97"
/>
<path stroke="#91c4ef" vector-effect="non-scaling-stroke" d="
  M 461.52 566.85
  L 461.56 626.58
  A 0.47 0.46 90.0 0 1 461.10 627.05
  L 400.87 627.05
  A 0.46 0.46 0.0 0 1 400.41 626.59
  L 400.41 566.97"
/>
<path stroke="#4c9ce4" vector-effect="non-scaling-stroke" d="
  M 625.1308 567.0158
  A 2.65 2.65 0.0 0 0 622.4854 564.3612
  L 563.8655 564.2589
  A 2.65 2.65 0.0 0 0 561.2109 566.9043
  L 561.1092 625.1242
  A 2.65 2.65 0.0 0 0 563.7546 627.7788
  L 622.3745 627.8811
  A 2.65 2.65 0.0 0 0 625.0291 625.2357
  L 625.1308 567.0158"
/>
<path stroke="#4c9ce4" vector-effect="non-scaling-stroke" d="
  M 787.87 566.83
  A 2.48 2.48 0.0 0 0 785.39 564.35
  L 725.55 564.35
  A 2.48 2.48 0.0 0 0 723.07 566.83
  L 723.07 625.37
  A 2.48 2.48 0.0 0 0 725.55 627.85
  L 785.39 627.85
  A 2.48 2.48 0.0 0 0 787.87 625.37
  L 787.87 566.83"
/>
<path stroke="#91c4ef" vector-effect="non-scaling-stroke" d="
  M 299.6328 566.2439
  A 0.27 0.27 0.0 0 0 299.3633 565.9734
  L 238.2434 565.8667
  A 0.27 0.27 0.0 0 0 237.9729 566.1362
  L 237.8672 626.6961
  A 0.27 0.27 0.0 0 0 238.1367 626.9666
  L 299.2566 627.0733
  A 0.27 0.27 0.0 0 0 299.5271 626.8038
  L 299.6328 566.2439"
/>
<path stroke="#91c4ef" vector-effect="non-scaling-stroke" d="
  M 786.59 566.13
  A 0.26 0.26 0.0 0 0 786.33 565.87
  L 724.49 565.87
  A 0.26 0.26 0.0 0 0 724.23 566.13
  L 724.23 626.73
  A 0.26 0.26 0.0 0 0 724.49 626.99
  L 786.33 626.99
  A 0.26 0.26 0.0 0 0 786.59 626.73
  L 786.59 566.13"
/>
<path stroke="#91c4ef" vector-effect="non-scaling-stroke" d="
  M 623.96 566.66
  A 0.80 0.80 0.0 0 0 623.16 565.86
  L 562.84 565.86
  A 0.80 0.80 0.0 0 0 562.04 566.66
  L 562.04 626.16
  A 0.80 0.80 0.0 0 0 562.84 626.96
  L 623.16 626.96
  A 0.80 0.80 0.0 0 0 623.96 626.16
  L 623.96 566.66"
/>
<path stroke="#4c9ce4" vector-effect="non-scaling-stroke" d="
  M 301.0222 714.3561
  A 2.57 2.57 0.0 0 0 298.4566 711.7817
  L 239.3167 711.6784
  A 2.57 2.57 0.0 0 0 236.7423 714.2440
  L 236.6378 774.0639
  A 2.57 2.57 0.0 0 0 239.2034 776.6383
  L 298.3433 776.7416
  A 2.57 2.57 0.0 0 0 300.9177 774.1760
  L 301.0222 714.3561"
/>
<path stroke="#4c9ce4" vector-effect="non-scaling-stroke" d="
  M 462.89 714.08
  A 2.34 2.34 0.0 0 0 460.55 711.74
  L 401.45 711.74
  A 2.34 2.34 0.0 0 0 399.11 714.08
  L 399.11 774.32
  A 2.34 2.34 0.0 0 0 401.45 776.66
  L 460.55 776.66
  A 2.34 2.34 0.0 0 0 462.89 774.32
  L 462.89 714.08"
/>
<path stroke="#4c9ce4" vector-effect="non-scaling-stroke" d="
  M 787.9422 714.3166
  A 2.50 2.50 0.0 0 0 785.4465 711.8123
  L 725.6066 711.7078
  A 2.50 2.50 0.0 0 0 723.1023 714.2035
  L 722.9978 774.0434
  A 2.50 2.50 0.0 0 0 725.4935 776.5477
  L 785.3334 776.6522
  A 2.50 2.50 0.0 0 0 787.8377 774.1565
  L 787.9422 714.3166"
/>
<path stroke="#4c9ce4" vector-effect="non-scaling-stroke" d="
  M 625.0723 714.2558
  A 2.42 2.42 0.0 0 0 622.6565 711.8316
  L 563.5966 711.7285
  A 2.42 2.42 0.0 0 0 561.1724 714.1443
  L 561.0677 774.1442
  A 2.42 2.42 0.0 0 0 563.4835 776.5684
  L 622.5434 776.6715
  A 2.42 2.42 0.0 0 0 624.9676 774.2557
  L 625.0723 714.2558"
/>
<path stroke="#91c4ef" vector-effect="non-scaling-stroke" d="
  M 461.55 713.11
  A 0.26 0.26 0.0 0 0 461.29 712.85
  L 400.67 712.85
  A 0.26 0.26 0.0 0 0 400.41 713.11
  L 400.41 775.11
  A 0.26 0.26 0.0 0 0 400.67 775.37
  L 461.29 775.37
  A 0.26 0.26 0.0 0 0 461.55 775.11
  L 461.55 713.11"
/>
<path stroke="#91c4ef" vector-effect="non-scaling-stroke" d="
  M 299.5159 713.0462
  A 0.26 0.26 0.0 0 0 299.2554 712.7867
  L 238.1155 712.8934
  A 0.26 0.26 0.0 0 0 237.8560 713.1539
  L 237.9641 775.1338
  A 0.26 0.26 0.0 0 0 238.2246 775.3933
  L 299.3645 775.2866
  A 0.26 0.26 0.0 0 0 299.6240 775.0261
  L 299.5159 713.0462"
/>
<path stroke="#91c4ef" vector-effect="non-scaling-stroke" d="
  M 624.0737 713.3142
  A 0.45 0.45 0.0 0 0 623.6245 712.8634
  L 562.5246 712.7567
  A 0.45 0.45 0.0 0 0 562.0738 713.2059
  L 561.9663 774.8458
  A 0.45 0.45 0.0 0 0 562.4155 775.2966
  L 623.5154 775.4033
  A 0.45 0.45 0.0 0 0 623.9662 774.9541
  L 624.0737 713.3142"
/>
<path stroke="#91c4ef" vector-effect="non-scaling-stroke" d="
  M 786.63 713.13
  A 0.26 0.26 0.0 0 0 786.37 712.87
  L 724.45 712.87
  A 0.26 0.26 0.0 0 0 724.19 713.13
  L 724.19 775.05
  A 0.26 0.26 0.0 0 0 724.45 775.31
  L 786.37 775.31
  A 0.26 0.26 0.0 0 0 786.63 775.05
  L 786.63 713.13"
/>
</g>
<path fill="#72b0ea" d="
  M 563.45 164.06
  L 685.43 164.06
  A 0.59 0.59 0.0 0 0 686.02 163.47
  Q 686.01 145.64 685.95 140.71
  Q 685.84 131.38 687.50 124.99
  Q 692.64 105.14 709.85 94.15
  C 727.34 82.99 749.56 83.60 766.65 95.25
  Q 781.99 105.71 786.80 124.83
  Q 788.10 129.98 788.05 137.75
  Q 787.92 159.19 787.95 163.69
  A 0.38 0.37 -0.0 0 0 788.33 164.06
  Q 821.44 164.08 860.44 164.01
  Q 871.60 163.99 877.84 165.40
  Q 901.53 170.75 916.16 190.34
  Q 923.96 200.78 926.86 213.40
  Q 928.38 220.01 928.37 236.75
  Q 928.31 408.49 928.37 819.00
  C 928.37 822.62 927.95 827.14 927.07 830.88
  Q 921.75 853.41 904.84 868.08
  Q 890.27 880.73 870.15 883.74
  C 867.71 884.11 864.98 883.90 862.56 884.14
  Q 862.13 884.18 165.00 884.15
  C 161.71 884.15 157.23 884.15 153.69 883.59
  C 124.51 878.90 102.95 857.63 97.45 828.73
  C 96.72 824.91 96.86 821.06 96.76 816.75
  Q 96.59 809.44 96.64 227.90
  C 96.64 225.12 96.91 221.82 97.02 219.08
  Q 97.13 216.52 97.34 215.56
  Q 104.99 181.76 135.97 168.46
  Q 140.52 166.51 148.35 164.89
  Q 153.04 163.92 161.21 164.00
  Q 170.25 164.09 235.49 164.05
  A 0.51 0.51 0.0 0 0 236.00 163.54
  Q 235.96 139.34 235.96 139.30
  Q 235.74 130.69 237.47 123.87
  C 244.73 95.10 275.33 79.32 303.20 89.07
  Q 319.40 94.75 329.08 108.97
  Q 333.05 114.81 335.40 122.77
  Q 337.23 128.93 337.31 137.88
  Q 337.46 152.37 337.34 163.69
  A 0.37 0.36 -90.0 0 0 337.70 164.06
  L 459.99 164.06
  A 0.57 0.57 0.0 0 0 460.56 163.49
  Q 460.57 146.39 460.64 135.27
  C 460.71 122.59 465.39 111.08 474.29 101.77
  Q 489.69 85.66 513.47 86.04
  Q 516.09 86.08 517.50 86.48
  C 519.32 86.99 520.95 86.89 522.82 87.33
  Q 534.12 89.96 543.28 97.23
  Q 562.87 112.78 562.84 138.50
  Q 562.82 158.22 562.83 163.44
  A 0.62 0.62 0.0 0 0 563.45 164.06
  Z
  M 265.09 176.26
  Q 265.07 202.05 265.08 206.53
  Q 265.09 218.04 266.64 222.24
  C 269.66 230.42 277.50 236.37 286.99 236.38
  C 296.48 236.38 304.33 230.44 307.35 222.28
  Q 308.91 218.07 308.94 206.56
  Q 308.96 202.08 308.98 176.29
  Q 309.00 150.49 308.99 146.02
  Q 308.98 134.50 307.42 130.30
  C 304.41 122.13 296.57 116.17 287.08 116.17
  C 277.59 116.16 269.74 122.10 266.71 130.27
  Q 265.15 134.47 265.12 145.98
  Q 265.11 150.46 265.09 176.26
  Z
  M 533.8557 137.4062
  A 20.96 20.96 0.0 0 0 512.9690 116.3731
  L 511.3890 116.3676
  A 20.96 20.96 0.0 0 0 490.3560 137.2543
  L 490.0843 215.0938
  A 20.96 20.96 0.0 0 0 510.9710 236.1269
  L 512.5510 236.1324
  A 20.96 20.96 0.0 0 0 533.5840 215.2457
  L 533.8557 137.4062
  Z
  M 758.85 136.93
  A 20.69 20.69 0.0 0 0 738.16 116.24
  L 736.60 116.24
  A 20.69 20.69 0.0 0 0 715.91 136.93
  L 715.91 215.41
  A 20.69 20.69 0.0 0 0 736.60 236.10
  L 738.16 236.10
  A 20.69 20.69 0.0 0 0 758.85 215.41
  L 758.85 136.93
  Z
  M 126.79 311.95
  L 897.81 311.95
  A 0.55 0.55 0.0 0 0 898.36 311.41
  Q 898.76 274.19 898.64 231.75
  C 898.61 220.27 895.69 209.95 886.52 202.67
  Q 878.70 196.45 869.74 194.82
  Q 866.20 194.17 851.20 194.14
  C 820.50 194.09 801.17 194.11 788.46 194.35
  A 0.71 0.70 88.8 0 0 787.77 195.08
  Q 787.97 202.22 787.89 210.47
  C 787.78 222.94 785.81 231.94 779.78 241.84
  Q 775.35 249.13 768.00 254.60
  Q 751.93 266.57 731.14 264.85
  Q 723.66 264.23 717.82 261.83
  Q 710.22 258.72 705.84 255.17
  C 696.55 247.62 687.95 235.08 687.06 222.79
  C 686.38 213.58 686.30 206.13 686.33 194.94
  A 0.74 0.74 0.0 0 0 685.59 194.20
  L 562.87 194.20
  A 0.68 0.68 0.0 0 0 562.19 194.91
  Q 562.32 198.44 562.18 212.73
  Q 562.07 223.96 560.28 229.59
  C 552.35 254.61 528.99 267.73 503.23 264.60
  Q 491.67 263.19 482.02 256.05
  Q 461.60 240.94 461.05 215.75
  Q 460.75 202.12 461.11 195.24
  A 1.00 0.99 -88.6 0 0 460.12 194.19
  L 337.76 194.19
  A 0.81 0.80 89.6 0 0 336.96 195.01
  Q 337.09 205.72 336.97 215.99
  C 336.77 233.60 327.19 249.73 312.04 258.19
  C 307.69 260.62 303.27 262.78 298.12 263.86
  C 275.34 268.66 253.64 259.14 242.37 238.84
  Q 236.85 228.91 236.74 217.25
  Q 236.63 206.34 236.60 195.01
  A 0.84 0.84 0.0 0 0 235.76 194.17
  Q 197.01 194.05 164.00 194.17
  Q 155.88 194.20 151.99 195.25
  Q 137.27 199.20 129.96 212.52
  Q 126.54 218.77 126.50 227.01
  Q 126.35 259.33 126.55 311.71
  A 0.24 0.24 0.0 0 0 126.79 311.95
  Z
  M 512.56 853.00
  Q 832.29 852.99 858.95 852.98
  Q 868.64 852.98 871.48 852.28
  C 884.59 849.06 893.94 839.21 897.48 826.08
  C 898.44 822.53 898.50 817.11 898.55 814.50
  Q 898.69 807.46 898.58 343.59
  A 0.59 0.59 0.0 0 0 897.99 343.00
  Q 705.38 343.12 512.54 343.13
  Q 319.70 343.13 127.09 343.03
  A 0.59 0.59 0.0 0 0 126.50 343.62
  Q 126.42 807.49 126.56 814.53
  C 126.61 817.14 126.67 822.56 127.63 826.11
  C 131.18 839.24 140.53 849.09 153.64 852.30
  Q 156.48 853.00 166.16 853.01
  Q 192.83 853.01 512.56 853.00
  Z"
/>
<path fill="#2588de" d="
  M 287.08 116.17
  C 296.57 116.17 304.41 122.13 307.42 130.30
  Q 308.98 134.50 308.99 146.02
  Q 309.00 150.49 308.98 176.29
  Q 308.96 202.08 308.94 206.56
  Q 308.91 218.07 307.35 222.28
  C 304.33 230.44 296.48 236.38 286.99 236.38
  C 277.50 236.37 269.66 230.42 266.64 222.24
  Q 265.09 218.04 265.08 206.53
  Q 265.07 202.05 265.09 176.26
  Q 265.11 150.46 265.12 145.98
  Q 265.15 134.47 266.71 130.27
  C 269.74 122.10 277.59 116.16 287.08 116.17
  Z
  M 307.69 137.10
  A 19.92 19.92 0.0 0 0 287.77 117.18
  L 286.31 117.18
  A 19.92 19.92 0.0 0 0 266.39 137.10
  L 266.39 215.42
  A 19.92 19.92 0.0 0 0 286.31 235.34
  L 287.77 235.34
  A 19.92 19.92 0.0 0 0 307.69 215.42
  L 307.69 137.10
  Z"
/>
<path fill="#2588de" d="
  M 533.5840 215.2457
  A 20.96 20.96 0.0 0 1 512.5510 236.1324
  L 510.9710 236.1269
  A 20.96 20.96 0.0 0 1 490.0843 215.0938
  L 490.3560 137.2543
  A 20.96 20.96 0.0 0 1 511.3890 116.3676
  L 512.9690 116.3731
  A 20.96 20.96 0.0 0 1 533.8557 137.4062
  L 533.5840 215.2457
  Z
  M 532.2517 137.0941
  A 19.89 19.89 0.0 0 0 512.3270 117.2389
  L 510.9070 117.2413
  A 19.89 19.89 0.0 0 0 491.0518 137.1660
  L 491.1883 215.3859
  A 19.89 19.89 0.0 0 0 511.1130 235.2411
  L 512.5330 235.2387
  A 19.89 19.89 0.0 0 0 532.3882 215.3140
  L 532.2517 137.0941
  Z"
/>
<path fill="#2588de" d="
  M 758.85 215.41
  A 20.69 20.69 0.0 0 1 738.16 236.10
  L 736.60 236.10
  A 20.69 20.69 0.0 0 1 715.91 215.41
  L 715.91 136.93
  A 20.69 20.69 0.0 0 1 736.60 116.24
  L 738.16 116.24
  A 20.69 20.69 0.0 0 1 758.85 136.93
  L 758.85 215.41
  Z
  M 757.89 136.77
  A 19.74 19.74 0.0 0 0 738.15 117.03
  L 736.71 117.03
  A 19.74 19.74 0.0 0 0 716.97 136.77
  L 716.97 215.47
  A 19.74 19.74 0.0 0 0 736.71 235.21
  L 738.15 235.21
  A 19.74 19.74 0.0 0 0 757.89 215.47
  L 757.89 136.77
  Z"
/>
<rect fill="#fdffff" x="266.39" y="117.18" width="41.30" height="118.16" rx="19.92"/>
<rect fill="#fdffff" x="-20.60" y="-59.00" transform="translate(511.72,176.24) rotate(-0.1)" width="41.20" height="118.00" rx="19.89"/>
<rect fill="#fdffff" x="716.97" y="117.03" width="40.92" height="118.18" rx="19.74"/>
<path fill="#9acdfd" d="
  M 126.79 311.95
  A 0.24 0.24 0.0 0 1 126.55 311.71
  Q 126.35 259.33 126.50 227.01
  Q 126.54 218.77 129.96 212.52
  Q 137.27 199.20 151.99 195.25
  Q 155.88 194.20 164.00 194.17
  Q 197.01 194.05 235.76 194.17
  A 0.84 0.84 0.0 0 1 236.60 195.01
  Q 236.63 206.34 236.74 217.25
  Q 236.85 228.91 242.37 238.84
  C 253.64 259.14 275.34 268.66 298.12 263.86
  C 303.27 262.78 307.69 260.62 312.04 258.19
  C 327.19 249.73 336.77 233.60 336.97 215.99
  Q 337.09 205.72 336.96 195.01
  A 0.81 0.80 89.6 0 1 337.76 194.19
  L 460.12 194.19
  A 1.00 0.99 -88.6 0 1 461.11 195.24
  Q 460.75 202.12 461.05 215.75
  Q 461.60 240.94 482.02 256.05
  Q 491.67 263.19 503.23 264.60
  C 528.99 267.73 552.35 254.61 560.28 229.59
  Q 562.07 223.96 562.18 212.73
  Q 562.32 198.44 562.19 194.91
  A 0.68 0.68 0.0 0 1 562.87 194.20
  L 685.59 194.20
  A 0.74 0.74 0.0 0 1 686.33 194.94
  C 686.30 206.13 686.38 213.58 687.06 222.79
  C 687.95 235.08 696.55 247.62 705.84 255.17
  Q 710.22 258.72 717.82 261.83
  Q 723.66 264.23 731.14 264.85
  Q 751.93 266.57 768.00 254.60
  Q 775.35 249.13 779.78 241.84
  C 785.81 231.94 787.78 222.94 787.89 210.47
  Q 787.97 202.22 787.77 195.08
  A 0.71 0.70 88.8 0 1 788.46 194.35
  C 801.17 194.11 820.50 194.09 851.20 194.14
  Q 866.20 194.17 869.74 194.82
  Q 878.70 196.45 886.52 202.67
  C 895.69 209.95 898.61 220.27 898.64 231.75
  Q 898.76 274.19 898.36 311.41
  A 0.55 0.55 0.0 0 1 897.81 311.95
  L 126.79 311.95
  Z"
/>
<path fill="#9acdfd" d="
  M 512.54 343.13
  Q 705.38 343.12 897.99 343.00
  A 0.59 0.59 0.0 0 1 898.58 343.59
  Q 898.69 807.46 898.55 814.50
  C 898.50 817.11 898.44 822.53 897.48 826.08
  C 893.94 839.21 884.59 849.06 871.48 852.28
  Q 868.64 852.98 858.95 852.98
  Q 832.29 852.99 512.56 853.00
  Q 192.83 853.01 166.16 853.01
  Q 156.48 853.00 153.64 852.30
  C 140.53 849.09 131.18 839.24 127.63 826.11
  C 126.67 822.56 126.61 817.14 126.56 814.53
  Q 126.42 807.49 126.50 343.62
  A 0.59 0.59 0.0 0 1 127.09 343.03
  Q 319.70 343.13 512.54 343.13
  Z
  M 328.1045 406.0638
  A 16.67 16.67 0.0 0 0 311.4637 389.3647
  L 225.9438 389.2155
  A 16.67 16.67 0.0 0 0 209.2447 405.8563
  L 209.0955 491.3762
  A 16.67 16.67 0.0 0 0 225.7363 508.0753
  L 311.2562 508.2245
  A 16.67 16.67 0.0 0 0 327.9553 491.5837
  L 328.1045 406.0638
  Z
  M 485.82 503.64
  C 490.73 498.74 490.33 493.54 490.29 486.00
  Q 490.04 440.67 490.28 409.21
  Q 490.29 408.47 489.99 402.86
  A 6.89 6.65 -57.0 0 0 489.63 401.00
  Q 487.16 393.93 480.75 390.93
  Q 477.15 389.24 467.28 389.31
  Q 443.38 389.46 389.08 389.37
  Q 381.48 389.35 376.53 394.31
  Q 371.57 399.26 371.58 406.86
  Q 371.66 461.16 371.50 485.07
  Q 371.43 494.93 373.11 498.53
  Q 376.11 504.94 383.18 507.42
  A 6.89 6.65 -33.0 0 0 385.04 507.78
  Q 390.65 508.08 391.39 508.07
  Q 422.86 507.84 468.18 508.10
  C 475.72 508.14 480.92 508.54 485.82 503.64
  Z
  M 538.06 503.76
  C 542.98 508.67 548.19 508.27 555.75 508.23
  Q 601.20 507.99 632.75 508.23
  Q 633.49 508.24 639.12 507.94
  A 6.91 6.67 33.0 0 0 640.98 507.58
  Q 648.07 505.10 651.08 498.67
  Q 652.77 495.06 652.70 485.17
  Q 652.55 461.20 652.65 406.75
  Q 652.66 399.14 647.69 394.17
  Q 642.73 389.20 635.11 389.21
  Q 580.66 389.28 556.69 389.13
  Q 546.80 389.05 543.19 390.74
  Q 536.76 393.75 534.28 400.84
  A 6.91 6.67 57.0 0 0 533.92 402.70
  Q 533.62 408.33 533.62 409.07
  Q 533.85 440.62 533.59 486.07
  C 533.55 493.62 533.15 498.84 538.06 503.76
  Z
  M 695.79 404.87
  L 695.79 492.59
  A 15.67 15.67 0.0 0 0 711.46 508.26
  L 797.82 508.26
  A 17.25 17.03 -90.0 0 0 814.85 491.01
  L 814.85 406.45
  A 17.25 17.03 90.0 0 0 797.82 389.20
  L 711.46 389.20
  A 15.67 15.67 0.0 0 0 695.79 404.87
  Z
  M 328.01 553.79
  A 16.85 16.85 0.0 0 0 311.16 536.94
  L 226.02 536.94
  A 16.85 16.85 0.0 0 0 209.17 553.79
  L 209.17 638.93
  A 16.85 16.85 0.0 0 0 226.02 655.78
  L 311.16 655.78
  A 16.85 16.85 0.0 0 0 328.01 638.93
  L 328.01 553.79
  Z
  M 490.2342 553.8934
  A 16.84 16.84 0.0 0 0 473.4236 537.0240
  L 388.7438 536.8762
  A 16.84 16.84 0.0 0 0 371.8744 553.6868
  L 371.7258 638.8266
  A 16.84 16.84 0.0 0 0 388.5364 655.6960
  L 473.2162 655.8438
  A 16.84 16.84 0.0 0 0 490.0856 639.0332
  L 490.2342 553.8934
  Z
  M 652.5152 553.4164
  A 16.61 16.61 0.0 0 0 635.8762 536.8354
  L 550.2564 536.9848
  A 16.61 16.61 0.0 0 0 533.6754 553.6238
  L 533.8248 639.2236
  A 16.61 16.61 0.0 0 0 550.4638 655.8046
  L 636.0836 655.6552
  A 16.61 16.61 0.0 0 0 652.6646 639.0162
  L 652.5152 553.4164
  Z
  M 814.9645 553.6842
  A 16.69 16.69 0.0 0 0 798.3037 536.9651
  L 712.4038 536.8151
  A 16.69 16.69 0.0 0 0 695.6847 553.4760
  L 695.5355 638.9758
  A 16.69 16.69 0.0 0 0 712.1963 655.6949
  L 798.0962 655.8449
  A 16.69 16.69 0.0 0 0 814.8153 639.1840
  L 814.9645 553.6842
  Z
  M 328.03 701.15
  A 16.67 16.67 0.0 0 0 311.36 684.48
  L 225.94 684.48
  A 16.67 16.67 0.0 0 0 209.27 701.15
  L 209.27 787.25
  A 16.67 16.67 0.0 0 0 225.94 803.92
  L 311.36 803.92
  A 16.67 16.67 0.0 0 0 328.03 787.25
  L 328.03 701.15
  Z
  M 490.21 700.94
  A 16.45 16.45 0.0 0 0 473.76 684.49
  L 388.24 684.49
  A 16.45 16.45 0.0 0 0 371.79 700.94
  L 371.79 787.46
  A 16.45 16.45 0.0 0 0 388.24 803.91
  L 473.76 803.91
  A 16.45 16.45 0.0 0 0 490.21 787.46
  L 490.21 700.94
  Z
  M 814.9857 700.8341
  A 16.28 16.28 0.0 0 0 798.7341 684.5258
  L 712.0343 684.3744
  A 16.28 16.28 0.0 0 0 695.7259 700.6260
  L 695.5743 787.4859
  A 16.28 16.28 0.0 0 0 711.8259 803.7942
  L 798.5257 803.9456
  A 16.28 16.28 0.0 0 0 814.8341 787.6940
  L 814.9857 700.8341
  Z
  M 652.60 700.73
  A 16.23 16.23 0.0 0 0 636.37 684.50
  L 549.95 684.50
  A 16.23 16.23 0.0 0 0 533.72 700.73
  L 533.72 787.67
  A 16.23 16.23 0.0 0 0 549.95 803.90
  L 636.37 803.90
  A 16.23 16.23 0.0 0 0 652.60 787.67
  L 652.60 700.73
  Z"
/>
<path fill="#72b0ea" d="
  M 327.9553 491.5837
  A 16.67 16.67 0.0 0 1 311.2562 508.2245
  L 225.7363 508.0753
  A 16.67 16.67 0.0 0 1 209.0955 491.3762
  L 209.2447 405.8563
  A 16.67 16.67 0.0 0 1 225.9438 389.2155
  L 311.4637 389.3647
  A 16.67 16.67 0.0 0 1 328.1045 406.0638
  L 327.9553 491.5837
  Z
  M 300.7889 419.6042
  A 2.72 2.72 0.0 0 0 298.0641 416.8890
  L 239.5242 416.9911
  A 2.72 2.72 0.0 0 0 236.8090 419.7159
  L 236.9111 478.2558
  A 2.72 2.72 0.0 0 0 239.6359 480.9710
  L 298.1758 480.8689
  A 2.72 2.72 0.0 0 0 300.8910 478.1441
  L 300.7889 419.6042
  Z"
/>
<path fill="#72b0ea" d="
  M 485.82 503.64
  C 480.92 508.54 475.72 508.14 468.18 508.10
  Q 422.86 507.84 391.39 508.07
  Q 390.65 508.08 385.04 507.78
  A 6.89 6.65 -33.0 0 1 383.18 507.42
  Q 376.11 504.94 373.11 498.53
  Q 371.43 494.93 371.50 485.07
  Q 371.66 461.16 371.58 406.86
  Q 371.57 399.26 376.53 394.31
  Q 381.48 389.35 389.08 389.37
  Q 443.38 389.46 467.28 389.31
  Q 477.15 389.24 480.75 390.93
  Q 487.16 393.93 489.63 401.00
  A 6.89 6.65 -57.0 0 1 489.99 402.86
  Q 490.29 408.47 490.28 409.21
  Q 490.04 440.67 490.29 486.00
  C 490.33 493.54 490.73 498.74 485.82 503.64
  Z
  M 462.8491 419.7144
  A 2.76 2.76 0.0 0 0 460.0843 416.9592
  L 401.7844 417.0609
  A 2.76 2.76 0.0 0 0 399.0292 419.8257
  L 399.1309 478.1256
  A 2.76 2.76 0.0 0 0 401.8957 480.8808
  L 460.1956 480.7791
  A 2.76 2.76 0.0 0 0 462.9508 478.0143
  L 462.8491 419.7144
  Z"
/>
<path fill="#72b0ea" d="
  M 647.69 394.17
  Q 652.66 399.14 652.65 406.75
  Q 652.55 461.20 652.70 485.17
  Q 652.77 495.06 651.08 498.67
  Q 648.07 505.10 640.98 507.58
  A 6.91 6.67 33.0 0 1 639.12 507.94
  Q 633.49 508.24 632.75 508.23
  Q 601.20 507.99 555.75 508.23
  C 548.19 508.27 542.98 508.67 538.06 503.76
  C 533.15 498.84 533.55 493.62 533.59 486.07
  Q 533.85 440.62 533.62 409.07
  Q 533.62 408.33 533.92 402.70
  A 6.91 6.67 57.0 0 1 534.28 400.84
  Q 536.76 393.75 543.19 390.74
  Q 546.80 389.05 556.69 389.13
  Q 580.66 389.28 635.11 389.21
  Q 642.73 389.20 647.69 394.17
  Z
  M 624.9586 419.4843
  A 2.51 2.51 0.0 0 0 622.4442 416.9787
  L 563.6243 417.0814
  A 2.51 2.51 0.0 0 0 561.1187 419.5958
  L 561.2214 478.4157
  A 2.51 2.51 0.0 0 0 563.7358 480.9213
  L 622.5557 480.8186
  A 2.51 2.51 0.0 0 0 625.0613 478.3042
  L 624.9586 419.4843
  Z"
/>
<path fill="#72b0ea" d="
  M 695.79 404.87
  A 15.67 15.67 0.0 0 1 711.46 389.20
  L 797.82 389.20
  A 17.25 17.03 90.0 0 1 814.85 406.45
  L 814.85 491.01
  A 17.25 17.03 -90.0 0 1 797.82 508.26
  L 711.46 508.26
  A 15.67 15.67 0.0 0 1 695.79 492.59
  L 695.79 404.87
  Z
  M 787.9308 419.8266
  A 2.79 2.79 0.0 0 0 785.1457 417.0317
  L 725.9058 416.9284
  A 2.79 2.79 0.0 0 0 723.1109 419.7135
  L 723.0092 478.0134
  A 2.79 2.79 0.0 0 0 725.7943 480.8083
  L 785.0342 480.9116
  A 2.79 2.79 0.0 0 0 787.8291 478.1265
  L 787.9308 419.8266
  Z"
/>
<path fill="#2588de" d="
  M 300.8910 478.1441
  A 2.72 2.72 0.0 0 1 298.1758 480.8689
  L 239.6359 480.9710
  A 2.72 2.72 0.0 0 1 236.9111 478.2558
  L 236.8090 419.7159
  A 2.72 2.72 0.0 0 1 239.5242 416.9911
  L 298.0641 416.8890
  A 2.72 2.72 0.0 0 1 300.7889 419.6042
  L 300.8910 478.1441
  Z
  M 299.51 418.39
  A 0.27 0.27 0.0 0 0 299.24 418.12
  L 238.20 418.12
  A 0.27 0.27 0.0 0 0 237.93 418.39
  L 237.93 479.43
  A 0.27 0.27 0.0 0 0 238.20 479.70
  L 299.24 479.70
  A 0.27 0.27 0.0 0 0 299.51 479.43
  L 299.51 418.39
  Z"
/>
<path fill="#2588de" d="
  M 462.9508 478.0143
  A 2.76 2.76 0.0 0 1 460.1956 480.7791
  L 401.8957 480.8808
  A 2.76 2.76 0.0 0 1 399.1309 478.1256
  L 399.0292 419.8257
  A 2.76 2.76 0.0 0 1 401.7844 417.0609
  L 460.0843 416.9592
  A 2.76 2.76 0.0 0 1 462.8491 419.7144
  L 462.9508 478.0143
  Z
  M 461.6730 418.5736
  A 0.27 0.27 0.0 0 0 461.4035 418.3031
  L 400.6236 418.1970
  A 0.27 0.27 0.0 0 0 400.3531 418.4665
  L 400.2470 479.2464
  A 0.27 0.27 0.0 0 0 400.5165 479.5169
  L 461.2964 479.6230
  A 0.27 0.27 0.0 0 0 461.5669 479.3535
  L 461.6730 418.5736
  Z"
/>
<path fill="#2588de" d="
  M 625.0613 478.3042
  A 2.51 2.51 0.0 0 1 622.5557 480.8186
  L 563.7358 480.9213
  A 2.51 2.51 0.0 0 1 561.2214 478.4157
  L 561.1187 419.5958
  A 2.51 2.51 0.0 0 1 563.6243 417.0814
  L 622.4442 416.9787
  A 2.51 2.51 0.0 0 1 624.9586 419.4843
  L 625.0613 478.3042
  Z
  M 624.04 418.64
  A 0.46 0.46 0.0 0 0 623.58 418.18
  L 562.48 418.18
  A 0.46 0.46 0.0 0 0 562.02 418.64
  L 562.02 479.20
  A 0.46 0.46 0.0 0 0 562.48 479.66
  L 623.58 479.66
  A 0.46 0.46 0.0 0 0 624.04 479.20
  L 624.04 418.64
  Z"
/>
<path fill="#2588de" d="
  M 787.8291 478.1265
  A 2.79 2.79 0.0 0 1 785.0342 480.9116
  L 725.7943 480.8083
  A 2.79 2.79 0.0 0 1 723.0092 478.0134
  L 723.1109 419.7135
  A 2.79 2.79 0.0 0 1 725.9058 416.9284
  L 785.1457 417.0317
  A 2.79 2.79 0.0 0 1 787.9308 419.8266
  L 787.8291 478.1265
  Z
  M 786.59 418.45
  A 0.26 0.26 0.0 0 0 786.33 418.19
  L 724.47 418.19
  A 0.26 0.26 0.0 0 0 724.21 418.45
  L 724.21 479.39
  A 0.26 0.26 0.0 0 0 724.47 479.65
  L 786.33 479.65
  A 0.26 0.26 0.0 0 0 786.59 479.39
  L 786.59 418.45
  Z"
/>
<rect fill="#fdffff" x="237.93" y="418.12" width="61.58" height="61.58" rx="0.27"/>
<rect fill="#fdffff" x="-30.66" y="-30.66" transform="translate(430.96,448.91) rotate(0.1)" width="61.32" height="61.32" rx="0.27"/>
<rect fill="#fdffff" x="562.02" y="418.18" width="62.02" height="61.48" rx="0.46"/>
<rect fill="#fdffff" x="724.21" y="418.19" width="62.38" height="61.46" rx="0.26"/>
<path fill="#72b0ea" d="
  M 328.01 638.93
  A 16.85 16.85 0.0 0 1 311.16 655.78
  L 226.02 655.78
  A 16.85 16.85 0.0 0 1 209.17 638.93
  L 209.17 553.79
  A 16.85 16.85 0.0 0 1 226.02 536.94
  L 311.16 536.94
  A 16.85 16.85 0.0 0 1 328.01 553.79
  L 328.01 638.93
  Z
  M 300.8589 566.6340
  A 2.57 2.57 0.0 0 0 298.2844 564.0685
  L 239.2045 564.1716
  A 2.57 2.57 0.0 0 0 236.6390 566.7461
  L 236.7411 625.2860
  A 2.57 2.57 0.0 0 0 239.3156 627.8515
  L 298.3955 627.7484
  A 2.57 2.57 0.0 0 0 300.9610 625.1739
  L 300.8589 566.6340
  Z"
/>
<path fill="#72b0ea" d="
  M 490.0856 639.0332
  A 16.84 16.84 0.0 0 1 473.2162 655.8438
  L 388.5364 655.6960
  A 16.84 16.84 0.0 0 1 371.7258 638.8266
  L 371.8744 553.6868
  A 16.84 16.84 0.0 0 1 388.7438 536.8762
  L 473.4236 537.0240
  A 16.84 16.84 0.0 0 1 490.2342 553.8934
  L 490.0856 639.0332
  Z
  M 400.41 566.97
  Q 399.98 566.05 399.75 566.16
  Q 399.08 566.49 399.08 567.23
  Q 399.00 610.73 399.24 624.25
  Q 399.27 625.64 399.50 626.43
  A 1.95 1.95 0.0 0 0 401.37 627.83
  L 461.07 627.83
  A 1.74 1.74 0.0 0 0 462.81 626.09
  L 462.92 567.11
  A 1.02 1.02 0.0 0 0 462.04 566.10
  Q 461.93 566.08 461.52 566.85
  Q 461.63 566.47 461.47 566.20
  Q 461.32 565.94 460.89 565.94
  Q 430.86 565.98 400.83 565.97
  Q 400.15 565.97 400.41 566.97
  Z"
/>
<path fill="#72b0ea" d="
  M 652.6646 639.0162
  A 16.61 16.61 0.0 0 1 636.0836 655.6552
  L 550.4638 655.8046
  A 16.61 16.61 0.0 0 1 533.8248 639.2236
  L 533.6754 553.6238
  A 16.61 16.61 0.0 0 1 550.2564 536.9848
  L 635.8762 536.8354
  A 16.61 16.61 0.0 0 1 652.5152 553.4164
  L 652.6646 639.0162
  Z
  M 625.1308 567.0158
  A 2.65 2.65 0.0 0 0 622.4854 564.3612
  L 563.8655 564.2589
  A 2.65 2.65 0.0 0 0 561.2109 566.9043
  L 561.1092 625.1242
  A 2.65 2.65 0.0 0 0 563.7546 627.7788
  L 622.3745 627.8811
  A 2.65 2.65 0.0 0 0 625.0291 625.2357
  L 625.1308 567.0158
  Z"
/>
<path fill="#72b0ea" d="
  M 814.8153 639.1840
  A 16.69 16.69 0.0 0 1 798.0962 655.8449
  L 712.1963 655.6949
  A 16.69 16.69 0.0 0 1 695.5355 638.9758
  L 695.6847 553.4760
  A 16.69 16.69 0.0 0 1 712.4038 536.8151
  L 798.3037 536.9651
  A 16.69 16.69 0.0 0 1 814.9645 553.6842
  L 814.8153 639.1840
  Z
  M 787.87 566.83
  A 2.48 2.48 0.0 0 0 785.39 564.35
  L 725.55 564.35
  A 2.48 2.48 0.0 0 0 723.07 566.83
  L 723.07 625.37
  A 2.48 2.48 0.0 0 0 725.55 627.85
  L 785.39 627.85
  A 2.48 2.48 0.0 0 0 787.87 625.37
  L 787.87 566.83
  Z"
/>
<path fill="#2588de" d="
  M 300.9610 625.1739
  A 2.57 2.57 0.0 0 1 298.3955 627.7484
  L 239.3156 627.8515
  A 2.57 2.57 0.0 0 1 236.7411 625.2860
  L 236.6390 566.7461
  A 2.57 2.57 0.0 0 1 239.2045 564.1716
  L 298.2844 564.0685
  A 2.57 2.57 0.0 0 1 300.8589 566.6340
  L 300.9610 625.1739
  Z
  M 299.6328 566.2439
  A 0.27 0.27 0.0 0 0 299.3633 565.9734
  L 238.2434 565.8667
  A 0.27 0.27 0.0 0 0 237.9729 566.1362
  L 237.8672 626.6961
  A 0.27 0.27 0.0 0 0 238.1367 626.9666
  L 299.2566 627.0733
  A 0.27 0.27 0.0 0 0 299.5271 626.8038
  L 299.6328 566.2439
  Z"
/>
<path fill="#2588de" d="
  M 787.87 625.37
  A 2.48 2.48 0.0 0 1 785.39 627.85
  L 725.55 627.85
  A 2.48 2.48 0.0 0 1 723.07 625.37
  L 723.07 566.83
  A 2.48 2.48 0.0 0 1 725.55 564.35
  L 785.39 564.35
  A 2.48 2.48 0.0 0 1 787.87 566.83
  L 787.87 625.37
  Z
  M 786.59 566.13
  A 0.26 0.26 0.0 0 0 786.33 565.87
  L 724.49 565.87
  A 0.26 0.26 0.0 0 0 724.23 566.13
  L 724.23 626.73
  A 0.26 0.26 0.0 0 0 724.49 626.99
  L 786.33 626.99
  A 0.26 0.26 0.0 0 0 786.59 626.73
  L 786.59 566.13
  Z"
/>
<path fill="#2588de" d="
  M 625.0291 625.2357
  A 2.65 2.65 0.0 0 1 622.3745 627.8811
  L 563.7546 627.7788
  A 2.65 2.65 0.0 0 1 561.1092 625.1242
  L 561.2109 566.9043
  A 2.65 2.65 0.0 0 1 563.8655 564.2589
  L 622.4854 564.3612
  A 2.65 2.65 0.0 0 1 625.1308 567.0158
  L 625.0291 625.2357
  Z
  M 623.96 566.66
  A 0.80 0.80 0.0 0 0 623.16 565.86
  L 562.84 565.86
  A 0.80 0.80 0.0 0 0 562.04 566.66
  L 562.04 626.16
  A 0.80 0.80 0.0 0 0 562.84 626.96
  L 623.16 626.96
  A 0.80 0.80 0.0 0 0 623.96 626.16
  L 623.96 566.66
  Z"
/>
<rect fill="#fdffff" x="-30.83" y="-30.55" transform="translate(268.75,596.47) rotate(0.1)" width="61.66" height="61.10" rx="0.27"/>
<path fill="#fdffff" d="
  M 461.52 566.85
  L 461.56 626.58
  A 0.47 0.46 90.0 0 1 461.10 627.05
  L 400.87 627.05
  A 0.46 0.46 0.0 0 1 400.41 626.59
  L 400.41 566.97
  Q 400.15 565.97 400.83 565.97
  Q 430.86 565.98 460.89 565.94
  Q 461.32 565.94 461.47 566.20
  Q 461.63 566.47 461.52 566.85
  Z"
/>
<rect fill="#fdffff" x="562.04" y="565.86" width="61.92" height="61.10" rx="0.80"/>
<rect fill="#fdffff" x="724.23" y="565.87" width="62.36" height="61.12" rx="0.26"/>
<path fill="#2588de" d="
  M 400.41 566.97
  L 400.41 626.59
  A 0.46 0.46 0.0 0 0 400.87 627.05
  L 461.10 627.05
  A 0.47 0.46 -90.0 0 0 461.56 626.58
  L 461.52 566.85
  Q 461.93 566.08 462.04 566.10
  A 1.02 1.02 0.0 0 1 462.92 567.11
  L 462.81 626.09
  A 1.74 1.74 0.0 0 1 461.07 627.83
  L 401.37 627.83
  A 1.95 1.95 0.0 0 1 399.50 626.43
  Q 399.27 625.64 399.24 624.25
  Q 399.00 610.73 399.08 567.23
  Q 399.08 566.49 399.75 566.16
  Q 399.98 566.05 400.41 566.97
  Z"
/>
<path fill="#72b0ea" d="
  M 328.03 787.25
  A 16.67 16.67 0.0 0 1 311.36 803.92
  L 225.94 803.92
  A 16.67 16.67 0.0 0 1 209.27 787.25
  L 209.27 701.15
  A 16.67 16.67 0.0 0 1 225.94 684.48
  L 311.36 684.48
  A 16.67 16.67 0.0 0 1 328.03 701.15
  L 328.03 787.25
  Z
  M 301.0222 714.3561
  A 2.57 2.57 0.0 0 0 298.4566 711.7817
  L 239.3167 711.6784
  A 2.57 2.57 0.0 0 0 236.7423 714.2440
  L 236.6378 774.0639
  A 2.57 2.57 0.0 0 0 239.2034 776.6383
  L 298.3433 776.7416
  A 2.57 2.57 0.0 0 0 300.9177 774.1760
  L 301.0222 714.3561
  Z"
/>
<path fill="#72b0ea" d="
  M 490.21 787.46
  A 16.45 16.45 0.0 0 1 473.76 803.91
  L 388.24 803.91
  A 16.45 16.45 0.0 0 1 371.79 787.46
  L 371.79 700.94
  A 16.45 16.45 0.0 0 1 388.24 684.49
  L 473.76 684.49
  A 16.45 16.45 0.0 0 1 490.21 700.94
  L 490.21 787.46
  Z
  M 462.89 714.08
  A 2.34 2.34 0.0 0 0 460.55 711.74
  L 401.45 711.74
  A 2.34 2.34 0.0 0 0 399.11 714.08
  L 399.11 774.32
  A 2.34 2.34 0.0 0 0 401.45 776.66
  L 460.55 776.66
  A 2.34 2.34 0.0 0 0 462.89 774.32
  L 462.89 714.08
  Z"
/>
<path fill="#72b0ea" d="
  M 814.8341 787.6940
  A 16.28 16.28 0.0 0 1 798.5257 803.9456
  L 711.8259 803.7942
  A 16.28 16.28 0.0 0 1 695.5743 787.4859
  L 695.7259 700.6260
  A 16.28 16.28 0.0 0 1 712.0343 684.3744
  L 798.7341 684.5258
  A 16.28 16.28 0.0 0 1 814.9857 700.8341
  L 814.8341 787.6940
  Z
  M 787.9422 714.3166
  A 2.50 2.50 0.0 0 0 785.4465 711.8123
  L 725.6066 711.7078
  A 2.50 2.50 0.0 0 0 723.1023 714.2035
  L 722.9978 774.0434
  A 2.50 2.50 0.0 0 0 725.4935 776.5477
  L 785.3334 776.6522
  A 2.50 2.50 0.0 0 0 787.8377 774.1565
  L 787.9422 714.3166
  Z"
/>
<path fill="#72b0ea" d="
  M 652.60 787.67
  A 16.23 16.23 0.0 0 1 636.37 803.90
  L 549.95 803.90
  A 16.23 16.23 0.0 0 1 533.72 787.67
  L 533.72 700.73
  A 16.23 16.23 0.0 0 1 549.95 684.50
  L 636.37 684.50
  A 16.23 16.23 0.0 0 1 652.60 700.73
  L 652.60 787.67
  Z
  M 625.0723 714.2558
  A 2.42 2.42 0.0 0 0 622.6565 711.8316
  L 563.5966 711.7285
  A 2.42 2.42 0.0 0 0 561.1724 714.1443
  L 561.0677 774.1442
  A 2.42 2.42 0.0 0 0 563.4835 776.5684
  L 622.5434 776.6715
  A 2.42 2.42 0.0 0 0 624.9676 774.2557
  L 625.0723 714.2558
  Z"
/>
<path fill="#2588de" d="
  M 462.89 774.32
  A 2.34 2.34 0.0 0 1 460.55 776.66
  L 401.45 776.66
  A 2.34 2.34 0.0 0 1 399.11 774.32
  L 399.11 714.08
  A 2.34 2.34 0.0 0 1 401.45 711.74
  L 460.55 711.74
  A 2.34 2.34 0.0 0 1 462.89 714.08
  L 462.89 774.32
  Z
  M 461.55 713.11
  A 0.26 0.26 0.0 0 0 461.29 712.85
  L 400.67 712.85
  A 0.26 0.26 0.0 0 0 400.41 713.11
  L 400.41 775.11
  A 0.26 0.26 0.0 0 0 400.67 775.37
  L 461.29 775.37
  A 0.26 0.26 0.0 0 0 461.55 775.11
  L 461.55 713.11
  Z"
/>
<path fill="#2588de" d="
  M 300.9177 774.1760
  A 2.57 2.57 0.0 0 1 298.3433 776.7416
  L 239.2034 776.6383
  A 2.57 2.57 0.0 0 1 236.6378 774.0639
  L 236.7423 714.2440
  A 2.57 2.57 0.0 0 1 239.3167 711.6784
  L 298.4566 711.7817
  A 2.57 2.57 0.0 0 1 301.0222 714.3561
  L 300.9177 774.1760
  Z
  M 299.5159 713.0462
  A 0.26 0.26 0.0 0 0 299.2554 712.7867
  L 238.1155 712.8934
  A 0.26 0.26 0.0 0 0 237.8560 713.1539
  L 237.9641 775.1338
  A 0.26 0.26 0.0 0 0 238.2246 775.3933
  L 299.3645 775.2866
  A 0.26 0.26 0.0 0 0 299.6240 775.0261
  L 299.5159 713.0462
  Z"
/>
<path fill="#2588de" d="
  M 624.9676 774.2557
  A 2.42 2.42 0.0 0 1 622.5434 776.6715
  L 563.4835 776.5684
  A 2.42 2.42 0.0 0 1 561.0677 774.1442
  L 561.1724 714.1443
  A 2.42 2.42 0.0 0 1 563.5966 711.7285
  L 622.6565 711.8316
  A 2.42 2.42 0.0 0 1 625.0723 714.2558
  L 624.9676 774.2557
  Z
  M 624.0737 713.3142
  A 0.45 0.45 0.0 0 0 623.6245 712.8634
  L 562.5246 712.7567
  A 0.45 0.45 0.0 0 0 562.0738 713.2059
  L 561.9663 774.8458
  A 0.45 0.45 0.0 0 0 562.4155 775.2966
  L 623.5154 775.4033
  A 0.45 0.45 0.0 0 0 623.9662 774.9541
  L 624.0737 713.3142
  Z"
/>
<path fill="#2588de" d="
  M 787.8377 774.1565
  A 2.50 2.50 0.0 0 1 785.3334 776.6522
  L 725.4935 776.5477
  A 2.50 2.50 0.0 0 1 722.9978 774.0434
  L 723.1023 714.2035
  A 2.50 2.50 0.0 0 1 725.6066 711.7078
  L 785.4465 711.8123
  A 2.50 2.50 0.0 0 1 787.9422 714.3166
  L 787.8377 774.1565
  Z
  M 786.63 713.13
  A 0.26 0.26 0.0 0 0 786.37 712.87
  L 724.45 712.87
  A 0.26 0.26 0.0 0 0 724.19 713.13
  L 724.19 775.05
  A 0.26 0.26 0.0 0 0 724.45 775.31
  L 786.37 775.31
  A 0.26 0.26 0.0 0 0 786.63 775.05
  L 786.63 713.13
  Z"
/>
<rect fill="#fdffff" x="-30.83" y="-31.25" transform="translate(268.74,744.09) rotate(-0.1)" width="61.66" height="62.50" rx="0.26"/>
<rect fill="#fdffff" x="724.19" y="712.87" width="62.44" height="62.44" rx="0.26"/>
<rect fill="#fdffff" x="400.41" y="712.85" width="61.14" height="62.52" rx="0.26"/>
<rect fill="#fdffff" x="-31.00" y="-31.27" transform="translate(593.02,744.08) rotate(0.1)" width="62.00" height="62.54" rx="0.45"/>
</svg>
