<?xml version="1.0" encoding="UTF-8" standalone="no"?>
<!DOCTYPE svg PUBLIC "-//W3C//DTD SVG 1.1//EN" "http://www.w3.org/Graphics/SVG/1.1/DTD/svg11.dtd">
<svg xmlns="http://www.w3.org/2000/svg" version="1.1" viewBox="0.00 0.00 1024.00 1024.00">
<g stroke-width="2.00" fill="none" stroke-linecap="butt">
<path stroke="#edf7ff" vector-effect="non-scaling-stroke" d="
  M 566.59 894.43
  Q 578.02 895.66 594.90 895.17
  Q 609.24 894.76 659.13 895.52"
/>
<path stroke="#c4dffa" vector-effect="non-scaling-stroke" d="
  M 659.13 895.52
  Q 676.21 906.68 696.52 913.93
  Q 720.67 922.54 745.98 924.71
  Q 782.36 927.82 820.29 917.18
  Q 849.58 908.97 875.34 890.60
  Q 905.55 869.07 924.61 838.62
  Q 951.78 795.24 953.99 742.99
  C 955.25 713.07 951.19 683.97 939.95 655.80
  Q 935.34 644.23 929.13 634.52"
/>
<path stroke="#edf7ff" vector-effect="non-scaling-stroke" d="
  M 929.13 634.52
  Q 931.49 633.03 931.48 631.22
  Q 931.38 589.46 931.48 578.75
  Q 931.50 576.34 928.51 573.71"
/>
<path stroke="#c4dffa" vector-effect="non-scaling-stroke" d="
  M 928.51 573.71
  C 932.70 574.51 937.69 574.81 941.24 572.23
  Q 948.40 567.03 948.07 557.99
  Q 947.91 553.46 947.89 529.25
  Q 947.83 436.17 947.81 338.26
  Q 947.81 302.71 947.90 237.77
  Q 947.92 219.57 947.37 215.29
  Q 945.88 203.66 940.95 193.81
  C 928.32 168.57 903.52 153.13 875.24 152.98
  Q 848.56 152.83 788.50 152.93
  A 0.48 0.48 0.0 0 1 788.02 152.45
  Q 788.17 139.78 788.02 125.24
  C 787.69 91.87 757.93 69.74 725.83 75.90
  C 703.94 80.10 688.54 96.10 684.05 117.88
  Q 682.81 123.91 682.88 135.20
  Q 682.95 145.31 682.92 152.61
  A 0.29 0.28 0.0 0 1 682.63 152.89
  L 564.56 152.89
  A 0.60 0.60 0.0 0 1 563.96 152.29
  Q 563.98 144.11 564.02 136.09
  C 564.10 120.35 563.21 107.64 553.74 95.52
  C 534.74 71.21 499.44 67.71 476.25 88.29
  Q 464.34 98.86 460.45 115.75
  Q 458.94 122.29 459.13 133.85
  Q 459.29 143.93 459.23 152.13
  A 0.78 0.77 -89.6 0 1 458.46 152.90
  L 340.30 152.90
  A 0.28 0.28 0.0 0 1 340.02 152.62
  Q 340.17 135.10 339.99 128.00
  Q 339.73 118.03 338.55 113.73
  Q 331.87 89.42 309.25 79.49
  C 283.07 68.00 250.94 78.36 239.06 105.05
  Q 233.95 116.53 233.90 128.76
  Q 233.87 138.37 234.01 152.33
  A 0.58 0.58 0.0 0 1 233.43 152.92
  Q 202.47 152.93 159.00 152.85
  Q 141.41 152.82 133.63 154.38
  C 105.20 160.05 81.09 182.31 76.28 211.85
  C 75.83 214.56 75.92 218.26 75.73 221.41
  Q 75.54 224.63 75.54 228.61
  Q 75.66 508.85 75.60 815.50
  Q 75.60 822.34 75.80 831.44
  Q 76.02 841.28 77.41 847.24
  C 84.23 876.41 107.26 897.86 136.20 903.74
  Q 143.46 905.21 160.48 905.19
  Q 376.76 904.98 544.43 905.15
  Q 553.55 905.16 557.36 903.61
  Q 563.71 901.02 566.59 894.43"
/>
<path stroke="#b2d6fa" vector-effect="non-scaling-stroke" d="
  M 928.51 573.71
  Q 920.00 570.82 918.89 562.00
  Q 918.46 558.59 918.45 555.75
  Q 918.33 450.81 918.49 347.76
  A 0.72 0.71 0.0 0 0 917.77 347.05
  L 106.57 347.05
  A 0.60 0.60 0.0 0 0 105.97 347.65
  Q 106.10 524.82 106.00 810.87
  Q 105.99 831.39 107.09 836.51
  C 110.52 852.46 122.54 867.08 138.69 871.89
  Q 142.96 873.16 151.25 873.18
  Q 167.02 873.21 184.54 873.19
  Q 356.59 873.04 548.00 872.90
  Q 554.39 872.89 557.42 874.25
  Q 570.19 879.96 566.59 894.43"
/>
<path stroke="#b2d6fa" vector-effect="non-scaling-stroke" d="
  M 929.13 634.52
  C 909.30 605.87 884.69 581.83 853.27 565.99
  Q 842.03 560.32 835.45 557.79
  Q 797.72 543.31 759.33 544.22
  C 704.68 545.53 652.32 570.47 616.24 611.65
  Q 596.85 633.79 586.27 658.34
  Q 574.92 684.66 572.32 712.01
  Q 570.87 727.34 571.19 737.25
  Q 572.23 768.73 582.78 799.00
  C 593.99 831.13 614.67 859.28 640.67 881.08
  Q 646.42 885.90 659.13 895.52"
/>
<path stroke="#c4dffa" vector-effect="non-scaling-stroke" d="
  M 300.95 228.84
  Q 302.72 227.24 305.94 222.39
  Q 309.42 217.13 309.48 211.24
  Q 309.76 182.53 310.07 153.75
  Q 310.29 133.13 309.64 125.84
  Q 309.16 120.45 305.93 113.12
  C 304.36 109.53 300.36 105.38 297.06 104.45
  C 291.68 102.94 288.65 101.66 284.52 102.75
  C 275.89 105.02 267.64 108.07 265.42 118.16
  Q 264.34 123.05 264.28 124.51
  Q 262.93 155.97 263.42 190.50
  Q 263.51 196.87 264.32 209.99
  Q 265.02 221.56 273.83 227.14
  Q 274.00 227.24 278.91 230.55
  A 6.04 5.93 -20.3 0 0 280.83 231.41
  Q 290.73 233.92 299.63 229.73
  A 5.54 5.31 9.8 0 0 300.95 228.84"
/>
<path stroke="#c4dffa" vector-effect="non-scaling-stroke" d="
  M 528.67 228.38
  Q 531.14 226.59 532.66 222.90
  C 534.64 218.10 535.57 216.07 535.48 211.21
  C 535.29 200.56 535.38 194.00 534.51 184.28
  C 532.73 164.28 535.95 144.13 533.82 123.75
  C 532.70 113.03 523.34 104.80 512.79 104.20
  C 508.83 103.98 501.36 106.50 498.49 108.50
  Q 492.12 112.91 490.21 120.87
  A 4.83 4.72 -38.6 0 0 490.09 121.84
  Q 489.68 159.20 489.76 169.17
  C 489.86 182.99 488.90 196.14 489.53 209.51
  Q 489.92 217.80 493.16 223.04
  C 496.87 229.05 499.72 232.16 507.00 233.30
  Q 519.24 235.20 528.67 228.38"
/>
<path stroke="#c4dffa" vector-effect="non-scaling-stroke" d="
  M 758.88 119.62
  C 752.65 104.48 733.53 99.85 720.71 110.44
  Q 717.20 113.34 715.34 118.26
  Q 714.03 121.72 714.02 127.66
  Q 713.96 161.09 714.00 167.58
  C 714.09 181.75 713.23 197.39 713.95 211.25
  Q 714.28 217.75 717.44 223.13
  C 720.65 228.60 724.37 232.95 730.97 233.56
  C 740.25 234.42 746.08 233.81 753.53 228.38
  A 6.02 5.96 -1.8 0 0 754.99 226.84
  Q 758.29 221.75 759.66 215.89
  A 7.56 7.50 -38.8 0 0 759.85 214.21
  Q 759.82 203.26 759.40 192.52
  C 758.79 176.90 758.94 161.21 758.99 148.25
  Q 759.02 140.96 759.57 136.49
  Q 760.33 130.37 760.17 128.01
  Q 759.75 121.73 758.88 119.62"
/>
<path stroke="#b2d6fa" vector-effect="non-scaling-stroke" d="
  M 917.45 313.10
  A 0.99 0.98 -0.0 0 0 918.44 312.12
  Q 918.44 241.35 918.47 229.75
  C 918.53 209.40 904.18 192.31 885.18 187.28
  Q 879.34 185.74 865.50 185.80
  Q 845.38 185.90 794.25 185.93
  Q 793.10 185.93 790.54 186.23
  A 0.69 0.67 -89.4 0 0 789.95 186.82
  Q 789.94 186.89 790.08 203.79
  Q 790.16 214.96 788.97 220.62
  C 782.18 252.77 750.23 268.28 719.79 259.42
  C 700.84 253.91 686.88 239.50 683.46 219.97
  C 681.61 209.37 682.45 199.45 682.45 187.12
  A 1.21 1.21 0.0 0 0 681.24 185.91
  L 565.71 185.98
  A 0.88 0.87 -89.3 0 0 564.84 186.84
  Q 564.82 187.65 564.94 209.10
  Q 564.98 217.89 563.59 223.27
  C 554.71 257.44 516.20 270.86 485.86 255.91
  C 472.66 249.41 462.92 237.72 459.42 223.54
  Q 458.02 217.90 457.95 205.39
  Q 457.88 194.08 458.13 187.14
  A 1.19 1.19 0.0 0 0 456.94 185.91
  L 342.04 185.91
  A 1.13 1.13 0.0 0 0 340.91 187.02
  Q 340.74 196.37 340.91 205.61
  Q 341.12 216.71 339.36 223.77
  C 335.31 240.00 323.37 252.81 307.64 258.30
  C 293.61 263.20 279.33 263.22 265.50 257.75
  C 250.33 251.74 239.66 239.63 235.18 223.80
  Q 233.31 217.22 233.30 205.44
  Q 233.29 193.12 233.42 186.87
  A 0.95 0.94 -89.4 0 0 232.48 185.90
  Q 197.32 185.84 150.26 185.96
  Q 134.17 186.00 122.29 195.51
  Q 105.65 208.84 105.88 230.79
  Q 106.06 246.97 105.93 309.26
  Q 105.92 310.54 106.06 312.21
  A 0.98 0.98 0.0 0 0 107.04 313.10
  L 917.45 313.10"
/>
<path stroke="#b2d6fa" vector-effect="non-scaling-stroke" d="
  M 313.5673 428.9076
  A 20.78 20.78 0.0 0 0 292.7510 408.1639
  L 216.9511 408.2962
  A 20.78 20.78 0.0 0 0 196.2074 429.1125
  L 196.3327 500.9124
  A 20.78 20.78 0.0 0 0 217.1490 521.6561
  L 292.9489 521.5238
  A 20.78 20.78 0.0 0 0 313.6926 500.7075
  L 313.5673 428.9076"
/>
<path stroke="#b2d6fa" vector-effect="non-scaling-stroke" d="
  M 482.4629 428.9124
  A 20.58 20.58 0.0 0 0 461.9189 408.2965
  L 385.8390 408.1637
  A 20.58 20.58 0.0 0 0 365.2231 428.7077
  L 365.0971 500.9076
  A 20.58 20.58 0.0 0 0 385.6411 521.5235
  L 461.7210 521.6563
  A 20.58 20.58 0.0 0 0 482.3369 501.1123
  L 482.4629 428.9124"
/>
<path stroke="#b2d6fa" vector-effect="non-scaling-stroke" d="
  M 658.87 428.65
  A 20.47 20.47 0.0 0 0 638.40 408.18
  L 554.82 408.18
  A 20.47 20.47 0.0 0 0 534.35 428.65
  L 534.35 501.07
  A 20.47 20.47 0.0 0 0 554.82 521.54
  L 638.40 521.54
  A 20.47 20.47 0.0 0 0 658.87 501.07
  L 658.87 428.65"
/>
<path stroke="#b2d6fa" vector-effect="non-scaling-stroke" d="
  M 827.9414 429.7318
  A 21.44 21.44 0.0 0 0 806.5389 408.2545
  L 732.7790 408.1257
  A 21.44 21.44 0.0 0 0 711.3016 429.5283
  L 711.1786 499.9882
  A 21.44 21.44 0.0 0 0 732.5811 521.4655
  L 806.3410 521.5943
  A 21.44 21.44 0.0 0 0 827.8184 500.1917
  L 827.9414 429.7318"
/>
<path stroke="#b2d6fa" vector-effect="non-scaling-stroke" d="
  M 196.26 651.11
  A 20.55 20.55 0.0 0 0 216.81 671.66
  L 293.11 671.66
  A 20.55 20.55 0.0 0 0 313.66 651.11
  L 313.66 580.14
  A 20.55 20.55 0.0 0 0 293.11 559.59
  L 216.81 559.59
  A 20.55 20.55 0.0 0 0 196.26 580.14
  L 196.26 651.11"
/>
<path stroke="#b2d6fa" vector-effect="non-scaling-stroke" d="
  M 482.2680 580.1278
  A 20.53 20.53 0.0 0 0 461.7022 559.6336
  L 385.5623 559.7665
  A 20.53 20.53 0.0 0 0 365.0682 580.3323
  L 365.1920 651.2922
  A 20.53 20.53 0.0 0 0 385.7578 671.7864
  L 461.8977 671.6535
  A 20.53 20.53 0.0 0 0 482.3918 651.0877
  L 482.2680 580.1278"
/>
<path stroke="#b2d6fa" vector-effect="non-scaling-stroke" d="
  M 564.91 589.86
  A 0.71 0.70 0.0 0 1 565.62 589.16
  Q 577.20 589.18 591.52 589.18
  Q 597.76 589.18 600.11 588.23
  C 606.87 585.51 610.53 577.47 608.21 570.80
  Q 604.66 560.57 593.47 560.19
  Q 591.69 560.14 565.92 560.00
  Q 551.70 559.93 549.13 560.62
  Q 540.79 562.85 536.61 571.18
  C 534.91 574.58 534.85 578.03 534.82 582.25
  Q 534.66 607.58 534.96 634.97
  Q 535.06 643.49 541.11 648.39
  C 548.19 654.12 557.30 652.21 562.05 644.91
  C 564.51 641.14 564.84 637.62 564.86 633.25
  Q 564.88 628.59 564.91 589.86"
/>
<path stroke="#b2d6fa" vector-effect="non-scaling-stroke" d="
  M 313.6274 729.0376
  A 20.99 20.99 0.0 0 0 292.6008 708.0843
  L 217.1609 708.2159
  A 20.99 20.99 0.0 0 0 196.2076 729.2425
  L 196.3326 800.8424
  A 20.99 20.99 0.0 0 0 217.3592 821.7957
  L 292.7991 821.6641
  A 20.99 20.99 0.0 0 0 313.7524 800.6375
  L 313.6274 729.0376"
/>
<path stroke="#b2d6fa" vector-effect="non-scaling-stroke" d="
  M 482.4127 729.0323
  A 20.82 20.82 0.0 0 0 461.6290 708.1760
  L 386.0492 708.0441
  A 20.82 20.82 0.0 0 0 365.1929 728.8278
  L 365.0673 800.7477
  A 20.82 20.82 0.0 0 0 385.8510 821.6040
  L 461.4308 821.7359
  A 20.82 20.82 0.0 0 0 482.2871 800.9522
  L 482.4127 729.0323"
/>
<path stroke="#c4dffa" vector-effect="non-scaling-stroke" d="
  M 279.78 434.76
  L 230.66 434.76
  A 5.55 5.55 0.0 0 0 225.11 440.31
  L 225.11 488.02
  A 6.47 6.34 0.0 0 0 231.58 494.36
  L 278.86 494.36
  A 6.47 6.34 -0.0 0 0 285.33 488.02
  L 285.33 440.31
  A 5.55 5.55 0.0 0 0 279.78 434.76"
/>
<path stroke="#c4dffa" vector-effect="non-scaling-stroke" d="
  M 395.00 438.23
  Q 395.13 444.95 395.04 486.37
  C 395.03 491.62 396.39 494.91 402.00 494.94
  Q 427.42 495.09 449.48 494.86
  Q 454.98 494.80 455.08 489.27
  Q 455.25 479.73 455.14 443.30
  C 455.12 438.84 454.46 435.52 449.51 435.47
  Q 435.56 435.32 401.53 435.52
  Q 399.29 435.53 395.45 437.48
  A 0.82 0.81 76.3 0 0 395.00 438.23"
/>
<path stroke="#c4dffa" vector-effect="non-scaling-stroke" d="
  M 566.59 492.58
  L 626.29 492.58
  A 4.21 4.21 0.0 0 0 630.50 488.37
  L 630.50 439.42
  A 6.42 6.30 -90.0 0 0 624.20 433.00
  L 568.68 433.00
  A 6.42 6.30 90.0 0 0 562.38 439.42
  L 562.38 488.37
  A 4.21 4.21 0.0 0 0 566.59 492.58"
/>
<path stroke="#c4dffa" vector-effect="non-scaling-stroke" d="
  M 800.50 438.85
  A 5.26 5.26 0.0 0 0 795.24 433.59
  L 746.24 433.59
  A 5.26 5.26 0.0 0 0 740.98 438.85
  L 740.98 487.99
  A 5.26 5.26 0.0 0 0 746.24 493.25
  L 795.24 493.25
  A 5.26 5.26 0.0 0 0 800.50 487.99
  L 800.50 438.85"
/>
<path stroke="#b2d6fa" vector-effect="non-scaling-stroke" d="
  M 924.25 719.95
  C 921.49 680.63 904.20 643.87 874.68 617.83
  C 855.25 600.69 830.58 587.13 805.53 581.29
  Q 782.98 576.04 759.26 576.38
  Q 718.47 576.95 683.51 596.99
  C 653.55 614.18 628.75 639.15 615.02 669.84
  C 599.05 705.52 598.32 746.60 609.87 783.90
  C 617.93 809.95 634.33 833.82 655.03 852.21
  C 682.33 876.46 717.00 890.85 753.28 893.06
  Q 757.32 893.31 769.77 893.09
  Q 779.22 892.92 786.20 891.97
  C 835.29 885.22 877.45 857.48 902.76 815.28
  C 919.82 786.85 926.61 753.56 924.25 719.95"
/>
<path stroke="#c4dffa" vector-effect="non-scaling-stroke" d="
  M 284.11 590.68
  A 5.38 5.38 0.0 0 0 278.73 585.30
  L 229.93 585.30
  A 5.38 5.38 0.0 0 0 224.55 590.68
  L 224.55 639.48
  A 5.38 5.38 0.0 0 0 229.93 644.86
  L 278.73 644.86
  A 5.38 5.38 0.0 0 0 284.11 639.48
  L 284.11 590.68"
/>
<path stroke="#c4dffa" vector-effect="non-scaling-stroke" d="
  M 453.3076 588.9480
  A 5.57 5.57 0.0 0 0 447.7279 583.3877
  L 399.2080 583.4724
  A 5.57 5.57 0.0 0 0 393.6477 589.0521
  L 393.7324 637.5720
  A 5.57 5.57 0.0 0 0 399.3121 643.1323
  L 447.8320 643.0476
  A 5.57 5.57 0.0 0 0 453.3923 637.4679
  L 453.3076 588.9480"
/>
<path stroke="#b2d6fa" vector-effect="non-scaling-stroke" d="
  M 725.80 771.22
  Q 725.23 770.98 724.75 770.51
  Q 704.36 750.88 676.88 723.13
  C 671.43 717.63 663.96 717.27 657.65 721.73
  C 652.32 725.49 649.84 732.53 651.99 738.63
  Q 653.13 741.86 658.12 746.68
  Q 660.01 748.51 710.50 798.74
  Q 717.16 805.37 719.40 806.34
  Q 725.17 808.86 731.08 807.16
  Q 733.92 806.34 742.67 797.72
  Q 805.67 735.58 862.40 678.90
  C 866.24 675.07 869.75 671.89 870.70 667.34
  C 873.15 655.59 862.68 646.10 851.25 649.40
  Q 848.50 650.20 842.51 656.16
  Q 805.17 693.26 768.65 729.40
  Q 744.55 753.25 727.11 770.96
  A 1.19 1.18 -56.0 0 1 725.80 771.22"
/>
<path stroke="#c4dffa" vector-effect="non-scaling-stroke" d="
  M 284.20 739.89
  A 5.40 5.40 0.0 0 0 278.80 734.49
  L 229.96 734.49
  A 5.40 5.40 0.0 0 0 224.56 739.89
  L 224.56 788.73
  A 5.40 5.40 0.0 0 0 229.96 794.13
  L 278.80 794.13
  A 5.40 5.40 0.0 0 0 284.20 788.73
  L 284.20 739.89"
/>
<path stroke="#c4dffa" vector-effect="non-scaling-stroke" d="
  M 453.9172 738.5380
  A 5.30 5.30 0.0 0 0 448.6079 733.2473
  L 399.5880 733.3328
  A 5.30 5.30 0.0 0 0 394.2973 738.6421
  L 394.3828 787.6620
  A 5.30 5.30 0.0 0 0 399.6921 792.9527
  L 448.7120 792.8672
  A 5.30 5.30 0.0 0 0 454.0027 787.5579
  L 453.9172 738.5380"
/>
</g>
<path fill="#ffffff" d="
  M 1024.00 0.00
  L 1024.00 1024.00
  L 0.00 1024.00
  L 0.00 0.00
  L 1024.00 0.00
  Z
  M 566.59 894.43
  Q 578.02 895.66 594.90 895.17
  Q 609.24 894.76 659.13 895.52
  Q 676.21 906.68 696.52 913.93
  Q 720.67 922.54 745.98 924.71
  Q 782.36 927.82 820.29 917.18
  Q 849.58 908.97 875.34 890.60
  Q 905.55 869.07 924.61 838.62
  Q 951.78 795.24 953.99 742.99
  C 955.25 713.07 951.19 683.97 939.95 655.80
  Q 935.34 644.23 929.13 634.52
  Q 931.49 633.03 931.48 631.22
  Q 931.38 589.46 931.48 578.75
  Q 931.50 576.34 928.51 573.71
  C 932.70 574.51 937.69 574.81 941.24 572.23
  Q 948.40 567.03 948.07 557.99
  Q 947.91 553.46 947.89 529.25
  Q 947.83 436.17 947.81 338.26
  Q 947.81 302.71 947.90 237.77
  Q 947.92 219.57 947.37 215.29
  Q 945.88 203.66 940.95 193.81
  C 928.32 168.57 903.52 153.13 875.24 152.98
  Q 848.56 152.83 788.50 152.93
  A 0.48 0.48 0.0 0 1 788.02 152.45
  Q 788.17 139.78 788.02 125.24
  C 787.69 91.87 757.93 69.74 725.83 75.90
  C 703.94 80.10 688.54 96.10 684.05 117.88
  Q 682.81 123.91 682.88 135.20
  Q 682.95 145.31 682.92 152.61
  A 0.29 0.28 0.0 0 1 682.63 152.89
  L 564.56 152.89
  A 0.60 0.60 0.0 0 1 563.96 152.29
  Q 563.98 144.11 564.02 136.09
  C 564.10 120.35 563.21 107.64 553.74 95.52
  C 534.74 71.21 499.44 67.71 476.25 88.29
  Q 464.34 98.86 460.45 115.75
  Q 458.94 122.29 459.13 133.85
  Q 459.29 143.93 459.23 152.13
  A 0.78 0.77 -89.6 0 1 458.46 152.90
  L 340.30 152.90
  A 0.28 0.28 0.0 0 1 340.02 152.62
  Q 340.17 135.10 339.99 128.00
  Q 339.73 118.03 338.55 113.73
  Q 331.87 89.42 309.25 79.49
  C 283.07 68.00 250.94 78.36 239.06 105.05
  Q 233.95 116.53 233.90 128.76
  Q 233.87 138.37 234.01 152.33
  A 0.58 0.58 0.0 0 1 233.43 152.92
  Q 202.47 152.93 159.00 152.85
  Q 141.41 152.82 133.63 154.38
  C 105.20 160.05 81.09 182.31 76.28 211.85
  C 75.83 214.56 75.92 218.26 75.73 221.41
  Q 75.54 224.63 75.54 228.61
  Q 75.66 508.85 75.60 815.50
  Q 75.60 822.34 75.80 831.44
  Q 76.02 841.28 77.41 847.24
  C 84.23 876.41 107.26 897.86 136.20 903.74
  Q 143.46 905.21 160.48 905.19
  Q 376.76 904.98 544.43 905.15
  Q 553.55 905.16 557.36 903.61
  Q 563.71 901.02 566.59 894.43
  Z"
/>
<path fill="#88bef4" d="
  M 928.51 573.71
  Q 920.00 570.82 918.89 562.00
  Q 918.46 558.59 918.45 555.75
  Q 918.33 450.81 918.49 347.76
  A 0.72 0.71 0.0 0 0 917.77 347.05
  L 106.57 347.05
  A 0.60 0.60 0.0 0 0 105.97 347.65
  Q 106.10 524.82 106.00 810.87
  Q 105.99 831.39 107.09 836.51
  C 110.52 852.46 122.54 867.08 138.69 871.89
  Q 142.96 873.16 151.25 873.18
  Q 167.02 873.21 184.54 873.19
  Q 356.59 873.04 548.00 872.90
  Q 554.39 872.89 557.42 874.25
  Q 570.19 879.96 566.59 894.43
  Q 563.71 901.02 557.36 903.61
  Q 553.55 905.16 544.43 905.15
  Q 376.76 904.98 160.48 905.19
  Q 143.46 905.21 136.20 903.74
  C 107.26 897.86 84.23 876.41 77.41 847.24
  Q 76.02 841.28 75.80 831.44
  Q 75.60 822.34 75.60 815.50
  Q 75.66 508.85 75.54 228.61
  Q 75.54 224.63 75.73 221.41
  C 75.92 218.26 75.83 214.56 76.28 211.85
  C 81.09 182.31 105.20 160.05 133.63 154.38
  Q 141.41 152.82 159.00 152.85
  Q 202.47 152.93 233.43 152.92
  A 0.58 0.58 0.0 0 0 234.01 152.33
  Q 233.87 138.37 233.90 128.76
  Q 233.95 116.53 239.06 105.05
  C 250.94 78.36 283.07 68.00 309.25 79.49
  Q 331.87 89.42 338.55 113.73
  Q 339.73 118.03 339.99 128.00
  Q 340.17 135.10 340.02 152.62
  A 0.28 0.28 0.0 0 0 340.30 152.90
  L 458.46 152.90
  A 0.78 0.77 -89.6 0 0 459.23 152.13
  Q 459.29 143.93 459.13 133.85
  Q 458.94 122.29 460.45 115.75
  Q 464.34 98.86 476.25 88.29
  C 499.44 67.71 534.74 71.21 553.74 95.52
  C 563.21 107.64 564.10 120.35 564.02 136.09
  Q 563.98 144.11 563.96 152.29
  A 0.60 0.60 0.0 0 0 564.56 152.89
  L 682.63 152.89
  A 0.29 0.28 0.0 0 0 682.92 152.61
  Q 682.95 145.31 682.88 135.20
  Q 682.81 123.91 684.05 117.88
  C 688.54 96.10 703.94 80.10 725.83 75.90
  C 757.93 69.74 787.69 91.87 788.02 125.24
  Q 788.17 139.78 788.02 152.45
  A 0.48 0.48 0.0 0 0 788.50 152.93
  Q 848.56 152.83 875.24 152.98
  C 903.52 153.13 928.32 168.57 940.95 193.81
  Q 945.88 203.66 947.37 215.29
  Q 947.92 219.57 947.90 237.77
  Q 947.81 302.71 947.81 338.26
  Q 947.83 436.17 947.89 529.25
  Q 947.91 553.46 948.07 557.99
  Q 948.40 567.03 941.24 572.23
  C 937.69 574.81 932.70 574.51 928.51 573.71
  Z
  M 300.95 228.84
  Q 302.72 227.24 305.94 222.39
  Q 309.42 217.13 309.48 211.24
  Q 309.76 182.53 310.07 153.75
  Q 310.29 133.13 309.64 125.84
  Q 309.16 120.45 305.93 113.12
  C 304.36 109.53 300.36 105.38 297.06 104.45
  C 291.68 102.94 288.65 101.66 284.52 102.75
  C 275.89 105.02 267.64 108.07 265.42 118.16
  Q 264.34 123.05 264.28 124.51
  Q 262.93 155.97 263.42 190.50
  Q 263.51 196.87 264.32 209.99
  Q 265.02 221.56 273.83 227.14
  Q 274.00 227.24 278.91 230.55
  A 6.04 5.93 -20.3 0 0 280.83 231.41
  Q 290.73 233.92 299.63 229.73
  A 5.54 5.31 9.8 0 0 300.95 228.84
  Z
  M 528.67 228.38
  Q 531.14 226.59 532.66 222.90
  C 534.64 218.10 535.57 216.07 535.48 211.21
  C 535.29 200.56 535.38 194.00 534.51 184.28
  C 532.73 164.28 535.95 144.13 533.82 123.75
  C 532.70 113.03 523.34 104.80 512.79 104.20
  C 508.83 103.98 501.36 106.50 498.49 108.50
  Q 492.12 112.91 490.21 120.87
  A 4.83 4.72 -38.6 0 0 490.09 121.84
  Q 489.68 159.20 489.76 169.17
  C 489.86 182.99 488.90 196.14 489.53 209.51
  Q 489.92 217.80 493.16 223.04
  C 496.87 229.05 499.72 232.16 507.00 233.30
  Q 519.24 235.20 528.67 228.38
  Z
  M 758.88 119.62
  C 752.65 104.48 733.53 99.85 720.71 110.44
  Q 717.20 113.34 715.34 118.26
  Q 714.03 121.72 714.02 127.66
  Q 713.96 161.09 714.00 167.58
  C 714.09 181.75 713.23 197.39 713.95 211.25
  Q 714.28 217.75 717.44 223.13
  C 720.65 228.60 724.37 232.95 730.97 233.56
  C 740.25 234.42 746.08 233.81 753.53 228.38
  A 6.02 5.96 -1.8 0 0 754.99 226.84
  Q 758.29 221.75 759.66 215.89
  A 7.56 7.50 -38.8 0 0 759.85 214.21
  Q 759.82 203.26 759.40 192.52
  C 758.79 176.90 758.94 161.21 758.99 148.25
  Q 759.02 140.96 759.57 136.49
  Q 760.33 130.37 760.17 128.01
  Q 759.75 121.73 758.88 119.62
  Z
  M 917.45 313.10
  A 0.99 0.98 -0.0 0 0 918.44 312.12
  Q 918.44 241.35 918.47 229.75
  C 918.53 209.40 904.18 192.31 885.18 187.28
  Q 879.34 185.74 865.50 185.80
  Q 845.38 185.90 794.25 185.93
  Q 793.10 185.93 790.54 186.23
  A 0.69 0.67 -89.4 0 0 789.95 186.82
  Q 789.94 186.89 790.08 203.79
  Q 790.16 214.96 788.97 220.62
  C 782.18 252.77 750.23 268.28 719.79 259.42
  C 700.84 253.91 686.88 239.50 683.46 219.97
  C 681.61 209.37 682.45 199.45 682.45 187.12
  A 1.21 1.21 0.0 0 0 681.24 185.91
  L 565.71 185.98
  A 0.88 0.87 -89.3 0 0 564.84 186.84
  Q 564.82 187.65 564.94 209.10
  Q 564.98 217.89 563.59 223.27
  C 554.71 257.44 516.20 270.86 485.86 255.91
  C 472.66 249.41 462.92 237.72 459.42 223.54
  Q 458.02 217.90 457.95 205.39
  Q 457.88 194.08 458.13 187.14
  A 1.19 1.19 0.0 0 0 456.94 185.91
  L 342.04 185.91
  A 1.13 1.13 0.0 0 0 340.91 187.02
  Q 340.74 196.37 340.91 205.61
  Q 341.12 216.71 339.36 223.77
  C 335.31 240.00 323.37 252.81 307.64 258.30
  C 293.61 263.20 279.33 263.22 265.50 257.75
  C 250.33 251.74 239.66 239.63 235.18 223.80
  Q 233.31 217.22 233.30 205.44
  Q 233.29 193.12 233.42 186.87
  A 0.95 0.94 -89.4 0 0 232.48 185.90
  Q 197.32 185.84 150.26 185.96
  Q 134.17 186.00 122.29 195.51
  Q 105.65 208.84 105.88 230.79
  Q 106.06 246.97 105.93 309.26
  Q 105.92 310.54 106.06 312.21
  A 0.98 0.98 0.0 0 0 107.04 313.10
  L 917.45 313.10
  Z"
/>
<path fill="#ffffff" d="
  M 299.63 229.73
  Q 290.73 233.92 280.83 231.41
  A 6.04 5.93 -20.3 0 1 278.91 230.55
  Q 274.00 227.24 273.83 227.14
  Q 265.02 221.56 264.32 209.99
  Q 263.51 196.87 263.42 190.50
  Q 262.93 155.97 264.28 124.51
  Q 264.34 123.05 265.42 118.16
  C 267.64 108.07 275.89 105.02 284.52 102.75
  C 288.65 101.66 291.68 102.94 297.06 104.45
  C 300.36 105.38 304.36 109.53 305.93 113.12
  Q 309.16 120.45 309.64 125.84
  Q 310.29 133.13 310.07 153.75
  Q 309.76 182.53 309.48 211.24
  Q 309.42 217.13 305.94 222.39
  Q 302.72 227.24 300.95 228.84
  A 5.54 5.31 9.8 0 1 299.63 229.73
  Z"
/>
<path fill="#ffffff" d="
  M 528.67 228.38
  Q 519.24 235.20 507.00 233.30
  C 499.72 232.16 496.87 229.05 493.16 223.04
  Q 489.92 217.80 489.53 209.51
  C 488.90 196.14 489.86 182.99 489.76 169.17
  Q 489.68 159.20 490.09 121.84
  A 4.83 4.72 -38.6 0 1 490.21 120.87
  Q 492.12 112.91 498.49 108.50
  C 501.36 106.50 508.83 103.98 512.79 104.20
  C 523.34 104.80 532.70 113.03 533.82 123.75
  C 535.95 144.13 532.73 164.28 534.51 184.28
  C 535.38 194.00 535.29 200.56 535.48 211.21
  C 535.57 216.07 534.64 218.10 532.66 222.90
  Q 531.14 226.59 528.67 228.38
  Z"
/>
<path fill="#ffffff" d="
  M 758.88 119.62
  Q 759.75 121.73 760.17 128.01
  Q 760.33 130.37 759.57 136.49
  Q 759.02 140.96 758.99 148.25
  C 758.94 161.21 758.79 176.90 759.40 192.52
  Q 759.82 203.26 759.85 214.21
  A 7.56 7.50 -38.8 0 1 759.66 215.89
  Q 758.29 221.75 754.99 226.84
  A 6.02 5.96 -1.8 0 1 753.53 228.38
  C 746.08 233.81 740.25 234.42 730.97 233.56
  C 724.37 232.95 720.65 228.60 717.44 223.13
  Q 714.28 217.75 713.95 211.25
  C 713.23 197.39 714.09 181.75 714.00 167.58
  Q 713.96 161.09 714.02 127.66
  Q 714.03 121.72 715.34 118.26
  Q 717.20 113.34 720.71 110.44
  C 733.53 99.85 752.65 104.48 758.88 119.62
  Z"
/>
<path fill="#dbeeff" d="
  M 917.45 313.10
  L 107.04 313.10
  A 0.98 0.98 0.0 0 1 106.06 312.21
  Q 105.92 310.54 105.93 309.26
  Q 106.06 246.97 105.88 230.79
  Q 105.65 208.84 122.29 195.51
  Q 134.17 186.00 150.26 185.96
  Q 197.32 185.84 232.48 185.90
  A 0.95 0.94 -89.4 0 1 233.42 186.87
  Q 233.29 193.12 233.30 205.44
  Q 233.31 217.22 235.18 223.80
  C 239.66 239.63 250.33 251.74 265.50 257.75
  C 279.33 263.22 293.61 263.20 307.64 258.30
  C 323.37 252.81 335.31 240.00 339.36 223.77
  Q 341.12 216.71 340.91 205.61
  Q 340.74 196.37 340.91 187.02
  A 1.13 1.13 0.0 0 1 342.04 185.91
  L 456.94 185.91
  A 1.19 1.19 0.0 0 1 458.13 187.14
  Q 457.88 194.08 457.95 205.39
  Q 458.02 217.90 459.42 223.54
  C 462.92 237.72 472.66 249.41 485.86 255.91
  C 516.20 270.86 554.71 257.44 563.59 223.27
  Q 564.98 217.89 564.94 209.10
  Q 564.82 187.65 564.84 186.84
  A 0.88 0.87 -89.3 0 1 565.71 185.98
  L 681.24 185.91
  A 1.21 1.21 0.0 0 1 682.45 187.12
  C 682.45 199.45 681.61 209.37 683.46 219.97
  C 686.88 239.50 700.84 253.91 719.79 259.42
  C 750.23 268.28 782.18 252.77 788.97 220.62
  Q 790.16 214.96 790.08 203.79
  Q 789.94 186.89 789.95 186.82
  A 0.69 0.67 -89.4 0 1 790.54 186.23
  Q 793.10 185.93 794.25 185.93
  Q 845.38 185.90 865.50 185.80
  Q 879.34 185.74 885.18 187.28
  C 904.18 192.31 918.53 209.40 918.47 229.75
  Q 918.44 241.35 918.44 312.12
  A 0.99 0.98 -0.0 0 1 917.45 313.10
  Z"
/>
<path fill="#dbeeff" d="
  M 928.51 573.71
  Q 931.50 576.34 931.48 578.75
  Q 931.38 589.46 931.48 631.22
  Q 931.49 633.03 929.13 634.52
  C 909.30 605.87 884.69 581.83 853.27 565.99
  Q 842.03 560.32 835.45 557.79
  Q 797.72 543.31 759.33 544.22
  C 704.68 545.53 652.32 570.47 616.24 611.65
  Q 596.85 633.79 586.27 658.34
  Q 574.92 684.66 572.32 712.01
  Q 570.87 727.34 571.19 737.25
  Q 572.23 768.73 582.78 799.00
  C 593.99 831.13 614.67 859.28 640.67 881.08
  Q 646.42 885.90 659.13 895.52
  Q 609.24 894.76 594.90 895.17
  Q 578.02 895.66 566.59 894.43
  Q 570.19 879.96 557.42 874.25
  Q 554.39 872.89 548.00 872.90
  Q 356.59 873.04 184.54 873.19
  Q 167.02 873.21 151.25 873.18
  Q 142.96 873.16 138.69 871.89
  C 122.54 867.08 110.52 852.46 107.09 836.51
  Q 105.99 831.39 106.00 810.87
  Q 106.10 524.82 105.97 347.65
  A 0.60 0.60 0.0 0 1 106.57 347.05
  L 917.77 347.05
  A 0.72 0.71 0.0 0 1 918.49 347.76
  Q 918.33 450.81 918.45 555.75
  Q 918.46 558.59 918.89 562.00
  Q 920.00 570.82 928.51 573.71
  Z
  M 313.5673 428.9076
  A 20.78 20.78 0.0 0 0 292.7510 408.1639
  L 216.9511 408.2962
  A 20.78 20.78 0.0 0 0 196.2074 429.1125
  L 196.3327 500.9124
  A 20.78 20.78 0.0 0 0 217.1490 521.6561
  L 292.9489 521.5238
  A 20.78 20.78 0.0 0 0 313.6926 500.7075
  L 313.5673 428.9076
  Z
  M 482.4629 428.9124
  A 20.58 20.58 0.0 0 0 461.9189 408.2965
  L 385.8390 408.1637
  A 20.58 20.58 0.0 0 0 365.2231 428.7077
  L 365.0971 500.9076
  A 20.58 20.58 0.0 0 0 385.6411 521.5235
  L 461.7210 521.6563
  A 20.58 20.58 0.0 0 0 482.3369 501.1123
  L 482.4629 428.9124
  Z
  M 658.87 428.65
  A 20.47 20.47 0.0 0 0 638.40 408.18
  L 554.82 408.18
  A 20.47 20.47 0.0 0 0 534.35 428.65
  L 534.35 501.07
  A 20.47 20.47 0.0 0 0 554.82 521.54
  L 638.40 521.54
  A 20.47 20.47 0.0 0 0 658.87 501.07
  L 658.87 428.65
  Z
  M 827.9414 429.7318
  A 21.44 21.44 0.0 0 0 806.5389 408.2545
  L 732.7790 408.1257
  A 21.44 21.44 0.0 0 0 711.3016 429.5283
  L 711.1786 499.9882
  A 21.44 21.44 0.0 0 0 732.5811 521.4655
  L 806.3410 521.5943
  A 21.44 21.44 0.0 0 0 827.8184 500.1917
  L 827.9414 429.7318
  Z
  M 196.26 651.11
  A 20.55 20.55 0.0 0 0 216.81 671.66
  L 293.11 671.66
  A 20.55 20.55 0.0 0 0 313.66 651.11
  L 313.66 580.14
  A 20.55 20.55 0.0 0 0 293.11 559.59
  L 216.81 559.59
  A 20.55 20.55 0.0 0 0 196.26 580.14
  L 196.26 651.11
  Z
  M 482.2680 580.1278
  A 20.53 20.53 0.0 0 0 461.7022 559.6336
  L 385.5623 559.7665
  A 20.53 20.53 0.0 0 0 365.0682 580.3323
  L 365.1920 651.2922
  A 20.53 20.53 0.0 0 0 385.7578 671.7864
  L 461.8977 671.6535
  A 20.53 20.53 0.0 0 0 482.3918 651.0877
  L 482.2680 580.1278
  Z
  M 564.91 589.86
  A 0.71 0.70 0.0 0 1 565.62 589.16
  Q 577.20 589.18 591.52 589.18
  Q 597.76 589.18 600.11 588.23
  C 606.87 585.51 610.53 577.47 608.21 570.80
  Q 604.66 560.57 593.47 560.19
  Q 591.69 560.14 565.92 560.00
  Q 551.70 559.93 549.13 560.62
  Q 540.79 562.85 536.61 571.18
  C 534.91 574.58 534.85 578.03 534.82 582.25
  Q 534.66 607.58 534.96 634.97
  Q 535.06 643.49 541.11 648.39
  C 548.19 654.12 557.30 652.21 562.05 644.91
  C 564.51 641.14 564.84 637.62 564.86 633.25
  Q 564.88 628.59 564.91 589.86
  Z
  M 313.6274 729.0376
  A 20.99 20.99 0.0 0 0 292.6008 708.0843
  L 217.1609 708.2159
  A 20.99 20.99 0.0 0 0 196.2076 729.2425
  L 196.3326 800.8424
  A 20.99 20.99 0.0 0 0 217.3592 821.7957
  L 292.7991 821.6641
  A 20.99 20.99 0.0 0 0 313.7524 800.6375
  L 313.6274 729.0376
  Z
  M 482.4127 729.0323
  A 20.82 20.82 0.0 0 0 461.6290 708.1760
  L 386.0492 708.0441
  A 20.82 20.82 0.0 0 0 365.1929 728.8278
  L 365.0673 800.7477
  A 20.82 20.82 0.0 0 0 385.8510 821.6040
  L 461.4308 821.7359
  A 20.82 20.82 0.0 0 0 482.2871 800.9522
  L 482.4127 729.0323
  Z"
/>
<path fill="#88bef4" d="
  M 313.6926 500.7075
  A 20.78 20.78 0.0 0 1 292.9489 521.5238
  L 217.1490 521.6561
  A 20.78 20.78 0.0 0 1 196.3327 500.9124
  L 196.2074 429.1125
  A 20.78 20.78 0.0 0 1 216.9511 408.2962
  L 292.7510 408.1639
  A 20.78 20.78 0.0 0 1 313.5673 428.9076
  L 313.6926 500.7075
  Z
  M 279.78 434.76
  L 230.66 434.76
  A 5.55 5.55 0.0 0 0 225.11 440.31
  L 225.11 488.02
  A 6.47 6.34 0.0 0 0 231.58 494.36
  L 278.86 494.36
  A 6.47 6.34 -0.0 0 0 285.33 488.02
  L 285.33 440.31
  A 5.55 5.55 0.0 0 0 279.78 434.76
  Z"
/>
<path fill="#88bef4" d="
  M 482.3369 501.1123
  A 20.58 20.58 0.0 0 1 461.7210 521.6563
  L 385.6411 521.5235
  A 20.58 20.58 0.0 0 1 365.0971 500.9076
  L 365.2231 428.7077
  A 20.58 20.58 0.0 0 1 385.8390 408.1637
  L 461.9189 408.2965
  A 20.58 20.58 0.0 0 1 482.4629 428.9124
  L 482.3369 501.1123
  Z
  M 395.00 438.23
  Q 395.13 444.95 395.04 486.37
  C 395.03 491.62 396.39 494.91 402.00 494.94
  Q 427.42 495.09 449.48 494.86
  Q 454.98 494.80 455.08 489.27
  Q 455.25 479.73 455.14 443.30
  C 455.12 438.84 454.46 435.52 449.51 435.47
  Q 435.56 435.32 401.53 435.52
  Q 399.29 435.53 395.45 437.48
  A 0.82 0.81 76.3 0 0 395.00 438.23
  Z"
/>
<path fill="#88bef4" d="
  M 658.87 501.07
  A 20.47 20.47 0.0 0 1 638.40 521.54
  L 554.82 521.54
  A 20.47 20.47 0.0 0 1 534.35 501.07
  L 534.35 428.65
  A 20.47 20.47 0.0 0 1 554.82 408.18
  L 638.40 408.18
  A 20.47 20.47 0.0 0 1 658.87 428.65
  L 658.87 501.07
  Z
  M 566.59 492.58
  L 626.29 492.58
  A 4.21 4.21 0.0 0 0 630.50 488.37
  L 630.50 439.42
  A 6.42 6.30 -90.0 0 0 624.20 433.00
  L 568.68 433.00
  A 6.42 6.30 90.0 0 0 562.38 439.42
  L 562.38 488.37
  A 4.21 4.21 0.0 0 0 566.59 492.58
  Z"
/>
<path fill="#88bef4" d="
  M 827.8184 500.1917
  A 21.44 21.44 0.0 0 1 806.3410 521.5943
  L 732.5811 521.4655
  A 21.44 21.44 0.0 0 1 711.1786 499.9882
  L 711.3016 429.5283
  A 21.44 21.44 0.0 0 1 732.7790 408.1257
  L 806.5389 408.2545
  A 21.44 21.44 0.0 0 1 827.9414 429.7318
  L 827.8184 500.1917
  Z
  M 800.50 438.85
  A 5.26 5.26 0.0 0 0 795.24 433.59
  L 746.24 433.59
  A 5.26 5.26 0.0 0 0 740.98 438.85
  L 740.98 487.99
  A 5.26 5.26 0.0 0 0 746.24 493.25
  L 795.24 493.25
  A 5.26 5.26 0.0 0 0 800.50 487.99
  L 800.50 438.85
  Z"
/>
<path fill="#ffffff" d="
  M 566.59 492.58
  A 4.21 4.21 0.0 0 1 562.38 488.37
  L 562.38 439.42
  A 6.42 6.30 -90.0 0 1 568.68 433.00
  L 624.20 433.00
  A 6.42 6.30 -90.0 0 1 630.50 439.42
  L 630.50 488.37
  A 4.21 4.21 0.0 0 1 626.29 492.58
  L 566.59 492.58
  Z"
/>
<rect fill="#ffffff" x="740.98" y="433.59" width="59.52" height="59.66" rx="5.26"/>
<path fill="#ffffff" d="
  M 279.78 434.76
  A 5.55 5.55 0.0 0 1 285.33 440.31
  L 285.33 488.02
  A 6.47 6.34 -0.0 0 1 278.86 494.36
  L 231.58 494.36
  A 6.47 6.34 0.0 0 1 225.11 488.02
  L 225.11 440.31
  A 5.55 5.55 0.0 0 1 230.66 434.76
  L 279.78 434.76
  Z"
/>
<path fill="#ffffff" d="
  M 395.45 437.48
  Q 399.29 435.53 401.53 435.52
  Q 435.56 435.32 449.51 435.47
  C 454.46 435.52 455.12 438.84 455.14 443.30
  Q 455.25 479.73 455.08 489.27
  Q 454.98 494.80 449.48 494.86
  Q 427.42 495.09 402.00 494.94
  C 396.39 494.91 395.03 491.62 395.04 486.37
  Q 395.13 444.95 395.00 438.23
  A 0.82 0.81 76.3 0 1 395.45 437.48
  Z"
/>
<path fill="#88bef4" d="
  M 929.13 634.52
  Q 935.34 644.23 939.95 655.80
  C 951.19 683.97 955.25 713.07 953.99 742.99
  Q 951.78 795.24 924.61 838.62
  Q 905.55 869.07 875.34 890.60
  Q 849.58 908.97 820.29 917.18
  Q 782.36 927.82 745.98 924.71
  Q 720.67 922.54 696.52 913.93
  Q 676.21 906.68 659.13 895.52
  Q 646.42 885.90 640.67 881.08
  C 614.67 859.28 593.99 831.13 582.78 799.00
  Q 572.23 768.73 571.19 737.25
  Q 570.87 727.34 572.32 712.01
  Q 574.92 684.66 586.27 658.34
  Q 596.85 633.79 616.24 611.65
  C 652.32 570.47 704.68 545.53 759.33 544.22
  Q 797.72 543.31 835.45 557.79
  Q 842.03 560.32 853.27 565.99
  C 884.69 581.83 909.30 605.87 929.13 634.52
  Z
  M 924.25 719.95
  C 921.49 680.63 904.20 643.87 874.68 617.83
  C 855.25 600.69 830.58 587.13 805.53 581.29
  Q 782.98 576.04 759.26 576.38
  Q 718.47 576.95 683.51 596.99
  C 653.55 614.18 628.75 639.15 615.02 669.84
  C 599.05 705.52 598.32 746.60 609.87 783.90
  C 617.93 809.95 634.33 833.82 655.03 852.21
  C 682.33 876.46 717.00 890.85 753.28 893.06
  Q 757.32 893.31 769.77 893.09
  Q 779.22 892.92 786.20 891.97
  C 835.29 885.22 877.45 857.48 902.76 815.28
  C 919.82 786.85 926.61 753.56 924.25 719.95
  Z"
/>
<path fill="#88bef4" d="
  M 196.26 651.11
  L 196.26 580.14
  A 20.55 20.55 0.0 0 1 216.81 559.59
  L 293.11 559.59
  A 20.55 20.55 0.0 0 1 313.66 580.14
  L 313.66 651.11
  A 20.55 20.55 0.0 0 1 293.11 671.66
  L 216.81 671.66
  A 20.55 20.55 0.0 0 1 196.26 651.11
  Z
  M 284.11 590.68
  A 5.38 5.38 0.0 0 0 278.73 585.30
  L 229.93 585.30
  A 5.38 5.38 0.0 0 0 224.55 590.68
  L 224.55 639.48
  A 5.38 5.38 0.0 0 0 229.93 644.86
  L 278.73 644.86
  A 5.38 5.38 0.0 0 0 284.11 639.48
  L 284.11 590.68
  Z"
/>
<path fill="#88bef4" d="
  M 482.3918 651.0877
  A 20.53 20.53 0.0 0 1 461.8977 671.6535
  L 385.7578 671.7864
  A 20.53 20.53 0.0 0 1 365.1920 651.2922
  L 365.0682 580.3323
  A 20.53 20.53 0.0 0 1 385.5623 559.7665
  L 461.7022 559.6336
  A 20.53 20.53 0.0 0 1 482.2680 580.1278
  L 482.3918 651.0877
  Z
  M 453.3076 588.9480
  A 5.57 5.57 0.0 0 0 447.7279 583.3877
  L 399.2080 583.4724
  A 5.57 5.57 0.0 0 0 393.6477 589.0521
  L 393.7324 637.5720
  A 5.57 5.57 0.0 0 0 399.3121 643.1323
  L 447.8320 643.0476
  A 5.57 5.57 0.0 0 0 453.3923 637.4679
  L 453.3076 588.9480
  Z"
/>
<path fill="#88bef4" d="
  M 564.91 589.86
  Q 564.88 628.59 564.86 633.25
  C 564.84 637.62 564.51 641.14 562.05 644.91
  C 557.30 652.21 548.19 654.12 541.11 648.39
  Q 535.06 643.49 534.96 634.97
  Q 534.66 607.58 534.82 582.25
  C 534.85 578.03 534.91 574.58 536.61 571.18
  Q 540.79 562.85 549.13 560.62
  Q 551.70 559.93 565.92 560.00
  Q 591.69 560.14 593.47 560.19
  Q 604.66 560.57 608.21 570.80
  C 610.53 577.47 606.87 585.51 600.11 588.23
  Q 597.76 589.18 591.52 589.18
  Q 577.20 589.18 565.62 589.16
  A 0.71 0.70 0.0 0 0 564.91 589.86
  Z"
/>
<path fill="#dbeeff" d="
  M 924.25 719.95
  C 926.61 753.56 919.82 786.85 902.76 815.28
  C 877.45 857.48 835.29 885.22 786.20 891.97
  Q 779.22 892.92 769.77 893.09
  Q 757.32 893.31 753.28 893.06
  C 717.00 890.85 682.33 876.46 655.03 852.21
  C 634.33 833.82 617.93 809.95 609.87 783.90
  C 598.32 746.60 599.05 705.52 615.02 669.84
  C 628.75 639.15 653.55 614.18 683.51 596.99
  Q 718.47 576.95 759.26 576.38
  Q 782.98 576.04 805.53 581.29
  C 830.58 587.13 855.25 600.69 874.68 617.83
  C 904.20 643.87 921.49 680.63 924.25 719.95
  Z
  M 725.80 771.22
  Q 725.23 770.98 724.75 770.51
  Q 704.36 750.88 676.88 723.13
  C 671.43 717.63 663.96 717.27 657.65 721.73
  C 652.32 725.49 649.84 732.53 651.99 738.63
  Q 653.13 741.86 658.12 746.68
  Q 660.01 748.51 710.50 798.74
  Q 717.16 805.37 719.40 806.34
  Q 725.17 808.86 731.08 807.16
  Q 733.92 806.34 742.67 797.72
  Q 805.67 735.58 862.40 678.90
  C 866.24 675.07 869.75 671.89 870.70 667.34
  C 873.15 655.59 862.68 646.10 851.25 649.40
  Q 848.50 650.20 842.51 656.16
  Q 805.17 693.26 768.65 729.40
  Q 744.55 753.25 727.11 770.96
  A 1.19 1.18 -56.0 0 1 725.80 771.22
  Z"
/>
<rect fill="#ffffff" x="-29.83" y="-29.83" transform="translate(423.52,613.26) rotate(-0.1)" width="59.66" height="59.66" rx="5.57"/>
<rect fill="#ffffff" x="224.55" y="585.30" width="59.56" height="59.56" rx="5.38"/>
<path fill="#88bef4" d="
  M 725.80 771.22
  A 1.19 1.18 -56.0 0 0 727.11 770.96
  Q 744.55 753.25 768.65 729.40
  Q 805.17 693.26 842.51 656.16
  Q 848.50 650.20 851.25 649.40
  C 862.68 646.10 873.15 655.59 870.70 667.34
  C 869.75 671.89 866.24 675.07 862.40 678.90
  Q 805.67 735.58 742.67 797.72
  Q 733.92 806.34 731.08 807.16
  Q 725.17 808.86 719.40 806.34
  Q 717.16 805.37 710.50 798.74
  Q 660.01 748.51 658.12 746.68
  Q 653.13 741.86 651.99 738.63
  C 649.84 732.53 652.32 725.49 657.65 721.73
  C 663.96 717.27 671.43 717.63 676.88 723.13
  Q 704.36 750.88 724.75 770.51
  Q 725.23 770.98 725.80 771.22
  Z"
/>
<path fill="#88bef4" d="
  M 313.7524 800.6375
  A 20.99 20.99 0.0 0 1 292.7991 821.6641
  L 217.3592 821.7957
  A 20.99 20.99 0.0 0 1 196.3326 800.8424
  L 196.2076 729.2425
  A 20.99 20.99 0.0 0 1 217.1609 708.2159
  L 292.6008 708.0843
  A 20.99 20.99 0.0 0 1 313.6274 729.0376
  L 313.7524 800.6375
  Z
  M 284.20 739.89
  A 5.40 5.40 0.0 0 0 278.80 734.49
  L 229.96 734.49
  A 5.40 5.40 0.0 0 0 224.56 739.89
  L 224.56 788.73
  A 5.40 5.40 0.0 0 0 229.96 794.13
  L 278.80 794.13
  A 5.40 5.40 0.0 0 0 284.20 788.73
  L 284.20 739.89
  Z"
/>
<path fill="#88bef4" d="
  M 482.2871 800.9522
  A 20.82 20.82 0.0 0 1 461.4308 821.7359
  L 385.8510 821.6040
  A 20.82 20.82 0.0 0 1 365.0673 800.7477
  L 365.1929 728.8278
  A 20.82 20.82 0.0 0 1 386.0492 708.0441
  L 461.6290 708.1760
  A 20.82 20.82 0.0 0 1 482.4127 729.0323
  L 482.2871 800.9522
  Z
  M 453.9172 738.5380
  A 5.30 5.30 0.0 0 0 448.6079 733.2473
  L 399.5880 733.3328
  A 5.30 5.30 0.0 0 0 394.2973 738.6421
  L 394.3828 787.6620
  A 5.30 5.30 0.0 0 0 399.6921 792.9527
  L 448.7120 792.8672
  A 5.30 5.30 0.0 0 0 454.0027 787.5579
  L 453.9172 738.5380
  Z"
/>
<rect fill="#ffffff" x="-29.81" y="-29.81" transform="translate(424.15,763.10) rotate(-0.1)" width="59.62" height="59.62" rx="5.30"/>
<rect fill="#ffffff" x="224.56" y="734.49" width="59.64" height="59.64" rx="5.40"/>
</svg>
