<?xml version="1.0" encoding="UTF-8" standalone="no"?>
<!DOCTYPE svg PUBLIC "-//W3C//DTD SVG 1.1//EN" "http://www.w3.org/Graphics/SVG/1.1/DTD/svg11.dtd">
<svg xmlns="http://www.w3.org/2000/svg" version="1.1" viewBox="0.00 0.00 676.00 696.00">
<g stroke-width="2.00" fill="none" stroke-linecap="butt">
<path stroke="#718058" vector-effect="non-scaling-stroke" d="
  M 569.45 395.18
  Q 560.38 398.38 552.16 402.42
  Q 551.77 402.62 551.52 402.98"
/>
<path stroke="#5d7445" vector-effect="non-scaling-stroke" d="
  M 265.48 221.76
  Q 282.49 245.75 310.57 254.18
  Q 340.87 263.28 370.17 250.87
  C 384.11 244.96 397.39 234.56 405.43 221.54"
/>
<path stroke="#718058" vector-effect="non-scaling-stroke" d="
  M 405.43 221.54
  L 407.29 218.97
  A 0.67 0.67 0.0 0 0 407.03 217.97
  L 336.18 185.22
  A 1.81 1.78 44.6 0 0 334.69 185.22
  L 264.18 218.02
  A 0.86 0.86 0.0 0 0 263.82 219.28
  L 265.48 221.76"
/>
<path stroke="#90cd8f" vector-effect="non-scaling-stroke" d="
  M 405.43 221.54
  Q 404.07 220.76 402.52 221.36
  Q 391.08 225.77 379.13 227.96
  Q 374.63 228.78 371.91 228.96
  C 365.73 229.34 360.45 230.44 353.80 230.56
  Q 334.03 230.92 315.60 230.56
  C 310.26 230.46 305.58 229.53 300.82 229.19
  C 289.81 228.41 278.45 225.38 268.21 221.49
  Q 266.71 220.92 265.48 221.76"
/>
<path stroke="#718058" vector-effect="non-scaling-stroke" d="
  M 433.77 213.22
  Q 427.21 229.01 418.77 239.53
  C 396.23 267.59 361.39 281.05 325.54 277.77
  C 294.93 274.97 264.13 258.17 247.04 231.47
  Q 240.76 221.66 236.71 212.51
  A 0.44 0.43 65.9 0 0 236.15 212.29
  Q 229.34 215.13 191.78 230.08
  Q 178.00 235.57 172.63 239.48
  Q 160.41 248.39 153.98 261.04
  Q 122.82 322.27 98.12 370.08
  A 1.09 1.08 25.8 0 0 98.64 371.57
  L 158.98 397.86"
/>
<path stroke="#718058" vector-effect="non-scaling-stroke" d="
  M 159.79 398.26
  Q 160.52 398.37 160.98 398.87"
/>
<path stroke="#718058" vector-effect="non-scaling-stroke" d="
  M 166.98 401.41
  L 191.40 411.98
  A 0.33 0.32 -78.6 0 0 191.85 411.68
  Q 191.87 399.65 191.80 382.50
  C 191.78 377.40 192.69 373.52 197.02 371.05
  C 203.72 367.24 211.92 371.95 211.92 379.75
  Q 211.96 543.58 211.90 599.54
  Q 211.90 603.15 212.03 605.87
  A 0.64 0.63 -0.9 0 0 212.67 606.48
  L 459.61 606.48
  A 0.65 0.65 0.0 0 0 460.26 605.88
  Q 460.52 602.46 460.51 600.00
  Q 460.37 569.21 460.44 381.36
  C 460.44 376.08 460.90 373.15 465.39 370.88
  Q 470.46 368.32 475.21 371.29
  Q 479.81 374.17 479.83 379.10
  Q 479.90 400.32 479.87 411.71
  A 0.42 0.42 0.0 0 0 480.46 412.10
  L 573.62 371.50
  A 0.79 0.79 0.0 0 0 574.00 370.41
  Q 549.20 323.14 517.58 261.67
  Q 510.72 248.34 498.71 239.97
  Q 492.88 235.90 477.74 229.75
  Q 456.63 221.17 435.49 212.65"
/>
</g>
<path fill="#3e270e" d="
  M 569.45 395.18
  Q 560.38 398.38 552.16 402.42
  Q 551.77 402.62 551.52 402.98
  Q 549.32 403.07 548.13 403.59
  Q 512.86 419.05 480.98 432.62
  A 1.81 1.80 -11.6 0 0 479.88 434.28
  Q 479.82 574.87 479.91 611.91
  Q 479.92 618.69 478.49 620.80
  C 475.76 624.78 473.19 625.81 467.96 625.81
  Q 429.42 625.82 392.25 625.71
  Q 389.38 625.70 376.50 626.43
  Q 370.70 626.75 350.67 626.11
  Q 339.27 625.74 324.83 625.74
  Q 238.57 625.76 204.63 625.88
  Q 199.19 625.89 197.20 624.65
  C 191.16 620.89 191.74 614.33 191.72 607.25
  Q 191.57 529.86 191.67 448.00
  Q 191.67 442.39 191.87 434.32
  A 1.92 1.91 6.3 0 0 190.34 432.41
  Q 190.21 432.38 187.93 431.42
  Q 174.52 425.76 81.88 385.61
  C 77.71 383.80 73.37 378.45 74.71 373.49
  Q 76.20 368.03 77.93 364.67
  Q 105.97 310.23 130.68 261.64
  Q 138.72 245.84 142.95 240.61
  Q 152.11 229.28 164.50 221.11
  Q 169.92 217.53 183.71 212.08
  Q 216.44 199.12 235.45 190.75
  Q 241.36 188.16 243.91 188.38
  C 249.41 188.86 253.35 193.59 254.40 198.81
  A 1.05 1.04 -18.1 0 0 255.87 199.55
  L 324.80 167.49
  A 1.24 1.23 -6.5 0 0 325.49 166.63
  Q 325.86 165.03 325.59 161.49
  Q 325.08 154.69 319.53 151.19
  C 314.49 148.00 307.49 143.64 302.59 138.36
  C 284.08 118.41 283.15 87.51 305.84 69.83
  Q 321.08 57.97 340.92 60.42
  C 363.26 63.18 379.15 79.80 380.92 102.49
  C 381.36 108.14 379.60 113.74 373.79 115.99
  C 366.58 118.79 359.31 113.63 359.22 105.97
  C 359.16 101.30 358.98 97.13 357.24 93.55
  Q 352.22 83.25 341.00 80.75
  C 319.08 75.85 302.48 94.95 311.81 115.94
  Q 313.34 119.38 318.68 125.16
  Q 319.88 126.47 326.63 130.78
  Q 333.05 134.88 337.57 140.03
  Q 346.85 150.63 345.39 165.38
  A 2.61 2.59 -75.0 0 0 346.89 168.00
  L 415.06 199.51
  A 1.04 1.04 0.0 0 0 416.53 198.72
  C 417.37 192.95 421.90 188.17 427.84 188.25
  Q 430.05 188.28 435.31 190.61
  Q 458.44 200.88 482.20 210.12
  Q 499.83 216.98 506.41 221.18
  Q 519.56 229.57 528.80 241.26
  Q 533.33 246.99 540.51 261.12
  Q 561.77 302.98 594.23 365.28
  Q 595.23 367.19 597.05 372.99
  A 4.67 4.52 -52.4 0 1 597.25 374.74
  Q 596.60 382.46 589.86 385.48
  Q 580.63 389.63 572.64 393.14
  Q 571.58 393.60 569.45 395.18
  Z
  M 265.48 221.76
  Q 282.49 245.75 310.57 254.18
  Q 340.87 263.28 370.17 250.87
  C 384.11 244.96 397.39 234.56 405.43 221.54
  L 407.29 218.97
  A 0.67 0.67 0.0 0 0 407.03 217.97
  L 336.18 185.22
  A 1.81 1.78 44.6 0 0 334.69 185.22
  L 264.18 218.02
  A 0.86 0.86 0.0 0 0 263.82 219.28
  L 265.48 221.76
  Z
  M 433.77 213.22
  Q 427.21 229.01 418.77 239.53
  C 396.23 267.59 361.39 281.05 325.54 277.77
  C 294.93 274.97 264.13 258.17 247.04 231.47
  Q 240.76 221.66 236.71 212.51
  A 0.44 0.43 65.9 0 0 236.15 212.29
  Q 229.34 215.13 191.78 230.08
  Q 178.00 235.57 172.63 239.48
  Q 160.41 248.39 153.98 261.04
  Q 122.82 322.27 98.12 370.08
  A 1.09 1.08 25.8 0 0 98.64 371.57
  L 158.98 397.86
  Q 158.51 398.01 159.01 398.27
  Q 159.84 398.69 159.79 398.26
  Q 160.52 398.37 160.98 398.87
  L 166.98 401.41
  L 191.40 411.98
  A 0.33 0.32 -78.6 0 0 191.85 411.68
  Q 191.87 399.65 191.80 382.50
  C 191.78 377.40 192.69 373.52 197.02 371.05
  C 203.72 367.24 211.92 371.95 211.92 379.75
  Q 211.96 543.58 211.90 599.54
  Q 211.90 603.15 212.03 605.87
  A 0.64 0.63 -0.9 0 0 212.67 606.48
  L 459.61 606.48
  A 0.65 0.65 0.0 0 0 460.26 605.88
  Q 460.52 602.46 460.51 600.00
  Q 460.37 569.21 460.44 381.36
  C 460.44 376.08 460.90 373.15 465.39 370.88
  Q 470.46 368.32 475.21 371.29
  Q 479.81 374.17 479.83 379.10
  Q 479.90 400.32 479.87 411.71
  A 0.42 0.42 0.0 0 0 480.46 412.10
  L 573.62 371.50
  A 0.79 0.79 0.0 0 0 574.00 370.41
  Q 549.20 323.14 517.58 261.67
  Q 510.72 248.34 498.71 239.97
  Q 492.88 235.90 477.74 229.75
  Q 456.63 221.17 435.49 212.65
  Q 434.83 211.81 434.15 211.92
  A 0.72 0.72 0.0 0 0 433.57 212.83
  Q 433.67 213.20 433.77 213.22
  Z"
/>
<path fill="#a4d9a2" d="
  M 405.43 221.54
  Q 404.07 220.76 402.52 221.36
  Q 391.08 225.77 379.13 227.96
  Q 374.63 228.78 371.91 228.96
  C 365.73 229.34 360.45 230.44 353.80 230.56
  Q 334.03 230.92 315.60 230.56
  C 310.26 230.46 305.58 229.53 300.82 229.19
  C 289.81 228.41 278.45 225.38 268.21 221.49
  Q 266.71 220.92 265.48 221.76
  L 263.82 219.28
  A 0.86 0.86 0.0 0 1 264.18 218.02
  L 334.69 185.22
  A 1.81 1.78 44.6 0 1 336.18 185.22
  L 407.03 217.97
  A 0.67 0.67 0.0 0 1 407.29 218.97
  L 405.43 221.54
  Z"
/>
<path fill="#a4d9a2" d="
  M 433.77 213.22
  L 435.49 212.65
  Q 456.63 221.17 477.74 229.75
  Q 492.88 235.90 498.71 239.97
  Q 510.72 248.34 517.58 261.67
  Q 549.20 323.14 574.00 370.41
  A 0.79 0.79 0.0 0 1 573.62 371.50
  L 480.46 412.10
  A 0.42 0.42 0.0 0 1 479.87 411.71
  Q 479.90 400.32 479.83 379.10
  Q 479.81 374.17 475.21 371.29
  Q 470.46 368.32 465.39 370.88
  C 460.90 373.15 460.44 376.08 460.44 381.36
  Q 460.37 569.21 460.51 600.00
  Q 460.52 602.46 460.26 605.88
  A 0.65 0.65 0.0 0 1 459.61 606.48
  L 212.67 606.48
  A 0.64 0.63 -0.9 0 1 212.03 605.87
  Q 211.90 603.15 211.90 599.54
  Q 211.96 543.58 211.92 379.75
  C 211.92 371.95 203.72 367.24 197.02 371.05
  C 192.69 373.52 191.78 377.40 191.80 382.50
  Q 191.87 399.65 191.85 411.68
  A 0.33 0.32 -78.6 0 1 191.40 411.98
  L 166.98 401.41
  Q 166.60 399.28 165.57 398.63
  A 0.95 0.94 -31.3 0 0 164.98 398.49
  L 160.98 398.87
  Q 160.52 398.37 159.79 398.26
  L 158.98 397.86
  L 98.64 371.57
  A 1.09 1.08 25.8 0 1 98.12 370.08
  Q 122.82 322.27 153.98 261.04
  Q 160.41 248.39 172.63 239.48
  Q 178.00 235.57 191.78 230.08
  Q 229.34 215.13 236.15 212.29
  A 0.44 0.43 65.9 0 1 236.71 212.51
  Q 240.76 221.66 247.04 231.47
  C 264.13 258.17 294.93 274.97 325.54 277.77
  C 361.39 281.05 396.23 267.59 418.77 239.53
  Q 427.21 229.01 433.77 213.22
  Z"
/>
<path fill="#7cc07c" d="
  M 405.43 221.54
  C 397.39 234.56 384.11 244.96 370.17 250.87
  Q 340.87 263.28 310.57 254.18
  Q 282.49 245.75 265.48 221.76
  Q 266.71 220.92 268.21 221.49
  C 278.45 225.38 289.81 228.41 300.82 229.19
  C 305.58 229.53 310.26 230.46 315.60 230.56
  Q 334.03 230.92 353.80 230.56
  C 360.45 230.44 365.73 229.34 371.91 228.96
  Q 374.63 228.78 379.13 227.96
  Q 391.08 225.77 402.52 221.36
  Q 404.07 220.76 405.43 221.54
  Z"
/>
<path fill="#a4d9a2" d="
  M 569.45 395.18
  Q 564.43 398.93 558.74 401.38
  A 0.20 0.04 -10.9 0 0 558.69 401.40
  L 552.28 403.04
  A 0.83 0.74 40.1 0 1 551.95 403.05
  L 551.52 402.98
  Q 551.77 402.62 552.16 402.42
  Q 560.38 398.38 569.45 395.18
  Z"
/>
</svg>
