<?xml version="1.0" encoding="UTF-8" standalone="no"?>
<!DOCTYPE svg PUBLIC "-//W3C//DTD SVG 1.1//EN" "http://www.w3.org/Graphics/SVG/1.1/DTD/svg11.dtd">
<svg xmlns="http://www.w3.org/2000/svg" version="1.1" viewBox="0.00 0.00 722.00 717.00">
<g stroke-width="2.00" fill="none" stroke-linecap="butt">
<path stroke="#977a66" vector-effect="non-scaling-stroke" d="
  M 74.48 365.99
  Q 74.49 582.82 74.57 612.25
  Q 74.60 621.81 81.70 625.13
  Q 84.94 626.65 92.50 626.65
  Q 186.10 626.58 202.93 626.64
  A 0.51 0.50 -0.2 0 0 203.44 626.14
  Q 203.46 599.90 203.45 365.98
  Q 203.44 132.06 203.42 105.82
  A 0.51 0.50 0.2 0 0 202.91 105.32
  Q 186.08 105.39 92.48 105.32
  Q 84.92 105.32 81.68 106.84
  Q 74.58 110.16 74.56 119.72
  Q 74.47 149.15 74.48 365.99"
/>
<path stroke="#967851" vector-effect="non-scaling-stroke" d="
  M 220.37 105.81
  L 220.37 123.53
  A 0.69 0.68 90.0 0 0 221.05 124.22
  L 595.01 124.22
  A 0.68 0.67 3.3 0 0 595.68 123.63
  C 596.52 116.83 594.51 109.90 588.30 106.62
  Q 585.94 105.37 580.45 105.37
  Q 396.30 105.39 220.80 105.38
  A 0.43 0.43 0.0 0 0 220.37 105.81"
/>
<path stroke="#86675b" vector-effect="non-scaling-stroke" d="
  M 243.86 141.21
  A 0.47 0.47 0.0 0 0 243.39 140.74
  L 220.75 140.74
  A 0.47 0.47 0.0 0 0 220.28 141.21
  L 220.28 192.93
  A 0.47 0.47 0.0 0 0 220.75 193.40
  L 243.39 193.40
  A 0.47 0.47 0.0 0 0 243.86 192.93
  L 243.86 141.21"
/>
<path stroke="#86675b" vector-effect="non-scaling-stroke" d="
  M 260.32 141.21
  L 260.32 192.96
  A 0.41 0.41 0.0 0 0 260.73 193.37
  L 276.07 193.37
  A 1.11 1.11 0.0 0 0 276.99 192.88
  C 288.32 176.09 309.90 177.48 321.46 192.91
  A 1.25 1.23 -18.3 0 0 322.45 193.40
  L 328.73 193.40
  A 0.69 0.68 -0.0 0 0 329.42 192.72
  L 329.42 141.16
  A 0.43 0.42 90.0 0 0 329.00 140.73
  L 260.79 140.73
  A 0.48 0.47 -90.0 0 0 260.32 141.21"
/>
<path stroke="#86675b" vector-effect="non-scaling-stroke" d="
  M 415.39 140.73
  L 346.21 140.73
  A 0.42 0.42 0.0 0 0 345.79 141.15
  L 345.79 192.90
  A 0.50 0.50 0.0 0 0 346.29 193.40
  L 366.07 193.40
  A 0.96 0.93 -73.7 0 0 366.87 192.95
  Q 375.89 178.23 392.93 181.12
  C 400.53 182.40 405.58 186.81 410.74 192.76
  A 1.71 1.67 -19.9 0 0 412.02 193.34
  L 415.21 193.34
  A 0.62 0.62 0.0 0 0 415.83 192.72
  L 415.83 141.18
  A 0.45 0.44 90.0 0 0 415.39 140.73"
/>
<path stroke="#86675b" vector-effect="non-scaling-stroke" d="
  M 432.32 141.34
  L 432.32 192.81
  A 0.59 0.58 -90.0 0 0 432.90 193.40
  L 466.73 193.40
  A 1.01 1.00 15.0 0 0 467.60 192.90
  Q 473.14 183.49 482.64 181.40
  C 494.28 178.83 504.51 183.34 511.77 192.81
  A 1.34 1.33 -18.7 0 0 512.83 193.33
  C 526.39 193.33 538.91 194.22 548.92 201.83
  Q 562.29 211.99 566.48 227.46
  Q 568.13 233.58 567.99 247.80
  Q 567.85 260.64 567.91 285.24
  A 5.10 5.09 -58.4 0 0 568.43 287.44
  Q 568.98 288.56 570.04 289.82
  C 576.13 297.07 576.20 307.06 571.60 315.03
  C 570.76 316.49 568.77 318.11 568.16 319.69
  A 3.55 3.43 56.3 0 0 567.93 320.94
  L 567.92 412.62
  A 0.80 0.80 0.0 0 0 568.72 413.42
  L 595.41 413.42
  A 0.42 0.42 0.0 0 0 595.83 413.00
  L 595.83 141.18
  A 0.45 0.45 0.0 0 0 595.38 140.73
  L 432.93 140.73
  A 0.61 0.61 0.0 0 0 432.32 141.34"
/>
<path stroke="#86675b" vector-effect="non-scaling-stroke" d="
  M 308.66 209.69
  L 220.68 209.69
  A 0.39 0.39 0.0 0 0 220.29 210.08
  L 220.29 284.36
  A 0.34 0.34 0.0 0 0 220.88 284.59
  Q 230.66 273.95 242.13 261.89
  C 250.73 252.85 259.80 245.56 272.19 242.93
  C 278.00 241.69 284.37 241.96 290.58 241.96
  A 0.65 0.65 0.0 0 0 291.23 241.33
  Q 291.32 236.34 291.22 232.78
  C 290.96 223.84 295.49 220.86 302.96 217.95
  C 306.95 216.40 308.60 213.91 309.00 210.06
  A 0.34 0.33 3.0 0 0 308.66 209.69"
/>
<path stroke="#86675b" vector-effect="non-scaling-stroke" d="
  M 398.40 209.69
  L 325.51 209.69
  A 0.45 0.45 0.0 0 0 325.06 210.11
  C 324.44 221.73 318.08 228.70 307.72 233.34
  A 1.02 1.00 -12.3 0 0 307.12 234.26
  L 307.12 241.54
  A 0.45 0.44 88.2 0 0 307.59 241.99
  C 320.90 241.27 333.18 243.70 343.65 252.33
  A 1.02 1.01 44.7 0 0 344.94 252.33
  Q 353.87 244.81 365.23 242.66
  C 370.20 241.71 374.52 241.94 380.70 241.92
  A 0.57 0.57 0.0 0 0 381.26 241.33
  C 380.99 232.76 379.86 223.45 388.90 219.48
  C 394.39 217.07 397.46 216.98 398.92 210.34
  A 0.54 0.53 -83.9 0 0 398.40 209.69"
/>
<path stroke="#86675b" vector-effect="non-scaling-stroke" d="
  M 499.20 209.69
  L 415.36 209.69
  A 0.44 0.43 2.1 0 0 414.92 210.09
  C 414.22 221.18 407.79 228.85 397.74 233.15
  A 0.81 0.80 -11.7 0 0 397.25 233.89
  L 397.25 241.47
  A 0.58 0.57 88.2 0 0 397.86 242.05
  C 414.37 240.99 427.26 245.16 439.44 256.34
  A 0.72 0.72 0.0 0 0 440.44 256.32
  Q 450.88 245.90 464.55 242.84
  C 469.75 241.68 474.27 241.94 481.45 241.91
  A 0.65 0.64 -89.1 0 0 482.09 241.28
  C 482.27 233.56 480.06 224.34 488.95 219.73
  C 494.64 216.77 497.68 217.62 499.67 210.31
  A 0.49 0.49 0.0 0 0 499.20 209.69"
/>
<path stroke="#86675b" vector-effect="non-scaling-stroke" d="
  M 551.83 268.02
  Q 551.94 259.07 551.91 246.06
  Q 551.87 232.20 549.70 227.25
  C 543.82 213.83 531.31 208.81 516.66 209.78
  A 0.69 0.69 0.0 0 0 516.01 210.39
  Q 513.96 226.66 498.64 232.94
  A 1.03 1.03 0.0 0 0 498.00 233.89
  L 498.00 241.42
  A 0.49 0.49 0.0 0 0 498.50 241.91
  Q 505.06 241.76 511.05 242.16
  C 527.89 243.26 540.62 255.49 551.31 268.20
  A 0.30 0.29 25.5 0 0 551.83 268.02"
/>
<path stroke="#967851" vector-effect="non-scaling-stroke" d="
  M 298.04 273.29
  C 306.65 273.29 312.88 267.15 314.45 258.93
  A 0.30 0.30 0.0 0 0 314.16 258.58
  Q 308.49 258.61 298.05 258.60
  Q 287.61 258.59 281.95 258.56
  A 0.30 0.30 0.0 0 0 281.65 258.91
  C 283.22 267.13 289.43 273.28 298.04 273.29"
/>
<path stroke="#727e7d" vector-effect="non-scaling-stroke" d="
  M 389.86 272.96
  C 398.23 272.97 404.28 267.01 405.82 259.02
  A 0.29 0.29 0.0 0 0 405.53 258.68
  Q 400.03 258.70 389.88 258.68
  Q 379.74 258.66 374.23 258.63
  A 0.29 0.29 0.0 0 0 373.95 258.97
  C 375.46 266.95 381.49 272.94 389.86 272.96"
/>
<path stroke="#965649" vector-effect="non-scaling-stroke" d="
  M 489.76 272.81
  C 498.05 272.82 504.05 266.91 505.57 258.99
  A 0.29 0.28 -84.9 0 0 505.29 258.66
  Q 499.84 258.68 489.78 258.66
  Q 479.72 258.65 474.27 258.62
  A 0.29 0.28 85.1 0 0 473.99 258.95
  C 475.48 266.87 481.47 272.80 489.76 272.81"
/>
<path stroke="#965649" vector-effect="non-scaling-stroke" d="
  M 457.36 262.51
  L 451.01 267.51
  A 0.57 0.56 49.3 0 0 450.95 268.34
  Q 460.68 278.74 469.79 289.22
  Q 477.26 297.81 475.18 307.87
  C 474.33 311.99 472.27 315.91 469.33 318.59
  Q 463.30 324.09 458.63 328.60
  Q 451.93 335.07 443.29 335.35
  A 0.43 0.42 -0.7 0 0 442.87 335.77
  L 442.87 383.03
  A 0.65 0.65 0.0 0 0 443.52 383.68
  L 525.95 383.68
  A 0.46 0.46 0.0 0 0 526.41 383.23
  Q 526.44 355.28 526.43 319.00
  C 526.42 314.45 529.24 310.54 534.11 310.76
  Q 540.27 311.02 541.54 318.41
  A 0.79 0.78 79.5 0 0 542.46 319.05
  Q 544.61 318.65 546.24 317.24
  Q 550.90 313.25 558.19 305.69
  A 3.04 3.03 57.4 0 0 558.87 302.59
  Q 558.05 300.26 556.26 298.02
  Q 541.19 279.19 525.29 264.48
  Q 523.98 263.27 521.93 261.78
  A 0.36 0.36 0.0 0 0 521.37 262.01
  Q 518.82 276.44 507.70 283.89
  C 499.98 289.07 489.92 290.48 481.17 287.84
  Q 465.72 283.17 459.60 267.76
  C 459.02 266.31 458.69 263.79 458.21 262.72
  A 0.56 0.56 0.0 0 0 457.36 262.51"
/>
<path stroke="#967851" vector-effect="non-scaling-stroke" d="
  M 265.58 262.81
  Q 261.53 265.33 258.34 268.59
  Q 246.37 280.79 226.65 302.16
  Q 225.08 303.86 226.55 305.22
  Q 232.26 310.51 237.93 315.80
  Q 240.59 318.29 243.94 318.98
  A 0.72 0.71 -79.1 0 0 244.79 318.40
  Q 245.94 311.95 251.10 310.96
  C 256.28 309.96 260.91 313.61 260.92 318.90
  Q 260.96 368.53 260.89 383.19
  A 0.52 0.52 0.0 0 0 261.41 383.72
  L 335.46 383.72
  A 0.27 0.26 -90.0 0 0 335.72 383.45
  Q 335.75 321.74 335.72 320.80
  C 335.58 316.70 336.59 312.80 340.15 311.41
  C 346.21 309.05 349.81 312.80 351.57 318.35
  A 0.61 0.61 0.0 0 0 352.29 318.76
  Q 354.54 318.21 355.60 317.32
  Q 358.72 314.70 366.76 306.67
  C 369.19 304.24 367.85 301.71 365.91 299.39
  Q 348.50 278.61 335.04 266.01
  Q 333.69 264.75 330.87 262.68
  A 0.45 0.45 0.0 0 0 330.16 262.95
  C 327.08 279.00 313.40 290.25 297.00 289.46
  C 281.42 288.71 269.82 278.26 266.17 263.05
  A 0.40 0.39 -22.7 0 0 265.58 262.81"
/>
<path stroke="#727e7d" vector-effect="non-scaling-stroke" d="
  M 356.57 263.12
  Q 356.05 263.42 355.83 263.64
  A 0.54 0.53 -44.4 0 0 355.82 264.39
  Q 359.22 267.96 359.35 267.88
  Q 359.49 267.80 358.04 263.09
  A 0.54 0.53 -16.3 0 0 357.38 262.73
  Q 357.09 262.82 356.57 263.12"
/>
<path stroke="#727e7d" vector-effect="non-scaling-stroke" d="
  M 375.63 286.13
  C 383.25 293.88 387.14 302.97 382.02 313.47
  Q 380.43 316.74 374.49 322.22
  C 367.73 328.46 362.19 335.29 351.73 335.63
  A 0.31 0.31 0.0 0 0 351.43 335.94
  L 351.43 383.22
  A 0.52 0.52 0.0 0 0 351.95 383.74
  L 426.50 383.74
  A 0.61 0.61 0.0 0 0 427.11 383.13
  Q 427.00 366.03 427.07 318.53
  C 427.08 312.62 432.83 308.90 438.25 311.68
  C 440.52 312.84 441.88 315.84 442.64 318.30
  A 0.74 0.74 0.0 0 0 443.53 318.81
  Q 446.04 318.20 448.06 316.31
  Q 454.57 310.19 458.49 306.08
  A 3.36 3.35 -30.5 0 0 459.30 302.96
  Q 458.91 301.44 457.30 299.48
  Q 447.93 288.07 433.59 273.22
  C 429.90 269.40 426.48 265.76 422.22 262.62
  A 0.46 0.46 0.0 0 0 421.50 262.90
  C 417.86 280.98 402.07 292.51 383.71 288.69
  C 381.32 288.19 378.68 286.93 375.91 285.71
  A 0.26 0.25 79.2 0 0 375.63 286.13"
/>
<path stroke="#86675b" vector-effect="non-scaling-stroke" d="
  M 220.28 322.31
  L 220.28 412.81
  A 0.62 0.62 0.0 0 0 220.90 413.43
  L 551.43 413.43
  A 0.45 0.45 0.0 0 0 551.88 412.98
  L 551.88 334.52
  A 0.42 0.42 0.0 0 0 551.40 334.11
  L 542.18 335.57
  A 0.34 0.33 -4.0 0 0 541.89 335.90
  Q 541.97 377.12 541.84 387.48
  Q 541.76 394.84 536.89 397.71
  Q 534.40 399.18 525.29 399.18
  Q 325.47 399.28 255.75 399.29
  Q 249.15 399.29 246.23 394.38
  Q 244.67 391.75 244.77 383.36
  Q 244.95 367.73 244.82 335.76
  A 0.34 0.33 1.8 0 0 244.50 335.43
  C 234.04 334.85 228.57 328.22 220.90 322.02
  A 0.38 0.38 0.0 0 0 220.28 322.31"
/>
<path stroke="#967851" vector-effect="non-scaling-stroke" d="
  M 595.78 429.91
  A 0.54 0.54 0.0 0 0 595.24 429.37
  L 220.92 429.37
  A 0.54 0.54 0.0 0 0 220.38 429.91
  L 220.38 447.09
  A 0.54 0.54 0.0 0 0 220.92 447.63
  L 595.24 447.63
  A 0.54 0.54 0.0 0 0 595.78 447.09
  L 595.78 429.91"
/>
<path stroke="#86675b" vector-effect="non-scaling-stroke" d="
  M 546.61 566.00
  L 595.25 566.03
  A 0.58 0.58 0.0 0 0 595.83 565.45
  L 595.83 464.24
  A 0.68 0.68 0.0 0 0 595.15 463.56
  L 220.67 463.56
  A 0.39 0.39 0.0 0 0 220.28 463.95
  L 220.28 565.46
  A 0.56 0.56 0.0 0 0 220.84 566.02
  L 278.29 566.02
  A 0.48 0.48 0.0 0 0 278.73 565.36
  Q 271.35 546.70 281.89 531.38
  A 2.27 2.25 -42.9 0 0 281.99 528.97
  Q 272.83 512.91 277.52 495.93
  C 280.82 483.97 289.82 474.30 301.49 470.01
  C 309.50 467.07 317.42 467.46 328.25 467.43
  Q 424.24 467.16 510.01 467.51
  Q 530.13 467.60 541.59 483.23
  Q 553.49 499.45 547.42 520.34
  Q 546.61 523.13 542.98 529.31
  A 0.89 0.86 46.4 0 0 542.97 530.19
  Q 544.00 532.04 544.88 533.62
  Q 551.15 544.72 548.70 557.47
  C 548.20 560.08 546.97 563.77 546.20 565.35
  A 0.45 0.45 0.0 0 0 546.61 566.00"
/>
<path stroke="#727e7d" vector-effect="non-scaling-stroke" d="
  M 412.66 565.95
  Q 452.72 565.94 516.50 565.93
  C 518.41 565.93 522.27 566.12 524.45 565.24
  C 534.82 561.05 536.59 545.80 528.51 538.74
  C 527.21 537.59 525.02 536.58 524.12 535.07
  C 521.46 530.64 523.57 527.31 527.26 524.07
  A 4.63 4.49 89.1 0 0 527.91 523.38
  C 535.23 513.94 535.41 500.46 527.58 491.37
  Q 520.89 483.60 509.00 483.54
  Q 505.04 483.52 412.63 483.55
  Q 320.22 483.58 316.26 483.60
  Q 304.37 483.66 297.69 491.44
  C 289.87 500.53 290.05 514.01 297.38 523.45
  A 4.63 4.49 -89.2 0 0 298.03 524.14
  C 301.72 527.38 303.83 530.71 301.18 535.14
  C 300.28 536.65 298.09 537.66 296.79 538.81
  C 288.71 545.87 290.49 561.12 300.86 565.31
  C 303.04 566.19 306.90 565.99 308.81 565.99
  Q 372.60 565.96 412.66 565.95"
/>
<path stroke="#967851" vector-effect="non-scaling-stroke" d="
  M 595.29 581.88
  L 220.80 581.88
  A 0.43 0.43 0.0 0 0 220.37 582.31
  L 220.37 626.05
  A 0.58 0.57 0.0 0 0 220.95 626.62
  L 584.33 626.58
  A 0.64 0.54 31.3 0 0 584.52 626.55
  Q 595.63 623.62 595.71 612.71
  Q 595.83 598.01 595.76 582.35
  A 0.47 0.47 0.0 0 0 595.29 581.88"
/>
<path stroke="#977a66" vector-effect="non-scaling-stroke" d="
  M 145.14 366.93
  Q 145.16 379.81 145.18 384.36
  Q 145.20 390.97 146.04 393.59
  C 148.69 401.85 156.32 407.63 164.88 407.62
  C 173.43 407.61 181.05 401.81 183.68 393.54
  Q 184.52 390.92 184.52 384.31
  Q 184.53 379.76 184.51 366.88
  Q 184.50 354.00 184.48 349.45
  Q 184.45 342.84 183.61 340.22
  C 180.96 331.96 173.33 326.17 164.77 326.18
  C 156.22 326.19 148.60 332.00 145.97 340.27
  Q 145.14 342.89 145.13 349.50
  Q 145.12 354.05 145.14 366.93"
/>
<path stroke="#965649" vector-effect="non-scaling-stroke" d="
  M 168.44 345.48
  A 3.40 3.40 0.0 0 0 165.04 342.08
  L 164.92 342.08
  A 3.40 3.40 0.0 0 0 161.52 345.48
  L 161.52 388.24
  A 3.40 3.40 0.0 0 0 164.92 391.64
  L 165.04 391.64
  A 3.40 3.40 0.0 0 0 168.44 388.24
  L 168.44 345.48"
/>
<path stroke="#727e7d" vector-effect="non-scaling-stroke" d="
  M 515.53 508.47
  A 7.72 7.72 0.0 0 0 507.81 500.75
  L 327.53 500.75
  A 7.72 7.72 0.0 0 0 319.81 508.47
  L 319.81 509.05
  A 7.72 7.72 0.0 0 0 327.53 516.77
  L 507.81 516.77
  A 7.72 7.72 0.0 0 0 515.53 509.05
  L 515.53 508.47"
/>
<path stroke="#727e7d" vector-effect="non-scaling-stroke" d="
  M 508.46 541.26
  A 7.74 7.74 0.0 0 0 500.72 533.52
  L 313.38 533.52
  A 7.74 7.74 0.0 0 0 305.64 541.26
  L 305.64 541.82
  A 7.74 7.74 0.0 0 0 313.38 549.56
  L 500.72 549.56
  A 7.74 7.74 0.0 0 0 508.46 541.82
  L 508.46 541.26"
/>
<path stroke="#967851" vector-effect="non-scaling-stroke" d="
  M 431.5096 604.5817
  A 7.81 7.81 0.0 0 0 423.6860 596.7853
  L 372.4460 596.8747
  A 7.81 7.81 0.0 0 0 364.6497 604.6983
  L 364.6504 605.1183
  A 7.81 7.81 0.0 0 0 372.4740 612.9147
  L 423.7140 612.8253
  A 7.81 7.81 0.0 0 0 431.5103 605.0017
  L 431.5096 604.5817"
/>
</g>
<path fill="#2e150f" d="
  M 612.12 613.40
  A 29.19 29.19 0.0 0 1 582.93 642.59
  L 87.37 642.59
  A 29.19 29.19 0.0 0 1 58.18 613.40
  L 58.18 118.46
  A 29.19 29.19 0.0 0 1 87.37 89.27
  L 582.93 89.27
  A 29.19 29.19 0.0 0 1 612.12 118.46
  L 612.12 613.40
  Z
  M 74.48 365.99
  Q 74.49 582.82 74.57 612.25
  Q 74.60 621.81 81.70 625.13
  Q 84.94 626.65 92.50 626.65
  Q 186.10 626.58 202.93 626.64
  A 0.51 0.50 -0.2 0 0 203.44 626.14
  Q 203.46 599.90 203.45 365.98
  Q 203.44 132.06 203.42 105.82
  A 0.51 0.50 0.2 0 0 202.91 105.32
  Q 186.08 105.39 92.48 105.32
  Q 84.92 105.32 81.68 106.84
  Q 74.58 110.16 74.56 119.72
  Q 74.47 149.15 74.48 365.99
  Z
  M 220.37 105.81
  L 220.37 123.53
  A 0.69 0.68 90.0 0 0 221.05 124.22
  L 595.01 124.22
  A 0.68 0.67 3.3 0 0 595.68 123.63
  C 596.52 116.83 594.51 109.90 588.30 106.62
  Q 585.94 105.37 580.45 105.37
  Q 396.30 105.39 220.80 105.38
  A 0.43 0.43 0.0 0 0 220.37 105.81
  Z
  M 243.86 141.21
  A 0.47 0.47 0.0 0 0 243.39 140.74
  L 220.75 140.74
  A 0.47 0.47 0.0 0 0 220.28 141.21
  L 220.28 192.93
  A 0.47 0.47 0.0 0 0 220.75 193.40
  L 243.39 193.40
  A 0.47 0.47 0.0 0 0 243.86 192.93
  L 243.86 141.21
  Z
  M 260.32 141.21
  L 260.32 192.96
  A 0.41 0.41 0.0 0 0 260.73 193.37
  L 276.07 193.37
  A 1.11 1.11 0.0 0 0 276.99 192.88
  C 288.32 176.09 309.90 177.48 321.46 192.91
  A 1.25 1.23 -18.3 0 0 322.45 193.40
  L 328.73 193.40
  A 0.69 0.68 -0.0 0 0 329.42 192.72
  L 329.42 141.16
  A 0.43 0.42 90.0 0 0 329.00 140.73
  L 260.79 140.73
  A 0.48 0.47 -90.0 0 0 260.32 141.21
  Z
  M 415.39 140.73
  L 346.21 140.73
  A 0.42 0.42 0.0 0 0 345.79 141.15
  L 345.79 192.90
  A 0.50 0.50 0.0 0 0 346.29 193.40
  L 366.07 193.40
  A 0.96 0.93 -73.7 0 0 366.87 192.95
  Q 375.89 178.23 392.93 181.12
  C 400.53 182.40 405.58 186.81 410.74 192.76
  A 1.71 1.67 -19.9 0 0 412.02 193.34
  L 415.21 193.34
  A 0.62 0.62 0.0 0 0 415.83 192.72
  L 415.83 141.18
  A 0.45 0.44 90.0 0 0 415.39 140.73
  Z
  M 432.32 141.34
  L 432.32 192.81
  A 0.59 0.58 -90.0 0 0 432.90 193.40
  L 466.73 193.40
  A 1.01 1.00 15.0 0 0 467.60 192.90
  Q 473.14 183.49 482.64 181.40
  C 494.28 178.83 504.51 183.34 511.77 192.81
  A 1.34 1.33 -18.7 0 0 512.83 193.33
  C 526.39 193.33 538.91 194.22 548.92 201.83
  Q 562.29 211.99 566.48 227.46
  Q 568.13 233.58 567.99 247.80
  Q 567.85 260.64 567.91 285.24
  A 5.10 5.09 -58.4 0 0 568.43 287.44
  Q 568.98 288.56 570.04 289.82
  C 576.13 297.07 576.20 307.06 571.60 315.03
  C 570.76 316.49 568.77 318.11 568.16 319.69
  A 3.55 3.43 56.3 0 0 567.93 320.94
  L 567.92 412.62
  A 0.80 0.80 0.0 0 0 568.72 413.42
  L 595.41 413.42
  A 0.42 0.42 0.0 0 0 595.83 413.00
  L 595.83 141.18
  A 0.45 0.45 0.0 0 0 595.38 140.73
  L 432.93 140.73
  A 0.61 0.61 0.0 0 0 432.32 141.34
  Z
  M 308.66 209.69
  L 220.68 209.69
  A 0.39 0.39 0.0 0 0 220.29 210.08
  L 220.29 284.36
  A 0.34 0.34 0.0 0 0 220.88 284.59
  Q 230.66 273.95 242.13 261.89
  C 250.73 252.85 259.80 245.56 272.19 242.93
  C 278.00 241.69 284.37 241.96 290.58 241.96
  A 0.65 0.65 0.0 0 0 291.23 241.33
  Q 291.32 236.34 291.22 232.78
  C 290.96 223.84 295.49 220.86 302.96 217.95
  C 306.95 216.40 308.60 213.91 309.00 210.06
  A 0.34 0.33 3.0 0 0 308.66 209.69
  Z
  M 398.40 209.69
  L 325.51 209.69
  A 0.45 0.45 0.0 0 0 325.06 210.11
  C 324.44 221.73 318.08 228.70 307.72 233.34
  A 1.02 1.00 -12.3 0 0 307.12 234.26
  L 307.12 241.54
  A 0.45 0.44 88.2 0 0 307.59 241.99
  C 320.90 241.27 333.18 243.70 343.65 252.33
  A 1.02 1.01 44.7 0 0 344.94 252.33
  Q 353.87 244.81 365.23 242.66
  C 370.20 241.71 374.52 241.94 380.70 241.92
  A 0.57 0.57 0.0 0 0 381.26 241.33
  C 380.99 232.76 379.86 223.45 388.90 219.48
  C 394.39 217.07 397.46 216.98 398.92 210.34
  A 0.54 0.53 -83.9 0 0 398.40 209.69
  Z
  M 499.20 209.69
  L 415.36 209.69
  A 0.44 0.43 2.1 0 0 414.92 210.09
  C 414.22 221.18 407.79 228.85 397.74 233.15
  A 0.81 0.80 -11.7 0 0 397.25 233.89
  L 397.25 241.47
  A 0.58 0.57 88.2 0 0 397.86 242.05
  C 414.37 240.99 427.26 245.16 439.44 256.34
  A 0.72 0.72 0.0 0 0 440.44 256.32
  Q 450.88 245.90 464.55 242.84
  C 469.75 241.68 474.27 241.94 481.45 241.91
  A 0.65 0.64 -89.1 0 0 482.09 241.28
  C 482.27 233.56 480.06 224.34 488.95 219.73
  C 494.64 216.77 497.68 217.62 499.67 210.31
  A 0.49 0.49 0.0 0 0 499.20 209.69
  Z
  M 551.83 268.02
  Q 551.94 259.07 551.91 246.06
  Q 551.87 232.20 549.70 227.25
  C 543.82 213.83 531.31 208.81 516.66 209.78
  A 0.69 0.69 0.0 0 0 516.01 210.39
  Q 513.96 226.66 498.64 232.94
  A 1.03 1.03 0.0 0 0 498.00 233.89
  L 498.00 241.42
  A 0.49 0.49 0.0 0 0 498.50 241.91
  Q 505.06 241.76 511.05 242.16
  C 527.89 243.26 540.62 255.49 551.31 268.20
  A 0.30 0.29 25.5 0 0 551.83 268.02
  Z
  M 298.04 273.29
  C 306.65 273.29 312.88 267.15 314.45 258.93
  A 0.30 0.30 0.0 0 0 314.16 258.58
  Q 308.49 258.61 298.05 258.60
  Q 287.61 258.59 281.95 258.56
  A 0.30 0.30 0.0 0 0 281.65 258.91
  C 283.22 267.13 289.43 273.28 298.04 273.29
  Z
  M 389.86 272.96
  C 398.23 272.97 404.28 267.01 405.82 259.02
  A 0.29 0.29 0.0 0 0 405.53 258.68
  Q 400.03 258.70 389.88 258.68
  Q 379.74 258.66 374.23 258.63
  A 0.29 0.29 0.0 0 0 373.95 258.97
  C 375.46 266.95 381.49 272.94 389.86 272.96
  Z
  M 489.76 272.81
  C 498.05 272.82 504.05 266.91 505.57 258.99
  A 0.29 0.28 -84.9 0 0 505.29 258.66
  Q 499.84 258.68 489.78 258.66
  Q 479.72 258.65 474.27 258.62
  A 0.29 0.28 85.1 0 0 473.99 258.95
  C 475.48 266.87 481.47 272.80 489.76 272.81
  Z
  M 457.36 262.51
  L 451.01 267.51
  A 0.57 0.56 49.3 0 0 450.95 268.34
  Q 460.68 278.74 469.79 289.22
  Q 477.26 297.81 475.18 307.87
  C 474.33 311.99 472.27 315.91 469.33 318.59
  Q 463.30 324.09 458.63 328.60
  Q 451.93 335.07 443.29 335.35
  A 0.43 0.42 -0.7 0 0 442.87 335.77
  L 442.87 383.03
  A 0.65 0.65 0.0 0 0 443.52 383.68
  L 525.95 383.68
  A 0.46 0.46 0.0 0 0 526.41 383.23
  Q 526.44 355.28 526.43 319.00
  C 526.42 314.45 529.24 310.54 534.11 310.76
  Q 540.27 311.02 541.54 318.41
  A 0.79 0.78 79.5 0 0 542.46 319.05
  Q 544.61 318.65 546.24 317.24
  Q 550.90 313.25 558.19 305.69
  A 3.04 3.03 57.4 0 0 558.87 302.59
  Q 558.05 300.26 556.26 298.02
  Q 541.19 279.19 525.29 264.48
  Q 523.98 263.27 521.93 261.78
  A 0.36 0.36 0.0 0 0 521.37 262.01
  Q 518.82 276.44 507.70 283.89
  C 499.98 289.07 489.92 290.48 481.17 287.84
  Q 465.72 283.17 459.60 267.76
  C 459.02 266.31 458.69 263.79 458.21 262.72
  A 0.56 0.56 0.0 0 0 457.36 262.51
  Z
  M 265.58 262.81
  Q 261.53 265.33 258.34 268.59
  Q 246.37 280.79 226.65 302.16
  Q 225.08 303.86 226.55 305.22
  Q 232.26 310.51 237.93 315.80
  Q 240.59 318.29 243.94 318.98
  A 0.72 0.71 -79.1 0 0 244.79 318.40
  Q 245.94 311.95 251.10 310.96
  C 256.28 309.96 260.91 313.61 260.92 318.90
  Q 260.96 368.53 260.89 383.19
  A 0.52 0.52 0.0 0 0 261.41 383.72
  L 335.46 383.72
  A 0.27 0.26 -90.0 0 0 335.72 383.45
  Q 335.75 321.74 335.72 320.80
  C 335.58 316.70 336.59 312.80 340.15 311.41
  C 346.21 309.05 349.81 312.80 351.57 318.35
  A 0.61 0.61 0.0 0 0 352.29 318.76
  Q 354.54 318.21 355.60 317.32
  Q 358.72 314.70 366.76 306.67
  C 369.19 304.24 367.85 301.71 365.91 299.39
  Q 348.50 278.61 335.04 266.01
  Q 333.69 264.75 330.87 262.68
  A 0.45 0.45 0.0 0 0 330.16 262.95
  C 327.08 279.00 313.40 290.25 297.00 289.46
  C 281.42 288.71 269.82 278.26 266.17 263.05
  A 0.40 0.39 -22.7 0 0 265.58 262.81
  Z
  M 356.57 263.12
  Q 356.05 263.42 355.83 263.64
  A 0.54 0.53 -44.4 0 0 355.82 264.39
  Q 359.22 267.96 359.35 267.88
  Q 359.49 267.80 358.04 263.09
  A 0.54 0.53 -16.3 0 0 357.38 262.73
  Q 357.09 262.82 356.57 263.12
  Z
  M 375.63 286.13
  C 383.25 293.88 387.14 302.97 382.02 313.47
  Q 380.43 316.74 374.49 322.22
  C 367.73 328.46 362.19 335.29 351.73 335.63
  A 0.31 0.31 0.0 0 0 351.43 335.94
  L 351.43 383.22
  A 0.52 0.52 0.0 0 0 351.95 383.74
  L 426.50 383.74
  A 0.61 0.61 0.0 0 0 427.11 383.13
  Q 427.00 366.03 427.07 318.53
  C 427.08 312.62 432.83 308.90 438.25 311.68
  C 440.52 312.84 441.88 315.84 442.64 318.30
  A 0.74 0.74 0.0 0 0 443.53 318.81
  Q 446.04 318.20 448.06 316.31
  Q 454.57 310.19 458.49 306.08
  A 3.36 3.35 -30.5 0 0 459.30 302.96
  Q 458.91 301.44 457.30 299.48
  Q 447.93 288.07 433.59 273.22
  C 429.90 269.40 426.48 265.76 422.22 262.62
  A 0.46 0.46 0.0 0 0 421.50 262.90
  C 417.86 280.98 402.07 292.51 383.71 288.69
  C 381.32 288.19 378.68 286.93 375.91 285.71
  A 0.26 0.25 79.2 0 0 375.63 286.13
  Z
  M 220.28 322.31
  L 220.28 412.81
  A 0.62 0.62 0.0 0 0 220.90 413.43
  L 551.43 413.43
  A 0.45 0.45 0.0 0 0 551.88 412.98
  L 551.88 334.52
  A 0.42 0.42 0.0 0 0 551.40 334.11
  L 542.18 335.57
  A 0.34 0.33 -4.0 0 0 541.89 335.90
  Q 541.97 377.12 541.84 387.48
  Q 541.76 394.84 536.89 397.71
  Q 534.40 399.18 525.29 399.18
  Q 325.47 399.28 255.75 399.29
  Q 249.15 399.29 246.23 394.38
  Q 244.67 391.75 244.77 383.36
  Q 244.95 367.73 244.82 335.76
  A 0.34 0.33 1.8 0 0 244.50 335.43
  C 234.04 334.85 228.57 328.22 220.90 322.02
  A 0.38 0.38 0.0 0 0 220.28 322.31
  Z
  M 595.78 429.91
  A 0.54 0.54 0.0 0 0 595.24 429.37
  L 220.92 429.37
  A 0.54 0.54 0.0 0 0 220.38 429.91
  L 220.38 447.09
  A 0.54 0.54 0.0 0 0 220.92 447.63
  L 595.24 447.63
  A 0.54 0.54 0.0 0 0 595.78 447.09
  L 595.78 429.91
  Z
  M 546.61 566.00
  L 595.25 566.03
  A 0.58 0.58 0.0 0 0 595.83 565.45
  L 595.83 464.24
  A 0.68 0.68 0.0 0 0 595.15 463.56
  L 220.67 463.56
  A 0.39 0.39 0.0 0 0 220.28 463.95
  L 220.28 565.46
  A 0.56 0.56 0.0 0 0 220.84 566.02
  L 278.29 566.02
  A 0.48 0.48 0.0 0 0 278.73 565.36
  Q 271.35 546.70 281.89 531.38
  A 2.27 2.25 -42.9 0 0 281.99 528.97
  Q 272.83 512.91 277.52 495.93
  C 280.82 483.97 289.82 474.30 301.49 470.01
  C 309.50 467.07 317.42 467.46 328.25 467.43
  Q 424.24 467.16 510.01 467.51
  Q 530.13 467.60 541.59 483.23
  Q 553.49 499.45 547.42 520.34
  Q 546.61 523.13 542.98 529.31
  A 0.89 0.86 46.4 0 0 542.97 530.19
  Q 544.00 532.04 544.88 533.62
  Q 551.15 544.72 548.70 557.47
  C 548.20 560.08 546.97 563.77 546.20 565.35
  A 0.45 0.45 0.0 0 0 546.61 566.00
  Z
  M 412.66 565.95
  Q 452.72 565.94 516.50 565.93
  C 518.41 565.93 522.27 566.12 524.45 565.24
  C 534.82 561.05 536.59 545.80 528.51 538.74
  C 527.21 537.59 525.02 536.58 524.12 535.07
  C 521.46 530.64 523.57 527.31 527.26 524.07
  A 4.63 4.49 89.1 0 0 527.91 523.38
  C 535.23 513.94 535.41 500.46 527.58 491.37
  Q 520.89 483.60 509.00 483.54
  Q 505.04 483.52 412.63 483.55
  Q 320.22 483.58 316.26 483.60
  Q 304.37 483.66 297.69 491.44
  C 289.87 500.53 290.05 514.01 297.38 523.45
  A 4.63 4.49 -89.2 0 0 298.03 524.14
  C 301.72 527.38 303.83 530.71 301.18 535.14
  C 300.28 536.65 298.09 537.66 296.79 538.81
  C 288.71 545.87 290.49 561.12 300.86 565.31
  C 303.04 566.19 306.90 565.99 308.81 565.99
  Q 372.60 565.96 412.66 565.95
  Z
  M 595.29 581.88
  L 220.80 581.88
  A 0.43 0.43 0.0 0 0 220.37 582.31
  L 220.37 626.05
  A 0.58 0.57 0.0 0 0 220.95 626.62
  L 584.33 626.58
  A 0.64 0.54 31.3 0 0 584.52 626.55
  Q 595.63 623.62 595.71 612.71
  Q 595.83 598.01 595.76 582.35
  A 0.47 0.47 0.0 0 0 595.29 581.88
  Z"
/>
<path fill="#ffdebc" d="
  M 203.45 365.98
  Q 203.46 599.90 203.44 626.14
  A 0.51 0.50 -0.2 0 1 202.93 626.64
  Q 186.10 626.58 92.50 626.65
  Q 84.94 626.65 81.70 625.13
  Q 74.60 621.81 74.57 612.25
  Q 74.49 582.82 74.48 365.99
  Q 74.47 149.15 74.56 119.72
  Q 74.58 110.16 81.68 106.84
  Q 84.92 105.32 92.48 105.32
  Q 186.08 105.39 202.91 105.32
  A 0.51 0.50 0.2 0 1 203.42 105.82
  Q 203.44 132.06 203.45 365.98
  Z
  M 145.14 366.93
  Q 145.16 379.81 145.18 384.36
  Q 145.20 390.97 146.04 393.59
  C 148.69 401.85 156.32 407.63 164.88 407.62
  C 173.43 407.61 181.05 401.81 183.68 393.54
  Q 184.52 390.92 184.52 384.31
  Q 184.53 379.76 184.51 366.88
  Q 184.50 354.00 184.48 349.45
  Q 184.45 342.84 183.61 340.22
  C 180.96 331.96 173.33 326.17 164.77 326.18
  C 156.22 326.19 148.60 332.00 145.97 340.27
  Q 145.14 342.89 145.13 349.50
  Q 145.12 354.05 145.14 366.93
  Z"
/>
<path fill="#fedb92" d="
  M 220.37 105.81
  A 0.43 0.43 0.0 0 1 220.80 105.38
  Q 396.30 105.39 580.45 105.37
  Q 585.94 105.37 588.30 106.62
  C 594.51 109.90 596.52 116.83 595.68 123.63
  A 0.68 0.67 3.3 0 1 595.01 124.22
  L 221.05 124.22
  A 0.69 0.68 90.0 0 1 220.37 123.53
  L 220.37 105.81
  Z"
/>
<rect fill="#ddb9a7" x="220.28" y="140.74" width="23.58" height="52.66" rx="0.47"/>
<path fill="#ddb9a7" d="
  M 260.32 141.21
  A 0.48 0.47 90.0 0 1 260.79 140.73
  L 329.00 140.73
  A 0.43 0.42 -90.0 0 1 329.42 141.16
  L 329.42 192.72
  A 0.69 0.68 -0.0 0 1 328.73 193.40
  L 322.45 193.40
  A 1.25 1.23 -18.3 0 1 321.46 192.91
  C 309.90 177.48 288.32 176.09 276.99 192.88
  A 1.11 1.11 0.0 0 1 276.07 193.37
  L 260.73 193.37
  A 0.41 0.41 0.0 0 1 260.32 192.96
  L 260.32 141.21
  Z"
/>
<path fill="#ddb9a7" d="
  M 415.39 140.73
  A 0.45 0.44 -90.0 0 1 415.83 141.18
  L 415.83 192.72
  A 0.62 0.62 0.0 0 1 415.21 193.34
  L 412.02 193.34
  A 1.71 1.67 -19.9 0 1 410.74 192.76
  C 405.58 186.81 400.53 182.40 392.93 181.12
  Q 375.89 178.23 366.87 192.95
  A 0.96 0.93 -73.7 0 1 366.07 193.40
  L 346.29 193.40
  A 0.50 0.50 0.0 0 1 345.79 192.90
  L 345.79 141.15
  A 0.42 0.42 0.0 0 1 346.21 140.73
  L 415.39 140.73
  Z"
/>
<path fill="#ddb9a7" d="
  M 432.32 141.34
  A 0.61 0.61 0.0 0 1 432.93 140.73
  L 595.38 140.73
  A 0.45 0.45 0.0 0 1 595.83 141.18
  L 595.83 413.00
  A 0.42 0.42 0.0 0 1 595.41 413.42
  L 568.72 413.42
  A 0.80 0.80 0.0 0 1 567.92 412.62
  L 567.93 320.94
  A 3.55 3.43 56.3 0 1 568.16 319.69
  C 568.77 318.11 570.76 316.49 571.60 315.03
  C 576.20 307.06 576.13 297.07 570.04 289.82
  Q 568.98 288.56 568.43 287.44
  A 5.10 5.09 -58.4 0 1 567.91 285.24
  Q 567.85 260.64 567.99 247.80
  Q 568.13 233.58 566.48 227.46
  Q 562.29 211.99 548.92 201.83
  C 538.91 194.22 526.39 193.33 512.83 193.33
  A 1.34 1.33 -18.7 0 1 511.77 192.81
  C 504.51 183.34 494.28 178.83 482.64 181.40
  Q 473.14 183.49 467.60 192.90
  A 1.01 1.00 15.0 0 1 466.73 193.40
  L 432.90 193.40
  A 0.59 0.58 90.0 0 1 432.32 192.81
  L 432.32 141.34
  Z"
/>
<path fill="#ddb9a7" d="
  M 308.66 209.69
  A 0.34 0.33 3.0 0 1 309.00 210.06
  C 308.60 213.91 306.95 216.40 302.96 217.95
  C 295.49 220.86 290.96 223.84 291.22 232.78
  Q 291.32 236.34 291.23 241.33
  A 0.65 0.65 0.0 0 1 290.58 241.96
  C 284.37 241.96 278.00 241.69 272.19 242.93
  C 259.80 245.56 250.73 252.85 242.13 261.89
  Q 230.66 273.95 220.88 284.59
  A 0.34 0.34 0.0 0 1 220.29 284.36
  L 220.29 210.08
  A 0.39 0.39 0.0 0 1 220.68 209.69
  L 308.66 209.69
  Z"
/>
<path fill="#ddb9a7" d="
  M 398.92 210.34
  C 397.46 216.98 394.39 217.07 388.90 219.48
  C 379.86 223.45 380.99 232.76 381.26 241.33
  A 0.57 0.57 0.0 0 1 380.70 241.92
  C 374.52 241.94 370.20 241.71 365.23 242.66
  Q 353.87 244.81 344.94 252.33
  A 1.02 1.01 44.7 0 1 343.65 252.33
  C 333.18 243.70 320.90 241.27 307.59 241.99
  A 0.45 0.44 88.2 0 1 307.12 241.54
  L 307.12 234.26
  A 1.02 1.00 -12.3 0 1 307.72 233.34
  C 318.08 228.70 324.44 221.73 325.06 210.11
  A 0.45 0.45 0.0 0 1 325.51 209.69
  L 398.40 209.69
  A 0.54 0.53 -83.9 0 1 398.92 210.34
  Z"
/>
<path fill="#ddb9a7" d="
  M 499.67 210.31
  C 497.68 217.62 494.64 216.77 488.95 219.73
  C 480.06 224.34 482.27 233.56 482.09 241.28
  A 0.65 0.64 -89.1 0 1 481.45 241.91
  C 474.27 241.94 469.75 241.68 464.55 242.84
  Q 450.88 245.90 440.44 256.32
  A 0.72 0.72 0.0 0 1 439.44 256.34
  C 427.26 245.16 414.37 240.99 397.86 242.05
  A 0.58 0.57 88.2 0 1 397.25 241.47
  L 397.25 233.89
  A 0.81 0.80 -11.7 0 1 397.74 233.15
  C 407.79 228.85 414.22 221.18 414.92 210.09
  A 0.44 0.43 2.1 0 1 415.36 209.69
  L 499.20 209.69
  A 0.49 0.49 0.0 0 1 499.67 210.31
  Z"
/>
<path fill="#ddb9a7" d="
  M 551.83 268.02
  A 0.30 0.29 25.5 0 1 551.31 268.20
  C 540.62 255.49 527.89 243.26 511.05 242.16
  Q 505.06 241.76 498.50 241.91
  A 0.49 0.49 0.0 0 1 498.00 241.42
  L 498.00 233.89
  A 1.03 1.03 0.0 0 1 498.64 232.94
  Q 513.96 226.66 516.01 210.39
  A 0.69 0.69 0.0 0 1 516.66 209.78
  C 531.31 208.81 543.82 213.83 549.70 227.25
  Q 551.87 232.20 551.91 246.06
  Q 551.94 259.07 551.83 268.02
  Z"
/>
<path fill="#fedb92" d="
  M 298.05 258.60
  Q 308.49 258.61 314.16 258.58
  A 0.30 0.30 0.0 0 1 314.45 258.93
  C 312.88 267.15 306.65 273.29 298.04 273.29
  C 289.43 273.28 283.22 267.13 281.65 258.91
  A 0.30 0.30 0.0 0 1 281.95 258.56
  Q 287.61 258.59 298.05 258.60
  Z"
/>
<path fill="#b6e6ea" d="
  M 389.86 272.96
  C 381.49 272.94 375.46 266.95 373.95 258.97
  A 0.29 0.29 0.0 0 1 374.23 258.63
  Q 379.74 258.66 389.88 258.68
  Q 400.03 258.70 405.53 258.68
  A 0.29 0.29 0.0 0 1 405.82 259.02
  C 404.28 267.01 398.23 272.97 389.86 272.96
  Z"
/>
<path fill="#fe9782" d="
  M 489.76 272.81
  C 481.47 272.80 475.48 266.87 473.99 258.95
  A 0.29 0.28 85.1 0 1 474.27 258.62
  Q 479.72 258.65 489.78 258.66
  Q 499.84 258.68 505.29 258.66
  A 0.29 0.28 -84.9 0 1 505.57 258.99
  C 504.05 266.91 498.05 272.82 489.76 272.81
  Z"
/>
<path fill="#fe9782" d="
  M 458.21 262.72
  C 458.69 263.79 459.02 266.31 459.60 267.76
  Q 465.72 283.17 481.17 287.84
  C 489.92 290.48 499.98 289.07 507.70 283.89
  Q 518.82 276.44 521.37 262.01
  A 0.36 0.36 0.0 0 1 521.93 261.78
  Q 523.98 263.27 525.29 264.48
  Q 541.19 279.19 556.26 298.02
  Q 558.05 300.26 558.87 302.59
  A 3.04 3.03 57.4 0 1 558.19 305.69
  Q 550.90 313.25 546.24 317.24
  Q 544.61 318.65 542.46 319.05
  A 0.79 0.78 79.5 0 1 541.54 318.41
  Q 540.27 311.02 534.11 310.76
  C 529.24 310.54 526.42 314.45 526.43 319.00
  Q 526.44 355.28 526.41 383.23
  A 0.46 0.46 0.0 0 1 525.95 383.68
  L 443.52 383.68
  A 0.65 0.65 0.0 0 1 442.87 383.03
  L 442.87 335.77
  A 0.43 0.42 -0.7 0 1 443.29 335.35
  Q 451.93 335.07 458.63 328.60
  Q 463.30 324.09 469.33 318.59
  C 472.27 315.91 474.33 311.99 475.18 307.87
  Q 477.26 297.81 469.79 289.22
  Q 460.68 278.74 450.95 268.34
  A 0.57 0.56 49.3 0 1 451.01 267.51
  L 457.36 262.51
  A 0.56 0.56 0.0 0 1 458.21 262.72
  Z"
/>
<path fill="#fedb92" d="
  M 265.58 262.81
  A 0.40 0.39 -22.7 0 1 266.17 263.05
  C 269.82 278.26 281.42 288.71 297.00 289.46
  C 313.40 290.25 327.08 279.00 330.16 262.95
  A 0.45 0.45 0.0 0 1 330.87 262.68
  Q 333.69 264.75 335.04 266.01
  Q 348.50 278.61 365.91 299.39
  C 367.85 301.71 369.19 304.24 366.76 306.67
  Q 358.72 314.70 355.60 317.32
  Q 354.54 318.21 352.29 318.76
  A 0.61 0.61 0.0 0 1 351.57 318.35
  C 349.81 312.80 346.21 309.05 340.15 311.41
  C 336.59 312.80 335.58 316.70 335.72 320.80
  Q 335.75 321.74 335.72 383.45
  A 0.27 0.26 -90.0 0 1 335.46 383.72
  L 261.41 383.72
  A 0.52 0.52 0.0 0 1 260.89 383.19
  Q 260.96 368.53 260.92 318.90
  C 260.91 313.61 256.28 309.96 251.10 310.96
  Q 245.94 311.95 244.79 318.40
  A 0.72 0.71 -79.1 0 1 243.94 318.98
  Q 240.59 318.29 237.93 315.80
  Q 232.26 310.51 226.55 305.22
  Q 225.08 303.86 226.65 302.16
  Q 246.37 280.79 258.34 268.59
  Q 261.53 265.33 265.58 262.81
  Z"
/>
<path fill="#b6e6ea" d="
  M 359.35 267.88
  Q 359.22 267.96 355.82 264.39
  A 0.54 0.53 -44.4 0 1 355.83 263.64
  Q 356.05 263.42 356.57 263.12
  Q 357.09 262.82 357.38 262.73
  A 0.54 0.53 -16.3 0 1 358.04 263.09
  Q 359.49 267.80 359.35 267.88
  Z"
/>
<path fill="#b6e6ea" d="
  M 375.91 285.71
  C 378.68 286.93 381.32 288.19 383.71 288.69
  C 402.07 292.51 417.86 280.98 421.50 262.90
  A 0.46 0.46 0.0 0 1 422.22 262.62
  C 426.48 265.76 429.90 269.40 433.59 273.22
  Q 447.93 288.07 457.30 299.48
  Q 458.91 301.44 459.30 302.96
  A 3.36 3.35 -30.5 0 1 458.49 306.08
  Q 454.57 310.19 448.06 316.31
  Q 446.04 318.20 443.53 318.81
  A 0.74 0.74 0.0 0 1 442.64 318.30
  C 441.88 315.84 440.52 312.84 438.25 311.68
  C 432.83 308.90 427.08 312.62 427.07 318.53
  Q 427.00 366.03 427.11 383.13
  A 0.61 0.61 0.0 0 1 426.50 383.74
  L 351.95 383.74
  A 0.52 0.52 0.0 0 1 351.43 383.22
  L 351.43 335.94
  A 0.31 0.31 0.0 0 1 351.73 335.63
  C 362.19 335.29 367.73 328.46 374.49 322.22
  Q 380.43 316.74 382.02 313.47
  C 387.14 302.97 383.25 293.88 375.63 286.13
  A 0.26 0.25 79.2 0 1 375.91 285.71
  Z"
/>
<path fill="#ddb9a7" d="
  M 220.90 322.02
  C 228.57 328.22 234.04 334.85 244.50 335.43
  A 0.34 0.33 1.8 0 1 244.82 335.76
  Q 244.95 367.73 244.77 383.36
  Q 244.67 391.75 246.23 394.38
  Q 249.15 399.29 255.75 399.29
  Q 325.47 399.28 525.29 399.18
  Q 534.40 399.18 536.89 397.71
  Q 541.76 394.84 541.84 387.48
  Q 541.97 377.12 541.89 335.90
  A 0.34 0.33 -4.0 0 1 542.18 335.57
  L 551.40 334.11
  A 0.42 0.42 0.0 0 1 551.88 334.52
  L 551.88 412.98
  A 0.45 0.45 0.0 0 1 551.43 413.43
  L 220.90 413.43
  A 0.62 0.62 0.0 0 1 220.28 412.81
  L 220.28 322.31
  A 0.38 0.38 0.0 0 1 220.90 322.02
  Z"
/>
<path fill="#2e150f" d="
  M 164.77 326.18
  C 173.33 326.17 180.96 331.96 183.61 340.22
  Q 184.45 342.84 184.48 349.45
  Q 184.50 354.00 184.51 366.88
  Q 184.53 379.76 184.52 384.31
  Q 184.52 390.92 183.68 393.54
  C 181.05 401.81 173.43 407.61 164.88 407.62
  C 156.32 407.63 148.69 401.85 146.04 393.59
  Q 145.20 390.97 145.18 384.36
  Q 145.16 379.81 145.14 366.93
  Q 145.12 354.05 145.13 349.50
  Q 145.14 342.89 145.97 340.27
  C 148.60 332.00 156.22 326.19 164.77 326.18
  Z
  M 168.44 345.48
  A 3.40 3.40 0.0 0 0 165.04 342.08
  L 164.92 342.08
  A 3.40 3.40 0.0 0 0 161.52 345.48
  L 161.52 388.24
  A 3.40 3.40 0.0 0 0 164.92 391.64
  L 165.04 391.64
  A 3.40 3.40 0.0 0 0 168.44 388.24
  L 168.44 345.48
  Z"
/>
<rect fill="#fe9782" x="161.52" y="342.08" width="6.92" height="49.56" rx="3.40"/>
<rect fill="#fedb92" x="220.38" y="429.37" width="375.40" height="18.26" rx="0.54"/>
<path fill="#ddb9a7" d="
  M 546.20 565.35
  C 546.97 563.77 548.20 560.08 548.70 557.47
  Q 551.15 544.72 544.88 533.62
  Q 544.00 532.04 542.97 530.19
  A 0.89 0.86 46.4 0 1 542.98 529.31
  Q 546.61 523.13 547.42 520.34
  Q 553.49 499.45 541.59 483.23
  Q 530.13 467.60 510.01 467.51
  Q 424.24 467.16 328.25 467.43
  C 317.42 467.46 309.50 467.07 301.49 470.01
  C 289.82 474.30 280.82 483.97 277.52 495.93
  Q 272.83 512.91 281.99 528.97
  A 2.27 2.25 -42.9 0 1 281.89 531.38
  Q 271.35 546.70 278.73 565.36
  A 0.48 0.48 0.0 0 1 278.29 566.02
  L 220.84 566.02
  A 0.56 0.56 0.0 0 1 220.28 565.46
  L 220.28 463.95
  A 0.39 0.39 0.0 0 1 220.67 463.56
  L 595.15 463.56
  A 0.68 0.68 0.0 0 1 595.83 464.24
  L 595.83 565.45
  A 0.58 0.58 0.0 0 1 595.25 566.03
  L 546.61 566.00
  A 0.45 0.45 0.0 0 1 546.20 565.35
  Z"
/>
<path fill="#b6e6ea" d="
  M 412.63 483.55
  Q 505.04 483.52 509.00 483.54
  Q 520.89 483.60 527.58 491.37
  C 535.41 500.46 535.23 513.94 527.91 523.38
  A 4.63 4.49 89.1 0 1 527.26 524.07
  C 523.57 527.31 521.46 530.64 524.12 535.07
  C 525.02 536.58 527.21 537.59 528.51 538.74
  C 536.59 545.80 534.82 561.05 524.45 565.24
  C 522.27 566.12 518.41 565.93 516.50 565.93
  Q 452.72 565.94 412.66 565.95
  Q 372.60 565.96 308.81 565.99
  C 306.90 565.99 303.04 566.19 300.86 565.31
  C 290.49 561.12 288.71 545.87 296.79 538.81
  C 298.09 537.66 300.28 536.65 301.18 535.14
  C 303.83 530.71 301.72 527.38 298.03 524.14
  A 4.63 4.49 -89.2 0 1 297.38 523.45
  C 290.05 514.01 289.87 500.53 297.69 491.44
  Q 304.37 483.66 316.26 483.60
  Q 320.22 483.58 412.63 483.55
  Z
  M 515.53 508.47
  A 7.72 7.72 0.0 0 0 507.81 500.75
  L 327.53 500.75
  A 7.72 7.72 0.0 0 0 319.81 508.47
  L 319.81 509.05
  A 7.72 7.72 0.0 0 0 327.53 516.77
  L 507.81 516.77
  A 7.72 7.72 0.0 0 0 515.53 509.05
  L 515.53 508.47
  Z
  M 508.46 541.26
  A 7.74 7.74 0.0 0 0 500.72 533.52
  L 313.38 533.52
  A 7.74 7.74 0.0 0 0 305.64 541.26
  L 305.64 541.82
  A 7.74 7.74 0.0 0 0 313.38 549.56
  L 500.72 549.56
  A 7.74 7.74 0.0 0 0 508.46 541.82
  L 508.46 541.26
  Z"
/>
<rect fill="#2e150f" x="319.81" y="500.75" width="195.72" height="16.02" rx="7.72"/>
<rect fill="#2e150f" x="305.64" y="533.52" width="202.82" height="16.04" rx="7.74"/>
<path fill="#fedb92" d="
  M 595.29 581.88
  A 0.47 0.47 0.0 0 1 595.76 582.35
  Q 595.83 598.01 595.71 612.71
  Q 595.63 623.62 584.52 626.55
  A 0.64 0.54 31.3 0 1 584.33 626.58
  L 220.95 626.62
  A 0.58 0.57 0.0 0 1 220.37 626.05
  L 220.37 582.31
  A 0.43 0.43 0.0 0 1 220.80 581.88
  L 595.29 581.88
  Z
  M 431.5096 604.5817
  A 7.81 7.81 0.0 0 0 423.6860 596.7853
  L 372.4460 596.8747
  A 7.81 7.81 0.0 0 0 364.6497 604.6983
  L 364.6504 605.1183
  A 7.81 7.81 0.0 0 0 372.4740 612.9147
  L 423.7140 612.8253
  A 7.81 7.81 0.0 0 0 431.5103 605.0017
  L 431.5096 604.5817
  Z"
/>
<rect fill="#2e150f" x="-33.43" y="-8.02" transform="translate(398.08,604.85) rotate(-0.1)" width="66.86" height="16.04" rx="7.81"/>
</svg>
