<?xml version="1.0" encoding="UTF-8" standalone="no"?>
<!DOCTYPE svg PUBLIC "-//W3C//DTD SVG 1.1//EN" "http://www.w3.org/Graphics/SVG/1.1/DTD/svg11.dtd">
<svg xmlns="http://www.w3.org/2000/svg" version="1.1" viewBox="0.00 0.00 1024.00 1024.00">
<rect fill="#eceae9" fill-opacity="0.996" x="2.90" y="0.22" width="1.02" height="1023.52" rx="0.30"/>
<path fill="#eceae9" fill-opacity="0.996" d="
  M 6.92 1.33
  A 0.58 0.52 5.8 0 1 6.26 0.60
  Q 6.34 0.41 6.75 0.52
  Q 7.15 0.62 7.09 1.04
  Q 7.04 1.31 6.92 1.33
  Z"
/>
<path fill="#eceae9" fill-opacity="0.996" d="
  M 6.75 2.23
  Q 6.96 2.23 6.96 2.52
  Q 6.96 257.71 6.95 512.91
  Q 6.94 768.10 6.93 1023.30
  Q 6.93 1023.58 6.72 1023.58
  Q 6.50 1023.58 6.50 1023.30
  Q 6.51 768.10 6.52 512.91
  Q 6.52 257.71 6.53 2.52
  Q 6.53 2.23 6.75 2.23
  Z"
/>
<path fill="#e72a2a" d="
  M 655.02 506.66
  Q 720.60 571.65 829.09 681.14
  Q 871.16 723.60 879.19 731.93
  C 883.81 736.72 887.42 740.91 892.84 746.43
  Q 896.52 750.17 899.49 754.16
  Q 911.35 770.09 915.95 788.24
  C 921.52 810.27 918.65 835.19 908.91 855.41
  Q 900.30 873.27 886.48 886.49
  Q 855.94 915.69 813.24 914.94
  Q 811.86 914.92 802.07 913.44
  Q 795.37 912.43 791.02 911.18
  C 774.50 906.45 759.60 897.14 747.80 885.01
  C 745.40 882.54 742.62 880.25 740.42 878.03
  Q 733.55 871.12 687.72 825.75
  Q 589.59 728.62 510.49 648.99
  A 0.72 0.71 42.7 0 0 509.44 649.03
  Q 508.29 650.40 506.98 651.73
  Q 416.67 743.12 415.40 744.40
  Q 319.95 841.33 272.58 888.08
  Q 251.99 908.40 224.01 913.50
  Q 213.51 915.41 204.77 914.94
  Q 198.16 914.58 187.81 912.73
  Q 180.18 911.37 171.47 907.88
  Q 141.73 895.95 123.45 869.28
  Q 108.68 847.74 106.40 821.55
  Q 105.36 809.66 107.13 799.15
  Q 111.34 774.16 126.27 754.75
  Q 131.27 748.25 138.79 740.54
  Q 185.67 692.47 240.22 637.47
  Q 361.00 515.68 368.42 508.41
  Q 368.50 508.33 369.70 507.29
  A 0.72 0.71 46.9 0 0 369.73 506.25
  C 336.54 473.51 312.83 450.50 280.58 418.24
  Q 176.10 313.74 144.92 282.68
  Q 127.91 265.74 123.04 258.70
  Q 110.50 240.58 107.07 217.78
  Q 104.97 203.80 106.47 188.64
  C 110.66 146.45 145.76 107.63 188.00 101.06
  C 199.61 99.26 213.66 99.09 225.27 101.33
  Q 248.13 105.73 266.25 120.00
  Q 269.56 122.61 276.70 129.87
  Q 280.11 133.33 287.01 140.10
  Q 369.89 221.46 452.90 304.29
  Q 489.85 341.16 500.34 351.41
  Q 507.58 358.50 513.76 364.95
  A 0.55 0.55 0.0 0 0 514.55 364.95
  C 516.32 363.08 518.17 360.76 519.70 359.22
  Q 563.39 315.36 598.95 279.19
  C 649.44 227.83 701.22 176.36 748.96 128.22
  Q 773.49 103.48 807.75 100.02
  Q 810.54 99.74 827.41 100.08
  A 5.98 5.85 -38.5 0 1 828.38 100.18
  Q 830.37 100.55 835.47 101.37
  C 842.35 102.48 849.57 104.80 855.91 107.58
  C 885.05 120.35 909.77 146.70 916.49 178.44
  Q 920.01 195.02 917.82 212.96
  Q 914.79 237.88 900.55 257.23
  Q 896.91 262.17 877.70 281.64
  Q 762.42 398.46 655.02 505.52
  A 0.80 0.80 0.0 0 0 655.02 506.66
  Z"
/>
</svg>
