<?xml version="1.0" encoding="UTF-8" standalone="no"?>
<!DOCTYPE svg PUBLIC "-//W3C//DTD SVG 1.1//EN" "http://www.w3.org/Graphics/SVG/1.1/DTD/svg11.dtd">
<svg xmlns="http://www.w3.org/2000/svg" version="1.1" viewBox="0.00 0.00 853.00 1185.00">
<g stroke-width="2.00" fill="none" stroke-linecap="butt">
<path stroke="#a39b8c" vector-effect="non-scaling-stroke" d="
  M 346.52 133.95
  C 354.97 141.44 355.96 153.04 352.23 163.26
  Q 349.46 170.86 346.59 175.37
  Q 335.03 193.50 317.68 209.21
  Q 302.60 222.88 298.20 225.97
  A 0.90 0.89 65.6 0 0 297.85 226.92
  C 303.03 247.70 290.75 263.49 274.11 273.63
  C 259.52 282.53 243.30 288.03 225.81 292.21
  A 0.82 0.82 0.0 0 0 225.19 292.82
  C 219.71 314.66 207.25 335.23 189.34 349.05
  C 173.07 361.61 151.78 365.81 135.32 351.77
  C 125.46 343.36 120.61 329.03 118.95 316.47
  A 0.60 0.59 -7.1 0 0 118.28 315.95
  L 112.49 316.78
  A 1.13 1.13 0.0 0 0 111.58 317.58
  Q 102.23 350.49 100.13 385.06
  Q 97.74 424.61 102.77 464.58
  C 103.03 466.63 103.05 469.88 101.98 471.24
  C 88.73 488.26 80.82 508.72 76.78 529.75
  Q 69.14 569.55 77.99 607.24
  C 86.31 642.62 112.85 670.32 143.10 688.68
  C 170.45 705.28 201.32 716.25 232.65 723.84
  Q 264.86 731.64 299.51 735.98
  C 354.12 742.82 410.67 744.39 466.50 742.99
  Q 521.47 741.61 570.24 734.98
  C 604.59 730.31 638.77 722.87 670.89 711.39
  C 718.56 694.36 769.50 662.32 783.36 610.10
  Q 787.68 593.84 788.49 577.02
  C 790.23 541.10 783.36 502.55 761.51 473.11
  C 759.56 470.49 758.82 468.58 759.21 465.51
  Q 764.20 426.64 762.09 387.53
  Q 760.52 358.20 754.07 331.19
  Q 732.02 238.91 656.03 186.19
  C 617.40 159.39 571.27 143.39 525.27 135.20
  C 489.35 128.81 453.07 126.61 416.49 127.44
  Q 380.03 128.26 346.64 133.53
  A 0.24 0.24 0.0 0 0 346.52 133.95"
/>
<path stroke="#6b8284" vector-effect="non-scaling-stroke" d="
  M 263.36 162.90
  Q 265.80 177.99 262.01 193.59
  A 0.75 0.75 0.0 0 0 262.42 194.44
  L 274.00 199.77"
/>
<path stroke="#878c87" vector-effect="non-scaling-stroke" d="
  M 274.00 199.77
  Q 282.06 204.14 288.78 211.02
  A 0.48 0.47 48.3 0 0 289.41 211.06
  Q 308.56 195.81 323.59 178.13
  Q 332.19 168.00 336.20 157.33
  Q 340.23 146.59 330.04 143.94
  Q 319.39 141.17 306.24 142.01
  Q 282.86 143.50 258.86 149.48
  A 0.31 0.31 0.0 0 0 258.67 149.93
  Q 261.91 155.79 263.36 162.90"
/>
<path stroke="#acd6f3" vector-effect="non-scaling-stroke" d="
  M 274.00 199.77
  Q 292.52 187.96 308.84 173.09
  C 313.03 169.28 318.56 164.22 319.46 159.19
  A 3.14 2.26 -73.3 0 0 318.42 156.17
  Q 316.00 154.80 313.01 154.74
  Q 304.19 154.55 296.04 155.81
  Q 279.50 158.37 263.36 162.90"
/>
<path stroke="#6b8284" vector-effect="non-scaling-stroke" d="
  M 248.68 208.01
  C 245.41 207.20 243.06 203.71 242.92 200.40
  Q 242.85 198.56 244.20 194.23
  C 248.94 179.12 250.97 153.68 231.19 148.56
  C 214.33 144.20 190.43 160.62 177.89 171.11
  Q 175.68 172.95 171.19 172.53
  A 2.62 2.45 56.4 0 1 170.43 172.35
  C 155.62 166.50 127.71 160.18 114.75 173.88
  C 103.53 185.74 105.77 209.45 109.47 223.80
  A 3.18 2.95 42.8 0 1 109.55 224.84
  Q 109.11 229.14 107.40 230.65
  C 93.67 242.82 72.96 265.09 80.18 285.29
  C 83.74 295.24 91.88 299.53 102.02 299.97
  Q 112.09 300.41 121.37 297.93
  C 127.31 296.34 132.10 296.43 134.56 302.34
  A 4.13 4.08 -58.0 0 1 134.85 303.63
  C 135.46 315.74 137.64 331.55 146.95 339.25
  C 153.20 344.41 161.54 344.56 169.08 341.40
  C 179.82 336.88 189.04 327.51 195.53 318.01
  Q 205.66 303.19 209.23 285.93
  Q 210.16 281.45 211.18 280.05
  Q 213.20 277.28 216.28 276.73
  Q 238.54 272.71 257.95 263.22
  C 266.93 258.83 280.94 249.55 281.91 238.62
  C 283.47 221.18 262.55 211.44 248.68 208.01"
/>
<path stroke="#a39b8c" vector-effect="non-scaling-stroke" d="
  M 292.85 752.22
  Q 291.62 751.71 290.55 752.31
  C 262.87 767.88 237.99 791.10 215.75 816.24
  C 195.77 838.83 151.19 894.69 182.57 924.33
  C 200.13 940.92 226.80 935.46 246.34 926.53
  A 0.52 0.51 71.8 0 0 246.63 925.95
  C 236.40 879.09 250.65 828.62 273.43 787.39
  Q 286.62 763.51 292.99 752.62
  A 0.28 0.28 0.0 0 0 292.85 752.22"
/>
<path stroke="#a39b8c" vector-effect="non-scaling-stroke" d="
  M 567.92 752.41
  A 0.28 0.28 0.0 0 0 567.78 752.81
  Q 574.14 763.69 587.33 787.53
  C 610.11 828.70 624.37 879.11 614.17 925.92
  A 0.52 0.51 -71.8 0 0 614.46 926.50
  C 633.99 935.41 660.63 940.85 678.16 924.27
  C 709.49 894.64 664.93 838.87 644.96 816.32
  C 622.73 791.22 597.87 768.04 570.21 752.50
  Q 569.14 751.90 567.92 752.41"
/>
<path stroke="#567c6d" vector-effect="non-scaling-stroke" d="
  M 430.31 1011.00
  C 455.85 1011.02 481.30 1008.96 506.03 1003.10
  C 539.60 995.15 572.72 977.73 589.04 945.75
  C 613.56 897.74 595.70 836.79 570.75 792.54
  Q 562.94 778.69 549.74 755.20
  A 0.99 0.99 0.0 0 0 548.77 754.70
  Q 502.71 759.55 455.00 760.21
  C 443.17 760.38 438.92 760.53 430.52 760.52
  C 422.13 760.52 417.88 760.35 406.05 760.17
  Q 358.34 759.43 312.29 754.50
  A 0.99 0.99 0.0 0 0 311.32 755.00
  Q 298.08 778.46 290.24 792.30
  C 265.22 836.51 247.25 897.43 271.69 945.48
  C 287.96 977.49 321.05 994.96 354.60 1002.97
  C 379.32 1008.87 404.77 1010.98 430.31 1011.00"
/>
<path stroke="#a39b8c" vector-effect="non-scaling-stroke" d="
  M 302.35 1000.72
  A 0.14 0.14 0.0 0 0 302.15 1000.86
  C 305.56 1024.51 310.11 1047.63 320.37 1068.84
  C 329.80 1088.36 345.29 1104.61 368.04 1105.70
  Q 374.33 1106.00 378.79 1104.70
  C 398.83 1098.86 408.34 1072.49 411.88 1053.87
  Q 414.86 1038.17 414.87 1028.32
  A 0.55 0.55 0.0 0 0 414.35 1027.77
  C 374.96 1026.20 336.34 1019.86 302.35 1000.72"
/>
<path stroke="#a39b8c" vector-effect="non-scaling-stroke" d="
  M 558.29 1000.96
  C 524.29 1020.01 485.69 1026.26 446.33 1027.75
  A 0.55 0.55 0.0 0 0 445.81 1028.29
  Q 445.80 1038.14 448.74 1053.83
  C 452.24 1072.44 461.68 1098.81 481.69 1104.68
  Q 486.15 1105.99 492.43 1105.71
  C 515.17 1104.67 530.68 1088.46 540.14 1068.98
  C 550.44 1047.81 555.03 1024.72 558.49 1001.10
  A 0.14 0.14 0.0 0 0 558.29 1000.96"
/>
<path stroke="#a39b8c" vector-effect="non-scaling-stroke" d="
  M 310.85 472.67
  A 23.97 23.97 0.0 0 0 286.88 448.70
  A 23.97 23.97 0.0 0 0 262.91 472.67
  A 23.97 23.97 0.0 0 0 286.88 496.64
  A 23.97 23.97 0.0 0 0 310.85 472.67"
/>
<path stroke="#a39b8c" vector-effect="non-scaling-stroke" d="
  M 597.70 472.67
  A 23.96 23.96 0.0 0 0 573.74 448.71
  A 23.96 23.96 0.0 0 0 549.78 472.67
  A 23.96 23.96 0.0 0 0 573.74 496.63
  A 23.96 23.96 0.0 0 0 597.70 472.67"
/>
<path stroke="#fae7e1" vector-effect="non-scaling-stroke" d="
  M 595.53 506.62
  Q 570.71 533.57 569.29 570.45
  Q 568.13 600.66 579.53 626.42
  C 597.14 666.22 636.87 680.49 677.76 678.04
  C 707.17 676.29 733.56 662.65 750.82 638.78
  C 765.00 619.17 771.92 594.16 770.88 570.02
  Q 769.45 536.59 748.27 510.84
  C 709.40 463.58 637.00 461.58 595.53 506.62"
/>
<path stroke="#fae7e1" vector-effect="non-scaling-stroke" d="
  M 189.52 485.37
  Q 173.86 485.87 158.52 491.02
  C 121.81 503.35 102.59 534.13 97.78 571.24
  C 93.36 605.34 104.86 637.67 132.58 658.50
  C 155.04 675.37 187.00 681.73 214.52 678.03
  C 250.96 673.13 278.65 649.51 291.61 615.57
  C 300.53 592.21 298.96 565.17 289.65 542.10
  Q 272.71 500.13 228.99 488.74
  C 216.22 485.41 203.04 484.95 189.52 485.37"
/>
<path stroke="#a39b8c" vector-effect="non-scaling-stroke" d="
  M 366.22 499.60
  C 361.40 500.33 358.82 502.75 357.94 507.50
  C 349.24 554.50 360.72 633.84 422.73 639.02
  C 448.66 641.19 471.27 632.26 486.22 610.67
  C 498.98 592.24 504.47 567.00 504.97 544.75
  C 505.27 531.51 505.04 518.60 501.56 506.20
  Q 499.97 500.52 494.25 499.73
  Q 444.53 492.86 394.51 496.47
  Q 379.91 497.52 366.22 499.60"
/>
<path stroke="#9b5e4f" vector-effect="non-scaling-stroke" d="
  M 403.92 513.00
  Q 388.86 513.60 374.13 515.68
  A 0.48 0.47 -89.9 0 0 373.73 516.09
  Q 369.47 548.42 378.10 578.10
  C 384.85 601.28 399.90 620.31 425.45 622.22
  C 468.87 625.46 484.78 587.37 487.63 551.63
  Q 489.23 531.55 486.69 516.46
  A 0.82 0.81 -1.8 0 0 485.96 515.78
  L 456.68 513.14"
/>
<path stroke="#a39b8c" vector-effect="non-scaling-stroke" d="
  M 456.68 513.14
  Q 430.33 511.57 403.92 513.00"
/>
<path stroke="#f7c2c3" vector-effect="non-scaling-stroke" d="
  M 456.68 513.14
  Q 456.47 518.16 456.49 523.00
  C 456.53 531.48 450.04 539.18 441.48 539.23
  Q 432.83 539.28 418.29 539.23
  A 4.75 4.65 -37.4 0 1 417.15 539.09
  Q 406.90 536.56 404.44 526.97
  C 403.53 523.41 404.12 517.46 403.92 513.00"
/>
<path stroke="#b3e0e0" vector-effect="non-scaling-stroke" d="
  M 357.59 796.96
  A 6.36 6.36 0.0 0 0 351.23 790.60
  A 6.36 6.36 0.0 0 0 344.87 796.96
  A 6.36 6.36 0.0 0 0 351.23 803.32
  A 6.36 6.36 0.0 0 0 357.59 796.96"
/>
<path stroke="#b3e0e0" vector-effect="non-scaling-stroke" d="
  M 515.76 796.98
  A 6.36 6.36 0.0 0 0 509.40 790.62
  A 6.36 6.36 0.0 0 0 503.04 796.98
  A 6.36 6.36 0.0 0 0 509.40 803.34
  A 6.36 6.36 0.0 0 0 515.76 796.98"
/>
<path stroke="#b3e0e0" vector-effect="non-scaling-stroke" d="
  M 430.35 882.79
  C 466.94 882.79 500.14 858.84 512.00 824.40
  Q 513.24 820.80 512.92 819.07
  C 511.81 813.22 505.20 811.87 501.62 816.34
  A 3.21 3.10 74.1 0 0 501.07 817.37
  Q 490.78 849.12 460.59 863.40
  Q 446.19 870.21 430.35 870.20
  Q 414.51 870.20 400.11 863.39
  Q 369.92 849.11 359.64 817.36
  A 3.21 3.10 -74.1 0 0 359.09 816.33
  C 355.51 811.86 348.90 813.21 347.79 819.06
  Q 347.47 820.79 348.70 824.39
  C 360.56 858.83 393.76 882.79 430.35 882.79"
/>
</g>
<path fill="#463718" d="
  M 430.32 1047.85
  Q 428.17 1061.11 424.70 1072.42
  C 416.93 1097.79 400.27 1122.59 370.77 1122.77
  C 323.15 1123.07 300.19 1076.06 291.34 1036.45
  Q 285.96 1012.40 283.40 987.61
  A 1.57 1.57 0.0 0 0 282.87 986.58
  Q 262.31 968.66 252.15 943.17
  A 0.56 0.56 0.0 0 0 251.41 942.86
  C 223.47 954.61 190.09 958.24 167.69 933.54
  C 138.60 901.44 164.17 854.50 185.23 826.73
  Q 213.98 788.81 250.49 758.96
  C 254.17 755.95 259.97 751.72 264.79 748.36
  A 0.38 0.38 0.0 0 0 264.64 747.67
  Q 225.41 741.05 188.84 728.38
  C 145.11 713.23 102.28 688.60 77.05 648.46
  C 65.02 629.32 59.36 608.10 57.24 585.77
  C 53.39 545.16 60.99 498.65 85.19 465.19
  A 1.96 1.94 -30.8 0 0 85.55 463.79
  Q 83.44 445.85 82.80 428.97
  Q 82.12 411.10 82.67 394.08
  Q 83.97 354.48 94.08 316.78
  A 0.59 0.58 -77.1 0 0 93.63 316.05
  Q 71.14 311.43 63.81 290.20
  C 55.13 265.08 73.70 238.52 91.17 222.35
  A 1.25 1.23 63.2 0 0 91.54 221.19
  C 87.39 200.88 88.48 171.65 106.98 157.96
  C 124.88 144.71 150.87 147.68 170.65 154.38
  A 1.12 1.12 0.0 0 0 171.71 154.20
  C 190.73 139.13 220.76 122.62 244.36 135.46
  A 2.14 2.10 50.9 0 0 245.94 135.64
  Q 270.35 128.67 292.39 126.38
  Q 302.14 125.37 306.90 124.20
  C 341.85 115.60 377.82 111.43 414.11 110.48
  C 520.29 107.70 638.78 130.26 712.33 213.13
  C 754.03 260.11 774.37 318.73 778.72 380.77
  Q 781.05 413.97 778.11 447.89
  Q 777.25 457.77 776.60 464.10
  A 1.59 1.54 -60.6 0 0 776.87 465.13
  Q 790.46 484.34 797.29 507.45
  Q 812.65 559.40 800.48 611.73
  C 789.00 661.06 747.01 696.13 702.86 716.37
  C 668.87 731.95 632.83 741.67 596.22 747.93
  A 0.31 0.31 0.0 0 0 596.09 748.49
  C 624.04 768.27 648.92 793.33 670.13 819.87
  C 683.14 836.16 694.92 854.54 701.71 874.26
  C 708.53 894.08 707.88 916.15 693.90 932.46
  C 672.12 957.88 637.46 955.13 609.67 942.98
  A 0.48 0.48 0.0 0 0 609.03 943.24
  Q 598.77 969.01 577.93 986.97
  A 2.51 2.50 72.5 0 0 577.08 988.61
  Q 574.27 1016.09 567.77 1042.75
  Q 565.85 1050.59 561.90 1061.41
  C 550.88 1091.53 530.20 1119.37 495.74 1122.56
  Q 473.27 1124.64 457.34 1109.68
  Q 448.63 1101.51 442.77 1089.47
  Q 433.24 1069.90 430.56 1047.85
  A 0.12 0.12 0.0 0 0 430.32 1047.85
  Z
  M 346.52 133.95
  C 354.97 141.44 355.96 153.04 352.23 163.26
  Q 349.46 170.86 346.59 175.37
  Q 335.03 193.50 317.68 209.21
  Q 302.60 222.88 298.20 225.97
  A 0.90 0.89 65.6 0 0 297.85 226.92
  C 303.03 247.70 290.75 263.49 274.11 273.63
  C 259.52 282.53 243.30 288.03 225.81 292.21
  A 0.82 0.82 0.0 0 0 225.19 292.82
  C 219.71 314.66 207.25 335.23 189.34 349.05
  C 173.07 361.61 151.78 365.81 135.32 351.77
  C 125.46 343.36 120.61 329.03 118.95 316.47
  A 0.60 0.59 -7.1 0 0 118.28 315.95
  L 112.49 316.78
  A 1.13 1.13 0.0 0 0 111.58 317.58
  Q 102.23 350.49 100.13 385.06
  Q 97.74 424.61 102.77 464.58
  C 103.03 466.63 103.05 469.88 101.98 471.24
  C 88.73 488.26 80.82 508.72 76.78 529.75
  Q 69.14 569.55 77.99 607.24
  C 86.31 642.62 112.85 670.32 143.10 688.68
  C 170.45 705.28 201.32 716.25 232.65 723.84
  Q 264.86 731.64 299.51 735.98
  C 354.12 742.82 410.67 744.39 466.50 742.99
  Q 521.47 741.61 570.24 734.98
  C 604.59 730.31 638.77 722.87 670.89 711.39
  C 718.56 694.36 769.50 662.32 783.36 610.10
  Q 787.68 593.84 788.49 577.02
  C 790.23 541.10 783.36 502.55 761.51 473.11
  C 759.56 470.49 758.82 468.58 759.21 465.51
  Q 764.20 426.64 762.09 387.53
  Q 760.52 358.20 754.07 331.19
  Q 732.02 238.91 656.03 186.19
  C 617.40 159.39 571.27 143.39 525.27 135.20
  C 489.35 128.81 453.07 126.61 416.49 127.44
  Q 380.03 128.26 346.64 133.53
  A 0.24 0.24 0.0 0 0 346.52 133.95
  Z
  M 263.36 162.90
  Q 265.80 177.99 262.01 193.59
  A 0.75 0.75 0.0 0 0 262.42 194.44
  L 274.00 199.77
  Q 282.06 204.14 288.78 211.02
  A 0.48 0.47 48.3 0 0 289.41 211.06
  Q 308.56 195.81 323.59 178.13
  Q 332.19 168.00 336.20 157.33
  Q 340.23 146.59 330.04 143.94
  Q 319.39 141.17 306.24 142.01
  Q 282.86 143.50 258.86 149.48
  A 0.31 0.31 0.0 0 0 258.67 149.93
  Q 261.91 155.79 263.36 162.90
  Z
  M 248.68 208.01
  C 245.41 207.20 243.06 203.71 242.92 200.40
  Q 242.85 198.56 244.20 194.23
  C 248.94 179.12 250.97 153.68 231.19 148.56
  C 214.33 144.20 190.43 160.62 177.89 171.11
  Q 175.68 172.95 171.19 172.53
  A 2.62 2.45 56.4 0 1 170.43 172.35
  C 155.62 166.50 127.71 160.18 114.75 173.88
  C 103.53 185.74 105.77 209.45 109.47 223.80
  A 3.18 2.95 42.8 0 1 109.55 224.84
  Q 109.11 229.14 107.40 230.65
  C 93.67 242.82 72.96 265.09 80.18 285.29
  C 83.74 295.24 91.88 299.53 102.02 299.97
  Q 112.09 300.41 121.37 297.93
  C 127.31 296.34 132.10 296.43 134.56 302.34
  A 4.13 4.08 -58.0 0 1 134.85 303.63
  C 135.46 315.74 137.64 331.55 146.95 339.25
  C 153.20 344.41 161.54 344.56 169.08 341.40
  C 179.82 336.88 189.04 327.51 195.53 318.01
  Q 205.66 303.19 209.23 285.93
  Q 210.16 281.45 211.18 280.05
  Q 213.20 277.28 216.28 276.73
  Q 238.54 272.71 257.95 263.22
  C 266.93 258.83 280.94 249.55 281.91 238.62
  C 283.47 221.18 262.55 211.44 248.68 208.01
  Z
  M 292.85 752.22
  Q 291.62 751.71 290.55 752.31
  C 262.87 767.88 237.99 791.10 215.75 816.24
  C 195.77 838.83 151.19 894.69 182.57 924.33
  C 200.13 940.92 226.80 935.46 246.34 926.53
  A 0.52 0.51 71.8 0 0 246.63 925.95
  C 236.40 879.09 250.65 828.62 273.43 787.39
  Q 286.62 763.51 292.99 752.62
  A 0.28 0.28 0.0 0 0 292.85 752.22
  Z
  M 567.92 752.41
  A 0.28 0.28 0.0 0 0 567.78 752.81
  Q 574.14 763.69 587.33 787.53
  C 610.11 828.70 624.37 879.11 614.17 925.92
  A 0.52 0.51 -71.8 0 0 614.46 926.50
  C 633.99 935.41 660.63 940.85 678.16 924.27
  C 709.49 894.64 664.93 838.87 644.96 816.32
  C 622.73 791.22 597.87 768.04 570.21 752.50
  Q 569.14 751.90 567.92 752.41
  Z
  M 430.31 1011.00
  C 455.85 1011.02 481.30 1008.96 506.03 1003.10
  C 539.60 995.15 572.72 977.73 589.04 945.75
  C 613.56 897.74 595.70 836.79 570.75 792.54
  Q 562.94 778.69 549.74 755.20
  A 0.99 0.99 0.0 0 0 548.77 754.70
  Q 502.71 759.55 455.00 760.21
  C 443.17 760.38 438.92 760.53 430.52 760.52
  C 422.13 760.52 417.88 760.35 406.05 760.17
  Q 358.34 759.43 312.29 754.50
  A 0.99 0.99 0.0 0 0 311.32 755.00
  Q 298.08 778.46 290.24 792.30
  C 265.22 836.51 247.25 897.43 271.69 945.48
  C 287.96 977.49 321.05 994.96 354.60 1002.97
  C 379.32 1008.87 404.77 1010.98 430.31 1011.00
  Z
  M 302.35 1000.72
  A 0.14 0.14 0.0 0 0 302.15 1000.86
  C 305.56 1024.51 310.11 1047.63 320.37 1068.84
  C 329.80 1088.36 345.29 1104.61 368.04 1105.70
  Q 374.33 1106.00 378.79 1104.70
  C 398.83 1098.86 408.34 1072.49 411.88 1053.87
  Q 414.86 1038.17 414.87 1028.32
  A 0.55 0.55 0.0 0 0 414.35 1027.77
  C 374.96 1026.20 336.34 1019.86 302.35 1000.72
  Z
  M 558.29 1000.96
  C 524.29 1020.01 485.69 1026.26 446.33 1027.75
  A 0.55 0.55 0.0 0 0 445.81 1028.29
  Q 445.80 1038.14 448.74 1053.83
  C 452.24 1072.44 461.68 1098.81 481.69 1104.68
  Q 486.15 1105.99 492.43 1105.71
  C 515.17 1104.67 530.68 1088.46 540.14 1068.98
  C 550.44 1047.81 555.03 1024.72 558.49 1001.10
  A 0.14 0.14 0.0 0 0 558.29 1000.96
  Z"
/>
<path fill="#ffffff" d="
  M 346.64 133.53
  Q 380.03 128.26 416.49 127.44
  C 453.07 126.61 489.35 128.81 525.27 135.20
  C 571.27 143.39 617.40 159.39 656.03 186.19
  Q 732.02 238.91 754.07 331.19
  Q 760.52 358.20 762.09 387.53
  Q 764.20 426.64 759.21 465.51
  C 758.82 468.58 759.56 470.49 761.51 473.11
  C 783.36 502.55 790.23 541.10 788.49 577.02
  Q 787.68 593.84 783.36 610.10
  C 769.50 662.32 718.56 694.36 670.89 711.39
  C 638.77 722.87 604.59 730.31 570.24 734.98
  Q 521.47 741.61 466.50 742.99
  C 410.67 744.39 354.12 742.82 299.51 735.98
  Q 264.86 731.64 232.65 723.84
  C 201.32 716.25 170.45 705.28 143.10 688.68
  C 112.85 670.32 86.31 642.62 77.99 607.24
  Q 69.14 569.55 76.78 529.75
  C 80.82 508.72 88.73 488.26 101.98 471.24
  C 103.05 469.88 103.03 466.63 102.77 464.58
  Q 97.74 424.61 100.13 385.06
  Q 102.23 350.49 111.58 317.58
  A 1.13 1.13 0.0 0 1 112.49 316.78
  L 118.28 315.95
  A 0.60 0.59 -7.1 0 1 118.95 316.47
  C 120.61 329.03 125.46 343.36 135.32 351.77
  C 151.78 365.81 173.07 361.61 189.34 349.05
  C 207.25 335.23 219.71 314.66 225.19 292.82
  A 0.82 0.82 0.0 0 1 225.81 292.21
  C 243.30 288.03 259.52 282.53 274.11 273.63
  C 290.75 263.49 303.03 247.70 297.85 226.92
  A 0.90 0.89 65.6 0 1 298.20 225.97
  Q 302.60 222.88 317.68 209.21
  Q 335.03 193.50 346.59 175.37
  Q 349.46 170.86 352.23 163.26
  C 355.96 153.04 354.97 141.44 346.52 133.95
  A 0.24 0.24 0.0 0 1 346.64 133.53
  Z
  M 310.85 472.67
  A 23.97 23.97 0.0 0 0 286.88 448.70
  A 23.97 23.97 0.0 0 0 262.91 472.67
  A 23.97 23.97 0.0 0 0 286.88 496.64
  A 23.97 23.97 0.0 0 0 310.85 472.67
  Z
  M 597.70 472.67
  A 23.96 23.96 0.0 0 0 573.74 448.71
  A 23.96 23.96 0.0 0 0 549.78 472.67
  A 23.96 23.96 0.0 0 0 573.74 496.63
  A 23.96 23.96 0.0 0 0 597.70 472.67
  Z
  M 595.53 506.62
  Q 570.71 533.57 569.29 570.45
  Q 568.13 600.66 579.53 626.42
  C 597.14 666.22 636.87 680.49 677.76 678.04
  C 707.17 676.29 733.56 662.65 750.82 638.78
  C 765.00 619.17 771.92 594.16 770.88 570.02
  Q 769.45 536.59 748.27 510.84
  C 709.40 463.58 637.00 461.58 595.53 506.62
  Z
  M 189.52 485.37
  Q 173.86 485.87 158.52 491.02
  C 121.81 503.35 102.59 534.13 97.78 571.24
  C 93.36 605.34 104.86 637.67 132.58 658.50
  C 155.04 675.37 187.00 681.73 214.52 678.03
  C 250.96 673.13 278.65 649.51 291.61 615.57
  C 300.53 592.21 298.96 565.17 289.65 542.10
  Q 272.71 500.13 228.99 488.74
  C 216.22 485.41 203.04 484.95 189.52 485.37
  Z
  M 366.22 499.60
  C 361.40 500.33 358.82 502.75 357.94 507.50
  C 349.24 554.50 360.72 633.84 422.73 639.02
  C 448.66 641.19 471.27 632.26 486.22 610.67
  C 498.98 592.24 504.47 567.00 504.97 544.75
  C 505.27 531.51 505.04 518.60 501.56 506.20
  Q 499.97 500.52 494.25 499.73
  Q 444.53 492.86 394.51 496.47
  Q 379.91 497.52 366.22 499.60
  Z"
/>
<path fill="#c7e0f5" d="
  M 274.00 199.77
  Q 292.52 187.96 308.84 173.09
  C 313.03 169.28 318.56 164.22 319.46 159.19
  A 3.14 2.26 -73.3 0 0 318.42 156.17
  Q 316.00 154.80 313.01 154.74
  Q 304.19 154.55 296.04 155.81
  Q 279.50 158.37 263.36 162.90
  Q 261.91 155.79 258.67 149.93
  A 0.31 0.31 0.0 0 1 258.86 149.48
  Q 282.86 143.50 306.24 142.01
  Q 319.39 141.17 330.04 143.94
  Q 340.23 146.59 336.20 157.33
  Q 332.19 168.00 323.59 178.13
  Q 308.56 195.81 289.41 211.06
  A 0.48 0.47 48.3 0 1 288.78 211.02
  Q 282.06 204.14 274.00 199.77
  Z"
/>
<path fill="#90ccf0" d="
  M 242.92 200.40
  C 243.06 203.71 245.41 207.20 248.68 208.01
  C 262.55 211.44 283.47 221.18 281.91 238.62
  C 280.94 249.55 266.93 258.83 257.95 263.22
  Q 238.54 272.71 216.28 276.73
  Q 213.20 277.28 211.18 280.05
  Q 210.16 281.45 209.23 285.93
  Q 205.66 303.19 195.53 318.01
  C 189.04 327.51 179.82 336.88 169.08 341.40
  C 161.54 344.56 153.20 344.41 146.95 339.25
  C 137.64 331.55 135.46 315.74 134.85 303.63
  A 4.13 4.08 -58.0 0 0 134.56 302.34
  C 132.10 296.43 127.31 296.34 121.37 297.93
  Q 112.09 300.41 102.02 299.97
  C 91.88 299.53 83.74 295.24 80.18 285.29
  C 72.96 265.09 93.67 242.82 107.40 230.65
  Q 109.11 229.14 109.55 224.84
  A 3.18 2.95 42.8 0 0 109.47 223.80
  C 105.77 209.45 103.53 185.74 114.75 173.88
  C 127.71 160.18 155.62 166.50 170.43 172.35
  A 2.62 2.45 56.4 0 0 171.19 172.53
  Q 175.68 172.95 177.89 171.11
  C 190.43 160.62 214.33 144.20 231.19 148.56
  C 250.97 153.68 248.94 179.12 244.20 194.23
  Q 242.85 198.56 242.92 200.40
  Z"
/>
<path fill="#90ccf0" d="
  M 274.00 199.77
  L 262.42 194.44
  A 0.75 0.75 0.0 0 1 262.01 193.59
  Q 265.80 177.99 263.36 162.90
  Q 279.50 158.37 296.04 155.81
  Q 304.19 154.55 313.01 154.74
  Q 316.00 154.80 318.42 156.17
  A 3.14 2.26 -73.3 0 1 319.46 159.19
  C 318.56 164.22 313.03 169.28 308.84 173.09
  Q 292.52 187.96 274.00 199.77
  Z"
/>
<circle fill="#463718" cx="286.88" cy="472.67" r="23.97"/>
<circle fill="#463718" cx="573.74" cy="472.67" r="23.96"/>
<path fill="#f5cfc3" d="
  M 595.53 506.62
  C 637.00 461.58 709.40 463.58 748.27 510.84
  Q 769.45 536.59 770.88 570.02
  C 771.92 594.16 765.00 619.17 750.82 638.78
  C 733.56 662.65 707.17 676.29 677.76 678.04
  C 636.87 680.49 597.14 666.22 579.53 626.42
  Q 568.13 600.66 569.29 570.45
  Q 570.71 533.57 595.53 506.62
  Z"
/>
<path fill="#f5cfc3" d="
  M 189.52 485.37
  C 203.04 484.95 216.22 485.41 228.99 488.74
  Q 272.71 500.13 289.65 542.10
  C 298.96 565.17 300.53 592.21 291.61 615.57
  C 278.65 649.51 250.96 673.13 214.52 678.03
  C 187.00 681.73 155.04 675.37 132.58 658.50
  C 104.86 637.67 93.36 605.34 97.78 571.24
  C 102.59 534.13 121.81 503.35 158.52 491.02
  Q 173.86 485.87 189.52 485.37
  Z"
/>
<path fill="#463718" d="
  M 357.94 507.50
  C 358.82 502.75 361.40 500.33 366.22 499.60
  Q 379.91 497.52 394.51 496.47
  Q 444.53 492.86 494.25 499.73
  Q 499.97 500.52 501.56 506.20
  C 505.04 518.60 505.27 531.51 504.97 544.75
  C 504.47 567.00 498.98 592.24 486.22 610.67
  C 471.27 632.26 448.66 641.19 422.73 639.02
  C 360.72 633.84 349.24 554.50 357.94 507.50
  Z
  M 403.92 513.00
  Q 388.86 513.60 374.13 515.68
  A 0.48 0.47 -89.9 0 0 373.73 516.09
  Q 369.47 548.42 378.10 578.10
  C 384.85 601.28 399.90 620.31 425.45 622.22
  C 468.87 625.46 484.78 587.37 487.63 551.63
  Q 489.23 531.55 486.69 516.46
  A 0.82 0.81 -1.8 0 0 485.96 515.78
  L 456.68 513.14
  Q 430.33 511.57 403.92 513.00
  Z"
/>
<path fill="#ffffff" d="
  M 456.68 513.14
  Q 456.47 518.16 456.49 523.00
  C 456.53 531.48 450.04 539.18 441.48 539.23
  Q 432.83 539.28 418.29 539.23
  A 4.75 4.65 -37.4 0 1 417.15 539.09
  Q 406.90 536.56 404.44 526.97
  C 403.53 523.41 404.12 517.46 403.92 513.00
  Q 430.33 511.57 456.68 513.14
  Z"
/>
<path fill="#ef8586" d="
  M 403.92 513.00
  C 404.12 517.46 403.53 523.41 404.44 526.97
  Q 406.90 536.56 417.15 539.09
  A 4.75 4.65 -37.4 0 0 418.29 539.23
  Q 432.83 539.28 441.48 539.23
  C 450.04 539.18 456.53 531.48 456.49 523.00
  Q 456.47 518.16 456.68 513.14
  L 485.96 515.78
  A 0.82 0.81 -1.8 0 1 486.69 516.46
  Q 489.23 531.55 487.63 551.63
  C 484.78 587.37 468.87 625.46 425.45 622.22
  C 399.90 620.31 384.85 601.28 378.10 578.10
  Q 369.47 548.42 373.73 516.09
  A 0.48 0.47 -89.9 0 1 374.13 515.68
  Q 388.86 513.60 403.92 513.00
  Z"
/>
<path fill="#ffffff" d="
  M 292.85 752.22
  A 0.28 0.28 0.0 0 1 292.99 752.62
  Q 286.62 763.51 273.43 787.39
  C 250.65 828.62 236.40 879.09 246.63 925.95
  A 0.52 0.51 71.8 0 1 246.34 926.53
  C 226.80 935.46 200.13 940.92 182.57 924.33
  C 151.19 894.69 195.77 838.83 215.75 816.24
  C 237.99 791.10 262.87 767.88 290.55 752.31
  Q 291.62 751.71 292.85 752.22
  Z"
/>
<path fill="#ffffff" d="
  M 567.92 752.41
  Q 569.14 751.90 570.21 752.50
  C 597.87 768.04 622.73 791.22 644.96 816.32
  C 664.93 838.87 709.49 894.64 678.16 924.27
  C 660.63 940.85 633.99 935.41 614.46 926.50
  A 0.52 0.51 -71.8 0 1 614.17 925.92
  C 624.37 879.11 610.11 828.70 587.33 787.53
  Q 574.14 763.69 567.78 752.81
  A 0.28 0.28 0.0 0 1 567.92 752.41
  Z"
/>
<path fill="#66c1c1" d="
  M 430.52 760.52
  C 438.92 760.53 443.17 760.38 455.00 760.21
  Q 502.71 759.55 548.77 754.70
  A 0.99 0.99 0.0 0 1 549.74 755.20
  Q 562.94 778.69 570.75 792.54
  C 595.70 836.79 613.56 897.74 589.04 945.75
  C 572.72 977.73 539.60 995.15 506.03 1003.10
  C 481.30 1008.96 455.85 1011.02 430.31 1011.00
  C 404.77 1010.98 379.32 1008.87 354.60 1002.97
  C 321.05 994.96 287.96 977.49 271.69 945.48
  C 247.25 897.43 265.22 836.51 290.24 792.30
  Q 298.08 778.46 311.32 755.00
  A 0.99 0.99 0.0 0 1 312.29 754.50
  Q 358.34 759.43 406.05 760.17
  C 417.88 760.35 422.13 760.52 430.52 760.52
  Z
  M 357.59 796.96
  A 6.36 6.36 0.0 0 0 351.23 790.60
  A 6.36 6.36 0.0 0 0 344.87 796.96
  A 6.36 6.36 0.0 0 0 351.23 803.32
  A 6.36 6.36 0.0 0 0 357.59 796.96
  Z
  M 515.76 796.98
  A 6.36 6.36 0.0 0 0 509.40 790.62
  A 6.36 6.36 0.0 0 0 503.04 796.98
  A 6.36 6.36 0.0 0 0 509.40 803.34
  A 6.36 6.36 0.0 0 0 515.76 796.98
  Z
  M 430.35 882.79
  C 466.94 882.79 500.14 858.84 512.00 824.40
  Q 513.24 820.80 512.92 819.07
  C 511.81 813.22 505.20 811.87 501.62 816.34
  A 3.21 3.10 74.1 0 0 501.07 817.37
  Q 490.78 849.12 460.59 863.40
  Q 446.19 870.21 430.35 870.20
  Q 414.51 870.20 400.11 863.39
  Q 369.92 849.11 359.64 817.36
  A 3.21 3.10 -74.1 0 0 359.09 816.33
  C 355.51 811.86 348.90 813.21 347.79 819.06
  Q 347.47 820.79 348.70 824.39
  C 360.56 858.83 393.76 882.79 430.35 882.79
  Z"
/>
<circle fill="#ffffff" cx="351.23" cy="796.96" r="6.36"/>
<circle fill="#ffffff" cx="509.40" cy="796.98" r="6.36"/>
<path fill="#ffffff" d="
  M 430.35 870.20
  Q 446.19 870.21 460.59 863.40
  Q 490.78 849.12 501.07 817.37
  A 3.21 3.10 74.1 0 1 501.62 816.34
  C 505.20 811.87 511.81 813.22 512.92 819.07
  Q 513.24 820.80 512.00 824.40
  C 500.14 858.84 466.94 882.79 430.35 882.79
  C 393.76 882.79 360.56 858.83 348.70 824.39
  Q 347.47 820.79 347.79 819.06
  C 348.90 813.21 355.51 811.86 359.09 816.33
  A 3.21 3.10 -74.1 0 1 359.64 817.36
  Q 369.92 849.11 400.11 863.39
  Q 414.51 870.20 430.35 870.20
  Z"
/>
<path fill="#ffffff" d="
  M 302.35 1000.72
  C 336.34 1019.86 374.96 1026.20 414.35 1027.77
  A 0.55 0.55 0.0 0 1 414.87 1028.32
  Q 414.86 1038.17 411.88 1053.87
  C 408.34 1072.49 398.83 1098.86 378.79 1104.70
  Q 374.33 1106.00 368.04 1105.70
  C 345.29 1104.61 329.80 1088.36 320.37 1068.84
  C 310.11 1047.63 305.56 1024.51 302.15 1000.86
  A 0.14 0.14 0.0 0 1 302.35 1000.72
  Z"
/>
<path fill="#ffffff" d="
  M 558.29 1000.96
  A 0.14 0.14 0.0 0 1 558.49 1001.10
  C 555.03 1024.72 550.44 1047.81 540.14 1068.98
  C 530.68 1088.46 515.17 1104.67 492.43 1105.71
  Q 486.15 1105.99 481.69 1104.68
  C 461.68 1098.81 452.24 1072.44 448.74 1053.83
  Q 445.80 1038.14 445.81 1028.29
  A 0.55 0.55 0.0 0 1 446.33 1027.75
  C 485.69 1026.26 524.29 1020.01 558.29 1000.96
  Z"
/>
</svg>
