<?xml version="1.0" encoding="UTF-8" standalone="no"?>
<!DOCTYPE svg PUBLIC "-//W3C//DTD SVG 1.1//EN" "http://www.w3.org/Graphics/SVG/1.1/DTD/svg11.dtd">
<svg xmlns="http://www.w3.org/2000/svg" version="1.1" viewBox="0.00 0.00 1024.00 1024.00">
<g stroke-width="2.00" fill="none" stroke-linecap="butt">
<path stroke="#38280e" vector-effect="non-scaling-stroke" d="
  M 480.52 216.35
  L 484.13 217.13
  A 0.01 0.00 -49.7 0 1 484.13 217.14
  C 469.29 219.47 454.77 220.75 439.82 224.55
  Q 420.01 229.58 415.33 231.04
  C 391.69 238.42 368.45 247.72 347.27 259.93
  Q 335.67 266.62 331.33 269.58
  Q 319.25 277.83 305.73 288.73
  Q 291.29 300.38 283.99 308.23
  Q 271.60 321.58 261.42 334.83
  Q 250.85 348.58 242.39 364.03
  Q 235.12 377.32 229.81 388.25
  Q 225.73 396.65 223.53 402.35
  Q 219.05 413.94 218.07 416.77
  Q 215.64 423.78 208.81 446.71
  Q 205.72 457.11 200.81 483.71
  Q 200.23 486.81 199.87 490.65
  C 199.30 496.72 198.00 501.70 197.73 507.98
  Q 197.68 509.31 196.49 520.08
  Q 195.95 525.09 195.61 532.20
  Q 194.82 549.21 194.82 549.25
  Q 194.40 561.11 195.69 587.51
  C 195.77 589.27 195.50 590.76 195.66 592.18
  Q 196.21 596.98 197.66 613.14
  Q 198.02 617.15 198.54 619.89
  Q 199.02 622.41 199.24 626.66
  Q 199.51 631.90 200.42 636.78
  C 201.27 641.37 201.55 645.54 202.61 650.63
  Q 203.68 655.75 206.31 669.50
  Q 209.92 688.32 216.04 708.96
  Q 219.69 721.23 223.81 733.70
  Q 225.95 740.18 227.20 743.37
  Q 230.31 751.26 230.88 752.93
  C 233.35 760.18 237.09 768.33 240.68 776.58
  Q 250.42 798.92 263.52 818.02
  C 270.56 828.30 279.96 836.84 291.64 841.21
  Q 299.09 843.99 306.12 843.98
  Q 319.26 843.97 330.92 839.20
  C 334.50 837.73 338.39 834.63 342.34 832.03
  C 346.50 829.28 349.26 826.46 352.24 822.97
  Q 354.25 820.61 356.85 818.14
  Q 377.20 798.76 400.90 786.45
  Q 414.98 779.14 420.75 777.08
  Q 430.89 773.45 440.37 770.41
  Q 445.62 768.73 469.39 763.90
  C 474.10 762.94 478.30 762.88 482.94 761.99
  C 488.20 760.97 496.64 760.47 501.52 759.98
  Q 506.41 759.48 509.96 759.24
  Q 536.95 757.36 559.01 754.41
  Q 569.41 753.02 571.73 752.72
  Q 578.73 751.82 588.99 749.43
  Q 600.45 746.75 604.15 745.88
  Q 613.38 743.73 619.24 741.99
  Q 629.52 738.93 638.52 735.71
  Q 648.72 732.06 663.78 725.54
  Q 678.31 719.25 688.23 713.55
  Q 707.53 702.46 722.38 691.40
  Q 731.99 684.25 737.47 679.49
  Q 738.47 678.63 738.56 678.55
  Q 739.73 677.49 746.38 671.71
  Q 750.70 667.95 753.97 664.60
  Q 757.74 660.75 764.32 653.58
  Q 784.31 631.77 798.57 607.83
  Q 798.98 607.13 802.91 600.12
  Q 815.44 577.78 822.71 555.71
  C 824.26 551.02 826.51 543.96 827.93 538.09
  Q 830.91 525.88 830.99 525.50
  Q 832.73 517.41 834.62 500.37
  C 835.01 496.86 834.81 493.58 835.72 490.20
  A 4.46 4.23 -38.7 0 0 835.86 489.19
  Q 835.97 479.42 836.04 471.66
  C 836.10 464.21 835.19 456.14 834.86 449.08
  C 834.60 443.45 833.38 438.23 832.97 433.34
  Q 832.53 427.98 831.18 421.60
  Q 826.53 399.62 818.92 377.81
  C 818.23 375.83 816.92 373.69 816.43 371.30
  A 6.33 5.97 29.3 0 0 816.13 370.34
  Q 808.53 352.23 803.02 341.67
  Q 801.58 338.91 793.13 324.12
  Q 789.90 318.47 786.76 313.82
  Q 783.23 308.61 779.97 303.78
  Q 777.60 300.26 780.15 296.96
  Q 787.69 287.26 791.47 276.37
  C 792.63 273.03 792.91 269.67 793.71 266.65
  A 6.67 6.52 53.8 0 0 793.93 265.12
  Q 794.11 255.94 793.87 253.89
  Q 793.49 250.67 790.58 240.72
  Q 788.87 234.86 782.87 227.45
  Q 765.40 205.88 737.43 206.34
  C 734.08 206.40 731.66 207.08 728.88 207.24
  Q 726.33 207.39 722.51 208.36
  C 701.79 213.68 684.63 222.74 665.01 235.22
  Q 662.12 237.06 658.88 235.93
  Q 626.74 224.76 592.47 219.77
  Q 584.46 218.60 572.93 217.42
  Q 536.37 213.66 489.39 216.79
  Q 487.59 216.91 485.72 216.91
  A 0.36 0.35 30.9 0 1 485.55 216.24
  L 485.96 216.02"
/>
<path stroke="#38280e" vector-effect="non-scaling-stroke" d="
  M 516.97 239.68
  C 511.25 239.60 505.07 240.79 500.37 240.97
  Q 495.80 241.14 488.18 242.02
  Q 483.06 242.61 476.04 243.61
  Q 430.52 250.10 387.90 267.97
  Q 350.29 283.74 319.31 309.52
  C 316.49 311.86 314.50 314.14 311.88 316.30
  Q 309.45 318.31 306.31 321.41
  Q 282.55 344.84 265.24 373.97
  Q 258.12 385.96 256.17 389.90
  Q 240.72 421.09 232.75 450.99
  Q 223.19 486.83 220.43 527.54
  Q 219.18 546.12 219.23 556.24
  Q 219.43 595.48 224.40 629.72
  Q 233.02 689.25 254.54 745.71
  Q 265.40 774.21 278.18 795.47
  C 280.94 800.05 284.43 805.29 288.16 809.35
  C 296.97 818.93 308.86 821.88 320.67 815.87
  Q 326.40 812.96 329.07 810.31
  Q 343.33 796.18 347.88 792.40
  Q 388.30 758.89 437.85 745.62
  Q 462.34 739.06 480.79 737.13
  Q 497.83 735.34 501.50 735.06
  Q 529.68 732.89 533.44 732.55
  C 543.69 731.63 556.85 729.79 569.42 727.78
  Q 585.66 725.18 607.23 719.42
  Q 643.63 709.69 677.99 690.49
  Q 700.78 677.75 722.55 659.56
  C 744.76 641.00 763.24 618.79 778.32 594.00
  Q 792.76 570.27 801.10 543.71
  Q 815.10 499.15 810.61 451.19
  Q 807.93 422.61 799.22 395.97
  Q 786.09 355.81 761.12 321.28
  Q 753.26 310.41 755.30 297.04
  Q 756.07 291.98 759.84 284.46
  Q 762.57 279.02 766.08 272.57
  C 770.40 264.64 770.40 255.47 765.55 247.53
  C 758.40 235.81 745.96 229.80 732.38 231.69
  Q 725.23 232.68 718.77 235.28
  Q 702.24 241.93 685.15 252.62
  Q 676.05 258.31 671.97 259.66
  Q 659.98 263.62 647.13 258.93
  Q 616.10 247.61 581.51 243.17
  C 573.18 242.11 568.35 241.68 559.99 240.99
  Q 556.10 240.66 549.49 240.10
  Q 543.04 239.55 537.00 239.71
  Q 531.16 239.87 516.97 239.68"
/>
<path stroke="#616631" vector-effect="non-scaling-stroke" d="
  M 363.79 778.81
  Q 399.44 753.94 441.48 743.24
  Q 468.24 736.43 495.37 734.16
  Q 502.66 733.55 528.17 731.55
  Q 563.33 728.81 598.34 720.34
  C 667.66 703.57 729.39 664.42 769.41 605.69
  Q 818.07 534.29 808.87 446.83
  C 804.38 404.07 787.85 362.11 763.65 327.13
  Q 756.64 317.00 755.50 313.61
  Q 752.36 304.33 754.29 295.77
  C 756.33 286.71 761.58 278.85 765.38 270.91
  C 770.55 260.11 767.48 249.29 758.83 241.12
  C 744.90 227.94 726.47 232.45 710.57 240.10
  Q 695.90 247.15 680.15 257.02
  Q 669.60 263.62 657.83 262.81
  Q 653.56 262.51 644.43 259.25
  C 608.01 246.23 569.11 241.36 529.64 241.32
  Q 504.53 241.30 482.51 244.03
  C 434.68 249.95 385.99 265.62 345.33 291.85
  C 316.60 310.38 292.12 335.12 273.08 363.55
  C 242.34 409.48 227.07 463.76 222.39 519.12
  Q 217.52 576.87 226.39 634.36
  Q 236.29 698.47 260.54 757.20
  Q 270.20 780.59 282.06 799.44
  C 289.54 811.34 300.39 821.07 315.61 816.49
  C 323.37 814.15 327.76 809.71 334.04 803.38
  C 343.20 794.15 353.89 785.72 363.79 778.81"
/>
<path stroke="#7d823d" vector-effect="non-scaling-stroke" d="
  M 493.86 495.53
  Q 494.38 494.57 495.88 495.51"
/>
<path stroke="#616631" vector-effect="non-scaling-stroke" d="
  M 495.88 495.51
  C 522.68 514.06 546.12 540.92 556.29 572.18
  Q 561.97 589.62 561.19 610.16
  C 560.78 620.80 572.15 627.68 581.50 623.06
  Q 589.52 619.09 589.55 608.87
  Q 589.59 595.61 588.73 589.74
  C 581.66 541.21 550.67 500.64 511.52 472.98
  A 0.54 0.53 -53.6 0 1 511.41 472.21
  Q 522.00 458.77 532.44 446.19
  Q 559.20 413.93 588.22 388.56
  C 607.33 371.85 626.60 358.00 648.44 344.43
  C 654.10 340.91 659.04 335.59 657.64 328.51
  C 655.89 319.70 646.22 315.16 638.20 319.21
  Q 630.35 323.17 617.09 331.84
  C 584.33 353.24 554.84 379.55 527.92 408.71
  A 0.81 0.80 37.4 0 1 526.90 408.84
  C 494.42 388.24 456.50 375.35 417.78 373.18
  Q 403.45 372.38 390.76 374.99
  C 384.63 376.25 379.09 379.70 377.82 386.06
  C 376.42 393.02 380.65 399.42 387.34 401.49
  Q 390.21 402.37 398.27 401.49
  Q 422.86 398.81 449.99 405.27
  Q 481.67 412.82 509.15 430.23
  A 0.49 0.49 0.0 0 1 509.27 430.97
  Q 451.81 500.51 406.75 577.02
  Q 386.37 611.61 367.33 649.10
  C 364.32 655.03 363.29 661.24 368.18 666.53
  C 374.18 673.03 384.93 673.31 390.17 666.08
  C 392.08 663.44 393.44 658.97 394.68 655.57
  Q 395.80 652.52 398.26 647.76
  Q 408.74 627.50 420.40 607.88
  Q 439.23 576.17 458.63 545.88
  Q 472.23 524.63 493.86 495.53"
/>
<path stroke="#38280e" vector-effect="non-scaling-stroke" d="
  M 495.88 495.51
  Q 496.28 494.22 498.14 495.67
  Q 499.43 496.67 499.51 496.72
  Q 520.86 511.91 536.77 532.97
  Q 551.10 551.93 557.93 573.57
  Q 562.81 589.01 562.49 606.65
  Q 562.37 613.12 562.93 614.80
  Q 564.35 619.02 567.81 621.14
  Q 576.03 626.15 583.94 620.01
  C 588.85 616.20 588.04 609.55 588.17 604.17
  Q 588.63 585.24 581.09 563.42
  C 571.91 536.85 555.69 513.10 535.27 493.89
  Q 525.26 484.48 512.16 474.78
  Q 509.36 472.71 511.87 469.65
  Q 518.65 461.39 527.42 450.41
  Q 538.02 437.11 557.20 416.42
  C 561.72 411.54 569.45 403.64 575.58 398.37
  C 580.93 393.77 584.30 390.19 589.35 386.09
  C 593.90 382.41 599.45 377.25 603.69 374.04
  Q 623.76 358.86 633.40 352.67
  Q 641.47 347.49 650.23 341.76
  C 658.06 336.64 659.13 325.20 650.21 320.48
  C 643.57 316.96 637.91 320.38 631.92 323.94
  Q 604.67 340.13 580.39 360.14
  Q 570.70 368.13 551.23 386.37
  Q 544.97 392.23 539.87 397.75
  Q 532.60 405.63 528.63 409.39
  A 2.06 2.06 0.0 0 1 526.13 409.65
  C 496.29 391.34 463.93 379.54 429.31 375.39
  C 424.76 374.85 420.78 374.81 415.01 374.47
  Q 407.87 374.05 395.71 375.47
  Q 389.15 376.24 385.37 378.06
  C 375.67 382.74 377.05 397.03 387.20 400.09
  Q 390.22 401.00 396.33 400.23
  Q 416.09 397.76 438.37 401.66
  Q 469.06 407.04 495.26 420.99
  Q 502.03 424.59 507.11 427.41
  Q 508.90 428.41 509.90 429.39
  A 1.80 1.80 0.0 0 1 510.02 431.84
  Q 499.36 444.50 487.14 460.60
  Q 478.71 471.72 477.10 473.82
  Q 444.89 515.72 413.47 567.94
  Q 399.92 590.46 386.47 614.97
  Q 376.21 633.68 368.31 650.06
  Q 366.03 654.79 365.94 657.27
  C 365.54 668.07 377.01 672.91 385.76 668.56
  C 387.99 667.46 389.23 665.98 390.29 663.79
  C 392.13 660.02 394.04 653.75 396.30 649.34
  Q 404.09 634.08 410.57 622.83
  Q 429.13 590.59 452.29 554.00
  Q 470.79 524.78 492.92 494.91
  A 0.58 0.57 47.2 0 1 493.87 494.95
  Q 493.93 495.05 493.86 495.53"
/>
</g>
<path fill="#1b0c02" d="
  M 480.52 216.35
  L 484.13 217.13
  A 0.01 0.00 -49.7 0 1 484.13 217.14
  C 469.29 219.47 454.77 220.75 439.82 224.55
  Q 420.01 229.58 415.33 231.04
  C 391.69 238.42 368.45 247.72 347.27 259.93
  Q 335.67 266.62 331.33 269.58
  Q 319.25 277.83 305.73 288.73
  Q 291.29 300.38 283.99 308.23
  Q 271.60 321.58 261.42 334.83
  Q 250.85 348.58 242.39 364.03
  Q 235.12 377.32 229.81 388.25
  Q 225.73 396.65 223.53 402.35
  Q 219.05 413.94 218.07 416.77
  Q 215.64 423.78 208.81 446.71
  Q 205.72 457.11 200.81 483.71
  Q 200.23 486.81 199.87 490.65
  C 199.30 496.72 198.00 501.70 197.73 507.98
  Q 197.68 509.31 196.49 520.08
  Q 195.95 525.09 195.61 532.20
  Q 194.82 549.21 194.82 549.25
  Q 194.40 561.11 195.69 587.51
  C 195.77 589.27 195.50 590.76 195.66 592.18
  Q 196.21 596.98 197.66 613.14
  Q 198.02 617.15 198.54 619.89
  Q 199.02 622.41 199.24 626.66
  Q 199.51 631.90 200.42 636.78
  C 201.27 641.37 201.55 645.54 202.61 650.63
  Q 203.68 655.75 206.31 669.50
  Q 209.92 688.32 216.04 708.96
  Q 219.69 721.23 223.81 733.70
  Q 225.95 740.18 227.20 743.37
  Q 230.31 751.26 230.88 752.93
  C 233.35 760.18 237.09 768.33 240.68 776.58
  Q 250.42 798.92 263.52 818.02
  C 270.56 828.30 279.96 836.84 291.64 841.21
  Q 299.09 843.99 306.12 843.98
  Q 319.26 843.97 330.92 839.20
  C 334.50 837.73 338.39 834.63 342.34 832.03
  C 346.50 829.28 349.26 826.46 352.24 822.97
  Q 354.25 820.61 356.85 818.14
  Q 377.20 798.76 400.90 786.45
  Q 414.98 779.14 420.75 777.08
  Q 430.89 773.45 440.37 770.41
  Q 445.62 768.73 469.39 763.90
  C 474.10 762.94 478.30 762.88 482.94 761.99
  C 488.20 760.97 496.64 760.47 501.52 759.98
  Q 506.41 759.48 509.96 759.24
  Q 536.95 757.36 559.01 754.41
  Q 569.41 753.02 571.73 752.72
  Q 578.73 751.82 588.99 749.43
  Q 600.45 746.75 604.15 745.88
  Q 613.38 743.73 619.24 741.99
  Q 629.52 738.93 638.52 735.71
  Q 648.72 732.06 663.78 725.54
  Q 678.31 719.25 688.23 713.55
  Q 707.53 702.46 722.38 691.40
  Q 731.99 684.25 737.47 679.49
  Q 738.47 678.63 738.56 678.55
  Q 739.73 677.49 746.38 671.71
  Q 750.70 667.95 753.97 664.60
  Q 757.74 660.75 764.32 653.58
  Q 784.31 631.77 798.57 607.83
  Q 798.98 607.13 802.91 600.12
  Q 815.44 577.78 822.71 555.71
  C 824.26 551.02 826.51 543.96 827.93 538.09
  Q 830.91 525.88 830.99 525.50
  Q 832.73 517.41 834.62 500.37
  C 835.01 496.86 834.81 493.58 835.72 490.20
  A 4.46 4.23 -38.7 0 0 835.86 489.19
  Q 835.97 479.42 836.04 471.66
  C 836.10 464.21 835.19 456.14 834.86 449.08
  C 834.60 443.45 833.38 438.23 832.97 433.34
  Q 832.53 427.98 831.18 421.60
  Q 826.53 399.62 818.92 377.81
  C 818.23 375.83 816.92 373.69 816.43 371.30
  A 6.33 5.97 29.3 0 0 816.13 370.34
  Q 808.53 352.23 803.02 341.67
  Q 801.58 338.91 793.13 324.12
  Q 789.90 318.47 786.76 313.82
  Q 783.23 308.61 779.97 303.78
  Q 777.60 300.26 780.15 296.96
  Q 787.69 287.26 791.47 276.37
  C 792.63 273.03 792.91 269.67 793.71 266.65
  A 6.67 6.52 53.8 0 0 793.93 265.12
  Q 794.11 255.94 793.87 253.89
  Q 793.49 250.67 790.58 240.72
  Q 788.87 234.86 782.87 227.45
  Q 765.40 205.88 737.43 206.34
  C 734.08 206.40 731.66 207.08 728.88 207.24
  Q 726.33 207.39 722.51 208.36
  C 701.79 213.68 684.63 222.74 665.01 235.22
  Q 662.12 237.06 658.88 235.93
  Q 626.74 224.76 592.47 219.77
  Q 584.46 218.60 572.93 217.42
  Q 536.37 213.66 489.39 216.79
  Q 487.59 216.91 485.72 216.91
  A 0.36 0.35 30.9 0 1 485.55 216.24
  L 485.96 216.02
  C 488.03 215.73 490.53 215.11 492.37 215.11
  C 498.50 215.10 504.55 214.12 510.55 214.06
  Q 529.20 213.87 546.16 214.11
  C 551.12 214.19 556.34 215.00 561.50 215.07
  C 565.87 215.12 569.08 216.03 573.15 215.98
  Q 574.21 215.96 577.79 216.40
  Q 594.28 218.43 600.13 219.40
  Q 631.30 224.58 660.84 235.13
  C 662.74 235.81 664.47 233.87 665.87 232.98
  C 684.04 221.38 703.70 211.23 724.21 206.55
  Q 751.33 200.38 773.12 216.10
  Q 788.18 226.96 793.52 245.20
  Q 798.82 263.29 791.26 281.02
  Q 789.46 285.26 788.55 286.82
  Q 786.03 291.17 780.30 300.01
  A 0.99 0.98 48.0 0 0 780.25 300.98
  Q 781.48 303.49 782.51 304.98
  Q 813.71 350.13 827.67 400.78
  Q 833.12 420.54 835.47 440.78
  Q 836.19 447.00 836.14 448.52
  C 836.07 450.30 836.85 452.94 836.89 455.17
  Q 837.06 464.28 837.21 466.77
  C 837.67 474.75 836.98 482.09 836.97 489.72
  Q 836.96 493.90 836.42 496.50
  C 835.86 499.19 835.97 502.05 835.56 505.53
  Q 830.99 543.80 815.18 578.98
  Q 799.42 614.04 774.19 644.45
  Q 757.27 664.84 738.89 680.15
  Q 711.87 702.66 684.96 716.94
  C 642.49 739.47 595.39 752.20 547.24 757.49
  Q 529.60 759.43 509.45 760.70
  C 500.69 761.26 494.96 761.92 484.76 763.07
  Q 465.49 765.26 445.15 770.65
  Q 397.06 783.39 360.97 816.35
  C 355.96 820.92 351.70 825.97 347.65 829.63
  Q 344.64 832.34 337.94 836.67
  Q 328.42 842.81 317.46 844.75
  C 300.46 847.76 283.90 841.98 271.77 829.96
  C 264.03 822.29 258.24 813.20 252.38 802.88
  Q 242.80 785.97 234.75 766.53
  Q 202.53 688.68 195.46 603.00
  Q 192.50 567.06 194.21 535.58
  Q 194.56 529.02 196.16 509.71
  C 196.31 507.89 196.76 505.42 197.04 503.01
  Q 202.93 450.94 222.04 402.53
  Q 224.85 395.41 232.78 379.25
  Q 255.52 332.90 292.98 298.06
  Q 324.83 268.45 364.82 249.18
  Q 408.27 228.24 456.54 219.85
  Q 466.33 218.15 480.52 216.35
  Z"
/>
<path fill="#54431a" d="
  M 480.52 216.35
  L 485.96 216.02
  L 485.55 216.24
  A 0.36 0.35 30.9 0 0 485.72 216.91
  Q 487.59 216.91 489.39 216.79
  Q 536.37 213.66 572.93 217.42
  Q 584.46 218.60 592.47 219.77
  Q 626.74 224.76 658.88 235.93
  Q 662.12 237.06 665.01 235.22
  C 684.63 222.74 701.79 213.68 722.51 208.36
  Q 726.33 207.39 728.88 207.24
  C 731.66 207.08 734.08 206.40 737.43 206.34
  Q 765.40 205.88 782.87 227.45
  Q 788.87 234.86 790.58 240.72
  Q 793.49 250.67 793.87 253.89
  Q 794.11 255.94 793.93 265.12
  A 6.67 6.52 53.8 0 1 793.71 266.65
  C 792.91 269.67 792.63 273.03 791.47 276.37
  Q 787.69 287.26 780.15 296.96
  Q 777.60 300.26 779.97 303.78
  Q 783.23 308.61 786.76 313.82
  Q 789.90 318.47 793.13 324.12
  Q 801.58 338.91 803.02 341.67
  Q 808.53 352.23 816.13 370.34
  A 6.33 5.97 29.3 0 1 816.43 371.30
  C 816.92 373.69 818.23 375.83 818.92 377.81
  Q 826.53 399.62 831.18 421.60
  Q 832.53 427.98 832.97 433.34
  C 833.38 438.23 834.60 443.45 834.86 449.08
  C 835.19 456.14 836.10 464.21 836.04 471.66
  Q 835.97 479.42 835.86 489.19
  A 4.46 4.23 -38.7 0 1 835.72 490.20
  C 834.81 493.58 835.01 496.86 834.62 500.37
  Q 832.73 517.41 830.99 525.50
  Q 830.91 525.88 827.93 538.09
  C 826.51 543.96 824.26 551.02 822.71 555.71
  Q 815.44 577.78 802.91 600.12
  Q 798.98 607.13 798.57 607.83
  Q 784.31 631.77 764.32 653.58
  Q 757.74 660.75 753.97 664.60
  Q 750.70 667.95 746.38 671.71
  Q 739.73 677.49 738.56 678.55
  Q 738.47 678.63 737.47 679.49
  Q 731.99 684.25 722.38 691.40
  Q 707.53 702.46 688.23 713.55
  Q 678.31 719.25 663.78 725.54
  Q 648.72 732.06 638.52 735.71
  Q 629.52 738.93 619.24 741.99
  Q 613.38 743.73 604.15 745.88
  Q 600.45 746.75 588.99 749.43
  Q 578.73 751.82 571.73 752.72
  Q 569.41 753.02 559.01 754.41
  Q 536.95 757.36 509.96 759.24
  Q 506.41 759.48 501.52 759.98
  C 496.64 760.47 488.20 760.97 482.94 761.99
  C 478.30 762.88 474.10 762.94 469.39 763.90
  Q 445.62 768.73 440.37 770.41
  Q 430.89 773.45 420.75 777.08
  Q 414.98 779.14 400.90 786.45
  Q 377.20 798.76 356.85 818.14
  Q 354.25 820.61 352.24 822.97
  C 349.26 826.46 346.50 829.28 342.34 832.03
  C 338.39 834.63 334.50 837.73 330.92 839.20
  Q 319.26 843.97 306.12 843.98
  Q 299.09 843.99 291.64 841.21
  C 279.96 836.84 270.56 828.30 263.52 818.02
  Q 250.42 798.92 240.68 776.58
  C 237.09 768.33 233.35 760.18 230.88 752.93
  Q 230.31 751.26 227.20 743.37
  Q 225.95 740.18 223.81 733.70
  Q 219.69 721.23 216.04 708.96
  Q 209.92 688.32 206.31 669.50
  Q 203.68 655.75 202.61 650.63
  C 201.55 645.54 201.27 641.37 200.42 636.78
  Q 199.51 631.90 199.24 626.66
  Q 199.02 622.41 198.54 619.89
  Q 198.02 617.15 197.66 613.14
  Q 196.21 596.98 195.66 592.18
  C 195.50 590.76 195.77 589.27 195.69 587.51
  Q 194.40 561.11 194.82 549.25
  Q 194.82 549.21 195.61 532.20
  Q 195.95 525.09 196.49 520.08
  Q 197.68 509.31 197.73 507.98
  C 198.00 501.70 199.30 496.72 199.87 490.65
  Q 200.23 486.81 200.81 483.71
  Q 205.72 457.11 208.81 446.71
  Q 215.64 423.78 218.07 416.77
  Q 219.05 413.94 223.53 402.35
  Q 225.73 396.65 229.81 388.25
  Q 235.12 377.32 242.39 364.03
  Q 250.85 348.58 261.42 334.83
  Q 271.60 321.58 283.99 308.23
  Q 291.29 300.38 305.73 288.73
  Q 319.25 277.83 331.33 269.58
  Q 335.67 266.62 347.27 259.93
  C 368.45 247.72 391.69 238.42 415.33 231.04
  Q 420.01 229.58 439.82 224.55
  C 454.77 220.75 469.29 219.47 484.13 217.14
  A 0.01 0.00 -49.7 0 0 484.13 217.13
  L 480.52 216.35
  Z
  M 516.97 239.68
  C 511.25 239.60 505.07 240.79 500.37 240.97
  Q 495.80 241.14 488.18 242.02
  Q 483.06 242.61 476.04 243.61
  Q 430.52 250.10 387.90 267.97
  Q 350.29 283.74 319.31 309.52
  C 316.49 311.86 314.50 314.14 311.88 316.30
  Q 309.45 318.31 306.31 321.41
  Q 282.55 344.84 265.24 373.97
  Q 258.12 385.96 256.17 389.90
  Q 240.72 421.09 232.75 450.99
  Q 223.19 486.83 220.43 527.54
  Q 219.18 546.12 219.23 556.24
  Q 219.43 595.48 224.40 629.72
  Q 233.02 689.25 254.54 745.71
  Q 265.40 774.21 278.18 795.47
  C 280.94 800.05 284.43 805.29 288.16 809.35
  C 296.97 818.93 308.86 821.88 320.67 815.87
  Q 326.40 812.96 329.07 810.31
  Q 343.33 796.18 347.88 792.40
  Q 388.30 758.89 437.85 745.62
  Q 462.34 739.06 480.79 737.13
  Q 497.83 735.34 501.50 735.06
  Q 529.68 732.89 533.44 732.55
  C 543.69 731.63 556.85 729.79 569.42 727.78
  Q 585.66 725.18 607.23 719.42
  Q 643.63 709.69 677.99 690.49
  Q 700.78 677.75 722.55 659.56
  C 744.76 641.00 763.24 618.79 778.32 594.00
  Q 792.76 570.27 801.10 543.71
  Q 815.10 499.15 810.61 451.19
  Q 807.93 422.61 799.22 395.97
  Q 786.09 355.81 761.12 321.28
  Q 753.26 310.41 755.30 297.04
  Q 756.07 291.98 759.84 284.46
  Q 762.57 279.02 766.08 272.57
  C 770.40 264.64 770.40 255.47 765.55 247.53
  C 758.40 235.81 745.96 229.80 732.38 231.69
  Q 725.23 232.68 718.77 235.28
  Q 702.24 241.93 685.15 252.62
  Q 676.05 258.31 671.97 259.66
  Q 659.98 263.62 647.13 258.93
  Q 616.10 247.61 581.51 243.17
  C 573.18 242.11 568.35 241.68 559.99 240.99
  Q 556.10 240.66 549.49 240.10
  Q 543.04 239.55 537.00 239.71
  Q 531.16 239.87 516.97 239.68
  Z"
/>
<path fill="#1b0c02" d="
  M 516.97 239.68
  Q 531.16 239.87 537.00 239.71
  Q 543.04 239.55 549.49 240.10
  Q 556.10 240.66 559.99 240.99
  C 568.35 241.68 573.18 242.11 581.51 243.17
  Q 616.10 247.61 647.13 258.93
  Q 659.98 263.62 671.97 259.66
  Q 676.05 258.31 685.15 252.62
  Q 702.24 241.93 718.77 235.28
  Q 725.23 232.68 732.38 231.69
  C 745.96 229.80 758.40 235.81 765.55 247.53
  C 770.40 255.47 770.40 264.64 766.08 272.57
  Q 762.57 279.02 759.84 284.46
  Q 756.07 291.98 755.30 297.04
  Q 753.26 310.41 761.12 321.28
  Q 786.09 355.81 799.22 395.97
  Q 807.93 422.61 810.61 451.19
  Q 815.10 499.15 801.10 543.71
  Q 792.76 570.27 778.32 594.00
  C 763.24 618.79 744.76 641.00 722.55 659.56
  Q 700.78 677.75 677.99 690.49
  Q 643.63 709.69 607.23 719.42
  Q 585.66 725.18 569.42 727.78
  C 556.85 729.79 543.69 731.63 533.44 732.55
  Q 529.68 732.89 501.50 735.06
  Q 497.83 735.34 480.79 737.13
  Q 462.34 739.06 437.85 745.62
  Q 388.30 758.89 347.88 792.40
  Q 343.33 796.18 329.07 810.31
  Q 326.40 812.96 320.67 815.87
  C 308.86 821.88 296.97 818.93 288.16 809.35
  C 284.43 805.29 280.94 800.05 278.18 795.47
  Q 265.40 774.21 254.54 745.71
  Q 233.02 689.25 224.40 629.72
  Q 219.43 595.48 219.23 556.24
  Q 219.18 546.12 220.43 527.54
  Q 223.19 486.83 232.75 450.99
  Q 240.72 421.09 256.17 389.90
  Q 258.12 385.96 265.24 373.97
  Q 282.55 344.84 306.31 321.41
  Q 309.45 318.31 311.88 316.30
  C 314.50 314.14 316.49 311.86 319.31 309.52
  Q 350.29 283.74 387.90 267.97
  Q 430.52 250.10 476.04 243.61
  Q 483.06 242.61 488.18 242.02
  Q 495.80 241.14 500.37 240.97
  C 505.07 240.79 511.25 239.60 516.97 239.68
  Z
  M 363.79 778.81
  Q 399.44 753.94 441.48 743.24
  Q 468.24 736.43 495.37 734.16
  Q 502.66 733.55 528.17 731.55
  Q 563.33 728.81 598.34 720.34
  C 667.66 703.57 729.39 664.42 769.41 605.69
  Q 818.07 534.29 808.87 446.83
  C 804.38 404.07 787.85 362.11 763.65 327.13
  Q 756.64 317.00 755.50 313.61
  Q 752.36 304.33 754.29 295.77
  C 756.33 286.71 761.58 278.85 765.38 270.91
  C 770.55 260.11 767.48 249.29 758.83 241.12
  C 744.90 227.94 726.47 232.45 710.57 240.10
  Q 695.90 247.15 680.15 257.02
  Q 669.60 263.62 657.83 262.81
  Q 653.56 262.51 644.43 259.25
  C 608.01 246.23 569.11 241.36 529.64 241.32
  Q 504.53 241.30 482.51 244.03
  C 434.68 249.95 385.99 265.62 345.33 291.85
  C 316.60 310.38 292.12 335.12 273.08 363.55
  C 242.34 409.48 227.07 463.76 222.39 519.12
  Q 217.52 576.87 226.39 634.36
  Q 236.29 698.47 260.54 757.20
  Q 270.20 780.59 282.06 799.44
  C 289.54 811.34 300.39 821.07 315.61 816.49
  C 323.37 814.15 327.76 809.71 334.04 803.38
  C 343.20 794.15 353.89 785.72 363.79 778.81
  Z"
/>
<path fill="#a6c05f" d="
  M 363.79 778.81
  C 353.89 785.72 343.20 794.15 334.04 803.38
  C 327.76 809.71 323.37 814.15 315.61 816.49
  C 300.39 821.07 289.54 811.34 282.06 799.44
  Q 270.20 780.59 260.54 757.20
  Q 236.29 698.47 226.39 634.36
  Q 217.52 576.87 222.39 519.12
  C 227.07 463.76 242.34 409.48 273.08 363.55
  C 292.12 335.12 316.60 310.38 345.33 291.85
  C 385.99 265.62 434.68 249.95 482.51 244.03
  Q 504.53 241.30 529.64 241.32
  C 569.11 241.36 608.01 246.23 644.43 259.25
  Q 653.56 262.51 657.83 262.81
  Q 669.60 263.62 680.15 257.02
  Q 695.90 247.15 710.57 240.10
  C 726.47 232.45 744.90 227.94 758.83 241.12
  C 767.48 249.29 770.55 260.11 765.38 270.91
  C 761.58 278.85 756.33 286.71 754.29 295.77
  Q 752.36 304.33 755.50 313.61
  Q 756.64 317.00 763.65 327.13
  C 787.85 362.11 804.38 404.07 808.87 446.83
  Q 818.07 534.29 769.41 605.69
  C 729.39 664.42 667.66 703.57 598.34 720.34
  Q 563.33 728.81 528.17 731.55
  Q 502.66 733.55 495.37 734.16
  Q 468.24 736.43 441.48 743.24
  Q 399.44 753.94 363.79 778.81
  Z
  M 493.86 495.53
  Q 494.38 494.57 495.88 495.51
  C 522.68 514.06 546.12 540.92 556.29 572.18
  Q 561.97 589.62 561.19 610.16
  C 560.78 620.80 572.15 627.68 581.50 623.06
  Q 589.52 619.09 589.55 608.87
  Q 589.59 595.61 588.73 589.74
  C 581.66 541.21 550.67 500.64 511.52 472.98
  A 0.54 0.53 -53.6 0 1 511.41 472.21
  Q 522.00 458.77 532.44 446.19
  Q 559.20 413.93 588.22 388.56
  C 607.33 371.85 626.60 358.00 648.44 344.43
  C 654.10 340.91 659.04 335.59 657.64 328.51
  C 655.89 319.70 646.22 315.16 638.20 319.21
  Q 630.35 323.17 617.09 331.84
  C 584.33 353.24 554.84 379.55 527.92 408.71
  A 0.81 0.80 37.4 0 1 526.90 408.84
  C 494.42 388.24 456.50 375.35 417.78 373.18
  Q 403.45 372.38 390.76 374.99
  C 384.63 376.25 379.09 379.70 377.82 386.06
  C 376.42 393.02 380.65 399.42 387.34 401.49
  Q 390.21 402.37 398.27 401.49
  Q 422.86 398.81 449.99 405.27
  Q 481.67 412.82 509.15 430.23
  A 0.49 0.49 0.0 0 1 509.27 430.97
  Q 451.81 500.51 406.75 577.02
  Q 386.37 611.61 367.33 649.10
  C 364.32 655.03 363.29 661.24 368.18 666.53
  C 374.18 673.03 384.93 673.31 390.17 666.08
  C 392.08 663.44 393.44 658.97 394.68 655.57
  Q 395.80 652.52 398.26 647.76
  Q 408.74 627.50 420.40 607.88
  Q 439.23 576.17 458.63 545.88
  Q 472.23 524.63 493.86 495.53
  Z"
/>
<path fill="#1b0c02" d="
  M 495.88 495.51
  Q 496.28 494.22 498.14 495.67
  Q 499.43 496.67 499.51 496.72
  Q 520.86 511.91 536.77 532.97
  Q 551.10 551.93 557.93 573.57
  Q 562.81 589.01 562.49 606.65
  Q 562.37 613.12 562.93 614.80
  Q 564.35 619.02 567.81 621.14
  Q 576.03 626.15 583.94 620.01
  C 588.85 616.20 588.04 609.55 588.17 604.17
  Q 588.63 585.24 581.09 563.42
  C 571.91 536.85 555.69 513.10 535.27 493.89
  Q 525.26 484.48 512.16 474.78
  Q 509.36 472.71 511.87 469.65
  Q 518.65 461.39 527.42 450.41
  Q 538.02 437.11 557.20 416.42
  C 561.72 411.54 569.45 403.64 575.58 398.37
  C 580.93 393.77 584.30 390.19 589.35 386.09
  C 593.90 382.41 599.45 377.25 603.69 374.04
  Q 623.76 358.86 633.40 352.67
  Q 641.47 347.49 650.23 341.76
  C 658.06 336.64 659.13 325.20 650.21 320.48
  C 643.57 316.96 637.91 320.38 631.92 323.94
  Q 604.67 340.13 580.39 360.14
  Q 570.70 368.13 551.23 386.37
  Q 544.97 392.23 539.87 397.75
  Q 532.60 405.63 528.63 409.39
  A 2.06 2.06 0.0 0 1 526.13 409.65
  C 496.29 391.34 463.93 379.54 429.31 375.39
  C 424.76 374.85 420.78 374.81 415.01 374.47
  Q 407.87 374.05 395.71 375.47
  Q 389.15 376.24 385.37 378.06
  C 375.67 382.74 377.05 397.03 387.20 400.09
  Q 390.22 401.00 396.33 400.23
  Q 416.09 397.76 438.37 401.66
  Q 469.06 407.04 495.26 420.99
  Q 502.03 424.59 507.11 427.41
  Q 508.90 428.41 509.90 429.39
  A 1.80 1.80 0.0 0 1 510.02 431.84
  Q 499.36 444.50 487.14 460.60
  Q 478.71 471.72 477.10 473.82
  Q 444.89 515.72 413.47 567.94
  Q 399.92 590.46 386.47 614.97
  Q 376.21 633.68 368.31 650.06
  Q 366.03 654.79 365.94 657.27
  C 365.54 668.07 377.01 672.91 385.76 668.56
  C 387.99 667.46 389.23 665.98 390.29 663.79
  C 392.13 660.02 394.04 653.75 396.30 649.34
  Q 404.09 634.08 410.57 622.83
  Q 429.13 590.59 452.29 554.00
  Q 470.79 524.78 492.92 494.91
  A 0.58 0.57 47.2 0 1 493.87 494.95
  Q 493.93 495.05 493.86 495.53
  Q 472.23 524.63 458.63 545.88
  Q 439.23 576.17 420.40 607.88
  Q 408.74 627.50 398.26 647.76
  Q 395.80 652.52 394.68 655.57
  C 393.44 658.97 392.08 663.44 390.17 666.08
  C 384.93 673.31 374.18 673.03 368.18 666.53
  C 363.29 661.24 364.32 655.03 367.33 649.10
  Q 386.37 611.61 406.75 577.02
  Q 451.81 500.51 509.27 430.97
  A 0.49 0.49 0.0 0 0 509.15 430.23
  Q 481.67 412.82 449.99 405.27
  Q 422.86 398.81 398.27 401.49
  Q 390.21 402.37 387.34 401.49
  C 380.65 399.42 376.42 393.02 377.82 386.06
  C 379.09 379.70 384.63 376.25 390.76 374.99
  Q 403.45 372.38 417.78 373.18
  C 456.50 375.35 494.42 388.24 526.90 408.84
  A 0.81 0.80 37.4 0 0 527.92 408.71
  C 554.84 379.55 584.33 353.24 617.09 331.84
  Q 630.35 323.17 638.20 319.21
  C 646.22 315.16 655.89 319.70 657.64 328.51
  C 659.04 335.59 654.10 340.91 648.44 344.43
  C 626.60 358.00 607.33 371.85 588.22 388.56
  Q 559.20 413.93 532.44 446.19
  Q 522.00 458.77 511.41 472.21
  A 0.54 0.53 -53.6 0 0 511.52 472.98
  C 550.67 500.64 581.66 541.21 588.73 589.74
  Q 589.59 595.61 589.55 608.87
  Q 589.52 619.09 581.50 623.06
  C 572.15 627.68 560.78 620.80 561.19 610.16
  Q 561.97 589.62 556.29 572.18
  C 546.12 540.92 522.68 514.06 495.88 495.51
  Z"
/>
<path fill="#54431a" d="
  M 495.88 495.51
  Q 494.38 494.57 493.86 495.53
  Q 493.93 495.05 493.87 494.95
  A 0.58 0.57 47.2 0 0 492.92 494.91
  Q 470.79 524.78 452.29 554.00
  Q 429.13 590.59 410.57 622.83
  Q 404.09 634.08 396.30 649.34
  C 394.04 653.75 392.13 660.02 390.29 663.79
  C 389.23 665.98 387.99 667.46 385.76 668.56
  C 377.01 672.91 365.54 668.07 365.94 657.27
  Q 366.03 654.79 368.31 650.06
  Q 376.21 633.68 386.47 614.97
  Q 399.92 590.46 413.47 567.94
  Q 444.89 515.72 477.10 473.82
  Q 478.71 471.72 487.14 460.60
  Q 499.36 444.50 510.02 431.84
  A 1.80 1.80 0.0 0 0 509.90 429.39
  Q 508.90 428.41 507.11 427.41
  Q 502.03 424.59 495.26 420.99
  Q 469.06 407.04 438.37 401.66
  Q 416.09 397.76 396.33 400.23
  Q 390.22 401.00 387.20 400.09
  C 377.05 397.03 375.67 382.74 385.37 378.06
  Q 389.15 376.24 395.71 375.47
  Q 407.87 374.05 415.01 374.47
  C 420.78 374.81 424.76 374.85 429.31 375.39
  C 463.93 379.54 496.29 391.34 526.13 409.65
  A 2.06 2.06 0.0 0 0 528.63 409.39
  Q 532.60 405.63 539.87 397.75
  Q 544.97 392.23 551.23 386.37
  Q 570.70 368.13 580.39 360.14
  Q 604.67 340.13 631.92 323.94
  C 637.91 320.38 643.57 316.96 650.21 320.48
  C 659.13 325.20 658.06 336.64 650.23 341.76
  Q 641.47 347.49 633.40 352.67
  Q 623.76 358.86 603.69 374.04
  C 599.45 377.25 593.90 382.41 589.35 386.09
  C 584.30 390.19 580.93 393.77 575.58 398.37
  C 569.45 403.64 561.72 411.54 557.20 416.42
  Q 538.02 437.11 527.42 450.41
  Q 518.65 461.39 511.87 469.65
  Q 509.36 472.71 512.16 474.78
  Q 525.26 484.48 535.27 493.89
  C 555.69 513.10 571.91 536.85 581.09 563.42
  Q 588.63 585.24 588.17 604.17
  C 588.04 609.55 588.85 616.20 583.94 620.01
  Q 576.03 626.15 567.81 621.14
  Q 564.35 619.02 562.93 614.80
  Q 562.37 613.12 562.49 606.65
  Q 562.81 589.01 557.93 573.57
  Q 551.10 551.93 536.77 532.97
  Q 520.86 511.91 499.51 496.72
  Q 499.43 496.67 498.14 495.67
  Q 496.28 494.22 495.88 495.51
  Z"
/>
</svg>
