<?xml version="1.0" encoding="UTF-8" standalone="no"?>
<!DOCTYPE svg PUBLIC "-//W3C//DTD SVG 1.1//EN" "http://www.w3.org/Graphics/SVG/1.1/DTD/svg11.dtd">
<svg xmlns="http://www.w3.org/2000/svg" version="1.1" viewBox="0.00 0.00 1024.00 1024.00">
<g stroke-width="2.00" fill="none" stroke-linecap="butt">
<path stroke="#8c8576" vector-effect="non-scaling-stroke" d="
  M 868.20 261.13
  A 0.47 0.46 -55.2 0 0 868.10 260.53
  Q 852.86 248.04 833.51 247.76
  Q 830.66 247.72 823.00 247.72
  Q 211.01 247.72 191.50 247.74
  C 177.64 247.76 166.12 252.30 155.36 260.50
  A 0.51 0.50 45.9 0 0 155.35 261.30
  C 165.46 269.32 178.78 281.07 198.60 298.46
  Q 293.93 382.10 393.79 469.20
  Q 447.53 516.07 467.59 533.79
  C 473.16 538.70 478.23 543.73 483.28 547.01
  C 498.18 556.72 516.93 558.65 533.16 550.85
  Q 540.27 547.42 543.69 544.45
  Q 652.71 449.32 709.89 399.62
  Q 729.16 382.87 866.89 262.65
  Q 867.71 261.93 868.20 261.13"
/>
<path stroke="#8c8576" vector-effect="non-scaling-stroke" d="
  M 366.91 493.69
  A 0.54 0.54 0.0 0 0 366.88 492.90
  L 138.52 294.01
  A 0.54 0.54 0.0 0 0 137.63 294.42
  L 137.63 719.07
  A 0.54 0.54 0.0 0 0 138.55 719.45
  L 366.91 493.69"
/>
<path stroke="#8c8576" vector-effect="non-scaling-stroke" d="
  M 885.37 718.58
  Q 884.96 707.26 884.96 690.50
  Q 884.94 346.22 884.98 294.77
  A 0.37 0.37 0.0 0 0 884.37 294.49
  L 657.39 493.76
  A 0.23 0.23 0.0 0 0 657.38 494.09
  Q 772.82 605.51 885.09 718.70
  A 0.16 0.16 0.0 0 0 885.37 718.58"
/>
<path stroke="#8c8576" vector-effect="non-scaling-stroke" d="
  M 629.34 516.38
  Q 588.74 552.00 577.07 562.47
  Q 558.75 578.90 553.66 582.12
  C 526.27 599.51 487.75 597.63 463.05 576.16
  Q 445.96 561.30 395.13 516.67
  A 0.80 0.79 -48.8 0 0 394.00 516.75
  Q 391.34 519.85 388.47 522.72
  Q 356.76 554.42 237.67 672.00
  C 225.19 684.32 209.14 700.70 197.22 712.22
  Q 171.41 737.14 151.44 757.09
  A 0.87 0.86 -45.7 0 0 151.45 758.33
  C 160.21 766.78 173.38 773.00 185.00 773.00
  Q 810.76 772.98 817.42 773.02
  Q 838.59 773.17 843.47 772.08
  Q 858.23 768.78 870.11 757.59
  Q 871.88 755.92 870.04 754.42
  Q 868.90 753.49 868.72 753.28
  Q 865.11 748.91 763.55 648.94
  C 746.02 631.69 717.68 603.04 696.11 581.91
  Q 662.98 549.46 629.97 516.40
  A 0.46 0.45 46.4 0 0 629.34 516.38"
/>
</g>
<path fill="#191918" d="
  M 877.43 801.67
  Q 867.71 807.12 857.74 809.49
  Q 854.26 810.32 847.47 811.60
  C 844.52 812.15 841.87 811.90 838.50 812.15
  Q 837.84 812.20 186.00 812.17
  Q 181.02 812.17 178.50 811.92
  Q 163.01 810.39 149.52 803.79
  Q 136.34 797.33 125.27 785.91
  Q 106.26 766.29 101.29 739.01
  Q 99.94 731.60 99.96 719.41
  Q 100.05 654.43 99.98 301.44
  Q 99.98 290.24 101.27 283.65
  C 103.44 272.65 107.19 261.87 113.60 252.22
  Q 133.69 221.98 168.08 212.65
  Q 180.29 209.33 196.52 209.33
  Q 445.35 209.33 831.82 209.34
  Q 837.51 209.34 845.83 210.71
  Q 853.10 211.91 859.46 214.04
  C 889.41 224.10 913.96 248.65 920.40 280.08
  Q 922.11 288.43 922.11 297.50
  Q 921.98 521.76 922.55 719.65
  Q 922.59 732.86 921.42 739.79
  Q 919.63 750.42 915.83 759.13
  Q 903.66 786.94 877.43 801.67
  Z
  M 868.20 261.13
  A 0.47 0.46 -55.2 0 0 868.10 260.53
  Q 852.86 248.04 833.51 247.76
  Q 830.66 247.72 823.00 247.72
  Q 211.01 247.72 191.50 247.74
  C 177.64 247.76 166.12 252.30 155.36 260.50
  A 0.51 0.50 45.9 0 0 155.35 261.30
  C 165.46 269.32 178.78 281.07 198.60 298.46
  Q 293.93 382.10 393.79 469.20
  Q 447.53 516.07 467.59 533.79
  C 473.16 538.70 478.23 543.73 483.28 547.01
  C 498.18 556.72 516.93 558.65 533.16 550.85
  Q 540.27 547.42 543.69 544.45
  Q 652.71 449.32 709.89 399.62
  Q 729.16 382.87 866.89 262.65
  Q 867.71 261.93 868.20 261.13
  Z
  M 366.91 493.69
  A 0.54 0.54 0.0 0 0 366.88 492.90
  L 138.52 294.01
  A 0.54 0.54 0.0 0 0 137.63 294.42
  L 137.63 719.07
  A 0.54 0.54 0.0 0 0 138.55 719.45
  L 366.91 493.69
  Z
  M 885.37 718.58
  Q 884.96 707.26 884.96 690.50
  Q 884.94 346.22 884.98 294.77
  A 0.37 0.37 0.0 0 0 884.37 294.49
  L 657.39 493.76
  A 0.23 0.23 0.0 0 0 657.38 494.09
  Q 772.82 605.51 885.09 718.70
  A 0.16 0.16 0.0 0 0 885.37 718.58
  Z
  M 629.34 516.38
  Q 588.74 552.00 577.07 562.47
  Q 558.75 578.90 553.66 582.12
  C 526.27 599.51 487.75 597.63 463.05 576.16
  Q 445.96 561.30 395.13 516.67
  A 0.80 0.79 -48.8 0 0 394.00 516.75
  Q 391.34 519.85 388.47 522.72
  Q 356.76 554.42 237.67 672.00
  C 225.19 684.32 209.14 700.70 197.22 712.22
  Q 171.41 737.14 151.44 757.09
  A 0.87 0.86 -45.7 0 0 151.45 758.33
  C 160.21 766.78 173.38 773.00 185.00 773.00
  Q 810.76 772.98 817.42 773.02
  Q 838.59 773.17 843.47 772.08
  Q 858.23 768.78 870.11 757.59
  Q 871.88 755.92 870.04 754.42
  Q 868.90 753.49 868.72 753.28
  Q 865.11 748.91 763.55 648.94
  C 746.02 631.69 717.68 603.04 696.11 581.91
  Q 662.98 549.46 629.97 516.40
  A 0.46 0.45 46.4 0 0 629.34 516.38
  Z"
/>
<path fill="#fff1d4" d="
  M 868.20 261.13
  Q 867.71 261.93 866.89 262.65
  Q 729.16 382.87 709.89 399.62
  Q 652.71 449.32 543.69 544.45
  Q 540.27 547.42 533.16 550.85
  C 516.93 558.65 498.18 556.72 483.28 547.01
  C 478.23 543.73 473.16 538.70 467.59 533.79
  Q 447.53 516.07 393.79 469.20
  Q 293.93 382.10 198.60 298.46
  C 178.78 281.07 165.46 269.32 155.35 261.30
  A 0.51 0.50 45.9 0 1 155.36 260.50
  C 166.12 252.30 177.64 247.76 191.50 247.74
  Q 211.01 247.72 823.00 247.72
  Q 830.66 247.72 833.51 247.76
  Q 852.86 248.04 868.10 260.53
  A 0.47 0.46 -55.2 0 1 868.20 261.13
  Z"
/>
<path fill="#fff1d4" d="
  M 366.91 493.69
  L 138.55 719.45
  A 0.54 0.54 0.0 0 1 137.63 719.07
  L 137.63 294.42
  A 0.54 0.54 0.0 0 1 138.52 294.01
  L 366.88 492.90
  A 0.54 0.54 0.0 0 1 366.91 493.69
  Z"
/>
<path fill="#fff1d4" d="
  M 885.37 718.58
  A 0.16 0.16 0.0 0 1 885.09 718.70
  Q 772.82 605.51 657.38 494.09
  A 0.23 0.23 0.0 0 1 657.39 493.76
  L 884.37 294.49
  A 0.37 0.37 0.0 0 1 884.98 294.77
  Q 884.94 346.22 884.96 690.50
  Q 884.96 707.26 885.37 718.58
  Z"
/>
<path fill="#fff1d4" d="
  M 629.34 516.38
  A 0.46 0.45 46.4 0 1 629.97 516.40
  Q 662.98 549.46 696.11 581.91
  C 717.68 603.04 746.02 631.69 763.55 648.94
  Q 865.11 748.91 868.72 753.28
  Q 868.90 753.49 870.04 754.42
  Q 871.88 755.92 870.11 757.59
  Q 858.23 768.78 843.47 772.08
  Q 838.59 773.17 817.42 773.02
  Q 810.76 772.98 185.00 773.00
  C 173.38 773.00 160.21 766.78 151.45 758.33
  A 0.87 0.86 -45.7 0 1 151.44 757.09
  Q 171.41 737.14 197.22 712.22
  C 209.14 700.70 225.19 684.32 237.67 672.00
  Q 356.76 554.42 388.47 522.72
  Q 391.34 519.85 394.00 516.75
  A 0.80 0.79 -48.8 0 1 395.13 516.67
  Q 445.96 561.30 463.05 576.16
  C 487.75 597.63 526.27 599.51 553.66 582.12
  Q 558.75 578.90 577.07 562.47
  Q 588.74 552.00 629.34 516.38
  Z"
/>
</svg>
