<?xml version="1.0" encoding="UTF-8" standalone="no"?>
<!DOCTYPE svg PUBLIC "-//W3C//DTD SVG 1.1//EN" "http://www.w3.org/Graphics/SVG/1.1/DTD/svg11.dtd">
<svg xmlns="http://www.w3.org/2000/svg" version="1.1" viewBox="0.00 0.00 1024.00 1024.00">
<g stroke-width="2.00" fill="none" stroke-linecap="butt">
<path stroke="#443519" vector-effect="non-scaling-stroke" d="
  M 759.98 151.83
  Q 759.98 151.76 759.90 151.60
  A 0.29 0.29 0.0 0 0 759.54 151.45
  Q 758.29 151.91 758.05 150.84
  Q 752.70 126.25 734.13 111.21
  Q 721.74 101.17 705.00 99.28
  Q 704.64 99.24 694.00 98.79
  Q 687.53 98.52 683.10 99.76
  Q 679.14 100.87 673.97 102.70
  Q 670.03 104.09 665.55 107.15
  Q 660.43 110.64 657.97 112.96
  C 655.74 115.05 650.95 119.70 648.43 123.36
  Q 642.23 132.37 640.02 140.95
  Q 637.29 151.50 637.37 166.17
  C 637.38 168.22 638.05 170.20 638.02 172.46
  Q 637.99 174.60 638.49 177.17
  Q 641.03 190.29 642.35 198.85
  A 8.51 8.00 43.2 0 1 642.44 200.31
  Q 642.32 203.50 641.33 209.06
  C 640.82 211.92 639.02 212.09 636.44 211.45
  Q 623.38 208.25 614.42 207.62
  Q 602.40 206.78 598.25 205.93
  Q 596.43 205.56 592.32 206.45
  A 5.50 4.90 -48.3 0 1 591.36 206.56
  C 585.34 206.74 578.29 206.72 571.90 207.86
  Q 566.13 208.89 564.13 209.01
  A 2.51 2.35 28.5 0 0 563.21 209.25
  Q 562.24 209.74 555.10 211.37
  Q 546.96 213.23 533.81 218.56
  C 530.30 219.98 527.81 221.79 524.95 222.85
  Q 522.09 223.92 518.38 226.19
  Q 503.86 235.05 497.16 240.42
  Q 474.27 258.73 457.31 284.53
  Q 454.71 288.48 454.33 289.03
  C 449.08 296.44 446.34 304.08 441.66 311.12
  Q 441.03 312.07 437.63 318.38
  Q 430.11 332.34 416.97 351.11
  C 413.90 355.48 410.66 359.07 407.89 362.64
  C 402.97 368.97 394.50 376.36 390.33 380.87
  C 388.65 382.69 386.67 383.76 385.04 385.37
  Q 382.94 387.43 381.04 388.67
  Q 379.03 389.98 371.24 395.62
  Q 367.00 398.70 361.12 402.05
  Q 348.24 409.40 338.23 414.63
  Q 326.26 420.87 318.25 426.68
  Q 307.85 434.22 300.00 441.25
  C 289.51 450.63 278.96 462.51 271.74 475.16
  Q 266.98 483.49 263.93 490.19
  Q 263.84 490.38 258.93 503.11
  C 255.95 510.81 254.56 518.74 253.01 527.27
  Q 252.29 531.25 252.15 533.27
  C 251.77 538.68 250.48 543.40 250.45 548.28
  Q 250.39 561.01 250.79 565.27
  Q 252.27 580.88 255.99 595.31
  Q 260.18 611.59 269.57 628.72
  Q 275.49 639.54 280.53 646.26
  Q 287.70 655.81 293.78 662.86
  A 1.22 1.22 0.0 0 1 293.71 664.53
  C 287.56 670.52 280.62 676.96 272.66 680.36
  Q 263.62 684.22 253.50 684.58
  C 244.41 684.90 236.52 684.11 228.54 685.81
  Q 219.01 687.84 216.77 688.82
  Q 207.18 693.01 202.59 697.09
  Q 195.10 703.75 193.17 705.92
  C 186.58 713.37 181.19 723.18 180.06 733.53
  C 179.63 737.49 178.94 743.09 179.22 747.20
  Q 180.33 763.97 189.22 776.50
  Q 200.90 792.93 220.15 799.37
  Q 231.28 803.09 242.69 803.00
  C 247.13 802.96 251.43 802.08 256.00 802.45
  A 0.90 0.90 0.0 0 1 256.83 803.24
  Q 257.52 809.23 259.39 815.69
  Q 260.01 817.81 260.87 819.65
  C 262.35 822.81 263.58 826.64 265.18 829.37
  Q 271.18 839.67 279.89 847.18
  Q 288.74 854.81 299.90 858.54
  Q 322.33 866.02 345.35 857.25
  Q 349.50 855.66 353.96 852.76
  Q 359.89 848.90 361.93 847.06
  Q 383.74 827.36 384.37 797.41
  Q 384.63 784.52 381.29 770.66
  C 380.85 768.84 381.01 767.50 380.65 765.95
  Q 380.21 764.13 380.06 762.44
  Q 378.69 747.92 386.43 734.22
  Q 387.97 731.48 390.76 732.69
  Q 411.99 741.96 433.52 746.01
  Q 438.98 747.04 443.62 747.10
  C 446.82 747.13 450.11 748.18 453.36 748.13
  Q 471.52 747.87 474.31 747.89
  C 477.69 747.91 480.12 747.12 483.12 747.13
  Q 485.29 747.14 489.70 746.35
  C 492.66 745.82 497.51 745.22 500.75 744.49
  C 520.24 740.15 537.45 732.42 554.38 721.67
  C 558.40 719.13 561.51 716.26 564.87 713.88
  C 570.25 710.06 574.36 706.13 578.97 701.72
  Q 582.65 698.20 594.35 684.15
  Q 601.86 675.12 610.39 659.69
  Q 622.79 637.26 631.69 609.82
  C 635.55 597.94 637.38 591.79 639.95 582.71
  Q 641.44 577.47 642.51 574.44
  Q 644.19 569.72 645.38 566.27
  Q 656.63 533.78 682.02 508.00
  Q 691.16 498.71 701.93 488.94
  Q 704.19 486.89 715.56 475.32
  C 720.02 470.79 724.13 465.74 728.68 460.45
  Q 733.48 454.88 740.57 444.59
  Q 745.23 437.84 751.41 424.72
  Q 753.89 419.47 756.50 411.02
  Q 760.36 398.48 760.53 396.93
  Q 761.26 390.27 761.99 385.97
  C 763.53 376.88 763.08 367.39 762.71 357.77
  Q 762.65 356.41 761.64 350.74
  Q 761.15 347.97 760.68 343.71
  Q 760.17 339.09 758.87 334.39
  Q 756.75 326.68 754.60 320.58
  A 2.90 2.75 21.7 0 0 754.37 320.08
  C 753.23 318.11 752.77 315.86 751.97 313.99
  Q 746.26 300.72 738.50 288.74
  A 2.25 2.25 0.0 0 1 738.97 285.77
  Q 749.63 277.16 762.39 274.07
  C 767.90 272.73 774.77 272.43 780.40 271.10
  Q 799.09 266.69 812.66 254.23
  C 832.50 236.03 838.62 208.33 826.23 184.27
  Q 816.84 166.02 798.75 157.56
  Q 789.07 153.04 780.46 151.86
  Q 772.35 150.75 762.78 152.15
  Q 762.00 152.27 760.05 151.92
  A 0.09 0.08 -86.4 0 1 759.98 151.83"
/>
<path stroke="#443519" vector-effect="non-scaling-stroke" d="
  M 727.03 270.76
  C 728.69 269.67 730.07 268.05 731.50 266.94
  C 739.26 260.94 747.64 256.84 757.58 254.98
  C 764.46 253.69 771.17 252.60 778.20 250.68
  C 793.29 246.57 806.00 235.85 810.53 220.87
  Q 813.79 210.10 810.36 199.69
  Q 807.04 189.56 798.42 182.10
  Q 785.18 170.64 765.40 172.16
  Q 761.85 172.43 754.50 174.38
  Q 749.48 175.71 746.92 175.22
  Q 740.32 173.94 739.06 166.24
  C 737.52 156.81 736.29 148.98 732.38 141.39
  Q 724.89 126.83 710.77 121.51
  C 687.90 112.89 665.19 125.35 659.62 149.38
  Q 657.32 159.31 658.16 169.87
  Q 658.57 175.13 662.11 190.33
  C 664.11 198.96 665.25 208.08 660.99 215.78
  Q 659.56 218.36 659.05 219.48
  A 1.92 1.92 0.0 0 0 660.03 222.02
  Q 668.90 225.90 677.56 231.22
  Q 704.54 247.79 725.18 270.53
  A 1.45 1.43 -37.6 0 0 727.03 270.76"
/>
<path stroke="#885c2b" vector-effect="non-scaling-stroke" d="
  M 346.98 433.99
  Q 344.63 435.47 337.62 439.62
  C 322.91 448.31 308.50 460.03 297.81 473.96"
/>
<path stroke="#443519" vector-effect="non-scaling-stroke" d="
  M 297.81 473.96
  Q 297.76 473.63 297.55 473.53
  Q 297.13 473.32 296.83 473.70
  Q 281.98 492.53 275.98 515.91
  C 273.10 527.11 271.19 538.31 271.13 549.99
  Q 271.07 560.69 271.21 562.99
  Q 273.18 595.03 288.35 621.97
  Q 297.81 638.76 316.82 657.39
  Q 341.95 682.04 372.14 700.59
  Q 390.41 711.81 408.80 718.67
  C 450.09 734.07 496.35 732.37 534.51 710.31
  C 559.35 695.95 579.03 674.72 592.68 650.23
  Q 602.37 632.87 607.47 618.53
  Q 614.23 599.53 616.05 592.80
  Q 622.00 570.82 629.02 552.30
  Q 638.40 527.56 657.17 505.14
  Q 666.22 494.32 678.32 483.06
  C 693.27 469.17 707.31 455.79 719.66 439.39
  Q 728.39 427.80 733.33 416.20
  Q 745.25 388.23 742.79 359.32
  Q 740.58 333.27 728.74 311.47
  Q 723.34 301.54 719.90 296.81
  Q 700.48 270.10 673.08 251.96
  Q 646.78 234.54 616.21 228.61
  Q 606.67 226.76 593.08 226.36
  Q 589.21 226.24 585.92 226.65
  C 580.17 227.37 574.26 227.55 568.09 228.78
  Q 540.69 234.25 518.00 250.44
  Q 500.96 262.59 488.20 277.88
  Q 477.49 290.72 468.53 305.95
  Q 463.95 313.73 462.31 316.44
  C 453.52 330.98 444.37 346.65 435.96 358.95
  Q 428.59 369.71 422.25 377.23
  Q 405.43 397.18 383.36 412.11
  Q 370.30 420.95 352.43 429.95
  Q 349.76 431.29 346.57 433.29
  A 0.58 0.58 0.0 0 0 346.47 434.19
  Q 346.51 434.23 346.98 433.99"
/>
<path stroke="#71491d" vector-effect="non-scaling-stroke" d="
  M 297.81 473.96
  C 284.50 490.42 276.91 510.22 273.74 531.25
  C 268.72 564.55 274.48 599.33 292.85 627.42
  Q 299.84 638.10 307.56 646.47
  Q 331.84 672.82 362.22 693.26
  C 384.35 708.14 408.15 719.40 434.37 724.95
  C 446.05 727.42 458.21 727.95 470.24 727.51
  Q 498.79 726.46 524.80 714.29
  Q 550.66 702.19 571.58 678.98
  Q 575.49 674.65 581.52 666.21
  Q 587.98 657.18 590.47 652.71
  Q 604.42 627.68 612.79 599.96
  C 616.23 588.61 621.57 568.73 627.35 553.83
  Q 638.23 525.73 658.20 502.94
  C 671.20 488.11 687.76 474.02 701.19 460.21
  C 712.78 448.29 724.00 434.30 730.83 419.57
  C 742.15 395.13 744.99 367.33 738.89 341.10
  Q 732.50 313.67 713.70 290.08
  Q 703.89 277.77 694.45 269.32
  Q 683.06 259.13 668.85 250.18
  C 645.77 235.65 618.29 226.81 591.00 227.51
  Q 582.78 227.72 576.52 228.48
  Q 554.58 231.17 535.42 241.05
  Q 510.37 253.98 492.15 274.64
  Q 479.87 288.57 472.42 301.17
  C 459.05 323.81 447.59 343.92 434.25 363.01
  Q 409.86 397.92 372.93 419.66
  Q 357.99 428.46 346.98 433.99"
/>
<path stroke="#443519" vector-effect="non-scaling-stroke" d="
  M 308.26 678.19
  Q 305.33 680.55 302.59 683.33
  Q 296.73 689.29 288.57 695.06
  Q 280.45 700.80 270.72 702.68
  C 255.07 705.70 240.77 702.49 226.26 707.01
  C 205.52 713.48 193.45 738.48 202.55 758.45
  C 208.86 772.30 221.14 780.16 236.40 782.66
  C 239.60 783.18 242.81 782.81 245.93 782.95
  Q 248.61 783.08 253.07 782.24
  Q 261.12 780.74 264.75 780.53
  Q 269.91 780.24 273.16 784.41
  Q 274.60 786.26 275.41 793.64
  C 276.44 803.19 278.55 811.90 283.45 820.30
  C 293.52 837.59 310.97 845.22 331.02 840.88
  C 345.47 837.75 357.43 825.62 361.85 811.67
  C 364.88 802.08 364.58 790.69 363.08 780.37
  C 362.21 774.39 360.11 766.05 359.96 758.76
  Q 359.82 751.62 360.04 749.27
  Q 361.30 735.94 368.50 724.30
  Q 369.98 721.92 368.33 720.96
  Q 347.50 708.96 329.07 694.16
  Q 315.00 682.86 310.14 678.27
  A 1.43 1.42 -42.4 0 0 308.26 678.19"
/>
<path stroke="#93886f" vector-effect="non-scaling-stroke" d="
  M 660.31 220.86
  C 664.93 223.51 673.74 227.41 680.03 231.41
  Q 705.40 247.55 725.78 269.69
  A 0.75 0.75 0.0 0 0 726.85 269.72
  Q 739.82 257.24 757.71 253.80
  Q 761.14 253.14 774.02 250.53
  C 790.66 247.15 804.21 237.20 809.31 220.78
  C 811.63 213.31 811.34 205.66 808.62 198.69
  Q 801.09 179.32 781.09 174.44
  C 771.10 172.00 762.64 173.48 752.91 175.98
  C 745.62 177.86 739.25 174.59 737.99 166.79
  C 735.97 154.37 734.22 145.48 728.05 136.35
  C 719.82 124.16 705.63 118.61 691.29 120.42
  C 667.08 123.48 658.01 146.00 659.15 168.30
  C 659.97 184.34 670.23 201.71 661.58 217.08
  Q 660.72 218.60 660.02 219.76
  A 0.79 0.79 0.0 0 0 660.31 220.86"
/>
<path stroke="#d7af80" vector-effect="non-scaling-stroke" d="
  M 488.25 330.62
  C 492.59 332.04 496.92 329.22 499.80 326.28
  Q 503.75 322.24 515.15 310.16
  C 526.47 298.17 541.04 286.59 556.14 274.40
  Q 560.33 271.03 563.38 266.92
  C 568.04 260.65 566.32 252.54 558.20 250.72
  Q 554.62 249.92 550.24 251.49
  C 540.72 254.92 531.62 260.10 523.62 266.62
  Q 503.73 282.84 490.42 304.09
  C 488.10 307.80 485.71 313.04 484.58 317.77
  C 483.56 322.05 483.44 329.05 488.25 330.62"
/>
<path stroke="#d7af80" vector-effect="non-scaling-stroke" d="
  M 295.31 539.95
  C 302.92 545.93 309.44 531.16 312.38 525.78
  C 323.47 505.51 340.84 489.33 358.86 474.62
  C 364.91 469.68 369.89 464.71 369.97 456.64
  A 4.20 3.92 39.2 0 0 369.82 455.55
  C 366.74 444.58 355.27 449.56 348.63 453.07
  Q 316.47 470.07 299.63 502.58
  Q 293.27 514.85 292.32 527.75
  C 292.06 531.31 292.29 537.58 295.31 539.95"
/>
<path stroke="#f8dfb9" vector-effect="non-scaling-stroke" d="
  M 486.66 327.92
  C 493.26 334.51 502.91 320.86 506.60 317.11
  Q 521.69 301.77 526.72 296.92
  A 5.97 5.40 2.9 0 1 527.48 296.30
  C 530.37 294.36 532.31 291.87 534.82 289.98
  Q 536.50 288.72 552.00 276.14
  C 555.62 273.20 559.11 269.84 561.61 267.11
  Q 564.21 264.27 564.35 259.82
  C 564.58 252.54 557.23 250.77 551.62 252.37
  Q 546.27 253.90 539.96 257.22
  Q 530.35 262.27 521.84 269.57
  Q 505.31 283.74 492.82 302.30
  C 489.33 307.49 484.49 317.60 485.45 324.18
  Q 485.88 327.13 486.66 327.92"
/>
<path stroke="#f8dfb9" vector-effect="non-scaling-stroke" d="
  M 298.78 539.97
  C 302.71 539.69 305.58 535.60 307.21 532.35
  Q 314.29 518.22 322.55 508.28
  Q 331.50 497.52 335.43 493.91
  Q 341.43 488.39 346.05 483.68
  A 8.37 8.23 -84.8 0 1 347.22 482.69
  C 350.26 480.56 352.07 478.31 354.92 476.10
  C 361.26 471.18 370.05 464.29 368.10 455.62
  C 366.09 446.69 356.65 450.39 351.13 453.14
  C 341.35 458.01 332.43 463.92 324.64 471.65
  Q 318.59 477.64 317.88 478.39
  Q 305.46 491.41 298.47 507.93
  Q 293.34 520.04 293.92 533.31
  Q 294.13 538.28 297.74 539.80
  A 2.26 2.25 54.2 0 0 298.78 539.97"
/>
<path stroke="#93886f" vector-effect="non-scaling-stroke" d="
  M 367.62 721.96
  Q 348.48 710.62 332.17 698.06
  Q 319.64 688.40 309.75 679.25
  A 1.23 1.23 0.0 0 0 308.00 679.32
  Q 300.34 687.73 291.12 694.58
  C 281.74 701.54 272.33 704.58 260.80 705.14
  Q 258.61 705.25 242.76 705.77
  C 230.23 706.18 219.79 708.61 210.97 718.01
  Q 200.24 729.44 200.78 745.75
  C 201.29 760.88 212.07 773.43 225.88 778.73
  Q 238.62 783.62 253.72 780.93
  C 261.45 779.55 269.12 776.98 273.95 783.72
  Q 275.61 786.02 276.22 791.04
  C 277.86 804.47 280.35 815.99 289.15 826.44
  C 302.24 842.00 324.92 845.56 342.51 834.91
  C 355.27 827.19 362.35 813.31 362.85 798.47
  Q 363.22 787.27 360.83 774.69
  C 359.31 766.69 358.34 760.85 358.34 754.50
  C 358.34 743.09 362.16 733.24 367.86 722.86
  A 0.67 0.66 -60.1 0 0 367.62 721.96"
/>
</g>
<path fill="#2d220b" d="
  M 739.62 287.62
  Q 746.03 298.40 747.44 301.05
  Q 757.16 319.35 761.36 339.38
  Q 769.46 377.98 757.08 414.35
  C 751.94 429.45 743.23 444.80 733.19 457.16
  C 727.61 464.03 723.83 468.52 717.78 474.81
  Q 711.02 481.83 685.63 506.37
  Q 675.27 516.39 665.32 530.34
  C 655.12 544.63 648.30 560.15 643.39 576.39
  Q 641.80 581.66 637.68 595.73
  Q 630.82 619.20 621.25 641.23
  Q 607.87 672.07 586.37 695.87
  C 564.65 719.92 536.37 737.33 504.83 744.98
  Q 493.92 747.63 481.73 748.79
  C 477.65 749.18 470.06 749.97 465.74 749.91
  Q 449.35 749.70 435.04 747.47
  Q 411.50 743.81 388.95 733.42
  A 0.55 0.54 -62.4 0 0 388.26 733.64
  Q 382.46 743.35 381.34 754.29
  Q 380.96 758.04 381.51 761.66
  C 382.12 765.66 382.16 767.09 382.98 771.43
  Q 385.54 785.02 385.90 794.50
  Q 386.18 801.88 384.30 811.06
  Q 380.23 830.93 365.96 844.98
  Q 348.90 861.79 324.36 863.39
  C 320.62 863.63 316.97 863.17 313.06 863.04
  Q 311.29 862.98 308.59 862.44
  Q 290.54 858.83 276.87 846.05
  Q 258.81 829.18 255.69 804.18
  A 1.10 1.10 0.0 0 0 254.17 803.30
  Q 252.97 803.79 251.07 803.86
  Q 246.02 804.04 239.10 804.08
  Q 233.19 804.12 227.26 802.80
  Q 203.84 797.59 189.17 778.44
  Q 181.44 768.37 179.14 756.29
  Q 173.93 728.98 189.58 708.36
  Q 203.63 689.85 228.15 684.52
  Q 230.53 684.00 234.32 683.82
  C 236.89 683.70 239.49 683.26 242.55 683.24
  C 252.85 683.16 259.17 683.89 266.63 681.54
  C 276.92 678.29 285.01 671.25 292.45 663.98
  A 0.56 0.56 0.0 0 0 292.48 663.21
  Q 273.25 641.46 263.19 619.36
  Q 250.01 590.37 249.22 555.58
  Q 249.13 551.96 249.58 545.43
  Q 250.07 538.33 250.39 535.29
  Q 251.70 522.98 255.97 508.24
  Q 261.58 488.86 271.97 472.12
  Q 281.44 456.86 297.38 441.87
  Q 311.34 428.75 329.73 417.73
  Q 332.41 416.12 355.60 403.59
  Q 363.50 399.32 375.59 390.92
  C 407.75 368.57 427.70 334.22 445.84 300.83
  C 461.87 271.34 485.40 244.31 513.94 227.28
  Q 533.05 215.88 554.39 210.07
  Q 571.35 205.45 588.80 204.99
  Q 606.73 204.52 623.53 207.44
  Q 630.96 208.73 637.77 211.01
  A 1.55 1.54 -68.0 0 0 639.65 210.20
  C 641.72 205.85 641.66 198.95 640.57 194.43
  Q 637.21 180.51 636.15 169.01
  Q 634.97 156.08 638.50 142.44
  Q 644.06 120.94 662.70 107.83
  C 676.02 98.46 692.56 95.50 708.57 98.31
  C 734.60 102.89 754.32 124.91 759.30 150.46
  A 0.69 0.68 83.9 0 0 759.98 151.02
  C 761.66 150.99 763.30 150.36 764.64 150.26
  Q 777.75 149.27 785.93 151.41
  Q 804.15 156.17 816.89 168.85
  Q 826.38 178.29 830.96 191.77
  C 836.44 207.89 834.47 224.03 826.62 238.89
  C 821.43 248.71 812.47 257.09 803.00 263.50
  Q 802.21 264.03 795.92 267.12
  C 788.33 270.85 779.90 273.03 771.32 274.28
  Q 761.64 275.70 758.25 276.76
  Q 748.68 279.76 739.76 286.83
  A 0.61 0.60 55.3 0 0 739.62 287.62
  Z
  M 759.98 151.83
  Q 759.98 151.76 759.90 151.60
  A 0.29 0.29 0.0 0 0 759.54 151.45
  Q 758.29 151.91 758.05 150.84
  Q 752.70 126.25 734.13 111.21
  Q 721.74 101.17 705.00 99.28
  Q 704.64 99.24 694.00 98.79
  Q 687.53 98.52 683.10 99.76
  Q 679.14 100.87 673.97 102.70
  Q 670.03 104.09 665.55 107.15
  Q 660.43 110.64 657.97 112.96
  C 655.74 115.05 650.95 119.70 648.43 123.36
  Q 642.23 132.37 640.02 140.95
  Q 637.29 151.50 637.37 166.17
  C 637.38 168.22 638.05 170.20 638.02 172.46
  Q 637.99 174.60 638.49 177.17
  Q 641.03 190.29 642.35 198.85
  A 8.51 8.00 43.2 0 1 642.44 200.31
  Q 642.32 203.50 641.33 209.06
  C 640.82 211.92 639.02 212.09 636.44 211.45
  Q 623.38 208.25 614.42 207.62
  Q 602.40 206.78 598.25 205.93
  Q 596.43 205.56 592.32 206.45
  A 5.50 4.90 -48.3 0 1 591.36 206.56
  C 585.34 206.74 578.29 206.72 571.90 207.86
  Q 566.13 208.89 564.13 209.01
  A 2.51 2.35 28.5 0 0 563.21 209.25
  Q 562.24 209.74 555.10 211.37
  Q 546.96 213.23 533.81 218.56
  C 530.30 219.98 527.81 221.79 524.95 222.85
  Q 522.09 223.92 518.38 226.19
  Q 503.86 235.05 497.16 240.42
  Q 474.27 258.73 457.31 284.53
  Q 454.71 288.48 454.33 289.03
  C 449.08 296.44 446.34 304.08 441.66 311.12
  Q 441.03 312.07 437.63 318.38
  Q 430.11 332.34 416.97 351.11
  C 413.90 355.48 410.66 359.07 407.89 362.64
  C 402.97 368.97 394.50 376.36 390.33 380.87
  C 388.65 382.69 386.67 383.76 385.04 385.37
  Q 382.94 387.43 381.04 388.67
  Q 379.03 389.98 371.24 395.62
  Q 367.00 398.70 361.12 402.05
  Q 348.24 409.40 338.23 414.63
  Q 326.26 420.87 318.25 426.68
  Q 307.85 434.22 300.00 441.25
  C 289.51 450.63 278.96 462.51 271.74 475.16
  Q 266.98 483.49 263.93 490.19
  Q 263.84 490.38 258.93 503.11
  C 255.95 510.81 254.56 518.74 253.01 527.27
  Q 252.29 531.25 252.15 533.27
  C 251.77 538.68 250.48 543.40 250.45 548.28
  Q 250.39 561.01 250.79 565.27
  Q 252.27 580.88 255.99 595.31
  Q 260.18 611.59 269.57 628.72
  Q 275.49 639.54 280.53 646.26
  Q 287.70 655.81 293.78 662.86
  A 1.22 1.22 0.0 0 1 293.71 664.53
  C 287.56 670.52 280.62 676.96 272.66 680.36
  Q 263.62 684.22 253.50 684.58
  C 244.41 684.90 236.52 684.11 228.54 685.81
  Q 219.01 687.84 216.77 688.82
  Q 207.18 693.01 202.59 697.09
  Q 195.10 703.75 193.17 705.92
  C 186.58 713.37 181.19 723.18 180.06 733.53
  C 179.63 737.49 178.94 743.09 179.22 747.20
  Q 180.33 763.97 189.22 776.50
  Q 200.90 792.93 220.15 799.37
  Q 231.28 803.09 242.69 803.00
  C 247.13 802.96 251.43 802.08 256.00 802.45
  A 0.90 0.90 0.0 0 1 256.83 803.24
  Q 257.52 809.23 259.39 815.69
  Q 260.01 817.81 260.87 819.65
  C 262.35 822.81 263.58 826.64 265.18 829.37
  Q 271.18 839.67 279.89 847.18
  Q 288.74 854.81 299.90 858.54
  Q 322.33 866.02 345.35 857.25
  Q 349.50 855.66 353.96 852.76
  Q 359.89 848.90 361.93 847.06
  Q 383.74 827.36 384.37 797.41
  Q 384.63 784.52 381.29 770.66
  C 380.85 768.84 381.01 767.50 380.65 765.95
  Q 380.21 764.13 380.06 762.44
  Q 378.69 747.92 386.43 734.22
  Q 387.97 731.48 390.76 732.69
  Q 411.99 741.96 433.52 746.01
  Q 438.98 747.04 443.62 747.10
  C 446.82 747.13 450.11 748.18 453.36 748.13
  Q 471.52 747.87 474.31 747.89
  C 477.69 747.91 480.12 747.12 483.12 747.13
  Q 485.29 747.14 489.70 746.35
  C 492.66 745.82 497.51 745.22 500.75 744.49
  C 520.24 740.15 537.45 732.42 554.38 721.67
  C 558.40 719.13 561.51 716.26 564.87 713.88
  C 570.25 710.06 574.36 706.13 578.97 701.72
  Q 582.65 698.20 594.35 684.15
  Q 601.86 675.12 610.39 659.69
  Q 622.79 637.26 631.69 609.82
  C 635.55 597.94 637.38 591.79 639.95 582.71
  Q 641.44 577.47 642.51 574.44
  Q 644.19 569.72 645.38 566.27
  Q 656.63 533.78 682.02 508.00
  Q 691.16 498.71 701.93 488.94
  Q 704.19 486.89 715.56 475.32
  C 720.02 470.79 724.13 465.74 728.68 460.45
  Q 733.48 454.88 740.57 444.59
  Q 745.23 437.84 751.41 424.72
  Q 753.89 419.47 756.50 411.02
  Q 760.36 398.48 760.53 396.93
  Q 761.26 390.27 761.99 385.97
  C 763.53 376.88 763.08 367.39 762.71 357.77
  Q 762.65 356.41 761.64 350.74
  Q 761.15 347.97 760.68 343.71
  Q 760.17 339.09 758.87 334.39
  Q 756.75 326.68 754.60 320.58
  A 2.90 2.75 21.7 0 0 754.37 320.08
  C 753.23 318.11 752.77 315.86 751.97 313.99
  Q 746.26 300.72 738.50 288.74
  A 2.25 2.25 0.0 0 1 738.97 285.77
  Q 749.63 277.16 762.39 274.07
  C 767.90 272.73 774.77 272.43 780.40 271.10
  Q 799.09 266.69 812.66 254.23
  C 832.50 236.03 838.62 208.33 826.23 184.27
  Q 816.84 166.02 798.75 157.56
  Q 789.07 153.04 780.46 151.86
  Q 772.35 150.75 762.78 152.15
  Q 762.00 152.27 760.05 151.92
  A 0.09 0.08 -86.4 0 1 759.98 151.83
  Z"
/>
<path fill="#5a4827" d="
  M 760.05 151.92
  Q 762.00 152.27 762.78 152.15
  Q 772.35 150.75 780.46 151.86
  Q 789.07 153.04 798.75 157.56
  Q 816.84 166.02 826.23 184.27
  C 838.62 208.33 832.50 236.03 812.66 254.23
  Q 799.09 266.69 780.40 271.10
  C 774.77 272.43 767.90 272.73 762.39 274.07
  Q 749.63 277.16 738.97 285.77
  A 2.25 2.25 0.0 0 0 738.50 288.74
  Q 746.26 300.72 751.97 313.99
  C 752.77 315.86 753.23 318.11 754.37 320.08
  A 2.90 2.75 21.7 0 1 754.60 320.58
  Q 756.75 326.68 758.87 334.39
  Q 760.17 339.09 760.68 343.71
  Q 761.15 347.97 761.64 350.74
  Q 762.65 356.41 762.71 357.77
  C 763.08 367.39 763.53 376.88 761.99 385.97
  Q 761.26 390.27 760.53 396.93
  Q 760.36 398.48 756.50 411.02
  Q 753.89 419.47 751.41 424.72
  Q 745.23 437.84 740.57 444.59
  Q 733.48 454.88 728.68 460.45
  C 724.13 465.74 720.02 470.79 715.56 475.32
  Q 704.19 486.89 701.93 488.94
  Q 691.16 498.71 682.02 508.00
  Q 656.63 533.78 645.38 566.27
  Q 644.19 569.72 642.51 574.44
  Q 641.44 577.47 639.95 582.71
  C 637.38 591.79 635.55 597.94 631.69 609.82
  Q 622.79 637.26 610.39 659.69
  Q 601.86 675.12 594.35 684.15
  Q 582.65 698.20 578.97 701.72
  C 574.36 706.13 570.25 710.06 564.87 713.88
  C 561.51 716.26 558.40 719.13 554.38 721.67
  C 537.45 732.42 520.24 740.15 500.75 744.49
  C 497.51 745.22 492.66 745.82 489.70 746.35
  Q 485.29 747.14 483.12 747.13
  C 480.12 747.12 477.69 747.91 474.31 747.89
  Q 471.52 747.87 453.36 748.13
  C 450.11 748.18 446.82 747.13 443.62 747.10
  Q 438.98 747.04 433.52 746.01
  Q 411.99 741.96 390.76 732.69
  Q 387.97 731.48 386.43 734.22
  Q 378.69 747.92 380.06 762.44
  Q 380.21 764.13 380.65 765.95
  C 381.01 767.50 380.85 768.84 381.29 770.66
  Q 384.63 784.52 384.37 797.41
  Q 383.74 827.36 361.93 847.06
  Q 359.89 848.90 353.96 852.76
  Q 349.50 855.66 345.35 857.25
  Q 322.33 866.02 299.90 858.54
  Q 288.74 854.81 279.89 847.18
  Q 271.18 839.67 265.18 829.37
  C 263.58 826.64 262.35 822.81 260.87 819.65
  Q 260.01 817.81 259.39 815.69
  Q 257.52 809.23 256.83 803.24
  A 0.90 0.90 0.0 0 0 256.00 802.45
  C 251.43 802.08 247.13 802.96 242.69 803.00
  Q 231.28 803.09 220.15 799.37
  Q 200.90 792.93 189.22 776.50
  Q 180.33 763.97 179.22 747.20
  C 178.94 743.09 179.63 737.49 180.06 733.53
  C 181.19 723.18 186.58 713.37 193.17 705.92
  Q 195.10 703.75 202.59 697.09
  Q 207.18 693.01 216.77 688.82
  Q 219.01 687.84 228.54 685.81
  C 236.52 684.11 244.41 684.90 253.50 684.58
  Q 263.62 684.22 272.66 680.36
  C 280.62 676.96 287.56 670.52 293.71 664.53
  A 1.22 1.22 0.0 0 0 293.78 662.86
  Q 287.70 655.81 280.53 646.26
  Q 275.49 639.54 269.57 628.72
  Q 260.18 611.59 255.99 595.31
  Q 252.27 580.88 250.79 565.27
  Q 250.39 561.01 250.45 548.28
  C 250.48 543.40 251.77 538.68 252.15 533.27
  Q 252.29 531.25 253.01 527.27
  C 254.56 518.74 255.95 510.81 258.93 503.11
  Q 263.84 490.38 263.93 490.19
  Q 266.98 483.49 271.74 475.16
  C 278.96 462.51 289.51 450.63 300.00 441.25
  Q 307.85 434.22 318.25 426.68
  Q 326.26 420.87 338.23 414.63
  Q 348.24 409.40 361.12 402.05
  Q 367.00 398.70 371.24 395.62
  Q 379.03 389.98 381.04 388.67
  Q 382.94 387.43 385.04 385.37
  C 386.67 383.76 388.65 382.69 390.33 380.87
  C 394.50 376.36 402.97 368.97 407.89 362.64
  C 410.66 359.07 413.90 355.48 416.97 351.11
  Q 430.11 332.34 437.63 318.38
  Q 441.03 312.07 441.66 311.12
  C 446.34 304.08 449.08 296.44 454.33 289.03
  Q 454.71 288.48 457.31 284.53
  Q 474.27 258.73 497.16 240.42
  Q 503.86 235.05 518.38 226.19
  Q 522.09 223.92 524.95 222.85
  C 527.81 221.79 530.30 219.98 533.81 218.56
  Q 546.96 213.23 555.10 211.37
  Q 562.24 209.74 563.21 209.25
  A 2.51 2.35 28.5 0 1 564.13 209.01
  Q 566.13 208.89 571.90 207.86
  C 578.29 206.72 585.34 206.74 591.36 206.56
  A 5.50 4.90 -48.3 0 0 592.32 206.45
  Q 596.43 205.56 598.25 205.93
  Q 602.40 206.78 614.42 207.62
  Q 623.38 208.25 636.44 211.45
  C 639.02 212.09 640.82 211.92 641.33 209.06
  Q 642.32 203.50 642.44 200.31
  A 8.51 8.00 43.2 0 0 642.35 198.85
  Q 641.03 190.29 638.49 177.17
  Q 637.99 174.60 638.02 172.46
  C 638.05 170.20 637.38 168.22 637.37 166.17
  Q 637.29 151.50 640.02 140.95
  Q 642.23 132.37 648.43 123.36
  C 650.95 119.70 655.74 115.05 657.97 112.96
  Q 660.43 110.64 665.55 107.15
  Q 670.03 104.09 673.97 102.70
  Q 679.14 100.87 683.10 99.76
  Q 687.53 98.52 694.00 98.79
  Q 704.64 99.24 705.00 99.28
  Q 721.74 101.17 734.13 111.21
  Q 752.70 126.25 758.05 150.84
  Q 758.29 151.91 759.54 151.45
  A 0.29 0.29 0.0 0 1 759.90 151.60
  Q 759.98 151.76 759.98 151.83
  A 0.09 0.08 -86.4 0 0 760.05 151.92
  Z
  M 727.03 270.76
  C 728.69 269.67 730.07 268.05 731.50 266.94
  C 739.26 260.94 747.64 256.84 757.58 254.98
  C 764.46 253.69 771.17 252.60 778.20 250.68
  C 793.29 246.57 806.00 235.85 810.53 220.87
  Q 813.79 210.10 810.36 199.69
  Q 807.04 189.56 798.42 182.10
  Q 785.18 170.64 765.40 172.16
  Q 761.85 172.43 754.50 174.38
  Q 749.48 175.71 746.92 175.22
  Q 740.32 173.94 739.06 166.24
  C 737.52 156.81 736.29 148.98 732.38 141.39
  Q 724.89 126.83 710.77 121.51
  C 687.90 112.89 665.19 125.35 659.62 149.38
  Q 657.32 159.31 658.16 169.87
  Q 658.57 175.13 662.11 190.33
  C 664.11 198.96 665.25 208.08 660.99 215.78
  Q 659.56 218.36 659.05 219.48
  A 1.92 1.92 0.0 0 0 660.03 222.02
  Q 668.90 225.90 677.56 231.22
  Q 704.54 247.79 725.18 270.53
  A 1.45 1.43 -37.6 0 0 727.03 270.76
  Z
  M 346.98 433.99
  Q 344.63 435.47 337.62 439.62
  C 322.91 448.31 308.50 460.03 297.81 473.96
  Q 297.76 473.63 297.55 473.53
  Q 297.13 473.32 296.83 473.70
  Q 281.98 492.53 275.98 515.91
  C 273.10 527.11 271.19 538.31 271.13 549.99
  Q 271.07 560.69 271.21 562.99
  Q 273.18 595.03 288.35 621.97
  Q 297.81 638.76 316.82 657.39
  Q 341.95 682.04 372.14 700.59
  Q 390.41 711.81 408.80 718.67
  C 450.09 734.07 496.35 732.37 534.51 710.31
  C 559.35 695.95 579.03 674.72 592.68 650.23
  Q 602.37 632.87 607.47 618.53
  Q 614.23 599.53 616.05 592.80
  Q 622.00 570.82 629.02 552.30
  Q 638.40 527.56 657.17 505.14
  Q 666.22 494.32 678.32 483.06
  C 693.27 469.17 707.31 455.79 719.66 439.39
  Q 728.39 427.80 733.33 416.20
  Q 745.25 388.23 742.79 359.32
  Q 740.58 333.27 728.74 311.47
  Q 723.34 301.54 719.90 296.81
  Q 700.48 270.10 673.08 251.96
  Q 646.78 234.54 616.21 228.61
  Q 606.67 226.76 593.08 226.36
  Q 589.21 226.24 585.92 226.65
  C 580.17 227.37 574.26 227.55 568.09 228.78
  Q 540.69 234.25 518.00 250.44
  Q 500.96 262.59 488.20 277.88
  Q 477.49 290.72 468.53 305.95
  Q 463.95 313.73 462.31 316.44
  C 453.52 330.98 444.37 346.65 435.96 358.95
  Q 428.59 369.71 422.25 377.23
  Q 405.43 397.18 383.36 412.11
  Q 370.30 420.95 352.43 429.95
  Q 349.76 431.29 346.57 433.29
  A 0.58 0.58 0.0 0 0 346.47 434.19
  Q 346.51 434.23 346.98 433.99
  Z
  M 308.26 678.19
  Q 305.33 680.55 302.59 683.33
  Q 296.73 689.29 288.57 695.06
  Q 280.45 700.80 270.72 702.68
  C 255.07 705.70 240.77 702.49 226.26 707.01
  C 205.52 713.48 193.45 738.48 202.55 758.45
  C 208.86 772.30 221.14 780.16 236.40 782.66
  C 239.60 783.18 242.81 782.81 245.93 782.95
  Q 248.61 783.08 253.07 782.24
  Q 261.12 780.74 264.75 780.53
  Q 269.91 780.24 273.16 784.41
  Q 274.60 786.26 275.41 793.64
  C 276.44 803.19 278.55 811.90 283.45 820.30
  C 293.52 837.59 310.97 845.22 331.02 840.88
  C 345.47 837.75 357.43 825.62 361.85 811.67
  C 364.88 802.08 364.58 790.69 363.08 780.37
  C 362.21 774.39 360.11 766.05 359.96 758.76
  Q 359.82 751.62 360.04 749.27
  Q 361.30 735.94 368.50 724.30
  Q 369.98 721.92 368.33 720.96
  Q 347.50 708.96 329.07 694.16
  Q 315.00 682.86 310.14 678.27
  A 1.43 1.42 -42.4 0 0 308.26 678.19
  Z"
/>
<path fill="#2d220b" d="
  M 727.03 270.76
  A 1.45 1.43 -37.6 0 1 725.18 270.53
  Q 704.54 247.79 677.56 231.22
  Q 668.90 225.90 660.03 222.02
  A 1.92 1.92 0.0 0 1 659.05 219.48
  Q 659.56 218.36 660.99 215.78
  C 665.25 208.08 664.11 198.96 662.11 190.33
  Q 658.57 175.13 658.16 169.87
  Q 657.32 159.31 659.62 149.38
  C 665.19 125.35 687.90 112.89 710.77 121.51
  Q 724.89 126.83 732.38 141.39
  C 736.29 148.98 737.52 156.81 739.06 166.24
  Q 740.32 173.94 746.92 175.22
  Q 749.48 175.71 754.50 174.38
  Q 761.85 172.43 765.40 172.16
  Q 785.18 170.64 798.42 182.10
  Q 807.04 189.56 810.36 199.69
  Q 813.79 210.10 810.53 220.87
  C 806.00 235.85 793.29 246.57 778.20 250.68
  C 771.17 252.60 764.46 253.69 757.58 254.98
  C 747.64 256.84 739.26 260.94 731.50 266.94
  C 730.07 268.05 728.69 269.67 727.03 270.76
  Z
  M 660.31 220.86
  C 664.93 223.51 673.74 227.41 680.03 231.41
  Q 705.40 247.55 725.78 269.69
  A 0.75 0.75 0.0 0 0 726.85 269.72
  Q 739.82 257.24 757.71 253.80
  Q 761.14 253.14 774.02 250.53
  C 790.66 247.15 804.21 237.20 809.31 220.78
  C 811.63 213.31 811.34 205.66 808.62 198.69
  Q 801.09 179.32 781.09 174.44
  C 771.10 172.00 762.64 173.48 752.91 175.98
  C 745.62 177.86 739.25 174.59 737.99 166.79
  C 735.97 154.37 734.22 145.48 728.05 136.35
  C 719.82 124.16 705.63 118.61 691.29 120.42
  C 667.08 123.48 658.01 146.00 659.15 168.30
  C 659.97 184.34 670.23 201.71 661.58 217.08
  Q 660.72 218.60 660.02 219.76
  A 0.79 0.79 0.0 0 0 660.31 220.86
  Z"
/>
<path fill="#f8eed2" d="
  M 660.02 219.76
  Q 660.72 218.60 661.58 217.08
  C 670.23 201.71 659.97 184.34 659.15 168.30
  C 658.01 146.00 667.08 123.48 691.29 120.42
  C 705.63 118.61 719.82 124.16 728.05 136.35
  C 734.22 145.48 735.97 154.37 737.99 166.79
  C 739.25 174.59 745.62 177.86 752.91 175.98
  C 762.64 173.48 771.10 172.00 781.09 174.44
  Q 801.09 179.32 808.62 198.69
  C 811.34 205.66 811.63 213.31 809.31 220.78
  C 804.21 237.20 790.66 247.15 774.02 250.53
  Q 761.14 253.14 757.71 253.80
  Q 739.82 257.24 726.85 269.72
  A 0.75 0.75 0.0 0 1 725.78 269.69
  Q 705.40 247.55 680.03 231.41
  C 673.74 227.41 664.93 223.51 660.31 220.86
  A 0.79 0.79 0.0 0 1 660.02 219.76
  Z"
/>
<path fill="#2d220b" d="
  M 297.81 473.96
  C 284.50 490.42 276.91 510.22 273.74 531.25
  C 268.72 564.55 274.48 599.33 292.85 627.42
  Q 299.84 638.10 307.56 646.47
  Q 331.84 672.82 362.22 693.26
  C 384.35 708.14 408.15 719.40 434.37 724.95
  C 446.05 727.42 458.21 727.95 470.24 727.51
  Q 498.79 726.46 524.80 714.29
  Q 550.66 702.19 571.58 678.98
  Q 575.49 674.65 581.52 666.21
  Q 587.98 657.18 590.47 652.71
  Q 604.42 627.68 612.79 599.96
  C 616.23 588.61 621.57 568.73 627.35 553.83
  Q 638.23 525.73 658.20 502.94
  C 671.20 488.11 687.76 474.02 701.19 460.21
  C 712.78 448.29 724.00 434.30 730.83 419.57
  C 742.15 395.13 744.99 367.33 738.89 341.10
  Q 732.50 313.67 713.70 290.08
  Q 703.89 277.77 694.45 269.32
  Q 683.06 259.13 668.85 250.18
  C 645.77 235.65 618.29 226.81 591.00 227.51
  Q 582.78 227.72 576.52 228.48
  Q 554.58 231.17 535.42 241.05
  Q 510.37 253.98 492.15 274.64
  Q 479.87 288.57 472.42 301.17
  C 459.05 323.81 447.59 343.92 434.25 363.01
  Q 409.86 397.92 372.93 419.66
  Q 357.99 428.46 346.98 433.99
  Q 346.51 434.23 346.47 434.19
  A 0.58 0.58 0.0 0 1 346.57 433.29
  Q 349.76 431.29 352.43 429.95
  Q 370.30 420.95 383.36 412.11
  Q 405.43 397.18 422.25 377.23
  Q 428.59 369.71 435.96 358.95
  C 444.37 346.65 453.52 330.98 462.31 316.44
  Q 463.95 313.73 468.53 305.95
  Q 477.49 290.72 488.20 277.88
  Q 500.96 262.59 518.00 250.44
  Q 540.69 234.25 568.09 228.78
  C 574.26 227.55 580.17 227.37 585.92 226.65
  Q 589.21 226.24 593.08 226.36
  Q 606.67 226.76 616.21 228.61
  Q 646.78 234.54 673.08 251.96
  Q 700.48 270.10 719.90 296.81
  Q 723.34 301.54 728.74 311.47
  Q 740.58 333.27 742.79 359.32
  Q 745.25 388.23 733.33 416.20
  Q 728.39 427.80 719.66 439.39
  C 707.31 455.79 693.27 469.17 678.32 483.06
  Q 666.22 494.32 657.17 505.14
  Q 638.40 527.56 629.02 552.30
  Q 622.00 570.82 616.05 592.80
  Q 614.23 599.53 607.47 618.53
  Q 602.37 632.87 592.68 650.23
  C 579.03 674.72 559.35 695.95 534.51 710.31
  C 496.35 732.37 450.09 734.07 408.80 718.67
  Q 390.41 711.81 372.14 700.59
  Q 341.95 682.04 316.82 657.39
  Q 297.81 638.76 288.35 621.97
  Q 273.18 595.03 271.21 562.99
  Q 271.07 560.69 271.13 549.99
  C 271.19 538.31 273.10 527.11 275.98 515.91
  Q 281.98 492.53 296.83 473.70
  Q 297.13 473.32 297.55 473.53
  Q 297.76 473.63 297.81 473.96
  Z"
/>
<path fill="#b5702e" d="
  M 297.81 473.96
  C 308.50 460.03 322.91 448.31 337.62 439.62
  Q 344.63 435.47 346.98 433.99
  Q 357.99 428.46 372.93 419.66
  Q 409.86 397.92 434.25 363.01
  C 447.59 343.92 459.05 323.81 472.42 301.17
  Q 479.87 288.57 492.15 274.64
  Q 510.37 253.98 535.42 241.05
  Q 554.58 231.17 576.52 228.48
  Q 582.78 227.72 591.00 227.51
  C 618.29 226.81 645.77 235.65 668.85 250.18
  Q 683.06 259.13 694.45 269.32
  Q 703.89 277.77 713.70 290.08
  Q 732.50 313.67 738.89 341.10
  C 744.99 367.33 742.15 395.13 730.83 419.57
  C 724.00 434.30 712.78 448.29 701.19 460.21
  C 687.76 474.02 671.20 488.11 658.20 502.94
  Q 638.23 525.73 627.35 553.83
  C 621.57 568.73 616.23 588.61 612.79 599.96
  Q 604.42 627.68 590.47 652.71
  Q 587.98 657.18 581.52 666.21
  Q 575.49 674.65 571.58 678.98
  Q 550.66 702.19 524.80 714.29
  Q 498.79 726.46 470.24 727.51
  C 458.21 727.95 446.05 727.42 434.37 724.95
  C 408.15 719.40 384.35 708.14 362.22 693.26
  Q 331.84 672.82 307.56 646.47
  Q 299.84 638.10 292.85 627.42
  C 274.48 599.33 268.72 564.55 273.74 531.25
  C 276.91 510.22 284.50 490.42 297.81 473.96
  Z
  M 488.25 330.62
  C 492.59 332.04 496.92 329.22 499.80 326.28
  Q 503.75 322.24 515.15 310.16
  C 526.47 298.17 541.04 286.59 556.14 274.40
  Q 560.33 271.03 563.38 266.92
  C 568.04 260.65 566.32 252.54 558.20 250.72
  Q 554.62 249.92 550.24 251.49
  C 540.72 254.92 531.62 260.10 523.62 266.62
  Q 503.73 282.84 490.42 304.09
  C 488.10 307.80 485.71 313.04 484.58 317.77
  C 483.56 322.05 483.44 329.05 488.25 330.62
  Z
  M 295.31 539.95
  C 302.92 545.93 309.44 531.16 312.38 525.78
  C 323.47 505.51 340.84 489.33 358.86 474.62
  C 364.91 469.68 369.89 464.71 369.97 456.64
  A 4.20 3.92 39.2 0 0 369.82 455.55
  C 366.74 444.58 355.27 449.56 348.63 453.07
  Q 316.47 470.07 299.63 502.58
  Q 293.27 514.85 292.32 527.75
  C 292.06 531.31 292.29 537.58 295.31 539.95
  Z"
/>
<path fill="#f8eed2" d="
  M 488.25 330.62
  C 483.44 329.05 483.56 322.05 484.58 317.77
  C 485.71 313.04 488.10 307.80 490.42 304.09
  Q 503.73 282.84 523.62 266.62
  C 531.62 260.10 540.72 254.92 550.24 251.49
  Q 554.62 249.92 558.20 250.72
  C 566.32 252.54 568.04 260.65 563.38 266.92
  Q 560.33 271.03 556.14 274.40
  C 541.04 286.59 526.47 298.17 515.15 310.16
  Q 503.75 322.24 499.80 326.28
  C 496.92 329.22 492.59 332.04 488.25 330.62
  Z
  M 486.66 327.92
  C 493.26 334.51 502.91 320.86 506.60 317.11
  Q 521.69 301.77 526.72 296.92
  A 5.97 5.40 2.9 0 1 527.48 296.30
  C 530.37 294.36 532.31 291.87 534.82 289.98
  Q 536.50 288.72 552.00 276.14
  C 555.62 273.20 559.11 269.84 561.61 267.11
  Q 564.21 264.27 564.35 259.82
  C 564.58 252.54 557.23 250.77 551.62 252.37
  Q 546.27 253.90 539.96 257.22
  Q 530.35 262.27 521.84 269.57
  Q 505.31 283.74 492.82 302.30
  C 489.33 307.49 484.49 317.60 485.45 324.18
  Q 485.88 327.13 486.66 327.92
  Z"
/>
<path fill="#f7cfa0" d="
  M 486.66 327.92
  Q 485.88 327.13 485.45 324.18
  C 484.49 317.60 489.33 307.49 492.82 302.30
  Q 505.31 283.74 521.84 269.57
  Q 530.35 262.27 539.96 257.22
  Q 546.27 253.90 551.62 252.37
  C 557.23 250.77 564.58 252.54 564.35 259.82
  Q 564.21 264.27 561.61 267.11
  C 559.11 269.84 555.62 273.20 552.00 276.14
  Q 536.50 288.72 534.82 289.98
  C 532.31 291.87 530.37 294.36 527.48 296.30
  A 5.97 5.40 2.9 0 0 526.72 296.92
  Q 521.69 301.77 506.60 317.11
  C 502.91 320.86 493.26 334.51 486.66 327.92
  Z"
/>
<path fill="#f8eed2" d="
  M 295.31 539.95
  C 292.29 537.58 292.06 531.31 292.32 527.75
  Q 293.27 514.85 299.63 502.58
  Q 316.47 470.07 348.63 453.07
  C 355.27 449.56 366.74 444.58 369.82 455.55
  A 4.20 3.92 39.2 0 1 369.97 456.64
  C 369.89 464.71 364.91 469.68 358.86 474.62
  C 340.84 489.33 323.47 505.51 312.38 525.78
  C 309.44 531.16 302.92 545.93 295.31 539.95
  Z
  M 298.78 539.97
  C 302.71 539.69 305.58 535.60 307.21 532.35
  Q 314.29 518.22 322.55 508.28
  Q 331.50 497.52 335.43 493.91
  Q 341.43 488.39 346.05 483.68
  A 8.37 8.23 -84.8 0 1 347.22 482.69
  C 350.26 480.56 352.07 478.31 354.92 476.10
  C 361.26 471.18 370.05 464.29 368.10 455.62
  C 366.09 446.69 356.65 450.39 351.13 453.14
  C 341.35 458.01 332.43 463.92 324.64 471.65
  Q 318.59 477.64 317.88 478.39
  Q 305.46 491.41 298.47 507.93
  Q 293.34 520.04 293.92 533.31
  Q 294.13 538.28 297.74 539.80
  A 2.26 2.25 54.2 0 0 298.78 539.97
  Z"
/>
<path fill="#f7cfa0" d="
  M 297.74 539.80
  Q 294.13 538.28 293.92 533.31
  Q 293.34 520.04 298.47 507.93
  Q 305.46 491.41 317.88 478.39
  Q 318.59 477.64 324.64 471.65
  C 332.43 463.92 341.35 458.01 351.13 453.14
  C 356.65 450.39 366.09 446.69 368.10 455.62
  C 370.05 464.29 361.26 471.18 354.92 476.10
  C 352.07 478.31 350.26 480.56 347.22 482.69
  A 8.37 8.23 -84.8 0 0 346.05 483.68
  Q 341.43 488.39 335.43 493.91
  Q 331.50 497.52 322.55 508.28
  Q 314.29 518.22 307.21 532.35
  C 305.58 535.60 302.71 539.69 298.78 539.97
  A 2.26 2.25 54.2 0 1 297.74 539.80
  Z"
/>
<path fill="#2d220b" d="
  M 308.26 678.19
  A 1.43 1.42 -42.4 0 1 310.14 678.27
  Q 315.00 682.86 329.07 694.16
  Q 347.50 708.96 368.33 720.96
  Q 369.98 721.92 368.50 724.30
  Q 361.30 735.94 360.04 749.27
  Q 359.82 751.62 359.96 758.76
  C 360.11 766.05 362.21 774.39 363.08 780.37
  C 364.58 790.69 364.88 802.08 361.85 811.67
  C 357.43 825.62 345.47 837.75 331.02 840.88
  C 310.97 845.22 293.52 837.59 283.45 820.30
  C 278.55 811.90 276.44 803.19 275.41 793.64
  Q 274.60 786.26 273.16 784.41
  Q 269.91 780.24 264.75 780.53
  Q 261.12 780.74 253.07 782.24
  Q 248.61 783.08 245.93 782.95
  C 242.81 782.81 239.60 783.18 236.40 782.66
  C 221.14 780.16 208.86 772.30 202.55 758.45
  C 193.45 738.48 205.52 713.48 226.26 707.01
  C 240.77 702.49 255.07 705.70 270.72 702.68
  Q 280.45 700.80 288.57 695.06
  Q 296.73 689.29 302.59 683.33
  Q 305.33 680.55 308.26 678.19
  Z
  M 367.62 721.96
  Q 348.48 710.62 332.17 698.06
  Q 319.64 688.40 309.75 679.25
  A 1.23 1.23 0.0 0 0 308.00 679.32
  Q 300.34 687.73 291.12 694.58
  C 281.74 701.54 272.33 704.58 260.80 705.14
  Q 258.61 705.25 242.76 705.77
  C 230.23 706.18 219.79 708.61 210.97 718.01
  Q 200.24 729.44 200.78 745.75
  C 201.29 760.88 212.07 773.43 225.88 778.73
  Q 238.62 783.62 253.72 780.93
  C 261.45 779.55 269.12 776.98 273.95 783.72
  Q 275.61 786.02 276.22 791.04
  C 277.86 804.47 280.35 815.99 289.15 826.44
  C 302.24 842.00 324.92 845.56 342.51 834.91
  C 355.27 827.19 362.35 813.31 362.85 798.47
  Q 363.22 787.27 360.83 774.69
  C 359.31 766.69 358.34 760.85 358.34 754.50
  C 358.34 743.09 362.16 733.24 367.86 722.86
  A 0.67 0.66 -60.1 0 0 367.62 721.96
  Z"
/>
<path fill="#f8eed2" d="
  M 367.62 721.96
  A 0.67 0.66 -60.1 0 1 367.86 722.86
  C 362.16 733.24 358.34 743.09 358.34 754.50
  C 358.34 760.85 359.31 766.69 360.83 774.69
  Q 363.22 787.27 362.85 798.47
  C 362.35 813.31 355.27 827.19 342.51 834.91
  C 324.92 845.56 302.24 842.00 289.15 826.44
  C 280.35 815.99 277.86 804.47 276.22 791.04
  Q 275.61 786.02 273.95 783.72
  C 269.12 776.98 261.45 779.55 253.72 780.93
  Q 238.62 783.62 225.88 778.73
  C 212.07 773.43 201.29 760.88 200.78 745.75
  Q 200.24 729.44 210.97 718.01
  C 219.79 708.61 230.23 706.18 242.76 705.77
  Q 258.61 705.25 260.80 705.14
  C 272.33 704.58 281.74 701.54 291.12 694.58
  Q 300.34 687.73 308.00 679.32
  A 1.23 1.23 0.0 0 1 309.75 679.25
  Q 319.64 688.40 332.17 698.06
  Q 348.48 710.62 367.62 721.96
  Z"
/>
</svg>
