<?xml version="1.0" standalone="no"?>
<!DOCTYPE svg PUBLIC "-//W3C//DTD SVG 20010904//EN"
 "http://www.w3.org/TR/2001/REC-SVG-20010904/DTD/svg10.dtd">
<svg version="1.0" xmlns="http://www.w3.org/2000/svg"
 width="512.000000pt" height="512.000000pt" viewBox="0 0 512.000000 512.000000"
 preserveAspectRatio="xMidYMid meet">
<metadata>
Created by potrace 1.16, written by Peter Selinger 2001-2019
</metadata>
<g transform="translate(0.000000,512.000000) scale(0.100000,-0.100000)"
fill="#000000" stroke="none">
<path d="M3921 3860 c-41 -11 -98 -31 -129 -45 -136 -62 -278 -197 -350 -333
-42 -79 -82 -208 -82 -264 l0 -28 -969 0 c-942 0 -971 -1 -1034 -20 -116 -36
-204 -116 -259 -235 l-23 -50 0 -970 0 -970 32 -67 c55 -116 145 -191 270
-223 86 -23 2710 -23 2796 0 127 33 216 106 274 223 l38 76 3 771 2 770 45 28
c83 53 181 171 235 281 107 218 108 435 5 651 -74 155 -190 274 -337 347 -116
57 -169 70 -313 74 -108 3 -143 1 -204 -16z m272 -124 c159 -16 322 -121 423
-273 149 -225 125 -538 -57 -737 -76 -82 -152 -132 -259 -170 -75 -26 -98 -30
-195 -29 -178 0 -306 53 -431 177 -80 81 -115 135 -152 239 -36 103 -38 269
-3 376 61 186 231 352 411 401 52 15 156 28 185 24 11 -2 46 -5 78 -8z m-829
-698 c2 -7 11 -46 20 -86 20 -92 74 -203 134 -278 44 -54 145 -147 188 -173
18 -10 15 -15 -31 -57 -103 -96 -719 -640 -759 -671 -83 -64 -169 -64 -253 0
-59 46 -933 818 -1165 1030 -195 178 -198 180 -175 196 12 9 45 24 72 33 46
16 126 17 1008 18 758 0 958 -3 961 -12z m-2043 -263 c52 -47 282 -253 512
-457 229 -204 417 -374 417 -378 0 -3 -183 -172 -407 -376 -224 -203 -458
-415 -519 -471 -103 -94 -112 -101 -118 -79 -3 12 -3 414 -1 892 3 478 5 888
5 912 0 23 4 42 9 42 5 0 51 -38 102 -85z m2739 -381 c88 -6 215 9 273 31 16
7 17 -31 17 -709 l0 -717 -182 163 c-404 362 -839 770 -835 781 1 5 122 116
267 247 l265 237 50 -14 c28 -7 93 -16 145 -19z m-1570 -662 c147 -130 180
-147 300 -147 122 0 148 13 305 150 66 58 123 105 126 105 4 0 53 -44 110 -97
173 -161 706 -651 831 -763 l117 -105 -20 -22 c-12 -12 -44 -32 -72 -45 l-52
-23 -1360 0 -1360 0 -52 23 c-100 46 -100 45 37 167 66 59 120 111 120 116 0
5 5 9 11 9 11 0 59 43 413 370 431 398 410 379 425 367 8 -7 62 -54 121 -105z"/>
</g>
</svg>
