<?xml version="1.0" encoding="UTF-8" standalone="no"?>
<!DOCTYPE svg PUBLIC "-//W3C//DTD SVG 1.1//EN" "http://www.w3.org/Graphics/SVG/1.1/DTD/svg11.dtd">
<svg xmlns="http://www.w3.org/2000/svg" version="1.1" viewBox="0.00 0.00 1024.00 1024.00">
<path fill="#000000" d="
  M 757.82 210.61
  Q 770.76 237.42 776.54 267.74
  Q 778.13 276.10 778.21 279.01
  A 2.66 2.58 -60.1 0 0 778.51 280.19
  Q 778.87 280.89 778.88 281.23
  C 778.91 286.67 779.94 291.34 779.98 296.57
  Q 780.08 307.49 779.95 314.41
  Q 779.88 318.35 779.41 320.56
  C 778.86 323.22 779.07 325.89 778.66 328.80
  Q 773.63 364.85 756.67 395.70
  Q 742.17 422.06 720.23 446.00
  Q 695.11 473.40 667.02 496.02
  Q 649.06 510.48 628.17 527.66
  Q 612.09 540.87 599.68 556.19
  Q 581.99 578.04 575.89 605.42
  Q 574.69 610.76 571.93 619.21
  C 564.03 643.38 544.56 662.87 519.19 668.41
  Q 516.39 669.02 513.31 669.14
  C 510.80 669.23 508.04 669.77 505.35 669.66
  Q 486.61 668.89 473.29 661.16
  Q 452.72 649.23 443.71 628.08
  Q 437.80 614.22 437.13 601.49
  Q 436.43 588.06 437.11 578.76
  Q 437.83 568.82 440.59 556.32
  Q 444.55 538.34 453.09 521.28
  Q 460.08 507.34 468.86 494.89
  Q 476.84 483.58 488.22 471.03
  C 507.40 449.86 527.18 432.16 548.01 414.76
  C 571.83 394.87 595.90 374.58 611.49 348.00
  Q 612.59 346.13 614.97 340.99
  Q 623.57 322.40 623.74 304.26
  Q 623.80 297.24 622.30 288.85
  C 617.61 262.58 601.46 239.93 579.58 224.60
  Q 554.41 206.97 522.77 203.87
  Q 510.08 202.63 503.18 203.02
  C 498.92 203.26 495.57 203.72 490.52 204.21
  Q 482.44 204.99 471.53 208.03
  C 445.06 215.39 423.00 232.15 410.03 256.22
  Q 403.65 268.05 400.49 277.72
  Q 399.75 279.98 394.68 296.19
  Q 391.09 307.67 386.07 319.30
  Q 378.19 337.61 364.32 351.54
  Q 350.40 365.54 331.74 370.95
  Q 321.31 373.97 308.51 372.90
  Q 295.77 371.83 283.53 365.46
  Q 256.97 351.64 248.17 323.46
  Q 245.97 316.43 245.31 308.76
  Q 244.47 299.00 245.29 293.76
  Q 245.47 292.60 245.81 287.91
  Q 246.04 284.63 246.46 282.10
  Q 249.11 265.92 253.00 253.00
  Q 258.93 233.28 268.04 214.90
  Q 276.89 197.02 289.45 179.97
  Q 330.06 124.85 393.56 96.81
  Q 424.82 83.01 459.00 77.03
  Q 465.49 75.90 466.50 75.94
  Q 467.19 75.96 470.24 75.17
  C 471.48 74.85 474.13 75.06 476.03 74.69
  Q 477.61 74.39 478.01 74.35
  C 484.82 73.72 492.50 73.04 500.68 72.98
  Q 519.59 72.84 527.80 73.17
  Q 541.37 73.71 557.74 76.03
  Q 609.55 83.36 654.98 107.55
  Q 694.82 128.76 724.46 161.31
  Q 733.22 170.92 742.81 184.85
  Q 751.43 197.38 757.82 210.61
  Z"
/>
<path fill="#000000" d="
  M 540.65 744.29
  Q 540.91 744.39 541.07 744.52
  Q 541.17 744.61 541.38 744.68
  Q 549.94 747.86 555.48 751.55
  Q 575.82 765.10 586.34 785.17
  Q 594.68 801.08 595.89 818.77
  C 596.43 826.76 596.28 835.80 594.73 844.00
  C 589.23 872.99 570.80 899.34 544.62 913.63
  C 532.08 920.48 517.24 924.07 503.30 922.78
  Q 493.13 921.84 483.84 918.70
  Q 475.39 915.85 466.15 909.73
  Q 446.00 896.39 434.24 874.83
  Q 425.82 859.40 423.56 844.04
  Q 422.75 838.57 422.51 837.03
  C 421.73 831.98 422.03 826.69 421.95 821.68
  Q 421.90 818.16 422.57 813.42
  Q 427.08 781.67 450.18 760.43
  Q 465.32 746.52 485.81 741.00
  Q 489.27 740.07 491.37 739.91
  C 493.93 739.73 495.84 739.03 498.89 739.02
  Q 504.96 739.01 512.17 738.96
  Q 519.21 738.92 525.37 740.07
  Q 534.22 741.73 540.65 744.29
  Z"
/>
</svg>
