<?xml version="1.0" encoding="UTF-8" standalone="no"?>
<!DOCTYPE svg PUBLIC "-//W3C//DTD SVG 1.1//EN" "http://www.w3.org/Graphics/SVG/1.1/DTD/svg11.dtd">
<svg xmlns="http://www.w3.org/2000/svg" version="1.1" viewBox="0.00 0.00 1024.00 1024.00">
<g stroke-width="2.00" fill="none" stroke-linecap="butt">
<path stroke="#7e7f7f" vector-effect="non-scaling-stroke" d="
  M 846.71 477.04
  Q 812.70 477.10 782.24 477.03
  C 774.44 477.01 768.32 470.73 766.87 463.37
  Q 759.15 424.11 738.61 390.96
  Q 734.82 384.84 734.42 383.21
  C 732.46 375.15 735.94 370.82 742.49 364.37
  Q 756.94 350.17 775.29 331.29
  Q 782.86 323.50 788.53 318.42
  A 0.67 0.67 0.0 0 0 788.55 317.45
  L 727.66 256.55
  A 0.66 0.66 0.0 0 0 726.73 256.55
  Q 715.70 267.41 679.44 303.96
  Q 669.38 314.09 657.59 306.65
  C 631.56 290.22 603.25 276.33 573.92 268.75
  Q 566.77 266.90 564.36 265.04
  Q 558.46 260.48 558.44 251.96
  Q 558.34 217.00 558.43 180.54
  A 0.26 0.26 0.0 0 0 558.17 180.28
  L 466.07 180.28
  A 0.52 0.51 -0.5 0 0 465.55 180.80
  Q 465.61 208.68 465.63 249.76
  C 465.63 256.72 464.61 260.81 459.77 265.02
  Q 457.60 266.91 449.80 268.98
  C 422.22 276.30 394.80 289.42 370.07 304.80
  Q 363.46 308.91 360.71 309.54
  C 354.17 311.02 348.42 307.99 343.79 303.34
  Q 321.85 281.29 297.01 256.46
  A 0.53 0.52 44.6 0 0 296.26 256.46
  L 235.49 317.22
  A 0.95 0.94 44.8 0 0 235.50 318.56
  Q 259.92 342.71 284.16 367.34
  C 289.80 373.06 292.25 379.98 287.63 387.14
  Q 281.81 396.16 277.72 404.43
  Q 264.15 431.81 257.92 460.27
  C 256.22 468.00 254.89 472.23 248.44 475.70
  Q 245.89 477.08 240.77 477.08
  Q 177.30 477.05 177.29 477.05
  A 0.46 0.45 3.4 0 0 176.78 477.50
  L 176.79 554.03
  A 0.62 0.62 0.0 0 0 177.41 554.65
  Q 238.96 554.59 242.96 554.63
  C 250.07 554.71 256.00 559.84 257.49 566.76
  Q 266.09 606.70 285.73 639.58
  Q 290.07 646.84 290.37 649.93
  Q 291.10 657.60 285.56 663.08
  Q 260.18 688.18 239.44 709.22
  A 1.41 1.41 0.0 0 0 239.45 711.21
  L 296.57 768.33
  A 1.76 1.76 0.0 0 0 299.06 768.34
  Q 318.14 749.48 344.58 722.58
  C 352.06 714.97 359.33 714.79 367.98 720.91
  C 393.72 739.09 423.04 752.09 453.57 759.12
  Q 460.56 760.73 464.05 767.34
  Q 465.82 770.70 465.62 780.90
  Q 465.55 784.19 465.55 845.11
  A 0.25 0.25 0.0 0 0 465.80 845.36
  L 558.21 845.36
  A 0.23 0.23 0.0 0 0 558.44 845.13
  Q 558.31 808.81 558.45 774.78
  Q 558.48 766.26 565.09 761.30
  Q 567.79 759.27 575.92 757.35
  C 602.28 751.14 629.72 738.65 652.30 723.20
  Q 660.25 717.76 663.45 716.98
  Q 671.58 715.01 678.83 722.19
  Q 725.15 768.01 726.09 769.07
  A 0.89 0.89 0.0 0 0 727.38 769.10
  L 785.44 711.01
  A 1.55 1.54 45.1 0 0 785.44 708.82
  Q 746.00 669.43 742.64 666.25
  Q 736.02 660.00 734.65 656.07
  Q 732.24 649.20 736.40 642.34
  Q 758.68 605.57 766.50 567.76
  C 767.67 562.07 771.31 556.91 776.80 555.24
  Q 778.81 554.63 782.54 554.64
  Q 810.50 554.65 846.62 554.64
  A 0.67 0.66 -90.0 0 0 847.28 553.97
  L 847.28 477.61
  A 0.57 0.57 0.0 0 0 846.71 477.04"
/>
<path stroke="#dfe0e2" vector-effect="non-scaling-stroke" d="
  M 178.95 479.09
  Q 178.91 479.05 178.85 479.03
  Q 178.00 478.71 177.99 479.85
  Q 177.71 506.96 177.71 551.81
  A 1.26 1.25 89.6 0 0 178.98 553.07
  Q 201.81 552.72 238.86 552.95
  Q 245.15 552.99 248.34 554.39
  Q 257.05 558.20 259.18 568.30
  Q 265.99 600.70 282.12 630.72
  Q 284.80 635.69 289.67 644.16
  Q 292.25 648.64 291.96 652.27
  C 291.58 657.19 289.08 661.18 285.21 664.92
  Q 280.64 669.32 241.30 708.79
  A 1.87 1.86 45.1 0 0 241.30 711.42
  L 296.89 767.00
  A 1.44 1.44 0.0 0 0 298.94 766.99
  Q 314.56 751.02 345.19 720.47
  Q 354.73 710.95 365.96 718.35
  Q 379.39 727.21 389.81 733.16
  C 407.84 743.46 428.03 751.47 448.66 756.51
  Q 456.66 758.46 460.13 760.99
  Q 467.02 766.01 467.09 776.42
  Q 467.32 815.82 466.86 843.58
  A 0.33 0.32 0.8 0 0 467.19 843.91
  L 556.59 843.91
  A 0.63 0.63 0.0 0 0 557.22 843.29
  Q 557.39 812.13 557.12 776.11
  Q 557.05 765.76 564.87 760.00
  Q 567.35 758.18 574.77 756.34
  Q 618.67 745.48 657.06 718.58
  Q 664.65 713.25 672.16 716.17
  Q 675.79 717.58 681.61 723.36
  Q 722.18 763.66 725.69 767.22
  A 1.30 1.29 -44.5 0 0 727.53 767.23
  L 783.95 710.81
  A 1.24 1.24 0.0 0 0 783.94 709.06
  Q 760.04 685.52 736.95 662.06
  C 731.69 656.71 731.39 648.11 735.19 641.95
  Q 755.10 609.66 763.76 573.81
  Q 766.20 563.69 768.01 560.80
  Q 773.01 552.79 784.47 552.81
  Q 835.17 552.86 845.60 552.99
  A 0.62 0.61 -89.5 0 0 846.22 552.37
  L 846.22 479.70
  A 0.99 0.99 0.0 0 0 845.22 478.71
  Q 810.83 479.03 785.78 478.74
  Q 768.94 478.54 765.61 462.91
  Q 756.63 420.80 735.49 388.29
  Q 730.36 380.40 734.48 372.04
  C 735.90 369.16 738.89 366.30 741.11 364.11
  Q 759.39 346.01 776.93 327.94
  Q 779.64 325.16 786.65 318.57
  A 0.97 0.96 -44.4 0 0 786.67 317.18
  L 727.51 258.02
  A 0.49 0.49 0.0 0 0 726.81 258.02
  Q 693.06 292.00 679.33 305.53
  Q 670.01 314.72 658.68 308.63
  Q 655.13 306.72 653.53 305.71
  Q 618.42 283.55 579.41 271.36
  C 575.95 270.28 569.62 269.41 566.13 267.54
  Q 560.94 264.75 558.38 258.94
  Q 556.92 255.60 557.04 247.37
  Q 557.34 226.69 557.09 182.49
  A 0.53 0.53 0.0 0 0 556.56 181.96
  L 467.29 181.96
  A 0.26 0.25 90.0 0 0 467.04 182.22
  Q 467.20 206.14 467.16 250.04
  Q 467.14 261.69 459.35 266.73
  Q 456.57 268.53 450.93 269.95
  Q 441.19 272.40 432.57 275.57
  Q 404.29 285.97 379.16 300.66
  Q 378.35 301.13 368.62 307.12
  C 362.39 310.95 357.17 312.52 350.64 309.61
  Q 346.61 307.82 344.76 305.97
  Q 307.19 268.46 297.04 258.33
  A 0.78 0.77 44.7 0 0 295.95 258.33
  L 237.40 316.88
  A 1.44 1.44 0.0 0 0 237.41 318.92
  Q 254.35 335.57 283.63 365.16
  Q 289.40 370.99 290.48 374.57
  Q 292.50 381.26 289.04 386.88
  Q 270.44 417.07 261.21 451.48
  C 260.18 455.31 259.41 459.46 258.74 462.74
  C 256.70 472.73 250.76 478.52 239.77 478.62
  Q 211.53 478.88 180.75 478.85
  Q 180.11 478.85 179.67 479.16
  A 0.57 0.57 0.0 0 1 178.95 479.09"
/>
<path stroke="#dfe0e2" vector-effect="non-scaling-stroke" d="
  M 506.83 656.93
  C 548.18 658.40 586.17 643.29 615.41 613.88
  C 646.29 582.82 661.14 539.59 656.20 496.19
  C 651.26 452.69 625.55 415.08 588.76 392.17
  C 567.86 379.15 542.77 371.25 517.04 370.34
  C 491.31 369.42 465.73 375.52 443.96 387.01
  C 405.62 407.25 377.30 442.93 369.28 485.97
  C 361.27 528.91 373.01 573.09 401.60 606.27
  C 428.67 637.68 465.49 655.46 506.83 656.93"
/>
<path stroke="#7e7f7f" vector-effect="non-scaling-stroke" d="
  M 499.44 655.30
  C 540.30 658.90 578.71 645.91 609.18 618.31
  C 641.37 589.16 658.32 547.12 655.68 503.89
  C 653.04 460.57 629.54 421.99 594.29 397.40
  C 574.27 383.42 549.85 374.30 524.42 372.06
  C 498.99 369.82 473.34 374.53 451.19 384.78
  C 412.18 402.83 382.29 436.69 372.11 478.89
  C 361.95 520.99 371.28 565.34 397.87 599.68
  C 423.04 632.19 458.58 651.70 499.44 655.30"
/>
</g>
<path fill="#000000" d="
  M 761.16 650.31
  A 0.25 0.25 0.0 0 0 761.15 650.68
  Q 789.77 679.13 811.62 701.21
  Q 812.47 702.07 813.95 704.94
  C 816.77 710.39 814.64 716.89 810.52 721.02
  Q 778.11 753.52 736.11 795.26
  A 4.30 4.28 5.3 0 1 735.48 795.78
  Q 733.11 797.33 732.36 797.60
  Q 726.57 799.60 720.59 797.62
  Q 718.26 796.85 713.93 792.56
  Q 695.27 774.03 666.36 744.72
  A 1.08 1.07 50.1 0 0 664.98 744.59
  Q 640.81 761.71 613.31 772.33
  Q 599.76 777.56 585.62 780.98
  A 1.29 1.27 -6.9 0 0 584.64 782.22
  Q 584.45 827.49 584.71 848.26
  Q 584.80 856.11 583.42 859.47
  Q 580.61 866.26 573.73 869.30
  Q 570.15 870.89 561.02 870.71
  Q 556.88 870.63 458.41 870.70
  C 455.80 870.70 453.43 870.20 451.35 869.91
  A 4.07 3.75 -27.4 0 1 450.43 869.66
  Q 443.34 866.68 440.43 859.98
  Q 438.80 856.22 438.94 848.31
  Q 439.07 840.78 438.97 782.04
  A 0.62 0.61 7.4 0 0 438.51 781.45
  Q 394.64 770.46 358.49 744.72
  A 1.31 1.30 40.1 0 0 356.80 744.86
  Q 332.61 769.24 315.64 786.30
  C 313.12 788.84 310.16 792.18 306.99 795.02
  Q 302.10 799.39 295.15 798.43
  Q 291.08 797.86 289.18 796.34
  Q 286.83 794.47 282.97 790.60
  Q 230.28 737.70 224.67 732.19
  Q 217.80 725.44 212.73 719.78
  C 207.66 714.13 208.58 705.10 213.81 699.79
  Q 244.74 668.44 261.96 651.03
  A 1.06 1.06 0.0 0 0 262.12 649.73
  Q 243.14 617.53 233.98 580.60
  A 0.64 0.63 -6.9 0 0 233.36 580.12
  Q 177.76 580.12 170.14 580.13
  Q 163.78 580.14 160.56 578.70
  C 154.22 575.85 149.93 569.08 149.96 562.00
  Q 150.04 545.51 149.96 474.34
  Q 149.95 465.97 151.08 462.89
  C 153.48 456.33 159.73 451.92 166.87 452.19
  Q 169.62 452.30 169.66 452.30
  Q 176.96 452.36 232.39 452.37
  A 1.11 1.08 21.4 0 0 233.18 452.04
  C 233.95 451.25 233.85 449.70 234.18 448.37
  Q 242.93 412.87 261.08 381.20
  A 0.59 0.58 38.1 0 0 260.99 380.50
  C 253.57 372.66 246.65 366.22 239.88 358.78
  Q 237.26 355.90 216.80 335.35
  C 210.44 328.96 203.05 322.91 206.20 313.09
  Q 207.56 308.88 211.85 304.60
  Q 268.70 247.90 286.92 229.50
  A 0.39 0.18 -64.9 0 1 286.98 229.45
  L 290.14 227.51
  A 3.00 3.00 0.0 0 1 290.95 227.17
  Q 292.31 226.83 296.18 226.58
  Q 301.95 226.21 305.74 230.01
  Q 339.31 263.59 357.22 281.78
  Q 358.53 283.12 359.74 282.00
  Q 361.37 280.49 361.57 280.36
  Q 387.91 263.49 416.96 252.47
  Q 420.52 251.12 438.49 245.11
  A 0.75 0.75 0.0 0 0 439.00 244.40
  Q 439.00 175.63 439.00 175.37
  Q 438.78 168.40 440.39 164.84
  Q 443.01 159.00 448.73 156.44
  Q 451.90 155.02 460.01 155.03
  Q 528.40 155.06 569.27 155.06
  A 3.89 3.77 51.0 0 1 570.18 155.17
  Q 584.59 158.66 584.59 173.96
  Q 584.59 174.26 584.51 244.66
  A 1.26 1.24 2.0 0 0 585.68 245.90
  Q 586.72 245.96 588.36 246.41
  Q 594.43 248.09 602.71 251.13
  Q 627.48 260.19 650.00 272.87
  C 655.21 275.81 660.23 279.14 664.73 281.93
  A 0.91 0.90 -51.1 0 0 665.86 281.80
  Q 692.59 254.98 708.22 239.22
  Q 710.79 236.62 716.36 231.32
  Q 720.05 227.81 722.39 227.21
  C 727.98 225.79 733.65 226.16 737.87 230.38
  Q 798.02 290.55 813.60 306.16
  C 819.36 311.93 821.35 320.92 814.96 327.49
  Q 784.22 359.02 762.74 380.09
  A 0.69 0.67 51.7 0 0 762.65 380.94
  Q 765.20 384.91 766.90 388.08
  Q 783.23 418.57 790.86 451.75
  A 0.85 0.84 -6.4 0 0 791.69 452.40
  L 858.53 452.20
  A 3.52 3.18 47.9 0 1 859.21 452.27
  Q 868.93 454.14 872.46 462.26
  Q 873.96 465.74 873.96 475.98
  Q 873.94 563.66 873.91 564.08
  A 6.50 5.77 -41.6 0 1 873.80 565.00
  Q 870.69 580.14 854.27 580.13
  Q 826.05 580.12 791.65 580.10
  A 1.25 1.25 0.0 0 0 790.43 581.03
  Q 783.69 605.98 773.12 628.59
  Q 769.05 637.30 762.81 648.30
  Q 762.23 649.34 761.16 650.31
  Z
  M 846.71 477.04
  Q 812.70 477.10 782.24 477.03
  C 774.44 477.01 768.32 470.73 766.87 463.37
  Q 759.15 424.11 738.61 390.96
  Q 734.82 384.84 734.42 383.21
  C 732.46 375.15 735.94 370.82 742.49 364.37
  Q 756.94 350.17 775.29 331.29
  Q 782.86 323.50 788.53 318.42
  A 0.67 0.67 0.0 0 0 788.55 317.45
  L 727.66 256.55
  A 0.66 0.66 0.0 0 0 726.73 256.55
  Q 715.70 267.41 679.44 303.96
  Q 669.38 314.09 657.59 306.65
  C 631.56 290.22 603.25 276.33 573.92 268.75
  Q 566.77 266.90 564.36 265.04
  Q 558.46 260.48 558.44 251.96
  Q 558.34 217.00 558.43 180.54
  A 0.26 0.26 0.0 0 0 558.17 180.28
  L 466.07 180.28
  A 0.52 0.51 -0.5 0 0 465.55 180.80
  Q 465.61 208.68 465.63 249.76
  C 465.63 256.72 464.61 260.81 459.77 265.02
  Q 457.60 266.91 449.80 268.98
  C 422.22 276.30 394.80 289.42 370.07 304.80
  Q 363.46 308.91 360.71 309.54
  C 354.17 311.02 348.42 307.99 343.79 303.34
  Q 321.85 281.29 297.01 256.46
  A 0.53 0.52 44.6 0 0 296.26 256.46
  L 235.49 317.22
  A 0.95 0.94 44.8 0 0 235.50 318.56
  Q 259.92 342.71 284.16 367.34
  C 289.80 373.06 292.25 379.98 287.63 387.14
  Q 281.81 396.16 277.72 404.43
  Q 264.15 431.81 257.92 460.27
  C 256.22 468.00 254.89 472.23 248.44 475.70
  Q 245.89 477.08 240.77 477.08
  Q 177.30 477.05 177.29 477.05
  A 0.46 0.45 3.4 0 0 176.78 477.50
  L 176.79 554.03
  A 0.62 0.62 0.0 0 0 177.41 554.65
  Q 238.96 554.59 242.96 554.63
  C 250.07 554.71 256.00 559.84 257.49 566.76
  Q 266.09 606.70 285.73 639.58
  Q 290.07 646.84 290.37 649.93
  Q 291.10 657.60 285.56 663.08
  Q 260.18 688.18 239.44 709.22
  A 1.41 1.41 0.0 0 0 239.45 711.21
  L 296.57 768.33
  A 1.76 1.76 0.0 0 0 299.06 768.34
  Q 318.14 749.48 344.58 722.58
  C 352.06 714.97 359.33 714.79 367.98 720.91
  C 393.72 739.09 423.04 752.09 453.57 759.12
  Q 460.56 760.73 464.05 767.34
  Q 465.82 770.70 465.62 780.90
  Q 465.55 784.19 465.55 845.11
  A 0.25 0.25 0.0 0 0 465.80 845.36
  L 558.21 845.36
  A 0.23 0.23 0.0 0 0 558.44 845.13
  Q 558.31 808.81 558.45 774.78
  Q 558.48 766.26 565.09 761.30
  Q 567.79 759.27 575.92 757.35
  C 602.28 751.14 629.72 738.65 652.30 723.20
  Q 660.25 717.76 663.45 716.98
  Q 671.58 715.01 678.83 722.19
  Q 725.15 768.01 726.09 769.07
  A 0.89 0.89 0.0 0 0 727.38 769.10
  L 785.44 711.01
  A 1.55 1.54 45.1 0 0 785.44 708.82
  Q 746.00 669.43 742.64 666.25
  Q 736.02 660.00 734.65 656.07
  Q 732.24 649.20 736.40 642.34
  Q 758.68 605.57 766.50 567.76
  C 767.67 562.07 771.31 556.91 776.80 555.24
  Q 778.81 554.63 782.54 554.64
  Q 810.50 554.65 846.62 554.64
  A 0.67 0.66 -90.0 0 0 847.28 553.97
  L 847.28 477.61
  A 0.57 0.57 0.0 0 0 846.71 477.04
  Z"
/>
<path fill="#fdfeff" fill-opacity="0.996" d="
  M 847.28 477.61
  L 847.28 553.97
  A 0.67 0.66 -90.0 0 1 846.62 554.64
  Q 810.50 554.65 782.54 554.64
  Q 778.81 554.63 776.80 555.24
  C 771.31 556.91 767.67 562.07 766.50 567.76
  Q 758.68 605.57 736.40 642.34
  Q 732.24 649.20 734.65 656.07
  Q 736.02 660.00 742.64 666.25
  Q 746.00 669.43 785.44 708.82
  A 1.55 1.54 45.1 0 1 785.44 711.01
  L 727.38 769.10
  A 0.89 0.89 0.0 0 1 726.09 769.07
  Q 725.15 768.01 678.83 722.19
  Q 671.58 715.01 663.45 716.98
  Q 660.25 717.76 652.30 723.20
  C 629.72 738.65 602.28 751.14 575.92 757.35
  Q 567.79 759.27 565.09 761.30
  Q 558.48 766.26 558.45 774.78
  Q 558.31 808.81 558.44 845.13
  A 0.23 0.23 0.0 0 1 558.21 845.36
  L 465.80 845.36
  A 0.25 0.25 0.0 0 1 465.55 845.11
  Q 465.55 784.19 465.62 780.90
  Q 465.82 770.70 464.05 767.34
  Q 460.56 760.73 453.57 759.12
  C 423.04 752.09 393.72 739.09 367.98 720.91
  C 359.33 714.79 352.06 714.97 344.58 722.58
  Q 318.14 749.48 299.06 768.34
  A 1.76 1.76 0.0 0 1 296.57 768.33
  L 239.45 711.21
  A 1.41 1.41 0.0 0 1 239.44 709.22
  Q 260.18 688.18 285.56 663.08
  Q 291.10 657.60 290.37 649.93
  Q 290.07 646.84 285.73 639.58
  Q 266.09 606.70 257.49 566.76
  C 256.00 559.84 250.07 554.71 242.96 554.63
  Q 238.96 554.59 177.41 554.65
  A 0.62 0.62 0.0 0 1 176.79 554.03
  L 176.78 477.50
  A 0.46 0.45 3.4 0 1 177.29 477.05
  Q 177.30 477.05 240.77 477.08
  Q 245.89 477.08 248.44 475.70
  C 254.89 472.23 256.22 468.00 257.92 460.27
  Q 264.15 431.81 277.72 404.43
  Q 281.81 396.16 287.63 387.14
  C 292.25 379.98 289.80 373.06 284.16 367.34
  Q 259.92 342.71 235.50 318.56
  A 0.95 0.94 44.8 0 1 235.49 317.22
  L 296.26 256.46
  A 0.53 0.52 44.6 0 1 297.01 256.46
  Q 321.85 281.29 343.79 303.34
  C 348.42 307.99 354.17 311.02 360.71 309.54
  Q 363.46 308.91 370.07 304.80
  C 394.80 289.42 422.22 276.30 449.80 268.98
  Q 457.60 266.91 459.77 265.02
  C 464.61 260.81 465.63 256.72 465.63 249.76
  Q 465.61 208.68 465.55 180.80
  A 0.52 0.51 -0.5 0 1 466.07 180.28
  L 558.17 180.28
  A 0.26 0.26 0.0 0 1 558.43 180.54
  Q 558.34 217.00 558.44 251.96
  Q 558.46 260.48 564.36 265.04
  Q 566.77 266.90 573.92 268.75
  C 603.25 276.33 631.56 290.22 657.59 306.65
  Q 669.38 314.09 679.44 303.96
  Q 715.70 267.41 726.73 256.55
  A 0.66 0.66 0.0 0 1 727.66 256.55
  L 788.55 317.45
  A 0.67 0.67 0.0 0 1 788.53 318.42
  Q 782.86 323.50 775.29 331.29
  Q 756.94 350.17 742.49 364.37
  C 735.94 370.82 732.46 375.15 734.42 383.21
  Q 734.82 384.84 738.61 390.96
  Q 759.15 424.11 766.87 463.37
  C 768.32 470.73 774.44 477.01 782.24 477.03
  Q 812.70 477.10 846.71 477.04
  A 0.57 0.57 0.0 0 1 847.28 477.61
  Z
  M 178.95 479.09
  Q 178.91 479.05 178.85 479.03
  Q 178.00 478.71 177.99 479.85
  Q 177.71 506.96 177.71 551.81
  A 1.26 1.25 89.6 0 0 178.98 553.07
  Q 201.81 552.72 238.86 552.95
  Q 245.15 552.99 248.34 554.39
  Q 257.05 558.20 259.18 568.30
  Q 265.99 600.70 282.12 630.72
  Q 284.80 635.69 289.67 644.16
  Q 292.25 648.64 291.96 652.27
  C 291.58 657.19 289.08 661.18 285.21 664.92
  Q 280.64 669.32 241.30 708.79
  A 1.87 1.86 45.1 0 0 241.30 711.42
  L 296.89 767.00
  A 1.44 1.44 0.0 0 0 298.94 766.99
  Q 314.56 751.02 345.19 720.47
  Q 354.73 710.95 365.96 718.35
  Q 379.39 727.21 389.81 733.16
  C 407.84 743.46 428.03 751.47 448.66 756.51
  Q 456.66 758.46 460.13 760.99
  Q 467.02 766.01 467.09 776.42
  Q 467.32 815.82 466.86 843.58
  A 0.33 0.32 0.8 0 0 467.19 843.91
  L 556.59 843.91
  A 0.63 0.63 0.0 0 0 557.22 843.29
  Q 557.39 812.13 557.12 776.11
  Q 557.05 765.76 564.87 760.00
  Q 567.35 758.18 574.77 756.34
  Q 618.67 745.48 657.06 718.58
  Q 664.65 713.25 672.16 716.17
  Q 675.79 717.58 681.61 723.36
  Q 722.18 763.66 725.69 767.22
  A 1.30 1.29 -44.5 0 0 727.53 767.23
  L 783.95 710.81
  A 1.24 1.24 0.0 0 0 783.94 709.06
  Q 760.04 685.52 736.95 662.06
  C 731.69 656.71 731.39 648.11 735.19 641.95
  Q 755.10 609.66 763.76 573.81
  Q 766.20 563.69 768.01 560.80
  Q 773.01 552.79 784.47 552.81
  Q 835.17 552.86 845.60 552.99
  A 0.62 0.61 -89.5 0 0 846.22 552.37
  L 846.22 479.70
  A 0.99 0.99 0.0 0 0 845.22 478.71
  Q 810.83 479.03 785.78 478.74
  Q 768.94 478.54 765.61 462.91
  Q 756.63 420.80 735.49 388.29
  Q 730.36 380.40 734.48 372.04
  C 735.90 369.16 738.89 366.30 741.11 364.11
  Q 759.39 346.01 776.93 327.94
  Q 779.64 325.16 786.65 318.57
  A 0.97 0.96 -44.4 0 0 786.67 317.18
  L 727.51 258.02
  A 0.49 0.49 0.0 0 0 726.81 258.02
  Q 693.06 292.00 679.33 305.53
  Q 670.01 314.72 658.68 308.63
  Q 655.13 306.72 653.53 305.71
  Q 618.42 283.55 579.41 271.36
  C 575.95 270.28 569.62 269.41 566.13 267.54
  Q 560.94 264.75 558.38 258.94
  Q 556.92 255.60 557.04 247.37
  Q 557.34 226.69 557.09 182.49
  A 0.53 0.53 0.0 0 0 556.56 181.96
  L 467.29 181.96
  A 0.26 0.25 90.0 0 0 467.04 182.22
  Q 467.20 206.14 467.16 250.04
  Q 467.14 261.69 459.35 266.73
  Q 456.57 268.53 450.93 269.95
  Q 441.19 272.40 432.57 275.57
  Q 404.29 285.97 379.16 300.66
  Q 378.35 301.13 368.62 307.12
  C 362.39 310.95 357.17 312.52 350.64 309.61
  Q 346.61 307.82 344.76 305.97
  Q 307.19 268.46 297.04 258.33
  A 0.78 0.77 44.7 0 0 295.95 258.33
  L 237.40 316.88
  A 1.44 1.44 0.0 0 0 237.41 318.92
  Q 254.35 335.57 283.63 365.16
  Q 289.40 370.99 290.48 374.57
  Q 292.50 381.26 289.04 386.88
  Q 270.44 417.07 261.21 451.48
  C 260.18 455.31 259.41 459.46 258.74 462.74
  C 256.70 472.73 250.76 478.52 239.77 478.62
  Q 211.53 478.88 180.75 478.85
  Q 180.11 478.85 179.67 479.16
  A 0.57 0.57 0.0 0 1 178.95 479.09
  Z"
/>
<path fill="#c1c3c6" d="
  M 179.67 479.16
  Q 180.11 478.85 180.75 478.85
  Q 211.53 478.88 239.77 478.62
  C 250.76 478.52 256.70 472.73 258.74 462.74
  C 259.41 459.46 260.18 455.31 261.21 451.48
  Q 270.44 417.07 289.04 386.88
  Q 292.50 381.26 290.48 374.57
  Q 289.40 370.99 283.63 365.16
  Q 254.35 335.57 237.41 318.92
  A 1.44 1.44 0.0 0 1 237.40 316.88
  L 295.95 258.33
  A 0.78 0.77 44.7 0 1 297.04 258.33
  Q 307.19 268.46 344.76 305.97
  Q 346.61 307.82 350.64 309.61
  C 357.17 312.52 362.39 310.95 368.62 307.12
  Q 378.35 301.13 379.16 300.66
  Q 404.29 285.97 432.57 275.57
  Q 441.19 272.40 450.93 269.95
  Q 456.57 268.53 459.35 266.73
  Q 467.14 261.69 467.16 250.04
  Q 467.20 206.14 467.04 182.22
  A 0.26 0.25 -90.0 0 1 467.29 181.96
  L 556.56 181.96
  A 0.53 0.53 0.0 0 1 557.09 182.49
  Q 557.34 226.69 557.04 247.37
  Q 556.92 255.60 558.38 258.94
  Q 560.94 264.75 566.13 267.54
  C 569.62 269.41 575.95 270.28 579.41 271.36
  Q 618.42 283.55 653.53 305.71
  Q 655.13 306.72 658.68 308.63
  Q 670.01 314.72 679.33 305.53
  Q 693.06 292.00 726.81 258.02
  A 0.49 0.49 0.0 0 1 727.51 258.02
  L 786.67 317.18
  A 0.97 0.96 -44.4 0 1 786.65 318.57
  Q 779.64 325.16 776.93 327.94
  Q 759.39 346.01 741.11 364.11
  C 738.89 366.30 735.90 369.16 734.48 372.04
  Q 730.36 380.40 735.49 388.29
  Q 756.63 420.80 765.61 462.91
  Q 768.94 478.54 785.78 478.74
  Q 810.83 479.03 845.22 478.71
  A 0.99 0.99 0.0 0 1 846.22 479.70
  L 846.22 552.37
  A 0.62 0.61 -89.5 0 1 845.60 552.99
  Q 835.17 552.86 784.47 552.81
  Q 773.01 552.79 768.01 560.80
  Q 766.20 563.69 763.76 573.81
  Q 755.10 609.66 735.19 641.95
  C 731.39 648.11 731.69 656.71 736.95 662.06
  Q 760.04 685.52 783.94 709.06
  A 1.24 1.24 0.0 0 1 783.95 710.81
  L 727.53 767.23
  A 1.30 1.29 -44.5 0 1 725.69 767.22
  Q 722.18 763.66 681.61 723.36
  Q 675.79 717.58 672.16 716.17
  Q 664.65 713.25 657.06 718.58
  Q 618.67 745.48 574.77 756.34
  Q 567.35 758.18 564.87 760.00
  Q 557.05 765.76 557.12 776.11
  Q 557.39 812.13 557.22 843.29
  A 0.63 0.63 0.0 0 1 556.59 843.91
  L 467.19 843.91
  A 0.33 0.32 0.8 0 1 466.86 843.58
  Q 467.32 815.82 467.09 776.42
  Q 467.02 766.01 460.13 760.99
  Q 456.66 758.46 448.66 756.51
  C 428.03 751.47 407.84 743.46 389.81 733.16
  Q 379.39 727.21 365.96 718.35
  Q 354.73 710.95 345.19 720.47
  Q 314.56 751.02 298.94 766.99
  A 1.44 1.44 0.0 0 1 296.89 767.00
  L 241.30 711.42
  A 1.87 1.86 45.1 0 1 241.30 708.79
  Q 280.64 669.32 285.21 664.92
  C 289.08 661.18 291.58 657.19 291.96 652.27
  Q 292.25 648.64 289.67 644.16
  Q 284.80 635.69 282.12 630.72
  Q 265.99 600.70 259.18 568.30
  Q 257.05 558.20 248.34 554.39
  Q 245.15 552.99 238.86 552.95
  Q 201.81 552.72 178.98 553.07
  A 1.26 1.25 89.6 0 1 177.71 551.81
  Q 177.71 506.96 177.99 479.85
  Q 178.00 478.71 178.85 479.03
  Q 178.91 479.05 178.95 479.09
  A 0.57 0.57 0.0 0 0 179.67 479.16
  Z
  M 506.83 656.93
  C 548.18 658.40 586.17 643.29 615.41 613.88
  C 646.29 582.82 661.14 539.59 656.20 496.19
  C 651.26 452.69 625.55 415.08 588.76 392.17
  C 567.86 379.15 542.77 371.25 517.04 370.34
  C 491.31 369.42 465.73 375.52 443.96 387.01
  C 405.62 407.25 377.30 442.93 369.28 485.97
  C 361.27 528.91 373.01 573.09 401.60 606.27
  C 428.67 637.68 465.49 655.46 506.83 656.93
  Z"
/>
<path fill="#fdfeff" fill-opacity="0.996" d="
  M 517.04 370.34
  C 542.77 371.25 567.86 379.15 588.76 392.17
  C 625.55 415.08 651.26 452.69 656.20 496.19
  C 661.14 539.59 646.29 582.82 615.41 613.88
  C 586.17 643.29 548.18 658.40 506.83 656.93
  C 465.49 655.46 428.67 637.68 401.60 606.27
  C 373.01 573.09 361.27 528.91 369.28 485.97
  C 377.30 442.93 405.62 407.25 443.96 387.01
  C 465.73 375.52 491.31 369.42 517.04 370.34
  Z
  M 499.44 655.30
  C 540.30 658.90 578.71 645.91 609.18 618.31
  C 641.37 589.16 658.32 547.12 655.68 503.89
  C 653.04 460.57 629.54 421.99 594.29 397.40
  C 574.27 383.42 549.85 374.30 524.42 372.06
  C 498.99 369.82 473.34 374.53 451.19 384.78
  C 412.18 402.83 382.29 436.69 372.11 478.89
  C 361.95 520.99 371.28 565.34 397.87 599.68
  C 423.04 632.19 458.58 651.70 499.44 655.30
  Z"
/>
<path fill="#000000" d="
  M 499.44 655.30
  C 458.58 651.70 423.04 632.19 397.87 599.68
  C 371.28 565.34 361.95 520.99 372.11 478.89
  C 382.29 436.69 412.18 402.83 451.19 384.78
  C 473.34 374.53 498.99 369.82 524.42 372.06
  C 549.85 374.30 574.27 383.42 594.29 397.40
  C 629.54 421.99 653.04 460.57 655.68 503.89
  C 658.32 547.12 641.37 589.16 609.18 618.31
  C 578.71 645.91 540.30 658.90 499.44 655.30
  Z
  M 460.79 408.48
  Q 451.10 412.81 443.02 418.52
  C 431.04 427.01 419.91 438.04 411.91 450.57
  Q 392.55 480.92 393.95 518.51
  Q 394.22 525.83 395.50 532.98
  Q 402.08 569.94 428.62 596.66
  Q 438.72 606.84 451.51 614.27
  Q 458.78 618.49 463.38 620.17
  A 1.79 1.69 -11.6 0 1 463.93 620.51
  Q 464.32 620.88 464.98 621.13
  Q 476.04 625.34 484.51 627.35
  Q 486.09 627.72 490.02 628.36
  Q 492.08 628.69 495.54 629.24
  Q 499.89 629.92 503.89 630.02
  Q 515.81 630.31 521.25 629.89
  Q 544.01 628.12 564.73 618.17
  Q 569.80 615.73 574.96 612.33
  Q 582.20 607.55 584.62 605.61
  Q 613.78 582.28 624.43 549.50
  Q 636.17 513.35 624.00 475.94
  Q 618.95 460.44 609.29 447.18
  Q 588.74 418.97 556.50 405.97
  Q 547.10 402.18 533.38 399.48
  C 530.65 398.94 528.46 399.17 526.26 398.60
  Q 524.30 398.09 520.87 398.00
  Q 510.19 397.71 500.07 398.06
  A 3.01 0.11 -9.9 0 0 497.88 398.36
  Q 497.04 398.50 493.51 399.01
  Q 476.36 401.52 460.79 408.48
  Z"
/>
</svg>
