<?xml version="1.0" encoding="UTF-8" standalone="no"?>
<!DOCTYPE svg PUBLIC "-//W3C//DTD SVG 1.1//EN" "http://www.w3.org/Graphics/SVG/1.1/DTD/svg11.dtd">
<svg xmlns="http://www.w3.org/2000/svg" version="1.1" viewBox="0.00 0.00 573.00 727.00">
<g stroke-width="2.00" fill="none" stroke-linecap="butt">
<path stroke="#8993a2" vector-effect="non-scaling-stroke" d="
  M 410.75 559.22
  Q 409.58 558.06 408.51 558.29
  Q 406.79 558.65 407.94 559.81"
/>
<path stroke="#0f4075" vector-effect="non-scaling-stroke" d="
  M 103.42 116.52
  Q 105.55 114.60 106.32 111.94"
/>
<path stroke="#0f4075" vector-effect="non-scaling-stroke" d="
  M 245.37 68.90
  A 1.25 1.25 0.0 0 0 246.04 70.73
  Q 274.42 80.39 297.06 99.97
  A 0.99 0.99 0.0 0 0 298.41 99.91
  Q 304.38 93.82 304.47 85.25
  Q 304.62 70.86 295.47 61.60
  C 283.36 49.35 263.49 49.92 251.29 61.82
  Q 247.27 65.74 245.37 68.90"
/>
<path stroke="#8993a2" vector-effect="non-scaling-stroke" d="
  M 92.15 315.40
  Q 91.32 317.29 90.57 319.56
  Q 81.04 348.54 73.75 382.00
  Q 71.59 391.94 69.38 406.92
  C 67.86 417.22 69.52 427.57 78.15 434.33
  C 82.41 437.67 88.80 439.33 94.36 440.90
  Q 102.10 443.08 112.96 445.61
  A 0.52 0.52 0.0 0 0 113.58 444.99
  Q 109.02 425.65 107.40 404.81
  Q 103.58 355.85 110.02 305.35
  A 3.26 3.26 0.0 0 1 113.45 302.51
  L 113.58 302.52
  A 2.94 2.93 5.0 0 1 116.32 305.78
  C 114.69 320.23 113.15 331.92 112.49 344.99
  Q 111.08 372.64 112.88 397.22
  Q 114.22 415.47 118.26 436.87
  C 120.44 448.39 123.82 458.57 127.43 468.92
  Q 131.23 479.79 138.59 493.70
  C 141.87 499.90 146.52 505.96 148.99 510.89
  A 1.49 1.48 56.5 0 1 148.63 512.68
  Q 147.77 513.41 147.01 514.78
  A 2.19 2.14 61.2 0 0 146.74 515.75
  C 145.45 542.97 144.16 568.70 145.35 595.56
  Q 145.67 602.98 150.52 608.60
  A 0.98 0.98 0.0 0 0 152.16 608.34
  C 154.57 602.71 157.70 597.37 163.96 595.92
  Q 174.43 593.51 179.30 602.08
  A 0.77 0.77 0.0 0 0 180.63 602.09
  Q 183.66 596.89 189.26 595.91
  C 201.63 593.74 210.14 604.73 211.41 616.23
  A 0.95 0.94 84.7 0 0 212.42 617.07
  Q 218.92 616.59 224.78 615.80
  Q 240.52 613.67 244.33 598.13
  Q 247.53 585.04 247.59 570.37
  A 0.68 0.67 -88.7 0 0 246.95 569.69
  Q 232.09 568.89 217.23 565.27
  A 3.26 3.25 12.4 0 1 214.80 561.48
  L 214.83 561.33
  A 3.02 2.99 12.0 0 1 218.45 559.00
  L 228.36 561.25"
/>
<path stroke="#0f4075" vector-effect="non-scaling-stroke" d="
  M 228.36 561.25
  Q 240.08 563.88 253.25 564.02
  Q 265.61 564.14 279.04 563.77
  A 1.35 1.35 0.0 0 0 280.35 562.51
  L 281.02 552.44
  A 1.63 1.62 -5.6 0 1 282.22 550.99
  Q 284.96 550.25 286.80 551.35"
/>
<path stroke="#8993a2" vector-effect="non-scaling-stroke" d="
  M 286.80 551.35
  C 285.85 565.60 285.09 580.23 287.13 594.60
  Q 288.29 602.80 293.91 608.80
  A 0.92 0.92 0.0 0 0 295.40 608.59
  C 299.83 600.06 304.57 594.32 315.14 595.59
  Q 321.88 596.39 325.11 602.50
  A 0.83 0.83 0.0 0 0 326.56 602.54
  C 330.45 595.94 336.75 594.73 343.88 596.18
  C 352.74 597.98 358.96 607.79 359.61 616.33
  A 0.79 0.79 0.0 0 0 360.43 617.06
  Q 368.30 616.68 376.29 615.52
  Q 388.30 613.78 393.80 603.93
  Q 396.02 599.96 397.43 591.47
  Q 398.65 584.17 399.31 578.50
  Q 401.96 555.80 405.06 515.32
  A 3.03 3.02 2.3 0 1 408.10 512.52
  L 408.30 512.51
  A 2.61 2.61 0.0 0 1 410.97 515.29
  L 408.58 551.16
  A 1.32 1.31 -81.0 0 0 409.56 552.52
  Q 448.52 562.82 485.15 557.24
  C 496.12 555.57 504.22 553.27 511.32 545.56
  C 517.71 538.62 514.92 528.98 509.67 522.33
  Q 496.62 505.79 488.05 494.28
  Q 458.54 454.63 435.10 412.46
  A 0.16 0.16 0.0 0 0 434.80 412.51
  C 434.57 413.94 434.80 415.66 434.70 416.80
  Q 433.29 432.55 421.00 440.53
  C 416.76 443.28 408.81 446.19 403.87 447.39
  Q 388.79 451.05 371.66 453.92
  Q 354.56 456.78 338.26 456.33
  Q 335.73 456.26 332.92 455.85"
/>
<path stroke="#0f4075" vector-effect="non-scaling-stroke" d="
  M 332.92 455.85
  C 322.03 451.11 317.25 441.03 314.78 429.75
  Q 311.21 413.39 305.75 394.99
  C 297.88 368.45 288.75 341.85 276.48 317.00
  Q 276.36 316.76 276.11 316.67"
/>
<path stroke="#8993a2" vector-effect="non-scaling-stroke" d="
  M 276.11 316.67
  L 270.27 307.09
  A 3.21 3.12 54.8 0 1 270.92 302.97
  L 271.01 302.90
  A 2.82 2.81 51.9 0 1 275.02 303.39
  C 280.96 311.17 284.43 319.26 288.94 328.85
  Q 292.92 337.30 300.27 358.15
  Q 313.10 394.54 321.60 431.62
  C 323.13 438.27 327.74 448.67 335.35 449.67
  Q 343.09 450.69 351.81 449.79
  A 0.72 0.71 89.1 0 0 352.45 449.12
  C 352.98 440.76 358.14 431.72 366.69 430.39
  Q 375.37 429.03 380.91 434.93
  A 0.42 0.42 0.0 0 0 381.61 434.80
  Q 384.07 428.67 390.54 426.51
  Q 401.06 423.01 409.17 430.23
  C 411.07 431.91 412.39 434.15 413.87 436.51
  A 1.08 1.07 -31.0 0 0 415.32 436.87
  Q 429.25 428.97 428.33 412.50
  C 427.42 396.05 422.80 379.68 419.28 364.07
  C 415.93 349.28 412.16 336.73 407.93 322.06
  Q 403.98 308.37 396.06 287.66
  C 393.29 280.44 389.97 275.25 387.70 268.27
  Q 383.62 255.72 377.90 240.07
  Q 364.92 204.50 346.14 171.63
  Q 329.49 142.50 308.13 119.39
  C 293.44 103.50 276.62 90.83 256.49 81.43
  Q 250.47 78.62 242.70 76.23
  Q 232.82 73.19 228.47 72.31
  Q 190.54 64.61 156.13 78.37
  Q 142.87 83.67 130.22 93.94
  C 127.54 96.12 126.02 98.08 123.48 100.30
  Q 121.43 102.10 118.74 105.41
  C 107.24 119.56 100.84 137.03 100.37 155.49
  Q 100.09 166.78 101.57 175.24
  Q 107.29 207.86 130.05 233.45
  C 131.92 235.54 132.01 237.44 129.23 238.73
  Q 126.86 239.83 125.78 241.50
  Q 120.86 249.06 115.28 260.63
  C 114.57 262.11 113.53 263.60 112.89 264.88
  Q 101.99 287.07 94.07 310.02"
/>
<path stroke="#85acd2" vector-effect="non-scaling-stroke" d="
  M 276.11 316.67
  Q 275.73 316.72 275.48 316.52
  Q 268.12 310.78 260.52 306.50
  C 237.55 293.58 200.26 293.33 178.38 309.06
  Q 166.39 317.67 159.68 329.69
  C 147.27 351.89 144.73 376.78 145.96 402.74
  C 147.45 434.17 155.19 464.46 167.76 493.19
  C 177.19 514.72 191.56 537.45 210.42 551.09
  Q 216.72 555.65 228.36 561.25"
/>
<path stroke="#85acd2" vector-effect="non-scaling-stroke" d="
  M 332.92 455.85
  C 333.30 470.33 331.74 485.21 327.44 498.41
  Q 321.94 515.22 308.63 529.37
  C 304.08 534.21 293.53 542.80 286.80 551.35"
/>
<path stroke="#0f4075" vector-effect="non-scaling-stroke" d="
  M 340.64 150.42
  A 0.65 0.65 0.0 0 0 341.51 150.60
  C 351.53 144.48 356.93 134.18 356.05 122.47
  C 354.97 107.91 345.28 96.75 331.00 93.10
  Q 322.58 90.94 312.49 93.97
  Q 309.75 94.79 308.57 96.38
  Q 304.24 102.19 302.72 104.28
  A 0.82 0.81 -50.6 0 0 302.82 105.36
  Q 319.26 120.62 332.77 139.46
  Q 340.11 149.71 340.64 150.42"
/>
<path stroke="#0f4075" vector-effect="non-scaling-stroke" d="
  M 344.55 156.48
  Q 344.77 157.18 345.26 157.98
  Q 360.92 183.55 372.08 209.13
  A 1.10 1.10 0.0 0 0 373.70 209.61
  Q 378.71 206.25 382.34 202.11
  C 387.26 196.49 388.65 190.47 388.83 182.80
  C 389.28 164.43 376.96 152.15 359.48 149.31
  Q 356.44 148.81 354.19 149.08
  A 2.88 2.86 22.7 0 0 352.74 149.67
  L 344.74 155.88
  A 0.56 0.55 63.2 0 0 344.55 156.48"
/>
<path stroke="#0f4075" vector-effect="non-scaling-stroke" d="
  M 375.08 215.40
  L 397.49 276.29
  A 0.23 0.23 0.0 0 0 397.78 276.42
  L 397.88 276.38
  A 32.62 32.25 -20.2 0 0 417.36 234.85
  L 417.07 234.07
  A 32.62 32.25 -20.2 0 0 375.32 215.06
  L 375.22 215.10
  A 0.23 0.23 0.0 0 0 375.08 215.40"
/>
<path stroke="#8993a2" vector-effect="non-scaling-stroke" d="
  M 386.66 445.20
  L 407.60 439.59
  A 0.13 0.13 0.0 0 0 407.69 439.43
  L 407.67 439.34
  A 10.96 10.68 -15.0 0 0 394.32 431.86
  L 394.30 431.87
  A 10.96 10.68 -15.0 0 0 386.48 445.02
  L 386.50 445.11
  A 0.13 0.13 0.0 0 0 386.66 445.20"
/>
<path stroke="#8993a2" vector-effect="non-scaling-stroke" d="
  M 359.69 449.28
  L 380.08 446.41
  A 0.28 0.28 0.0 0 0 380.32 446.10
  L 380.29 445.89
  A 10.65 10.58 82.0 0 0 368.33 436.81
  A 10.65 10.58 82.0 0 0 359.34 448.83
  L 359.37 449.04
  A 0.28 0.28 0.0 0 0 359.69 449.28"
/>
<path stroke="#8993a2" vector-effect="non-scaling-stroke" d="
  M 158.57 613.87
  L 174.37 616.97
  A 1.38 1.38 0.0 0 0 175.99 615.88
  L 176.03 615.67
  A 12.14 9.37 -78.9 0 0 169.17 601.95
  L 169.05 601.93
  A 12.14 9.37 -78.9 0 0 157.52 612.04
  L 157.48 612.25
  A 1.38 1.38 0.0 0 0 158.57 613.87"
/>
<path stroke="#8993a2" vector-effect="non-scaling-stroke" d="
  M 302.29 613.89
  L 320.37 617.01
  A 1.29 1.29 0.0 0 0 321.86 615.96
  L 321.88 615.79
  A 12.30 10.38 -80.2 0 0 313.75 601.90
  L 313.59 601.88
  A 12.30 10.38 -80.2 0 0 301.27 612.23
  L 301.24 612.40
  A 1.29 1.29 0.0 0 0 302.29 613.89"
/>
<path stroke="#8993a2" vector-effect="non-scaling-stroke" d="
  M 182.46 616.68
  L 204.38 616.48
  A 0.22 0.22 0.0 0 0 204.60 616.26
  L 204.60 616.04
  A 13.96 11.10 89.5 0 0 193.38 602.18
  L 193.22 602.18
  A 13.96 11.10 89.5 0 0 182.24 616.24
  L 182.24 616.46
  A 0.22 0.22 0.0 0 0 182.46 616.68"
/>
<path stroke="#8993a2" vector-effect="non-scaling-stroke" d="
  M 328.26 616.66
  L 352.50 616.50
  A 0.21 0.21 0.0 0 0 352.71 616.28
  L 352.71 616.09
  A 14.08 12.25 89.6 0 0 340.36 602.10
  L 340.20 602.10
  A 14.08 12.25 89.6 0 0 328.05 616.27
  L 328.05 616.46
  A 0.21 0.21 0.0 0 0 328.26 616.66"
/>
<path stroke="#8993a2" vector-effect="non-scaling-stroke" d="
  M 172.88 113.58
  A 11.81 11.81 0.0 0 0 161.07 101.77
  A 11.81 11.81 0.0 0 0 149.26 113.58
  A 11.81 11.81 0.0 0 0 161.07 125.39
  A 11.81 11.81 0.0 0 0 172.88 113.58"
/>
<path stroke="#8993a2" vector-effect="non-scaling-stroke" d="
  M 241.89 120.78
  A 12.22 12.22 0.0 0 0 229.67 108.56
  A 12.22 12.22 0.0 0 0 217.45 120.78
  A 12.22 12.22 0.0 0 0 229.67 133.00
  A 12.22 12.22 0.0 0 0 241.89 120.78"
/>
<path stroke="#8993a2" vector-effect="non-scaling-stroke" d="
  M 147.56 143.31
  Q 167.54 148.30 187.76 150.06
  A 1.19 1.18 88.5 0 1 188.83 151.08
  C 189.95 159.46 195.28 167.90 204.93 166.88
  Q 211.18 166.22 214.58 160.96
  A 0.72 0.72 0.0 0 1 215.79 160.97
  Q 219.43 166.76 225.53 167.03
  C 234.34 167.42 237.86 159.75 238.72 152.38
  C 239.03 149.75 240.75 149.63 242.86 150.34"
/>
<path stroke="#85acd2" vector-effect="non-scaling-stroke" d="
  M 242.86 150.34
  C 250.10 165.20 267.74 169.79 280.47 158.98
  C 288.39 152.25 291.22 140.02 286.41 130.57
  Q 278.99 116.00 262.45 117.02
  Q 255.01 117.47 248.99 122.99
  C 242.67 128.77 240.75 135.80 241.33 144.12"
/>
<path stroke="#8993a2" vector-effect="non-scaling-stroke" d="
  M 241.33 144.12
  Q 212.56 146.42 187.00 144.04
  Q 169.14 142.37 148.95 136.87"
/>
<path stroke="#85acd2" vector-effect="non-scaling-stroke" d="
  M 148.95 136.87
  C 150.61 126.02 146.60 115.13 136.65 110.74
  Q 126.82 106.41 118.18 113.34
  Q 111.85 118.42 109.88 125.60
  C 107.86 133.00 108.32 141.60 112.93 148.27
  C 123.05 162.89 140.94 158.07 147.56 143.31"
/>
<path stroke="#0f4075" vector-effect="non-scaling-stroke" d="
  M 148.95 136.87
  Q 145.85 136.09 142.52 135.54
  Q 138.91 134.95 138.64 138.12
  A 2.33 2.33 0.0 0 0 140.14 140.50
  L 147.56 143.31"
/>
<path stroke="#0f4075" vector-effect="non-scaling-stroke" d="
  M 242.86 150.34
  Q 244.38 149.75 245.51 149.35
  A 2.70 2.70 0.0 0 0 247.16 145.95
  C 246.43 143.76 243.11 144.12 241.33 144.12"
/>
<path stroke="#8993a2" vector-effect="non-scaling-stroke" d="
  M 211.50 152.60
  L 195.73 151.31
  A 0.13 0.13 0.0 0 0 195.59 151.43
  L 195.59 151.48
  A 8.44 7.96 -85.3 0 0 202.83 160.54
  L 202.99 160.55
  A 8.44 7.96 -85.3 0 0 211.61 152.79
  L 211.62 152.74
  A 0.13 0.13 0.0 0 0 211.50 152.60"
/>
<path stroke="#8993a2" vector-effect="non-scaling-stroke" d="
  M 232.09 152.15
  L 220.00 152.74
  A 0.22 0.22 0.0 0 0 219.80 152.97
  L 219.81 153.18
  A 7.87 6.26 87.2 0 0 226.44 160.74
  L 226.46 160.73
  A 7.87 6.26 87.2 0 0 232.33 152.57
  L 232.32 152.36
  A 0.22 0.22 0.0 0 0 232.09 152.15"
/>
</g>
<path fill="#122644" d="
  M 410.75 559.22
  Q 409.58 558.06 408.51 558.29
  Q 406.79 558.65 407.94 559.81
  Q 407.62 560.12 407.60 560.50
  Q 406.84 572.45 405.02 583.89
  Q 402.27 601.14 399.41 606.62
  C 392.63 619.58 378.67 622.72 364.58 623.31
  Q 346.42 624.06 331.50 623.78
  C 318.68 623.54 305.06 622.38 293.82 616.04
  C 285.48 611.34 281.95 604.23 280.74 594.80
  Q 279.45 584.79 279.64 570.18
  A 0.86 0.86 0.0 0 0 278.75 569.31
  L 254.49 570.18
  A 0.62 0.61 89.5 0 0 253.90 570.79
  C 253.56 584.21 253.04 598.26 245.83 609.68
  C 239.10 620.35 227.26 622.65 215.21 623.29
  Q 198.78 624.16 183.27 623.64
  C 162.77 622.97 139.31 618.83 138.48 593.01
  C 137.61 565.90 138.78 539.94 140.59 511.34
  A 5.67 5.65 30.7 0 0 139.72 507.94
  Q 123.66 482.71 115.68 452.78
  A 1.60 1.60 0.0 0 0 114.31 451.60
  Q 99.10 449.85 85.39 444.86
  C 81.19 443.33 75.41 440.78 72.06 437.33
  C 60.89 425.80 61.38 412.94 64.20 398.20
  Q 67.46 381.17 69.90 369.89
  Q 73.39 353.79 81.49 326.46
  Q 86.03 311.15 97.00 283.87
  C 100.45 275.29 103.65 268.99 108.37 259.34
  Q 114.14 247.50 121.81 235.37
  A 1.64 1.64 0.0 0 0 121.68 233.44
  Q 100.20 207.49 95.18 174.72
  Q 93.18 161.72 94.41 149.79
  Q 95.79 136.38 99.62 125.36
  Q 100.28 123.47 103.42 116.52
  Q 105.55 114.60 106.32 111.94
  Q 108.59 109.10 110.61 105.92
  Q 113.13 101.95 114.88 99.96
  C 130.22 82.51 149.36 71.99 172.22 66.56
  C 178.07 65.17 184.68 64.68 190.77 63.86
  Q 197.14 63.00 206.24 63.42
  Q 223.05 64.19 238.27 67.95
  A 1.33 1.33 0.0 0 0 239.73 67.35
  C 241.36 64.68 242.72 62.00 244.83 59.55
  Q 258.01 44.26 278.91 46.85
  C 291.97 48.46 301.96 56.69 307.56 68.43
  Q 311.68 77.09 310.45 86.55
  A 0.87 0.86 -3.4 0 0 311.53 87.50
  C 328.90 83.01 345.85 88.59 356.15 103.36
  C 363.43 113.81 364.23 130.39 358.25 141.56
  A 1.03 1.02 17.3 0 0 359.04 143.06
  Q 378.84 145.30 388.50 160.06
  C 397.70 174.10 397.69 191.51 387.53 205.36
  A 0.94 0.94 0.0 0 0 388.24 206.85
  C 396.90 207.24 407.48 211.36 413.54 217.53
  C 431.40 235.68 429.67 264.93 406.96 278.51
  Q 405.00 279.68 401.49 281.35
  A 1.46 1.45 64.8 0 0 400.80 283.29
  Q 404.88 291.99 407.56 300.18
  Q 411.69 312.80 416.33 327.55
  C 419.12 336.40 420.93 345.44 423.71 355.28
  C 427.13 367.38 430.04 380.96 431.64 390.38
  C 432.48 395.39 436.56 402.15 438.27 405.22
  Q 471.19 464.22 514.07 517.43
  Q 517.68 521.91 520.65 530.74
  Q 523.23 538.39 518.62 545.94
  C 513.29 554.68 505.41 558.38 496.07 561.38
  Q 491.06 563.00 485.86 563.75
  Q 454.05 568.39 422.38 561.94
  C 419.31 561.32 414.78 559.68 410.75 559.22
  Z
  M 245.37 68.90
  A 1.25 1.25 0.0 0 0 246.04 70.73
  Q 274.42 80.39 297.06 99.97
  A 0.99 0.99 0.0 0 0 298.41 99.91
  Q 304.38 93.82 304.47 85.25
  Q 304.62 70.86 295.47 61.60
  C 283.36 49.35 263.49 49.92 251.29 61.82
  Q 247.27 65.74 245.37 68.90
  Z
  M 94.07 310.02
  Q 92.04 312.62 92.15 315.40
  Q 91.32 317.29 90.57 319.56
  Q 81.04 348.54 73.75 382.00
  Q 71.59 391.94 69.38 406.92
  C 67.86 417.22 69.52 427.57 78.15 434.33
  C 82.41 437.67 88.80 439.33 94.36 440.90
  Q 102.10 443.08 112.96 445.61
  A 0.52 0.52 0.0 0 0 113.58 444.99
  Q 109.02 425.65 107.40 404.81
  Q 103.58 355.85 110.02 305.35
  A 3.26 3.26 0.0 0 1 113.45 302.51
  L 113.58 302.52
  A 2.94 2.93 5.0 0 1 116.32 305.78
  C 114.69 320.23 113.15 331.92 112.49 344.99
  Q 111.08 372.64 112.88 397.22
  Q 114.22 415.47 118.26 436.87
  C 120.44 448.39 123.82 458.57 127.43 468.92
  Q 131.23 479.79 138.59 493.70
  C 141.87 499.90 146.52 505.96 148.99 510.89
  A 1.49 1.48 56.5 0 1 148.63 512.68
  Q 147.77 513.41 147.01 514.78
  A 2.19 2.14 61.2 0 0 146.74 515.75
  C 145.45 542.97 144.16 568.70 145.35 595.56
  Q 145.67 602.98 150.52 608.60
  A 0.98 0.98 0.0 0 0 152.16 608.34
  C 154.57 602.71 157.70 597.37 163.96 595.92
  Q 174.43 593.51 179.30 602.08
  A 0.77 0.77 0.0 0 0 180.63 602.09
  Q 183.66 596.89 189.26 595.91
  C 201.63 593.74 210.14 604.73 211.41 616.23
  A 0.95 0.94 84.7 0 0 212.42 617.07
  Q 218.92 616.59 224.78 615.80
  Q 240.52 613.67 244.33 598.13
  Q 247.53 585.04 247.59 570.37
  A 0.68 0.67 -88.7 0 0 246.95 569.69
  Q 232.09 568.89 217.23 565.27
  A 3.26 3.25 12.4 0 1 214.80 561.48
  L 214.83 561.33
  A 3.02 2.99 12.0 0 1 218.45 559.00
  L 228.36 561.25
  Q 240.08 563.88 253.25 564.02
  Q 265.61 564.14 279.04 563.77
  A 1.35 1.35 0.0 0 0 280.35 562.51
  L 281.02 552.44
  A 1.63 1.62 -5.6 0 1 282.22 550.99
  Q 284.96 550.25 286.80 551.35
  C 285.85 565.60 285.09 580.23 287.13 594.60
  Q 288.29 602.80 293.91 608.80
  A 0.92 0.92 0.0 0 0 295.40 608.59
  C 299.83 600.06 304.57 594.32 315.14 595.59
  Q 321.88 596.39 325.11 602.50
  A 0.83 0.83 0.0 0 0 326.56 602.54
  C 330.45 595.94 336.75 594.73 343.88 596.18
  C 352.74 597.98 358.96 607.79 359.61 616.33
  A 0.79 0.79 0.0 0 0 360.43 617.06
  Q 368.30 616.68 376.29 615.52
  Q 388.30 613.78 393.80 603.93
  Q 396.02 599.96 397.43 591.47
  Q 398.65 584.17 399.31 578.50
  Q 401.96 555.80 405.06 515.32
  A 3.03 3.02 2.3 0 1 408.10 512.52
  L 408.30 512.51
  A 2.61 2.61 0.0 0 1 410.97 515.29
  L 408.58 551.16
  A 1.32 1.31 -81.0 0 0 409.56 552.52
  Q 448.52 562.82 485.15 557.24
  C 496.12 555.57 504.22 553.27 511.32 545.56
  C 517.71 538.62 514.92 528.98 509.67 522.33
  Q 496.62 505.79 488.05 494.28
  Q 458.54 454.63 435.10 412.46
  A 0.16 0.16 0.0 0 0 434.80 412.51
  C 434.57 413.94 434.80 415.66 434.70 416.80
  Q 433.29 432.55 421.00 440.53
  C 416.76 443.28 408.81 446.19 403.87 447.39
  Q 388.79 451.05 371.66 453.92
  Q 354.56 456.78 338.26 456.33
  Q 335.73 456.26 332.92 455.85
  C 322.03 451.11 317.25 441.03 314.78 429.75
  Q 311.21 413.39 305.75 394.99
  C 297.88 368.45 288.75 341.85 276.48 317.00
  Q 276.36 316.76 276.11 316.67
  L 270.27 307.09
  A 3.21 3.12 54.8 0 1 270.92 302.97
  L 271.01 302.90
  A 2.82 2.81 51.9 0 1 275.02 303.39
  C 280.96 311.17 284.43 319.26 288.94 328.85
  Q 292.92 337.30 300.27 358.15
  Q 313.10 394.54 321.60 431.62
  C 323.13 438.27 327.74 448.67 335.35 449.67
  Q 343.09 450.69 351.81 449.79
  A 0.72 0.71 89.1 0 0 352.45 449.12
  C 352.98 440.76 358.14 431.72 366.69 430.39
  Q 375.37 429.03 380.91 434.93
  A 0.42 0.42 0.0 0 0 381.61 434.80
  Q 384.07 428.67 390.54 426.51
  Q 401.06 423.01 409.17 430.23
  C 411.07 431.91 412.39 434.15 413.87 436.51
  A 1.08 1.07 -31.0 0 0 415.32 436.87
  Q 429.25 428.97 428.33 412.50
  C 427.42 396.05 422.80 379.68 419.28 364.07
  C 415.93 349.28 412.16 336.73 407.93 322.06
  Q 403.98 308.37 396.06 287.66
  C 393.29 280.44 389.97 275.25 387.70 268.27
  Q 383.62 255.72 377.90 240.07
  Q 364.92 204.50 346.14 171.63
  Q 329.49 142.50 308.13 119.39
  C 293.44 103.50 276.62 90.83 256.49 81.43
  Q 250.47 78.62 242.70 76.23
  Q 232.82 73.19 228.47 72.31
  Q 190.54 64.61 156.13 78.37
  Q 142.87 83.67 130.22 93.94
  C 127.54 96.12 126.02 98.08 123.48 100.30
  Q 121.43 102.10 118.74 105.41
  C 107.24 119.56 100.84 137.03 100.37 155.49
  Q 100.09 166.78 101.57 175.24
  Q 107.29 207.86 130.05 233.45
  C 131.92 235.54 132.01 237.44 129.23 238.73
  Q 126.86 239.83 125.78 241.50
  Q 120.86 249.06 115.28 260.63
  C 114.57 262.11 113.53 263.60 112.89 264.88
  Q 101.99 287.07 94.07 310.02
  Z
  M 340.64 150.42
  A 0.65 0.65 0.0 0 0 341.51 150.60
  C 351.53 144.48 356.93 134.18 356.05 122.47
  C 354.97 107.91 345.28 96.75 331.00 93.10
  Q 322.58 90.94 312.49 93.97
  Q 309.75 94.79 308.57 96.38
  Q 304.24 102.19 302.72 104.28
  A 0.82 0.81 -50.6 0 0 302.82 105.36
  Q 319.26 120.62 332.77 139.46
  Q 340.11 149.71 340.64 150.42
  Z
  M 344.55 156.48
  Q 344.77 157.18 345.26 157.98
  Q 360.92 183.55 372.08 209.13
  A 1.10 1.10 0.0 0 0 373.70 209.61
  Q 378.71 206.25 382.34 202.11
  C 387.26 196.49 388.65 190.47 388.83 182.80
  C 389.28 164.43 376.96 152.15 359.48 149.31
  Q 356.44 148.81 354.19 149.08
  A 2.88 2.86 22.7 0 0 352.74 149.67
  L 344.74 155.88
  A 0.56 0.55 63.2 0 0 344.55 156.48
  Z
  M 375.08 215.40
  L 397.49 276.29
  A 0.23 0.23 0.0 0 0 397.78 276.42
  L 397.88 276.38
  A 32.62 32.25 -20.2 0 0 417.36 234.85
  L 417.07 234.07
  A 32.62 32.25 -20.2 0 0 375.32 215.06
  L 375.22 215.10
  A 0.23 0.23 0.0 0 0 375.08 215.40
  Z
  M 386.66 445.20
  L 407.60 439.59
  A 0.13 0.13 0.0 0 0 407.69 439.43
  L 407.67 439.34
  A 10.96 10.68 -15.0 0 0 394.32 431.86
  L 394.30 431.87
  A 10.96 10.68 -15.0 0 0 386.48 445.02
  L 386.50 445.11
  A 0.13 0.13 0.0 0 0 386.66 445.20
  Z
  M 359.69 449.28
  L 380.08 446.41
  A 0.28 0.28 0.0 0 0 380.32 446.10
  L 380.29 445.89
  A 10.65 10.58 82.0 0 0 368.33 436.81
  A 10.65 10.58 82.0 0 0 359.34 448.83
  L 359.37 449.04
  A 0.28 0.28 0.0 0 0 359.69 449.28
  Z
  M 158.57 613.87
  L 174.37 616.97
  A 1.38 1.38 0.0 0 0 175.99 615.88
  L 176.03 615.67
  A 12.14 9.37 -78.9 0 0 169.17 601.95
  L 169.05 601.93
  A 12.14 9.37 -78.9 0 0 157.52 612.04
  L 157.48 612.25
  A 1.38 1.38 0.0 0 0 158.57 613.87
  Z
  M 302.29 613.89
  L 320.37 617.01
  A 1.29 1.29 0.0 0 0 321.86 615.96
  L 321.88 615.79
  A 12.30 10.38 -80.2 0 0 313.75 601.90
  L 313.59 601.88
  A 12.30 10.38 -80.2 0 0 301.27 612.23
  L 301.24 612.40
  A 1.29 1.29 0.0 0 0 302.29 613.89
  Z
  M 182.46 616.68
  L 204.38 616.48
  A 0.22 0.22 0.0 0 0 204.60 616.26
  L 204.60 616.04
  A 13.96 11.10 89.5 0 0 193.38 602.18
  L 193.22 602.18
  A 13.96 11.10 89.5 0 0 182.24 616.24
  L 182.24 616.46
  A 0.22 0.22 0.0 0 0 182.46 616.68
  Z
  M 328.26 616.66
  L 352.50 616.50
  A 0.21 0.21 0.0 0 0 352.71 616.28
  L 352.71 616.09
  A 14.08 12.25 89.6 0 0 340.36 602.10
  L 340.20 602.10
  A 14.08 12.25 89.6 0 0 328.05 616.27
  L 328.05 616.46
  A 0.21 0.21 0.0 0 0 328.26 616.66
  Z"
/>
<path fill="#0b59a5" d="
  M 245.37 68.90
  Q 247.27 65.74 251.29 61.82
  C 263.49 49.92 283.36 49.35 295.47 61.60
  Q 304.62 70.86 304.47 85.25
  Q 304.38 93.82 298.41 99.91
  A 0.99 0.99 0.0 0 1 297.06 99.97
  Q 274.42 80.39 246.04 70.73
  A 1.25 1.25 0.0 0 1 245.37 68.90
  Z"
/>
<path fill="#ffffff" d="
  M 276.11 316.67
  Q 275.73 316.72 275.48 316.52
  Q 268.12 310.78 260.52 306.50
  C 237.55 293.58 200.26 293.33 178.38 309.06
  Q 166.39 317.67 159.68 329.69
  C 147.27 351.89 144.73 376.78 145.96 402.74
  C 147.45 434.17 155.19 464.46 167.76 493.19
  C 177.19 514.72 191.56 537.45 210.42 551.09
  Q 216.72 555.65 228.36 561.25
  L 218.45 559.00
  A 3.02 2.99 12.0 0 0 214.83 561.33
  L 214.80 561.48
  A 3.26 3.25 12.4 0 0 217.23 565.27
  Q 232.09 568.89 246.95 569.69
  A 0.68 0.67 -88.7 0 1 247.59 570.37
  Q 247.53 585.04 244.33 598.13
  Q 240.52 613.67 224.78 615.80
  Q 218.92 616.59 212.42 617.07
  A 0.95 0.94 84.7 0 1 211.41 616.23
  C 210.14 604.73 201.63 593.74 189.26 595.91
  Q 183.66 596.89 180.63 602.09
  A 0.77 0.77 0.0 0 1 179.30 602.08
  Q 174.43 593.51 163.96 595.92
  C 157.70 597.37 154.57 602.71 152.16 608.34
  A 0.98 0.98 0.0 0 1 150.52 608.60
  Q 145.67 602.98 145.35 595.56
  C 144.16 568.70 145.45 542.97 146.74 515.75
  A 2.19 2.14 61.2 0 1 147.01 514.78
  Q 147.77 513.41 148.63 512.68
  A 1.49 1.48 56.5 0 0 148.99 510.89
  C 146.52 505.96 141.87 499.90 138.59 493.70
  Q 131.23 479.79 127.43 468.92
  C 123.82 458.57 120.44 448.39 118.26 436.87
  Q 114.22 415.47 112.88 397.22
  Q 111.08 372.64 112.49 344.99
  C 113.15 331.92 114.69 320.23 116.32 305.78
  A 2.94 2.93 5.0 0 0 113.58 302.52
  L 113.45 302.51
  A 3.26 3.26 0.0 0 0 110.02 305.35
  Q 103.58 355.85 107.40 404.81
  Q 109.02 425.65 113.58 444.99
  A 0.52 0.52 0.0 0 1 112.96 445.61
  Q 102.10 443.08 94.36 440.90
  C 88.80 439.33 82.41 437.67 78.15 434.33
  C 69.52 427.57 67.86 417.22 69.38 406.92
  Q 71.59 391.94 73.75 382.00
  Q 81.04 348.54 90.57 319.56
  Q 91.32 317.29 92.15 315.40
  Q 93.89 313.21 94.07 310.02
  Q 101.99 287.07 112.89 264.88
  C 113.53 263.60 114.57 262.11 115.28 260.63
  Q 120.86 249.06 125.78 241.50
  Q 126.86 239.83 129.23 238.73
  C 132.01 237.44 131.92 235.54 130.05 233.45
  Q 107.29 207.86 101.57 175.24
  Q 100.09 166.78 100.37 155.49
  C 100.84 137.03 107.24 119.56 118.74 105.41
  Q 121.43 102.10 123.48 100.30
  C 126.02 98.08 127.54 96.12 130.22 93.94
  Q 142.87 83.67 156.13 78.37
  Q 190.54 64.61 228.47 72.31
  Q 232.82 73.19 242.70 76.23
  Q 250.47 78.62 256.49 81.43
  C 276.62 90.83 293.44 103.50 308.13 119.39
  Q 329.49 142.50 346.14 171.63
  Q 364.92 204.50 377.90 240.07
  Q 383.62 255.72 387.70 268.27
  C 389.97 275.25 393.29 280.44 396.06 287.66
  Q 403.98 308.37 407.93 322.06
  C 412.16 336.73 415.93 349.28 419.28 364.07
  C 422.80 379.68 427.42 396.05 428.33 412.50
  Q 429.25 428.97 415.32 436.87
  A 1.08 1.07 -31.0 0 1 413.87 436.51
  C 412.39 434.15 411.07 431.91 409.17 430.23
  Q 401.06 423.01 390.54 426.51
  Q 384.07 428.67 381.61 434.80
  A 0.42 0.42 0.0 0 1 380.91 434.93
  Q 375.37 429.03 366.69 430.39
  C 358.14 431.72 352.98 440.76 352.45 449.12
  A 0.72 0.71 89.1 0 1 351.81 449.79
  Q 343.09 450.69 335.35 449.67
  C 327.74 448.67 323.13 438.27 321.60 431.62
  Q 313.10 394.54 300.27 358.15
  Q 292.92 337.30 288.94 328.85
  C 284.43 319.26 280.96 311.17 275.02 303.39
  A 2.82 2.81 51.9 0 0 271.01 302.90
  L 270.92 302.97
  A 3.21 3.12 54.8 0 0 270.27 307.09
  L 276.11 316.67
  Z
  M 172.88 113.58
  A 11.81 11.81 0.0 0 0 161.07 101.77
  A 11.81 11.81 0.0 0 0 149.26 113.58
  A 11.81 11.81 0.0 0 0 161.07 125.39
  A 11.81 11.81 0.0 0 0 172.88 113.58
  Z
  M 241.89 120.78
  A 12.22 12.22 0.0 0 0 229.67 108.56
  A 12.22 12.22 0.0 0 0 217.45 120.78
  A 12.22 12.22 0.0 0 0 229.67 133.00
  A 12.22 12.22 0.0 0 0 241.89 120.78
  Z
  M 147.56 143.31
  Q 167.54 148.30 187.76 150.06
  A 1.19 1.18 88.5 0 1 188.83 151.08
  C 189.95 159.46 195.28 167.90 204.93 166.88
  Q 211.18 166.22 214.58 160.96
  A 0.72 0.72 0.0 0 1 215.79 160.97
  Q 219.43 166.76 225.53 167.03
  C 234.34 167.42 237.86 159.75 238.72 152.38
  C 239.03 149.75 240.75 149.63 242.86 150.34
  C 250.10 165.20 267.74 169.79 280.47 158.98
  C 288.39 152.25 291.22 140.02 286.41 130.57
  Q 278.99 116.00 262.45 117.02
  Q 255.01 117.47 248.99 122.99
  C 242.67 128.77 240.75 135.80 241.33 144.12
  Q 212.56 146.42 187.00 144.04
  Q 169.14 142.37 148.95 136.87
  C 150.61 126.02 146.60 115.13 136.65 110.74
  Q 126.82 106.41 118.18 113.34
  Q 111.85 118.42 109.88 125.60
  C 107.86 133.00 108.32 141.60 112.93 148.27
  C 123.05 162.89 140.94 158.07 147.56 143.31
  Z"
/>
<path fill="#0b59a5" d="
  M 340.64 150.42
  Q 340.11 149.71 332.77 139.46
  Q 319.26 120.62 302.82 105.36
  A 0.82 0.81 -50.6 0 1 302.72 104.28
  Q 304.24 102.19 308.57 96.38
  Q 309.75 94.79 312.49 93.97
  Q 322.58 90.94 331.00 93.10
  C 345.28 96.75 354.97 107.91 356.05 122.47
  C 356.93 134.18 351.53 144.48 341.51 150.60
  A 0.65 0.65 0.0 0 1 340.64 150.42
  Z"
/>
<circle fill="#122644" cx="161.07" cy="113.58" r="11.81"/>
<circle fill="#122644" cx="229.67" cy="120.78" r="12.22"/>
<path fill="#0b59a5" d="
  M 148.95 136.87
  Q 145.85 136.09 142.52 135.54
  Q 138.91 134.95 138.64 138.12
  A 2.33 2.33 0.0 0 0 140.14 140.50
  L 147.56 143.31
  C 140.94 158.07 123.05 162.89 112.93 148.27
  C 108.32 141.60 107.86 133.00 109.88 125.60
  Q 111.85 118.42 118.18 113.34
  Q 126.82 106.41 136.65 110.74
  C 146.60 115.13 150.61 126.02 148.95 136.87
  Z"
/>
<path fill="#0b59a5" d="
  M 106.32 111.94
  Q 105.55 114.60 103.42 116.52
  Q 104.20 113.80 106.32 111.94
  Z"
/>
<path fill="#0b59a5" d="
  M 242.86 150.34
  Q 244.38 149.75 245.51 149.35
  A 2.70 2.70 0.0 0 0 247.16 145.95
  C 246.43 143.76 243.11 144.12 241.33 144.12
  C 240.75 135.80 242.67 128.77 248.99 122.99
  Q 255.01 117.47 262.45 117.02
  Q 278.99 116.00 286.41 130.57
  C 291.22 140.02 288.39 152.25 280.47 158.98
  C 267.74 169.79 250.10 165.20 242.86 150.34
  Z"
/>
<path fill="#122644" d="
  M 148.95 136.87
  Q 169.14 142.37 187.00 144.04
  Q 212.56 146.42 241.33 144.12
  C 243.11 144.12 246.43 143.76 247.16 145.95
  A 2.70 2.70 0.0 0 1 245.51 149.35
  Q 244.38 149.75 242.86 150.34
  C 240.75 149.63 239.03 149.75 238.72 152.38
  C 237.86 159.75 234.34 167.42 225.53 167.03
  Q 219.43 166.76 215.79 160.97
  A 0.72 0.72 0.0 0 0 214.58 160.96
  Q 211.18 166.22 204.93 166.88
  C 195.28 167.90 189.95 159.46 188.83 151.08
  A 1.19 1.18 88.5 0 0 187.76 150.06
  Q 167.54 148.30 147.56 143.31
  L 140.14 140.50
  A 2.33 2.33 0.0 0 1 138.64 138.12
  Q 138.91 134.95 142.52 135.54
  Q 145.85 136.09 148.95 136.87
  Z
  M 211.50 152.60
  L 195.73 151.31
  A 0.13 0.13 0.0 0 0 195.59 151.43
  L 195.59 151.48
  A 8.44 7.96 -85.3 0 0 202.83 160.54
  L 202.99 160.55
  A 8.44 7.96 -85.3 0 0 211.61 152.79
  L 211.62 152.74
  A 0.13 0.13 0.0 0 0 211.50 152.60
  Z
  M 232.09 152.15
  L 220.00 152.74
  A 0.22 0.22 0.0 0 0 219.80 152.97
  L 219.81 153.18
  A 7.87 6.26 87.2 0 0 226.44 160.74
  L 226.46 160.73
  A 7.87 6.26 87.2 0 0 232.33 152.57
  L 232.32 152.36
  A 0.22 0.22 0.0 0 0 232.09 152.15
  Z"
/>
<path fill="#0b59a5" d="
  M 344.55 156.48
  A 0.56 0.55 63.2 0 1 344.74 155.88
  L 352.74 149.67
  A 2.88 2.86 22.7 0 1 354.19 149.08
  Q 356.44 148.81 359.48 149.31
  C 376.96 152.15 389.28 164.43 388.83 182.80
  C 388.65 190.47 387.26 196.49 382.34 202.11
  Q 378.71 206.25 373.70 209.61
  A 1.10 1.10 0.0 0 1 372.08 209.13
  Q 360.92 183.55 345.26 157.98
  Q 344.77 157.18 344.55 156.48
  Z"
/>
<path fill="#ffffff" d="
  M 211.50 152.60
  A 0.13 0.13 0.0 0 1 211.62 152.74
  L 211.61 152.79
  A 8.44 7.96 -85.3 0 1 202.99 160.55
  L 202.83 160.54
  A 8.44 7.96 -85.3 0 1 195.59 151.48
  L 195.59 151.43
  A 0.13 0.13 0.0 0 1 195.73 151.31
  L 211.50 152.60
  Z"
/>
<path fill="#ffffff" d="
  M 232.09 152.15
  A 0.22 0.22 0.0 0 1 232.32 152.36
  L 232.33 152.57
  A 7.87 6.26 87.2 0 1 226.46 160.73
  L 226.44 160.74
  A 7.87 6.26 87.2 0 1 219.81 153.18
  L 219.80 152.97
  A 0.22 0.22 0.0 0 1 220.00 152.74
  L 232.09 152.15
  Z"
/>
<path fill="#0b59a5" d="
  M 375.08 215.40
  A 0.23 0.23 0.0 0 1 375.22 215.10
  L 375.32 215.06
  A 32.62 32.25 -20.2 0 1 417.07 234.07
  L 417.36 234.85
  A 32.62 32.25 -20.2 0 1 397.88 276.38
  L 397.78 276.42
  A 0.23 0.23 0.0 0 1 397.49 276.29
  L 375.08 215.40
  Z"
/>
<path fill="#0b59a5" d="
  M 276.11 316.67
  Q 276.36 316.76 276.48 317.00
  C 288.75 341.85 297.88 368.45 305.75 394.99
  Q 311.21 413.39 314.78 429.75
  C 317.25 441.03 322.03 451.11 332.92 455.85
  C 333.30 470.33 331.74 485.21 327.44 498.41
  Q 321.94 515.22 308.63 529.37
  C 304.08 534.21 293.53 542.80 286.80 551.35
  Q 284.96 550.25 282.22 550.99
  A 1.63 1.62 -5.6 0 0 281.02 552.44
  L 280.35 562.51
  A 1.35 1.35 0.0 0 1 279.04 563.77
  Q 265.61 564.14 253.25 564.02
  Q 240.08 563.88 228.36 561.25
  Q 216.72 555.65 210.42 551.09
  C 191.56 537.45 177.19 514.72 167.76 493.19
  C 155.19 464.46 147.45 434.17 145.96 402.74
  C 144.73 376.78 147.27 351.89 159.68 329.69
  Q 166.39 317.67 178.38 309.06
  C 200.26 293.33 237.55 293.58 260.52 306.50
  Q 268.12 310.78 275.48 316.52
  Q 275.73 316.72 276.11 316.67
  Z"
/>
<path fill="#ffffff" d="
  M 286.80 551.35
  C 293.53 542.80 304.08 534.21 308.63 529.37
  Q 321.94 515.22 327.44 498.41
  C 331.74 485.21 333.30 470.33 332.92 455.85
  Q 335.73 456.26 338.26 456.33
  Q 354.56 456.78 371.66 453.92
  Q 388.79 451.05 403.87 447.39
  C 408.81 446.19 416.76 443.28 421.00 440.53
  Q 433.29 432.55 434.70 416.80
  C 434.80 415.66 434.57 413.94 434.80 412.51
  A 0.16 0.16 0.0 0 1 435.10 412.46
  Q 458.54 454.63 488.05 494.28
  Q 496.62 505.79 509.67 522.33
  C 514.92 528.98 517.71 538.62 511.32 545.56
  C 504.22 553.27 496.12 555.57 485.15 557.24
  Q 448.52 562.82 409.56 552.52
  A 1.32 1.31 -81.0 0 1 408.58 551.16
  L 410.97 515.29
  A 2.61 2.61 0.0 0 0 408.30 512.51
  L 408.10 512.52
  A 3.03 3.02 2.3 0 0 405.06 515.32
  Q 401.96 555.80 399.31 578.50
  Q 398.65 584.17 397.43 591.47
  Q 396.02 599.96 393.80 603.93
  Q 388.30 613.78 376.29 615.52
  Q 368.30 616.68 360.43 617.06
  A 0.79 0.79 0.0 0 1 359.61 616.33
  C 358.96 607.79 352.74 597.98 343.88 596.18
  C 336.75 594.73 330.45 595.94 326.56 602.54
  A 0.83 0.83 0.0 0 1 325.11 602.50
  Q 321.88 596.39 315.14 595.59
  C 304.57 594.32 299.83 600.06 295.40 608.59
  A 0.92 0.92 0.0 0 1 293.91 608.80
  Q 288.29 602.80 287.13 594.60
  C 285.09 580.23 285.85 565.60 286.80 551.35
  Z"
/>
<path fill="#ffffff" d="
  M 386.66 445.20
  A 0.13 0.13 0.0 0 1 386.50 445.11
  L 386.48 445.02
  A 10.96 10.68 -15.0 0 1 394.30 431.87
  L 394.32 431.86
  A 10.96 10.68 -15.0 0 1 407.67 439.34
  L 407.69 439.43
  A 0.13 0.13 0.0 0 1 407.60 439.59
  L 386.66 445.20
  Z"
/>
<path fill="#ffffff" d="
  M 359.69 449.28
  A 0.28 0.28 0.0 0 1 359.37 449.04
  L 359.34 448.83
  A 10.65 10.58 82.0 0 1 368.33 436.81
  A 10.65 10.58 82.0 0 1 380.29 445.89
  L 380.32 446.10
  A 0.28 0.28 0.0 0 1 380.08 446.41
  L 359.69 449.28
  Z"
/>
<path fill="#ffffff" d="
  M 410.75 559.22
  L 407.94 559.81
  Q 406.79 558.65 408.51 558.29
  Q 409.58 558.06 410.75 559.22
  Z"
/>
<path fill="#ffffff" d="
  M 158.57 613.87
  A 1.38 1.38 0.0 0 1 157.48 612.25
  L 157.52 612.04
  A 12.14 9.37 -78.9 0 1 169.05 601.93
  L 169.17 601.95
  A 12.14 9.37 -78.9 0 1 176.03 615.67
  L 175.99 615.88
  A 1.38 1.38 0.0 0 1 174.37 616.97
  L 158.57 613.87
  Z"
/>
<path fill="#ffffff" d="
  M 302.29 613.89
  A 1.29 1.29 0.0 0 1 301.24 612.40
  L 301.27 612.23
  A 12.30 10.38 -80.2 0 1 313.59 601.88
  L 313.75 601.90
  A 12.30 10.38 -80.2 0 1 321.88 615.79
  L 321.86 615.96
  A 1.29 1.29 0.0 0 1 320.37 617.01
  L 302.29 613.89
  Z"
/>
<path fill="#ffffff" d="
  M 182.46 616.68
  A 0.22 0.22 0.0 0 1 182.24 616.46
  L 182.24 616.24
  A 13.96 11.10 89.5 0 1 193.22 602.18
  L 193.38 602.18
  A 13.96 11.10 89.5 0 1 204.60 616.04
  L 204.60 616.26
  A 0.22 0.22 0.0 0 1 204.38 616.48
  L 182.46 616.68
  Z"
/>
<path fill="#ffffff" d="
  M 328.26 616.66
  A 0.21 0.21 0.0 0 1 328.05 616.46
  L 328.05 616.27
  A 14.08 12.25 89.6 0 1 340.20 602.10
  L 340.36 602.10
  A 14.08 12.25 89.6 0 1 352.71 616.09
  L 352.71 616.28
  A 0.21 0.21 0.0 0 1 352.50 616.50
  L 328.26 616.66
  Z"
/>
</svg>
