<?xml version="1.0" encoding="UTF-8" standalone="no"?>
<!DOCTYPE svg PUBLIC "-//W3C//DTD SVG 1.1//EN" "http://www.w3.org/Graphics/SVG/1.1/DTD/svg11.dtd">
<svg xmlns="http://www.w3.org/2000/svg" version="1.1" viewBox="0.00 0.00 1024.00 1024.00">
<g stroke-width="2.00" fill="none" stroke-linecap="butt">
<path stroke="#fe8c93" stroke-opacity="0.996" vector-effect="non-scaling-stroke" d="
  M 528.2596 107.1795
  A 0.26 0.26 0.0 0 0 527.9991 106.9199
  L 493.5592 106.9801
  A 0.26 0.26 0.0 0 0 493.2996 107.2405
  L 493.3004 107.6805
  A 0.26 0.26 0.0 0 0 493.5609 107.9401
  L 528.0008 107.8799
  A 0.26 0.26 0.0 0 0 528.2604 107.6195
  L 528.2596 107.1795"
/>
<path stroke="#fe8c93" stroke-opacity="0.996" vector-effect="non-scaling-stroke" d="
  M 840.23 359.03
  Q 843.18 365.41 845.88 371.94
  Q 847.85 376.75 849.66 381.70
  A 0.25 0.25 0.0 0 0 849.89 381.86
  L 850.20 381.86
  A 0.44 0.44 0.0 0 0 850.61 381.27
  Q 846.46 369.75 841.18 358.76
  Q 841.15 358.69 841.11 358.62
  Q 841.08 358.54 841.05 358.47
  Q 836.08 347.34 829.98 336.72
  A 0.44 0.44 0.0 0 0 829.26 336.66
  L 829.06 336.89
  A 0.25 0.25 0.0 0 0 829.04 337.17
  Q 831.64 341.75 834.03 346.37
  Q 837.27 352.65 840.23 359.03"
/>
<path stroke="#fe8c93" stroke-opacity="0.996" vector-effect="non-scaling-stroke" d="
  M 643.40 537.56
  A 0.32 0.31 -73.1 0 0 643.15 537.08
  Q 636.51 536.80 635.84 536.69
  C 630.46 535.82 627.71 534.05 622.50 531.48
  A 0.36 0.36 0.0 0 0 622.02 531.63
  L 622.02 531.76
  A 0.74 0.72 15.7 0 0 622.42 532.45
  L 630.86 536.77
  A 1.16 1.07 55.3 0 0 631.40 536.89
  Q 633.52 536.78 635.19 537.66
  A 2.04 2.01 -30.8 0 0 636.13 537.89
  L 643.08 537.89
  A 0.22 0.21 13.7 0 0 643.27 537.78
  L 643.40 537.56"
/>
<path stroke="#fe8c93" stroke-opacity="0.996" vector-effect="non-scaling-stroke" d="
  M 532.69 629.41
  Q 535.34 632.80 538.26 636.44
  Q 541.16 640.06 544.70 648.87
  Q 547.51 655.84 548.67 659.32
  Q 551.70 668.41 555.74 681.50
  Q 558.28 689.78 560.83 699.20
  Q 563.21 708.04 564.14 712.33
  Q 564.86 715.66 566.38 720.02
  Q 567.24 722.50 568.59 727.74
  Q 569.03 729.46 569.94 731.94
  C 571.02 734.88 571.75 737.19 573.59 740.80
  A 0.28 0.28 0.0 0 0 573.96 740.92
  L 573.97 740.91
  A 0.25 0.24 65.1 0 0 574.08 740.59
  Q 571.51 734.92 570.49 731.28
  C 568.46 724.00 566.76 718.41 565.03 710.92
  Q 562.12 698.34 557.83 684.20
  Q 552.00 664.96 549.35 657.90
  Q 544.96 646.24 543.51 643.50
  Q 541.71 640.11 536.06 632.32
  Q 535.43 631.46 532.89 629.22
  A 0.14 0.14 0.0 0 0 532.69 629.41"
/>
</g>
<path fill="#fe9aa3" d="
  M 823.63 329.32
  C 812.34 310.34 799.54 291.91 784.71 275.36
  Q 773.77 263.14 758.24 248.84
  C 744.58 236.26 728.40 223.56 712.27 213.37
  Q 692.55 200.91 677.06 193.27
  Q 668.88 189.24 658.06 184.27
  Q 643.57 177.62 619.34 169.74
  Q 579.91 156.92 531.75 154.07
  Q 525.42 153.70 495.74 153.99
  Q 489.84 154.05 486.76 154.39
  C 481.44 154.98 477.43 154.79 472.76 155.76
  C 470.68 156.19 468.62 155.98 465.94 156.40
  Q 447.16 159.35 443.99 159.99
  Q 405.04 167.77 369.14 184.54
  C 360.73 188.47 352.44 192.99 344.30 197.47
  C 338.76 200.52 331.58 202.65 325.51 201.95
  C 310.61 200.25 299.97 187.25 304.50 172.22
  C 306.12 166.83 313.17 160.49 318.07 157.30
  Q 332.64 147.83 350.67 139.86
  Q 394.80 120.35 443.98 111.94
  Q 469.42 107.59 491.75 106.38
  Q 517.87 104.96 548.06 107.46
  Q 579.66 110.08 615.42 119.15
  Q 637.90 124.85 665.00 135.32
  Q 689.82 144.91 712.23 157.40
  Q 770.04 189.61 814.44 237.29
  Q 850.42 275.93 875.43 323.79
  Q 887.98 347.81 896.90 373.68
  C 906.93 402.74 914.05 432.54 917.45 463.03
  Q 918.05 468.43 918.40 471.30
  Q 919.01 476.30 919.06 479.60
  C 919.16 486.24 919.92 491.77 919.99 499.14
  Q 920.11 511.64 919.97 524.59
  C 919.91 530.37 918.91 536.23 918.93 541.82
  A 11.35 11.09 -39.9 0 1 918.69 544.22
  Q 917.90 547.99 917.88 552.36
  A 6.26 6.15 -37.0 0 1 917.63 554.03
  C 916.85 556.72 917.25 559.58 916.63 561.96
  Q 916.35 563.05 915.45 569.23
  Q 910.74 601.47 901.57 630.30
  Q 877.67 705.39 827.38 765.89
  Q 792.17 808.24 746.52 840.02
  Q 729.00 852.21 712.36 861.85
  Q 678.21 881.65 638.74 895.20
  Q 598.35 909.08 556.02 913.44
  Q 547.45 914.32 543.76 914.59
  Q 523.45 916.04 495.71 914.80
  C 491.14 914.59 486.30 913.86 481.44 913.90
  Q 481.09 913.90 480.05 913.59
  A 6.26 5.85 -31.7 0 0 478.90 913.36
  Q 467.54 912.36 456.04 910.43
  Q 435.36 906.97 414.51 901.42
  Q 394.95 896.20 374.16 888.07
  Q 343.25 875.98 315.61 860.39
  C 276.16 838.16 241.49 809.71 210.75 775.76
  Q 178.17 739.78 153.08 691.69
  Q 131.41 650.15 120.62 605.17
  Q 119.16 599.09 118.29 595.53
  Q 116.80 589.39 116.11 585.88
  Q 114.53 577.90 113.59 572.42
  Q 106.98 533.64 108.24 496.26
  Q 108.82 479.14 111.14 459.76
  Q 115.26 425.43 125.32 391.53
  Q 128.62 380.40 132.41 370.38
  C 137.39 357.19 142.34 344.83 148.87 332.37
  C 152.25 325.92 156.08 318.80 162.46 315.46
  C 166.51 313.34 170.22 314.06 174.59 316.16
  Q 184.02 320.70 190.34 328.70
  C 192.45 331.38 193.20 333.46 194.73 336.80
  Q 197.05 341.90 194.87 348.68
  Q 193.39 353.29 187.36 366.05
  Q 183.81 373.55 179.81 383.40
  Q 165.71 418.10 160.07 454.76
  Q 159.81 456.48 159.76 456.72
  Q 158.50 463.72 157.75 473.75
  Q 157.71 474.31 157.37 475.78
  A 9.29 9.21 52.2 0 0 157.12 477.83
  C 157.03 484.35 156.01 490.58 155.99 496.77
  Q 155.93 510.27 155.99 517.26
  C 156.03 522.79 157.16 528.93 157.02 534.28
  A 4.76 4.67 38.8 0 0 157.18 535.64
  Q 157.58 537.13 157.79 539.48
  Q 158.45 547.01 159.40 553.34
  Q 159.97 557.17 161.65 567.08
  Q 163.57 578.47 167.16 592.30
  Q 174.06 618.93 183.99 643.50
  C 208.89 705.12 252.25 758.81 306.20 796.79
  Q 348.92 826.86 397.54 843.91
  Q 437.98 858.09 480.79 862.42
  Q 512.34 865.62 544.12 863.58
  Q 551.75 863.09 564.36 861.53
  Q 575.90 860.10 591.53 856.91
  Q 605.93 853.96 618.27 850.28
  Q 670.64 834.61 715.59 803.69
  Q 744.29 783.95 768.05 760.55
  Q 791.04 737.90 810.94 707.93
  Q 818.21 697.00 822.79 688.82
  Q 845.14 648.91 858.32 604.07
  Q 863.03 588.05 866.57 568.81
  Q 867.13 565.76 869.73 548.00
  Q 870.14 545.21 870.10 543.48
  C 870.05 541.52 870.71 539.73 870.90 537.49
  Q 873.10 512.20 871.86 483.70
  Q 871.75 481.08 871.22 477.87
  C 870.82 475.45 871.10 472.87 870.74 470.08
  Q 868.82 455.10 867.97 450.77
  Q 862.79 424.42 858.82 411.62
  Q 850.20 383.81 842.55 366.75
  Q 840.93 363.13 840.46 361.85
  Q 839.44 359.09 838.32 356.88
  Q 828.76 337.94 823.63 329.32
  Z
  M 528.2596 107.1795
  A 0.26 0.26 0.0 0 0 527.9991 106.9199
  L 493.5592 106.9801
  A 0.26 0.26 0.0 0 0 493.2996 107.2405
  L 493.3004 107.6805
  A 0.26 0.26 0.0 0 0 493.5609 107.9401
  L 528.0008 107.8799
  A 0.26 0.26 0.0 0 0 528.2604 107.6195
  L 528.2596 107.1795
  Z
  M 840.23 359.03
  Q 843.18 365.41 845.88 371.94
  Q 847.85 376.75 849.66 381.70
  A 0.25 0.25 0.0 0 0 849.89 381.86
  L 850.20 381.86
  A 0.44 0.44 0.0 0 0 850.61 381.27
  Q 846.46 369.75 841.18 358.76
  Q 841.15 358.69 841.11 358.62
  Q 841.08 358.54 841.05 358.47
  Q 836.08 347.34 829.98 336.72
  A 0.44 0.44 0.0 0 0 829.26 336.66
  L 829.06 336.89
  A 0.25 0.25 0.0 0 0 829.04 337.17
  Q 831.64 341.75 834.03 346.37
  Q 837.27 352.65 840.23 359.03
  Z"
/>
<rect fill="#fd7e83" fill-opacity="0.992" x="-17.48" y="-0.48" transform="translate(510.78,107.43) rotate(-0.1)" width="34.96" height="0.96" rx="0.26"/>
<path fill="#fe9aa3" d="
  M 228.47 325.92
  C 225.55 329.40 220.61 330.97 217.10 327.49
  Q 211.92 322.36 207.55 317.48
  Q 190.41 298.35 183.23 290.54
  C 169.04 275.08 158.11 259.02 152.12 239.45
  Q 150.01 232.54 149.29 222.56
  Q 148.63 213.19 150.59 203.36
  C 155.53 178.53 174.92 155.92 198.98 147.72
  Q 215.73 142.01 232.18 144.58
  C 255.21 148.18 274.66 163.52 285.48 184.27
  Q 291.73 196.26 292.88 209.53
  C 293.29 214.20 293.39 223.32 292.33 229.13
  Q 290.60 238.63 288.33 244.35
  Q 283.16 257.40 273.97 269.25
  Q 269.37 275.18 248.86 300.00
  C 242.11 308.17 234.96 318.19 228.47 325.92
  Z
  M 250.8083 215.2140
  A 29.38 27.79 -9.0 0 0 217.4427 192.3621
  A 29.38 27.79 -9.0 0 0 192.7717 224.4060
  A 29.38 27.79 -9.0 0 0 226.1373 247.2579
  A 29.38 27.79 -9.0 0 0 250.8083 215.2140
  Z"
/>
<ellipse fill="#fe9aa3" cx="0.00" cy="0.00" transform="translate(529.50,292.27) rotate(-78.3)" rx="58.85" ry="57.30"/>
<path fill="#fd7e83" fill-opacity="0.992" d="
  M 841.11 358.62
  Q 841.15 358.69 841.18 358.76
  Q 846.46 369.75 850.61 381.27
  A 0.44 0.44 0.0 0 1 850.20 381.86
  L 849.89 381.86
  A 0.25 0.25 0.0 0 1 849.66 381.70
  Q 847.85 376.75 845.88 371.94
  Q 843.18 365.41 840.23 359.03
  Q 837.27 352.65 834.03 346.37
  Q 831.64 341.75 829.04 337.17
  A 0.25 0.25 0.0 0 1 829.06 336.89
  L 829.26 336.66
  A 0.44 0.44 0.0 0 1 829.98 336.72
  Q 836.08 347.34 841.05 358.47
  Q 841.08 358.54 841.11 358.62
  Z"
/>
<path fill="#fe9aa3" d="
  M 461.11 437.11
  Q 444.63 442.92 431.18 453.85
  Q 423.99 459.70 412.41 474.17
  Q 400.46 489.11 395.07 495.83
  Q 390.56 501.44 384.56 505.59
  Q 376.07 511.45 365.53 510.66
  Q 359.38 510.20 353.93 507.46
  Q 348.37 504.68 344.82 499.65
  Q 338.55 490.80 340.14 480.00
  Q 341.15 473.19 346.97 466.19
  C 352.16 459.95 358.62 453.56 363.83 447.11
  Q 380.69 426.22 388.69 416.93
  C 397.61 406.58 408.04 399.46 420.34 392.87
  C 436.10 384.42 450.59 376.62 466.40 370.43
  Q 488.16 361.90 512.24 362.42
  Q 523.28 362.66 534.87 365.70
  Q 563.30 373.17 576.05 398.31
  Q 583.42 412.86 587.86 420.89
  Q 594.46 432.84 602.88 447.87
  C 609.33 459.40 616.46 468.91 628.51 475.49
  Q 636.01 479.59 649.76 486.50
  Q 652.27 487.77 657.84 492.03
  C 667.34 499.30 671.36 510.93 665.84 522.04
  C 661.16 531.44 651.10 539.51 640.20 539.16
  Q 633.81 538.95 630.20 537.50
  Q 624.33 535.14 618.39 531.01
  Q 614.28 528.15 606.92 523.80
  Q 594.76 516.62 586.86 511.65
  Q 581.70 508.40 576.89 503.13
  Q 573.37 499.27 568.67 490.34
  Q 562.25 478.11 556.91 468.18
  A 0.42 0.42 0.0 0 0 556.13 468.30
  C 554.61 476.74 552.81 486.36 551.88 495.51
  Q 551.63 497.96 550.59 504.35
  Q 550.17 506.89 545.05 540.25
  Q 544.73 542.29 545.12 543.67
  A 0.85 0.82 15.0 0 0 545.33 544.02
  Q 554.09 552.65 591.17 589.31
  Q 598.74 596.80 602.86 609.31
  Q 605.61 617.70 607.63 628.17
  Q 609.68 638.76 610.64 642.79
  Q 616.64 667.86 619.09 674.93
  Q 626.05 695.06 627.03 697.49
  Q 629.38 703.35 630.94 708.77
  Q 632.80 715.29 632.69 719.28
  C 632.60 722.05 632.04 726.64 631.16 729.34
  C 627.30 741.19 617.83 751.38 605.47 754.96
  Q 597.79 757.19 590.52 754.96
  Q 575.79 750.45 570.20 736.35
  Q 568.51 732.08 564.73 718.05
  Q 563.45 713.26 558.91 695.29
  Q 556.96 687.58 547.06 657.30
  Q 546.67 656.11 543.72 648.71
  C 540.30 640.12 535.04 632.66 528.13 626.86
  C 521.10 620.97 515.12 616.82 508.65 611.79
  Q 505.21 609.11 498.60 602.92
  Q 454.40 561.54 445.37 552.89
  Q 434.41 542.38 437.43 527.37
  C 439.70 516.08 444.12 503.98 447.33 491.75
  Q 453.71 467.42 455.49 460.04
  Q 456.63 455.28 461.32 437.30
  A 0.16 0.16 0.0 0 0 461.11 437.11
  Z
  M 643.40 537.56
  A 0.32 0.31 -73.1 0 0 643.15 537.08
  Q 636.51 536.80 635.84 536.69
  C 630.46 535.82 627.71 534.05 622.50 531.48
  A 0.36 0.36 0.0 0 0 622.02 531.63
  L 622.02 531.76
  A 0.74 0.72 15.7 0 0 622.42 532.45
  L 630.86 536.77
  A 1.16 1.07 55.3 0 0 631.40 536.89
  Q 633.52 536.78 635.19 537.66
  A 2.04 2.01 -30.8 0 0 636.13 537.89
  L 643.08 537.89
  A 0.22 0.21 13.7 0 0 643.27 537.78
  L 643.40 537.56
  Z
  M 532.69 629.41
  Q 535.34 632.80 538.26 636.44
  Q 541.16 640.06 544.70 648.87
  Q 547.51 655.84 548.67 659.32
  Q 551.70 668.41 555.74 681.50
  Q 558.28 689.78 560.83 699.20
  Q 563.21 708.04 564.14 712.33
  Q 564.86 715.66 566.38 720.02
  Q 567.24 722.50 568.59 727.74
  Q 569.03 729.46 569.94 731.94
  C 571.02 734.88 571.75 737.19 573.59 740.80
  A 0.28 0.28 0.0 0 0 573.96 740.92
  L 573.97 740.91
  A 0.25 0.24 65.1 0 0 574.08 740.59
  Q 571.51 734.92 570.49 731.28
  C 568.46 724.00 566.76 718.41 565.03 710.92
  Q 562.12 698.34 557.83 684.20
  Q 552.00 664.96 549.35 657.90
  Q 544.96 646.24 543.51 643.50
  Q 541.71 640.11 536.06 632.32
  Q 535.43 631.46 532.89 629.22
  A 0.14 0.14 0.0 0 0 532.69 629.41
  Z"
/>
<path fill="#fd7e83" fill-opacity="0.992" d="
  M 643.08 537.89
  L 636.13 537.89
  A 2.04 2.01 -30.8 0 1 635.19 537.66
  Q 633.52 536.78 631.40 536.89
  A 1.16 1.07 55.3 0 1 630.86 536.77
  L 622.42 532.45
  A 0.74 0.72 15.7 0 1 622.02 531.76
  L 622.02 531.63
  A 0.36 0.36 0.0 0 1 622.50 531.48
  C 627.71 534.05 630.46 535.82 635.84 536.69
  Q 636.51 536.80 643.15 537.08
  A 0.32 0.31 -73.1 0 1 643.40 537.56
  L 643.27 537.78
  A 0.22 0.21 13.7 0 1 643.08 537.89
  Z"
/>
<path fill="#fe9aa3" d="
  M 344.40 719.70
  Q 343.48 717.33 343.21 715.56
  Q 340.81 699.33 352.55 687.53
  Q 376.91 663.05 395.79 641.05
  Q 399.42 636.81 406.31 627.30
  C 413.84 616.89 419.51 605.02 422.90 593.45
  Q 427.44 577.94 427.51 577.74
  C 429.30 572.11 434.89 569.12 440.36 571.98
  A 3.87 3.66 -9.7 0 1 441.08 572.46
  Q 443.09 574.14 446.33 577.34
  Q 462.75 593.53 479.11 609.31
  Q 481.30 611.42 482.96 613.38
  C 486.17 617.16 485.50 621.44 483.87 625.84
  Q 474.91 649.98 455.96 667.74
  Q 448.04 675.16 438.62 683.38
  C 433.54 687.82 429.17 692.04 421.99 698.73
  Q 416.59 703.77 409.86 712.60
  Q 401.33 723.78 399.17 726.89
  Q 395.65 731.94 392.24 734.57
  Q 386.93 738.66 383.33 739.78
  Q 372.46 743.17 361.65 738.09
  Q 349.30 732.29 344.40 719.70
  Z"
/>
<path fill="#fd7e83" fill-opacity="0.992" d="
  M 532.89 629.22
  Q 535.43 631.46 536.06 632.32
  Q 541.71 640.11 543.51 643.50
  Q 544.96 646.24 549.35 657.90
  Q 552.00 664.96 557.83 684.20
  Q 562.12 698.34 565.03 710.92
  C 566.76 718.41 568.46 724.00 570.49 731.28
  Q 571.51 734.92 574.08 740.59
  A 0.25 0.24 65.1 0 1 573.97 740.91
  L 573.96 740.92
  A 0.28 0.28 0.0 0 1 573.59 740.80
  C 571.75 737.19 571.02 734.88 569.94 731.94
  Q 569.03 729.46 568.59 727.74
  Q 567.24 722.50 566.38 720.02
  Q 564.86 715.66 564.14 712.33
  Q 563.21 708.04 560.83 699.20
  Q 558.28 689.78 555.74 681.50
  Q 551.70 668.41 548.67 659.32
  Q 547.51 655.84 544.70 648.87
  Q 541.16 640.06 538.26 636.44
  Q 535.34 632.80 532.69 629.41
  A 0.14 0.14 0.0 0 1 532.89 629.22
  Z"
/>
</svg>
