<?xml version="1.0" encoding="UTF-8" standalone="no"?>
<!DOCTYPE svg PUBLIC "-//W3C//DTD SVG 1.1//EN" "http://www.w3.org/Graphics/SVG/1.1/DTD/svg11.dtd">
<svg xmlns="http://www.w3.org/2000/svg" version="1.1" viewBox="0.00 0.00 1024.00 1024.00">
<g stroke-width="2.00" fill="none" stroke-linecap="butt">
<path stroke="#808080" vector-effect="non-scaling-stroke" d="
  M 298.81 130.08
  A 0.53 0.53 0.0 0 1 297.89 130.07
  Q 296.90 128.29 294.80 125.71
  Q 272.79 98.61 241.32 88.75
  Q 216.44 80.95 191.18 84.64
  Q 166.57 88.24 144.55 103.22
  Q 120.24 119.75 106.46 146.44
  C 98.72 161.44 94.05 177.05 94.06 192.85
  Q 94.07 200.37 94.24 202.01
  C 95.86 218.11 100.12 234.23 107.68 248.79
  Q 117.63 267.97 130.86 283.08
  A 1.05 1.04 -47.5 0 1 130.91 284.39
  Q 123.92 293.92 116.82 307.03
  C 91.20 354.36 76.95 406.08 69.41 461.39
  Q 68.17 470.48 67.34 480.27
  Q 64.52 513.46 66.92 544.02
  C 67.54 551.92 67.97 560.07 69.17 568.14
  Q 72.75 592.11 76.41 608.67
  Q 90.61 672.90 123.20 730.38
  Q 157.79 791.36 213.11 842.26
  C 220.55 849.10 230.34 856.84 240.13 864.62
  Q 272.93 890.70 309.90 909.34
  Q 327.91 918.42 345.14 925.27
  C 352.31 928.12 360.19 930.59 365.68 932.66
  C 374.51 935.98 384.52 938.53 393.70 941.30
  Q 398.33 942.70 406.26 944.57
  Q 436.27 951.63 468.12 954.91
  Q 475.16 955.63 484.41 956.11
  Q 498.04 956.80 500.75 956.94
  Q 508.50 957.34 529.75 956.02
  Q 533.17 955.80 548.65 954.29
  C 553.69 953.79 557.69 953.06 561.97 952.49
  C 588.77 948.94 615.37 942.62 641.68 933.91
  Q 694.56 916.42 740.00 887.22
  Q 771.92 866.71 795.09 846.12
  Q 861.00 787.55 902.06 705.87
  Q 911.97 686.15 916.82 672.35
  Q 924.78 649.71 927.60 640.63
  Q 934.09 619.68 938.48 596.50
  Q 941.57 580.22 943.09 568.81
  Q 944.69 556.82 945.79 541.39
  C 946.26 534.84 946.06 528.08 946.48 521.82
  Q 946.91 515.43 946.65 507.17
  Q 946.27 495.47 945.93 487.06
  Q 945.69 481.06 944.62 471.18
  Q 942.86 454.84 940.99 442.01
  Q 939.38 430.90 933.48 405.10
  C 932.38 400.26 930.74 396.10 929.79 391.38
  Q 929.12 388.06 926.98 381.15
  Q 918.00 352.12 905.63 324.26
  C 901.87 315.79 899.41 311.09 894.61 301.48
  Q 881.23 274.65 863.51 249.57
  Q 859.76 244.25 857.29 241.13
  C 852.68 235.29 845.92 226.30 840.98 220.50
  Q 812.37 186.89 779.42 161.20
  Q 755.87 142.84 734.18 129.84
  Q 711.87 116.47 683.56 103.86
  Q 670.55 98.07 656.65 93.29
  Q 640.50 87.73 629.06 84.74
  Q 600.61 77.30 569.03 73.26
  Q 547.43 70.49 514.17 69.88
  C 506.55 69.74 499.13 70.30 489.54 70.67
  Q 479.65 71.05 471.12 71.97
  Q 431.89 76.20 394.31 86.73
  C 384.64 89.44 372.22 93.77 364.21 96.73
  Q 330.94 109.03 299.72 128.93
  A 1.90 1.89 -1.6 0 0 299.10 129.58
  L 298.81 130.08"
/>
<path stroke="#ffa3a1" vector-effect="non-scaling-stroke" d="
  M 495.94 97.89
  Q 476.31 98.77 452.29 102.63
  Q 408.31 109.71 369.06 125.04
  Q 342.28 135.49 320.12 148.39
  Q 312.54 152.80 309.75 155.54
  Q 303.62 161.56 307.41 169.87
  Q 311.22 178.22 317.36 184.11
  Q 324.70 191.14 334.12 186.33
  Q 336.67 185.03 353.35 176.56
  Q 408.36 148.66 468.68 141.11
  Q 569.11 128.53 661.14 169.59
  Q 687.51 181.36 711.34 197.33
  Q 791.83 251.29 835.35 337.07
  C 862.42 390.42 878.06 450.18 877.55 510.12
  Q 877.34 535.02 875.12 553.75
  C 869.34 602.43 854.14 650.66 829.92 693.49
  Q 804.41 738.58 769.72 773.71
  Q 726.46 817.52 669.61 846.57
  Q 662.21 850.35 651.17 855.06
  Q 638.69 860.39 632.35 862.61
  Q 556.85 889.09 478.03 883.24
  Q 450.43 881.18 423.33 874.76
  C 383.72 865.36 345.26 849.96 311.57 828.93
  Q 277.66 807.77 248.78 779.70
  Q 229.25 760.71 210.15 734.84
  C 165.00 673.68 136.29 598.72 134.76 523.00
  Q 134.28 499.17 135.82 479.01
  Q 138.07 449.68 145.50 420.00
  Q 151.16 397.38 162.23 369.14
  C 165.80 360.01 171.35 349.29 175.04 341.81
  C 177.69 336.45 179.15 333.00 175.69 327.64
  Q 171.22 320.72 166.60 314.41
  C 162.43 308.72 155.70 300.62 149.23 309.30
  Q 145.58 314.20 141.47 321.70
  Q 128.94 344.55 119.43 371.61
  Q 99.41 428.61 96.37 488.26
  Q 94.83 518.52 96.55 542.06
  Q 97.65 557.20 98.36 563.37
  Q 99.91 576.87 101.55 586.17
  Q 121.94 702.02 201.44 789.55
  Q 227.02 817.71 257.27 840.73
  Q 271.52 851.56 274.43 853.55
  Q 297.67 869.45 324.70 883.30
  C 374.65 908.90 429.39 922.64 485.75 926.22
  Q 499.73 927.11 513.00 926.85
  C 567.94 925.77 622.75 914.02 672.94 891.30
  Q 700.43 878.85 727.77 860.89
  C 762.65 837.97 793.90 810.63 820.24 779.49
  C 860.62 731.73 889.54 674.63 905.60 614.23
  Q 913.88 583.11 916.53 553.75
  Q 919.43 521.68 917.64 492.26
  C 914.20 435.47 899.29 379.45 875.18 327.86
  Q 846.40 266.30 798.41 217.63
  Q 760.66 179.35 718.77 154.28
  Q 639.51 106.86 546.26 98.66
  Q 539.55 98.06 532.80 97.88"
/>
<path stroke="#ffd6d8" vector-effect="non-scaling-stroke" d="
  M 532.80 97.88
  Q 514.40 96.68 495.94 97.89"
/>
<path stroke="#ff7a7a" vector-effect="non-scaling-stroke" d="
  M 532.80 97.88
  L 530.91 98.12
  A 0.26 0.22 -4.5 0 0 530.68 98.34
  L 530.68 98.35
  A 0.24 0.23 -88.8 0 0 530.91 98.60
  Q 539.50 98.75 541.50 98.94
  C 558.96 100.54 575.99 102.74 592.19 105.98
  C 599.95 107.53 607.34 109.56 615.37 111.51
  Q 623.08 113.38 632.57 116.35
  Q 660.27 125.00 689.21 139.02
  Q 717.02 152.49 741.61 170.16
  Q 771.05 191.32 794.68 214.82
  Q 847.01 266.85 877.44 334.79
  Q 891.07 365.24 900.45 397.77
  Q 911.40 435.79 915.54 476.34
  C 916.01 480.95 915.86 484.09 916.38 487.92
  Q 916.92 491.95 917.05 496.61
  Q 917.73 520.75 916.86 537.75
  Q 916.15 551.79 913.03 574.95
  Q 911.38 587.13 907.84 601.63
  Q 903.61 619.00 900.89 627.93
  C 885.73 677.70 862.45 724.26 830.83 765.36
  C 815.26 785.60 796.77 804.95 778.49 821.23
  Q 743.45 852.43 701.03 876.25
  Q 656.11 901.47 602.98 914.42
  Q 576.95 920.77 555.61 923.08
  Q 529.70 925.89 514.25 926.06
  Q 473.75 926.52 432.57 918.88
  Q 386.50 910.34 344.96 892.04
  Q 317.93 880.14 288.31 861.75
  Q 274.67 853.29 258.75 840.94
  C 235.34 822.79 213.86 803.15 194.83 780.91
  Q 184.60 768.97 182.61 766.41
  Q 120.21 686.34 102.63 587.76
  Q 99.98 572.91 97.68 548.13
  Q 96.56 536.17 96.56 520.83
  Q 96.56 495.92 96.68 493.50
  Q 97.29 480.73 97.53 478.75
  Q 98.67 469.32 99.56 459.35
  C 99.74 457.43 100.26 455.32 100.55 453.12
  Q 102.65 437.09 106.19 420.74
  Q 115.87 376.19 135.30 335.31
  Q 142.62 319.91 147.75 312.50
  C 149.03 310.64 150.65 308.28 152.43 307.22
  C 157.01 304.50 160.94 308.50 163.74 312.04
  Q 169.18 318.93 175.16 328.25
  C 177.92 332.55 177.35 335.44 175.10 339.87
  Q 167.16 355.45 163.48 364.20
  Q 146.58 404.43 139.13 445.55
  C 137.61 453.99 136.36 465.02 135.53 471.50
  Q 134.32 481.02 133.94 512.00
  Q 133.37 559.71 146.05 605.74
  Q 154.21 635.34 169.24 668.03
  Q 174.01 678.41 179.79 688.71
  Q 187.93 703.21 191.47 708.79
  Q 203.98 728.55 219.10 747.74
  C 251.05 788.30 292.60 821.67 338.24 844.71
  Q 383.43 867.51 434.85 878.02
  Q 447.40 880.58 460.81 882.18
  Q 477.83 884.20 487.00 884.70
  Q 494.17 885.08 527.02 884.84
  C 528.71 884.82 531.99 883.94 534.38 883.85
  Q 540.56 883.64 547.50 882.85
  Q 588.77 878.21 627.81 864.99
  C 634.01 862.89 640.90 859.96 646.75 857.66
  Q 653.12 855.16 660.72 851.63
  Q 692.80 836.69 723.26 814.51
  Q 782.53 771.33 821.34 709.36
  Q 848.04 666.71 862.58 618.09
  Q 873.01 583.17 876.33 549.80
  C 876.69 546.25 876.72 542.88 877.16 539.58
  Q 877.62 536.12 877.77 531.90
  Q 878.38 515.19 878.51 512.23
  C 878.84 504.71 878.17 497.71 877.85 489.32
  Q 877.55 481.45 876.56 472.22
  Q 870.32 414.12 847.21 360.75
  Q 836.80 336.70 824.80 316.16
  Q 785.86 249.42 720.50 202.75
  Q 691.00 181.69 662.56 169.43
  Q 644.39 161.60 639.93 159.93
  Q 566.66 132.49 487.24 138.38
  Q 461.36 140.30 434.48 146.30
  Q 392.73 155.61 354.82 175.08
  Q 340.01 182.68 335.48 184.90
  C 330.57 187.30 325.94 188.60 321.50 186.09
  Q 318.01 184.11 316.54 182.50
  C 312.65 178.23 306.50 169.63 306.69 163.49
  Q 306.85 158.21 311.90 154.64
  Q 320.24 148.75 329.57 143.84
  Q 377.26 118.75 431.45 107.22
  Q 453.41 102.54 468.01 101.08
  C 472.05 100.67 475.82 99.83 479.78 99.59
  Q 496.83 98.54 497.64 98.45
  A 0.18 0.18 0.0 0 0 497.68 98.10
  Q 497.01 97.89 495.94 97.89"
/>
<path stroke="#ffa3a1" vector-effect="non-scaling-stroke" d="
  M 205.62 328.35
  C 212.67 331.79 221.04 320.24 225.03 314.79
  Q 244.13 288.79 260.69 264.18
  Q 270.02 250.31 276.64 237.95
  Q 282.89 226.28 285.26 218.72
  Q 293.47 192.50 283.97 166.56
  Q 274.64 141.09 253.18 125.62
  C 229.26 108.38 197.04 104.98 170.61 118.83
  C 142.40 133.62 123.82 161.80 122.63 193.75
  C 121.77 216.67 133.82 237.23 146.74 255.06
  Q 163.86 278.70 183.11 303.41
  Q 194.80 318.42 199.75 323.75
  Q 202.70 326.91 205.62 328.35"
/>
<path stroke="#808080" vector-effect="non-scaling-stroke" d="
  M 202.66 356.65
  A 0.81 0.81 0.0 0 0 201.57 357.06
  Q 193.87 375.22 186.90 394.65
  Q 179.70 414.72 175.24 433.17
  Q 168.49 461.09 166.27 490.75
  Q 165.36 502.82 166.17 529.51
  C 166.30 533.87 167.08 537.75 167.26 542.32
  Q 167.37 545.33 168.20 551.91
  Q 175.36 609.33 200.02 661.97
  C 206.41 675.60 214.26 689.50 221.80 701.20
  Q 239.65 728.92 264.01 753.75
  Q 280.28 770.33 297.81 783.62
  Q 369.34 837.87 458.73 851.42
  Q 494.26 856.81 530.20 854.00
  Q 565.64 851.23 600.08 841.55
  C 675.45 820.39 740.93 772.80 786.39 709.41
  C 801.18 688.78 812.81 666.91 821.80 643.58
  Q 839.41 597.85 844.84 549.67
  C 845.72 541.84 846.82 532.37 846.99 524.07
  Q 847.54 498.02 846.77 487.78
  C 845.49 470.95 843.32 453.93 839.63 438.30
  Q 824.65 374.95 789.85 321.40
  Q 774.09 297.13 756.92 277.93
  Q 751.85 272.26 746.14 266.22
  Q 739.61 259.32 734.71 255.05
  Q 718.93 241.26 716.28 239.23
  Q 678.74 210.45 637.18 194.38
  Q 574.19 170.01 506.01 172.38
  C 478.96 173.32 453.27 177.23 427.00 184.01
  C 407.36 189.09 388.51 196.31 369.82 204.60
  Q 364.13 207.13 348.21 215.61
  Q 339.50 220.24 331.75 225.01
  Q 319.16 232.77 315.66 235.03
  A 2.50 2.45 -0.9 0 0 314.83 235.87
  Q 304.67 252.94 299.82 259.59
  Q 279.84 287.00 260.25 313.89
  C 252.79 324.14 247.10 333.54 239.04 341.80
  Q 232.33 348.68 229.00 350.74
  Q 223.93 353.88 216.52 356.03
  Q 211.18 357.58 203.93 357.11
  A 1.68 1.61 -29.0 0 1 203.29 356.94
  L 202.66 356.65"
/>
<path stroke="#ff7a7a" vector-effect="non-scaling-stroke" d="
  M 205.77 327.30
  C 212.77 330.70 221.05 319.23 225.00 313.82
  Q 243.91 288.01 260.29 263.58
  Q 269.53 249.82 276.07 237.55
  Q 282.26 225.97 284.60 218.47
  Q 292.70 192.46 283.24 166.75
  Q 273.96 141.50 252.65 126.19
  C 228.91 109.13 196.95 105.80 170.76 119.57
  C 142.81 134.28 124.42 162.25 123.29 193.93
  C 122.47 216.66 134.45 237.04 147.28 254.70
  Q 164.29 278.12 183.42 302.59
  Q 195.03 317.46 199.95 322.74
  Q 202.88 325.87 205.77 327.30"
/>
<path stroke="#ff7a7a" vector-effect="non-scaling-stroke" d="
  M 249.06 192.00
  A 44.45 44.45 0.0 0 0 204.61 147.55
  A 44.45 44.45 0.0 0 0 160.16 192.00
  A 44.45 44.45 0.0 0 0 204.61 236.45
  A 44.45 44.45 0.0 0 0 249.06 192.00"
/>
<path stroke="#ffa3a1" vector-effect="non-scaling-stroke" d="
  M 248.26 192.03
  A 43.65 43.65 0.0 0 0 204.61 148.38
  A 43.65 43.65 0.0 0 0 160.96 192.03
  A 43.65 43.65 0.0 0 0 204.61 235.68
  A 43.65 43.65 0.0 0 0 248.26 192.03"
/>
<path stroke="#808080" vector-effect="non-scaling-stroke" d="
  M 213.5837 179.7149
  A 15.15 14.85 -55.9 0 0 192.7933 183.9345
  A 15.15 14.85 -55.9 0 0 196.5963 204.8051
  A 15.15 14.85 -55.9 0 0 217.3867 200.5855
  A 15.15 14.85 -55.9 0 0 213.5837 179.7149"
/>
<path stroke="#808080" vector-effect="non-scaling-stroke" d="
  M 543.44 512.72
  Q 543.91 512.15 544.46 512.42
  Q 549.54 515.00 553.93 517.36
  C 564.58 523.07 574.64 527.57 589.45 534.53
  Q 607.91 543.22 617.90 547.07
  Q 624.78 549.72 631.01 551.23
  C 648.28 555.42 668.45 552.01 682.02 540.10
  Q 695.90 527.92 700.09 509.80
  Q 703.00 497.19 698.08 484.48
  Q 693.76 473.32 685.01 465.51
  Q 677.51 458.82 666.00 453.98
  Q 623.47 436.11 614.90 432.33
  Q 612.96 431.47 610.55 429.87
  A 3.51 3.51 0.0 0 1 609.18 428.11
  C 602.36 408.48 596.51 390.47 585.12 373.02
  Q 577.74 361.72 569.87 352.14
  A 0.51 0.51 0.0 0 1 570.12 351.33
  Q 579.80 348.48 586.53 344.90
  Q 593.56 341.17 600.69 334.54
  C 612.76 323.32 621.89 307.53 626.19 291.42
  C 630.02 277.08 630.78 260.11 626.84 245.74
  Q 620.32 222.01 602.37 205.26
  Q 592.87 196.40 582.65 191.14
  Q 575.36 187.38 565.95 184.13
  C 561.76 182.69 556.93 182.03 551.47 180.93
  Q 545.40 179.70 540.45 179.55
  Q 522.92 179.02 507.82 183.17
  Q 497.88 185.91 490.04 190.81
  C 482.91 195.27 475.37 200.94 469.49 207.67
  C 456.97 222.00 448.09 240.82 446.85 260.01
  Q 446.39 267.08 446.42 268.74
  Q 446.92 292.62 457.59 311.67
  Q 458.98 314.15 456.65 315.15
  C 451.22 317.46 443.41 321.77 437.54 325.53
  Q 427.26 332.13 415.33 338.87
  C 408.51 342.73 399.48 348.30 391.55 353.13
  C 386.44 356.24 382.09 358.33 377.89 361.00
  Q 374.00 363.47 367.74 367.06
  C 351.56 376.34 338.07 387.24 328.83 403.39
  Q 325.37 409.43 319.47 425.90
  Q 312.45 445.51 302.35 467.87
  Q 297.78 477.98 296.99 487.47
  Q 296.08 498.32 300.77 509.28
  C 308.16 526.53 325.16 538.36 343.74 540.12
  Q 359.07 541.57 372.29 534.01
  Q 383.40 527.65 391.29 517.56
  A 0.44 0.43 -37.0 0 1 392.04 517.66
  C 393.72 521.90 395.73 526.15 396.01 530.54
  Q 396.26 534.61 395.65 536.73
  Q 394.91 539.28 390.88 547.66
  C 385.79 558.27 380.65 571.27 376.54 579.81
  Q 370.74 591.83 361.36 606.10
  Q 359.41 609.06 356.64 612.39
  Q 351.16 618.98 333.39 640.67
  C 324.07 652.04 315.85 663.34 307.29 674.28
  Q 304.28 678.13 300.13 685.60
  Q 292.48 699.36 293.99 714.33
  Q 294.76 721.91 295.43 724.53
  Q 298.02 734.69 303.94 743.05
  Q 321.30 767.59 350.79 767.48
  Q 357.87 767.45 363.15 766.00
  C 375.83 762.53 387.99 754.23 396.58 744.57
  C 417.94 720.55 439.14 696.11 460.62 672.38
  Q 468.85 663.29 473.53 657.54
  Q 482.08 647.06 487.14 634.93
  A 0.62 0.62 0.0 0 1 488.23 634.83
  C 497.02 648.03 502.90 662.76 507.55 678.33
  Q 510.39 687.83 513.76 697.95
  Q 513.86 698.25 522.92 726.68
  Q 525.75 735.56 528.85 742.16
  C 540.04 765.98 563.15 780.49 589.53 777.73
  Q 605.96 776.01 619.46 765.42
  C 630.08 757.10 638.84 744.13 641.78 730.41
  Q 643.23 723.63 643.08 721.28
  C 642.62 714.08 641.13 707.64 638.87 700.48
  Q 612.24 616.34 612.22 616.29
  C 605.12 593.55 595.64 573.85 581.08 556.07
  Q 571.22 544.03 564.10 537.16
  Q 558.85 532.10 547.56 521.71
  Q 545.23 519.57 541.78 515.72
  C 541.20 515.07 540.64 514.89 539.95 514.24
  A 0.63 0.62 36.4 0 1 539.83 513.47
  L 541.30 510.93
  A 0.53 0.53 0.0 0 1 542.09 510.79
  Q 542.69 511.27 542.80 512.19"
/>
<path stroke="#2e2d2e" vector-effect="non-scaling-stroke" d="
  M 212.0439 180.1741
  A 13.93 13.66 -60.1 0 0 193.2582 185.4407
  A 13.93 13.66 -60.1 0 0 198.1561 204.3259
  A 13.93 13.66 -60.1 0 0 216.9418 199.0593
  A 13.93 13.66 -60.1 0 0 212.0439 180.1741"
/>
<path stroke="#ffa3a1" vector-effect="non-scaling-stroke" d="
  M 519.62 207.74
  C 494.20 214.86 476.61 238.55 476.04 265.06
  Q 475.87 273.32 476.32 276.17
  Q 480.20 300.77 497.74 315.67
  Q 514.37 329.79 535.64 330.84
  C 571.13 332.59 603.02 303.26 601.40 267.48
  C 600.50 247.76 590.29 229.82 574.41 218.30
  C 559.20 207.26 537.75 202.67 519.62 207.74"
/>
<path stroke="#ffd6d8" vector-effect="non-scaling-stroke" d="
  M 439.44 417.51
  Q 439.63 417.54 439.77 417.57
  A 0.42 0.42 0.0 0 1 440.08 418.08
  Q 439.98 418.53 439.71 418.97"
/>
<path stroke="#ffa3a1" vector-effect="non-scaling-stroke" d="
  M 439.71 418.97
  Q 438.61 421.16 438.35 422.11
  C 433.21 440.82 429.02 458.03 422.45 481.14
  Q 418.10 496.48 417.50 503.04
  C 415.99 519.82 425.55 534.53 437.66 545.58
  Q 437.97 545.87 463.19 567.82
  Q 472.66 576.06 490.68 595.47
  Q 504.74 610.62 513.17 620.73
  Q 521.22 630.41 524.08 640.21
  Q 532.57 669.26 544.93 707.12
  Q 547.76 715.79 552.95 726.49
  C 559.39 739.75 568.04 749.64 584.05 749.47
  C 598.60 749.32 611.14 740.30 614.42 725.76
  C 616.21 717.85 613.44 709.82 610.64 701.08
  Q 595.53 653.76 585.62 622.63
  Q 579.15 602.30 570.11 587.84
  Q 557.86 568.24 539.21 551.05
  Q 537.83 549.77 525.89 538.60
  C 517.60 530.84 513.04 521.93 518.05 510.79
  Q 523.98 497.57 527.20 485.90
  Q 531.47 470.39 534.21 454.33"
/>
<path stroke="#ffd6d8" vector-effect="non-scaling-stroke" d="
  M 534.21 454.33
  Q 535.86 454.10 536.03 454.53"
/>
<path stroke="#ffa3a1" vector-effect="non-scaling-stroke" d="
  M 536.03 454.53
  Q 536.04 454.75 536.13 454.92
  Q 542.87 468.57 552.15 479.35
  Q 562.82 491.76 577.68 499.05
  Q 586.92 503.59 587.94 504.05
  Q 600.53 509.74 624.93 519.62
  Q 633.02 522.90 640.79 524.72
  Q 650.96 527.10 660.20 523.07
  C 673.18 517.39 677.25 501.12 669.37 489.86
  C 666.45 485.70 660.24 481.34 655.82 479.16
  Q 628.28 465.51 600.04 456.44
  Q 588.70 452.80 584.62 440.90
  Q 582.17 433.76 575.54 415.92
  Q 569.14 398.72 557.96 381.28
  C 544.90 360.90 527.98 345.70 504.05 341.17
  C 490.37 338.58 474.68 339.02 461.16 344.18
  C 451.37 347.92 439.60 355.36 431.61 359.82
  C 410.23 371.74 396.33 379.50 378.39 390.63
  C 366.76 397.84 355.09 408.19 350.39 421.67
  Q 342.61 444.01 328.70 473.90
  C 324.12 483.76 322.67 494.71 329.61 503.56
  C 337.36 513.45 350.72 514.86 360.99 508.19
  Q 371.81 501.18 377.90 489.42
  Q 382.34 480.84 383.70 476.94
  Q 387.77 465.23 390.66 456.41
  Q 393.04 449.17 395.39 445.53
  C 397.95 441.57 400.22 437.91 403.79 435.29
  Q 407.84 432.31 414.27 429.36
  Q 426.92 423.55 439.44 417.51"
/>
<path stroke="#ff7a7a" vector-effect="non-scaling-stroke" d="
  M 536.03 454.53
  Q 535.99 454.35 536.13 454.20
  A 0.20 0.20 0.0 0 1 536.45 454.24
  Q 538.65 458.09 542.26 464.21
  C 548.91 475.47 558.12 486.32 569.23 493.35
  C 576.13 497.71 584.24 501.50 589.93 504.05
  Q 602.25 509.57 626.61 519.38
  Q 634.28 522.48 640.62 523.91
  C 656.52 527.49 672.66 519.92 672.48 501.75
  C 672.33 487.75 658.48 481.02 647.73 475.99
  Q 625.72 465.71 597.88 456.38
  C 590.37 453.86 585.97 447.00 583.39 439.98
  Q 578.51 426.68 576.25 420.27
  Q 567.55 395.57 552.44 374.57
  C 539.46 356.52 520.94 343.45 498.48 341.15
  Q 484.22 339.69 473.51 341.60
  C 462.64 343.54 453.22 348.10 443.80 353.58
  C 421.78 366.39 400.20 377.79 378.69 391.20
  C 367.41 398.22 356.66 407.67 351.79 420.05
  Q 350.01 424.57 344.02 440.54
  C 341.43 447.45 338.72 453.05 336.51 458.41
  C 330.80 472.22 319.12 488.38 329.89 502.71
  C 338.03 513.54 352.49 514.00 362.86 506.11
  Q 369.14 501.34 373.16 495.67
  C 381.02 484.61 384.79 471.89 389.90 456.30
  Q 392.16 449.40 394.43 445.64
  Q 398.55 438.84 401.35 436.36
  Q 406.88 431.47 414.48 428.17
  C 422.72 424.61 430.55 420.72 438.79 416.85
  A 0.51 0.51 0.0 0 1 439.35 416.94
  Q 439.46 417.05 439.44 417.51"
/>
<path stroke="#ff7a7a" vector-effect="non-scaling-stroke" d="
  M 534.21 454.33
  Q 530.96 465.59 528.31 476.91
  Q 524.99 491.10 523.92 494.09
  Q 520.90 502.53 517.33 510.54
  Q 514.45 516.99 515.62 524.88
  A 4.26 3.92 31.3 0 0 515.93 525.95
  Q 519.14 533.41 524.95 538.80
  Q 537.12 550.08 542.10 554.68
  Q 550.46 562.38 561.69 576.92
  C 571.78 590.00 578.59 604.19 583.78 619.70
  Q 588.09 632.58 605.07 686.63
  C 607.19 693.38 610.36 702.31 612.55 710.69
  Q 614.54 718.27 614.34 720.57
  Q 613.36 732.25 606.70 739.14
  Q 599.58 746.51 589.13 748.31
  C 576.10 750.56 564.29 744.94 557.71 733.53
  Q 550.33 720.74 545.79 706.99
  Q 538.04 683.46 531.62 662.17
  Q 527.50 648.53 524.14 637.86
  C 520.76 627.12 512.94 619.54 506.01 611.34
  Q 477.64 577.81 444.72 550.69
  C 436.55 543.96 429.02 536.16 423.80 527.25
  Q 415.92 513.79 419.00 498.80
  C 421.64 485.97 426.71 469.95 429.79 458.17
  C 433.18 445.23 436.22 432.60 440.40 419.34
  A 0.36 0.35 14.0 0 0 440.12 418.88
  Q 440.00 418.86 439.71 418.97"
/>
<path stroke="#ffa3a1" vector-effect="non-scaling-stroke" d="
  M 415.94 553.47
  Q 414.42 561.06 411.66 567.94
  Q 405.31 583.78 397.17 600.43
  C 390.28 614.55 379.96 628.39 367.78 642.41
  Q 361.60 649.52 336.65 678.39
  C 326.19 690.51 316.51 707.22 324.74 723.43
  C 329.21 732.26 337.52 737.68 347.30 738.83
  C 358.24 740.11 369.87 732.94 377.07 725.04
  C 384.20 717.22 390.70 708.77 397.38 701.04
  C 417.31 677.97 427.17 666.23 440.54 651.12
  C 450.62 639.74 461.04 628.17 467.06 614.36
  C 470.61 606.24 466.89 601.09 461.51 595.35
  Q 451.66 584.83 441.36 575.40
  Q 429.45 564.51 416.53 553.27
  A 0.36 0.36 0.0 0 0 415.94 553.47"
/>
<path stroke="#ff7a7a" vector-effect="non-scaling-stroke" d="
  M 500.23 316.71
  C 524.00 335.39 557.64 334.10 580.16 314.41
  C 603.83 293.71 606.85 261.35 590.02 235.72
  Q 584.14 226.76 575.95 220.33
  Q 567.77 213.90 557.68 210.31
  C 528.79 200.02 498.06 210.61 483.55 238.51
  C 469.75 265.05 476.46 298.04 500.23 316.71"
/>
<path stroke="#ff7a7a" vector-effect="non-scaling-stroke" d="
  M 416.21 555.22
  Q 415.02 560.90 413.07 566.10
  Q 408.63 577.92 398.94 598.45
  C 391.76 613.67 381.00 628.09 367.65 643.58
  Q 361.06 651.24 339.47 676.09
  C 330.47 686.45 322.16 697.66 322.47 711.97
  Q 322.64 720.02 328.31 727.76
  C 332.37 733.31 339.81 736.76 346.26 737.93
  C 356.78 739.83 367.99 733.19 375.24 726.00
  Q 378.46 722.80 387.52 711.76
  C 400.47 695.97 417.48 677.01 426.17 666.56
  C 434.42 656.63 447.39 643.06 455.92 631.80
  Q 459.38 627.23 461.47 623.71
  C 464.76 618.17 468.15 612.30 467.48 605.93
  A 4.67 4.54 -63.1 0 0 466.96 604.26
  Q 464.53 599.79 462.11 597.13
  Q 450.95 584.89 438.87 574.14
  Q 437.63 573.04 428.11 564.45
  Q 422.81 559.67 417.09 554.91
  A 0.54 0.54 0.0 0 0 416.21 555.22"
/>
</g>
<path fill="#010101" d="
  M 928.31 382.88
  Q 928.45 383.01 929.02 385.00
  Q 936.60 411.36 941.44 438.54
  Q 941.87 440.91 943.12 451.00
  Q 943.32 452.59 943.76 454.72
  C 944.16 456.67 943.84 458.76 944.20 460.76
  C 944.92 464.73 944.86 468.34 945.73 472.01
  C 946.22 474.07 945.75 477.25 946.23 479.25
  C 946.55 480.60 946.84 482.63 946.87 483.93
  C 947.06 493.75 948.02 503.52 947.81 512.69
  Q 947.12 542.73 945.02 560.76
  Q 941.13 594.17 932.37 627.12
  Q 929.35 638.50 927.73 643.29
  Q 925.72 649.24 922.38 659.25
  Q 912.88 687.71 898.21 715.51
  Q 895.85 719.98 892.28 726.65
  Q 889.16 732.51 886.62 736.38
  C 883.79 740.70 881.48 745.16 878.77 749.20
  Q 861.74 774.60 858.11 779.12
  Q 852.92 785.56 849.36 790.21
  C 843.58 797.78 839.70 801.72 833.01 809.59
  Q 829.33 813.91 825.51 817.95
  Q 809.48 834.87 794.17 848.40
  Q 792.66 849.74 790.27 851.48
  C 788.68 852.63 786.97 854.49 785.23 855.83
  C 780.66 859.34 776.67 862.83 772.86 865.63
  Q 750.54 881.98 735.99 890.98
  Q 681.25 924.81 619.50 941.49
  C 615.93 942.46 614.13 943.20 611.05 943.97
  Q 607.08 944.96 591.68 948.35
  Q 578.36 951.29 555.12 954.36
  Q 528.89 957.82 501.87 957.95
  C 495.42 957.99 488.24 956.96 482.47 957.00
  Q 477.50 957.05 469.66 956.01
  Q 461.93 954.99 456.79 954.66
  A 2.08 2.02 -28.5 0 1 456.00 954.44
  C 454.51 953.68 452.39 954.16 450.82 953.70
  C 448.07 952.89 444.52 953.30 442.27 952.38
  C 440.85 951.80 438.86 952.05 436.93 951.69
  Q 411.00 946.77 404.44 945.08
  Q 370.83 936.38 344.67 926.06
  Q 323.97 917.90 299.53 904.97
  Q 283.24 896.36 262.48 882.29
  Q 255.80 877.76 251.91 874.83
  Q 235.63 862.61 217.69 847.37
  Q 212.77 843.20 209.79 840.32
  Q 203.17 833.91 202.02 832.90
  Q 197.83 829.23 191.59 822.49
  Q 185.65 816.07 180.79 811.28
  C 179.31 809.81 177.88 807.62 176.73 806.34
  Q 158.48 786.18 142.66 762.86
  Q 133.17 748.86 129.38 742.74
  Q 125.97 737.21 125.76 736.81
  C 124.23 733.89 122.68 731.82 121.08 728.79
  Q 111.28 710.25 105.88 698.62
  Q 94.21 673.50 88.10 654.21
  Q 81.35 632.93 79.11 623.98
  Q 76.91 615.16 74.54 604.22
  Q 60.50 539.18 67.14 472.77
  C 67.41 470.05 68.10 467.34 68.05 464.16
  A 7.31 7.07 52.2 0 1 68.24 462.43
  C 68.94 459.44 68.89 456.91 69.26 454.53
  Q 75.46 414.81 84.62 383.59
  Q 95.33 347.07 112.73 312.75
  Q 118.20 301.97 126.03 289.86
  Q 129.08 285.15 129.47 284.96
  A 0.64 0.64 0.0 0 0 129.75 284.09
  Q 128.39 281.52 126.41 279.67
  A 3.28 3.24 4.0 0 1 125.90 279.09
  Q 124.61 277.29 117.80 267.94
  C 115.81 265.22 113.82 261.56 111.82 258.24
  Q 105.71 248.12 101.20 236.84
  C 99.05 231.46 97.21 223.37 95.95 218.70
  C 95.20 215.93 95.04 213.75 94.51 211.00
  Q 93.29 204.73 93.03 196.54
  Q 92.80 189.31 93.86 182.02
  Q 96.83 161.55 107.07 143.53
  Q 109.50 139.27 112.60 134.14
  C 117.44 126.15 123.98 119.24 130.76 112.81
  Q 133.25 110.45 137.92 106.92
  C 142.92 103.15 147.13 99.98 151.51 97.79
  A 1.15 0.00 -36.1 0 0 152.42 97.13
  Q 153.43 96.39 155.10 95.58
  Q 161.01 92.72 167.63 89.82
  Q 171.15 88.27 174.42 87.57
  Q 176.06 87.21 179.01 86.18
  Q 180.72 85.57 183.64 85.07
  C 187.94 84.32 192.06 83.30 196.06 83.10
  Q 210.45 82.41 218.73 83.15
  Q 229.50 84.12 242.89 88.32
  C 247.83 89.87 252.20 92.09 257.55 94.31
  Q 259.72 95.21 263.14 97.17
  Q 278.72 106.11 291.28 120.21
  Q 293.09 122.24 298.29 128.04
  A 0.75 0.75 0.0 0 0 299.26 128.17
  Q 325.07 111.60 353.86 99.83
  Q 359.35 97.58 359.83 97.38
  Q 363.51 95.81 365.89 95.09
  Q 366.85 94.80 378.24 90.81
  Q 384.68 88.54 390.68 86.83
  Q 424.61 77.15 459.42 72.43
  C 461.73 72.11 464.47 72.13 466.89 71.45
  Q 467.59 71.26 470.08 71.08
  Q 474.95 70.74 486.71 69.87
  C 505.96 68.46 525.68 68.72 544.25 70.16
  Q 548.36 70.48 550.50 70.85
  A 0.10 0.08 52.0 0 0 550.54 70.86
  L 568.52 72.18
  A 1.28 1.11 -30.5 0 1 568.79 72.23
  C 571.46 72.99 573.95 72.96 576.35 73.34
  Q 601.07 77.25 615.94 80.61
  Q 628.50 83.46 645.57 88.73
  Q 671.08 96.61 694.43 107.84
  Q 704.26 112.57 710.53 115.75
  Q 733.66 127.46 757.39 143.86
  Q 767.30 150.70 780.96 161.21
  Q 791.94 169.66 803.27 180.17
  Q 823.27 198.73 838.98 216.79
  Q 848.10 227.29 859.23 242.13
  Q 868.64 254.69 877.44 268.97
  Q 908.85 319.97 927.36 379.15
  Q 928.16 381.71 928.10 382.28
  A 0.73 0.73 0.0 0 0 928.31 382.88
  Z
  M 298.81 130.08
  A 0.53 0.53 0.0 0 1 297.89 130.07
  Q 296.90 128.29 294.80 125.71
  Q 272.79 98.61 241.32 88.75
  Q 216.44 80.95 191.18 84.64
  Q 166.57 88.24 144.55 103.22
  Q 120.24 119.75 106.46 146.44
  C 98.72 161.44 94.05 177.05 94.06 192.85
  Q 94.07 200.37 94.24 202.01
  C 95.86 218.11 100.12 234.23 107.68 248.79
  Q 117.63 267.97 130.86 283.08
  A 1.05 1.04 -47.5 0 1 130.91 284.39
  Q 123.92 293.92 116.82 307.03
  C 91.20 354.36 76.95 406.08 69.41 461.39
  Q 68.17 470.48 67.34 480.27
  Q 64.52 513.46 66.92 544.02
  C 67.54 551.92 67.97 560.07 69.17 568.14
  Q 72.75 592.11 76.41 608.67
  Q 90.61 672.90 123.20 730.38
  Q 157.79 791.36 213.11 842.26
  C 220.55 849.10 230.34 856.84 240.13 864.62
  Q 272.93 890.70 309.90 909.34
  Q 327.91 918.42 345.14 925.27
  C 352.31 928.12 360.19 930.59 365.68 932.66
  C 374.51 935.98 384.52 938.53 393.70 941.30
  Q 398.33 942.70 406.26 944.57
  Q 436.27 951.63 468.12 954.91
  Q 475.16 955.63 484.41 956.11
  Q 498.04 956.80 500.75 956.94
  Q 508.50 957.34 529.75 956.02
  Q 533.17 955.80 548.65 954.29
  C 553.69 953.79 557.69 953.06 561.97 952.49
  C 588.77 948.94 615.37 942.62 641.68 933.91
  Q 694.56 916.42 740.00 887.22
  Q 771.92 866.71 795.09 846.12
  Q 861.00 787.55 902.06 705.87
  Q 911.97 686.15 916.82 672.35
  Q 924.78 649.71 927.60 640.63
  Q 934.09 619.68 938.48 596.50
  Q 941.57 580.22 943.09 568.81
  Q 944.69 556.82 945.79 541.39
  C 946.26 534.84 946.06 528.08 946.48 521.82
  Q 946.91 515.43 946.65 507.17
  Q 946.27 495.47 945.93 487.06
  Q 945.69 481.06 944.62 471.18
  Q 942.86 454.84 940.99 442.01
  Q 939.38 430.90 933.48 405.10
  C 932.38 400.26 930.74 396.10 929.79 391.38
  Q 929.12 388.06 926.98 381.15
  Q 918.00 352.12 905.63 324.26
  C 901.87 315.79 899.41 311.09 894.61 301.48
  Q 881.23 274.65 863.51 249.57
  Q 859.76 244.25 857.29 241.13
  C 852.68 235.29 845.92 226.30 840.98 220.50
  Q 812.37 186.89 779.42 161.20
  Q 755.87 142.84 734.18 129.84
  Q 711.87 116.47 683.56 103.86
  Q 670.55 98.07 656.65 93.29
  Q 640.50 87.73 629.06 84.74
  Q 600.61 77.30 569.03 73.26
  Q 547.43 70.49 514.17 69.88
  C 506.55 69.74 499.13 70.30 489.54 70.67
  Q 479.65 71.05 471.12 71.97
  Q 431.89 76.20 394.31 86.73
  C 384.64 89.44 372.22 93.77 364.21 96.73
  Q 330.94 109.03 299.72 128.93
  A 1.90 1.89 -1.6 0 0 299.10 129.58
  L 298.81 130.08
  Z"
/>
<path fill="#ffffff" d="
  M 298.81 130.08
  L 299.10 129.58
  A 1.90 1.89 -1.6 0 1 299.72 128.93
  Q 330.94 109.03 364.21 96.73
  C 372.22 93.77 384.64 89.44 394.31 86.73
  Q 431.89 76.20 471.12 71.97
  Q 479.65 71.05 489.54 70.67
  C 499.13 70.30 506.55 69.74 514.17 69.88
  Q 547.43 70.49 569.03 73.26
  Q 600.61 77.30 629.06 84.74
  Q 640.50 87.73 656.65 93.29
  Q 670.55 98.07 683.56 103.86
  Q 711.87 116.47 734.18 129.84
  Q 755.87 142.84 779.42 161.20
  Q 812.37 186.89 840.98 220.50
  C 845.92 226.30 852.68 235.29 857.29 241.13
  Q 859.76 244.25 863.51 249.57
  Q 881.23 274.65 894.61 301.48
  C 899.41 311.09 901.87 315.79 905.63 324.26
  Q 918.00 352.12 926.98 381.15
  Q 929.12 388.06 929.79 391.38
  C 930.74 396.10 932.38 400.26 933.48 405.10
  Q 939.38 430.90 940.99 442.01
  Q 942.86 454.84 944.62 471.18
  Q 945.69 481.06 945.93 487.06
  Q 946.27 495.47 946.65 507.17
  Q 946.91 515.43 946.48 521.82
  C 946.06 528.08 946.26 534.84 945.79 541.39
  Q 944.69 556.82 943.09 568.81
  Q 941.57 580.22 938.48 596.50
  Q 934.09 619.68 927.60 640.63
  Q 924.78 649.71 916.82 672.35
  Q 911.97 686.15 902.06 705.87
  Q 861.00 787.55 795.09 846.12
  Q 771.92 866.71 740.00 887.22
  Q 694.56 916.42 641.68 933.91
  C 615.37 942.62 588.77 948.94 561.97 952.49
  C 557.69 953.06 553.69 953.79 548.65 954.29
  Q 533.17 955.80 529.75 956.02
  Q 508.50 957.34 500.75 956.94
  Q 498.04 956.80 484.41 956.11
  Q 475.16 955.63 468.12 954.91
  Q 436.27 951.63 406.26 944.57
  Q 398.33 942.70 393.70 941.30
  C 384.52 938.53 374.51 935.98 365.68 932.66
  C 360.19 930.59 352.31 928.12 345.14 925.27
  Q 327.91 918.42 309.90 909.34
  Q 272.93 890.70 240.13 864.62
  C 230.34 856.84 220.55 849.10 213.11 842.26
  Q 157.79 791.36 123.20 730.38
  Q 90.61 672.90 76.41 608.67
  Q 72.75 592.11 69.17 568.14
  C 67.97 560.07 67.54 551.92 66.92 544.02
  Q 64.52 513.46 67.34 480.27
  Q 68.17 470.48 69.41 461.39
  C 76.95 406.08 91.20 354.36 116.82 307.03
  Q 123.92 293.92 130.91 284.39
  A 1.05 1.04 -47.5 0 0 130.86 283.08
  Q 117.63 267.97 107.68 248.79
  C 100.12 234.23 95.86 218.11 94.24 202.01
  Q 94.07 200.37 94.06 192.85
  C 94.05 177.05 98.72 161.44 106.46 146.44
  Q 120.24 119.75 144.55 103.22
  Q 166.57 88.24 191.18 84.64
  Q 216.44 80.95 241.32 88.75
  Q 272.79 98.61 294.80 125.71
  Q 296.90 128.29 297.89 130.07
  A 0.53 0.53 0.0 0 0 298.81 130.08
  Z
  M 495.94 97.89
  Q 476.31 98.77 452.29 102.63
  Q 408.31 109.71 369.06 125.04
  Q 342.28 135.49 320.12 148.39
  Q 312.54 152.80 309.75 155.54
  Q 303.62 161.56 307.41 169.87
  Q 311.22 178.22 317.36 184.11
  Q 324.70 191.14 334.12 186.33
  Q 336.67 185.03 353.35 176.56
  Q 408.36 148.66 468.68 141.11
  Q 569.11 128.53 661.14 169.59
  Q 687.51 181.36 711.34 197.33
  Q 791.83 251.29 835.35 337.07
  C 862.42 390.42 878.06 450.18 877.55 510.12
  Q 877.34 535.02 875.12 553.75
  C 869.34 602.43 854.14 650.66 829.92 693.49
  Q 804.41 738.58 769.72 773.71
  Q 726.46 817.52 669.61 846.57
  Q 662.21 850.35 651.17 855.06
  Q 638.69 860.39 632.35 862.61
  Q 556.85 889.09 478.03 883.24
  Q 450.43 881.18 423.33 874.76
  C 383.72 865.36 345.26 849.96 311.57 828.93
  Q 277.66 807.77 248.78 779.70
  Q 229.25 760.71 210.15 734.84
  C 165.00 673.68 136.29 598.72 134.76 523.00
  Q 134.28 499.17 135.82 479.01
  Q 138.07 449.68 145.50 420.00
  Q 151.16 397.38 162.23 369.14
  C 165.80 360.01 171.35 349.29 175.04 341.81
  C 177.69 336.45 179.15 333.00 175.69 327.64
  Q 171.22 320.72 166.60 314.41
  C 162.43 308.72 155.70 300.62 149.23 309.30
  Q 145.58 314.20 141.47 321.70
  Q 128.94 344.55 119.43 371.61
  Q 99.41 428.61 96.37 488.26
  Q 94.83 518.52 96.55 542.06
  Q 97.65 557.20 98.36 563.37
  Q 99.91 576.87 101.55 586.17
  Q 121.94 702.02 201.44 789.55
  Q 227.02 817.71 257.27 840.73
  Q 271.52 851.56 274.43 853.55
  Q 297.67 869.45 324.70 883.30
  C 374.65 908.90 429.39 922.64 485.75 926.22
  Q 499.73 927.11 513.00 926.85
  C 567.94 925.77 622.75 914.02 672.94 891.30
  Q 700.43 878.85 727.77 860.89
  C 762.65 837.97 793.90 810.63 820.24 779.49
  C 860.62 731.73 889.54 674.63 905.60 614.23
  Q 913.88 583.11 916.53 553.75
  Q 919.43 521.68 917.64 492.26
  C 914.20 435.47 899.29 379.45 875.18 327.86
  Q 846.40 266.30 798.41 217.63
  Q 760.66 179.35 718.77 154.28
  Q 639.51 106.86 546.26 98.66
  Q 539.55 98.06 532.80 97.88
  Q 514.40 96.68 495.94 97.89
  Z
  M 205.62 328.35
  C 212.67 331.79 221.04 320.24 225.03 314.79
  Q 244.13 288.79 260.69 264.18
  Q 270.02 250.31 276.64 237.95
  Q 282.89 226.28 285.26 218.72
  Q 293.47 192.50 283.97 166.56
  Q 274.64 141.09 253.18 125.62
  C 229.26 108.38 197.04 104.98 170.61 118.83
  C 142.40 133.62 123.82 161.80 122.63 193.75
  C 121.77 216.67 133.82 237.23 146.74 255.06
  Q 163.86 278.70 183.11 303.41
  Q 194.80 318.42 199.75 323.75
  Q 202.70 326.91 205.62 328.35
  Z
  M 202.66 356.65
  A 0.81 0.81 0.0 0 0 201.57 357.06
  Q 193.87 375.22 186.90 394.65
  Q 179.70 414.72 175.24 433.17
  Q 168.49 461.09 166.27 490.75
  Q 165.36 502.82 166.17 529.51
  C 166.30 533.87 167.08 537.75 167.26 542.32
  Q 167.37 545.33 168.20 551.91
  Q 175.36 609.33 200.02 661.97
  C 206.41 675.60 214.26 689.50 221.80 701.20
  Q 239.65 728.92 264.01 753.75
  Q 280.28 770.33 297.81 783.62
  Q 369.34 837.87 458.73 851.42
  Q 494.26 856.81 530.20 854.00
  Q 565.64 851.23 600.08 841.55
  C 675.45 820.39 740.93 772.80 786.39 709.41
  C 801.18 688.78 812.81 666.91 821.80 643.58
  Q 839.41 597.85 844.84 549.67
  C 845.72 541.84 846.82 532.37 846.99 524.07
  Q 847.54 498.02 846.77 487.78
  C 845.49 470.95 843.32 453.93 839.63 438.30
  Q 824.65 374.95 789.85 321.40
  Q 774.09 297.13 756.92 277.93
  Q 751.85 272.26 746.14 266.22
  Q 739.61 259.32 734.71 255.05
  Q 718.93 241.26 716.28 239.23
  Q 678.74 210.45 637.18 194.38
  Q 574.19 170.01 506.01 172.38
  C 478.96 173.32 453.27 177.23 427.00 184.01
  C 407.36 189.09 388.51 196.31 369.82 204.60
  Q 364.13 207.13 348.21 215.61
  Q 339.50 220.24 331.75 225.01
  Q 319.16 232.77 315.66 235.03
  A 2.50 2.45 -0.9 0 0 314.83 235.87
  Q 304.67 252.94 299.82 259.59
  Q 279.84 287.00 260.25 313.89
  C 252.79 324.14 247.10 333.54 239.04 341.80
  Q 232.33 348.68 229.00 350.74
  Q 223.93 353.88 216.52 356.03
  Q 211.18 357.58 203.93 357.11
  A 1.68 1.61 -29.0 0 1 203.29 356.94
  L 202.66 356.65
  Z"
/>
<path fill="#ffadb1" d="
  M 532.80 97.88
  L 530.91 98.12
  A 0.26 0.22 -4.5 0 0 530.68 98.34
  L 530.68 98.35
  A 0.24 0.23 -88.8 0 0 530.91 98.60
  Q 539.50 98.75 541.50 98.94
  C 558.96 100.54 575.99 102.74 592.19 105.98
  C 599.95 107.53 607.34 109.56 615.37 111.51
  Q 623.08 113.38 632.57 116.35
  Q 660.27 125.00 689.21 139.02
  Q 717.02 152.49 741.61 170.16
  Q 771.05 191.32 794.68 214.82
  Q 847.01 266.85 877.44 334.79
  Q 891.07 365.24 900.45 397.77
  Q 911.40 435.79 915.54 476.34
  C 916.01 480.95 915.86 484.09 916.38 487.92
  Q 916.92 491.95 917.05 496.61
  Q 917.73 520.75 916.86 537.75
  Q 916.15 551.79 913.03 574.95
  Q 911.38 587.13 907.84 601.63
  Q 903.61 619.00 900.89 627.93
  C 885.73 677.70 862.45 724.26 830.83 765.36
  C 815.26 785.60 796.77 804.95 778.49 821.23
  Q 743.45 852.43 701.03 876.25
  Q 656.11 901.47 602.98 914.42
  Q 576.95 920.77 555.61 923.08
  Q 529.70 925.89 514.25 926.06
  Q 473.75 926.52 432.57 918.88
  Q 386.50 910.34 344.96 892.04
  Q 317.93 880.14 288.31 861.75
  Q 274.67 853.29 258.75 840.94
  C 235.34 822.79 213.86 803.15 194.83 780.91
  Q 184.60 768.97 182.61 766.41
  Q 120.21 686.34 102.63 587.76
  Q 99.98 572.91 97.68 548.13
  Q 96.56 536.17 96.56 520.83
  Q 96.56 495.92 96.68 493.50
  Q 97.29 480.73 97.53 478.75
  Q 98.67 469.32 99.56 459.35
  C 99.74 457.43 100.26 455.32 100.55 453.12
  Q 102.65 437.09 106.19 420.74
  Q 115.87 376.19 135.30 335.31
  Q 142.62 319.91 147.75 312.50
  C 149.03 310.64 150.65 308.28 152.43 307.22
  C 157.01 304.50 160.94 308.50 163.74 312.04
  Q 169.18 318.93 175.16 328.25
  C 177.92 332.55 177.35 335.44 175.10 339.87
  Q 167.16 355.45 163.48 364.20
  Q 146.58 404.43 139.13 445.55
  C 137.61 453.99 136.36 465.02 135.53 471.50
  Q 134.32 481.02 133.94 512.00
  Q 133.37 559.71 146.05 605.74
  Q 154.21 635.34 169.24 668.03
  Q 174.01 678.41 179.79 688.71
  Q 187.93 703.21 191.47 708.79
  Q 203.98 728.55 219.10 747.74
  C 251.05 788.30 292.60 821.67 338.24 844.71
  Q 383.43 867.51 434.85 878.02
  Q 447.40 880.58 460.81 882.18
  Q 477.83 884.20 487.00 884.70
  Q 494.17 885.08 527.02 884.84
  C 528.71 884.82 531.99 883.94 534.38 883.85
  Q 540.56 883.64 547.50 882.85
  Q 588.77 878.21 627.81 864.99
  C 634.01 862.89 640.90 859.96 646.75 857.66
  Q 653.12 855.16 660.72 851.63
  Q 692.80 836.69 723.26 814.51
  Q 782.53 771.33 821.34 709.36
  Q 848.04 666.71 862.58 618.09
  Q 873.01 583.17 876.33 549.80
  C 876.69 546.25 876.72 542.88 877.16 539.58
  Q 877.62 536.12 877.77 531.90
  Q 878.38 515.19 878.51 512.23
  C 878.84 504.71 878.17 497.71 877.85 489.32
  Q 877.55 481.45 876.56 472.22
  Q 870.32 414.12 847.21 360.75
  Q 836.80 336.70 824.80 316.16
  Q 785.86 249.42 720.50 202.75
  Q 691.00 181.69 662.56 169.43
  Q 644.39 161.60 639.93 159.93
  Q 566.66 132.49 487.24 138.38
  Q 461.36 140.30 434.48 146.30
  Q 392.73 155.61 354.82 175.08
  Q 340.01 182.68 335.48 184.90
  C 330.57 187.30 325.94 188.60 321.50 186.09
  Q 318.01 184.11 316.54 182.50
  C 312.65 178.23 306.50 169.63 306.69 163.49
  Q 306.85 158.21 311.90 154.64
  Q 320.24 148.75 329.57 143.84
  Q 377.26 118.75 431.45 107.22
  Q 453.41 102.54 468.01 101.08
  C 472.05 100.67 475.82 99.83 479.78 99.59
  Q 496.83 98.54 497.64 98.45
  A 0.18 0.18 0.0 0 0 497.68 98.10
  Q 497.01 97.89 495.94 97.89
  Q 514.40 96.68 532.80 97.88
  Z"
/>
<path fill="#fe4642" d="
  M 495.94 97.89
  Q 497.01 97.89 497.68 98.10
  A 0.18 0.18 0.0 0 1 497.64 98.45
  Q 496.83 98.54 479.78 99.59
  C 475.82 99.83 472.05 100.67 468.01 101.08
  Q 453.41 102.54 431.45 107.22
  Q 377.26 118.75 329.57 143.84
  Q 320.24 148.75 311.90 154.64
  Q 306.85 158.21 306.69 163.49
  C 306.50 169.63 312.65 178.23 316.54 182.50
  Q 318.01 184.11 321.50 186.09
  C 325.94 188.60 330.57 187.30 335.48 184.90
  Q 340.01 182.68 354.82 175.08
  Q 392.73 155.61 434.48 146.30
  Q 461.36 140.30 487.24 138.38
  Q 566.66 132.49 639.93 159.93
  Q 644.39 161.60 662.56 169.43
  Q 691.00 181.69 720.50 202.75
  Q 785.86 249.42 824.80 316.16
  Q 836.80 336.70 847.21 360.75
  Q 870.32 414.12 876.56 472.22
  Q 877.55 481.45 877.85 489.32
  C 878.17 497.71 878.84 504.71 878.51 512.23
  Q 878.38 515.19 877.77 531.90
  Q 877.62 536.12 877.16 539.58
  C 876.72 542.88 876.69 546.25 876.33 549.80
  Q 873.01 583.17 862.58 618.09
  Q 848.04 666.71 821.34 709.36
  Q 782.53 771.33 723.26 814.51
  Q 692.80 836.69 660.72 851.63
  Q 653.12 855.16 646.75 857.66
  C 640.90 859.96 634.01 862.89 627.81 864.99
  Q 588.77 878.21 547.50 882.85
  Q 540.56 883.64 534.38 883.85
  C 531.99 883.94 528.71 884.82 527.02 884.84
  Q 494.17 885.08 487.00 884.70
  Q 477.83 884.20 460.81 882.18
  Q 447.40 880.58 434.85 878.02
  Q 383.43 867.51 338.24 844.71
  C 292.60 821.67 251.05 788.30 219.10 747.74
  Q 203.98 728.55 191.47 708.79
  Q 187.93 703.21 179.79 688.71
  Q 174.01 678.41 169.24 668.03
  Q 154.21 635.34 146.05 605.74
  Q 133.37 559.71 133.94 512.00
  Q 134.32 481.02 135.53 471.50
  C 136.36 465.02 137.61 453.99 139.13 445.55
  Q 146.58 404.43 163.48 364.20
  Q 167.16 355.45 175.10 339.87
  C 177.35 335.44 177.92 332.55 175.16 328.25
  Q 169.18 318.93 163.74 312.04
  C 160.94 308.50 157.01 304.50 152.43 307.22
  C 150.65 308.28 149.03 310.64 147.75 312.50
  Q 142.62 319.91 135.30 335.31
  Q 115.87 376.19 106.19 420.74
  Q 102.65 437.09 100.55 453.12
  C 100.26 455.32 99.74 457.43 99.56 459.35
  Q 98.67 469.32 97.53 478.75
  Q 97.29 480.73 96.68 493.50
  Q 96.56 495.92 96.56 520.83
  Q 96.56 536.17 97.68 548.13
  Q 99.98 572.91 102.63 587.76
  Q 120.21 686.34 182.61 766.41
  Q 184.60 768.97 194.83 780.91
  C 213.86 803.15 235.34 822.79 258.75 840.94
  Q 274.67 853.29 288.31 861.75
  Q 317.93 880.14 344.96 892.04
  Q 386.50 910.34 432.57 918.88
  Q 473.75 926.52 514.25 926.06
  Q 529.70 925.89 555.61 923.08
  Q 576.95 920.77 602.98 914.42
  Q 656.11 901.47 701.03 876.25
  Q 743.45 852.43 778.49 821.23
  C 796.77 804.95 815.26 785.60 830.83 765.36
  C 862.45 724.26 885.73 677.70 900.89 627.93
  Q 903.61 619.00 907.84 601.63
  Q 911.38 587.13 913.03 574.95
  Q 916.15 551.79 916.86 537.75
  Q 917.73 520.75 917.05 496.61
  Q 916.92 491.95 916.38 487.92
  C 915.86 484.09 916.01 480.95 915.54 476.34
  Q 911.40 435.79 900.45 397.77
  Q 891.07 365.24 877.44 334.79
  Q 847.01 266.85 794.68 214.82
  Q 771.05 191.32 741.61 170.16
  Q 717.02 152.49 689.21 139.02
  Q 660.27 125.00 632.57 116.35
  Q 623.08 113.38 615.37 111.51
  C 607.34 109.56 599.95 107.53 592.19 105.98
  C 575.99 102.74 558.96 100.54 541.50 98.94
  Q 539.50 98.75 530.91 98.60
  A 0.24 0.23 -88.8 0 1 530.68 98.35
  L 530.68 98.34
  A 0.26 0.22 -4.5 0 1 530.91 98.12
  L 532.80 97.88
  Q 539.55 98.06 546.26 98.66
  Q 639.51 106.86 718.77 154.28
  Q 760.66 179.35 798.41 217.63
  Q 846.40 266.30 875.18 327.86
  C 899.29 379.45 914.20 435.47 917.64 492.26
  Q 919.43 521.68 916.53 553.75
  Q 913.88 583.11 905.60 614.23
  C 889.54 674.63 860.62 731.73 820.24 779.49
  C 793.90 810.63 762.65 837.97 727.77 860.89
  Q 700.43 878.85 672.94 891.30
  C 622.75 914.02 567.94 925.77 513.00 926.85
  Q 499.73 927.11 485.75 926.22
  C 429.39 922.64 374.65 908.90 324.70 883.30
  Q 297.67 869.45 274.43 853.55
  Q 271.52 851.56 257.27 840.73
  Q 227.02 817.71 201.44 789.55
  Q 121.94 702.02 101.55 586.17
  Q 99.91 576.87 98.36 563.37
  Q 97.65 557.20 96.55 542.06
  Q 94.83 518.52 96.37 488.26
  Q 99.41 428.61 119.43 371.61
  Q 128.94 344.55 141.47 321.70
  Q 145.58 314.20 149.23 309.30
  C 155.70 300.62 162.43 308.72 166.60 314.41
  Q 171.22 320.72 175.69 327.64
  C 179.15 333.00 177.69 336.45 175.04 341.81
  C 171.35 349.29 165.80 360.01 162.23 369.14
  Q 151.16 397.38 145.50 420.00
  Q 138.07 449.68 135.82 479.01
  Q 134.28 499.17 134.76 523.00
  C 136.29 598.72 165.00 673.68 210.15 734.84
  Q 229.25 760.71 248.78 779.70
  Q 277.66 807.77 311.57 828.93
  C 345.26 849.96 383.72 865.36 423.33 874.76
  Q 450.43 881.18 478.03 883.24
  Q 556.85 889.09 632.35 862.61
  Q 638.69 860.39 651.17 855.06
  Q 662.21 850.35 669.61 846.57
  Q 726.46 817.52 769.72 773.71
  Q 804.41 738.58 829.92 693.49
  C 854.14 650.66 869.34 602.43 875.12 553.75
  Q 877.34 535.02 877.55 510.12
  C 878.06 450.18 862.42 390.42 835.35 337.07
  Q 791.83 251.29 711.34 197.33
  Q 687.51 181.36 661.14 169.59
  Q 569.11 128.53 468.68 141.11
  Q 408.36 148.66 353.35 176.56
  Q 336.67 185.03 334.12 186.33
  Q 324.70 191.14 317.36 184.11
  Q 311.22 178.22 307.41 169.87
  Q 303.62 161.56 309.75 155.54
  Q 312.54 152.80 320.12 148.39
  Q 342.28 135.49 369.06 125.04
  Q 408.31 109.71 452.29 102.63
  Q 476.31 98.77 495.94 97.89
  Z"
/>
<path fill="#fe4642" d="
  M 225.03 314.79
  C 221.04 320.24 212.67 331.79 205.62 328.35
  Q 202.70 326.91 199.75 323.75
  Q 194.80 318.42 183.11 303.41
  Q 163.86 278.70 146.74 255.06
  C 133.82 237.23 121.77 216.67 122.63 193.75
  C 123.82 161.80 142.40 133.62 170.61 118.83
  C 197.04 104.98 229.26 108.38 253.18 125.62
  Q 274.64 141.09 283.97 166.56
  Q 293.47 192.50 285.26 218.72
  Q 282.89 226.28 276.64 237.95
  Q 270.02 250.31 260.69 264.18
  Q 244.13 288.79 225.03 314.79
  Z
  M 205.77 327.30
  C 212.77 330.70 221.05 319.23 225.00 313.82
  Q 243.91 288.01 260.29 263.58
  Q 269.53 249.82 276.07 237.55
  Q 282.26 225.97 284.60 218.47
  Q 292.70 192.46 283.24 166.75
  Q 273.96 141.50 252.65 126.19
  C 228.91 109.13 196.95 105.80 170.76 119.57
  C 142.81 134.28 124.42 162.25 123.29 193.93
  C 122.47 216.66 134.45 237.04 147.28 254.70
  Q 164.29 278.12 183.42 302.59
  Q 195.03 317.46 199.95 322.74
  Q 202.88 325.87 205.77 327.30
  Z"
/>
<path fill="#ffadb1" d="
  M 205.77 327.30
  Q 202.88 325.87 199.95 322.74
  Q 195.03 317.46 183.42 302.59
  Q 164.29 278.12 147.28 254.70
  C 134.45 237.04 122.47 216.66 123.29 193.93
  C 124.42 162.25 142.81 134.28 170.76 119.57
  C 196.95 105.80 228.91 109.13 252.65 126.19
  Q 273.96 141.50 283.24 166.75
  Q 292.70 192.46 284.60 218.47
  Q 282.26 225.97 276.07 237.55
  Q 269.53 249.82 260.29 263.58
  Q 243.91 288.01 225.00 313.82
  C 221.05 319.23 212.77 330.70 205.77 327.30
  Z
  M 249.06 192.00
  A 44.45 44.45 0.0 0 0 204.61 147.55
  A 44.45 44.45 0.0 0 0 160.16 192.00
  A 44.45 44.45 0.0 0 0 204.61 236.45
  A 44.45 44.45 0.0 0 0 249.06 192.00
  Z"
/>
<path fill="#fe4642" d="
  M 249.06 192.00
  A 44.45 44.45 0.0 0 1 204.61 236.45
  A 44.45 44.45 0.0 0 1 160.16 192.00
  A 44.45 44.45 0.0 0 1 204.61 147.55
  A 44.45 44.45 0.0 0 1 249.06 192.00
  Z
  M 248.26 192.03
  A 43.65 43.65 0.0 0 0 204.61 148.38
  A 43.65 43.65 0.0 0 0 160.96 192.03
  A 43.65 43.65 0.0 0 0 204.61 235.68
  A 43.65 43.65 0.0 0 0 248.26 192.03
  Z"
/>
<path fill="#ffffff" d="
  M 248.26 192.03
  A 43.65 43.65 0.0 0 1 204.61 235.68
  A 43.65 43.65 0.0 0 1 160.96 192.03
  A 43.65 43.65 0.0 0 1 204.61 148.38
  A 43.65 43.65 0.0 0 1 248.26 192.03
  Z
  M 213.5837 179.7149
  A 15.15 14.85 -55.9 0 0 192.7933 183.9345
  A 15.15 14.85 -55.9 0 0 196.5963 204.8051
  A 15.15 14.85 -55.9 0 0 217.3867 200.5855
  A 15.15 14.85 -55.9 0 0 213.5837 179.7149
  Z"
/>
<path fill="#010101" d="
  M 202.66 356.65
  L 203.29 356.94
  A 1.68 1.61 -29.0 0 0 203.93 357.11
  Q 211.18 357.58 216.52 356.03
  Q 223.93 353.88 229.00 350.74
  Q 232.33 348.68 239.04 341.80
  C 247.10 333.54 252.79 324.14 260.25 313.89
  Q 279.84 287.00 299.82 259.59
  Q 304.67 252.94 314.83 235.87
  A 2.50 2.45 -0.9 0 1 315.66 235.03
  Q 319.16 232.77 331.75 225.01
  Q 339.50 220.24 348.21 215.61
  Q 364.13 207.13 369.82 204.60
  C 388.51 196.31 407.36 189.09 427.00 184.01
  C 453.27 177.23 478.96 173.32 506.01 172.38
  Q 574.19 170.01 637.18 194.38
  Q 678.74 210.45 716.28 239.23
  Q 718.93 241.26 734.71 255.05
  Q 739.61 259.32 746.14 266.22
  Q 751.85 272.26 756.92 277.93
  Q 774.09 297.13 789.85 321.40
  Q 824.65 374.95 839.63 438.30
  C 843.32 453.93 845.49 470.95 846.77 487.78
  Q 847.54 498.02 846.99 524.07
  C 846.82 532.37 845.72 541.84 844.84 549.67
  Q 839.41 597.85 821.80 643.58
  C 812.81 666.91 801.18 688.78 786.39 709.41
  C 740.93 772.80 675.45 820.39 600.08 841.55
  Q 565.64 851.23 530.20 854.00
  Q 494.26 856.81 458.73 851.42
  Q 369.34 837.87 297.81 783.62
  Q 280.28 770.33 264.01 753.75
  Q 239.65 728.92 221.80 701.20
  C 214.26 689.50 206.41 675.60 200.02 661.97
  Q 175.36 609.33 168.20 551.91
  Q 167.37 545.33 167.26 542.32
  C 167.08 537.75 166.30 533.87 166.17 529.51
  Q 165.36 502.82 166.27 490.75
  Q 168.49 461.09 175.24 433.17
  Q 179.70 414.72 186.90 394.65
  Q 193.87 375.22 201.57 357.06
  A 0.81 0.81 0.0 0 1 202.66 356.65
  Z
  M 696.12 796.02
  Q 696.52 795.89 696.73 795.73
  Q 704.54 790.02 713.95 783.18
  Q 720.28 778.57 725.35 774.10
  C 733.86 766.60 744.07 757.63 752.58 748.65
  Q 769.01 731.33 782.25 713.61
  Q 785.22 709.63 787.26 706.46
  C 791.40 700.01 795.41 694.96 799.22 688.25
  Q 810.78 667.90 815.35 656.61
  Q 815.56 656.07 818.36 649.64
  Q 820.67 644.36 821.31 642.65
  Q 835.02 606.26 841.27 568.23
  C 841.31 567.97 841.44 567.80 841.48 567.53
  Q 848.49 526.15 845.42 483.59
  Q 845.33 482.30 845.03 478.76
  Q 842.82 452.27 835.93 427.53
  Q 829.89 405.81 823.68 389.55
  Q 809.02 351.20 782.83 312.49
  Q 782.02 311.29 782.00 311.27
  Q 775.69 302.19 766.84 291.07
  Q 764.52 288.15 760.50 283.61
  Q 756.98 279.64 754.28 276.01
  Q 753.47 274.91 752.06 274.00
  A 2.98 2.77 -2.2 0 1 751.49 273.51
  Q 742.14 263.04 737.71 259.05
  Q 730.12 252.21 720.97 244.42
  Q 711.87 236.67 703.38 230.87
  Q 684.68 218.11 666.08 208.37
  A 3.91 3.66 65.3 0 0 665.44 208.11
  Q 664.45 207.81 663.05 207.04
  Q 649.36 199.53 628.24 192.04
  Q 606.22 184.24 581.24 179.08
  Q 550.43 172.73 510.67 172.95
  C 504.24 172.98 496.03 174.15 489.75 173.99
  A 7.04 6.43 37.0 0 0 488.28 174.13
  Q 484.88 174.86 481.50 174.92
  A 5.56 5.40 -51.0 0 0 480.41 175.05
  Q 475.91 176.03 470.77 176.01
  A 4.31 4.25 -54.5 0 0 469.33 176.26
  C 467.27 176.98 465.22 176.92 462.89 177.31
  Q 437.34 181.60 412.70 188.95
  Q 409.23 189.98 389.38 197.19
  C 384.96 198.79 381.92 200.60 378.20 202.00
  Q 373.50 203.76 369.79 205.60
  Q 346.35 217.21 335.90 223.67
  Q 325.60 230.03 316.53 235.68
  A 4.10 4.04 88.1 0 0 315.10 237.23
  Q 312.60 241.96 310.83 244.84
  Q 308.61 248.45 295.71 267.07
  C 291.54 273.08 285.51 280.55 281.10 287.10
  C 280.54 287.94 279.54 288.74 278.80 289.79
  Q 267.72 305.58 258.97 317.49
  Q 254.19 324.01 250.87 328.84
  Q 246.70 334.89 242.41 339.90
  Q 237.99 345.07 230.37 351.16
  A 4.64 4.53 12.0 0 1 229.53 351.69
  Q 224.92 353.92 223.43 354.63
  Q 213.70 359.27 203.18 357.80
  A 1.11 1.11 0.0 0 0 202.01 358.47
  Q 193.26 379.03 185.73 400.72
  C 179.53 418.57 174.25 437.89 171.26 457.17
  Q 168.30 476.36 168.14 479.27
  C 167.88 484.25 167.20 487.87 167.08 492.26
  Q 166.51 512.78 167.14 532.01
  C 167.19 533.60 167.68 535.43 167.78 536.94
  Q 168.48 548.10 169.91 557.84
  Q 172.48 575.42 175.41 587.98
  Q 181.53 614.19 191.59 640.00
  Q 202.02 666.77 214.96 688.08
  Q 218.68 694.21 220.46 697.24
  Q 223.44 702.31 226.16 706.27
  Q 236.64 721.52 249.54 736.72
  Q 274.48 766.09 306.05 788.69
  Q 326.33 803.21 346.66 813.80
  Q 361.20 821.37 375.39 827.33
  Q 419.34 845.80 466.66 851.61
  Q 480.74 853.34 484.25 853.22
  Q 485.66 853.18 490.60 853.77
  Q 492.22 853.96 497.00 854.04
  C 508.33 854.21 517.72 854.35 526.74 853.45
  Q 529.28 853.20 532.74 852.97
  Q 541.98 852.37 561.40 849.19
  Q 570.54 847.69 576.11 846.54
  Q 611.39 839.27 645.27 824.20
  Q 650.12 822.05 652.42 820.88
  C 658.32 817.90 664.24 815.17 669.94 811.88
  Q 686.34 802.38 688.76 800.76
  Q 695.00 796.57 695.22 796.42
  A 2.10 0.38 -13.7 0 1 696.12 796.02
  Z"
/>
<path fill="#010101" d="
  M 213.5837 179.7149
  A 15.15 14.85 -55.9 0 1 217.3867 200.5855
  A 15.15 14.85 -55.9 0 1 196.5963 204.8051
  A 15.15 14.85 -55.9 0 1 192.7933 183.9345
  A 15.15 14.85 -55.9 0 1 213.5837 179.7149
  Z
  M 212.0439 180.1741
  A 13.93 13.66 -60.1 0 0 193.2582 185.4407
  A 13.93 13.66 -60.1 0 0 198.1561 204.3259
  A 13.93 13.66 -60.1 0 0 216.9418 199.0593
  A 13.93 13.66 -60.1 0 0 212.0439 180.1741
  Z"
/>
<ellipse fill="#5b585a" cx="0.00" cy="0.00" transform="translate(205.10,192.25) rotate(-60.1)" rx="13.93" ry="13.66"/>
<path fill="#010101" d="
  M 543.44 512.72
  Q 543.91 512.15 544.46 512.42
  Q 549.54 515.00 553.93 517.36
  C 564.58 523.07 574.64 527.57 589.45 534.53
  Q 607.91 543.22 617.90 547.07
  Q 624.78 549.72 631.01 551.23
  C 648.28 555.42 668.45 552.01 682.02 540.10
  Q 695.90 527.92 700.09 509.80
  Q 703.00 497.19 698.08 484.48
  Q 693.76 473.32 685.01 465.51
  Q 677.51 458.82 666.00 453.98
  Q 623.47 436.11 614.90 432.33
  Q 612.96 431.47 610.55 429.87
  A 3.51 3.51 0.0 0 1 609.18 428.11
  C 602.36 408.48 596.51 390.47 585.12 373.02
  Q 577.74 361.72 569.87 352.14
  A 0.51 0.51 0.0 0 1 570.12 351.33
  Q 579.80 348.48 586.53 344.90
  Q 593.56 341.17 600.69 334.54
  C 612.76 323.32 621.89 307.53 626.19 291.42
  C 630.02 277.08 630.78 260.11 626.84 245.74
  Q 620.32 222.01 602.37 205.26
  Q 592.87 196.40 582.65 191.14
  Q 575.36 187.38 565.95 184.13
  C 561.76 182.69 556.93 182.03 551.47 180.93
  Q 545.40 179.70 540.45 179.55
  Q 522.92 179.02 507.82 183.17
  Q 497.88 185.91 490.04 190.81
  C 482.91 195.27 475.37 200.94 469.49 207.67
  C 456.97 222.00 448.09 240.82 446.85 260.01
  Q 446.39 267.08 446.42 268.74
  Q 446.92 292.62 457.59 311.67
  Q 458.98 314.15 456.65 315.15
  C 451.22 317.46 443.41 321.77 437.54 325.53
  Q 427.26 332.13 415.33 338.87
  C 408.51 342.73 399.48 348.30 391.55 353.13
  C 386.44 356.24 382.09 358.33 377.89 361.00
  Q 374.00 363.47 367.74 367.06
  C 351.56 376.34 338.07 387.24 328.83 403.39
  Q 325.37 409.43 319.47 425.90
  Q 312.45 445.51 302.35 467.87
  Q 297.78 477.98 296.99 487.47
  Q 296.08 498.32 300.77 509.28
  C 308.16 526.53 325.16 538.36 343.74 540.12
  Q 359.07 541.57 372.29 534.01
  Q 383.40 527.65 391.29 517.56
  A 0.44 0.43 -37.0 0 1 392.04 517.66
  C 393.72 521.90 395.73 526.15 396.01 530.54
  Q 396.26 534.61 395.65 536.73
  Q 394.91 539.28 390.88 547.66
  C 385.79 558.27 380.65 571.27 376.54 579.81
  Q 370.74 591.83 361.36 606.10
  Q 359.41 609.06 356.64 612.39
  Q 351.16 618.98 333.39 640.67
  C 324.07 652.04 315.85 663.34 307.29 674.28
  Q 304.28 678.13 300.13 685.60
  Q 292.48 699.36 293.99 714.33
  Q 294.76 721.91 295.43 724.53
  Q 298.02 734.69 303.94 743.05
  Q 321.30 767.59 350.79 767.48
  Q 357.87 767.45 363.15 766.00
  C 375.83 762.53 387.99 754.23 396.58 744.57
  C 417.94 720.55 439.14 696.11 460.62 672.38
  Q 468.85 663.29 473.53 657.54
  Q 482.08 647.06 487.14 634.93
  A 0.62 0.62 0.0 0 1 488.23 634.83
  C 497.02 648.03 502.90 662.76 507.55 678.33
  Q 510.39 687.83 513.76 697.95
  Q 513.86 698.25 522.92 726.68
  Q 525.75 735.56 528.85 742.16
  C 540.04 765.98 563.15 780.49 589.53 777.73
  Q 605.96 776.01 619.46 765.42
  C 630.08 757.10 638.84 744.13 641.78 730.41
  Q 643.23 723.63 643.08 721.28
  C 642.62 714.08 641.13 707.64 638.87 700.48
  Q 612.24 616.34 612.22 616.29
  C 605.12 593.55 595.64 573.85 581.08 556.07
  Q 571.22 544.03 564.10 537.16
  Q 558.85 532.10 547.56 521.71
  Q 545.23 519.57 541.78 515.72
  C 541.20 515.07 540.64 514.89 539.95 514.24
  A 0.63 0.62 36.4 0 1 539.83 513.47
  L 541.30 510.93
  A 0.53 0.53 0.0 0 1 542.09 510.79
  Q 542.69 511.27 542.80 512.19
  Q 541.01 512.34 540.93 513.56
  A 0.86 0.85 22.8 0 0 541.22 514.26
  Q 545.24 517.69 548.92 521.60
  C 556.25 529.41 564.72 535.90 571.84 543.99
  Q 578.08 551.08 578.23 551.26
  Q 592.74 568.09 601.24 585.73
  Q 608.14 600.06 612.40 613.82
  Q 616.56 627.22 618.45 632.75
  Q 619.30 635.21 627.97 663.19
  Q 630.77 672.22 635.43 686.53
  Q 639.99 700.53 642.53 709.96
  Q 643.18 712.35 643.75 718.30
  Q 644.20 722.88 643.45 726.70
  Q 641.38 737.34 637.99 744.04
  Q 631.10 757.66 618.88 767.13
  Q 615.69 769.60 609.01 773.08
  Q 603.78 775.81 598.22 777.14
  Q 589.37 779.25 582.29 779.14
  Q 578.60 779.08 575.75 778.53
  C 572.33 777.86 570.82 777.93 567.18 776.86
  C 554.09 773.01 542.45 765.10 534.74 753.91
  Q 531.30 748.92 528.67 743.93
  Q 525.35 737.61 522.52 728.81
  Q 520.89 723.71 518.46 716.41
  Q 517.41 713.23 516.51 709.81
  Q 515.37 705.47 514.37 703.24
  A 4.06 3.84 -62.8 0 1 514.04 702.10
  Q 513.93 701.26 513.39 699.62
  C 510.05 689.31 508.31 684.45 505.69 675.76
  Q 502.33 664.63 498.01 654.74
  Q 493.61 644.66 491.42 642.04
  Q 490.05 640.40 488.59 637.14
  A 0.74 0.74 0.0 0 0 487.21 637.22
  C 485.95 641.20 483.55 644.73 480.39 649.80
  Q 478.33 653.10 476.58 655.24
  Q 467.93 665.85 463.22 670.97
  Q 452.71 682.42 449.98 685.98
  Q 448.71 687.63 437.64 699.64
  Q 430.88 706.98 425.48 713.44
  Q 417.90 722.51 404.54 737.28
  Q 396.08 746.63 394.16 748.58
  C 384.67 758.21 372.89 764.77 359.81 767.75
  Q 355.37 768.77 347.81 768.37
  Q 340.75 768.00 335.85 766.78
  Q 317.05 762.10 304.62 745.58
  Q 301.42 741.33 298.62 735.87
  Q 297.20 733.09 295.29 727.74
  Q 294.23 724.77 293.18 716.82
  Q 291.54 704.44 295.79 692.71
  C 297.29 688.57 300.46 683.13 302.20 679.84
  A 4.78 4.46 80.9 0 1 302.77 678.99
  C 305.03 676.24 306.51 673.37 308.40 670.97
  Q 316.73 660.39 320.87 654.87
  Q 325.57 648.59 333.55 638.97
  Q 342.11 628.67 357.82 609.04
  Q 361.51 604.42 363.33 601.25
  Q 365.39 597.67 366.64 595.81
  Q 368.35 593.26 369.88 590.32
  Q 375.72 579.13 376.63 577.13
  Q 380.32 568.99 388.83 549.71
  C 391.63 543.36 395.26 537.88 395.04 530.77
  Q 394.91 526.99 391.95 519.56
  A 0.44 0.44 0.0 0 0 391.26 519.38
  C 390.44 520.08 389.78 521.63 388.78 522.41
  C 385.14 525.26 381.86 529.25 378.21 531.63
  C 368.92 537.69 359.03 541.64 348.20 541.33
  Q 339.40 541.08 332.73 539.00
  Q 326.48 537.04 317.89 531.73
  C 316.20 530.68 314.78 529.20 313.07 527.77
  Q 308.51 523.97 305.29 519.23
  Q 299.92 511.30 298.46 505.84
  Q 296.12 497.08 296.09 496.01
  C 295.92 491.11 295.73 487.82 296.56 483.39
  Q 298.49 473.11 302.12 465.94
  Q 302.91 464.38 304.65 460.00
  Q 305.34 458.29 307.27 454.09
  Q 312.77 442.11 321.88 416.44
  Q 330.08 393.37 348.95 378.50
  Q 358.81 370.74 368.24 365.53
  Q 374.46 362.10 377.21 360.32
  C 381.38 357.64 386.83 355.06 391.52 352.04
  Q 392.18 351.61 396.75 348.75
  Q 398.19 347.85 422.38 333.73
  Q 428.78 329.99 437.18 324.68
  Q 445.63 319.33 456.37 314.20
  A 1.32 1.31 62.7 0 0 456.95 312.37
  Q 452.65 304.71 450.17 297.35
  C 449.92 296.59 449.98 295.76 449.73 294.94
  Q 446.88 285.26 446.23 279.96
  Q 441.95 245.19 461.99 215.67
  Q 471.02 202.36 485.62 192.61
  Q 496.21 185.53 506.32 182.69
  Q 534.17 174.88 562.21 182.30
  Q 590.60 189.82 609.60 211.43
  Q 614.72 217.26 621.10 228.37
  Q 622.38 230.60 623.95 234.57
  Q 625.75 239.12 626.40 240.91
  Q 628.86 247.74 629.90 257.76
  Q 631.39 271.99 627.67 289.49
  C 626.90 293.11 625.50 296.12 624.59 299.28
  Q 623.88 301.75 623.22 303.17
  Q 616.54 317.57 610.22 325.74
  Q 608.88 327.48 603.80 332.81
  Q 595.77 341.25 586.16 346.14
  Q 579.71 349.43 572.13 351.92
  A 0.74 0.74 0.0 0 0 571.78 353.09
  Q 578.15 361.11 582.86 367.91
  Q 593.56 383.35 600.17 400.31
  Q 605.42 413.78 609.93 427.59
  A 2.04 2.01 12.8 0 0 610.46 428.42
  Q 612.70 430.54 616.23 432.03
  Q 624.30 435.43 661.49 451.08
  Q 671.49 455.29 676.48 458.25
  Q 682.64 461.91 689.53 468.47
  Q 690.86 469.74 695.09 476.42
  Q 700.63 485.16 701.81 495.30
  Q 702.93 504.83 699.55 515.22
  Q 694.27 531.44 680.82 542.37
  Q 671.07 550.29 657.51 552.75
  C 647.81 554.50 638.61 554.47 629.56 551.80
  C 626.55 550.92 622.87 550.11 619.59 548.80
  Q 604.44 542.76 588.55 535.19
  Q 569.43 526.08 559.05 521.18
  Q 555.66 519.58 543.44 512.72
  Z"
/>
<path fill="#ffffff" d="
  M 543.44 512.72
  L 542.80 512.19
  Q 542.69 511.27 542.09 510.79
  A 0.53 0.53 0.0 0 0 541.30 510.93
  L 539.83 513.47
  A 0.63 0.62 36.4 0 0 539.95 514.24
  C 540.64 514.89 541.20 515.07 541.78 515.72
  Q 545.23 519.57 547.56 521.71
  Q 558.85 532.10 564.10 537.16
  Q 571.22 544.03 581.08 556.07
  C 595.64 573.85 605.12 593.55 612.22 616.29
  Q 612.24 616.34 638.87 700.48
  C 641.13 707.64 642.62 714.08 643.08 721.28
  Q 643.23 723.63 641.78 730.41
  C 638.84 744.13 630.08 757.10 619.46 765.42
  Q 605.96 776.01 589.53 777.73
  C 563.15 780.49 540.04 765.98 528.85 742.16
  Q 525.75 735.56 522.92 726.68
  Q 513.86 698.25 513.76 697.95
  Q 510.39 687.83 507.55 678.33
  C 502.90 662.76 497.02 648.03 488.23 634.83
  A 0.62 0.62 0.0 0 0 487.14 634.93
  Q 482.08 647.06 473.53 657.54
  Q 468.85 663.29 460.62 672.38
  C 439.14 696.11 417.94 720.55 396.58 744.57
  C 387.99 754.23 375.83 762.53 363.15 766.00
  Q 357.87 767.45 350.79 767.48
  Q 321.30 767.59 303.94 743.05
  Q 298.02 734.69 295.43 724.53
  Q 294.76 721.91 293.99 714.33
  Q 292.48 699.36 300.13 685.60
  Q 304.28 678.13 307.29 674.28
  C 315.85 663.34 324.07 652.04 333.39 640.67
  Q 351.16 618.98 356.64 612.39
  Q 359.41 609.06 361.36 606.10
  Q 370.74 591.83 376.54 579.81
  C 380.65 571.27 385.79 558.27 390.88 547.66
  Q 394.91 539.28 395.65 536.73
  Q 396.26 534.61 396.01 530.54
  C 395.73 526.15 393.72 521.90 392.04 517.66
  A 0.44 0.43 -37.0 0 0 391.29 517.56
  Q 383.40 527.65 372.29 534.01
  Q 359.07 541.57 343.74 540.12
  C 325.16 538.36 308.16 526.53 300.77 509.28
  Q 296.08 498.32 296.99 487.47
  Q 297.78 477.98 302.35 467.87
  Q 312.45 445.51 319.47 425.90
  Q 325.37 409.43 328.83 403.39
  C 338.07 387.24 351.56 376.34 367.74 367.06
  Q 374.00 363.47 377.89 361.00
  C 382.09 358.33 386.44 356.24 391.55 353.13
  C 399.48 348.30 408.51 342.73 415.33 338.87
  Q 427.26 332.13 437.54 325.53
  C 443.41 321.77 451.22 317.46 456.65 315.15
  Q 458.98 314.15 457.59 311.67
  Q 446.92 292.62 446.42 268.74
  Q 446.39 267.08 446.85 260.01
  C 448.09 240.82 456.97 222.00 469.49 207.67
  C 475.37 200.94 482.91 195.27 490.04 190.81
  Q 497.88 185.91 507.82 183.17
  Q 522.92 179.02 540.45 179.55
  Q 545.40 179.70 551.47 180.93
  C 556.93 182.03 561.76 182.69 565.95 184.13
  Q 575.36 187.38 582.65 191.14
  Q 592.87 196.40 602.37 205.26
  Q 620.32 222.01 626.84 245.74
  C 630.78 260.11 630.02 277.08 626.19 291.42
  C 621.89 307.53 612.76 323.32 600.69 334.54
  Q 593.56 341.17 586.53 344.90
  Q 579.80 348.48 570.12 351.33
  A 0.51 0.51 0.0 0 0 569.87 352.14
  Q 577.74 361.72 585.12 373.02
  C 596.51 390.47 602.36 408.48 609.18 428.11
  A 3.51 3.51 0.0 0 0 610.55 429.87
  Q 612.96 431.47 614.90 432.33
  Q 623.47 436.11 666.00 453.98
  Q 677.51 458.82 685.01 465.51
  Q 693.76 473.32 698.08 484.48
  Q 703.00 497.19 700.09 509.80
  Q 695.90 527.92 682.02 540.10
  C 668.45 552.01 648.28 555.42 631.01 551.23
  Q 624.78 549.72 617.90 547.07
  Q 607.91 543.22 589.45 534.53
  C 574.64 527.57 564.58 523.07 553.93 517.36
  Q 549.54 515.00 544.46 512.42
  Q 543.91 512.15 543.44 512.72
  Z
  M 519.62 207.74
  C 494.20 214.86 476.61 238.55 476.04 265.06
  Q 475.87 273.32 476.32 276.17
  Q 480.20 300.77 497.74 315.67
  Q 514.37 329.79 535.64 330.84
  C 571.13 332.59 603.02 303.26 601.40 267.48
  C 600.50 247.76 590.29 229.82 574.41 218.30
  C 559.20 207.26 537.75 202.67 519.62 207.74
  Z
  M 439.44 417.51
  Q 439.63 417.54 439.77 417.57
  A 0.42 0.42 0.0 0 1 440.08 418.08
  Q 439.98 418.53 439.71 418.97
  Q 438.61 421.16 438.35 422.11
  C 433.21 440.82 429.02 458.03 422.45 481.14
  Q 418.10 496.48 417.50 503.04
  C 415.99 519.82 425.55 534.53 437.66 545.58
  Q 437.97 545.87 463.19 567.82
  Q 472.66 576.06 490.68 595.47
  Q 504.74 610.62 513.17 620.73
  Q 521.22 630.41 524.08 640.21
  Q 532.57 669.26 544.93 707.12
  Q 547.76 715.79 552.95 726.49
  C 559.39 739.75 568.04 749.64 584.05 749.47
  C 598.60 749.32 611.14 740.30 614.42 725.76
  C 616.21 717.85 613.44 709.82 610.64 701.08
  Q 595.53 653.76 585.62 622.63
  Q 579.15 602.30 570.11 587.84
  Q 557.86 568.24 539.21 551.05
  Q 537.83 549.77 525.89 538.60
  C 517.60 530.84 513.04 521.93 518.05 510.79
  Q 523.98 497.57 527.20 485.90
  Q 531.47 470.39 534.21 454.33
  Q 535.86 454.10 536.03 454.53
  Q 536.04 454.75 536.13 454.92
  Q 542.87 468.57 552.15 479.35
  Q 562.82 491.76 577.68 499.05
  Q 586.92 503.59 587.94 504.05
  Q 600.53 509.74 624.93 519.62
  Q 633.02 522.90 640.79 524.72
  Q 650.96 527.10 660.20 523.07
  C 673.18 517.39 677.25 501.12 669.37 489.86
  C 666.45 485.70 660.24 481.34 655.82 479.16
  Q 628.28 465.51 600.04 456.44
  Q 588.70 452.80 584.62 440.90
  Q 582.17 433.76 575.54 415.92
  Q 569.14 398.72 557.96 381.28
  C 544.90 360.90 527.98 345.70 504.05 341.17
  C 490.37 338.58 474.68 339.02 461.16 344.18
  C 451.37 347.92 439.60 355.36 431.61 359.82
  C 410.23 371.74 396.33 379.50 378.39 390.63
  C 366.76 397.84 355.09 408.19 350.39 421.67
  Q 342.61 444.01 328.70 473.90
  C 324.12 483.76 322.67 494.71 329.61 503.56
  C 337.36 513.45 350.72 514.86 360.99 508.19
  Q 371.81 501.18 377.90 489.42
  Q 382.34 480.84 383.70 476.94
  Q 387.77 465.23 390.66 456.41
  Q 393.04 449.17 395.39 445.53
  C 397.95 441.57 400.22 437.91 403.79 435.29
  Q 407.84 432.31 414.27 429.36
  Q 426.92 423.55 439.44 417.51
  Z
  M 415.94 553.47
  Q 414.42 561.06 411.66 567.94
  Q 405.31 583.78 397.17 600.43
  C 390.28 614.55 379.96 628.39 367.78 642.41
  Q 361.60 649.52 336.65 678.39
  C 326.19 690.51 316.51 707.22 324.74 723.43
  C 329.21 732.26 337.52 737.68 347.30 738.83
  C 358.24 740.11 369.87 732.94 377.07 725.04
  C 384.20 717.22 390.70 708.77 397.38 701.04
  C 417.31 677.97 427.17 666.23 440.54 651.12
  C 450.62 639.74 461.04 628.17 467.06 614.36
  C 470.61 606.24 466.89 601.09 461.51 595.35
  Q 451.66 584.83 441.36 575.40
  Q 429.45 564.51 416.53 553.27
  A 0.36 0.36 0.0 0 0 415.94 553.47
  Z"
/>
<path fill="#fe4642" d="
  M 519.62 207.74
  C 537.75 202.67 559.20 207.26 574.41 218.30
  C 590.29 229.82 600.50 247.76 601.40 267.48
  C 603.02 303.26 571.13 332.59 535.64 330.84
  Q 514.37 329.79 497.74 315.67
  Q 480.20 300.77 476.32 276.17
  Q 475.87 273.32 476.04 265.06
  C 476.61 238.55 494.20 214.86 519.62 207.74
  Z
  M 500.23 316.71
  C 524.00 335.39 557.64 334.10 580.16 314.41
  C 603.83 293.71 606.85 261.35 590.02 235.72
  Q 584.14 226.76 575.95 220.33
  Q 567.77 213.90 557.68 210.31
  C 528.79 200.02 498.06 210.61 483.55 238.51
  C 469.75 265.05 476.46 298.04 500.23 316.71
  Z"
/>
<path fill="#ffadb1" d="
  M 575.95 220.33
  Q 584.14 226.76 590.02 235.72
  C 606.85 261.35 603.83 293.71 580.16 314.41
  C 557.64 334.10 524.00 335.39 500.23 316.71
  C 476.46 298.04 469.75 265.05 483.55 238.51
  C 498.06 210.61 528.79 200.02 557.68 210.31
  Q 567.77 213.90 575.95 220.33
  Z"
/>
<path fill="#fe4642" d="
  M 536.03 454.53
  Q 535.99 454.35 536.13 454.20
  A 0.20 0.20 0.0 0 1 536.45 454.24
  Q 538.65 458.09 542.26 464.21
  C 548.91 475.47 558.12 486.32 569.23 493.35
  C 576.13 497.71 584.24 501.50 589.93 504.05
  Q 602.25 509.57 626.61 519.38
  Q 634.28 522.48 640.62 523.91
  C 656.52 527.49 672.66 519.92 672.48 501.75
  C 672.33 487.75 658.48 481.02 647.73 475.99
  Q 625.72 465.71 597.88 456.38
  C 590.37 453.86 585.97 447.00 583.39 439.98
  Q 578.51 426.68 576.25 420.27
  Q 567.55 395.57 552.44 374.57
  C 539.46 356.52 520.94 343.45 498.48 341.15
  Q 484.22 339.69 473.51 341.60
  C 462.64 343.54 453.22 348.10 443.80 353.58
  C 421.78 366.39 400.20 377.79 378.69 391.20
  C 367.41 398.22 356.66 407.67 351.79 420.05
  Q 350.01 424.57 344.02 440.54
  C 341.43 447.45 338.72 453.05 336.51 458.41
  C 330.80 472.22 319.12 488.38 329.89 502.71
  C 338.03 513.54 352.49 514.00 362.86 506.11
  Q 369.14 501.34 373.16 495.67
  C 381.02 484.61 384.79 471.89 389.90 456.30
  Q 392.16 449.40 394.43 445.64
  Q 398.55 438.84 401.35 436.36
  Q 406.88 431.47 414.48 428.17
  C 422.72 424.61 430.55 420.72 438.79 416.85
  A 0.51 0.51 0.0 0 1 439.35 416.94
  Q 439.46 417.05 439.44 417.51
  Q 426.92 423.55 414.27 429.36
  Q 407.84 432.31 403.79 435.29
  C 400.22 437.91 397.95 441.57 395.39 445.53
  Q 393.04 449.17 390.66 456.41
  Q 387.77 465.23 383.70 476.94
  Q 382.34 480.84 377.90 489.42
  Q 371.81 501.18 360.99 508.19
  C 350.72 514.86 337.36 513.45 329.61 503.56
  C 322.67 494.71 324.12 483.76 328.70 473.90
  Q 342.61 444.01 350.39 421.67
  C 355.09 408.19 366.76 397.84 378.39 390.63
  C 396.33 379.50 410.23 371.74 431.61 359.82
  C 439.60 355.36 451.37 347.92 461.16 344.18
  C 474.68 339.02 490.37 338.58 504.05 341.17
  C 527.98 345.70 544.90 360.90 557.96 381.28
  Q 569.14 398.72 575.54 415.92
  Q 582.17 433.76 584.62 440.90
  Q 588.70 452.80 600.04 456.44
  Q 628.28 465.51 655.82 479.16
  C 660.24 481.34 666.45 485.70 669.37 489.86
  C 677.25 501.12 673.18 517.39 660.20 523.07
  Q 650.96 527.10 640.79 524.72
  Q 633.02 522.90 624.93 519.62
  Q 600.53 509.74 587.94 504.05
  Q 586.92 503.59 577.68 499.05
  Q 562.82 491.76 552.15 479.35
  Q 542.87 468.57 536.13 454.92
  Q 536.04 454.75 536.03 454.53
  Z"
/>
<path fill="#ffadb1" d="
  M 536.03 454.53
  Q 535.86 454.10 534.21 454.33
  Q 530.96 465.59 528.31 476.91
  Q 524.99 491.10 523.92 494.09
  Q 520.90 502.53 517.33 510.54
  Q 514.45 516.99 515.62 524.88
  A 4.26 3.92 31.3 0 0 515.93 525.95
  Q 519.14 533.41 524.95 538.80
  Q 537.12 550.08 542.10 554.68
  Q 550.46 562.38 561.69 576.92
  C 571.78 590.00 578.59 604.19 583.78 619.70
  Q 588.09 632.58 605.07 686.63
  C 607.19 693.38 610.36 702.31 612.55 710.69
  Q 614.54 718.27 614.34 720.57
  Q 613.36 732.25 606.70 739.14
  Q 599.58 746.51 589.13 748.31
  C 576.10 750.56 564.29 744.94 557.71 733.53
  Q 550.33 720.74 545.79 706.99
  Q 538.04 683.46 531.62 662.17
  Q 527.50 648.53 524.14 637.86
  C 520.76 627.12 512.94 619.54 506.01 611.34
  Q 477.64 577.81 444.72 550.69
  C 436.55 543.96 429.02 536.16 423.80 527.25
  Q 415.92 513.79 419.00 498.80
  C 421.64 485.97 426.71 469.95 429.79 458.17
  C 433.18 445.23 436.22 432.60 440.40 419.34
  A 0.36 0.35 14.0 0 0 440.12 418.88
  Q 440.00 418.86 439.71 418.97
  Q 439.98 418.53 440.08 418.08
  A 0.42 0.42 0.0 0 0 439.77 417.57
  Q 439.63 417.54 439.44 417.51
  Q 439.46 417.05 439.35 416.94
  A 0.51 0.51 0.0 0 0 438.79 416.85
  C 430.55 420.72 422.72 424.61 414.48 428.17
  Q 406.88 431.47 401.35 436.36
  Q 398.55 438.84 394.43 445.64
  Q 392.16 449.40 389.90 456.30
  C 384.79 471.89 381.02 484.61 373.16 495.67
  Q 369.14 501.34 362.86 506.11
  C 352.49 514.00 338.03 513.54 329.89 502.71
  C 319.12 488.38 330.80 472.22 336.51 458.41
  C 338.72 453.05 341.43 447.45 344.02 440.54
  Q 350.01 424.57 351.79 420.05
  C 356.66 407.67 367.41 398.22 378.69 391.20
  C 400.20 377.79 421.78 366.39 443.80 353.58
  C 453.22 348.10 462.64 343.54 473.51 341.60
  Q 484.22 339.69 498.48 341.15
  C 520.94 343.45 539.46 356.52 552.44 374.57
  Q 567.55 395.57 576.25 420.27
  Q 578.51 426.68 583.39 439.98
  C 585.97 447.00 590.37 453.86 597.88 456.38
  Q 625.72 465.71 647.73 475.99
  C 658.48 481.02 672.33 487.75 672.48 501.75
  C 672.66 519.92 656.52 527.49 640.62 523.91
  Q 634.28 522.48 626.61 519.38
  Q 602.25 509.57 589.93 504.05
  C 584.24 501.50 576.13 497.71 569.23 493.35
  C 558.12 486.32 548.91 475.47 542.26 464.21
  Q 538.65 458.09 536.45 454.24
  A 0.20 0.20 0.0 0 0 536.13 454.20
  Q 535.99 454.35 536.03 454.53
  Z"
/>
<path fill="#fe4642" d="
  M 439.71 418.97
  Q 440.00 418.86 440.12 418.88
  A 0.36 0.35 14.0 0 1 440.40 419.34
  C 436.22 432.60 433.18 445.23 429.79 458.17
  C 426.71 469.95 421.64 485.97 419.00 498.80
  Q 415.92 513.79 423.80 527.25
  C 429.02 536.16 436.55 543.96 444.72 550.69
  Q 477.64 577.81 506.01 611.34
  C 512.94 619.54 520.76 627.12 524.14 637.86
  Q 527.50 648.53 531.62 662.17
  Q 538.04 683.46 545.79 706.99
  Q 550.33 720.74 557.71 733.53
  C 564.29 744.94 576.10 750.56 589.13 748.31
  Q 599.58 746.51 606.70 739.14
  Q 613.36 732.25 614.34 720.57
  Q 614.54 718.27 612.55 710.69
  C 610.36 702.31 607.19 693.38 605.07 686.63
  Q 588.09 632.58 583.78 619.70
  C 578.59 604.19 571.78 590.00 561.69 576.92
  Q 550.46 562.38 542.10 554.68
  Q 537.12 550.08 524.95 538.80
  Q 519.14 533.41 515.93 525.95
  A 4.26 3.92 31.3 0 1 515.62 524.88
  Q 514.45 516.99 517.33 510.54
  Q 520.90 502.53 523.92 494.09
  Q 524.99 491.10 528.31 476.91
  Q 530.96 465.59 534.21 454.33
  Q 531.47 470.39 527.20 485.90
  Q 523.98 497.57 518.05 510.79
  C 513.04 521.93 517.60 530.84 525.89 538.60
  Q 537.83 549.77 539.21 551.05
  Q 557.86 568.24 570.11 587.84
  Q 579.15 602.30 585.62 622.63
  Q 595.53 653.76 610.64 701.08
  C 613.44 709.82 616.21 717.85 614.42 725.76
  C 611.14 740.30 598.60 749.32 584.05 749.47
  C 568.04 749.64 559.39 739.75 552.95 726.49
  Q 547.76 715.79 544.93 707.12
  Q 532.57 669.26 524.08 640.21
  Q 521.22 630.41 513.17 620.73
  Q 504.74 610.62 490.68 595.47
  Q 472.66 576.06 463.19 567.82
  Q 437.97 545.87 437.66 545.58
  C 425.55 534.53 415.99 519.82 417.50 503.04
  Q 418.10 496.48 422.45 481.14
  C 429.02 458.03 433.21 440.82 438.35 422.11
  Q 438.61 421.16 439.71 418.97
  Z"
/>
<path fill="#fe4642" d="
  M 415.94 553.47
  A 0.36 0.36 0.0 0 1 416.53 553.27
  Q 429.45 564.51 441.36 575.40
  Q 451.66 584.83 461.51 595.35
  C 466.89 601.09 470.61 606.24 467.06 614.36
  C 461.04 628.17 450.62 639.74 440.54 651.12
  C 427.17 666.23 417.31 677.97 397.38 701.04
  C 390.70 708.77 384.20 717.22 377.07 725.04
  C 369.87 732.94 358.24 740.11 347.30 738.83
  C 337.52 737.68 329.21 732.26 324.74 723.43
  C 316.51 707.22 326.19 690.51 336.65 678.39
  Q 361.60 649.52 367.78 642.41
  C 379.96 628.39 390.28 614.55 397.17 600.43
  Q 405.31 583.78 411.66 567.94
  Q 414.42 561.06 415.94 553.47
  Z
  M 416.21 555.22
  Q 415.02 560.90 413.07 566.10
  Q 408.63 577.92 398.94 598.45
  C 391.76 613.67 381.00 628.09 367.65 643.58
  Q 361.06 651.24 339.47 676.09
  C 330.47 686.45 322.16 697.66 322.47 711.97
  Q 322.64 720.02 328.31 727.76
  C 332.37 733.31 339.81 736.76 346.26 737.93
  C 356.78 739.83 367.99 733.19 375.24 726.00
  Q 378.46 722.80 387.52 711.76
  C 400.47 695.97 417.48 677.01 426.17 666.56
  C 434.42 656.63 447.39 643.06 455.92 631.80
  Q 459.38 627.23 461.47 623.71
  C 464.76 618.17 468.15 612.30 467.48 605.93
  A 4.67 4.54 -63.1 0 0 466.96 604.26
  Q 464.53 599.79 462.11 597.13
  Q 450.95 584.89 438.87 574.14
  Q 437.63 573.04 428.11 564.45
  Q 422.81 559.67 417.09 554.91
  A 0.54 0.54 0.0 0 0 416.21 555.22
  Z"
/>
<path fill="#ffadb1" d="
  M 416.21 555.22
  A 0.54 0.54 0.0 0 1 417.09 554.91
  Q 422.81 559.67 428.11 564.45
  Q 437.63 573.04 438.87 574.14
  Q 450.95 584.89 462.11 597.13
  Q 464.53 599.79 466.96 604.26
  A 4.67 4.54 -63.1 0 1 467.48 605.93
  C 468.15 612.30 464.76 618.17 461.47 623.71
  Q 459.38 627.23 455.92 631.80
  C 447.39 643.06 434.42 656.63 426.17 666.56
  C 417.48 677.01 400.47 695.97 387.52 711.76
  Q 378.46 722.80 375.24 726.00
  C 367.99 733.19 356.78 739.83 346.26 737.93
  C 339.81 736.76 332.37 733.31 328.31 727.76
  Q 322.64 720.02 322.47 711.97
  C 322.16 697.66 330.47 686.45 339.47 676.09
  Q 361.06 651.24 367.65 643.58
  C 381.00 628.09 391.76 613.67 398.94 598.45
  Q 408.63 577.92 413.07 566.10
  Q 415.02 560.90 416.21 555.22
  Z"
/>
</svg>
